<svg height="24px" viewbox="0 0 24 24" width="24px" x="0px" xml:space="preserve" xmlns="http://www.w3.org/2000/svg" xmlns:xlink="http://www.w3.org/1999/xlink" y="0px">
<g id="tnmnbodblt-Frames-24px">
<rect fill="none" height="24" width="24"></rect>
</g>
<g id="tnmnbodblt-Solid">
<g>
<path d="M12,3L5,5l1,2c0,0,0,0.592,0,1c0,0.424,0.398,0.816,1.072,1.14C7.028,9.428,7,9.717,7,10    c0,2.757,2.243,5,5,5s5-2.243,5-5c0-0.283-0.028-0.572-0.072-0.86C17.602,8.816,18,8.424,18,8c0-0.867,0-0.988,0-1l1-2L12,3z     M10,5h4v2l-2,1l-2-1V5z M12,13c-1.654,0-3-1.346-3-3c0-0.086,0.019-0.177,0.026-0.265C9.903,9.903,10.917,10,12,10    s2.097-0.097,2.974-0.265C14.981,9.823,15,9.914,15,10C15,11.654,13.654,13,12,13z"></path>
<path d="M12,16c-4.71,0-8,2.467-8,6v2h16v-2C20,18.467,16.71,16,12,16z M12,23c-0.553,0-1-0.447-1-1s0.447-1,1-1    s1,0.447,1,1S12.553,23,12,23z M12,20c-0.553,0-1-0.447-1-1s0.447-1,1-1s1,0.447,1,1S12.553,20,12,20z"></path>
</g>
</g>
</svg>