<svg height="100.38937mm" id="iybrrcllkb-svg8" inkscape:version="0.92.4 5da689c313, 2019-01-14" sodipodi:docname="social-login-facebook.svg" viewbox="0 0 100.38937 100.38937" width="100.38937mm" xmlns="http://www.w3.org/2000/svg" xmlns:cc="http://creativecommons.org/ns#" xmlns:dc="http://purl.org/dc/elements/1.1/" xmlns:inkscape="http://www.inkscape.org/namespaces/inkscape" xmlns:rdf="http://www.w3.org/1999/02/22-rdf-syntax-ns#" xmlns:sodipodi="http://sodipodi.sourceforge.net/DTD/sodipodi-0.dtd" xmlns:svg="http://www.w3.org/2000/svg">
<defs id="iybrrcllkb-defs2"></defs>
<metadata id="iybrrcllkb-metadata5"></metadata>
<g id="iybrrcllkb-layer1" inkscape:groupmode="layer" inkscape:label="1. réteg" transform="translate(-120.65055,-173.47793)">
<g id="iybrrcllkb-g823" inkscape:label="ink_ext_XXXXXX" transform="matrix(0.0980365,0,0,-0.0980365,120.65055,273.86731)">
<g id="iybrrcllkb-g825" transform="scale(0.1)">
<path d="m 10240,5120 c 0,2827.7 -2292.3,5120 -5120,5120 C 2292.3,10240 0,7947.7 0,5120 0,2564.46 1872.31,446.301 4320,62.1992 V 3640 H 3020 v 1480 h 1300 v 1128 c 0,1283.2 764.38,1992 1933.9,1992 560.17,0 1146.1,-100 1146.1,-100 V 6880 H 6754.38 C 6118.35,6880 5920,6485.33 5920,6080.43 V 5120 H 7340 L 7113,3640 H 5920 V 62.1992 C 8367.69,446.301 10240,2564.46 10240,5120" id="iybrrcllkb-path827" inkscape:connector-curvature="0" style="fill:#1877f2;fill-opacity:1;fill-rule:nonzero;stroke:none"></path>
<path d="m 7113,3640 227,1480 H 5920 v 960.43 c 0,404.9 198.35,799.57 834.38,799.57 H 7400 v 1260 c 0,0 -585.93,100 -1146.1,100 C 5084.38,8240 4320,7531.2 4320,6248 V 5120 H 3020 V 3640 H 4320 V 62.1992 C 4580.67,21.3008 4847.84,0 5120,0 c 272.16,0 539.33,21.3008 800,62.1992 V 3640 h 1193" id="iybrrcllkb-path829" inkscape:connector-curvature="0" style="fill:#ffffff;fill-opacity:1;fill-rule:nonzero;stroke:none"></path>
</g>
</g>
</g>
</svg>