<svg fill="none" height="252" viewbox="0 0 1038 252" width="1038" xmlns="http://www.w3.org/2000/svg">
<g clip-path="url(#clip0)">
<path d="M501.785 175.203C501.785 206.388 477.436 230.485 436.101 230.485C411.171 230.476 387.258 220.59 369.583 202.986L384.337 186.543C399.342 201.001 416.597 210.357 436.982 210.357C463.312 210.357 479.733 197.316 479.733 176.337C479.733 157.909 468.723 147.42 432.452 134.379C389.716 119.07 375.277 105.178 375.277 76.5448C375.277 44.7928 400.192 25.7983 437.265 25.7983C463.878 25.7983 480.865 33.6733 497.569 47.0608L483.413 64.3858C468.974 52.4788 455.668 45.9583 435.849 45.9583C408.669 45.9583 397.36 59.5663 397.36 75.1588C397.36 91.6018 404.721 100.957 444.343 115.132C488.148 130.977 501.785 145.719 501.785 175.203Z" fill="#4DC1B9"></path>
<path d="M649.291 227.367H628.135V209.223C617.66 220.563 602.969 230.486 581.703 230.486C558.487 230.486 534.155 218.862 534.155 182.858C534.155 149.405 561.618 135.23 591.046 135.23C606.052 135.23 619.358 138.915 628.135 143.735V126.158C628.135 104.108 617.66 93.2716 595.859 93.2716C581.584 93.2477 567.579 97.172 555.389 104.612L547.524 87.2866C560.532 80.1991 578.086 75.3796 597.338 75.3796C629.331 75.3796 649.432 88.9876 649.432 123.575L649.291 227.367ZM628.135 190.796V160.745C618.509 155.358 608.034 152.24 589.914 152.24C568.114 152.24 555.09 162.729 555.09 181.44C555.09 203.49 567.264 213.192 585.384 213.192C604.542 213.192 618.997 203.27 628.135 190.796Z" fill="#4DC1B9"></path>
<path d="M814.633 150.539C814.633 203.27 789.719 230.486 758.575 230.486C739.889 230.486 727.118 222.611 716.673 210.641V227.367H695.439V32.6026L716.673 20.6956V96.6736C727.149 85.3336 741.305 75.4111 761.407 75.4111C791.134 75.4111 814.633 98.0911 814.633 150.539ZM793.682 150.822C793.682 113.4 779.526 93.8386 756.027 93.8386C740.173 93.8386 727.149 102.344 716.705 115.385V189.662C724.915 202.136 739.355 212.058 756.908 212.058C781.508 212.058 793.682 190.796 793.682 150.822V150.822Z" fill="#4DC1B9"></path>
<path d="M876.354 227.367H855.12V32.6026L876.354 20.6956V227.367Z" fill="#4DC1B9"></path>
<path d="M1038.02 148.554C1038.08 152.446 1037.8 156.336 1037.17 160.177H938.074C940.056 191.929 955.061 212.058 979.41 212.058C996.711 212.058 1006.87 206.955 1020.46 197.883L1030.37 213.192C1012.53 224.532 999.511 230.517 977.145 230.517C949.965 230.517 916.84 210.672 916.84 152.271C916.84 104.926 942.887 75.4424 978.277 75.4424C1017.06 75.4109 1038.02 106.029 1038.02 148.554ZM1018.2 142.884C1016.5 113.967 1004.04 93.8384 977.994 93.8384C955.973 93.8384 940.622 109.714 938.074 142.884H1018.2Z" fill="#4DC1B9"></path>
<path d="M125.832 0C100.944 0 76.6162 7.38977 55.9233 21.2348C35.2304 35.0799 19.1023 54.7584 9.57841 77.7819C0.0545208 100.805 -2.43736 126.14 2.41787 150.581C7.27311 175.023 19.2574 197.474 36.8553 215.095C54.4531 232.717 76.8742 244.717 101.283 249.579C125.692 254.441 150.993 251.945 173.985 242.409C196.978 232.872 216.63 216.722 230.457 196.002C244.283 175.281 251.663 150.92 251.663 126C251.663 92.5827 238.406 60.5341 214.808 36.9045C191.21 13.275 159.204 0 125.832 0ZM217.94 134.71C212.608 123.212 200.497 108.722 187.426 101.635C175.834 95.3348 167.749 93.618 154.081 92.0745C140.412 90.531 138.745 90.4995 134.357 90.027C129.968 89.5545 111.392 87.1605 98.6834 80.4667C85.9744 73.773 80.5794 61.8975 81.3816 52.5735C82.168 42.5407 89.7337 29.5627 106.894 23.8927C121.322 19.3857 136.621 18.4187 151.501 21.0735C154.392 21.5744 157.25 22.253 160.058 23.1052L160.734 23.2785C200.497 36.918 231.514 72.639 233.087 118.66C234.047 130.63 234.267 148.664 222.502 175.014C222.329 175.03 226.78 153.752 217.94 134.71Z" fill="#4DC1B9"></path>
</g>
<defs>
<clippath id="clip0">
<rect fill="white" height="252" width="1038"></rect>
</clippath>
</defs>
</svg>