<svg height="285" id="yyquigwxdu-Layer_1" inkscape:output_extension="org.inkscape.output.svg.inkscape" inkscape:version="0.45.1" sodipodi:docname="FDICLogo.svg" sodipodi:version="0.32" viewbox="0 0 78.308 30.929" width="720" x="0px" xml:space="preserve" xmlns="http://www.w3.org/2000/svg" xmlns:cc="http://web.resource.org/cc/" xmlns:dc="http://purl.org/dc/elements/1.1/" xmlns:inkscape="http://www.inkscape.org/namespaces/inkscape" xmlns:rdf="http://www.w3.org/1999/02/22-rdf-syntax-ns#" xmlns:sodipodi="http://sodipodi.sourceforge.net/DTD/sodipodi-0.dtd" xmlns:svg="http://www.w3.org/2000/svg" y="0px"><metadata id="yyquigwxdu-metadata210"></metadata><defs id="yyquigwxdu-defs208">
</defs>
<polygon id="yyquigwxdu-polygon3" points="8.354,30.88 0,30.88 0,0.128 17.184,0.128 17.184,8.166 8.354,8.166 8.354,13.144 16.674,13.144 16.674,21.183 8.354,21.183 8.354,30.88 " style="fill:#003366;fill-opacity:1"></polygon>
<path d="M 44.619999,15.489 C 44.619999,1.4029998 31.986,0.12799986 26.755,0.12799986 L 18.334,0.12799986 L 18.334,30.851 L 26.755,30.851 L 26.742,22.841 L 26.742,8.0390001 C 31.922999,8.0390001 36.325,9.9529998 36.325,15.44 C 36.325,20.926 31.922999,22.84 26.742,22.84 L 26.755,30.85 C 33.264,30.851 44.619999,29.604 44.619999,15.489 z " id="yyquigwxdu-path5" style="fill:#003366;fill-opacity:1"></path>
<rect height="30.816" id="yyquigwxdu-rect7" style="fill:#003366;fill-opacity:1" width="8.3540001" x="46.066002" y="0.063000493"></rect>
<path d="M 71.475999,22.745 C 67.462999,22.745 64.142,19.475 64.142,15.465 C 64.142,11.455001 67.462999,8.1840004 71.475999,8.1840004 C 75.134999,8.1840004 77.047999,10.13 78.307999,12.693 L 78.307999,1.6590006 C 78.307999,1.6590006 74.608999,-7.1054274e-15 71.161999,-7.1054274e-15 C 63.505999,-7.1054274e-15 55.211,7.0420001 55.211,15.465 C 55.211,25.777 63.122999,30.929 71.161999,30.929 C 74.607999,30.929 78.307999,29.272 78.307999,29.272 L 78.307999,18.334 C 76.799999,20.934 75.114999,22.745 71.475999,22.745 z " id="yyquigwxdu-path9" style="fill:#003366;fill-opacity:1"></path>
<circle cx="71.612" cy="15.478" id="yyquigwxdu-circle13" r="4.395" sodipodi:cx="71.612" sodipodi:cy="15.478" sodipodi:rx="4.395" sodipodi:ry="4.395" style="fill:none;stroke:#003366;stroke-width:0.25;stroke-opacity:1"></circle><circle cx="71.571999" cy="15.494" id="yyquigwxdu-circle15" r="6.3470001" sodipodi:cx="71.571999" sodipodi:cy="15.494" sodipodi:rx="6.3470001" sodipodi:ry="6.3470001" style="fill:none;stroke:#003366;stroke-width:0.25;stroke-opacity:1"></circle>
<g id="yyquigwxdu-g17" style="fill:#003366;fill-opacity:1">
<polygon id="yyquigwxdu-polygon19" points="70.127,11.872 70.127,12.705 69.945,12.705 69.945,12.069 69.876,12.069 69.959,11.872 70.127,11.872 " style="fill:#003366;fill-opacity:1"></polygon>
<path d="M 70.545,12.13 C 70.545,12.301 70.703,12.441 70.899,12.441 C 70.979,12.441 71.051,12.419 71.112,12.38 C 71.002,12.659 70.71,12.546 70.649,12.524 L 70.572,12.676 C 70.667,12.772 71.303,12.834 71.303,12.226 C 71.303,12.157 71.251,11.82 70.899,11.82 L 70.899,11.969 C 71.001,11.969 71.102,12.04 71.102,12.13 C 71.102,12.219 71,12.29 70.899,12.29 C 70.798,12.29 70.715,12.219 70.715,12.13 C 70.715,12.04 70.798,11.969 70.899,11.969 L 70.899,11.82 C 70.703,11.819 70.545,11.958 70.545,12.13 z " id="yyquigwxdu-path21" style="fill:#003366;fill-opacity:1"></path>
<path d="M 71.857,12.743 C 71.668,12.743 71.558,12.661 71.527,12.622 L 71.636,12.513 C 71.686,12.542 71.773,12.596 71.833,12.596 C 71.893,12.596 72.004,12.57 72.004,12.476 C 72.004,12.429 71.962,12.353 71.785,12.376 L 71.785,12.231 C 71.97,12.247 72.014,12.181 72.014,12.12 C 72.014,12.059 71.947,12.009 71.864,12.009 C 71.799,12.009 71.735,12.047 71.68,12.108 L 71.559,11.986 C 71.614,11.901 71.725,11.845 71.856,11.845 C 72.039,11.845 72.176,11.958 72.176,12.099 C 72.176,12.172 72.145,12.24 72.078,12.287 C 72.15,12.328 72.18,12.419 72.18,12.476 C 72.182,12.615 72.058,12.743 71.857,12.743 z " id="yyquigwxdu-path23" style="fill:#003366;fill-opacity:1"></path>
<path d="M 72.758,12.743 C 72.569,12.743 72.459,12.661 72.429,12.622 L 72.539,12.513 C 72.588,12.542 72.675,12.596 72.735,12.596 C 72.795,12.596 72.906,12.57 72.906,12.476 C 72.906,12.429 72.865,12.353 72.688,12.376 L 72.688,12.231 C 72.871,12.247 72.917,12.181 72.917,12.12 C 72.917,12.059 72.85,12.009 72.766,12.009 C 72.702,12.009 72.638,12.047 72.584,12.108 L 72.461,11.986 C 72.516,11.901 72.629,11.845 72.758,11.845 C 72.942,11.845 73.079,11.958 73.079,12.099 C 73.079,12.172 73.049,12.24 72.982,12.287 C 73.052,12.328 73.084,12.419 73.084,12.476 C 73.084,12.615 72.959,12.743 72.758,12.743 z " id="yyquigwxdu-path25" style="fill:#003366;fill-opacity:1"></path>
<path d="M 70.112,18.155 L 70.112,17.696 L 70.023,17.696 L 70.023,18.244 L 70.321,18.244 L 70.321,18.033 L 70.468,18.033 L 70.468,18.244 L 70.765,18.244 L 70.765,17.696 L 70.902,17.696 C 71.065,17.696 71.065,17.78 71.173,17.78 C 71.254,17.78 71.282,17.696 71.341,17.696 C 71.399,17.696 71.417,17.8 71.494,17.8 C 71.57,17.8 71.589,17.696 71.647,17.696 C 71.705,17.696 71.733,17.78 71.815,17.78 C 71.923,17.78 71.954,17.696 72.118,17.696 C 72.209,17.696 72.263,17.737 72.263,17.842 C 72.263,18.022 72.409,18.167 72.589,18.167 C 72.769,18.167 72.914,18.021 72.914,17.842 L 72.914,17.374 C 72.914,17.194 72.768,17.05 72.589,17.05 L 72.591,17.163 C 72.696,17.163 72.784,17.249 72.784,17.356 C 72.784,17.528 72.713,17.607 72.713,17.607 C 72.713,17.607 72.784,17.686 72.784,17.859 C 72.784,17.965 72.696,18.054 72.591,18.054 C 72.484,18.054 72.396,17.965 72.396,17.859 C 72.396,17.686 72.468,17.607 72.468,17.607 C 72.468,17.607 72.396,17.528 72.396,17.356 C 72.396,17.249 72.484,17.163 72.591,17.163 L 72.59,17.05 C 72.41,17.05 72.264,17.195 72.264,17.374 C 72.264,17.479 72.21,17.521 72.119,17.521 C 71.955,17.521 71.925,17.435 71.816,17.435 C 71.734,17.435 71.707,17.515 71.648,17.515 C 71.589,17.515 71.571,17.414 71.495,17.414 C 71.418,17.414 71.399,17.515 71.342,17.515 C 71.283,17.515 71.255,17.435 71.174,17.435 C 71.066,17.435 71.066,17.521 70.903,17.521 C 70.741,17.521 69.885,17.521 69.885,17.521 L 69.885,17.696 L 70.024,17.696 L 70.113,17.696 L 70.677,17.696 L 70.677,18.155 L 70.559,18.155 L 70.559,17.943 L 70.232,17.943 L 70.232,18.155 L 70.112,18.155 z " id="yyquigwxdu-path27" style="fill:#003366;fill-opacity:1"></path>
<g id="yyquigwxdu-g29" style="fill:#003366;fill-opacity:1">
<g id="yyquigwxdu-g31" style="fill:#003366;fill-opacity:1">
<path d="M 70.404,9.787 L 70.906,10.65 C 70.834,10.657 70.758,10.671 70.683,10.688 L 70.593,10.532 L 70.317,10.594 L 70.336,10.379 L 70.484,10.346 L 70.357,10.125 L 70.336,10.379 L 70.317,10.594 L 70.303,10.774 C 70.229,10.79 70.154,10.811 70.085,10.836 L 70.166,9.841 L 70.404,9.787 z " id="yyquigwxdu-path33" style="fill:#003366;fill-opacity:1"></path>
</g>
<g id="yyquigwxdu-g35" style="fill:#003366;fill-opacity:1">
<path d="M 75.634,11.471 L 75.351,11.72 C 75.317,11.751 75.311,11.805 75.343,11.841 L 75.551,12.079 L 75.426,12.186 L 75.162,11.885 L 75.013,12.017 L 75.336,12.385 C 75.377,12.43 75.446,12.434 75.492,12.395 L 75.773,12.155 C 75.809,12.123 75.814,12.069 75.783,12.034 L 75.571,11.794 L 75.695,11.687 L 75.964,11.993 L 76.121,11.861 L 75.787,11.482 C 75.748,11.437 75.68,11.431 75.634,11.471 z " id="yyquigwxdu-path37" style="fill:#003366;fill-opacity:1"></path>
</g>
<g id="yyquigwxdu-g39" style="fill:#003366;fill-opacity:1">
<path d="M 67.182,13.342 C 67.155,13.4 67.125,13.458 67.098,13.521 L 66.259,13.105 L 66.523,12.574 L 66.705,12.668 L 66.533,13.015 L 66.677,13.087 L 66.824,12.79 L 67.007,12.884 L 66.861,13.18 L 67.182,13.342 z " id="yyquigwxdu-path41" style="fill:#003366;fill-opacity:1"></path>
</g>
<g id="yyquigwxdu-g43" style="fill:#003366;fill-opacity:1">
<path d="M 75.377,11.09 C 75.432,11.135 75.439,11.214 75.396,11.268 L 74.958,11.801 C 74.913,11.855 74.834,11.863 74.778,11.818 C 74.699,11.755 74.628,11.683 74.609,11.669 C 74.588,11.652 74.516,11.598 74.44,11.541 C 74.384,11.499 74.378,11.415 74.421,11.361 L 74.858,10.829 C 74.901,10.775 74.983,10.767 75.038,10.812 L 74.969,11.014 L 74.629,11.426 L 74.858,11.613 L 75.195,11.199 L 74.969,11.014 L 75.038,10.812 L 75.377,11.09 z " id="yyquigwxdu-path45" style="fill:#003366;fill-opacity:1"></path>
</g>
<g id="yyquigwxdu-g47" style="fill:#003366;fill-opacity:1">
<path d="M 69.489,10.677 L 69.306,10.759 L 69.223,10.571 L 69.423,10.481 C 69.449,10.469 69.46,10.44 69.449,10.415 L 69.423,10.358 C 69.412,10.333 69.383,10.321 69.358,10.333 L 69.156,10.425 L 69.223,10.571 L 69.306,10.759 L 69.453,11.087 C 69.38,11.121 69.319,11.15 69.261,11.181 L 68.877,10.326 L 69.432,10.077 C 69.477,10.056 69.529,10.077 69.55,10.121 L 69.676,10.403 C 69.693,10.444 69.675,10.493 69.634,10.511 C 69.632,10.513 69.63,10.516 69.632,10.518 C 69.633,10.521 69.636,10.522 69.638,10.521 C 69.68,10.503 69.729,10.521 69.747,10.563 C 69.772,10.621 69.849,10.791 69.854,10.805 C 69.862,10.823 69.879,10.871 69.936,10.864 L 69.942,10.878 C 69.872,10.904 69.8,10.934 69.723,10.966 C 69.695,10.956 69.676,10.935 69.662,10.904 C 69.648,10.877 69.605,10.758 69.586,10.714 C 69.571,10.677 69.527,10.661 69.489,10.677 z " id="yyquigwxdu-path49" style="fill:#003366;fill-opacity:1"></path>
</g>
<g id="yyquigwxdu-g51" style="fill:#003366;fill-opacity:1">
<path d="M 71.674,10.607 L 71.67,10.404 L 71.291,10.417 L 71.263,9.683 L 71.065,9.69 L 71.1,10.626 C 71.301,10.61 71.487,10.604 71.674,10.607" id="yyquigwxdu-path53" style="fill:#003366;fill-opacity:1"></path>
</g>
<g id="yyquigwxdu-g55" style="fill:#003366;fill-opacity:1">
<path d="M 67.615,12.284 L 67.779,12.406 C 67.664,12.552 67.554,12.702 67.443,12.871 L 66.679,12.328 L 67.022,11.847 L 67.187,11.969 L 66.962,12.284 L 67.094,12.378 L 67.286,12.108 L 67.451,12.229 L 67.259,12.498 L 67.394,12.595 L 67.615,12.284 z " id="yyquigwxdu-path57" style="fill:#003366;fill-opacity:1"></path>
</g>
<g id="yyquigwxdu-g59" style="fill:#003366;fill-opacity:1">
<path d="M 67.906,12.255 L 67.237,11.584 L 67.328,11.493 L 67.523,11.584 L 67.897,11.964 L 68.107,11.756 L 67.729,11.377 L 67.523,11.584 L 67.328,11.493 L 67.64,11.183 C 67.69,11.133 67.77,11.134 67.82,11.184 L 68.304,11.673 C 68.354,11.724 68.354,11.804 68.303,11.854 C 68.232,11.926 68.154,11.991 68.134,12.008 C 68.119,12.025 67.971,12.185 67.906,12.255 z " id="yyquigwxdu-path61" style="fill:#003366;fill-opacity:1"></path>
</g>
<g id="yyquigwxdu-g63" style="fill:#003366;fill-opacity:1">
<path d="M 68.936,11.136 L 69.049,11.306 C 68.891,11.404 68.737,11.509 68.574,11.628 L 68.042,10.858 L 68.527,10.521 L 68.64,10.693 L 68.323,10.913 L 68.415,11.047 L 68.687,10.857 L 68.8,11.029 L 68.529,11.217 L 68.624,11.354 L 68.936,11.136 z " id="yyquigwxdu-path65" style="fill:#003366;fill-opacity:1"></path>
</g>
<g id="yyquigwxdu-g67" style="fill:#003366;fill-opacity:1">
<path d="M 72.086,10.628 L 72.25,9.693 L 72.374,9.715 L 72.414,9.926 L 72.318,10.451 L 72.608,10.502 L 72.701,9.977 L 72.414,9.926 L 72.374,9.715 L 72.809,9.791 C 72.878,9.804 72.924,9.869 72.913,9.939 L 72.79,10.616 C 72.778,10.686 72.712,10.733 72.642,10.72 C 72.543,10.703 72.446,10.676 72.419,10.672 C 72.395,10.669 72.18,10.64 72.086,10.628 z " id="yyquigwxdu-path69" style="fill:#003366;fill-opacity:1"></path>
</g>
<g id="yyquigwxdu-g71" style="fill:#003366;fill-opacity:1">
<path d="M 73.606,10.83 L 73.532,11.018 C 73.361,10.944 73.187,10.877 72.996,10.815 L 73.322,9.938 L 73.877,10.142 L 73.803,10.333 L 73.439,10.2 L 73.382,10.35 L 73.693,10.465 L 73.618,10.656 L 73.309,10.541 L 73.25,10.696 L 73.606,10.83 z " id="yyquigwxdu-path73" style="fill:#003366;fill-opacity:1"></path>
</g>
<g id="yyquigwxdu-g75" style="fill:#003366;fill-opacity:1">
<path d="M 74.038,10.86 L 74.141,10.676 L 74.337,10.787 C 74.361,10.801 74.393,10.791 74.406,10.767 L 74.437,10.711 C 74.45,10.687 74.441,10.655 74.416,10.643 L 74.221,10.532 L 74.14,10.676 L 74.038,10.86 L 73.858,11.176 C 73.785,11.138 73.725,11.108 73.666,11.077 L 74.134,10.245 L 74.674,10.55 C 74.717,10.573 74.733,10.629 74.707,10.672 L 74.507,11.027 C 74.485,11.066 74.434,11.081 74.394,11.058 L 74.038,10.86 z " id="yyquigwxdu-path77" style="fill:#003366;fill-opacity:1"></path>
</g>
<g id="yyquigwxdu-g79" style="fill:#003366;fill-opacity:1">
<path d="M 75.555,12.673 L 76.33,12.151 L 76.439,12.316 L 75.664,12.837 C 75.646,12.81 75.629,12.781 75.609,12.754 C 75.592,12.726 75.572,12.699 75.555,12.673 z " id="yyquigwxdu-path81" style="fill:#003366;fill-opacity:1"></path>
</g>
<g id="yyquigwxdu-g83" style="fill:#003366;fill-opacity:1">
<path d="M 76.601,13.009 L 75.948,13.343 C 75.934,13.312 75.919,13.283 75.904,13.253 C 75.888,13.224 75.874,13.195 75.858,13.167 L 76.509,12.833 L 76.417,12.649 L 76.598,12.557 L 76.873,13.096 L 76.692,13.188 L 76.601,13.009 z " id="yyquigwxdu-path85" style="fill:#003366;fill-opacity:1"></path>
</g>
</g>
<g id="yyquigwxdu-g87" style="fill:#003366;fill-opacity:1">
<g id="yyquigwxdu-g89" style="fill:#003366;fill-opacity:1">
<polygon id="yyquigwxdu-polygon91" points="66.336,13.827 66.327,14.078 66.561,14.173 66.318,14.243 66.3,14.493 66.16,14.285 65.914,14.345 66.069,14.146 65.936,13.934 66.173,14.019 66.336,13.827 " style="fill:#003366;fill-opacity:1"></polygon>
</g>
<g id="yyquigwxdu-g93" style="fill:#003366;fill-opacity:1">
<polygon id="yyquigwxdu-polygon95" points="76.794,13.827 76.803,14.078 76.568,14.173 76.811,14.243 76.828,14.493 76.971,14.285 77.215,14.345 77.061,14.146 77.193,13.934 76.957,14.019 76.794,13.827 " style="fill:#003366;fill-opacity:1"></polygon>
</g>
</g>
<g id="yyquigwxdu-g97" style="fill:#003366;fill-opacity:1">
<g id="yyquigwxdu-g99" style="fill:#003366;fill-opacity:1">
<path d="M 69.407,20.61 L 69.384,20.663 L 69.117,20.542 L 69.338,20.055 L 69.605,20.178 L 69.581,20.23 L 69.763,20.314 L 69.82,20.185 C 69.849,20.123 69.82,20.047 69.757,20.017 C 69.666,19.976 69.57,19.937 69.548,19.927 C 69.527,19.917 69.444,19.88 69.358,19.836 C 69.296,19.804 69.218,19.835 69.189,19.899 L 68.905,20.524 C 68.876,20.587 68.904,20.665 68.967,20.694 L 69.368,20.876 C 69.432,20.906 69.508,20.878 69.537,20.814 L 69.591,20.695 L 69.407,20.61 z " id="yyquigwxdu-path101" style="fill:#003366;fill-opacity:1"></path>
</g>
<g id="yyquigwxdu-g103" style="fill:#003366;fill-opacity:1">
<path d="M 66.701,15.279 L 65.768,15.22 L 65.781,15.022 L 66.715,15.082 C 66.71,15.115 66.708,15.149 66.707,15.183 C 66.705,15.216 66.703,15.247 66.701,15.279 z " id="yyquigwxdu-path105" style="fill:#003366;fill-opacity:1"></path>
</g>
<g id="yyquigwxdu-g107" style="fill:#003366;fill-opacity:1">
<path d="M 66.667,16.444 L 66.302,16.54 C 66.256,16.551 66.228,16.599 66.24,16.644 L 66.321,16.951 L 66.16,16.991 L 66.058,16.602 L 65.865,16.654 L 65.99,17.129 C 66.007,17.187 66.067,17.222 66.125,17.206 L 66.484,17.118 C 66.531,17.106 66.56,17.058 66.547,17.014 L 66.466,16.705 L 66.623,16.665 L 66.727,17.059 L 66.926,17.009 L 66.797,16.522 C 66.784,16.464 66.726,16.429 66.667,16.444 z " id="yyquigwxdu-path109" style="fill:#003366;fill-opacity:1"></path>
</g>
<g id="yyquigwxdu-g111" style="fill:#003366;fill-opacity:1">
<path d="M 66.191,16.121 L 66.73,16.067 C 66.733,16.1 66.736,16.133 66.739,16.168 C 66.743,16.201 66.746,16.233 66.75,16.265 L 65.82,16.355 L 65.8,16.158 L 66.349,15.74 L 65.763,15.756 L 65.758,15.559 L 66.693,15.532 C 66.693,15.565 66.694,15.6 66.695,15.633 C 66.696,15.666 66.696,15.698 66.697,15.732 L 66.191,16.121 z " id="yyquigwxdu-path113" style="fill:#003366;fill-opacity:1"></path>
</g>
<g id="yyquigwxdu-g115" style="fill:#003366;fill-opacity:1">
<path d="M 66.362,18.036 C 66.39,18.1 66.466,18.13 66.529,18.102 L 67.274,17.781 L 67.194,17.596 L 66.525,17.889 L 66.408,17.618 L 67.076,17.33 L 66.996,17.143 L 66.255,17.465 C 66.19,17.494 66.156,17.571 66.188,17.635 L 66.362,18.036 z " id="yyquigwxdu-path117" style="fill:#003366;fill-opacity:1"></path>
</g>
<g id="yyquigwxdu-g119" style="fill:#003366;fill-opacity:1">
<polygon id="yyquigwxdu-polygon121" points="67.336,19.497 67.497,19.41 67.688,19.308 67.914,19.188 67.796,19.415 67.688,19.308 67.497,19.41 67.699,19.607 67.611,19.771 67.773,19.93 68.225,19.046 68.051,18.875 67.174,19.339 67.336,19.497 " style="fill:#003366;fill-opacity:1"></polygon>
</g>
<g id="yyquigwxdu-g123" style="fill:#003366;fill-opacity:1">
<path d="M 67.729,18.49 C 67.757,18.53 67.748,18.585 67.707,18.613 L 67.451,18.788 C 67.415,18.814 67.362,18.805 67.338,18.767 C 67.336,18.764 67.332,18.764 67.33,18.766 C 67.328,18.767 67.325,18.77 67.328,18.772 C 67.354,18.809 67.346,18.862 67.308,18.887 C 67.253,18.923 67.101,19.028 67.086,19.037 C 67.071,19.048 67.025,19.074 67.045,19.127 L 67.036,19.133 L 66.902,18.939 C 66.907,18.909 66.928,18.885 66.954,18.866 C 66.981,18.847 67.088,18.784 67.128,18.757 C 67.161,18.735 67.17,18.689 67.148,18.653 L 67.034,18.488 L 67.203,18.373 L 67.329,18.555 C 67.344,18.577 67.375,18.583 67.398,18.568 L 67.45,18.533 C 67.472,18.518 67.478,18.486 67.463,18.464 L 67.337,18.282 L 67.203,18.374 L 67.034,18.489 L 66.735,18.695 L 66.613,18.52 L 67.384,17.99 C 67.486,18.153 67.609,18.344 67.729,18.49 z " id="yyquigwxdu-path125" style="fill:#003366;fill-opacity:1"></path>
</g>
<g id="yyquigwxdu-g127" style="fill:#003366;fill-opacity:1">
<path d="M 70.462,20.455 L 70.516,20.26 C 70.334,20.216 70.155,20.167 69.963,20.103 L 69.701,21.002 L 70.269,21.167 L 70.323,20.969 L 69.951,20.861 L 69.996,20.707 L 70.314,20.799 L 70.369,20.602 L 70.053,20.511 L 70.098,20.352 L 70.462,20.455 z " id="yyquigwxdu-path129" style="fill:#003366;fill-opacity:1"></path>
</g>
<g id="yyquigwxdu-g131" style="fill:#003366;fill-opacity:1">
<path d="M 68.654,20.056 L 68.955,19.605 C 68.982,19.625 69.011,19.643 69.039,19.662 C 69.066,19.681 69.093,19.698 69.119,19.717 L 68.6,20.492 L 68.435,20.381 L 68.458,19.693 L 68.101,20.157 L 67.945,20.036 L 68.516,19.296 C 68.541,19.317 68.568,19.339 68.593,19.358 C 68.619,19.379 68.646,19.397 68.672,19.417 L 68.654,20.056 z " id="yyquigwxdu-path133" style="fill:#003366;fill-opacity:1"></path>
</g>
<g id="yyquigwxdu-g135" style="fill:#003366;fill-opacity:1">
<path d="M 72.096,21.29 C 72.026,21.3 71.962,21.251 71.952,21.182 L 71.858,20.499 C 71.849,20.43 71.897,20.364 71.967,20.354 C 72.068,20.34 72.168,20.335 72.193,20.333 C 72.218,20.329 72.308,20.313 72.401,20.297 C 72.47,20.283 72.536,20.335 72.546,20.405 L 72.641,21.085 C 72.651,21.155 72.603,21.22 72.532,21.23 L 72.43,21.04 L 72.359,20.512 L 72.068,20.552 L 72.141,21.081 L 72.43,21.04 L 72.532,21.229 L 72.096,21.29 z " id="yyquigwxdu-path137" style="fill:#003366;fill-opacity:1"></path>
</g>
<g id="yyquigwxdu-g139" style="fill:#003366;fill-opacity:1">
<path d="M 74.136,19.643 C 74.18,19.62 74.235,19.636 74.259,19.68 L 74.449,20.04 C 74.47,20.08 74.455,20.131 74.415,20.153 L 74.055,20.345 L 73.957,20.16 L 74.156,20.054 C 74.179,20.039 74.189,20.011 74.177,19.986 L 74.147,19.93 C 74.134,19.905 74.103,19.896 74.079,19.909 L 73.88,20.014 L 73.958,20.16 L 74.056,20.345 L 74.231,20.671 C 74.16,20.711 74.097,20.738 74.041,20.773 L 73.592,19.934 C 73.716,19.876 73.986,19.735 74.136,19.643 z " id="yyquigwxdu-path141" style="fill:#003366;fill-opacity:1"></path>
</g>
<g id="yyquigwxdu-g143" style="fill:#003366;fill-opacity:1">
<path d="M 76.865,17.884 L 76.192,17.594 L 76.11,17.782 L 75.923,17.701 C 76.005,17.55 76.104,17.315 76.163,17.143 L 76.351,17.225 L 76.27,17.411 L 76.943,17.702 L 76.865,17.884 z " id="yyquigwxdu-path145" style="fill:#003366;fill-opacity:1"></path>
</g>
<g id="yyquigwxdu-g147" style="fill:#003366;fill-opacity:1">
<path d="M 71.513,21.051 L 71.511,21.11 L 71.219,21.097 L 71.238,20.564 L 71.532,20.576 L 71.53,20.634 L 71.728,20.641 L 71.733,20.502 C 71.735,20.431 71.68,20.372 71.609,20.369 C 71.509,20.365 71.409,20.365 71.382,20.365 C 71.359,20.364 71.266,20.362 71.172,20.353 C 71.102,20.347 71.042,20.406 71.039,20.477 L 71.013,21.164 C 71.011,21.234 71.065,21.293 71.135,21.296 L 71.575,21.313 C 71.646,21.316 71.705,21.262 71.707,21.191 L 71.713,21.06 L 71.513,21.051 z " id="yyquigwxdu-path149" style="fill:#003366;fill-opacity:1"></path>
</g>
<g id="yyquigwxdu-g151" style="fill:#003366;fill-opacity:1">
<path d="M 73.297,20.053 C 73.344,20.038 73.395,20.065 73.408,20.113 L 73.5,20.408 C 73.514,20.451 73.489,20.498 73.446,20.511 C 73.443,20.512 73.441,20.515 73.443,20.518 C 73.443,20.522 73.446,20.523 73.449,20.522 C 73.492,20.508 73.538,20.532 73.553,20.576 C 73.57,20.638 73.625,20.815 73.63,20.832 C 73.637,20.849 73.648,20.899 73.703,20.898 L 73.707,20.908 L 73.48,20.977 C 73.454,20.963 73.436,20.938 73.427,20.906 C 73.416,20.875 73.388,20.753 73.374,20.707 C 73.361,20.668 73.319,20.646 73.28,20.659 L 73.089,20.718 L 73.028,20.524 L 73.239,20.458 C 73.265,20.449 73.28,20.421 73.272,20.396 L 73.253,20.336 C 73.244,20.309 73.217,20.295 73.191,20.303 L 72.98,20.369 L 73.028,20.524 L 73.089,20.718 L 73.197,21.066 L 72.993,21.128 L 72.716,20.235 C 72.904,20.184 73.123,20.124 73.297,20.053 z " id="yyquigwxdu-path153" style="fill:#003366;fill-opacity:1"></path>
</g>
<g id="yyquigwxdu-g155" style="fill:#003366;fill-opacity:1">
<path d="M 75.023,20.183 C 74.968,20.228 74.888,20.219 74.845,20.165 L 74.412,19.628 C 74.366,19.574 74.374,19.492 74.429,19.448 C 74.508,19.385 74.591,19.328 74.612,19.312 C 74.632,19.297 74.7,19.237 74.769,19.174 C 74.824,19.125 74.907,19.137 74.951,19.192 L 75.384,19.725 C 75.43,19.78 75.421,19.86 75.365,19.905 L 75.181,19.798 L 74.845,19.381 L 74.616,19.566 L 74.954,19.982 L 75.182,19.798 L 75.366,19.905 L 75.023,20.183 z " id="yyquigwxdu-path157" style="fill:#003366;fill-opacity:1"></path>
</g>
<g id="yyquigwxdu-g159" style="fill:#003366;fill-opacity:1">
<path d="M 75.414,18.5 C 75.446,18.463 75.502,18.459 75.539,18.492 L 75.771,18.696 C 75.804,18.727 75.807,18.779 75.777,18.813 C 75.774,18.815 75.775,18.819 75.777,18.82 C 75.78,18.823 75.783,18.823 75.785,18.819 C 75.815,18.787 75.867,18.782 75.9,18.813 C 75.949,18.856 76.088,18.979 76.1,18.992 C 76.115,19.003 76.15,19.04 76.197,19.009 L 76.205,19.018 L 76.049,19.194 C 76.02,19.197 75.99,19.182 75.966,19.16 C 75.943,19.139 75.855,19.052 75.819,19.018 C 75.788,18.992 75.741,18.994 75.714,19.025 L 75.581,19.175 L 75.427,19.038 L 75.573,18.872 C 75.593,18.851 75.591,18.819 75.57,18.802 L 75.524,18.76 C 75.503,18.743 75.471,18.745 75.453,18.766 L 75.307,18.931 L 75.426,19.038 L 75.58,19.175 L 75.852,19.415 L 75.71,19.575 L 75.011,18.955 C 75.145,18.815 75.3,18.65 75.414,18.5 z " id="yyquigwxdu-path161" style="fill:#003366;fill-opacity:1"></path>
</g>
<g id="yyquigwxdu-g163" style="fill:#003366;fill-opacity:1">
<polygon id="yyquigwxdu-polygon165" points="76.42,18.741 76.298,18.603 76.158,18.439 75.991,18.245 76.237,18.308 76.158,18.439 76.298,18.603 76.447,18.363 76.625,18.411 76.745,18.219 75.783,17.974 75.656,18.18 76.301,18.933 76.42,18.741 " style="fill:#003366;fill-opacity:1"></polygon>
</g>
<g id="yyquigwxdu-g167" style="fill:#003366;fill-opacity:1">
<path d="M 76.274,16.799 L 77.17,17.068 L 77.112,17.258 L 76.216,16.988 C 76.227,16.958 76.236,16.926 76.246,16.893 C 76.258,16.861 76.266,16.83 76.274,16.799 z " id="yyquigwxdu-path169" style="fill:#003366;fill-opacity:1"></path>
</g>
<g id="yyquigwxdu-g171" style="fill:#003366;fill-opacity:1">
<path d="M 76.988,15.187 L 76.446,15.208 C 76.446,15.176 76.444,15.141 76.443,15.108 C 76.442,15.075 76.441,15.043 76.439,15.009 L 77.374,14.978 L 77.38,15.176 L 76.807,15.56 L 77.392,15.579 L 77.387,15.776 L 76.451,15.746 C 76.453,15.714 76.454,15.681 76.455,15.647 C 76.456,15.613 76.458,15.581 76.459,15.548 L 76.988,15.187 z " id="yyquigwxdu-path173" style="fill:#003366;fill-opacity:1"></path>
</g>
<g id="yyquigwxdu-g175" style="fill:#003366;fill-opacity:1">
<path d="M 77.287,16.635 C 77.275,16.705 77.212,16.752 77.141,16.742 L 76.46,16.637 C 76.39,16.626 76.342,16.562 76.353,16.491 C 76.368,16.392 76.392,16.294 76.395,16.268 C 76.398,16.245 76.41,16.153 76.418,16.059 C 76.426,15.989 76.495,15.942 76.565,15.952 L 77.243,16.055 C 77.313,16.065 77.361,16.13 77.35,16.201 L 77.14,16.245 L 76.612,16.163 L 76.569,16.455 L 77.098,16.533 L 77.14,16.245 L 77.35,16.201 L 77.287,16.635 z " id="yyquigwxdu-path177" style="fill:#003366;fill-opacity:1"></path>
</g>
</g>
<path d="M 70.186,13.534 L 69.854,14.827 L 69.936,14.827 L 70.172,13.914 L 70.172,14.827 L 70.263,14.827 L 70.263,13.914 L 70.498,14.827 L 69.853,14.827 C 69.905,14.979 70.082,15.063 70.214,15.063 C 70.345,15.063 70.523,14.979 70.573,14.827 L 70.241,13.534 L 70.186,13.534 z " id="yyquigwxdu-path179" style="fill:#003366;fill-opacity:1"></path>
<path d="M 71.563,12.962 L 71.717,13.032 L 71.702,13.059 C 71.629,13.059 71.612,13.198 71.612,13.267 C 71.612,13.307 71.651,13.363 71.721,13.363 C 71.79,13.363 71.914,13.3 72.084,13.3 C 72.254,13.3 72.433,13.371 72.617,13.371 C 72.804,13.371 72.846,13.319 72.891,13.319 C 72.938,13.319 73.031,13.34 73.031,13.407 C 73.031,13.474 72.938,13.494 72.891,13.494 C 72.845,13.494 72.803,13.442 72.617,13.442 C 72.432,13.442 72.254,13.514 72.084,13.514 C 71.914,13.514 71.79,13.45 71.721,13.45 C 71.651,13.45 71.612,13.506 71.612,13.546 C 71.612,13.585 71.698,13.665 71.698,13.665 L 71.562,13.871 L 71.428,13.665 C 71.428,13.665 71.511,13.585 71.511,13.546 C 71.511,13.506 71.473,13.45 71.404,13.45 C 71.334,13.45 71.21,13.514 71.041,13.514 C 70.87,13.514 70.692,13.442 70.507,13.442 C 70.322,13.442 70.278,13.494 70.233,13.494 C 70.185,13.494 70.092,13.473 70.092,13.407 C 70.092,13.341 70.185,13.319 70.233,13.319 C 70.279,13.319 70.322,13.371 70.507,13.371 C 70.692,13.371 70.87,13.3 71.041,13.3 C 71.21,13.3 71.334,13.363 71.404,13.363 C 71.473,13.363 71.511,13.307 71.511,13.267 C 71.511,13.198 71.496,13.059 71.422,13.059 L 71.407,13.032 L 71.563,12.962 z " id="yyquigwxdu-path181" style="fill:#003366;fill-opacity:1"></path>
<path d="M 72.941,13.534 L 73.273,14.827 L 73.192,14.827 L 72.956,13.914 L 72.956,14.827 L 72.865,14.827 L 72.865,13.914 L 72.629,14.827 L 73.274,14.827 C 73.221,14.979 73.045,15.063 72.914,15.063 C 72.783,15.063 72.605,14.979 72.554,14.827 L 72.887,13.534 L 72.941,13.534 z " id="yyquigwxdu-path183" style="fill:#003366;fill-opacity:1"></path>
<g id="yyquigwxdu-g185" style="fill:#003366;fill-opacity:1">
<path d="M 71.562,14.45 L 74.361,17.188 C 74.373,17.159 74.365,17.092 74.349,17.016 L 71.562,14.287 L 68.775,17.016 C 68.758,17.092 68.752,17.159 68.763,17.188 L 71.562,14.45 z " id="yyquigwxdu-path187" style="fill:#003366;fill-opacity:1"></path>
<polygon id="yyquigwxdu-polygon189" points="71.562,15.681 73.8,17.871 73.861,17.771 71.562,15.519 69.266,17.771 69.326,17.871 71.562,15.681 " style="fill:#003366;fill-opacity:1"></polygon>
<path d="M 74.867,13.599 C 75.018,13.661 75.259,13.933 75.107,14.084 C 74.553,13.887 74.38,14.372 74.38,14.645 C 74.38,15.275 74.857,15.599 74.857,16.72 C 74.857,17.074 74.765,18.44 72.904,18.869 C 72.615,18.937 71.98,19.105 71.564,19.492 L 71.564,19.376 C 72.021,18.953 72.9,18.803 73.042,18.759 C 73.738,18.551 74.783,17.979 74.783,16.695 C 74.783,15.906 74.459,15.287 74.156,15.287 C 74.028,15.287 74.068,15.444 74.14,15.55 C 74.183,15.612 74.233,15.717 74.117,15.694 C 74.001,15.671 73.847,15.71 73.847,15.813 C 73.847,15.864 73.911,15.864 73.947,15.844 C 73.983,15.824 74.028,15.81 74.093,15.81 C 74.222,15.81 74.361,15.891 74.361,15.984 C 74.361,16.077 74.183,16.038 74.183,16.112 C 74.183,16.162 74.609,16.464 74.609,16.819 C 74.609,16.931 74.562,16.888 74.536,16.819 C 74.509,16.75 74.435,16.657 74.365,16.657 C 74.296,16.657 74.257,16.684 74.288,16.741 C 74.318,16.8 74.435,16.978 74.435,17.225 C 74.435,17.473 74.252,17.798 74.133,17.944 C 74.074,18.017 74.054,17.971 74.043,17.944 C 74.032,17.918 74.005,17.833 73.946,17.833 C 73.846,17.833 73.907,18.312 72.805,18.606 C 72.585,18.665 72.027,18.804 71.563,19.159 C 71.099,18.805 70.541,18.665 70.322,18.606 C 69.218,18.312 69.28,17.833 69.18,17.833 C 69.121,17.833 69.094,17.918 69.082,17.944 C 69.071,17.971 69.053,18.017 68.992,17.944 C 68.874,17.798 68.691,17.473 68.691,17.225 C 68.691,16.978 68.806,16.799 68.838,16.741 C 68.868,16.684 68.829,16.657 68.761,16.657 C 68.691,16.657 68.617,16.75 68.591,16.819 C 68.565,16.888 68.517,16.931 68.517,16.819 C 68.517,16.464 68.943,16.162 68.943,16.112 C 68.943,16.038 68.764,16.077 68.764,15.984 C 68.764,15.891 68.904,15.81 69.031,15.81 C 69.098,15.81 69.144,15.825 69.179,15.844 C 69.213,15.864 69.279,15.864 69.279,15.813 C 69.279,15.709 69.125,15.67 69.009,15.694 C 68.892,15.717 68.943,15.613 68.986,15.55 C 69.058,15.445 69.098,15.287 68.97,15.287 C 68.668,15.287 68.343,15.906 68.343,16.695 C 68.343,17.979 69.388,18.551 70.084,18.759 C 70.227,18.803 71.105,18.953 71.562,19.376 L 71.562,19.492 C 71.145,19.105 70.508,18.937 70.218,18.869 C 68.356,18.439 68.265,17.073 68.265,16.72 C 68.265,15.599 68.742,15.275 68.742,14.645 C 68.742,14.373 68.568,13.887 68.015,14.084 C 67.865,13.933 68.106,13.66 68.257,13.599 C 68.227,13.463 68.69,12.866 69.439,12.866 C 69.923,12.866 70.302,13.099 70.818,13.099 C 71.014,13.099 71.365,13.009 71.562,12.888 L 71.562,12.993 C 71.365,13.114 71.014,13.205 70.818,13.205 C 70.302,13.205 69.923,12.972 69.439,12.972 C 69.072,12.972 68.788,13.118 68.607,13.268 C 68.634,13.273 68.726,13.308 68.737,13.316 C 68.784,13.349 68.76,13.4 68.698,13.377 C 68.658,13.362 68.605,13.332 68.547,13.324 C 68.52,13.351 68.497,13.377 68.478,13.401 C 68.597,13.401 68.672,13.437 68.722,13.466 C 68.776,13.495 68.759,13.557 68.69,13.525 C 68.629,13.5 68.553,13.463 68.424,13.475 C 68.403,13.509 68.39,13.538 68.387,13.561 L 68.415,13.679 C 68.318,13.679 68.051,13.772 68.102,13.937 C 68.191,13.912 68.821,13.926 68.821,14.565 C 68.821,14.672 68.86,14.662 68.86,14.627 C 68.922,14.336 68.725,14.012 68.481,13.896 C 68.386,13.851 68.407,13.769 68.543,13.842 C 68.673,13.912 68.937,14.109 68.937,14.481 C 68.937,14.566 68.914,14.74 68.914,14.74 C 68.914,14.74 69.012,14.643 69.012,14.403 C 69.012,14.006 68.691,13.68 68.416,13.68 L 68.388,13.562 C 68.547,13.54 69.123,13.692 69.123,14.471 C 69.123,14.601 69.046,15.009 68.911,15.184 C 69.061,15.161 69.35,15.168 69.123,15.57 C 69.455,15.638 69.373,15.971 69.267,15.971 C 69.126,15.971 69.138,15.895 69.001,15.895 C 68.902,15.895 68.894,15.96 68.948,15.979 C 69.016,16.002 69.061,16.04 69.061,16.115 C 69.061,16.256 68.857,16.184 68.679,16.593 C 68.739,16.574 68.774,16.564 68.816,16.564 C 68.857,16.564 68.956,16.578 68.956,16.662 C 68.956,16.746 68.782,16.871 68.782,17.212 C 68.782,17.391 68.964,17.708 69.009,17.768 C 69.062,17.715 69.115,17.678 69.176,17.678 C 69.388,17.678 69.358,17.844 69.358,17.889 C 69.358,17.935 69.592,18.344 70.266,18.511 C 70.595,18.592 71.314,18.795 71.564,19.037 C 71.814,18.795 72.532,18.592 72.862,18.511 C 73.535,18.344 73.769,17.935 73.769,17.889 C 73.769,17.844 73.74,17.678 73.952,17.678 C 74.013,17.678 74.065,17.715 74.119,17.768 C 74.164,17.708 74.347,17.391 74.347,17.212 C 74.347,16.871 74.171,16.746 74.171,16.662 C 74.171,16.578 74.27,16.564 74.313,16.564 C 74.354,16.564 74.388,16.575 74.449,16.593 C 74.27,16.185 74.066,16.256 74.066,16.115 C 74.066,16.04 74.112,16.003 74.18,15.979 C 74.235,15.96 74.225,15.895 74.127,15.895 C 73.99,15.895 74.001,15.971 73.861,15.971 C 73.756,15.971 73.672,15.638 74.006,15.57 C 73.778,15.169 74.066,15.161 74.217,15.184 C 74.08,15.009 74.006,14.601 74.006,14.471 C 74.006,14.006 74.211,13.764 74.409,13.65 C 74.377,13.604 74.344,13.576 74.314,13.549 C 74.257,13.498 74.304,13.457 74.354,13.494 C 74.39,13.52 74.434,13.555 74.476,13.616 C 74.501,13.604 74.527,13.595 74.55,13.587 C 74.52,13.539 74.474,13.508 74.446,13.479 C 74.398,13.432 74.435,13.39 74.485,13.417 C 74.511,13.432 74.56,13.461 74.625,13.568 C 74.673,13.559 74.713,13.558 74.74,13.561 L 74.711,13.679 C 74.438,13.679 74.116,14.004 74.116,14.402 C 74.116,14.642 74.213,14.739 74.213,14.739 C 74.213,14.739 74.191,14.565 74.191,14.48 C 74.191,14.108 74.454,13.912 74.586,13.841 C 74.722,13.768 74.743,13.85 74.648,13.895 C 74.404,14.011 74.206,14.335 74.268,14.626 C 74.268,14.661 74.307,14.672 74.307,14.564 C 74.307,13.925 74.938,13.911 75.027,13.936 C 75.077,13.771 74.811,13.678 74.713,13.678 L 74.742,13.56 C 74.719,13.416 74.332,12.971 73.689,12.971 C 73.205,12.971 72.826,13.204 72.31,13.204 C 72.113,13.204 71.762,13.113 71.566,12.992 L 71.566,12.887 C 71.762,13.008 72.11,13.098 72.306,13.098 C 72.822,13.098 73.202,12.865 73.687,12.865 C 74.436,12.865 74.897,13.463 74.867,13.599 z " id="yyquigwxdu-path191" style="fill:#003366;fill-opacity:1"></path>
<path d="M 71.562,15.405 L 73.979,17.771 C 74.174,17.926 74.314,17.436 74.354,17.298 L 71.562,14.564 L 68.769,17.298 L 69.068,17.48 L 69.071,17.338 L 68.987,17.225 L 69.123,17.183 L 69.203,17.069 L 69.285,17.183 L 69.463,17.096 L 69.465,16.954 L 69.381,16.841 L 69.516,16.799 L 69.598,16.684 L 69.678,16.799 L 69.856,16.712 L 69.859,16.57 L 69.774,16.458 L 69.909,16.416 L 69.991,16.3 L 70.073,16.416 L 70.251,16.327 L 70.253,16.187 L 70.168,16.074 L 70.303,16.031 L 70.385,15.916 L 70.467,16.031 L 70.645,15.944 L 70.646,15.803 L 70.562,15.689 L 70.697,15.647 L 70.779,15.533 L 70.86,15.647 L 71.039,15.56 L 71.04,15.419 L 70.956,15.306 L 71.09,15.263 L 71.173,15.148 L 71.254,15.263 L 71.433,15.175 L 71.434,15.035 L 71.35,14.921 L 71.484,14.878 L 71.567,14.765 L 71.649,14.878 L 71.784,14.921 L 71.699,15.035 L 71.701,15.175 L 71.74,15.306 L 71.876,15.263 L 71.957,15.148 L 72.038,15.263 L 72.174,15.306 L 72.09,15.419 L 72.091,15.56 L 72.269,15.647 L 72.351,15.533 L 72.433,15.647 L 72.568,15.689 L 72.483,15.803 L 72.485,15.944 L 72.664,16.031 L 72.745,15.916 L 72.826,16.031 L 72.962,16.074 L 72.879,16.187 L 72.88,16.327 L 73.057,16.416 L 73.139,16.3 L 73.221,16.416 L 73.356,16.458 L 73.271,16.57 L 73.272,16.712 L 73.451,16.799 L 73.532,16.684 L 73.61,16.8 L 73.744,16.842 L 73.66,16.955 L 73.662,17.097 L 73.84,17.184 L 73.922,17.07 L 74.004,17.184 L 74.138,17.226 L 74.054,17.339 L 74.055,17.481 L 73.922,17.435 L 73.788,17.481 L 73.789,17.339 L 73.705,17.226 L 73.84,17.184 L 73.662,17.097 L 73.527,17.051 L 73.394,17.097 L 73.395,16.955 L 73.311,16.842 L 73.446,16.8 L 73.267,16.713 L 73.134,16.668 L 73,16.713 L 73.001,16.571 L 72.916,16.459 L 73.052,16.417 L 72.875,16.328 L 72.74,16.284 L 72.606,16.328 L 72.607,16.188 L 72.523,16.075 L 72.659,16.032 L 72.48,15.945 L 72.348,15.9 L 72.214,15.945 L 72.215,15.804 L 72.131,15.69 L 72.266,15.648 L 72.088,15.561 L 71.954,15.516 L 71.821,15.561 L 71.822,15.42 L 71.737,15.307 L 71.698,15.176 L 71.564,15.131 L 71.43,15.176 L 71.251,15.264 L 71.387,15.307 L 71.302,15.42 L 71.304,15.561 L 71.17,15.516 L 71.036,15.561 L 70.857,15.648 L 70.993,15.69 L 70.908,15.804 L 70.909,15.945 L 70.777,15.9 L 70.643,15.945 L 70.465,16.032 L 70.6,16.075 L 70.515,16.188 L 70.516,16.328 L 70.383,16.284 L 70.249,16.328 L 70.071,16.417 L 70.206,16.459 L 70.122,16.571 L 70.123,16.713 L 69.989,16.668 L 69.854,16.713 L 69.678,16.8 L 69.815,16.842 L 69.73,16.955 L 69.731,17.097 L 69.598,17.051 L 69.463,17.097 L 69.285,17.184 L 69.421,17.226 L 69.336,17.339 L 69.338,17.481 L 69.203,17.435 L 69.068,17.481 L 68.769,17.299 C 68.81,17.437 68.95,17.927 69.144,17.772 L 71.562,15.405 z " id="yyquigwxdu-path193" style="fill:#003366;fill-opacity:1"></path>
<ellipse cx="69.596001" cy="16.941" id="yyquigwxdu-ellipse195" rx="0.23999999" ry="0.25600001" sodipodi:cx="69.596001" sodipodi:cy="16.941" sodipodi:rx="0.23999999" sodipodi:ry="0.25600001" style="fill:#003366;fill-opacity:1"></ellipse>
<ellipse cx="70.388" cy="16.172001" id="yyquigwxdu-ellipse197" rx="0.23899999" ry="0.25600001" sodipodi:cx="70.388" sodipodi:cy="16.172001" sodipodi:rx="0.23899999" sodipodi:ry="0.25600001" style="fill:#003366;fill-opacity:1"></ellipse>
<ellipse cx="71.18" cy="15.38" id="yyquigwxdu-ellipse199" rx="0.23999999" ry="0.25600001" sodipodi:cx="71.18" sodipodi:cy="15.38" sodipodi:rx="0.23999999" sodipodi:ry="0.25600001" style="fill:#003366;fill-opacity:1"></ellipse>
<ellipse cx="71.948997" cy="15.38" id="yyquigwxdu-ellipse201" rx="0.23999999" ry="0.25600001" sodipodi:cx="71.948997" sodipodi:cy="15.38" sodipodi:rx="0.23999999" sodipodi:ry="0.25600001" style="fill:#003366;fill-opacity:1"></ellipse>
<ellipse cx="72.739998" cy="16.149" id="yyquigwxdu-ellipse203" rx="0.23999999" ry="0.25600001" sodipodi:cx="72.739998" sodipodi:cy="16.149" sodipodi:rx="0.23999999" sodipodi:ry="0.25600001" style="fill:#003366;fill-opacity:1"></ellipse>
<ellipse cx="73.510002" cy="16.941" id="yyquigwxdu-ellipse205" rx="0.23999999" ry="0.25600001" sodipodi:cx="73.510002" sodipodi:cy="16.941" sodipodi:rx="0.23999999" sodipodi:ry="0.25600001" style="fill:#003366;fill-opacity:1"></ellipse>
</g>
</g>
</svg>