<svg height="24" viewbox="0 0 24 24" width="24" xmlns="http://www.w3.org/2000/svg">
<path d="M12 2.00195C6.478 2.00195 2 6.47895 2 12.002C2 17.523 6.478 22.002 12 22.002C17.522 22.002 22 17.523 22 12.002C22 6.47895 17.522 2.00195 12 2.00195ZM9 16.002H7V15.002H5V13.002H8.5C8.776 13.002 9 12.778 9 12.502C9 12.226 8.776 12.002 8.5 12.002H7.5C6.12 12 5.002 10.882 5 9.50195C5 8.29395 5.86 7.28495 7 7.05295V6.00195H9V7.00195H11V9.00195H7.5C7.224 9.00195 7 9.22595 7 9.50195C7 9.77795 7.224 10.002 7.5 10.002H8.5C9.878 10.002 11 11.123 11 12.502C11 13.709 10.14 14.719 9 14.951V16.002ZM14 19.002H10V17.002H14V19.002ZM19 9.00195H15.5C15.224 9.00195 15 9.22595 15 9.50195C15 9.77795 15.224 10.002 15.5 10.002H16.5C17.878 10.002 19 11.123 19 12.502C19 13.709 18.14 14.719 17 14.951V16.002H15V15.002H13V13.002H16.5C16.776 13.002 17 12.778 17 12.502C17 12.226 16.776 12.002 16.5 12.002H15.5C14.12 12 13.002 10.882 13 9.50195C13 8.29395 13.86 7.28495 15 7.05295V6.00195H17V7.00195H19V9.00195Z"></path>
</svg>