<svg class="t447__success-icon-svg" height="40px" viewbox="0 0 50 50" width="40px"> <g fill="none" fill-rule="evenodd" stroke="none" stroke-width="1"> <g fill="#FFFFFF"> <path d="M25.0982353,49.2829412 C11.5294118,49.2829412 0.490588235,38.2435294 0.490588235,24.6752941 C0.490588235,11.1064706 11.53,0.0670588235 25.0982353,0.0670588235 C38.6664706,0.0670588235 49.7058824,11.1064706 49.7058824,24.6752941 C49.7058824,38.2441176 38.6664706,49.2829412 25.0982353,49.2829412 L25.0982353,49.2829412 Z M25.0982353,1.83176471 C12.5023529,1.83176471 2.25529412,12.0794118 2.25529412,24.6752941 C2.25529412,37.2705882 12.5023529,47.5182353 25.0982353,47.5182353 C37.6941176,47.5182353 47.9411765,37.2705882 47.9411765,24.6752941 C47.9411765,12.0794118 37.6941176,1.83176471 25.0982353,1.83176471 L25.0982353,1.83176471 Z"></path> <path d="M22.8435294,30.5305882 L18.3958824,26.0829412 C18.0511765,25.7382353 18.0511765,25.18 18.3958824,24.8352941 C18.7405882,24.4905882 19.2988235,24.4905882 19.6435294,24.8352941 L22.8429412,28.0347059 L31.7282353,19.1488235 C32.0729412,18.8041176 32.6311765,18.8041176 32.9758824,19.1488235 C33.3205882,19.4935294 33.3205882,20.0517647 32.9758824,20.3964706 L22.8435294,30.5305882 L22.8435294,30.5305882 Z"></path> </g> </g> </svg>