<svg class="ib" height="83" width="68" xmlns="http://www.w3.org/2000/svg">
<g fill="none" fill-rule="evenodd">
<path d="M-1366-4699H494v7491h-1860z" fill="#FFF"></path>
<g fill="#17223C" fill-rule="nonzero">
<path d="M58.727 30.914v-8.627C58.727 9.998 47.634 0 34 0S9.273 9.998 9.273 22.287v8.627C4.017 31.815 0 36.371 0 41.854V71.89C0 78.015 5.012 83 11.172 83h45.656C62.988 83 68 78.015 68 71.889V41.852c0-5.481-4.017-10.037-9.273-10.938zm-46.363-8.627c0-10.595 9.705-19.213 21.636-19.213 11.93 0 21.636 8.618 21.636 19.213v8.454H12.364v-8.454zm52.545 49.602c0 4.431-3.626 8.037-8.081 8.037H11.172c-4.455 0-8.081-3.606-8.081-8.037V41.852c0-4.431 3.626-8.037 8.081-8.037h45.656c4.455 0 8.081 3.606 8.081 8.037v30.037z"></path>
<path d="M34.5 43c-3.585 0-6.5 2.82-6.5 6.286v9.428C28 62.181 30.915 65 34.5 65s6.5-2.82 6.5-6.286v-9.428C41 45.819 38.085 43 34.5 43zm3.25 15.714c0 1.734-1.458 3.143-3.25 3.143s-3.25-1.41-3.25-3.143v-9.428c0-1.734 1.458-3.143 3.25-3.143s3.25 1.41 3.25 3.143v9.428z"></path>
</g>
</g>
</svg>