<svg height="14" version="1.1" viewbox="0 0 18 14" width="18" xmlns="http://www.w3.org/2000/svg" xmlns:xlink="http://www.w3.org/1999/xlink">
<path d="M2.13842975,2.8546875 C2.1607438,2.63958333 2.07520661,2.42447917 1.91157025,2.27864583 L0.234297521,0.2953125 L0.234297521,0 L5.44834711,0 L9.47975207,8.66614583 L13.0239669,0 L17.996281,0 L17.996281,0.2953125 L16.5607438,1.64427083 C16.4380165,1.73541667 16.3747934,1.88854167 16.4008264,2.03802083 L16.4008264,11.9546875 C16.3747934,12.1041667 16.4380165,12.2572917 16.5607438,12.3484375 L17.9628099,13.6973958 L17.9628099,13.9927083 L10.9078512,13.9927083 L10.9078512,13.6973958 L12.3619835,12.315625 C12.5033058,12.1770833 12.5033058,12.1333333 12.5033058,11.921875 L12.5033058,3.90833333 L8.4607438,13.9671875 L7.91404959,13.9671875 L3.21322314,3.90833333 L3.21322314,10.6494792 C3.17231405,10.9338542 3.26900826,11.2182292 3.47355372,11.4223958 L5.36280992,13.6682292 L5.36280992,13.9635417 L0.00743801653,13.9635417 L0.00743801653,13.671875 L1.89669421,11.4223958 C2.09752066,11.2182292 2.19049587,10.9302083 2.13842975,10.6494792 L2.13842975,2.8546875 Z" fill-rule="nonzero" stroke="none" stroke-width="1"></path>
</svg>