<svg height="10" version="1.1" viewbox="0 0 10 10" width="10" xmlns="http://www.w3.org/2000/svg" xmlns:xlink="http://www.w3.org/1999/xlink">
<g fill="none" fill-rule="evenodd" id="Design" opacity=".4" stroke="none" stroke-width="1">
<g fill="#17223C" id="Home" transform="translate(-746 -6254)">
<g id="P5" transform="translate(267 5417)">
<g id="Group-7" transform="translate(3 813)">
<g id="Group-5">
<g id="cta-copy">
<path d="M9.31842105,2.232 C9.69942482,1.88589719 9.7644067,1.33009144 9.47263158,0.913 C9.29376966,0.673576515 9.01291853,0.521217051 8.70496761,0.496548519 C8.39701669,0.471879987 8.09327539,0.577410439 7.87473684,0.785 L5.15157895,3.372 C4.9771165,3.53755525 4.69446245,3.53755525 4.52,3.372 L1.83578947,0.822 C1.4714353,0.460014015 0.886235426,0.398477077 0.447368421,0.676 C0.1953437,0.845918823 0.0349653169,1.1127274 0.00899844111,1.40528077 C-0.0169684347,1.69783414 0.0941162513,1.98638838 0.312631579,2.194 L3.03736842,4.782 C3.2116371,4.94773933 3.2116371,5.21626067 3.03736842,5.382 L0.353157895,7.932 C-0.0276423124,8.2781984 -0.0926070714,8.83385773 0.198947368,9.251 C0.378476429,9.48970068 0.659284129,9.64146839 0.967003801,9.66611028 C1.27472347,9.69075217 1.57831156,9.58578231 1.79736842,9.379 L4.52157895,6.7905 C4.69604139,6.62494475 4.97869545,6.62494475 5.15315789,6.7905 L7.83736842,9.3405 C8.20056729,9.70459916 8.78734285,9.7665131 9.22578947,9.487 C9.4778142,9.31708118 9.63819258,9.0502726 9.66415945,8.75771923 C9.69012633,8.46516586 9.57904164,8.17661162 9.36052632,7.969 L6.63578947,5.3805 C6.46152079,5.21476067 6.46152079,4.94623933 6.63578947,4.7805 L9.31842105,2.232 Z" id="delete" transform="translate(476 24)"></path>
</g>
</g>
</g>
</g>
</g>
</g>
</svg>