<svg viewbox="0 0 521 765" width="400" xmlns="http://www.w3.org/2000/svg">
<g fill="none" fill-rule="evenodd" opacity=".303">
<circle cx="113.5" cy="329.5" fill="#D8D8D8" r="23.5"></circle>
<circle cx="284.5" cy="403.5" fill="#D8D8D8" r="23.5"></circle>
<circle cx="284.5" cy="403.5" fill="#D8D8D8" r="23.5"></circle>
<circle cx="199.5" cy="539.5" fill="#D8D8D8" r="23.5"></circle>
<ellipse cx="380" cy="610.5" fill="#D8D8D8" rx="96" ry="94.5"></ellipse>
<ellipse cx="94" cy="501.5" fill="#657DBB" opacity=".441" rx="44" ry="43.5"></ellipse>
<ellipse cx="123" cy="675" fill="#6890F8" opacity=".441" rx="91" ry="90"></ellipse>
<circle cx="164" cy="432" fill="#657DBB" opacity=".441" r="22"></circle>
<circle cx="164" cy="432" fill="#657DBB" opacity=".441" r="22"></circle>
<circle cx="420.5" cy="121.5" fill="#657DBB" opacity=".441" r="11.5"></circle>
<ellipse cx="395" cy="248" fill="#657DBB" opacity=".441" rx="45" ry="44"></ellipse>
<ellipse cx="395" cy="388" fill="#657DBB" opacity=".441" rx="45" ry="44"></ellipse>
<ellipse cx="277.5" cy="237" fill="#657DBB" opacity=".441" rx="25.5" ry="25"></ellipse>
<ellipse cx="277.5" cy="238" fill="#657DBB" opacity=".441" rx="25.5" ry="25"></ellipse>
<ellipse cx="277.5" cy="238" fill="#657DBB" opacity=".441" rx="25.5" ry="25"></ellipse>
<ellipse cx="277.5" cy="238" fill="#657DBB" opacity=".441" rx="25.5" ry="25"></ellipse>
<ellipse cx="495.5" cy="494" fill="#657DBB" opacity=".441" rx="25.5" ry="25"></ellipse>
<ellipse cx="176" cy="162.5" fill="#657DBB" opacity=".441" rx="77" ry="76.5"></ellipse>
<ellipse cx="257" cy="352.5" fill="#859EF3" opacity=".441" rx="55" ry="54.5"></ellipse>
<ellipse cx="464" cy="355.5" fill="#859EF3" opacity=".441" rx="55" ry="54.5"></ellipse>
<circle cx="332.5" cy="132.5" fill="#859EF3" opacity=".441" r="29.5"></circle>
<circle cx="474.5" cy="161.5" fill="#859EF3" opacity=".441" r="29.5"></circle>
<circle cx="474.5" cy="161.5" fill="#859EF3" opacity=".441" r="29.5"></circle>
<ellipse cx="215.5" cy="16" fill="#859EF3" opacity=".441" rx="16.5" ry="16"></ellipse>
<ellipse cx="16" cy="531.5" fill="#859EF3" opacity=".441" rx="16" ry="15.5"></ellipse>
<ellipse cx="67.5" cy="359.5" fill="#859EF3" opacity=".441" rx="30.5" ry="29.5"></ellipse>
<ellipse cx="278" cy="488.5" fill="#859EF3" opacity=".441" rx="28" ry="27.5"></ellipse>
<ellipse cx="278" cy="488.5" fill="#859EF3" opacity=".441" rx="28" ry="27.5"></ellipse>
<ellipse cx="278" cy="488.5" fill="#859EF3" opacity=".441" rx="28" ry="27.5"></ellipse>
</g>
</svg>