<svg height="15" width="18" xmlns="http://www.w3.org/2000/svg"><path d="M18 1.776a7.213 7.213 0 0 1-2.12.596A3.778 3.778 0 0 0 17.503.277a7.273 7.273 0 0 1-2.346.918A3.642 3.642 0 0 0 12.462 0C10.424 0 8.77 1.696 8.77 3.787c0 .296.032.585.095.862-3.069-.158-5.79-1.664-7.612-3.958a3.856 3.856 0 0 0-.5 1.906c0 1.313.652 2.472 1.643 3.152a3.626 3.626 0 0 1-1.673-.473v.047c0 1.835 1.273 3.366 2.963 3.713-.31.089-.636.133-.973.133-.238 0-.47-.023-.695-.067.47 1.504 1.833 2.599 3.45 2.628A7.292 7.292 0 0 1 0 13.3 10.282 10.282 0 0 0 5.66 15c6.794 0 10.508-5.77 10.508-10.774 0-.164-.003-.329-.01-.49A7.58 7.58 0 0 0 18 1.776" fill-rule="nonzero"></path></svg>