<svg height="15" width="15" xmlns="http://www.w3.org/2000/svg">
<g fill-rule="evenodd">
<path d="M7.5 0C5.463 0 5.208.009 4.408.045c-.799.037-1.344.163-1.82.349a3.676 3.676 0 0 0-1.33.865 3.676 3.676 0 0 0-.864 1.328C.208 3.064.082 3.61.045 4.407.01 5.208 0 5.464 0 7.5s.009 2.292.045 3.092c.037.799.163 1.344.349 1.82.191.494.448.912.865 1.33.417.416.835.673 1.328.864.477.186 1.022.312 1.82.349.8.036 1.056.045 3.093.045s2.292-.009 3.092-.045c.799-.037 1.344-.163 1.82-.349a3.677 3.677 0 0 0 1.33-.865c.416-.417.673-.835.864-1.328.186-.477.312-1.022.349-1.82.036-.8.045-1.056.045-3.093s-.009-2.292-.045-3.092c-.037-.799-.163-1.344-.349-1.82a3.677 3.677 0 0 0-.865-1.33 3.676 3.676 0 0 0-1.328-.864c-.477-.186-1.022-.312-1.82-.349C9.792.01 9.536 0 7.5 0zm4.904 3.496a.9.9 0 1 1-1.8 0 .9.9 0 0 1 1.8 0z" fill-rule="nonzero"></path>
<path d="M7.5 3.649a3.851 3.851 0 1 0 0 7.702 3.851 3.851 0 0 0 0-7.702z" fill="#17223C"></path>
<path d="M7.5 10a2.5 2.5 0 1 1 0-5 2.5 2.5 0 0 1 0 5z"></path>
</g>
</svg>