<svg viewbox="0 0 97 81" width="90" xmlns="http://www.w3.org/2000/svg">
<g fill="none" fill-rule="nonzero" opacity=".652">
<g fill="#8AC054">
<path d="M5.214 13.02c14.469 5.958 9.44 16.698 9.44 16.698-12.205.948-9.44-16.699-9.44-16.699z"></path>
<path d="M25.65 18.056C29.088 35.61 15.428 37.69 15.428 37.69 6.713 26.7 25.65 18.056 25.65 18.056zM0 34.881c17.635-1.435 18.23 11.904 18.23 11.904C6.49 53.99 0 34.881 0 34.881zM25.327 36.054c11.713 14.62.075 23.026.075 23.026-13.412-6.042-.075-23.026-.075-23.026z"></path>
<path d="M4.067 55.533c20.226-7.678 25.564 7.805 25.564 7.805C18.339 75.79 4.067 55.533 4.067 55.533zM32.635 51.089c16.8 8.448 9.783 20.874 9.783 20.874-14.723.04-9.783-20.874-9.783-20.874z"></path>
</g>
<path d="M65.997 81c-.108 0-.22-.009-.334-.026-22.708-3.783-38.491-12.7-46.91-26.502-2.69-4.415-4.606-9.325-5.69-14.596-.862-4.197-1.202-8.632-1.012-13.178.326-7.735 2.07-13.102 2.142-13.326a2.006 2.006 0 0 1 2.527-1.273 1.984 1.984 0 0 1 1.282 2.504c-.018.053-1.667 5.173-1.954 12.4-.258 6.591.599 16.356 6.153 25.445 7.793 12.747 22.64 21.026 44.125 24.602a1.994 1.994 0 0 1 1.646 2.29A2 2 0 0 1 65.997 81z" fill="#79AA41"></path>
<g fill="#9ED36A">
<path d="M81.267 37.69c2.298-2.843 2.71-5.526 2.06-7.943 10.977-.32 8.356-16.728 8.356-16.728-8.987 3.627-10.598 9.033-10.483 12.703-3.697-4.686-10.357-7.666-10.357-7.666C67.337 35.61 81.267 37.69 81.267 37.69zM78.41 46.785c1.9 1.145 3.664 1.624 5.287 1.624 8.616 0 13.3-13.528 13.3-13.528a32.429 32.429 0 0 0-2.622-.108c-15.42 0-15.965 12.012-15.965 12.012z"></path>
<path d="M76.377 54.32c3.464-7.44-5.204-18.266-5.204-18.266-9.774 11.964-3.603 19.767-1.037 22.207-2.454 2.52-3.352 5.077-3.352 5.077 2.707 2.926 5.581 4.047 8.398 4.047 9.157 0 17.673-11.852 17.673-11.852-4.1-1.524-7.6-2.135-10.574-2.135-2.257 0-4.216.35-5.904.922zM53.22 71.963c14.995-1.233 8.076-21.684 8.076-21.684-16.342 9.886-8.077 21.684-8.077 21.684z"></path>
</g>
<path d="M31.002 81c-.96 0-1.81-.687-1.974-1.66a1.993 1.993 0 0 1 1.646-2.289c21.505-3.582 36.361-11.87 44.146-24.638 5.566-9.127 6.402-18.93 6.127-25.549-.303-7.193-1.931-12.208-1.949-12.258A1.987 1.987 0 0 1 80.28 12.1a2.006 2.006 0 0 1 2.527 1.273c.073.224 1.816 5.591 2.142 13.326.19 4.546-.15 8.981-1.013 13.178-1.083 5.27-2.999 10.184-5.69 14.596-8.417 13.801-24.2 22.719-46.91 26.502a2.186 2.186 0 0 1-.334.026z" fill="#8AC054"></path>
<path d="M81.541 16c6.203-9.936-9.383-16-9.383-16-1.592 15.159 9.383 16 9.383 16z" fill="#9ED36A"></path>
<path d="M24.842 0c1.592 15.159-9.383 16-9.383 16-6.203-9.937 9.383-16 9.383-16z" fill="#8AC054"></path>
</g>
</svg>