<svg class="logo__Logo-k882p4-0 eFALeC" viewbox="0 0 320 80"><path class="logo-icon" d="M 61.1 32.6 l -10.8 3 l 1.3 -3.3 L 42.2 7.8 L 20 65.7 h 53.8 Z M 32.5 57.7 l 9.7 -25.3 l 9.7 25.3 Z"></path><g class="logo-wordmark"><path d="M 103.5 61 C 101.3 63.3 98.3 64.5 95.2 64.5 c -9.6 0 -15 -7.7 -15 -17.2 s 5.4 -17.2 15 -17.2 C 98.3 30.1 101.3 31.3 103.5 33.6 V 18.8 l 9.2 -2.6 V 63.7 h -9.2 Z m 0 -19.1 C 102.3 39.5 99.9 38 97.3 38 c -4.9 0 -7.9 4 -7.9 9.3 s 3 9.2 7.9 9.2 C 99.9 56.6 102.4 55.1 103.5 52.7 Z"></path><path d="M 144.3 60.4 s -3.6 4.1 -11.7 4.1 c -9.6 0 -16 -7 -16 -17.2 c 0 -9.9 6.6 -17.2 15.8 -17.2 c 9.6 0 14.9 6.7 14.9 16.4 v 2.8 H 125.5 c 0.3 4.9 3 7.9 8.2 7.9 C 136.8 57.2 139.7 55.9 141.8 53.7 Z m -18.6 -16.7 h 12.7 c -0.1 -3.5 -2.1 -6.2 -5.9 -6.2 C 129 37.5 126.5 39.6 125.7 43.7 Z"></path><path d="M 160.8 63.7 h -9.1 V 18.8 l 9.1 -2.6 Z"></path><path d="M 175.7 75.8 l -9.1 2.5 V 30.8 h 9.1 v 2.7 C 177.8 31.3 180.8 30 183.9 30 c 9.6 0 15 8 15 17.2 s -5.5 17.2 -15 17.2 C 180.8 64.4 177.9 63.2 175.7 61 Z m 0 -23.1 C 176.9 55 179.3 56.5 181.9 56.5 c 4.9 0 7.9 -4 7.9 -9.2 S 186.8 38 181.9 38 C 179.3 38 176.9 39.5 175.7 41.8 Z"></path><path d="M 202.9 18.8 l 9.1 -2.6 V 33.8 C 214.3 31.3 217.5 30 220.8 30 c 7.4 0 11.6 4.9 11.6 12.2 v 21.5 h -9.1 V 44.1 c 0 -3.5 -1.8 -5.8 -5.4 -5.8 C 215.1 38.2 212.6 40.1 211.9 42.9 V 63.7 h -9.1 Z"></path><path d="M 242.6 26.5 C 239.8 26.4 237.5 24 237.6 21.2 C 237.7 18.3 240 16.1 242.9 16.1 C 245.7 16.1 248 18.5 248 21.3 C 248 22.7 247.4 24 246.4 25 C 245.4 26 244 26.5 242.6 26.5 Z m 4.6 37.2 H 238 V 30.8 h 9.1 Z"></path><path d="M 271.2 63.7 V 61.9 c -1.1 1.1 -4.4 2.4 -8 2.4 c -6.6 0 -12.2 -3.8 -12.2 -10.7 c 0 -6.3 5.6 -10.5 12.7 -10.5 C 266.3 43.1 268.9 43.7 271.2 45 V 42.6 c 0 -2.8 -1.7 -5.1 -5.4 -5.1 C 262.7 37.7 259.8 38.7 257.3 40.5 l -2.7 -7.1 c 2.9 -1.4 7.4 -3.4 11.5 -3.4 c 8.8 0 13.8 4.8 13.8 12.7 v 21 Z m 0 -11.3 c -0.8 -1.8 -3.3 -2.9 -6 -2.9 c -2.9 0 -5.8 1.3 -5.8 4 s 2.9 4 5.8 4 c 2.6 0 5.2 -1.1 6 -2.9 Z"></path></g></svg>