<svg height="25px" version="1.1" viewbox="0 0 22 25" width="22px" xmlns="http://www.w3.org/2000/svg" xmlns:xlink="http://www.w3.org/1999/xlink">
<g fill="none" fill-rule="evenodd" id="Pages" stroke="none" stroke-width="1">
<g fill="#AFBDBD" id="deploy" transform="translate(-709.000000, -5600.000000)">
<path d="M719.125876,5600.02565 C718.674629,5600.10531 717.814271,5600.69973 717.946682,5600.84071 C717.982754,5600.87745 719.065735,5601.55153 720.34727,5602.33597 C721.634743,5603.12034 722.78393,5603.83122 722.904275,5603.917 C723.187039,5604.10694 723.349458,5604.10694 723.560078,5603.91088 C723.710493,5603.7699 723.728498,5603.70253 723.728498,5603.32257 C723.728498,5602.39111 723.517941,5602.11533 722.182267,5601.32478 C720.100578,5600.09302 719.691467,5599.92147 719.125876,5600.02565 Z M716.364316,5602.29305 C716.147694,5602.38493 715.907067,5602.73426 715.738584,5603.18777 C715.636306,5603.45126 715.636306,5603.50641 715.708513,5603.56155 C715.876997,5603.67184 719.077738,5605.56546 720.256995,5606.25183 C721.664877,5607.073 721.664877,5607.06683 721.821294,5607.34872 C722.00178,5607.67354 722.248472,5608.99107 722.158198,5609.1872 C722.122126,5609.26686 721.887437,5609.55487 721.640808,5609.81836 L721.18956,5610.3025 L721.478326,5610.4373 C721.791223,5610.59051 722.242408,5611.05012 722.344748,5611.31973 C722.40489,5611.49134 722.410891,5611.48523 723.018556,5610.82337 C723.355522,5610.46181 723.656291,5610.12477 723.68036,5610.08186 C723.704429,5610.039 723.734562,5609.27908 723.740564,5608.40276 C723.764633,5606.23343 723.794703,5606.29468 722.308613,5605.44899 C721.887437,5605.21001 720.78045,5604.56045 719.841883,5604.00894 C717.874475,5602.83844 716.990048,5602.34819 716.73129,5602.26853 C716.611008,5602.2379 716.484661,5602.24402 716.364316,5602.29305 Z M725.54549,5605.01395 C725.533487,5605.85958 725.527422,5607.55707 725.527422,5608.79495 C725.527422,5610.79886 725.515419,5611.06853 725.419143,5611.24625 C725.359002,5611.36265 725.058171,5611.68746 724.739272,5611.97547 C724.089534,5612.5699 724.077467,5612.57601 723.235177,5612.36766 C722.946348,5612.29411 722.675651,5612.23897 722.633514,5612.23897 C722.585376,5612.23897 722.561307,5612.37995 722.555305,5612.67407 C722.555305,5612.99271 722.513169,5613.18883 722.40489,5613.42781 C722.320679,5613.60553 722.248472,5613.77714 722.248472,5613.80777 C722.242408,5613.88132 723.662355,5614.22447 723.969188,5614.23065 C724.233885,5614.23676 726.429917,5612.96826 726.802956,5612.59441 C726.965374,5612.43509 727.08572,5612.23897 727.127856,5612.07965 C727.206065,5611.76712 727.296276,5608.73981 727.296276,5606.57658 C727.296276,5604.70754 727.242137,5604.40724 726.802956,5603.96603 C726.544261,5603.69635 726.056878,5603.488 725.707972,5603.488 L725.563558,5603.488 L725.54549,5605.01395 Z M712.86268,5604.24181 C712.682193,5604.30918 710.173327,5605.76158 709.818355,5606.00667 C709.192623,5606.43566 708.994069,5606.80333 709.000134,5607.50193 C709.000134,5608.0535 709.060275,5608.31088 709.168554,5608.31088 C709.270832,5608.31088 714.34877,5605.51643 714.523255,5605.36322 C714.67367,5605.23453 714.661668,5604.95875 714.493184,5604.74428 C714.288629,5604.47468 713.656895,5604.19278 713.271854,5604.19889 C713.097369,5604.205 712.916882,5604.22341 712.86268,5604.24181 Z M728.824503,5604.94652 C728.806436,5605.01395 728.770364,5606.44178 728.746295,5608.12087 C728.704158,5611.14819 728.704158,5611.17881 728.836506,5611.29528 C729.041062,5611.49134 729.372027,5611.44842 729.76307,5611.18493 C730.310593,5610.81726 730.442942,5610.55988 730.497081,5609.7387 C730.611425,5608.02281 730.527152,5606.26405 730.310593,5605.82284 C730.148112,5605.5042 729.799142,5605.1855 729.432168,5605.02618 C728.974919,5604.83006 728.860575,5604.81172 728.824503,5604.94652 Z M716.225903,5606.45407 C716.07555,5606.48469 715.678443,5606.66242 715.341539,5606.85848 C715.004573,5607.04849 713.975731,5607.6184 713.055232,5608.12087 C710.335745,5609.6039 709.643871,5610.06352 709.427312,5610.52314 C709.26483,5610.87851 709.306967,5611.72421 709.505521,5612.03673 C709.547594,5612.09805 710.329744,5611.68135 712.796537,5610.27187 C714.914361,5609.06462 716.117624,5608.41505 716.274041,5608.39665 C716.56287,5608.35373 718.018826,5608.83175 718.175307,5609.01559 C718.229446,5609.08302 718.355793,5609.42618 718.458071,5609.77551 L718.638557,5610.41896 L718.915319,5610.23506 C719.228154,5610.03289 719.799746,5609.89191 720.070507,5609.94705 C720.172785,5609.96545 720.256995,5609.96545 720.256995,5609.94094 C720.256995,5609.82447 719.78768,5608.32311 719.715536,5608.21282 C719.643329,5608.09635 717.7842,5606.92591 717.182537,5606.6195 C716.875704,5606.46018 716.526735,5606.40504 716.225903,5606.45407 Z M719.402639,5610.78663 C719.101807,5610.92143 718.385863,5611.72421 718.295589,5612.02451 C718.229446,5612.25126 718.235448,5612.34926 718.391865,5612.90082 C718.644558,5613.80166 718.825045,5613.94875 719.938096,5614.17544 C720.275063,5614.24287 720.335204,5614.23676 720.581896,5614.11418 C720.94887,5613.93646 721.62274,5613.15209 721.682881,5612.83957 C721.713015,5612.67407 721.682881,5612.44732 721.580603,5612.08576 C721.315907,5611.14819 721.201563,5611.02561 720.353271,5610.82337 C719.715536,5610.67628 719.655332,5610.67016 719.402639,5610.78663 Z M715.48589,5611.10527 C715.347541,5611.18493 714.794016,5611.50974 714.252494,5611.81615 C713.711035,5612.12868 713.163511,5612.48412 713.031163,5612.61281 C712.682193,5612.96208 712.628054,5613.24398 712.579916,5615.03953 C712.561911,5615.88522 712.519775,5617.17824 712.489704,5617.90136 C712.423499,5619.48856 712.48364,5620.55483 712.67019,5621.05737 C712.886749,5621.6579 713.434272,5622.08071 713.987797,5622.08071 L714.234489,5622.08689 L714.276563,5619.27403 C714.29463,5617.72975 714.318699,5615.95877 714.318699,5615.33983 C714.318699,5614.439 714.336767,5614.17544 714.420977,5613.99772 C714.553325,5613.70971 715.726581,5612.68636 715.925135,5612.68636 C716.009345,5612.68636 716.364316,5612.75984 716.713286,5612.84568 L717.351021,5612.99889 L717.314949,5612.7231 C717.266811,5612.40446 717.417226,5611.79775 717.609716,5611.51586 C717.75413,5611.30751 717.820336,5611.34425 716.869703,5611.11756 C716.009345,5610.91532 715.804789,5610.90921 715.48589,5611.10527 Z M730.075904,5612.9866 C729.173473,5613.64845 725.443212,5616.17935 724.895689,5616.51027 C724.089534,5616.9883 724.035331,5616.99441 723.084761,5616.67571 C722.531236,5616.49187 722.236406,5616.36318 722.158198,5616.25901 C722.098056,5616.17935 721.965708,5615.83008 721.869432,5615.48075 C721.767154,5615.13148 721.67688,5614.83118 721.664877,5614.81889 C721.652811,5614.80667 721.59267,5614.8373 721.532465,5614.89244 C721.29784,5615.11308 720.858658,5615.26017 720.461551,5615.26017 C720.244929,5615.26017 720.064443,5615.28462 720.064443,5615.30914 C720.064443,5615.52367 720.581896,5617.03733 720.696176,5617.15984 C720.858658,5617.33756 722.69972,5618.45292 723.241178,5618.71031 C723.764633,5618.94928 724.131607,5618.93699 724.642995,5618.64898 C725.310864,5618.2752 727.621177,5616.8228 728.65602,5616.13032 C729.919487,5615.27851 730.497081,5614.81278 730.755776,5614.439 C730.930261,5614.18162 730.960331,5614.07127 730.9844,5613.67908 C731.002468,5613.31752 730.978399,5613.15821 730.864118,5612.89471 C730.785847,5612.71088 730.707638,5612.56378 730.683569,5612.56378 C730.665565,5612.5699 730.388802,5612.75984 730.075904,5612.9866 Z M710.432021,5613.5872 C710.028912,5613.78937 709.728081,5614.07744 709.571663,5614.40219 C709.433314,5614.69638 709.427312,5614.76986 709.427312,5616.63897 C709.421248,5618.92477 709.445317,5619.05957 709.956705,5619.53142 C710.269603,5619.81331 710.949474,5620.13813 711.039686,5620.04007 C711.06982,5620.00944 711.123959,5618.83282 711.15403,5617.41722 C711.190102,5616.00162 711.232238,5614.64117 711.244241,5614.39608 C711.274375,5613.86292 711.208169,5613.63616 710.991548,5613.53199 C710.780991,5613.43399 710.72085,5613.4401 710.432021,5613.5872 Z M717.302883,5614.16933 C716.977982,5614.51866 716.689217,5614.88021 716.653081,5614.96599 C716.623011,5615.05794 716.586939,5615.83619 716.580937,5616.69411 C716.556868,5618.88185 716.484661,5618.74705 718.331724,5619.7888 C720.323201,5620.91027 721.797225,5621.71304 722.801997,5622.22169 C723.902983,5622.77937 724.203814,5622.84063 724.582854,5622.60777 C724.793411,5622.47296 725.160448,5622.11141 725.25066,5621.9398 C725.322867,5621.81111 725.365004,5621.84173 724.077467,5621.11862 C721.640808,5619.74594 718.939388,5618.18937 718.752838,5618.04845 C718.638557,5617.96261 718.506209,5617.81558 718.458071,5617.71752 C718.331724,5617.47237 718.07903,5616.08746 718.127169,5615.89745 C718.145173,5615.81168 718.379862,5615.49915 718.644558,5615.21114 L719.131878,5614.68409 L718.903253,5614.58603 C718.590419,5614.45734 718.18731,5614.07127 718.036894,5613.77103 C717.970751,5613.63616 717.904546,5613.52587 717.898544,5613.53199 C717.89248,5613.53199 717.621782,5613.82006 717.302883,5614.16933 Z M728.938784,5617.61946 C727.89794,5618.20777 726.70668,5618.86962 726.297569,5619.09638 C725.882393,5619.32307 725.509418,5619.55593 725.455278,5619.61725 C725.130378,5620.04618 725.936596,5620.73255 726.766821,5620.73255 C727.109789,5620.73255 727.476826,5620.54872 729.077197,5619.59885 C730.60536,5618.6919 730.888187,5618.42223 730.978399,5617.79718 C731.032539,5617.43562 730.978399,5616.70022 730.888187,5616.61445 C730.852052,5616.57153 730.11204,5616.9576 728.938784,5617.61946 Z M716.412454,5620.97153 C716.274041,5621.02667 716.147694,5621.36378 716.147694,5621.68242 C716.147694,5622.17266 716.29811,5622.60165 716.574873,5622.86515 C716.839632,5623.12864 718.662626,5624.25012 719.528985,5624.69744 C720.238928,5625.059 720.636035,5625.08963 721.15949,5624.82613 C721.586668,5624.60549 722.013783,5624.23783 721.929573,5624.15205 C721.893501,5624.12142 720.966937,5623.53312 719.877955,5622.85903 C718.782971,5622.17878 717.639786,5621.46795 717.339018,5621.27183 C716.839632,5620.95319 716.623011,5620.87964 716.412454,5620.97153 Z" id="small_footer_logo"></path>
</g>
</g>
</svg>