<svg aria-hidden="true" class="svg-inline--fa fa-phone-laptop fa-w-20 fa-2x" data-icon="phone-laptop" data-prefix="fas" focusable="false" role="img" viewbox="0 0 640 512" xmlns="http://www.w3.org/2000/svg"><path class="" d="M604 128H420a36 36 0 0 0-36 36v312a36 36 0 0 0 36 36h184a36 36 0 0 0 36-36V164a36 36 0 0 0-36-36zm-28 320H448V192h128zM128 64h320v32h64V48a48.1 48.1 0 0 0-47.91-48H111.91A48.1 48.1 0 0 0 64 48v240H16a16 16 0 0 0-16 16v16a64.14 64.14 0 0 0 63.91 64H352v-96H128z" fill="currentColor"></path></svg>