<svg height="58" viewbox="0 0 58 58" width="58"><defs><circle cx="29" cy="29" id="face-a" r="29"></circle></defs><g fill="none" fill-rule="evenodd"><mask fill="#fff" id="face-b"><use xlink:href="#face-a"></use></mask><use fill="#E6E7FF" fill-rule="nonzero" xlink:href="#face-a"></use><g mask="url(#face-b)"><g transform="translate(13.647 10.235)"><path d="M6.04048595,25.3881795 C2.67167814,21.4067984 0.391598547,16.527561 0.772601185,11.0602354 C1.87037588,-4.69265213 23.6497661,-1.22721758 27.8863084,6.72348729 C32.1228507,14.6741922 31.6194393,34.8418144 26.1440859,36.2628271 C23.9605225,36.8295251 19.3088832,35.4413421 14.5745997,32.5682301 L17.5462185,53.7352941 L0,53.7352941 L6.04048595,25.3881795 Z" fill="#B28B67" transform="translate(0 1.706)"></path><path d="M15.885823,14.2416399 C16.5727173,23.6511305 18.3897343,28.3558758 21.3368742,28.3558758 C25.757843,28.3558758 29.5087209,25.5958976 31.4485358,25.5958976 C32.862595,25.5958976 32.546879,27.3360788 31.6095666,28.6262994 C30.8362537,29.690773 25.7402042,29.3614901 25.7402042,31.0117816 C25.7402042,32.6620731 30.0457125,32.7406417 30.0457125,33.7193974 C30.0457125,35.3383786 30.5686396,38.3823529 27.7112875,38.3823529 C24.8195519,38.3823529 16.5284337,37.346047 15.1075606,33.1254655 C14.1905707,30.4016257 13.5976708,24.7573199 13.328861,16.1925483 C13.153439,16.1720493 12.9749121,16.1615046 12.7938807,16.1615046 C10.3162414,16.1615046 8.30771787,18.1366774 8.30771787,20.5731765 C8.30771787,21.8100757 8.8253402,22.9280851 9.65918565,23.7291498 C8.62114839,25.1700035 7.45780641,26.6751681 6.12474075,28.2283024 C1.1167019,25.2735733 -2.59954773,16.6239738 2.29662312,8.31481548 C3.64994015,4.24428802 6.71366053,2.0700663 10.331988,1.06050538 C13.2630198,-0.145196287 16.3057082,-0.281140217 18.8741704,0.441667066 C23.9090678,0.866358449 28.4049896,2.37614251 29.6791701,3.27276607 C29.6791701,7.96033239 28.7555511,9.35111956 20.8665854,9.22852683 C18.9281387,10.2352588 17.4379586,11.9688499 15.885823,14.2416399 Z" fill="#191847"></path></g></g></g></svg>