<svg viewbox="0 0 448 176" width="100%"><defs><rect height="73" id="learn-b" rx="8" width="244" x="92" y="73"></rect><filter filterunits="objectBoundingBox" height="195.9%" id="learn-a" width="128.7%" x="-14.3%" y="-34.2%"><feoffset dy="10" in="SourceAlpha" result="shadowOffsetOuter1"></feoffset><fegaussianblur in="shadowOffsetOuter1" result="shadowBlurOuter1" stddeviation="10"></fegaussianblur><fecolormatrix in="shadowBlurOuter1" values="0 0 0 0 0.0470588235   0 0 0 0 0.0705882353   0 0 0 0 0.168627451  0 0 0 0.2 0"></fecolormatrix></filter><rect height="73" id="learn-d" rx="8" width="244" y="14"></rect><filter filterunits="objectBoundingBox" height="195.9%" id="learn-c" width="128.7%" x="-14.3%" y="-34.2%"><feoffset dy="10" in="SourceAlpha" result="shadowOffsetOuter1"></feoffset><fegaussianblur in="shadowOffsetOuter1" result="shadowBlurOuter1" stddeviation="10"></fegaussianblur><fecolormatrix in="shadowBlurOuter1" values="0 0 0 0 0.0470588235   0 0 0 0 0.0705882353   0 0 0 0 0.168627451  0 0 0 0.2 0"></fecolormatrix></filter><circle cx="21.516" cy="21.516" id="learn-e" r="21.516"></circle><circle cx="21.516" cy="21.516" id="learn-g" r="21.516"></circle></defs><g fill="none" fill-rule="evenodd" transform="translate(20)"><path d="M217 63L241.916466 63 241.916466 34 258 34M310 130L356 130 356 52" stroke="#37D1A9" stroke-dasharray="8" stroke-linecap="square" stroke-width="2"></path><g fill-rule="nonzero"><use fill="#000" filter="url(#learn-a)" xlink:href="#learn-b"></use><use fill="#FFF" xlink:href="#learn-b"></use></g><g fill-rule="nonzero"><use fill="#000" filter="url(#learn-c)" xlink:href="#learn-d"></use><use fill="#FFF" xlink:href="#learn-d"></use></g><circle cx="329" cy="78" fill="#37D1A9" fill-rule="nonzero" r="16"></circle><circle cx="244" cy="16" fill="#9DB1F4" fill-rule="nonzero" r="16"></circle><polyline points="323 81.127 327.842 84 336 73" stroke="#FFF" stroke-linecap="round" stroke-width="2"></polyline><polyline points="238 19.127 242.842 22 251 11" stroke="#FFF" stroke-linecap="round" stroke-width="2"></polyline><text fill="#32325D" font-family="Gotham-Medium, Gotham" font-size="14" font-weight="400" letter-spacing="-.084"><tspan x="169" y="103">The order hasn’t </tspan><tspan x="169" y="123">arrived yet</tspan></text><text fill="#32325D" font-family="Gotham-Medium, Gotham" font-size="14" font-weight="400" letter-spacing="-.084"><tspan x="77" y="44">Why my delivery </tspan><tspan x="77" y="64">is late!</tspan></text><g transform="translate(112 88)"><mask fill="#fff" id="learn-f"><use xlink:href="#learn-e"></use></mask><use fill="#E6E7FF" fill-rule="nonzero" xlink:href="#learn-e"></use><g mask="url(#learn-f)"><g transform="translate(10.125 7.594)"><path d="M4.48168136,18.8365194 C1.9822263,15.8825714 0.290542834,12.2624674 0.573224135,8.20603694 C1.38770767,-3.48166882 17.54672,-0.910522467 20.6899825,4.98842773 C23.8332449,10.8873779 23.4597437,25.8505543 19.397357,26.9048613 C17.7772828,27.3253174 14.3260431,26.2953682 10.8134862,24.16369 L13.0182507,39.8683927 L0,39.8683927 L4.48168136,18.8365194 Z" fill="#B28B67" transform="translate(0 1.266)"></path><polygon fill="#FFF" fill-rule="nonzero" points="22.149 20.883 17.719 21.97 22.149 25.313"></polygon><path d="M11.7863359,10.5664499 C12.2959707,17.5477323 13.6440893,21.0383736 15.8306918,21.0383736 C19.1107877,21.0383736 21.8937161,18.9906338 23.3329434,18.9906338 C24.3820913,18.9906338 24.1478487,20.2817448 23.4524187,21.2390118 C22.8786665,22.0287879 19.0977008,21.7844796 19.0977008,23.0088978 C19.0977008,24.2333159 22.2921319,24.2916091 22.2921319,25.0177876 C22.2921319,26.2189754 22.6801127,28.4774234 20.5601274,28.4774234 C18.4146315,28.4774234 12.2631149,27.708546 11.2089116,24.5771255 C10.5285596,22.5561983 10.0886631,18.3684591 9.8892222,12.0139079 C9.75906952,11.9986989 9.62661317,11.9908753 9.49229867,11.9908753 C7.65403763,11.9908753 6.16383261,13.4563361 6.16383261,15.2640735 C6.16383261,16.1817791 6.54787761,17.0112757 7.16654134,17.605618 C6.39637942,18.6746458 5.53324885,19.7913884 4.54419341,20.9437217 C0.828526404,18.7514884 -1.92870982,12.3339999 1.70395778,6.16909862 C2.70803854,3.14900931 4.98113687,1.53586609 7.6657207,0.786831927 C9.84037198,-0.107727011 12.0978658,-0.208589322 14.0035121,0.327690698 C17.7391065,0.642786448 21.0748131,1.76295643 22.0201792,2.4281978 C22.0201792,5.90609325 21.3349089,6.93797462 15.4817655,6.84701811 C14.0435533,7.59395334 12.9379283,8.88017487 11.7863359,10.5664499 Z" fill="#191847"></path></g></g></g><g transform="translate(20 29)"><mask fill="#fff" id="learn-h"><use xlink:href="#learn-g"></use></mask><use fill="#E6E7FF" fill-rule="nonzero" xlink:href="#learn-g"></use><g mask="url(#learn-h)"><g transform="translate(10.125 7.594)"><path d="M4.48168136,18.8365194 C1.9822263,15.8825714 0.290542834,12.2624674 0.573224135,8.20603694 C1.38770767,-3.48166882 17.54672,-0.910522467 20.6899825,4.98842773 C23.8332449,10.8873779 23.4597437,25.8505543 19.397357,26.9048613 C17.7772828,27.3253174 14.3260431,26.2953682 10.8134862,24.16369 L13.0182507,39.8683927 L0,39.8683927 L4.48168136,18.8365194 Z" fill="#B28B67" transform="translate(0 1.266)"></path><polygon fill="#FFF" fill-rule="nonzero" points="22.149 20.883 17.719 21.97 22.149 25.313"></polygon><path d="M11.7863359,10.5664499 C12.2959707,17.5477323 13.6440893,21.0383736 15.8306918,21.0383736 C19.1107877,21.0383736 21.8937161,18.9906338 23.3329434,18.9906338 C24.3820913,18.9906338 24.1478487,20.2817448 23.4524187,21.2390118 C22.8786665,22.0287879 19.0977008,21.7844796 19.0977008,23.0088978 C19.0977008,24.2333159 22.2921319,24.2916091 22.2921319,25.0177876 C22.2921319,26.2189754 22.6801127,28.4774234 20.5601274,28.4774234 C18.4146315,28.4774234 12.2631149,27.708546 11.2089116,24.5771255 C10.5285596,22.5561983 10.0886631,18.3684591 9.8892222,12.0139079 C9.75906952,11.9986989 9.62661317,11.9908753 9.49229867,11.9908753 C7.65403763,11.9908753 6.16383261,13.4563361 6.16383261,15.2640735 C6.16383261,16.1817791 6.54787761,17.0112757 7.16654134,17.605618 C6.39637942,18.6746458 5.53324885,19.7913884 4.54419341,20.9437217 C0.828526404,18.7514884 -1.92870982,12.3339999 1.70395778,6.16909862 C2.70803854,3.14900931 4.98113687,1.53586609 7.6657207,0.786831927 C9.84037198,-0.107727011 12.0978658,-0.208589322 14.0035121,0.327690698 C17.7391065,0.642786448 21.0748131,1.76295643 22.0201792,2.4281978 C22.0201792,5.90609325 21.3349089,6.93797462 15.4817655,6.84701811 C14.0435533,7.59395334 12.9379283,8.88017487 11.7863359,10.5664499 Z" fill="#191847"></path></g></g></g><path d="M269,16 L424,16 C426.209139,16 428,17.790861 428,20 L428,44 C428,46.209139 426.209139,48 424,48 L269,48 C266.790861,48 265,46.209139 265,44 L265,20 C265,17.790861 266.790861,16 269,16 Z" fill="#37D1A9" fill-rule="nonzero"></path><text fill="#FFF" font-family="Gotham-Medium, Gotham" font-size="14" font-weight="400" letter-spacing="-.084"><tspan x="274" y="38">DELAYED DELIVERY</tspan></text></g></svg>