<svg height="30" viewbox="0 0 30 30" width="30"><defs><lineargradient id="augmenticon-a" x1="14.991%" x2="104.141%" y1="23.691%" y2="100%"><stop offset="0%" stop-color="#8184FA"></stop><stop offset="100%" stop-color="#5373DE"></stop></lineargradient><path d="M9,22.5 C9,21.672 8.328,21 7.5,21 L4.5,21 C3.672,21 3,21.672 3,22.5 L3,25.5 C3,26.328 3.672,27 4.5,27 L7.5,27 C8.328,27 9,26.328 9,25.5 L9,22.5 Z M12,21 L12,27 C12,28.6575 10.6575,30 9,30 L3,30 C1.3425,30 0,28.6575 0,27 L0,21 C0,19.3425 1.3425,18 3,18 L9,18 C10.6575,18 12,19.3425 12,21 L12,21 Z M9,4.5 C9,3.672 8.328,3 7.5,3 L4.5,3 C3.672,3 3,3.672 3,4.5 L3,7.5 C3,8.328 3.672,9 4.5,9 L7.5,9 C8.328,9 9,8.328 9,7.5 L9,4.5 Z M12,3 L12,9 C12,10.6575 10.6575,12 9,12 L3,12 C1.3425,12 0,10.6575 0,9 L0,3 C0,1.3425 1.3425,0 3,0 L9,0 C10.6575,0 12,1.3425 12,3 L12,3 Z M27,22.5 C27,21.672 26.328,21 25.5,21 L22.5,21 C21.672,21 21,21.672 21,22.5 L21,25.5 C21,26.328 21.672,27 22.5,27 L25.5,27 C26.328,27 27,26.328 27,25.5 L27,22.5 Z M30,21 L30,27 C30,28.6575 28.6575,30 27,30 L21,30 C19.3425,30 18,28.6575 18,27 L18,21 C18,19.3425 19.3425,18 21,18 L27,18 C28.6575,18 30,19.3425 30,21 L30,21 Z M22.1428571,18 L22.1428571,9.00449819 C22.1428571,8.17541278 21.5028571,7.49025539 20.7142857,7.49025539 L17.8571429,7.49025539 C17.8571429,8.98950569 17.2171429,8.99700194 16.4285714,8.99700194 C15.64,8.99700194 15,8.33283406 15,7.50524789 L15,4.50674729 C15,3.67766187 15.64,3.00000073 16.4285714,3.00000073 C17.2171429,3.00000073 17.8571429,2.99250448 17.8571429,4.49175478 L22.1428571,4.49175478 C23.7214286,4.49175478 25,5.84857631 25,7.50524789 L25,18 L22.1428571,18 Z M5,12 L8,12 L8,18 L5,18 L5,12 Z" id="augmenticon-b"></path></defs><use fill="url(#augmenticon-a)" xlink:href="#augmenticon-b"></use></svg>