<svg height="19" viewbox="0 0 14 19" width="14"><path d="M3,15.6786141 C6.59617682,12.0657109 10.20908,8.46953405 13.8219833,4.85663082 C11.5639188,4.85663082 9.28912784,4.85663082 7.03106332,4.85663082 C7.03106332,4.23775388 7.03106332,3.61887694 7.03106332,3 C10.3596177,3 13.6714456,3 17,3 C17,6.31182796 17,9.64038232 17,12.9689367 C16.3811231,12.9689367 15.7622461,12.9689367 15.1433692,12.9689367 C15.1433692,10.6941458 15.1433692,8.43608124 15.1433692,6.17801673 C11.5304659,9.79091995 7.91756272,13.3870968 4.3046595,17 C3.869773,16.5651135 3.4348865,16.1135006 3,15.6786141 Z" fill="#8490F8" fill-rule="evenodd" transform="rotate(135 8.707 8.879)"></path></svg>