<svg height="537" viewbox="0 0 647 537" width="647"><defs><lineargradient id="platform-a" x1="14.991%" x2="192.667%" y1="49.889%" y2="50%"><stop offset="0%" stop-color="#A5A6FF"></stop><stop offset="98.801%" stop-color="#3E73D7"></stop></lineargradient></defs><g fill="none" fill-rule="evenodd"><path d="M8,0 L639,0 C643.418278,-8.11624501e-16 647,3.581722 647,8 L647,529 C647,533.418278 643.418278,537 639,537 L8,537 C3.581722,537 5.41083001e-16,533.418278 0,529 L0,8 C-5.41083001e-16,3.581722 3.581722,8.11624501e-16 8,0 Z" fill="#F2F2F2"></path><path d="M496,66 L589,66 C593.418278,66 597,69.581722 597,74 L597,184 C597,188.418278 593.418278,192 589,192 L496,192 C491.581722,192 488,188.418278 488,184 L488,74 C488,69.581722 491.581722,66 496,66 Z" fill="#FFF"></path><g fill="#DDE3E9" transform="translate(504 89)"><ellipse cx="39" cy="24.923" rx="24.96" ry="24.923"></ellipse><path d="M3.5 56.0769231L74.5 56.0769231C76.4329966 56.0769231 78 57.6439265 78 59.5769231L78 61.9230769C78 63.8560735 76.4329966 65.4230769 74.5 65.4230769L3.5 65.4230769C1.56700338 65.4230769 1.09514676e-15 63.8560735 0 61.9230769L0 59.5769231C-2.36723813e-16 57.6439265 1.56700338 56.0769231 3.5 56.0769231zM15.98 71.6538462L62.02 71.6538462C63.9529966 71.6538462 65.52 73.2208495 65.52 75.1538462L65.52 77.5C65.52 79.4329966 63.9529966 81 62.02 81L15.98 81C14.0470034 81 12.48 79.4329966 12.48 77.5L12.48 75.1538462C12.48 73.2208495 14.0470034 71.6538462 15.98 71.6538462z"></path></g><path d="M8,0 L639,0 C643.418278,-8.11624501e-16 647,3.581722 647,8 L647,42 L0,42 L0,8 C-5.41083001e-16,3.581722 3.581722,8.11624501e-16 8,0 Z" fill="url(#platform-a)" fill-rule="nonzero"></path><g fill="#F2F2F2" transform="translate(18 17)"><circle cx="4" cy="4" r="4"></circle><circle cx="16" cy="4" r="4"></circle><circle cx="28" cy="4" r="4"></circle></g><g transform="translate(488 204)"><rect fill="#FFF" height="301" rx="8" width="109"></rect><g transform="translate(18 18)"><rect fill="#DDE3E9" height="41.807" rx="4" width="73"></rect><path d="M4,54.6704545 L69,54.6704545 C71.209139,54.6704545 73,56.4613155 73,58.6704545 L73,90.8693182 C73,93.0784572 71.209139,94.8693182 69,94.8693182 L4,94.8693182 C1.790861,94.8693182 2.705415e-16,93.0784572 0,90.8693182 L0,58.6704545 C-2.705415e-16,56.4613155 1.790861,54.6704545 4,54.6704545 Z" fill="#AFB9C5"></path><rect fill="#DDE3E9" height="40.199" rx="4" width="73" y="107.733"></rect><rect fill="#DDE3E9" height="40.199" rx="4" width="73" y="213.858"></rect><path d="M4,160.795455 L69,160.795455 C71.209139,160.795455 73,162.586316 73,164.795455 L73,196.994318 C73,199.203457 71.209139,200.994318 69,200.994318 L4,200.994318 C1.790861,200.994318 4.19476067e-15,199.203457 0,196.994318 L0,164.795455 C-2.705415e-16,162.586316 1.790861,160.795455 4,160.795455 Z" fill="#C5CFD6"></path></g></g><g transform="translate(38 67)"><rect fill="#FFF" height="76.667" rx="4" width="410"></rect><g fill="#DDE3E9" transform="translate(9 23)"><rect height="11.5" rx="3" width="352"></rect><path d="M3,19.1666667 L233.273973,19.1666667 C234.930827,19.1666667 236.273973,20.5098124 236.273973,22.1666667 L236.273973,27.6666667 C236.273973,29.3235209 234.930827,30.6666667 233.273973,30.6666667 L3,30.6666667 C1.34314575,30.6666667 6.46995335e-16,29.3235209 4.4408921e-16,27.6666667 L4.4408921e-16,22.1666667 C2.41183085e-16,20.5098124 1.34314575,19.1666667 3,19.1666667 Z"></path></g><g transform="translate(359.183 31.333)"><circle cx="7" cy="7" fill="#DDE3E9" r="7"></circle><circle cx="7" cy="7" fill="#F2F2F2" r="3"></circle></g><g transform="translate(0 89.716)"><rect fill="#FFF" height="63.617" rx="4" width="410"></rect><g fill="#DDE3E9" transform="translate(9 19.085)"><rect height="9.543" rx="3" width="352"></rect><path d="M3,15.9042553 L233.273973,15.9042553 C234.930827,15.9042553 236.273973,17.2474011 236.273973,18.9042553 L236.273973,22.4468085 C236.273973,24.1036628 234.930827,25.4468085 233.273973,25.4468085 L3,25.4468085 C1.34314575,25.4468085 2.02906125e-16,24.1036628 0,22.4468085 L0,18.9042553 C-2.02906125e-16,17.2474011 1.34314575,15.9042553 3,15.9042553 Z"></path></g><g transform="translate(359.183 24.809)"><circle cx="7" cy="7" fill="#DDE3E9" r="7"></circle><circle cx="7" cy="7" fill="#F2F2F2" r="3"></circle></g></g><g transform="translate(0 166.383)"><path d="M4,0 L406,0 C408.209139,3.09879411e-14 410,1.790861 410,4 L410,59.6170213 C410,61.8261603 408.209139,63.6170213 406,63.6170213 L4,63.6170213 C1.790861,63.6170213 4.19476067e-15,61.8261603 0,59.6170213 L0,4 C-2.705415e-16,1.790861 1.790861,4.05812251e-16 4,0 Z" fill="#FFF"></path><g fill="#DDE3E9" transform="translate(9 19.085)"><rect height="9.543" rx="3" width="352"></rect><path d="M3,15.9042553 L233.273973,15.9042553 C234.930827,15.9042553 236.273973,17.2474011 236.273973,18.9042553 L236.273973,22.4468085 C236.273973,24.1036628 234.930827,25.4468085 233.273973,25.4468085 L3,25.4468085 C1.34314575,25.4468085 2.02906125e-16,24.1036628 0,22.4468085 L0,18.9042553 C-2.02906125e-16,17.2474011 1.34314575,15.9042553 3,15.9042553 Z"></path></g><g transform="translate(359.183 24.809)"><circle cx="7" cy="7" fill="#DDE3E9" r="7"></circle><circle cx="7" cy="7" fill="#AFB9C5" r="3"></circle></g></g><g transform="translate(0 396.383)"><rect fill="#FFF" height="63.617" rx="4" width="410"></rect><g fill="#DDE3E9" transform="translate(9 19.085)"><rect height="9.543" rx="3" width="352"></rect><path d="M3,15.9042553 L233.273973,15.9042553 C234.930827,15.9042553 236.273973,17.2474011 236.273973,18.9042553 L236.273973,22.4468085 C236.273973,24.1036628 234.930827,25.4468085 233.273973,25.4468085 L3,25.4468085 C1.34314575,25.4468085 2.02906125e-16,24.1036628 0,22.4468085 L0,18.9042553 C-2.02906125e-16,17.2474011 1.34314575,15.9042553 3,15.9042553 Z"></path></g><g transform="translate(359.183 24.809)"><circle cx="7" cy="7" fill="#DDE3E9" r="7"></circle><circle cx="7" cy="7" fill="#F2F2F2" r="3"></circle></g></g><g transform="translate(0 319.716)"><rect fill="#FFF" height="63.617" rx="4" width="410"></rect><g fill="#DDE3E9" transform="translate(9 19.085)"><rect height="9.543" rx="3" width="352"></rect><path d="M3,15.9042553 L233.273973,15.9042553 C234.930827,15.9042553 236.273973,17.2474011 236.273973,18.9042553 L236.273973,22.4468085 C236.273973,24.1036628 234.930827,25.4468085 233.273973,25.4468085 L3,25.4468085 C1.34314575,25.4468085 6.46995335e-16,24.1036628 4.4408921e-16,22.4468085 L4.4408921e-16,18.9042553 C2.41183085e-16,17.2474011 1.34314575,15.9042553 3,15.9042553 Z"></path></g><g transform="translate(359.183 24.809)"><circle cx="7" cy="7" fill="#DDE3E9" r="7"></circle><circle cx="7" cy="7" fill="#F2F2F2" r="3"></circle></g></g><g transform="translate(0 243.05)"><path d="M4,0 L406,0 C408.209139,-3.17995656e-14 410,1.790861 410,4 L410,59.6170213 C410,61.8261603 408.209139,63.6170213 406,63.6170213 L4,63.6170213 C1.790861,63.6170213 2.705415e-16,61.8261603 0,59.6170213 L0,4 C-2.705415e-16,1.790861 1.790861,4.05812251e-16 4,0 Z" fill="#FFF"></path><g fill="#DDE3E9" transform="translate(9 19.085)"><rect height="9.543" rx="3" width="352"></rect><path d="M3,15.9042553 L233.273973,15.9042553 C234.930827,15.9042553 236.273973,17.2474011 236.273973,18.9042553 L236.273973,22.4468085 C236.273973,24.1036628 234.930827,25.4468085 233.273973,25.4468085 L3,25.4468085 C1.34314575,25.4468085 2.02906125e-16,24.1036628 0,22.4468085 L0,18.9042553 C-2.02906125e-16,17.2474011 1.34314575,15.9042553 3,15.9042553 Z"></path></g><g transform="translate(359.183 24.809)"><circle cx="7" cy="7" fill="#DDE3E9" r="7"></circle><circle cx="7" cy="7" fill="#F2F2F2" r="3"></circle></g></g></g></g></svg>