<svg height="28" viewbox="0 0 28 28" width="28"><defs><lineargradient id="benefitsicon-a" x1="14.991%" x2="104.141%" y1="23.691%" y2="100%"><stop offset="0%" stop-color="#8184FA"></stop><stop offset="100%" stop-color="#5373DE"></stop></lineargradient><path d="M7,15.981 L21,15.981 C21,25.781 7,25.781 7,15.981 L7,15.981 Z M2.8,14 C2.8,7.8246 7.8246,2.8 14,2.8 C20.1754,2.8 25.2,7.8246 25.2,14 C25.2,20.1754 20.1754,25.2 14,25.2 C7.8246,25.2 2.8,20.1754 2.8,14 Z M0,14 C0,21.7322 6.2678,28 14,28 C21.7322,28 28,21.7322 28,14 C28,6.2678 21.7322,0 14,0 C6.2678,0 0,6.2678 0,14 Z" id="benefitsicon-b"></path></defs><g fill="none" fill-rule="evenodd"><use fill="url(#benefitsicon-a)" fill-rule="nonzero" xlink:href="#benefitsicon-b"></use><path d="M20.8 11.981C20.8 12.533 20.352 12.981 19.8 12.981L17.8 12.981C17.25 12.981 16.8 12.531 16.8 11.981L16.8 9.981C16.8 9.429 17.248 8.981 17.8 8.981L19.8 8.981C20.352 8.981 20.8 9.429 20.8 9.981L20.8 11.981zM7.6 12.981C7.05 12.981 6.6 12.531 6.6 11.981L6.6 9.981C6.6 9.429 7.048 8.981 7.6 8.981L9.6 8.981C10.152 8.981 10.6 9.429 10.6 9.981L10.6 11.981C10.6 12.533 10.152 12.981 9.6 12.981L7.6 12.981z" fill="url(#benefitsicon-a)" fill-rule="nonzero"></path></g></svg>