<svg height="149" viewbox="0 0 302 149" width="302"><defs><circle cx="55" cy="55" id="delightcustomers-a" r="55"></circle><lineargradient id="delightcustomers-c" x1="50%" x2="50%" y1="0%" y2="72.68%"><stop offset="0%" stop-color="#C88E7B"></stop><stop offset="100%" stop-color="#EEAE98"></stop></lineargradient><path d="M4.12737229,19.4655729 C3.85182357,24.5855343 3.85182357,28.3082506 4.12737229,30.6337219 C4.40292102,32.9591932 5.05576521,34.7461028 6.08590486,35.9944507 C7.41053143,42.6583277 9.17185254,47.2213922 11.3698682,49.6836441 C12.5215265,50.9737499 14.2379069,52.3075707 16.5190092,53.6851063 L16.5189956,53.685129 C22.6920739,57.4129912 30.6223442,56.379109 35.633315,51.1931642 C35.633315,51.1931642 35.633315,51.1931642 35.633315,51.1931642 C37.8122301,48.9381653 39.8344437,44.6252938 41.6999558,38.2545496 C44.0757396,38.1838839 45.4392664,36.7041217 45.7905363,33.8152632 C46.1418063,30.9264047 45.3362747,28.8715228 43.3739417,27.6506173 C43.8915293,18.8101886 43.1084066,12.6730405 41.0245737,9.23917307 C38.9407408,5.80530565 34.3423227,2.98115878 27.2293193,0.76673248 C21.9807551,-0.926679279 15.9760008,0.595725916 9.21505651,5.33394806 C2.45411222,10.0721702 -0.5304949,14.1904472 0.261235153,17.6887791 L4.12737229,19.4655729 Z" id="delightcustomers-d"></path><circle cx="34" cy="34" id="delightcustomers-f" r="34"></circle><filter filterunits="objectBoundingBox" height="202.9%" id="delightcustomers-g" width="202.9%" x="-51.5%" y="-36.8%"><feoffset dy="10" in="SourceAlpha" result="shadowOffsetOuter1"></feoffset><fegaussianblur in="shadowOffsetOuter1" result="shadowBlurOuter1" stddeviation="10"></fegaussianblur><fecolormatrix in="shadowBlurOuter1" values="0 0 0 0 0.517647059   0 0 0 0 0.537254902   0 0 0 0 0.607843137  0 0 0 0.15 0"></fecolormatrix></filter><circle cx="40" cy="40" id="delightcustomers-i" r="40"></circle><path d="M7.42484559,30.4075613 C3.28548353,25.634875 0.466379151,19.7625765 0.930969628,13.1730007 C2.2537671,-5.58905913 28.4975151,-1.46164503 33.6024674,8.0078316 C38.7074197,17.4773082 38.1008187,41.497421 31.5031227,43.1898806 C28.7578302,43.8941108 22.7749318,42.0636444 16.8193669,38.3342538 L19.04965,61 C15.0296133,60.8833237 12.0145858,60.6455435 10.0045675,60.2866594 C7.99454917,59.9277752 5.37376548,59.1592944 2.14221644,57.9812169 L7.42484559,30.4075613 Z" id="delightcustomers-j"></path></defs><g fill="none" fill-rule="evenodd" transform="translate(20)"><g transform="translate(75 39)"><mask fill="#fff" id="delightcustomers-b"><use xlink:href="#delightcustomers-a"></use></mask><use fill="#D9DDF8" fill-rule="nonzero" xlink:href="#delightcustomers-a"></use><ellipse cx="53.636" cy="123.607" fill="#2F3676" fill-rule="nonzero" mask="url(#delightcustomers-b)" rx="58.182" ry="48.864"></ellipse><path d="M44.8738379,67 C42.8727456,73.8702957 42.4743948,79.3644668 43.6787855,83.4825135 C43.8105513,83.9330464 43.9711355,84.4000506 44.160538,84.8835261 L44.1604726,84.8835517 C46.7345531,91.454239 54.1478522,94.6941289 60.7185395,92.1200484 C64.068642,90.8076387 66.7101694,88.1436183 67.9941268,84.7825084 C67.9941268,84.7825084 67.9941268,84.7825084 67.9941268,84.7825084 C69.5844523,80.6193959 69.2890019,74.6918931 67.1077755,67 L44.8738379,67 Z" fill="url(#delightcustomers-c)" fill-rule="nonzero"></path><g transform="translate(31 20)"><mask fill="#fff" id="delightcustomers-e"><use xlink:href="#delightcustomers-d"></use></mask><use fill="#EEAE98" fill-rule="nonzero" xlink:href="#delightcustomers-d"></use><path d="M3.91539054,28.1851474 L5.76474879,31.0833498 L6.73328825,20.7028397 C14.7600778,23.3803913 20.6926615,24.5985409 24.5310393,24.3572885 C28.3694171,24.1160361 32.8101473,22.2458957 37.8532299,18.7468674 L38.5490613,31.0833498 C39.5117753,29.3403721 40.3562158,28.2172226 41.0823828,27.7139014 C41.8085498,27.2105801 42.5845338,27.2105801 43.4103347,27.7139014 L57.6350163,14.3896098 L39.0596472,-5.00115588 L9.48694346,-8.28416116 L-7.88046031,3.59522043 L-6.21067145,18.7468674 L0.767508298,24.3572885 L3.91539054,28.1851474 Z" fill="#48254E" fill-rule="nonzero" mask="url(#delightcustomers-e)"></path></g><path d="M46,59 L55,59 L64,59 L64,59 C64,63.9705627 59.9705627,68 55,68 L55,68 C50.0294373,68 46,63.9705627 46,59 L46,59 Z" fill="#FFF" fill-rule="nonzero"></path></g><g transform="translate(0 26)"><mask fill="#fff" id="delightcustomers-h"><use xlink:href="#delightcustomers-f"></use></mask><g fill-rule="nonzero"><use fill="#000" filter="url(#delightcustomers-g)" xlink:href="#delightcustomers-f"></use><use fill="#FFF" xlink:href="#delightcustomers-f"></use></g><g mask="url(#delightcustomers-h)"><g transform="translate(16 12)"><path d="M7.08194904,29.7654519 C3.1323123,25.0976258 0.459115538,19.3771405 0.905808286,12.9671725 C2.19285448,-5.50173008 27.727312,-1.43880682 32.6942926,7.88270923 C37.6612732,17.2042253 37.0710668,40.8490238 30.6516869,42.5150387 C28.0916471,43.1794432 22.638001,41.5519183 17.0874617,38.1834422 L20.5714286,63 L0,63 L7.08194904,29.7654519 Z" fill="#B28B67" transform="translate(0 2)"></path><polygon fill="#FFF" fill-rule="nonzero" points="35 33 28 34.717 35 40"></polygon><path d="M18.624758,16.697095 C19.4300823,27.7289116 21.5603782,33.2448199 25.0156457,33.2448199 C30.1988504,33.2448199 34.5964314,30.0089833 36.8706972,30.0089833 C38.5285597,30.0089833 38.1584099,32.0491958 37.0594919,33.5618683 C36.1528492,34.8098718 30.1781705,34.423816 30.1781705,36.3586405 C30.1781705,38.293465 35.2260078,38.3855799 35.2260078,39.5330866 C35.2260078,41.4312025 35.8390947,45 32.4890957,45 C29.098785,45 19.3781636,43.7850206 17.7123124,38.8367527 C16.6372208,35.6432852 15.9420968,29.0258234 15.6269404,18.984367 C15.4212733,18.9603337 15.2119659,18.9479709 14.9997222,18.9479709 C12.0949037,18.9479709 9.74008302,21.2636907 9.74008302,24.1202759 C9.74008302,25.5704335 10.3469506,26.8812032 11.3245625,27.8203825 C10.1075533,29.5096592 8.7436351,31.274335 7.18073054,33.0952511 C1.30923671,29.631086 -3.04774561,19.4901761 2.69259262,9.74840435 C4.27924018,4.97606182 7.87118821,2.42697428 12.1133653,1.24335114 C15.5497474,-0.17023013 19.1170372,-0.329612669 22.1283378,0.517816561 C28.0313209,1.01573059 33.3024017,2.78582225 34.7962683,3.83703608 C34.7962683,9.3328035 33.7134047,10.9633816 24.4642726,10.8196521 C22.1916109,11.9999586 20.4445032,14.0324447 18.624758,16.697095 Z" fill="#191847"></path></g></g></g><use fill="#D6F8EF" transform="translate(186)" xlink:href="#delightcustomers-i"></use><g transform="matrix(-1 0 0 1 244 19)"><mask fill="#fff" id="delightcustomers-k"><use xlink:href="#delightcustomers-j"></use></mask><use fill="#F5BA9A" xlink:href="#delightcustomers-j"></use><path d="M32.5681971,32.809691 C33.7895714,33.1127559 34.9108723,33.1127559 35.9320999,32.809691 C36.9533275,32.506626 38.1247977,32.2515685 39.4465105,32.0445184 L33.7233714,39.8802588 L29.6871274,38.9041557 L32.5681971,32.809691 Z" fill="#FFF" fill-rule="nonzero" mask="url(#delightcustomers-k)" transform="matrix(-1 0 0 1 69.134 0)"></path></g><path d="M260.622631,47.4689836 C258.018546,52.3353145 254.416945,56 250.818796,56 C243.98442,56 239.125,47.1043492 239.125,37.540003 C239.125,37.2039618 239.131839,36.8701562 239.145334,36.5388438 C231.915783,41.3686826 226.344057,50.8888889 216.778152,50.8888889 C203.763826,50.8888889 198.595294,25.3333333 216.778152,25.3333333 C229.143878,25.3333333 235.226504,27.0885579 240.46854,29.6841214 C241.517229,26.8059178 243.124181,24.392611 245.089689,22.7236778 C245.492012,22.3099468 246.057933,21.9112584 246.765075,21.5350052 C247.496542,21.1107512 248.26339,20.7818423 249.057703,20.5593552 C252.210702,19.466078 256.698085,18.6961849 261.696625,18.5216321 C262.650086,18.4883365 263.586505,18.4779468 264.500051,18.4889787 C264.516409,13.7979165 268.427627,10 273.25,10 C278.082492,10 282,13.8138706 282,18.5185185 C282,23.0839198 278.310958,26.8104933 273.676609,27.0270897 C271.044948,27.8150892 267.67299,28.3949156 263.936113,28.6425607 C264.301449,29.9792986 264.5,31.4979918 264.5,33.2142938 C264.5,34.7290079 264.328272,36.3354449 264.012063,37.9665612 C263.196729,37.0230847 262.106528,36.4074074 261,36.4074074 C257.90463,36.4074074 255.75,38.8864233 255.75,41.5185185 C255.75,44.8590593 257.730903,47.2756963 260.622631,47.4689836 Z" fill="#E76551" transform="matrix(-1 0 0 1 487 0)"></path></g></svg>