<svg height="24" viewbox="0 0 30 24" width="30"><defs><lineargradient id="goodcompanyicon-a" x1="14.991%" x2="104.141%" y1="33.162%" y2="82%"><stop offset="0%" stop-color="#8184FA"></stop><stop offset="100%" stop-color="#5373DE"></stop></lineargradient><path d="M17.9893744,20.0234873 C17.167402,20.722226 16.1114374,21.1075818 15.0149742,21.1075818 C13.9200109,21.1075818 12.8610464,20.7237254 12.0060751,20.0024952 C6.61525595,15.4606939 3.18337106,13.0510951 3.00487705,8.10894361 C2.81738334,2.87889976 8.54719114,0.967114811 12.0600733,5.26450749 C12.7710495,6.13268277 13.8390136,6.63049658 14.990975,6.63049658 C16.153436,6.63049658 17.2288999,6.12668502 17.941376,5.24801366 C21.3777608,1.01959518 27.2605634,2.82042163 26.9920724,8.2618864 C26.7520805,13.1020761 23.1882,15.6016412 17.9893744,20.0234873 M15.5804552,3.46518048 C15.4334602,3.64661262 15.2114676,3.73807841 14.990975,3.73807841 C14.7749822,3.73807841 14.5604894,3.6496115 14.4164943,3.47417711 C9.10217253,-3.02589172 -0.281512711,0.211397466 0.00647762908,8.20940603 C0.235969931,14.5745253 4.74781859,17.7293454 10.0606404,22.2051713 C11.4810927,23.4017238 13.2480335,24 15.0149742,24 C16.7864148,24 18.5563554,23.3987249 19.9738079,22.1931758 C25.2281316,17.7233476 29.6829822,14.5895197 29.987472,8.39833537 C30.3924584,0.22189354 20.8812774,-3.06187826 15.5804552,3.46518048" id="goodcompanyicon-b"></path></defs><use fill="url(#goodcompanyicon-a)" xlink:href="#goodcompanyicon-b"></use></svg>