<svg viewbox="0 0 319 238" width="100%"><defs><lineargradient id="relax-a" x1="36.334%" x2="58.635%" y1="83.928%" y2="32.387%"><stop offset="0%" stop-color="#6A85EC"></stop><stop offset="100%" stop-color="#9DB1F4"></stop></lineargradient><lineargradient id="relax-c" x1="66.174%" x2="21.961%" y1="12.505%" y2="64.117%"><stop offset="0%" stop-color="#9DB1F4"></stop><stop offset="100%" stop-color="#6C87ED"></stop></lineargradient><path d="M13.2709007,53.0650539 C12.9741477,46.1322045 13.7746403,40.3716889 15.6723786,35.7835071 C17.5701169,31.1953252 21.9572772,24.4135978 28.8338595,15.4383248 C38.8868767,2.54699607 52.1316702,-2.27093292 68.5682401,0.984537804 C85.0048101,4.24000853 97.4828968,14.1526795 106.0025,30.7225508 C111.143327,50.8468063 112.135401,64.1514929 108.97872,70.6366104 C105.82204,77.1217279 95.7769132,82.4157293 78.8433404,86.5186144 C73.7943059,91.2796365 69.6252175,94.7971969 66.3360751,97.0712956 C63.0469327,99.3453943 57.7609939,102.364998 50.4782586,106.130108 C42.4890187,93.4205647 35.274219,84.3625204 28.8338595,78.9559747 C22.3935,73.5494291 12.7822135,68.48233 5.61328761e-13,63.7546774 L13.2709007,53.0650539 Z" id="relax-b"></path><lineargradient id="relax-e" x1="65.432%" x2="50%" y1="17.761%" y2="57.356%"><stop offset="0%" stop-color="#705B43"></stop><stop offset="100%" stop-color="#B28B67"></stop></lineargradient><path d="M5.43685723,0 C1.3615526,13.3257347 -0.0259346278,22.1933549 1.27439555,26.6028608 C2.57472572,31.0123667 6.82803753,31.8629476 14.034331,29.1546036 L14.034331,32.1953491 C9.16171256,38.4368182 7.54744676,42.4399897 9.19153359,44.2048638 C10.8356204,45.9697379 14.4370305,44.7966431 19.9957639,40.6855793 C22.6767032,36.4693785 24.0935491,33.0098533 24.2463017,30.3070036 C24.3990543,27.604154 23.3689572,24.2204323 21.1560103,20.1558386 C22.8733131,18.3533966 23.9034103,16.9207168 24.2463017,15.8577994 C24.5891931,14.7948819 24.4018081,13.6152668 23.6841467,12.3189542 C26.3069266,7.65661273 26.4943116,4.56661338 24.2463017,3.04895613 C21.9982918,1.53129889 15.728477,0.514980174 5.43685723,0 Z" id="relax-f"></path></defs><g fill="none" fill-rule="evenodd" transform="translate(0 -1)"><path d="M298.370099,158.093752 L311.759638,169.604886 C319.881595,176.587423 320.805278,188.832036 313.822741,196.953994 C311.395256,199.777599 308.206218,201.842677 304.636602,202.902523 C249.408719,219.300046 203.024267,226.990727 165.483231,225.974516 C127.618629,224.949546 87.7807078,217.825592 45.9694678,204.602655 L45.9694688,204.602652 C38.0707855,202.104668 33.6926534,193.676504 36.1906371,185.777821 C36.938686,183.412472 38.2617213,181.269587 40.0412507,179.541083 L48.437696,171.385393 C55.7829453,164.250758 55.9536821,152.512493 48.8190472,145.167244 C47.79581,144.113801 46.6510368,143.185659 45.4087973,142.402334 L45.4087973,142.402334 C36.8373743,136.99741 34.2704197,125.667342 39.6753437,117.095919 C40.9177576,115.125631 42.5239767,113.409935 44.4081877,112.040491 C71.1740898,92.58705 112.294092,80.2613761 167.768194,75.06347 C232.559968,77.0885751 277.900626,86.785228 303.79017,104.153429 L303.790175,104.153421 C312.207729,109.800402 314.453722,121.201961 308.806741,129.619515 C307.473807,131.606426 305.765238,133.31354 303.777194,134.644782 L299.611771,137.434048 C293.646053,141.428835 292.048297,149.503419 296.043084,155.469138 C296.696623,156.445118 297.479419,157.328024 298.370099,158.093752 Z" fill="#E5EBEF" opacity=".383"></path><path d="M158.010419,201.671884 C197.020475,198.072966 225.145705,194.739598 242.386111,191.671778 C253.090689,189.766967 266.264601,186.77841 281.907847,182.706109 L281.907847,182.706109 C287.787034,181.17562 291.31235,175.168891 289.78186,169.289704 C288.905583,165.923593 286.488871,163.170263 283.264806,161.864904 L259.616422,152.290148 C256.544917,151.046557 255.063099,147.54848 256.30669,144.476975 C256.869805,143.086155 257.933609,141.956806 259.288319,141.311638 L263.736836,139.193073 C266.865323,137.70316 268.19365,133.959206 266.703736,130.830718 C265.862628,129.064578 264.245887,127.791807 262.331648,127.388813 L246.979373,124.156793 L158.010419,201.671884 Z" fill="#D4E1E7"></path><g transform="translate(50.01 47.157)"><path d="M3.52765934,11.2555496 C9.4295647,21.1186925 16.3034084,30.6689264 20.4313953,41.4528248 C20.2650478,40.1817315 20.0886642,38.9119549 19.891239,37.6439851 C18.8438188,30.9224848 17.5420459,24.2500311 16.1741042,17.5857571 C15.477467,14.1926324 14.7406895,10.8118045 13.9850155,7.43126562 C13.5785905,5.61557704 13.1771486,3.79878216 12.7623491,1.98482259 C12.6618756,1.54516665 12.5755483,0.777773009 12.4497604,0 C16.4615083,13.1139143 20.330186,26.2377171 23.1599864,39.6668946 C23.5312185,41.4293309 23.8473506,43.1886357 24.106306,44.9448795 C24.1948913,44.5442377 24.2820231,44.143528 24.3773925,43.7439842 C25.5223823,38.9542823 27.239904,34.2027024 29.2849143,29.724238 C30.2625505,27.5825289 31.3855035,25.4877221 32.7076791,23.5357888 C33.5321631,22.3190625 35.4765527,20.8727191 36.2286865,19.6266141 C32.1152994,27.1420401 30.6300317,36.5453964 28.2549604,44.7160106 C27.6752515,46.7098742 27.0919414,48.7005009 26.5204006,50.6946343 C30.1021087,43.539293 35.6592069,37.6603106 43.3855431,35.1126194 C34.033111,41.2683283 28.4234306,52.0485137 24.6432765,63.0739391 C24.6308205,63.2046944 24.6160111,63.3354513 24.6032092,63.4664136 C25.7155671,61.3634125 27.1167493,59.4612544 29.0157947,58.1290102 C33.0802745,55.2770011 37.5891108,56.1078399 41.5318025,58.5542846 C38.4374531,56.5948672 32.8450617,58.3791051 30.241456,60.3706122 C28.3775566,61.7962218 26.7846435,63.7087853 25.4013689,65.5746774 C25.0699198,66.0219452 24.6177249,66.5438041 24.1400077,67.100625 C23.4702285,71.4315849 22.3787505,75.7328623 20.8334534,80 C21.0884679,78.7751999 20.9040872,76.8163392 20.9748063,75.9034073 C20.9825039,75.8045666 20.9887478,75.705658 20.9963764,75.6070931 C20.7614816,76.5413696 20.5345412,77.4650263 20.3160372,78.3737898 C20.750392,76.6396613 20.9864611,74.8293758 21.170744,73.00038 C21.2182068,72.2143514 21.2644928,71.4283235 21.3134092,70.6423627 C21.2979057,69.1506786 21.2362299,67.6530999 21.1319139,66.1531391 C20.7620278,64.6953405 20.3478875,63.3202805 20.0063482,62.1767495 C18.7738942,58.0505287 16.967157,54.0975042 14.743384,50.4097143 C12.7144341,47.0444137 10.285782,43.9960965 7.48205552,41.2392436 C5.9705935,39.7535132 4.388775,38.3384785 2.82923411,36.903785 C2.26529522,36.3851275 1.25731103,35.109875 0.385543095,34.4451125 C6.73452074,37.9318949 13.2693717,41.7040926 17.9009634,47.3220807 C17.3579624,45.2449271 16.7681857,43.1971677 16.1443067,41.1904416 C12.9792147,31.0092794 8.98280365,20.4574885 3.52765934,11.2555496 Z" fill="#DDE3E9"></path><path d="M9.3855431,68 C9.3855431,79.045695 10.2869224,88 22.3855431,88 C34.4841638,88 35.3855431,79.045695 35.3855431,68" fill="#C5CFD6"></path></g><path d="M153.569763,58.9972736 C140.665505,70.430544 130.636941,78.740148 123.48407,83.9260857 C116.331199,89.1120234 109.239051,93.2151895 102.207626,96.2355842 C79.5621053,110.709743 70.0867694,126.771799 73.7816185,144.421751 C73.9095106,145.032679 74.0453993,143.799076 74.1892848,144.421751 C83.7581509,185.83171 108.757752,196.460965 138.884086,201.798029 C169.010419,207.135093 208.70167,208.776194 235.780365,173.048597 C255.180352,139.056416 254.55603,104.378282 233.9074,69.0141941 L153.569763,58.9972736 Z" fill="url(#relax-a)"></path><g transform="translate(127.905 38.292)"><mask fill="#fff" id="relax-d"><use xlink:href="#relax-b"></use></mask><use fill="url(#relax-c)" xlink:href="#relax-b"></use><path d="M36.4349087,6.51620187 C36.4349087,6.93068965 40.1097333,19.7205711 34.8092798,36.7718268 C33.2190247,41.8875865 28.1885404,49.8936145 19.7178267,60.7899108 L13.5436189,56.6322322 C13.0090935,40.3260318 13.8792085,29.9122299 16.1539641,25.3908264 C23.5254304,10.7389781 36.4349087,6.10535503 36.4349087,6.51620187 Z" fill="#5863D6" mask="url(#relax-d)"></path></g><path d="M52.5480216,165.770141 C33.2392758,177.876492 20.6275817,186.688054 14.7129393,192.204826 C8.79829681,197.721598 3.89398373,205.247764 0,214.783325 L6.57541215,214.783325 C15.4564202,201.452619 32.4188497,189.659078 57.4627007,179.402703 C76.9103884,171.438161 106.842445,164.044779 144.697968,154.38702 C151.960038,152.53431 163.188434,149.212554 178.383158,144.421751 C170.9504,131.87451 164.371771,123.198091 158.647272,118.392495 C152.922773,113.586899 142.675316,108.138175 127.9049,102.046321 L52.5480216,165.770141 Z" fill="#5863D6"></path><path d="M112.488218,110.574159 C77.9838649,128.954775 58.0037994,147.353435 52.5480216,165.770141 C47.0922437,184.186846 55.4054652,204.449484 77.487686,226.558053 L81.7074533,222.918403 C67.5683603,203.067722 64.6966969,187.062477 73.0924632,174.902667 C81.4882295,162.742858 104.016434,146.338326 140.677076,125.689072" fill="#414AAA"></path><path d="M80.7074533,221.918403 L76.487686,225.558053 C85.7623938,234.965701 91.3343758,239.299796 93.203632,238.560338 C95.0728882,237.82088 90.9074954,232.273569 80.7074533,221.918403 Z" fill="#5863D6"></path><use fill="url(#relax-e)" transform="translate(176.176 10.683)" xlink:href="#relax-f"></use><path d="M191.323924,11.7340158 C189.20113,13.127959 187.649533,15.5965931 185.739347,18.7805317 C185.379946,18.6612673 184.999485,18.5972634 184.605737,18.5972634 C182.396598,18.5972634 180.605737,20.6119821 180.605737,23.0972634 C180.605737,24.077057 180.88408,24.9837138 181.356661,25.7226171 C180.490441,26.9654692 179.529745,28.2560951 178.445742,29.5833459 C173.687459,26.6330507 170.210452,17.7466652 175.594716,9.49146393 C180.286153,-3.7055351 199.957044,5.08932556 203.850949,2.58897281 C204.749142,8.26628531 201.78152,12.8235917 191.323924,11.7340158 Z" fill="#191847" transform="scale(-1 1) rotate(6 0 -3579.796)"></path><polygon fill="#E5E6E5" points="127.846 103.15 136.448 99.082 174.752 119.281 152.432 131.697 138.086 108.686"></polygon><polygon fill="#F5F5F4" points="100.01 88.666 113.771 110.764 152.299 131.697 139.086 108.686"></polygon><path d="M222.994375,53.1567927 C217.487427,54.2240608 214.07136,56.1106605 212.746173,58.8165918 C211.420986,61.5225231 211.095991,67.2748869 211.771189,76.0736831 C214.008858,88.5502712 212.698015,96.9616964 207.83866,101.307959 C202.979305,105.654221 191.080329,109.057808 172.141732,111.518718 C182.508686,118.666893 190.541445,122.818499 196.24001,123.973535 C201.938575,125.128571 210.856696,124.412723 222.994375,121.825989 C231.389671,116.737695 236.415776,112.261321 238.072688,108.396866 C241.140954,101.240676 238.072688,89.497863 238.072688,83.6338874 C238.072688,73.0199535 233.046583,62.860922 222.994375,53.1567927 Z" fill="#5863D6"></path><path d="M172.141732,111.518718 L177.952116,116.713447 C171.136833,118.164007 166.80166,118.164007 164.946598,116.713447 C163.091536,115.262887 165.489914,113.531311 172.141732,111.518718 Z" fill="#B28B67"></path><path d="M142.557985,94.6622954 L149.031797,100.450157 C141.438347,102.066341 136.608185,102.066341 134.541313,100.450157 C132.47444,98.8339731 135.146664,96.9046858 142.557985,94.6622954 Z" fill="#B28B67" transform="rotate(-17 141.449 98.162)"></path></g></svg>