<svg viewbox="0 0 209 265"><defs><rect height="18" id="agent-b" rx="5.5" width="11" x="20" y="14"></rect><filter filterunits="objectBoundingBox" height="138.9%" id="agent-a" width="172.7%" x="-18.2%" y="-11.1%"><femorphology in="SourceAlpha" operator="dilate" radius=".5" result="shadowSpreadOuter1"></femorphology><feoffset dx="3" dy="2" in="shadowSpreadOuter1" result="shadowOffsetOuter1"></feoffset><fecolormatrix in="shadowOffsetOuter1" values="0 0 0 0 0.0862745098   0 0 0 0 0.203921569   0 0 0 0 0.270588235  0 0 0 1 0"></fecolormatrix></filter></defs><g fill="none" fill-rule="evenodd" transform="translate(-1)"><g transform="matrix(-1 0 0 1 211 7)"><path d="M6.47365157,27.0038015 C2.86326523,22.7690581 0.419680233,17.5793218 0.82800472,11.7640731 C2.00450127,-4.99127739 25.3457001,-1.30531376 29.8860465,7.15134836 C34.426393,15.6080105 33.8868818,37.0590352 28.0188886,38.5704766 C25.678741,39.1732374 20.6935308,37.6967149 15.61975,34.6407673 L18.8044647,57.1548351 L0,57.1548351 L6.47365157,27.0038015 Z" fill="#FFCDA2" transform="translate(63.922 .602)"></path><g transform="translate(42.637 122.74)"><path d="M127.46801,127.357657 C117.425354,105.151782 110.162002,85.8160761 107.246071,75.6146805 C102.253289,58.1474144 98.4546971,42.7773497 97.4942766,37.0375166 C95.2040307,23.3501484 115.090115,22.5567877 117.719908,29.3594456 C121.700206,39.6555385 128.651822,73.4830762 137.006643,124.577918 L127.46801,127.357657 Z M11.0390337,57.6668008 C20.2429193,54.0281335 52.4747155,42.641588 68.020578,39.4218657 C72.4878355,38.4966467 76.8176398,37.6370507 80.8884219,36.8602474 C92.988227,34.5513132 99.2618008,56.3952794 87.6081,58.0711733 C58.5857792,62.2448117 17.4414077,66.5524716 13.9203723,67.0361152 C8.98549072,67.7139624 5.25467864,59.9535897 11.0390337,57.6668008 Z" fill="#FFCDA2"></path><path d="M88.3388865,30.8580508 L38.5223164,5.5171777 L38.5223164,0 L44.4474353,0 C92.6477368,12.2731961 117.278052,20.1385998 118.33838,23.596211 C118.351176,23.6379353 118.362778,23.6797208 118.373187,23.7215677 C118.393629,23.7485691 118.413776,23.7757084 118.433625,23.8029855 C127.987852,36.9328512 133.720189,101.026378 135.598657,105.82575 L117.295728,108.551264 C110.289404,82.6034688 87.8853715,64.5240671 88.474696,33.4483508 C88.314086,32.5380655 88.273214,31.6747672 88.3388865,30.8580508 Z" fill="#7652DC"></path><path d="M42.6540568,45.9106012 C38.0984666,44.9993716 33.9032248,44.1861183 30.3131526,43.556885 C7.11046853,39.4901415 0.344368416,27.0790608 4.34484808,2.65856487e-14 L47.0953992,-4.97379915e-14 C54.0787747,2.00458298 90.3709553,17.2128736 109.200951,25.3018481 C121.680521,30.6628116 117.724279,50.007678 110.648613,54.998218 C110.608872,55.3010131 110.482303,55.5068762 110.258774,55.5995398 C72.3225938,71.3258884 42.307335,63.0640383 32.2816692,65.6997863 L27.6410889,51.0606716 L42.6540568,45.9106012 Z" fill="#9D7BFF"></path><path d="M1.93090622,6.34251418 C1.16598165,8.45436607 0.783519363,10.0524975 0.783519363,11.1369085 C0.783519363,12.5487787 1.01889971,14.6090485 1.4896604,17.3177179 C3.12873477,17.3177179 17.8593721,17.3177179 45.6815724,17.3177179 C46.8299635,13.5239735 46.1670455,11.475853 43.6928185,11.1733563 C41.2185914,10.8708597 39.163209,10.5977294 37.5266711,10.3539656 L17.1897153,1.29431917 C16.6852247,1.06958017 16.0940672,1.29636371 15.8693282,1.80085437 C15.8655559,1.8093225 15.8619015,1.81784269 15.858366,1.82641245 L14.6229888,4.82092673 C12.3325017,5.88882734 10.4712431,6.42277764 9.03921306,6.42277764 C7.952245,6.42277764 6.47837101,6.01296022 4.6175911,5.1933254 L4.61760117,5.19330255 C3.60673813,4.74803842 2.42631382,5.20654693 1.98104969,6.21740997 C1.96293444,6.25853619 1.94621046,6.30026128 1.93090622,6.34251418 Z" fill="#E4E4E4" transform="rotate(64 -31.434 40.266)"></path><path d="M1.93090622,6.34251418 C1.16598165,8.45436607 0.783519363,10.0524975 0.783519363,11.1369085 C0.783519363,12.5487787 1.01889971,14.6090485 1.4896604,17.3177179 C3.12873477,17.3177179 17.8593721,17.3177179 45.6815724,17.3177179 C46.8299635,13.5239735 46.1670455,11.475853 43.6928185,11.1733563 C41.2185914,10.8708597 39.163209,10.5977294 37.5266711,10.3539656 L17.1897153,1.29431917 C16.6852247,1.06958017 16.0940672,1.29636371 15.8693282,1.80085437 C15.8655559,1.8093225 15.8619015,1.81784269 15.858366,1.82641245 L14.6229888,4.82092673 C12.3325017,5.88882734 10.4712431,6.42277764 9.03921306,6.42277764 C7.952245,6.42277764 6.47837101,6.01296022 4.6175911,5.1933254 L4.61760117,5.19330255 C3.60673813,4.74803842 2.42631382,5.20654693 1.98104969,6.21740997 C1.96293444,6.25853619 1.94621046,6.30026128 1.93090622,6.34251418 Z" fill="#E4E4E4" transform="translate(120.792 117.348)"></path></g><g transform="translate(.656 40.532)"><path d="M125.980531,69.7767091 L148.177251,91.4148942 C154.635452,94.1680014 159.927078,97.2078702 164.052129,100.534501 C164.979815,101.652665 165.989811,103.795077 161.62537,102.836128 C157.26093,101.87718 152.627059,101.064647 151.806873,102.482895 C150.986687,103.901142 153.403839,106.074636 151.887984,107.930729 C150.877414,109.168124 147.47827,105.23179 141.690551,96.1217259 L118.609466,82.5225856 L125.980531,69.7767091 Z M27.4698,72.8274451 L43.8427808,72.8893394 C33.7283319,105.504335 28.2680776,122.809662 27.462018,124.805319 C25.6483839,129.295548 29.4838312,136.133101 31.1239084,139.807614 C25.7800821,142.197849 26.3507592,133.348707 19.6096482,136.483594 C13.4566747,139.344974 8.77567279,144.528634 1.66795196,140.146559 C0.794099454,139.607808 -0.163285164,137.578967 2.15084846,135.993076 C7.91619924,132.042044 16.2246018,125.127293 17.3473987,122.851491 C18.8785328,119.748027 22.2526666,103.073345 27.4698,72.8274451 Z" fill="#FFCDA2"></path><path d="M69.5483757,7.22812914 L76.1964995,5.48124979 C90.3564441,33.4723809 112.951849,58.0553004 143.982715,79.2300083 L124.428268,107.705586 C92.5210302,76.4823731 71.6259402,43.2173474 69.5483757,7.22812914 Z" fill="#191847" transform="rotate(5 106.766 56.593)"></path><path d="M44.4608768,89.2554959 L104.791868,89.2554959 C90.8145636,55.2954606 83.8259115,26.4468134 83.8259115,2.70955438 L65.6270318,0 C51.3244225,22.9859575 47.285328,51.2863253 44.4608768,89.2554959 Z" fill="#DDE3E9"></path><path d="M65.241718,0.012855819 C65.2441074,0.00856980092 65.2464965,0.00428452787 65.2488855,-2.28279718e-14 L66.4368336,-4.26339924e-14 C67.8583164,0.0489129009 70.023417,0.137039204 72.9321356,0.264378909 L77.329638,12.8221627 C77.7947962,28.1330371 80.5112497,58.9885801 85.4789983,105.388792 L45.930823,105.388792 C46.0344982,108.593463 46.2054421,111.82807 46.4436546,115.092613 L17.0376991,115.092613 C21.4363113,65.50411 37.4994932,27.1399056 65.2272447,1.42108547e-14 L65.241718,0.012855814 Z" fill="#2F3676"></path><path d="M48.5431929,64.3838266 C49.6687288,84.3604522 52.4867267,98.1316093 56.9971866,105.697298 L45.9410083,105.697298 C45.4569728,91.3247003 46.3243678,77.5535592 48.543192,64.3838321 Z" fill="#000" fill-opacity=".1"></path><polygon fill="#FFF" fill-opacity=".2" points="54.734 81.426 74.235 72.367 74.235 81.426"></polygon></g></g><path d="M173.963978,13.1517392 C173.509714,11.8832688 172.82226,10.7395825 172.065736,9.66170529 C170.641442,7.63238033 168.932826,5.7998499 167.046348,4.27890026 C163.600463,1.50074363 159.214017,-0.101708046 154.900486,0.418690098 C152.72258,0.68142029 150.608388,1.50251542 148.808919,2.86919333 C147.183118,4.10399991 145.619285,5.9217233 143.514061,6.05232906 C141.223404,6.19432485 139.123655,4.1960061 137.286563,2.96183229 C135.215235,1.57047597 133.011704,0.556636104 130.590824,0.162540817 C126.535293,-0.497448561 122.725413,0.856826863 119.930407,4.14551027 C116.95614,7.64516248 114.794075,12.7773867 116.747295,17.4143974 C117.110357,18.2763701 117.577434,19.0030545 118.247765,19.6053343 C118.862536,20.1576246 119.801465,20.7452239 120.050728,21.6276987 C120.315483,22.5657316 119.524597,23.7758597 119.21791,24.6222661 C118.778555,25.8349253 118.417823,27.1078253 118.546065,28.4259057 C118.756774,30.590519 120.133078,32.6569249 121.586375,34.0796671 C123.065296,35.5274673 124.885498,36.3576745 126.829633,36.7403797 C128.12778,36.9958962 129.454465,37.1368796 130.773811,37.0409502 C131.428767,36.9933651 132.006731,36.8135291 132.641303,36.6705209 C133.258404,36.5314358 133.603295,36.6934275 134.126864,37.0279149 C136.559042,38.5820222 139.174206,39.1832896 141.982608,38.9521984 C144.352819,38.7570491 147.084695,38.189319 149.01823,36.5842097 C151.165502,34.8015423 151.122755,32.3433192 150.617473,29.7169031 C151.152806,29.9791271 152.633824,30.1414984 151.748824,29.0962727 C151.398225,28.6823081 150.735815,28.5138621 150.285976,28.2703684 C149.762175,27.986883 149.230336,27.6205035 148.823595,27.158068 C147.181255,25.2908612 148.840018,21.4908917 150.904242,20.8646928 C153.971108,19.9343798 154.657746,24.2212102 156.847067,25.3300936 C158.105845,25.9676826 159.422629,25.0962182 160.365751,24.2064031 C161.629072,23.0143725 162.490078,21.4352071 163.23344,19.8281994 C163.845765,18.5048036 164.415576,17.1628041 165.039665,15.8459893 C165.331093,15.2310538 166.340026,13.492681 165.833346,12.7973825 C168.030005,12.3644346 170.476626,13.2666521 172.368462,14.4498238 C173.150379,14.9389626 173.746513,15.4782176 174.163621,16.341709 C174.25296,16.5267338 174.447478,17.0767461 174.691733,17.099273 C175.146463,17.1412896 174.976521,16.5920367 174.931677,16.3306986 C174.753,15.2906617 174.316324,14.1357119 173.963978,13.1517392 Z" fill="#262C33" transform="matrix(-1 0 0 1 291 0)"></path><g fill-rule="nonzero" transform="translate(111 1)"><path d="M2.5,44.5 L24.5,26.5" stroke="#50767F" stroke-linecap="square" stroke-width="2"></path><use fill="#000" filter="url(#agent-a)" xlink:href="#agent-b"></use><use fill="#50767F" xlink:href="#agent-b"></use><path d="M24,17 L24.4539036,10.7922123 C24.746249,6.79396764 26.3434283,3.00234132 29,1.77635684e-15 L29,0" stroke="#50767F" stroke-width="2"></path><rect fill="#163445" height="8" rx="2.5" transform="rotate(42 5.5 42)" width="5" x="3" y="38"></rect></g></g></svg>