<svg height="113" viewbox="0 0 245 113" width="245"><defs><lineargradient id="deflecttickets-a" x1="3.139%" y1="50%" y2="50%"><stop offset="0%" stop-color="#49D5B1" stop-opacity="0"></stop><stop offset="100%" stop-color="#7BDFC8"></stop></lineargradient></defs><g fill="none" fill-rule="evenodd"><g fill-rule="nonzero" opacity=".911" transform="translate(65 27)"><path d="M65,28.1514763 L65,35.3530167 L0,35.3530167 L0,28.0704344 C4.9807816,27.4260954 8.83495146,23.0182413 8.83495146,17.6765083 C8.83495146,12.3347753 4.9807816,7.92692128 -1.66533454e-16,7.28258232 L0,0 L65,0 L65,7.20154044 C59.4235326,7.20154044 54.9029126,11.8913433 54.9029126,17.6765083 C54.9029126,23.4616734 59.4235326,28.1514763 65,28.1514763 Z" fill="#37D1A9"></path><path d="M20.8684211 13.5173299L36.6052632 13.5173299M20.5263158 20.7958922L44.4736842 20.7958922" stroke="#FFF" stroke-linecap="square" stroke-width="2"></path></g><g fill-rule="nonzero" opacity=".715" transform="translate(0 34)"><path d="M55,23.4595635 L55,29.4608472 L0,29.4608472 L0,23.3920286 C4.21450751,22.8550795 7.47572816,19.1818678 7.47572816,14.7304236 C7.47572816,10.2789795 4.21450751,6.60576774 5.55111512e-17,6.0688186 L0,0 L55,0 L55,6.0012837 C50.2814507,6.0012837 46.4563107,9.90945276 46.4563107,14.7304236 C46.4563107,19.5513945 50.2814507,23.4595635 55,23.4595635 Z" fill="#49D5B1"></path><path d="M17.6578947 11.2644416L30.9736842 11.2644416M17.3684211 17.3299101L37.6315789 17.3299101" stroke="#FFF" stroke-linecap="square" stroke-width="2"></path></g><g fill-rule="nonzero" opacity=".715" transform="translate(54 72)"><path d="M75,32.0614035 L75,40.2631579 L0,40.2631579 L0,31.9691058 C5.74705569,31.2352753 10.1941748,26.2152193 10.1941748,20.1315789 C10.1941748,14.0479386 5.74705569,9.02788257 5.55111512e-17,8.29405209 L0,0 L75,0 L75,8.20175439 C68.5656146,8.20175439 63.3495146,13.5429188 63.3495146,20.1315789 C63.3495146,26.7202391 68.5656146,32.0614035 75,32.0614035 Z" fill="#49D5B1"></path><path d="M24.0789474 15.3947368L42.2368421 15.3947368M23.6842105 23.6842105L51.3157895 23.6842105" stroke="#FFF" stroke-linecap="square" stroke-width="2"></path></g><g fill-rule="nonzero" opacity=".715" transform="translate(149 39)"><path d="M80,34.4073599 L80,43.2092426 L0,43.2092426 L0,34.3083087 C6.13019274,33.5207833 10.8737864,28.1334061 10.8737864,21.6046213 C10.8737864,15.0758365 6.13019274,9.68845935 -1.11022302e-16,8.90093395 L0,0 L80,0 L80,8.80188276 C73.1366555,8.80188276 67.5728155,14.5338641 67.5728155,21.6046213 C67.5728155,28.6753786 73.1366555,34.4073599 80,34.4073599 Z" fill="#687BEA"></path><path d="M25.4166667 16.5L44.5833333 16.5M25 26L54 26" stroke="#FFF" stroke-linecap="square" stroke-width="2"></path></g><g fill-rule="nonzero" transform="translate(213 25)"><circle cx="16" cy="16" fill="#37D1A9" r="16"></circle><polyline points="11 19.127 15.469 22 23 11" stroke="#FFF" stroke-linecap="round" stroke-width="2"></polyline></g><rect fill="#191847" fill-rule="nonzero" height="113" width="2" x="138"></rect><rect fill="url(#deflecttickets-a)" fill-rule="nonzero" height="113" opacity=".45" width="71" x="68"></rect></g></svg>