<svg height="30" viewbox="0 0 20 30" width="20"><defs><lineargradient id="workflowicon-a" x1="34.44%" x2="74.063%" y1="23.691%" y2="100%"><stop offset="0%" stop-color="#8184FA"></stop><stop offset="100%" stop-color="#5373DE"></stop></lineargradient><path d="M17.6615223,17.9868493 L10.2810468,17.3326027 L10.2690822,9.04109589 C10.2690822,8.46082192 9.76827639,7.39726027 8.55301051,7.39726027 C7.60951295,7.39726027 6.83693886,8.13369863 6.83693886,9.04109589 L6.83693886,23.0054795 L5.41314634,21.0460274 C4.80978649,20.2208219 3.58255596,20.1172603 2.84074809,20.8306849 C2.264736,21.3863014 2.18440196,22.2591781 2.64931381,22.9035616 L6.33955155,29.4953425 C6.65917845,29.9408219 7.18562274,30 7.74796096,30 L16.0121108,30 C17.6427207,30 19.0460024,29.0991781 19.3656293,27.5638356 L19.9330952,21.6476712 C20.2715237,20.0219178 19.2972599,18.5112329 17.6615223,17.9868493 M1.70923471,12.3287671 C0.765737152,12.3287671 0,11.5939726 0,10.6849315 L0,8.63013699 C0,-2.87671233 17.0923471,-2.87671233 17.0923471,8.63013699 L17.0923471,10.6849315 C17.0923471,11.5939726 16.32661,12.3287671 15.3831124,12.3287671 C14.4396149,12.3287671 13.6738777,11.5939726 13.6738777,10.6849315 L13.6738777,8.63013699 C13.6738777,2.05479452 3.41846943,2.05479452 3.41846943,8.63013699 L3.41846943,10.6849315 C3.41846943,11.5939726 2.65273228,12.3287671 1.70923471,12.3287671" id="workflowicon-b"></path></defs><use fill="url(#workflowicon-a)" xlink:href="#workflowicon-b"></use></svg>