<svg data-name="Layer 1" id="Layer_1" viewbox="0 0 350 112.35" xmlns="http://www.w3.org/2000/svg">
<defs>
<style>
                                        .color-7 {
                                            fill: #2bdbdc;
                                            isolation: isolate;
                                        }
                                        .cls-1 {
                                            opacity: 0.1;
                                        }
                                        .cls-2 {
                                            opacity: 0.2;
                                        }
                                        .cls-3 {
                                            opacity: 0.4;
                                        }
                                        .cls-4 {
                                            opacity: 0.6;
                                        }
                                    </style>
</defs>
<title>bottom-part1</title>
<g id="bottom-part">
<g data-name="Group 747" id="Group_747">
<path class="cls-1 color-7" d="M0,24.21c120-55.74,214.32,2.57,267,0S349.18,7.4,349.18,7.4V82.35H0Z" data-name="Path 294" id="Path_294" transform="translate(0 0)"></path>
<path class="cls-2 color-7" d="M350,34.21c-120-55.74-214.32,2.57-267,0S.82,17.4.82,17.4V92.35H350Z" data-name="Path 297" id="Path_297" transform="translate(0 0)"></path>
<path class="cls-3 color-7" d="M0,44.21c120-55.74,214.32,2.57,267,0S349.18,27.4,349.18,27.4v74.95H0Z" data-name="Path 296" id="Path_296" transform="translate(0 0)"></path>
<path class="cls-4 color-7" d="M349.17,54.21c-120-55.74-214.32,2.57-267,0S0,37.4,0,37.4v74.95H349.17Z" data-name="Path 295" id="Path_295" transform="translate(0 0)"></path>
</g>
</g>
</svg>