<svg class="pinterest icon" data-v-7f041162="" fill="#BDBDBD" height="40" viewbox="0 0 40 40" width="40" xmlns="http://www.w3.org/2000/svg"><path d="M0,19.9989 C0,31.0437 8.95264,40 20,40 C31.0454,40 40,31.0437 40,19.9989 C40,8.9541 31.0454,0 20,0 C8.95264,0 0,8.9541 0,19.9989 Z M13.3696,36.8771 C6.62793,34.2357 1.85059,27.6766 1.85059,19.9991 C1.85059,9.98682 9.96533,1.87463 19.9761,1.87463 C29.9868,1.87463 38.1016,9.98682 38.1016,19.9991 C38.1016,30.0094 29.9868,38.1238 19.9761,38.1238 C18.106,38.1238 16.3042,37.8409 14.6099,37.314 C15.3467,36.1101 16.4521,34.1372 16.8613,32.5627 C17.082,31.7145 17.9902,28.255 17.9902,28.255 C18.5815,29.3817 20.3081,30.3372 22.146,30.3372 C27.6108,30.3372 31.5508,25.3096 31.5508,19.0631 C31.5508,13.0758 26.6641,8.59448 20.3765,8.59448 C12.5552,8.59448 8.40137,13.847 8.40137,19.5643 C8.40137,22.2206 9.81543,25.5323 12.0776,26.5862 C12.4224,26.7448 12.6069,26.6741 12.686,26.342 L12.8516,25.6682 C12.9653,25.2057 13.1074,24.6292 13.1895,24.2877 C13.2324,24.1035 13.2109,23.9471 13.063,23.7672 C12.3135,22.8589 11.7158,21.1881 11.7158,19.6307 C11.7158,15.6335 14.7427,11.7649 19.8989,11.7649 C24.3525,11.7649 27.4697,14.7981 27.4697,19.1381 C27.4697,24.0414 24.9932,27.4388 21.7715,27.4388 C19.9932,27.4388 18.6606,25.9694 19.0869,24.1635 C19.272,23.3851 19.519,22.5848 19.7598,21.8065 C20.1851,20.4301 20.5889,19.1227 20.5889,18.1292 C20.5889,16.7367 19.8413,15.5757 18.2964,15.5757 C16.4756,15.5757 15.0166,17.4564 15.0166,19.9778 C15.0166,21.5823 15.5586,22.6683 15.5586,22.6683 C15.5586,22.6683 13.7612,30.2621 13.4336,31.6759 C13.0693,33.244 13.2109,35.444 13.3696,36.8771 Z" data-v-7f041162=""></path></svg>