<svg height="122" width="122"><defs><path d="M82.382 22.87c-.405 0-.795.03-1.165.086l16.837 16.792c.51-3.308-1.275-7.887-5.102-11.704-3.172-3.39-7.351-5.173-10.57-5.173zm-5.247 3.394l-2.296 2.29 17.858 17.809 2.296-2.29-17.858-17.81zm-4.082 3.816l-2.296 2.29 17.858 17.81 2.296-2.29-17.858-17.81zm-6.123 6.106L36.062 66.97l3.316 3.307 30.869-30.785-3.317-3.307zm5.103 5.088L41.163 72.06l3.828 3.817 4.081 4.07 30.87-30.785-7.91-7.887zm9.439 9.414L50.603 81.473l3.316 3.307 30.87-30.785-3.317-3.307zM33.766 72.059l-4.337 15.775 3.826 3.816 15.817-4.325-7.653-7.633-7.653-7.633zm48.84-54.327c1.013 0 2.082.127 3.203.39 3.826 1.018 7.653 3.053 10.97 6.36 6.888 7.124 8.673 16.284 3.826 21.626l-9.95 9.923L55.96 90.632c-.255.255-.51.509-.765.509h-.51l-29.338 7.887h-.766c-.765 0-1.275-.254-1.785-.763-.766-.763-1.02-1.781-.766-2.544l8.164-29.259c.255-.763.255-1.018.51-1.272l34.44-34.601 10.205-9.923c1.892-1.887 4.345-2.934 7.256-2.934zM0 0v122h122V0H0z" id="prefix__a_design" opacity="1"></path></defs><use fill="#FFDFD7" xlink:href="#prefix__a_design"></use></svg>