<svg height="122" width="122"><defs><path d="M61 21.36a30.021 30.021 0 0 0-25.11 13.543c6.207-5.643 15.235-9.31 25.11-9.31 10.157 0 19.185 3.667 25.11 9.31A30.021 30.021 0 0 0 61 21.36zM38.712 62.27c-4.515 1.128-7.618 5.36-7.618 10.156 0 4.797 3.103 8.746 7.618 9.875V62.27zm44.859 0V82.3c4.514-1.128 7.617-5.36 7.617-10.156s-3.103-8.746-7.617-9.874zm-37.242-5.36c.847 0 1.41.563 1.41 1.41v27.93c0 .847-.563 1.411-1.41 1.411-.846 0-1.41-.564-1.41-1.41V58.32c0-.847.564-1.41 1.41-1.41zm29.342 0c.846 0 1.41.563 1.41 1.41v27.93c0 .847-.564 1.411-1.41 1.411-.847 0-1.41-.564-1.41-1.41V58.32c0-.847.563-1.41 1.41-1.41zM62.41 99.51c-1.129 0-1.975.846-1.975 1.975 0 1.128.846 1.975 1.975 1.975h8.464c1.128 0 2.257-.847 1.975-1.975 0-1.129-.847-1.975-1.975-1.975H62.41zM61 16c19.467 0 35.549 15.8 35.266 34.984v20.878c0 5.078-2.257 9.31-5.642 12.132v7.617c0 6.207-5.079 11.003-11.003 11.003h-4.232c-.565 1.975-2.257 3.386-4.514 3.386H62.41c-2.54 0-4.797-2.257-4.797-4.796 0-2.54 2.257-4.796 4.797-4.796h8.464c1.975 0 3.95 1.41 4.514 3.385h4.232c4.514 0 8.182-3.668 8.182-8.182V85.97c-2.258 1.128-4.515 1.692-7.054 1.692a2.529 2.529 0 0 1-2.539-2.539V59.166c0-1.41 1.129-2.539 2.54-2.539 3.95 0 7.617 1.41 10.438 3.95v-9.31c0-2.54-.282-4.797-.846-7.054C85.828 34.903 74.26 28.132 61 28.132c-13.26 0-24.828 6.77-29.342 16.081-.564 2.257-.846 4.514-.846 7.053v9.31c2.821-2.538 6.489-3.949 10.439-3.949 1.41 0 2.539 1.128 2.539 2.54v25.955c0 1.41-1.129 2.54-2.54 2.54-8.463 0-15.516-7.054-15.516-15.518V51.266C25.734 31.8 41.533 16 61 16zM0 0v122h122V0H0z" id="prefix__a_cust_serv" opacity="1"></path></defs><use fill="#FFDFD7" xlink:href="#prefix__a_cust_serv"></use></svg>