<svg height="122" width="122"><defs><path d="M61.4 30.68l-29.696 6.532 12.278 2.84 29.125-6.532L61.4 30.68zm17.989 4.26l-29.125 6.816L61.4 44.028l29.41-6.532L79.39 34.94zM35.13 44.028v15.62l3.14 2.272 3.998-1.136c.19-.095.35-.126.487-.126.275 0 .465.126.655.126l1.714.568V46.3l-9.994-2.272zm44.829 21.3c.856 0 1.427.284 1.713 1.136 0 .852-.286 1.42-1.142 1.704l-5.425 1.136h-.286c-.856 0-1.428-.568-1.428-1.136 0-.852.286-1.42 1.143-1.704l5.425-1.136zm.736 5.606c.682 0 1.262.509 1.262 1.21 0 .852-.285 1.42-1.142 1.704l-5.71 1.136h-.286c-.57 0-1.142-.568-1.428-1.136 0-.852.286-1.42 1.143-1.704l5.71-1.136a1.43 1.43 0 0 1 .45-.074zm3.261-9.866l-13.134 2.84v14.484l13.134-2.84V61.068zM85.1 57.66c.286 0 .857 0 1.143.284.285.284.57.568.57 1.136v17.324c0 .568-.57 1.136-1.142 1.42l-15.99 3.692h-.285c-.286 0-.571 0-.857-.284-.285-.284-.57-.568-.57-1.136V62.772c0-.568.57-1.136 1.141-1.42L85.1 57.66zM21.711 40.904v40.044l36.834 8.236V49.14L47.98 46.868v17.04c0 .568 0 .852-.571 1.136-.286.142-.5.213-.714.213-.214 0-.428-.071-.714-.213l-3.14-1.42-4.284 1.42h-.57c-.286 0-.572 0-.857-.284l-4.283-3.408c-.286-.284-.572-.568-.572-1.136v-17.04l-10.564-2.272zm79.378.284l-36.834 8.236v39.76l36.834-8.236v-39.76zM61.971 25l41.974 9.656c.57.284.856.284 1.142.568.285 0 .285.284.285.284.245 0 .7.626.645.626-.01 0-.033-.017-.073-.058.57.568.856 1.136.57 1.136l.286 46.008c0 1.42-.857 2.556-2.284 2.84L61.97 96H60.83l-42.545-9.656C16.857 86.06 16 84.924 16 83.504c.157-26.08.158-47.145 0-47.144.001 0 .571-.852.857-.852.285 0 .285-.284.285-.284.286-.284.857-.568 1.142-.568L60.83 25h1.142zM0 0v122h122V0H0z" id="prefix__a__fulfill" opacity="1"></path></defs><use fill="#FFDFD7" xlink:href="#prefix__a__fulfill"></use></svg>