<svg height="122" width="122"><defs><path d="M33.802 29.89l4.286 32.967 60.989-8.242V29.89H33.802zM37.758 20c1.978 0 3.297 1.319 3.297 3.297h61.319c1.978 0 3.296 1.318 3.626 3.296v30.66c0 1.648-1.319 2.967-2.967 3.296L36.11 69.78c.66 1.978 2.637 2.967 4.615 2.967h60.33c1.978 0 3.297 1.319 3.297 3.297 0 1.978-1.319 3.297-3.297 3.297h-60.33a11.819 11.819 0 0 1-11.868-11.868c0-2.638.66-5.275 2.308-7.253l-4.286-33.297v-.33h-7.582c-1.978 0-3.297-1.318-3.297-3.296C16 21.319 17.319 20 19.297 20h18.461zm4.616 67.253c-2.308 0-3.956 1.648-3.956 3.956 0 2.307 1.648 3.956 3.956 3.956 2.307 0 3.956-1.649 3.956-3.956 0-2.308-1.649-3.956-3.956-3.956zm52.747 0c-2.308 0-3.956 1.648-3.956 3.956 0 2.307 1.648 3.956 3.956 3.956s3.956-1.649 3.956-3.956c0-2.308-1.648-3.956-3.956-3.956zm-52.747-6.594c5.934 0 10.55 4.945 10.55 10.55 0 5.934-4.616 10.55-10.55 10.55-5.934 0-10.55-4.616-10.55-10.55 0-5.934 4.616-10.55 10.55-10.55zm52.747 0c5.934 0 10.55 4.945 10.55 10.55 0 5.934-4.616 10.55-10.55 10.55-5.934 0-10.55-4.616-10.55-10.55 0-5.934 4.616-10.55 10.55-10.55zM0 0v122h122V0H0z" id="prefix__a__store" opacity="1"></path></defs><use fill="#FFDFD7" xlink:href="#prefix__a__store"></use></svg>