<svg height="122" width="122"><defs><path d="M84.289 19.103l-23.7 11.568c5.361.846 10.44 2.821 15.236 5.925l12.978-12.978-4.514-4.515zM55.68 39.015c3.022 0 6.028.501 8.858 1.53.565.283 1.129 1.129.847 1.693-.23.461-.649.922-1.255.922a1.38 1.38 0 0 1-.438-.075 23.761 23.761 0 0 0-7.86-1.321c-3.256 0-6.53.644-9.632 1.885h-.564c-.565 0-1.129-.282-1.411-.846-.282-.565 0-1.411.846-1.693a28.115 28.115 0 0 1 10.609-2.095zm-.154-2.845c-5.295 0-10.574 1.342-15.25 4.093v2.822l14.67 14.106 16.646-16.646a31.764 31.764 0 0 0-16.066-4.375zm42.868-2.96l-7.617 7.9-5.36 5.36c3.103 4.514 5.078 9.875 5.924 15.235l11.567-23.98-4.514-4.515zm-62.069 9.875l-4.514 4.514 15.8 15.8.846-1.694-5.925-5.924a1.364 1.364 0 0 1 0-1.975c.282-.282.635-.424.988-.424.352 0 .705.142.987.424l5.925 5.924 1.693-.846-15.8-15.8zm45.706-8.746L58.05 58.319c1.411.283 2.54.847 3.668 1.976.847 1.128 1.693 2.257 1.975 3.667l23.981-23.98-5.642-5.643zm-1.795 22.746c.49 0 1.019.318 1.23.953.847 1.975 1.129 4.232 1.411 6.489 0 .564-.564 1.41-1.41 1.41-.847 0-1.411-.564-1.411-1.41 0-1.975-.565-3.95-1.129-5.925-.244-.733-.065-1.466.537-1.466.093 0 .196.017.31.055.14-.07.3-.106.462-.106zm20.98 8.288l-2.257 1.41 1.692 1.693 1.129-2.539-.564-.564zm-61.505.564a2.823 2.823 0 0 1 2.821 2.822 2.823 2.823 0 0 1-2.821 2.82 2.823 2.823 0 0 1-2.821-2.82 2.823 2.823 0 0 1 2.82-2.822zm15.517-5.078c-1.41 0-2.821.564-3.95 1.693-2.257 2.257-2.257 5.642-.282 8.182a5.767 5.767 0 0 0 4.091 1.692 5.767 5.767 0 0 0 4.09-1.692 5.79 5.79 0 0 0 0-8.182c-1.128-1.129-2.538-1.693-3.949-1.693zM81.185 50.42l-15.8 15.517 19.75 6.49c1.693-7.618.282-15.518-3.95-22.007zM32.941 72.426a2.823 2.823 0 0 1 2.821 2.822 2.823 2.823 0 0 1-2.821 2.821 2.823 2.823 0 0 1-2.822-2.821 2.823 2.823 0 0 1 2.822-2.822zm63.197-4.514l-7.617 7.618c-.282.282-.565.282-.847.282h-.282l-23.417-7.618c-.282 1.129-.846 2.257-1.693 3.386l26.803 8.746 9.592-9.875-2.539-2.539zM76.953 79.48l1.975 1.975h3.104l.282-.283-5.36-1.692zm-23.417.282a2.823 2.823 0 0 1 2.822 2.821 2.823 2.823 0 0 1-2.822 2.821 2.823 2.823 0 0 1-2.821-2.82 2.823 2.823 0 0 1 2.821-2.822zm-14.67.846a2.823 2.823 0 0 1 2.82 2.821 2.823 2.823 0 0 1-2.82 2.822 2.823 2.823 0 0 1-2.822-2.822 2.823 2.823 0 0 1 2.821-2.82zM59.46 74.12c-.282 0-.564.282-.846.282l15.8 15.8 4.795-4.514-7.9-7.9-3.667-1.129.846.847c.565.564.565 1.41 0 1.975-.282.282-.564.282-1.128.282s-.847 0-1.129-.282l-4.796-4.797-1.975-.564zM47.047 86.251a2.823 2.823 0 0 1 2.822 2.821 2.823 2.823 0 0 1-2.822 2.821 2.823 2.823 0 0 1-2.821-2.82 2.823 2.823 0 0 1 2.821-2.822zM28.71 51.266c-6.49 11.85-4.514 27.085 5.078 36.678 5.978 5.977 13.817 9.06 21.576 9.06 5.059 0 10.083-1.31 14.537-3.982v-3.104L54.947 74.966c-1.975 0-4.232-.847-5.925-2.54-1.693-1.692-2.539-3.95-2.539-6.207L31.53 51.266h-2.821zm-9.875 20.878c.282 8.182 3.386 15.8 9.31 21.724 5.925 5.925 13.543 9.029 21.725 9.31v-.846a35.978 35.978 0 0 1-20.032-10.156c-5.36-5.643-8.746-12.696-10.156-20.032h-.847zM84.007 16c.564 0 1.128 0 1.41.282l6.207 6.207c.564.564.564 1.41 0 1.975l-7.9 7.9 5.643 5.642 7.9-7.9c.282-.282.635-.423.987-.423.353 0 .706.141.988.424l6.207 6.206c.564.565.564 1.129.282 1.693L91.624 67.912v1.41l3.95-3.949c0-.156.126-.282.282-.282l5.078-2.54c.234-.116.516-.185.787-.185.382 0 .741.137.906.468l.847.846.846 1.129c.564.564.564 1.128.282 1.693l-2.539 5.078a.282.282 0 0 0-.282.282L90.496 83.147c-.283.282-.565.282-.847.282h-.564l-1.41-.564c-.565 1.129-1.13 2.257-1.694 3.104l-.846 1.41-3.668-.282-5.36 5.36.282 3.668-1.41.847c-5.932 3.707-12.73 5.466-19.444 5.466-.951 0-1.9-.036-2.845-.106v1.975c0 .564 0 .847-.282 1.129-.282.282-.847.564-1.129.564-9.874 0-18.62-3.668-25.11-10.157-6.77-6.77-10.438-15.517-10.156-25.11 0-.846.564-1.41 1.41-1.41h1.975c-.564-7.618 1.411-15.517 5.643-22.289l.846-1.41h3.668l5.078-5.079v-3.667l1.129-.847c5.643-3.667 12.132-5.36 18.62-5.642L84.008 16zM0 0v122h122V0H0z" id="prefix__a__manu" opacity="1"></path></defs><use fill="#FFDFD7" xlink:href="#prefix__a__manu"></use></svg>