<svg height="122" width="122"><defs><path d="M60.817 23.63L32.87 35.397l27.947 13.238 28.315-13.238L60.817 23.63zM42.063 47.9l-9.193 4.045 27.947 13.238 28.315-13.238L79.57 47.9l-17.283 8.09c-.368.368-1.103.368-1.47.368-.369 0-1.104 0-1.472-.368L42.063 47.9zm0 16.547l-9.56 4.045L60.817 81.73l28.315-13.238-9.561-4.045-17.283 8.09c-.368.368-1.103.368-1.47.368-.369 0-1.104 0-1.472-.368l-17.283-8.09zm0 16.548l-9.56 4.045 28.314 13.238L89.132 85.04l-9.561-4.045-17.283 8.09c-.368.368-1.103.368-1.47.368-.369 0-1.104 0-1.472-.368l-17.283-8.09zM60.955 16c.506 0 .965.092 1.333.276l37.14 15.812c1.47.735 2.206 1.838 2.206 3.31 0 1.47-.735 2.573-2.206 3.309l-11.032 5.148 11.032 4.78c1.47.736 2.206 1.839 2.206 3.31 0 1.47-.735 2.574-2.206 3.31l-11.032 5.147 11.032 4.78c1.47.736 2.206 1.84 2.206 3.31 0 1.471-.735 2.574-2.206 3.31L88.396 76.95l11.032 4.78c1.47.736 2.206 1.839 2.206 3.31 0 1.47-.735 2.574-2.206 3.31l-37.14 17.282c-.368.368-1.103.368-1.47.368-.369 0-1.104 0-1.472-.368L22.206 88.35C20.736 87.982 20 86.511 20 85.04c0-1.47.735-2.94 2.206-3.309l11.032-4.78-11.032-5.148c-1.47-.368-2.206-1.839-2.206-3.31 0-1.47.735-2.941 2.206-3.31l11.032-4.78-11.032-5.148c-1.47-.367-2.206-1.838-2.206-3.31 0-1.47.735-2.94 2.206-3.309l11.032-4.78-11.032-5.148C20.736 37.97 20 36.868 20 35.397c0-1.47.735-2.941 2.206-3.31l37.14-15.811a5.146 5.146 0 0 1 1.61-.276zM0 0v122h122V0H0z" id="prefix__a_management" opacity="1"></path></defs><use fill="#FFDFD7" xlink:href="#prefix__a_management"></use></svg>