<svg viewbox="0 0 263 93" xmlns="http://www.w3.org/2000/svg"><g fill="none" fill-rule="evenodd"><path d="M11.083 0h242.544c3.535 0 4.817.368 6.11 1.06a7.207 7.207 0 0 1 2.998 2.998c.691 1.292 1.06 2.574 1.06 6.11v66.91c0 3.536-.369 4.818-1.06 6.11a7.207 7.207 0 0 1-2.998 2.998c-1.293.692-2.575 1.06-6.11 1.06H11.083c-3.536 0-4.818-.368-6.11-1.06a7.207 7.207 0 0 1-2.999-2.998c-.69-1.292-1.059-2.574-1.059-6.11v-66.91c0-3.536.368-4.818 1.06-6.11a7.207 7.207 0 0 1 2.998-2.999C6.265.37 7.547 0 11.083 0z" fill="#FFF"></path><path d="M59.821 41.49c-.052-5.693 4.775-8.462 4.996-8.591-2.734-3.892-6.972-4.423-8.46-4.466-3.56-.366-7.012 2.08-8.825 2.08-1.849 0-4.64-2.045-7.65-1.984-3.871.058-7.494 2.246-9.48 5.645-4.1 6.93-1.042 17.114 2.886 22.715 1.964 2.745 4.26 5.806 7.266 5.699 2.94-.117 4.038-1.829 7.586-1.829 3.516 0 4.547 1.829 7.612 1.76 3.155-.048 5.142-2.756 7.038-5.524 2.27-3.143 3.183-6.241 3.219-6.4-.072-.025-6.126-2.282-6.188-9.104zm-5.79-16.742c1.582-1.93 2.664-4.557 2.363-7.223-2.289.1-5.15 1.546-6.8 3.434-1.457 1.664-2.76 4.392-2.424 6.957 2.571.187 5.211-1.267 6.861-3.168zm45.47-6.348h4.036c1.304 0 2.444.265 3.419.794a5.478 5.478 0 0 1 2.247 2.23c.523.957.785 2.053.785 3.286 0 1.234-.262 2.33-.785 3.287a5.478 5.478 0 0 1-2.247 2.23c-.975.529-2.115.793-3.42.793H99.5V18.4zm4 10.734c1.41 0 2.512-.39 3.305-1.172.793-.781 1.19-1.865 1.19-3.252 0-1.374-.397-2.455-1.19-3.243-.793-.787-1.895-1.18-3.305-1.18h-2.027v8.847h2.027zm12.373 2.168c-.904 0-1.715-.208-2.432-.625a4.4 4.4 0 0 1-1.674-1.719c-.4-.728-.6-1.54-.6-2.432 0-.893.2-1.704.6-2.433a4.4 4.4 0 0 1 1.674-1.718c.717-.417 1.528-.626 2.432-.626.905 0 1.716.212 2.433.635a4.462 4.462 0 0 1 1.674 1.727c.4.729.6 1.533.6 2.415 0 .893-.2 1.704-.6 2.432a4.4 4.4 0 0 1-1.674 1.719c-.717.417-1.528.625-2.433.625zm0-1.78c.494 0 .952-.12 1.375-.361.423-.241.761-.588 1.014-1.04.252-.453.379-.984.379-1.595s-.127-1.14-.38-1.587a2.672 2.672 0 0 0-1.013-1.03 2.732 2.732 0 0 0-1.375-.362c-.493 0-.951.12-1.374.361-.423.241-.761.585-1.014 1.031-.252.447-.379.976-.379 1.587 0 .61.127 1.142.38 1.595.252.452.59.799 1.013 1.04.423.24.88.361 1.374.361zm5.306-7.49h2.097l1.816 6.433h.07l2.027-6.434h1.992l2.009 6.434h.07l1.816-6.434h2.062l-2.873 8.99h-2.044l-2.063-6.452h-.053l-2.044 6.451h-2.01l-2.872-8.989zm15.21 0h1.851v1.18h.088c.259-.423.644-.772 1.155-1.049a3.38 3.38 0 0 1 1.63-.414c1.093 0 1.924.32 2.494.96.57.641.855 1.514.855 2.618v5.693h-1.939v-5.428c0-.705-.173-1.222-.52-1.551-.347-.33-.825-.494-1.436-.494-.435 0-.823.12-1.164.361-.34.241-.605.561-.793.96-.188.4-.282.83-.282 1.288v4.864h-1.939v-8.989zm10.258-3.632h1.94v12.62h-1.94V18.4zm8.337 12.902c-.905 0-1.715-.208-2.432-.625a4.4 4.4 0 0 1-1.675-1.719c-.399-.728-.599-1.54-.599-2.432 0-.893.2-1.704.6-2.433a4.4 4.4 0 0 1 1.674-1.718c.717-.417 1.527-.626 2.432-.626s1.716.212 2.433.635a4.462 4.462 0 0 1 1.674 1.727c.4.729.6 1.533.6 2.415 0 .893-.2 1.704-.6 2.432a4.4 4.4 0 0 1-1.674 1.719c-.717.417-1.528.625-2.433.625zm0-1.78c.494 0 .952-.12 1.375-.361.423-.241.76-.588 1.013-1.04.253-.453.38-.984.38-1.595s-.127-1.14-.38-1.587a2.672 2.672 0 0 0-1.013-1.03 2.732 2.732 0 0 0-1.375-.362c-.493 0-.952.12-1.375.361-.423.241-.76.585-1.013 1.031-.253.447-.379.976-.379 1.587 0 .61.126 1.142.379 1.595.253.452.59.799 1.013 1.04.423.24.882.361 1.375.361zm9.306 1.78c-.646 0-1.222-.126-1.727-.379a2.83 2.83 0 0 1-1.18-1.075 2.977 2.977 0 0 1-.424-1.577c0-.929.35-1.663 1.049-2.204.7-.54 1.583-.81 2.653-.81.528 0 1.004.05 1.427.15.423.1.758.208 1.005.326v-.459c0-.552-.206-1.001-.617-1.348-.411-.347-.94-.52-1.586-.52-.459 0-.89.1-1.296.3a2.54 2.54 0 0 0-.978.828l-1.357-1.04c.4-.552.916-.981 1.55-1.286.635-.306 1.34-.459 2.116-.459 1.304 0 2.309.32 3.014.96.705.641 1.057 1.543 1.057 2.706v5.605h-1.903v-1.075h-.088c-.259.388-.623.711-1.093.97-.47.258-1.01.387-1.622.387zm.335-1.604c.47 0 .893-.111 1.27-.335.375-.223.67-.522.88-.898a2.44 2.44 0 0 0 .318-1.217 3.945 3.945 0 0 0-.943-.37 4.393 4.393 0 0 0-1.12-.14c-.728 0-1.262.143-1.603.431-.341.288-.511.661-.511 1.12 0 .41.158.748.476 1.013.317.264.728.396 1.233.396zm10.24 1.604c-.81 0-1.544-.205-2.202-.617a4.365 4.365 0 0 1-1.56-1.7c-.382-.723-.573-1.543-.573-2.46 0-.916.19-1.735.573-2.458a4.365 4.365 0 0 1 1.56-1.7 4.072 4.072 0 0 1 2.203-.618c.634 0 1.204.141 1.71.423.505.282.887.629 1.145 1.04h.088l-.088-1.269V18.4h1.939v12.62h-1.85v-1.163h-.089c-.258.4-.64.74-1.146 1.022a3.447 3.447 0 0 1-1.71.423zm.283-1.78c.47 0 .907-.123 1.313-.37.405-.247.731-.6.978-1.058.247-.458.37-.98.37-1.568 0-.588-.123-1.108-.37-1.56a2.722 2.722 0 0 0-.978-1.049 2.526 2.526 0 0 0-2.635 0 2.7 2.7 0 0 0-.987 1.049c-.247.452-.37.972-.37 1.56 0 .587.123 1.11.37 1.568.247.459.576.811.987 1.058.411.247.852.37 1.322.37zm15.105 1.78c-.905 0-1.716-.208-2.433-.625a4.4 4.4 0 0 1-1.674-1.719c-.4-.728-.6-1.54-.6-2.432 0-.893.2-1.704.6-2.433a4.4 4.4 0 0 1 1.674-1.718c.717-.417 1.528-.626 2.433-.626.904 0 1.715.212 2.432.635a4.462 4.462 0 0 1 1.674 1.727c.4.729.6 1.533.6 2.415 0 .893-.2 1.704-.6 2.432a4.4 4.4 0 0 1-1.674 1.719c-.717.417-1.528.625-2.432.625zm0-1.78c.493 0 .951-.12 1.374-.361.423-.241.761-.588 1.014-1.04.253-.453.379-.984.379-1.595s-.126-1.14-.38-1.587a2.672 2.672 0 0 0-1.013-1.03 2.732 2.732 0 0 0-1.374-.362c-.494 0-.952.12-1.375.361-.423.241-.76.585-1.014 1.031-.252.447-.379.976-.379 1.587 0 .61.127 1.142.38 1.595.252.452.59.799 1.013 1.04.423.24.881.361 1.375.361zm6.31-7.49h1.85v1.18h.088c.259-.423.644-.772 1.155-1.049a3.38 3.38 0 0 1 1.63-.414c1.093 0 1.924.32 2.494.96.57.641.855 1.514.855 2.618v5.693h-1.939v-5.428c0-.705-.173-1.222-.52-1.551-.346-.33-.825-.494-1.436-.494-.435 0-.823.12-1.163.361-.341.241-.606.561-.794.96-.188.4-.282.83-.282 1.288v4.864h-1.938v-8.989zm18.066 9.13c-.4 0-.776-.065-1.128-.195-.353-.129-.64-.3-.864-.51-.505-.506-.758-1.193-.758-2.063v-4.653h-1.569v-1.71h1.57v-2.538h1.938v2.538h2.185v1.71h-2.185v4.23c0 .482.094.823.282 1.022.176.235.482.353.916.353.2 0 .376-.027.53-.08.152-.052.316-.138.493-.255v1.886c-.388.176-.858.264-1.41.264zm3.313-12.762h1.939v3.437l-.088 1.375h.088c.259-.423.643-.772 1.154-1.049a3.414 3.414 0 0 1 1.648-.414c1.093 0 1.928.32 2.503.96.576.641.864 1.514.864 2.618v5.693h-1.939v-5.428c0-.682-.18-1.193-.537-1.534-.359-.34-.826-.511-1.402-.511-.434 0-.825.123-1.172.37a2.57 2.57 0 0 0-.82.978c-.2.406-.299.838-.299 1.296v4.83h-1.939V18.4zm14.418 12.902c-.881 0-1.672-.205-2.37-.617a4.347 4.347 0 0 1-1.64-1.7c-.394-.723-.59-1.537-.59-2.442a5.1 5.1 0 0 1 .572-2.388 4.505 4.505 0 0 1 1.596-1.754c.681-.434 1.457-.652 2.326-.652.905 0 1.69.2 2.353.6.664.399 1.17.945 1.516 1.639.346.693.52 1.474.52 2.344 0 .164-.018.37-.053.617h-6.892c.07.834.368 1.477.89 1.93a2.703 2.703 0 0 0 1.825.678c.552 0 1.03-.126 1.436-.379.406-.252.732-.596.978-1.03l1.64.775a4.83 4.83 0 0 1-1.657 1.745c-.682.423-1.498.634-2.45.634zm2.309-5.834a2.24 2.24 0 0 0-.3-.943 2.144 2.144 0 0 0-.802-.784c-.358-.212-.796-.317-1.313-.317-.623 0-1.149.185-1.577.555-.43.37-.726.866-.89 1.49h4.882zM104.743 44.063h4.76l8.262 21.989h-4.576l-1.843-5.252h-8.415l-1.842 5.252h-4.576l8.23-21.989zm5.252 12.93l-1.935-5.529-.798-2.64h-.246l-.799 2.64-1.965 5.528h5.743zm8.97-6.603h3.777v1.904h.246c.43-.676 1.055-1.244 1.873-1.705.82-.46 1.761-.69 2.826-.69 1.413 0 2.697.352 3.854 1.059 1.157.706 2.063 1.694 2.718 2.963.655 1.27.983 2.703.983 4.3 0 1.617-.328 3.056-.983 4.315-.655 1.259-1.561 2.242-2.718 2.948s-2.441 1.06-3.854 1.06c-1.065 0-2.012-.226-2.84-.676-.83-.45-1.45-1.014-1.859-1.69h-.246l.246 2.212v6.295h-4.023V50.39zm8.016 12.437c.757 0 1.463-.194 2.119-.583a4.278 4.278 0 0 0 1.566-1.628c.389-.696.583-1.494.583-2.395s-.194-1.7-.583-2.396a4.164 4.164 0 0 0-1.566-1.612 4.163 4.163 0 0 0-2.12-.568c-.737 0-1.433.19-2.088.568a4.164 4.164 0 0 0-1.566 1.612c-.389.696-.584 1.495-.584 2.396 0 .9.195 1.7.584 2.395a4.278 4.278 0 0 0 1.566 1.628 4.025 4.025 0 0 0 2.089.583zm9.676-12.437h3.778v1.904h.245c.43-.676 1.055-1.244 1.874-1.705.818-.46 1.76-.69 2.825-.69 1.413 0 2.697.352 3.854 1.059 1.157.706 2.063 1.694 2.718 2.963.655 1.27.983 2.703.983 4.3 0 1.617-.328 3.056-.983 4.315-.655 1.259-1.561 2.242-2.718 2.948s-2.441 1.06-3.854 1.06c-1.065 0-2.012-.226-2.84-.676-.83-.45-1.45-1.014-1.859-1.69h-.245l.245 2.212v6.295h-4.023V50.39zm8.016 12.437c.757 0 1.463-.194 2.119-.583a4.278 4.278 0 0 0 1.566-1.628c.389-.696.583-1.494.583-2.395s-.194-1.7-.583-2.396a4.164 4.164 0 0 0-1.566-1.612 4.163 4.163 0 0 0-2.12-.568c-.736 0-1.433.19-2.088.568a4.164 4.164 0 0 0-1.566 1.612c-.389.696-.583 1.495-.583 2.396 0 .9.194 1.7.583 2.395a4.278 4.278 0 0 0 1.566 1.628 4.025 4.025 0 0 0 2.089.583zm22.301 3.716c-1.925 0-3.624-.542-5.098-1.627-1.474-1.085-2.508-2.62-3.102-4.607l3.9-1.535c.308 1.167.83 2.098 1.567 2.794.737.696 1.658 1.044 2.764 1.044.921 0 1.71-.23 2.364-.69.656-.461.983-1.101.983-1.92s-.312-1.49-.937-2.012c-.624-.522-1.735-1.08-3.332-1.673l-1.35-.492c-1.414-.491-2.621-1.243-3.625-2.257-1.003-1.013-1.505-2.288-1.505-3.823 0-1.147.297-2.191.891-3.133.594-.942 1.433-1.684 2.518-2.226 1.085-.543 2.314-.814 3.686-.814 1.986 0 3.552.466 4.698 1.397 1.147.932 1.935 2.022 2.365 3.27l-3.655 1.536a3.66 3.66 0 0 0-1.182-1.704c-.563-.46-1.285-.691-2.165-.691-.9 0-1.643.21-2.226.63-.584.42-.876.967-.876 1.643 0 .655.277 1.213.83 1.673.552.461 1.463.906 2.733 1.336l1.382.46c1.904.656 3.362 1.521 4.376 2.596 1.013 1.075 1.52 2.482 1.52 4.223 0 1.433-.368 2.646-1.105 3.639a6.765 6.765 0 0 1-2.841 2.226 9.065 9.065 0 0 1-3.578.737zm15.696-.245a6.314 6.314 0 0 1-2.15-.353c-.655-.236-1.187-.558-1.597-.968-.962-.921-1.443-2.231-1.443-3.93v-7.218h-2.733v-3.44h2.733v-4.422h4.023v4.423h3.839v3.44h-3.84v6.48c0 .798.175 1.37.523 1.719.287.327.778.491 1.474.491.39 0 .712-.05.967-.153a7.45 7.45 0 0 0 .999-.522v3.93a7.532 7.532 0 0 1-2.795.523zm11.703.245c-1.617 0-3.06-.363-4.33-1.09a7.744 7.744 0 0 1-2.963-2.979c-.707-1.259-1.06-2.677-1.06-4.253 0-1.556.353-2.969 1.06-4.238a7.714 7.714 0 0 1 2.963-2.995c1.27-.726 2.713-1.09 4.33-1.09 1.597 0 3.03.364 4.3 1.09a7.714 7.714 0 0 1 2.963 2.995c.707 1.27 1.06 2.682 1.06 4.238 0 1.576-.353 2.994-1.06 4.253a7.744 7.744 0 0 1-2.963 2.98c-1.27.726-2.703 1.09-4.3 1.09zm0-3.716a4.31 4.31 0 0 0 2.15-.552 4.054 4.054 0 0 0 1.566-1.597c.39-.696.584-1.515.584-2.457 0-.922-.195-1.73-.584-2.426a4.054 4.054 0 0 0-1.566-1.597 4.31 4.31 0 0 0-2.15-.553 4.31 4.31 0 0 0-2.15.553c-.655.368-1.182.9-1.58 1.597-.4.696-.6 1.504-.6 2.426 0 .921.2 1.735.6 2.441.398.707.925 1.244 1.58 1.613a4.31 4.31 0 0 0 2.15.552zm9.83-12.437h3.778v2.088h.246c.389-.737.993-1.346 1.812-1.827a5.238 5.238 0 0 1 2.702-.722c.717 0 1.372.113 1.966.338v4.023a13.04 13.04 0 0 0-1.398-.445 5.12 5.12 0 0 0-1.213-.139c-1.187 0-2.13.43-2.825 1.29-.696.86-1.044 1.945-1.044 3.256v7.8h-4.023V50.39zm18.276 16.153c-1.556 0-2.958-.358-4.207-1.075a7.696 7.696 0 0 1-2.933-2.963c-.706-1.26-1.06-2.677-1.06-4.253a8.57 8.57 0 0 1 1.045-4.162 8.041 8.041 0 0 1 2.886-3.055c1.229-.758 2.6-1.137 4.116-1.137 1.617 0 3.01.348 4.176 1.044a6.808 6.808 0 0 1 2.657 2.856c.604 1.208.906 2.55.906 4.024 0 .47-.031.92-.093 1.35H218.21c.205 1.25.702 2.197 1.49 2.842.788.644 1.735.967 2.84.967.922 0 1.715-.2 2.38-.599a4.423 4.423 0 0 0 1.582-1.612l3.256 1.597c-1.597 2.784-4.024 4.176-7.279 4.176zm3.716-10.226c-.04-.492-.22-.978-.537-1.459-.318-.481-.758-.88-1.32-1.198-.564-.317-1.224-.476-1.982-.476-.962 0-1.786.282-2.472.845-.686.563-1.182 1.325-1.49 2.288h7.801z" fill="#022B69" fill-rule="nonzero"></path></g></svg>