<svg height="32" viewbox="0 0 32 32" width="32" xmlns="http://www.w3.org/2000/svg">
<path d="M16.2906122,0 C7.61469388,0 0.58122449,6.97795918 0.58122449,15.5885714 C0.58122449,18.5338776 1.40408163,21.2865306 2.83428571,23.637551 L0,32 L8.69877551,29.237551 C10.9485714,30.4718367 13.5379592,31.1771429 16.2906122,31.1771429 C24.9665306,31.1771429 32,24.1959184 32,15.5885714 C32,6.97795918 24.9665306,0 16.2906122,0 Z M24.1012245,21.5085714 C23.7322449,22.4261224 22.0604082,23.2620408 21.322449,23.2979592 C20.5844898,23.3371429 20.564898,23.8693878 16.5485714,22.1257143 C12.5322449,20.3787755 10.1159184,16.1371429 9.92653061,15.8628571 C9.73714286,15.5918367 8.3722449,13.6457143 8.44408163,11.6865306 C8.51918367,9.72734694 9.59020408,8.80326531 9.9722449,8.42122449 C10.3542857,8.03591837 10.7918367,7.96734694 11.0595918,7.96408163 C11.3763265,7.95755102 11.5820408,7.95428571 11.8138776,7.96408163 C12.0489796,7.97387755 12.3983673,7.91510204 12.7020408,8.72489796 C13.0057143,9.53469388 13.7338776,11.52 13.8253061,11.7257143 C13.9167347,11.9281633 13.9755102,12.1632653 13.8318367,12.4244898 C13.6881633,12.6857143 13.6130612,12.8489796 13.4073469,13.0742857 C13.1983673,13.2995918 12.9665306,13.5771429 12.7804082,13.7502041 C12.5714286,13.9395918 12.3526531,14.1485714 12.5746939,14.5567347 C12.7934694,14.964898 13.5510204,16.2971429 14.7004082,17.3942857 C16.1795918,18.804898 17.4563265,19.275102 17.8514286,19.4873469 C18.2465306,19.7028571 18.4816327,19.6767347 18.7232653,19.4220408 C18.964898,19.1640816 19.7681633,18.2987755 20.0522449,17.9102041 C20.3363265,17.5216327 20.6008163,17.5967347 20.9632653,17.7436735 C21.3257143,17.8906122 23.2587755,18.9257143 23.6538776,19.1412245 C24.0489796,19.3534694 24.3102041,19.4644898 24.404898,19.6342857 C24.4995918,19.7942857 24.4702041,20.5910204 24.1012245,21.5085714 Z" fill="#022B69"></path>
</svg>