<svg viewbox="0 0 200 56" xmlns="http://www.w3.org/2000/svg"><defs><lineargradient id="a" x1="61.012%" x2="26.55%" y1="4.948%" y2="71.907%"><stop offset="0%" stop-color="#00A0FF"></stop><stop offset="1%" stop-color="#00A1FF"></stop><stop offset="26%" stop-color="#00BEFF"></stop><stop offset="51%" stop-color="#00D2FF"></stop><stop offset="76%" stop-color="#00DFFF"></stop><stop offset="100%" stop-color="#00E3FF"></stop></lineargradient><lineargradient id="b" x1="107.685%" x2="-130.64%" y1="50%" y2="50%"><stop offset="0%" stop-color="#FFE000"></stop><stop offset="41%" stop-color="#FFBD00"></stop><stop offset="78%" stop-color="orange"></stop><stop offset="100%" stop-color="#FF9C00"></stop></lineargradient><lineargradient id="c" x1="86.219%" x2="-50.15%" y1="30.873%" y2="136.162%"><stop offset="0%" stop-color="#FF3A44"></stop><stop offset="100%" stop-color="#C31162"></stop></lineargradient><lineargradient id="d" x1="-18.754%" x2="42.121%" y1="-11.957%" y2="35.065%"><stop offset="0%" stop-color="#32A071"></stop><stop offset="7%" stop-color="#2DA771"></stop><stop offset="48%" stop-color="#15CF74"></stop><stop offset="80%" stop-color="#06E775"></stop><stop offset="100%" stop-color="#00F076"></stop></lineargradient></defs><g fill="none" fill-rule="evenodd"><path d="M7.64 0h182.226c2.656 0 3.62.277 4.59.796a5.415 5.415 0 0 1 2.253 2.252c.52.972.796 1.935.796 4.591V57.91c0 2.656-.277 3.62-.796 4.59a5.415 5.415 0 0 1-2.252 2.253c-.972.52-1.935.796-4.591.796H7.639c-2.656 0-3.62-.276-4.59-.796a5.415 5.415 0 0 1-2.253-2.252C.276 61.529 0 60.566 0 57.91V7.64c0-2.657.277-3.62.796-4.592A5.415 5.415 0 0 1 3.048.796C4.02.276 4.983 0 7.64 0z" fill="#022B69"></path><g fill-rule="nonzero"><path d="M.58.502a2.474 2.474 0 0 0-.568 1.73V29.58a2.474 2.474 0 0 0 .568 1.73l.087.087 15.302-15.305v-.359L.667.415.58.502z" fill="url(#a)" transform="translate(23.85 18)"></path><path d="M21.033 21.198l-5.064-5.106v-.359l5.064-5.118.111.062 6.065 3.449c1.729.977 1.729 2.584 0 3.573l-6.04 3.437-.136.062z" fill="url(#b)" transform="translate(23.85 18)"></path><path d="M21.181 21.123l-5.212-5.217L.58 31.311c.728.64 1.807.67 2.57.074l18.044-10.262" fill="url(#c)" transform="translate(23.85 18)"></path><path d="M21.181 10.689L3.137.427A2.012 2.012 0 0 0 .568.502L15.97 15.906l5.212-5.217z" fill="url(#d)" transform="translate(23.85 18)"></path><path d="M44.883 39.012l-17.896 10.2a2.06 2.06 0 0 1-2.47 0l-.087.086.087.087c.73.552 1.74.552 2.47 0l18.044-10.262-.148-.11z" fill="#000" opacity=".2"></path><path d="M24.43 49.138a2.474 2.474 0 0 1-.568-1.731v.185a2.474 2.474 0 0 0 .568 1.731l.087-.087-.087-.098zM51.06 35.513l-6.176 3.5.111.11 6.065-3.437a2.164 2.164 0 0 0 1.235-1.78 2.3 2.3 0 0 1-1.235 1.607z" fill="#000" opacity=".12"></path><path d="M26.987 18.6L51.06 32.3a2.3 2.3 0 0 1 1.235 1.607 2.164 2.164 0 0 0-1.235-1.78L26.987 18.427c-1.729-.976-3.137-.16-3.137 1.818v.185c.037-1.99 1.42-2.806 3.137-1.83z" fill="#FFF" opacity=".25"></path></g><path d="M78.558 23.745c-.9 0-1.73-.216-2.49-.648a4.86 4.86 0 0 1-1.807-1.781c-.446-.755-.67-1.596-.67-2.523s.224-1.768.67-2.523a4.86 4.86 0 0 1 1.807-1.78 4.942 4.942 0 0 1 2.49-.65c.715 0 1.381.128 2 .384a4.24 4.24 0 0 1 1.549 1.073l-1.033 1.033a3.149 3.149 0 0 0-1.106-.795 3.546 3.546 0 0 0-1.423-.278c-.61 0-1.179.146-1.709.437-.53.292-.953.706-1.271 1.245-.318.538-.477 1.156-.477 1.854 0 .697.16 1.315.477 1.854.318.538.742.953 1.271 1.245.53.29 1.104.437 1.722.437.565 0 1.037-.084 1.417-.252.38-.168.72-.393 1.02-.675.194-.195.36-.437.496-.729.137-.291.227-.609.271-.953h-3.217v-1.324h4.621c.044.247.066.503.066.768 0 .6-.092 1.176-.278 1.728a3.646 3.646 0 0 1-.887 1.437c-.892.944-2.061 1.416-3.51 1.416zm9.163 0a3.446 3.446 0 0 1-1.78-.463 3.266 3.266 0 0 1-1.232-1.278c-.296-.543-.444-1.154-.444-1.834 0-.644.144-1.242.43-1.794a3.385 3.385 0 0 1 1.199-1.318 3.18 3.18 0 0 1 1.748-.49c.68 0 1.269.15 1.768.45.499.3.878.711 1.139 1.232.26.52.39 1.108.39 1.761 0 .124-.013.278-.04.464h-5.177c.053.626.276 1.11.669 1.45.392.34.85.51 1.37.51.415 0 .775-.095 1.08-.285.304-.19.549-.448.734-.775l1.232.583a3.628 3.628 0 0 1-1.245 1.31c-.512.319-1.126.477-1.84.477zm1.735-4.383a1.683 1.683 0 0 0-.225-.708 1.611 1.611 0 0 0-.603-.59c-.269-.158-.598-.238-.986-.238-.468 0-.863.14-1.185.417-.322.278-.545.651-.669 1.12h3.668zm5.376 4.278c-.3 0-.582-.049-.847-.146a1.86 1.86 0 0 1-.649-.384c-.38-.38-.57-.896-.57-1.55v-3.495h-1.178V16.78h1.179v-1.907h1.456v1.907h1.642v1.285h-1.642v3.178c0 .362.071.618.212.768.133.176.362.265.689.265.15 0 .282-.02.397-.06a1.66 1.66 0 0 0 .37-.192v1.417c-.29.132-.644.199-1.059.199zm6.357-7.84a.946.946 0 0 1-.695-.285.946.946 0 0 1-.285-.695c0-.273.095-.505.285-.695a.946.946 0 0 1 .695-.285c.273 0 .505.095.695.285.19.19.285.422.285.695a.946.946 0 0 1-.285.695.946.946 0 0 1-.695.285zm-.729.98h1.457v6.754h-1.457V16.78zm5.973 6.86c-.3 0-.583-.049-.848-.146a1.86 1.86 0 0 1-.649-.384c-.38-.38-.57-.896-.57-1.55v-3.495h-1.178V16.78h1.179v-1.907h1.457v1.907h1.642v1.285h-1.642v3.178c0 .362.07.618.211.768.133.176.362.265.689.265.15 0 .283-.02.397-.06a1.66 1.66 0 0 0 .371-.192v1.417c-.291.132-.644.199-1.06.199zm8.687.105c-.68 0-1.29-.156-1.828-.47a3.306 3.306 0 0 1-1.258-1.29 3.737 3.737 0 0 1-.45-1.828c0-.671.15-1.28.45-1.828.3-.547.72-.977 1.258-1.29.539-.314 1.148-.47 1.828-.47.68 0 1.289.158 1.827.476.539.318.958.75 1.258 1.298.3.547.45 1.152.45 1.814 0 .67-.15 1.28-.45 1.827-.3.548-.72.978-1.258 1.291-.538.314-1.148.47-1.827.47zm0-1.337c.37 0 .715-.09 1.032-.271.318-.181.572-.442.762-.782.19-.34.285-.74.285-1.198 0-.46-.095-.857-.285-1.192a2.008 2.008 0 0 0-.762-.775 2.052 2.052 0 0 0-1.032-.271c-.371 0-.715.09-1.033.271-.318.181-.572.44-.762.775-.19.335-.284.733-.284 1.192 0 .459.094.858.284 1.198.19.34.444.6.762.782.318.18.662.271 1.033.271zm4.74-5.628h1.39v.887h.067c.194-.318.483-.58.867-.788a2.54 2.54 0 0 1 1.225-.31c.821 0 1.446.24 1.874.72.428.482.642 1.138.642 1.967v4.278h-1.456v-4.079c0-.53-.13-.918-.391-1.165-.26-.248-.62-.371-1.08-.371-.326 0-.617.09-.873.271a1.807 1.807 0 0 0-.596.722c-.141.3-.212.622-.212.967v3.655h-1.457V16.78zM73.37 32.566h5.814c1.046 0 2 .22 2.862.658a5.016 5.016 0 0 1 2.03 1.845c.492.793.738 1.696.738 2.711 0 1.016-.246 1.923-.738 2.723a4.99 4.99 0 0 1-2.03 1.858c-.862.438-1.816.657-2.862.657h-2.7v6.068H73.37v-16.52zm5.907 7.499c.769 0 1.373-.223 1.811-.67a2.22 2.22 0 0 0 .658-1.615c0-.63-.22-1.165-.658-1.603-.438-.438-1.042-.658-1.811-.658h-2.792v4.546h2.792zm6.924-7.5h3.022v16.521h-3.022v-16.52zm8.54 16.89c-1.247 0-2.27-.365-3.07-1.095-.8-.731-1.2-1.689-1.2-2.873 0-.785.208-1.477.623-2.077.416-.6.985-1.061 1.708-1.384.723-.323 1.523-.485 2.4-.485 1.215 0 2.253.177 3.114.531v-.507c0-.647-.242-1.17-.726-1.57-.485-.4-1.135-.6-1.95-.6-.554 0-1.088.128-1.604.381a3.778 3.778 0 0 0-1.28 1.004l-1.938-1.523a5.694 5.694 0 0 1 2.145-1.707c.862-.4 1.8-.6 2.815-.6 1.8 0 3.17.415 4.107 1.246.939.83 1.408 2.046 1.408 3.645v7.245h-2.977v-1.2h-.184c-.354.462-.82.839-1.396 1.131-.577.292-1.242.439-1.996.439zm.714-2.353c.877 0 1.573-.28 2.088-.842a2.824 2.824 0 0 0 .773-1.973 5.73 5.73 0 0 0-2.468-.554c-1.57 0-2.354.585-2.354 1.754 0 .477.17.865.508 1.165.338.3.823.45 1.453.45zm11.124 1.43l-4.961-11.213h3.438l3.046 7.314h.184l2.93-7.314h3.37l-7.269 16.751h-3.253l2.515-5.537zm17.886.924c-1.446 0-2.723-.408-3.83-1.223-1.108-.816-1.885-1.97-2.33-3.461l2.93-1.154c.23.877.622 1.577 1.176 2.1.554.523 1.246.784 2.077.784.692 0 1.284-.173 1.776-.519.493-.346.739-.827.739-1.442a1.88 1.88 0 0 0-.704-1.511c-.47-.393-1.304-.812-2.503-1.258l-1.016-.369a7.012 7.012 0 0 1-2.722-1.696c-.754-.761-1.13-1.719-1.13-2.873 0-.86.222-1.645.668-2.353.446-.708 1.077-1.265 1.892-1.673.816-.407 1.738-.611 2.77-.611 1.491 0 2.668.35 3.53 1.05.86.7 1.453 1.519 1.776 2.457l-2.746 1.154a2.75 2.75 0 0 0-.888-1.281c-.423-.346-.965-.52-1.627-.52-.677 0-1.234.159-1.673.474-.438.315-.657.727-.657 1.234 0 .493.207.912.623 1.258.415.346 1.1.68 2.053 1.003l1.039.347c1.43.492 2.526 1.142 3.288 1.95.761.807 1.142 1.864 1.142 3.172 0 1.077-.277 1.988-.831 2.734a5.083 5.083 0 0 1-2.134 1.673 6.81 6.81 0 0 1-2.688.554zm11.792-.185a4.744 4.744 0 0 1-1.615-.265c-.492-.177-.892-.42-1.2-.727-.723-.692-1.084-1.677-1.084-2.954v-5.422h-2.054V37.32h2.054v-3.323h3.022v3.323h2.885v2.584h-2.885v4.869c0 .6.131 1.03.393 1.292.215.246.584.369 1.107.369.293 0 .535-.038.727-.115.192-.077.442-.208.75-.393v2.954a5.659 5.659 0 0 1-2.1.392zm8.793.185c-1.215 0-2.3-.273-3.253-.82a5.818 5.818 0 0 1-2.227-2.238c-.53-.946-.796-2.01-.796-3.195 0-1.17.266-2.23.796-3.184a5.795 5.795 0 0 1 2.227-2.25c.954-.546 2.038-.82 3.253-.82 1.2 0 2.277.274 3.23.82a5.795 5.795 0 0 1 2.227 2.25c.53.953.796 2.015.796 3.184 0 1.184-.265 2.25-.796 3.195a5.818 5.818 0 0 1-2.226 2.238c-.954.547-2.03.82-3.23.82zm0-2.792c.585 0 1.123-.139 1.615-.416a3.046 3.046 0 0 0 1.177-1.2c.292-.522.439-1.138.439-1.845 0-.692-.147-1.3-.439-1.823a3.046 3.046 0 0 0-1.177-1.2 3.238 3.238 0 0 0-1.615-.415c-.584 0-1.123.138-1.615.415a3.125 3.125 0 0 0-1.188 1.2c-.3.523-.45 1.13-.45 1.823 0 .692.15 1.303.45 1.834.3.53.696.935 1.188 1.211.492.277 1.03.416 1.615.416zm7.386-9.345h2.838v1.569h.184c.293-.554.746-1.011 1.362-1.373a3.935 3.935 0 0 1 2.03-.542c.539 0 1.03.085 1.477.254v3.022a9.797 9.797 0 0 0-1.05-.334 3.847 3.847 0 0 0-.911-.104c-.893 0-1.6.323-2.123.969-.523.646-.785 1.461-.785 2.446v5.86h-3.022V37.32zm13.73 12.137c-1.169 0-2.222-.27-3.16-.808a5.782 5.782 0 0 1-2.204-2.227c-.53-.946-.796-2.01-.796-3.195 0-1.123.261-2.165.784-3.127a6.041 6.041 0 0 1 2.17-2.295c.922-.57 1.953-.854 3.091-.854 1.215 0 2.261.261 3.138.784a5.115 5.115 0 0 1 1.996 2.146c.454.908.68 1.915.68 3.023 0 .354-.022.692-.069 1.015h-8.837c.154.938.527 1.65 1.12 2.134.592.485 1.303.727 2.134.727.692 0 1.288-.15 1.788-.45.5-.3.896-.704 1.188-1.211l2.446 1.2c-1.2 2.092-3.023 3.138-5.468 3.138zm2.792-7.684c-.03-.369-.165-.734-.403-1.096a2.817 2.817 0 0 0-.993-.9c-.423-.238-.919-.357-1.488-.357-.723 0-1.342.211-1.857.634-.515.423-.888.996-1.12 1.72h5.861z" fill="#FFF" fill-rule="nonzero"></path></g></svg>