<svg viewbox="0 0 263 93" xmlns="http://www.w3.org/2000/svg"><g fill="none" fill-rule="evenodd"><path d="M10.168 0h242.544c3.535 0 4.817.368 6.11 1.06a7.207 7.207 0 0 1 2.998 2.998c.691 1.292 1.06 2.574 1.06 6.11v66.91c0 3.536-.369 4.818-1.06 6.11a7.207 7.207 0 0 1-2.998 2.998c-1.293.692-2.575 1.06-6.11 1.06H10.168c-3.536 0-4.818-.368-6.11-1.06a7.207 7.207 0 0 1-2.999-2.998C.37 81.896 0 80.614 0 77.078v-66.91c0-3.536.368-4.818 1.06-6.11a7.207 7.207 0 0 1 2.998-2.999C5.35.37 6.632 0 10.168 0z" fill="#FFF"></path><path d="M34.333 64.665c.942.165 2.055-.038 3.245-.67l20.867-11.082-6.07-5.96-18.042 17.712zM32.61 26.65c-.517.746-.815 1.773-.815 3.037v30.788c0 1.231.282 2.237.773 2.977L50.83 45.029 32.61 26.65zm27.104 10.546l-20.93-11.087c-1.163-.616-2.253-.827-3.182-.686l18.05 17.724 6.062-5.951zm1.552 14.835l6.062-3.15c3.386-1.757 3.384-4.63-.004-6.384l-6.095-3.157-6.591 6.327 6.628 6.364zM104.56 31.302a6.578 6.578 0 0 1-3.313-.863 6.468 6.468 0 0 1-2.406-2.371c-.593-1.005-.89-2.124-.89-3.358 0-1.233.297-2.353.89-3.357a6.468 6.468 0 0 1 2.406-2.37 6.578 6.578 0 0 1 3.313-.865c.952 0 1.84.17 2.662.512.822.34 1.51.816 2.062 1.427l-1.375 1.375a4.191 4.191 0 0 0-1.471-1.058 4.72 4.72 0 0 0-1.895-.37c-.811 0-1.569.194-2.274.582a4.404 4.404 0 0 0-1.692 1.657c-.423.717-.634 1.539-.634 2.467 0 .929.211 1.751.634 2.468a4.404 4.404 0 0 0 1.692 1.657 4.678 4.678 0 0 0 2.291.581c.752 0 1.381-.111 1.886-.335a4.79 4.79 0 0 0 1.357-.898c.259-.259.48-.582.661-.97a4.23 4.23 0 0 0 .362-1.269h-4.283v-1.762h6.151c.059.329.088.67.088 1.022 0 .799-.123 1.566-.37 2.3a4.852 4.852 0 0 1-1.18 1.912c-1.188 1.258-2.745 1.886-4.672 1.886zm12.197 0c-.881 0-1.671-.205-2.37-.617a4.347 4.347 0 0 1-1.64-1.7c-.393-.723-.59-1.537-.59-2.442a5.1 5.1 0 0 1 .573-2.388 4.505 4.505 0 0 1 1.595-1.754c.681-.434 1.457-.652 2.326-.652.905 0 1.69.2 2.353.6.664.399 1.17.945 1.516 1.639.347.693.52 1.474.52 2.344 0 .164-.017.37-.053.617h-6.891c.07.834.367 1.477.89 1.93a2.703 2.703 0 0 0 1.824.678c.552 0 1.031-.126 1.437-.379.405-.252.731-.596.978-1.03l1.639.775a4.83 4.83 0 0 1-1.657 1.745c-.681.423-1.498.634-2.45.634zm2.31-5.834a2.24 2.24 0 0 0-.3-.943 2.144 2.144 0 0 0-.802-.784c-.359-.212-.797-.317-1.314-.317-.622 0-1.148.185-1.577.555-.429.37-.726.866-.89 1.49h4.882zm7.155 5.693c-.4 0-.775-.064-1.128-.194-.352-.129-.64-.3-.864-.51-.505-.506-.758-1.193-.758-2.063v-4.653h-1.568v-1.71h1.568v-2.538h1.94v2.538h2.185v1.71h-2.186v4.23c0 .482.094.823.282 1.022.177.235.482.353.917.353.2 0 .376-.027.529-.08.152-.052.317-.138.493-.255v1.886c-.388.176-.858.264-1.41.264zm8.46-10.434c-.364 0-.672-.126-.925-.379a1.259 1.259 0 0 1-.379-.925c0-.365.126-.673.379-.926.253-.252.561-.379.925-.379.365 0 .673.127.926.38.252.252.379.56.379.925 0 .364-.127.672-.38.925a1.259 1.259 0 0 1-.925.379zm-.97 1.304h1.94v8.99h-1.94v-8.99zm7.95 9.13c-.4 0-.776-.064-1.128-.194-.353-.129-.64-.3-.864-.51-.505-.506-.758-1.193-.758-2.063v-4.653h-1.568v-1.71h1.568v-2.538h1.94v2.538h2.185v1.71h-2.186v4.23c0 .482.094.823.282 1.022.176.235.482.353.917.353.2 0 .376-.027.528-.08.153-.052.318-.138.494-.255v1.886c-.388.176-.858.264-1.41.264zm11.562.141c-.905 0-1.715-.208-2.432-.625a4.4 4.4 0 0 1-1.675-1.719c-.399-.728-.599-1.54-.599-2.432 0-.893.2-1.704.6-2.433a4.4 4.4 0 0 1 1.674-1.718c.717-.417 1.527-.626 2.432-.626s1.716.212 2.433.635a4.462 4.462 0 0 1 1.674 1.727c.4.729.6 1.533.6 2.415 0 .893-.2 1.704-.6 2.432a4.4 4.4 0 0 1-1.674 1.719c-.717.417-1.528.625-2.433.625zm0-1.78c.494 0 .952-.12 1.375-.361.423-.241.76-.588 1.013-1.04.253-.453.38-.984.38-1.595s-.127-1.14-.38-1.587a2.672 2.672 0 0 0-1.013-1.03 2.732 2.732 0 0 0-1.375-.362c-.493 0-.952.12-1.375.361-.423.241-.76.585-1.013 1.031-.253.447-.379.976-.379 1.587 0 .61.126 1.142.379 1.595.253.452.59.799 1.013 1.04.423.24.882.361 1.375.361zm6.31-7.49h1.85v1.18h.089c.258-.423.643-.772 1.154-1.049a3.38 3.38 0 0 1 1.63-.414c1.093 0 1.925.32 2.495.96.57.641.855 1.514.855 2.618v5.693h-1.94v-5.428c0-.705-.173-1.222-.52-1.551-.346-.33-.825-.494-1.436-.494-.434 0-.822.12-1.163.361-.34.241-.605.561-.793.96-.188.4-.282.83-.282 1.288v4.864h-1.939v-8.989zM97.655 44.062h7.74c1.392 0 2.661.292 3.808.876 1.146.583 2.047 1.402 2.702 2.456.655 1.055.983 2.258.983 3.609s-.328 2.559-.983 3.624a6.64 6.64 0 0 1-2.702 2.472c-1.147.583-2.416.875-3.808.875H101.8v8.077h-4.146V44.063zm7.862 9.981c1.024 0 1.828-.297 2.411-.89.584-.594.875-1.31.875-2.15 0-.84-.291-1.551-.875-2.135-.583-.583-1.387-.875-2.41-.875H101.8v6.05h3.716zm9.216-9.98h4.023v21.988h-4.023V44.063zm11.366 22.48c-1.658 0-3.02-.487-4.084-1.46-1.065-.972-1.597-2.246-1.597-3.823 0-1.044.276-1.965.829-2.764.553-.798 1.31-1.412 2.272-1.842.963-.43 2.027-.645 3.194-.645 1.618 0 3 .235 4.146.706v-.676c0-.86-.322-1.556-.967-2.088s-1.51-.798-2.595-.798c-.737 0-1.449.168-2.135.506a5.029 5.029 0 0 0-1.704 1.336l-2.58-2.027a7.579 7.579 0 0 1 2.856-2.272c1.147-.533 2.396-.799 3.747-.799 2.395 0 4.218.553 5.466 1.659 1.25 1.105 1.874 2.723 1.874 4.852v9.643h-3.962v-1.597h-.246c-.47.614-1.09 1.116-1.858 1.505-.767.389-1.653.583-2.656.583zm.952-3.133c1.167 0 2.093-.374 2.78-1.121.685-.747 1.028-1.623 1.028-2.626a7.627 7.627 0 0 0-3.286-.737c-2.088 0-3.132.778-3.132 2.334 0 .635.225 1.152.675 1.551.45.4 1.096.599 1.935.599zm14.805 1.904l-6.602-14.925h4.575l4.054 9.735h.246l3.9-9.735h4.484l-9.674 22.295h-4.33l3.347-7.37zm23.807 1.228c-1.925 0-3.624-.542-5.098-1.627-1.475-1.085-2.508-2.62-3.102-4.607l3.9-1.535c.307 1.167.83 2.098 1.566 2.794.737.696 1.659 1.044 2.764 1.044.922 0 1.71-.23 2.365-.69.655-.461.983-1.101.983-1.92s-.313-1.49-.937-2.012c-.624-.522-1.735-1.08-3.332-1.673l-1.351-.492c-1.413-.491-2.62-1.243-3.624-2.257-1.003-1.013-1.505-2.288-1.505-3.823 0-1.147.297-2.191.89-3.133.594-.942 1.434-1.684 2.519-2.226 1.085-.543 2.313-.814 3.685-.814 1.986 0 3.552.466 4.699 1.397 1.146.932 1.935 2.022 2.365 3.27l-3.655 1.536a3.66 3.66 0 0 0-1.182-1.704c-.563-.46-1.285-.691-2.165-.691-.901 0-1.643.21-2.227.63-.583.42-.875.967-.875 1.643 0 .655.276 1.213.829 1.673.553.461 1.464.906 2.733 1.336l1.382.46c1.904.656 3.363 1.521 4.376 2.596 1.014 1.075 1.52 2.482 1.52 4.223 0 1.433-.368 2.646-1.105 3.639a6.765 6.765 0 0 1-2.84 2.226 9.065 9.065 0 0 1-3.578.737zm15.695-.245a6.314 6.314 0 0 1-2.15-.353c-.654-.236-1.187-.558-1.596-.968-.963-.921-1.444-2.231-1.444-3.93v-7.218h-2.733v-3.44h2.733v-4.422h4.023v4.423h3.84v3.44h-3.84v6.48c0 .798.174 1.37.523 1.719.286.327.778.491 1.474.491.389 0 .711-.05.967-.153a7.45 7.45 0 0 0 .998-.522v3.93a7.532 7.532 0 0 1-2.795.523zm11.704.245c-1.617 0-3.06-.363-4.33-1.09a7.744 7.744 0 0 1-2.964-2.979c-.706-1.259-1.06-2.677-1.06-4.253 0-1.556.354-2.969 1.06-4.238a7.714 7.714 0 0 1 2.964-2.995c1.27-.726 2.713-1.09 4.33-1.09 1.597 0 3.03.364 4.3 1.09a7.714 7.714 0 0 1 2.963 2.995c.706 1.27 1.06 2.682 1.06 4.238 0 1.576-.354 2.994-1.06 4.253a7.744 7.744 0 0 1-2.964 2.98c-1.269.726-2.702 1.09-4.3 1.09zm0-3.716a4.31 4.31 0 0 0 2.15-.552 4.054 4.054 0 0 0 1.566-1.597c.389-.696.583-1.515.583-2.457 0-.922-.194-1.73-.583-2.426a4.054 4.054 0 0 0-1.566-1.597 4.31 4.31 0 0 0-2.15-.553 4.31 4.31 0 0 0-2.15.553c-.655.368-1.182.9-1.581 1.597-.4.696-.6 1.504-.6 2.426 0 .921.2 1.735.6 2.441.399.707.926 1.244 1.581 1.613a4.31 4.31 0 0 0 2.15.552zm9.83-12.437h3.777v2.088h.246c.39-.737.993-1.346 1.812-1.827a5.238 5.238 0 0 1 2.703-.722c.716 0 1.371.113 1.965.338v4.023a13.04 13.04 0 0 0-1.397-.445 5.12 5.12 0 0 0-1.213-.139c-1.188 0-2.13.43-2.826 1.29-.696.86-1.044 1.945-1.044 3.256v7.8h-4.023V50.39zm18.276 16.153c-1.556 0-2.959-.358-4.208-1.075a7.696 7.696 0 0 1-2.933-2.963c-.706-1.26-1.06-2.677-1.06-4.253a8.57 8.57 0 0 1 1.045-4.162 8.041 8.041 0 0 1 2.887-3.055c1.228-.758 2.6-1.137 4.115-1.137 1.618 0 3.01.348 4.177 1.044a6.808 6.808 0 0 1 2.656 2.856c.604 1.208.906 2.55.906 4.024 0 .47-.03.92-.092 1.35h-11.762c.205 1.25.701 2.197 1.49 2.842.788.644 1.734.967 2.84.967.921 0 1.715-.2 2.38-.599a4.423 4.423 0 0 0 1.582-1.612l3.255 1.597c-1.597 2.784-4.023 4.176-7.278 4.176zm3.716-10.226c-.041-.492-.22-.978-.538-1.459-.317-.481-.757-.88-1.32-1.198-.563-.317-1.224-.476-1.981-.476-.962 0-1.787.282-2.472.845-.686.563-1.183 1.325-1.49 2.288h7.8z" fill="#022B69" fill-rule="nonzero"></path></g></svg>