<svg viewbox="0 0 200 56" xmlns="http://www.w3.org/2000/svg"><g fill="none" fill-rule="evenodd"><path d="M7.954 0h182.227c2.656 0 3.62.277 4.59.796a5.415 5.415 0 0 1 2.253 2.252c.52.972.796 1.935.796 4.591V57.91c0 2.656-.277 3.62-.796 4.59a5.415 5.415 0 0 1-2.252 2.253c-.972.52-1.935.796-4.591.796H7.954c-2.656 0-3.62-.276-4.59-.796a5.415 5.415 0 0 1-2.253-2.252c-.52-.972-.796-1.935-.796-4.591V7.64c0-2.657.277-3.62.796-4.592A5.415 5.415 0 0 1 3.363.796C4.335.276 5.298 0 7.954 0z" fill="#022B69"></path><path d="M44.572 31.173c-.04-4.278 3.587-6.359 3.753-6.456-2.054-2.923-5.237-3.323-6.356-3.355-2.674-.274-5.268 1.562-6.63 1.562-1.389 0-3.487-1.535-5.747-1.49-2.91.044-5.63 1.688-7.123 4.242-3.08 5.206-.783 12.857 2.168 17.065 1.476 2.063 3.201 4.363 5.46 4.282 2.208-.088 3.033-1.374 5.699-1.374 2.641 0 3.416 1.374 5.719 1.322 2.37-.036 3.863-2.07 5.288-4.15 1.706-2.36 2.39-4.689 2.418-4.808-.054-.019-4.603-1.715-4.649-6.84zm-4.35-12.58c1.188-1.45 2.001-3.423 1.775-5.426-1.72.074-3.87 1.161-5.108 2.58-1.096 1.25-2.074 3.3-1.822 5.226 1.932.141 3.915-.951 5.155-2.38zm34.162-4.54h3.032c.98 0 1.836.198 2.57.595a4.116 4.116 0 0 1 1.688 1.675c.392.72.589 1.543.589 2.47 0 .927-.197 1.75-.59 2.47a4.116 4.116 0 0 1-1.688 1.675c-.733.397-1.589.596-2.569.596h-3.032v-9.482zm3.006 8.064c1.059 0 1.887-.294 2.483-.88.595-.588.893-1.402.893-2.444 0-1.033-.298-1.845-.893-2.437-.596-.591-1.424-.887-2.483-.887h-1.523v6.648h1.523zm9.296 1.628c-.68 0-1.29-.156-1.828-.47a3.306 3.306 0 0 1-1.258-1.29 3.737 3.737 0 0 1-.45-1.828c0-.671.15-1.28.45-1.828.3-.547.72-.977 1.258-1.29.539-.314 1.148-.47 1.828-.47.68 0 1.289.158 1.827.476.539.318.958.75 1.258 1.298.3.547.45 1.152.45 1.814 0 .67-.15 1.28-.45 1.827-.3.548-.72.978-1.258 1.291-.538.314-1.148.47-1.827.47zm0-1.337c.37 0 .715-.09 1.033-.271.317-.181.571-.442.761-.782.19-.34.285-.74.285-1.198 0-.46-.095-.857-.285-1.192a2.008 2.008 0 0 0-.761-.775 2.052 2.052 0 0 0-1.033-.271c-.371 0-.715.09-1.033.271-.318.181-.572.44-.762.775-.19.335-.284.733-.284 1.192 0 .459.095.858.284 1.198.19.34.444.6.762.782.318.18.662.271 1.033.271zm3.986-5.628h1.575l1.364 4.833h.053l1.523-4.833h1.497l1.51 4.833h.052l1.364-4.833h1.55L99 23.534h-1.536l-1.55-4.847h-.04l-1.535 4.847h-1.51l-2.158-6.754zm11.428 0h1.39v.887h.066c.195-.318.484-.58.868-.788a2.54 2.54 0 0 1 1.225-.31c.82 0 1.445.24 1.873.72.429.482.643 1.138.643 1.967v4.278h-1.457v-4.079c0-.53-.13-.918-.39-1.165-.261-.248-.62-.371-1.08-.371-.327 0-.618.09-.874.271a1.807 1.807 0 0 0-.596.722c-.141.3-.212.622-.212.967v3.655H102.1V16.78zm7.707-2.728h1.456v9.482h-1.456v-9.482zm6.263 9.693c-.68 0-1.289-.156-1.827-.47a3.306 3.306 0 0 1-1.258-1.29 3.737 3.737 0 0 1-.45-1.828c0-.671.15-1.28.45-1.828.3-.547.72-.977 1.258-1.29.538-.314 1.147-.47 1.827-.47.68 0 1.29.158 1.828.476.538.318.958.75 1.258 1.298.3.547.45 1.152.45 1.814 0 .67-.15 1.28-.45 1.827-.3.548-.72.978-1.258 1.291-.539.314-1.148.47-1.828.47zm0-1.337c.371 0 .715-.09 1.033-.271.318-.181.572-.442.762-.782.19-.34.284-.74.284-1.198 0-.46-.095-.857-.284-1.192a2.008 2.008 0 0 0-.762-.775 2.052 2.052 0 0 0-1.033-.271c-.37 0-.715.09-1.033.271-.317.181-.571.44-.761.775-.19.335-.285.733-.285 1.192 0 .459.095.858.285 1.198.19.34.444.6.761.782.318.18.662.271 1.033.271zm6.992 1.337c-.485 0-.918-.094-1.298-.284-.38-.19-.675-.46-.887-.808a2.237 2.237 0 0 1-.318-1.185c0-.698.263-1.25.788-1.655.526-.407 1.19-.61 1.993-.61.397 0 .755.038 1.073.113.318.075.57.157.755.245v-.344c0-.415-.155-.753-.464-1.013-.309-.26-.706-.391-1.192-.391-.344 0-.668.075-.973.225-.305.15-.55.358-.735.622l-1.02-.78a3.04 3.04 0 0 1 1.166-.968 3.615 3.615 0 0 1 1.589-.344c.98 0 1.735.24 2.264.722.53.481.795 1.159.795 2.033v4.21h-1.43v-.807h-.067a2.285 2.285 0 0 1-.82.728c-.354.194-.76.291-1.219.291zm.252-1.205c.353 0 .67-.083.953-.251a1.833 1.833 0 0 0 .9-1.59 2.964 2.964 0 0 0-.708-.277 3.3 3.3 0 0 0-.84-.106c-.548 0-.95.108-1.206.324a1.05 1.05 0 0 0-.384.841c0 .309.12.563.358.761.238.2.547.298.927.298zm7.693 1.205a3.06 3.06 0 0 1-1.655-.463 3.28 3.28 0 0 1-1.172-1.278c-.287-.543-.43-1.159-.43-1.847 0-.689.143-1.305.43-1.847a3.28 3.28 0 0 1 1.172-1.278 3.06 3.06 0 0 1 1.655-.464c.477 0 .905.106 1.285.318.38.212.666.472.86.781h.067l-.066-.953v-2.662h1.456v9.482h-1.39v-.874h-.066c-.195.3-.481.556-.861.768a2.59 2.59 0 0 1-1.285.317zm.212-1.337c.353 0 .682-.093.987-.278.304-.185.55-.45.735-.795.185-.344.278-.737.278-1.178 0-.442-.093-.832-.278-1.172a2.045 2.045 0 0 0-.735-.788 1.898 1.898 0 0 0-1.98 0 2.028 2.028 0 0 0-.741.788c-.186.34-.278.73-.278 1.172 0 .441.092.834.278 1.178.185.345.432.61.741.795.31.185.64.278.993.278zm11.349 1.337c-.68 0-1.289-.156-1.827-.47a3.306 3.306 0 0 1-1.258-1.29 3.737 3.737 0 0 1-.45-1.828c0-.671.15-1.28.45-1.828.3-.547.719-.977 1.258-1.29.538-.314 1.147-.47 1.827-.47.68 0 1.289.158 1.827.476.539.318.958.75 1.258 1.298.3.547.45 1.152.45 1.814 0 .67-.15 1.28-.45 1.827-.3.548-.72.978-1.258 1.291-.538.314-1.147.47-1.827.47zm0-1.337c.37 0 .715-.09 1.033-.271.318-.181.571-.442.761-.782.19-.34.285-.74.285-1.198 0-.46-.095-.857-.285-1.192a2.008 2.008 0 0 0-.761-.775 2.052 2.052 0 0 0-1.033-.271c-.37 0-.715.09-1.033.271-.318.181-.572.44-.761.775-.19.335-.285.733-.285 1.192 0 .459.095.858.285 1.198.19.34.443.6.761.782.318.18.662.271 1.033.271zm4.74-5.628h1.391v.887h.066c.195-.318.484-.58.868-.788a2.54 2.54 0 0 1 1.225-.31c.82 0 1.445.24 1.873.72.429.482.643 1.138.643 1.967v4.278h-1.457v-4.079c0-.53-.13-.918-.39-1.165-.261-.248-.62-.371-1.08-.371-.327 0-.618.09-.874.271a1.807 1.807 0 0 0-.596.722c-.141.3-.212.622-.212.967v3.655h-1.456V16.78zm13.574 6.86c-.3 0-.583-.049-.848-.146a1.86 1.86 0 0 1-.648-.384c-.38-.38-.57-.896-.57-1.55v-3.495h-1.178V16.78h1.178v-1.907h1.457v1.907h1.642v1.285h-1.642v3.178c0 .362.07.618.212.768.132.176.362.265.688.265.15 0 .283-.02.398-.06a1.66 1.66 0 0 0 .37-.192v1.417c-.291.132-.644.199-1.059.199zm2.49-9.588h1.456v2.582l-.066 1.033h.066c.194-.318.483-.58.868-.788a2.565 2.565 0 0 1 1.238-.31c.82 0 1.447.24 1.88.72.433.482.649 1.138.649 1.967v4.278h-1.457v-4.079c0-.512-.134-.896-.404-1.152-.269-.256-.62-.384-1.052-.384-.327 0-.62.093-.881.278-.26.185-.466.43-.616.735-.15.304-.225.629-.225.973v3.629h-1.456v-9.482zm10.832 9.693a3.446 3.446 0 0 1-1.781-.463 3.266 3.266 0 0 1-1.232-1.278c-.296-.543-.444-1.154-.444-1.834 0-.644.144-1.242.43-1.794a3.385 3.385 0 0 1 1.2-1.318 3.18 3.18 0 0 1 1.747-.49c.68 0 1.27.15 1.768.45.499.3.878.711 1.139 1.232.26.52.39 1.108.39 1.761 0 .124-.013.278-.04.464h-5.177c.053.626.276 1.11.669 1.45.393.34.85.51 1.37.51.415 0 .775-.095 1.08-.285.304-.19.55-.448.735-.775l1.231.583a3.628 3.628 0 0 1-1.245 1.31c-.512.319-1.125.477-1.84.477zm1.734-4.383a1.683 1.683 0 0 0-.225-.708 1.611 1.611 0 0 0-.602-.59c-.27-.158-.598-.238-.987-.238-.468 0-.863.14-1.185.417-.322.278-.545.651-.669 1.12h3.668zM78.323 32.566h3.576l6.207 16.52h-3.438l-1.385-3.945h-6.322l-1.384 3.945h-3.438l6.184-16.52zm3.945 9.714l-1.453-4.153-.6-1.985h-.185l-.6 1.985-1.476 4.153h4.314zm6.74-4.961h2.838v1.43h.184c.323-.507.793-.934 1.408-1.28.615-.346 1.323-.52 2.123-.52 1.06 0 2.026.266 2.895.797.87.53 1.55 1.273 2.042 2.226.492.954.739 2.03.739 3.23 0 1.216-.247 2.296-.739 3.243-.492.946-1.173 1.684-2.042 2.215-.869.53-1.834.796-2.895.796-.8 0-1.512-.17-2.135-.508-.623-.338-1.088-.761-1.396-1.27h-.184l.184 1.662v4.73h-3.022V37.32zm6.022 9.345c.569 0 1.1-.146 1.592-.439.492-.292.884-.7 1.177-1.223.292-.523.438-1.122.438-1.8 0-.676-.146-1.276-.438-1.799a3.129 3.129 0 0 0-1.177-1.211 3.127 3.127 0 0 0-1.592-.427c-.554 0-1.077.142-1.57.427a3.129 3.129 0 0 0-1.176 1.211c-.292.523-.438 1.123-.438 1.8s.146 1.276.438 1.8c.292.522.685.93 1.177 1.222a3.024 3.024 0 0 0 1.569.439zm7.27-9.345h2.838v1.43h.185c.323-.507.792-.934 1.407-1.28s1.323-.52 2.123-.52c1.061 0 2.026.266 2.896.797.869.53 1.55 1.273 2.042 2.226.492.954.738 2.03.738 3.23 0 1.216-.246 2.296-.738 3.243-.493.946-1.173 1.684-2.042 2.215-.87.53-1.835.796-2.896.796-.8 0-1.511-.17-2.134-.508-.623-.338-1.089-.761-1.396-1.27h-.185l.185 1.662v4.73H102.3V37.32zm6.022 9.345c.57 0 1.1-.146 1.592-.439.492-.292.885-.7 1.177-1.223.292-.523.438-1.122.438-1.8 0-.676-.146-1.276-.438-1.799a3.129 3.129 0 0 0-1.177-1.211 3.127 3.127 0 0 0-1.592-.427c-.554 0-1.077.142-1.569.427a3.129 3.129 0 0 0-1.177 1.211c-.292.523-.438 1.123-.438 1.8s.146 1.276.438 1.8c.293.522.685.93 1.177 1.222a3.024 3.024 0 0 0 1.57.439zm16.756 2.792c-1.446 0-2.723-.408-3.83-1.223-1.108-.816-1.885-1.97-2.331-3.461l2.93-1.154c.231.877.623 1.577 1.177 2.1.554.523 1.246.784 2.077.784.692 0 1.284-.173 1.776-.519.493-.346.739-.827.739-1.442a1.88 1.88 0 0 0-.704-1.511c-.47-.393-1.304-.812-2.504-1.258l-1.015-.369a7.012 7.012 0 0 1-2.722-1.696c-.754-.761-1.131-1.719-1.131-2.873 0-.86.223-1.645.67-2.353.445-.708 1.076-1.265 1.891-1.673.815-.407 1.738-.611 2.769-.611 1.492 0 2.669.35 3.53 1.05.862.7 1.454 1.519 1.777 2.457l-2.746 1.154a2.75 2.75 0 0 0-.888-1.281c-.423-.346-.965-.52-1.627-.52-.677 0-1.234.159-1.673.474-.438.315-.657.727-.657 1.234 0 .493.207.912.623 1.258.415.346 1.1.68 2.053 1.003l1.038.347c1.431.492 2.527 1.142 3.288 1.95.762.807 1.143 1.864 1.143 3.172 0 1.077-.277 1.988-.831 2.734a5.083 5.083 0 0 1-2.134 1.673 6.81 6.81 0 0 1-2.688.554zm11.792-.185a4.744 4.744 0 0 1-1.615-.265c-.492-.177-.892-.42-1.2-.727-.723-.692-1.084-1.677-1.084-2.954v-5.422h-2.054V37.32h2.054v-3.323h3.022v3.323h2.884v2.584h-2.884v4.869c0 .6.131 1.03.393 1.292.215.246.584.369 1.107.369.292 0 .535-.038.727-.115.192-.077.442-.208.75-.393v2.954a5.659 5.659 0 0 1-2.1.392zm8.793.185c-1.215 0-2.3-.273-3.253-.82a5.818 5.818 0 0 1-2.227-2.238c-.53-.946-.796-2.01-.796-3.195 0-1.17.266-2.23.796-3.184a5.795 5.795 0 0 1 2.227-2.25c.954-.546 2.038-.82 3.253-.82 1.2 0 2.277.274 3.23.82a5.795 5.795 0 0 1 2.227 2.25c.53.953.796 2.015.796 3.184 0 1.184-.265 2.25-.796 3.195a5.818 5.818 0 0 1-2.227 2.238c-.953.547-2.03.82-3.23.82zm0-2.792c.585 0 1.123-.139 1.615-.416a3.046 3.046 0 0 0 1.177-1.2c.292-.522.438-1.138.438-1.845 0-.692-.146-1.3-.438-1.823a3.046 3.046 0 0 0-1.177-1.2 3.238 3.238 0 0 0-1.615-.415c-.584 0-1.123.138-1.615.415a3.125 3.125 0 0 0-1.188 1.2c-.3.523-.45 1.13-.45 1.823 0 .692.15 1.303.45 1.834.3.53.696.935 1.188 1.211.492.277 1.03.416 1.615.416zm7.386-9.345h2.838v1.569h.184c.293-.554.746-1.011 1.362-1.373a3.935 3.935 0 0 1 2.03-.542c.538 0 1.03.085 1.477.254v3.022a9.797 9.797 0 0 0-1.05-.334 3.847 3.847 0 0 0-.911-.104c-.893 0-1.6.323-2.123.969-.523.646-.785 1.461-.785 2.446v5.86h-3.022V37.32zm13.73 12.137c-1.169 0-2.222-.27-3.16-.808a5.782 5.782 0 0 1-2.204-2.227c-.53-.946-.796-2.01-.796-3.195 0-1.123.261-2.165.784-3.127a6.041 6.041 0 0 1 2.17-2.295c.922-.57 1.953-.854 3.091-.854 1.215 0 2.261.261 3.138.784a5.115 5.115 0 0 1 1.996 2.146c.454.908.68 1.915.68 3.023 0 .354-.023.692-.069 1.015h-8.837c.154.938.527 1.65 1.12 2.134.591.485 1.303.727 2.134.727.692 0 1.288-.15 1.788-.45.5-.3.896-.704 1.188-1.211l2.446 1.2c-1.2 2.092-3.023 3.138-5.469 3.138zm2.792-7.684c-.03-.369-.165-.734-.404-1.096a2.817 2.817 0 0 0-.992-.9c-.423-.238-.919-.357-1.488-.357-.723 0-1.342.211-1.857.634-.516.423-.889.996-1.12 1.72h5.861z" fill="#FFF" fill-rule="nonzero"></path></g></svg>