<svg height="32" version="1.1" viewbox="0 0 32 32" width="32" xmlns="http://www.w3.org/2000/svg">
<title>instagram</title>
<path d="M23.041 0c4.843 0 8.782 3.94 8.782 8.782v14.259c0 4.842-3.94 8.782-8.782 8.782h-14.259c-4.842 0-8.782-3.94-8.782-8.782v-14.259c0-4.842 3.94-8.782 8.782-8.782h14.259zM29 23.041h-0v-14.259c0-3.285-2.673-5.959-5.959-5.959h-14.259c-3.285 0-5.958 2.673-5.958 5.959v14.259c0 3.286 2.673 5.959 5.958 5.959h14.259c3.286 0 5.959-2.673 5.959-5.959zM15.912 7.712c4.522 0 8.2 3.678 8.2 8.2s-3.678 8.2-8.2 8.2-8.2-3.678-8.2-8.2c0-4.522 3.678-8.2 8.2-8.2zM15.912 21.288c2.965 0 5.377-2.412 5.377-5.376s-2.412-5.377-5.377-5.377-5.377 2.412-5.377 5.377c0 2.965 2.412 5.376 5.377 5.376zM24.456 5.318c0.546 0 1.080 0.22 1.464 0.606 0.386 0.384 0.606 0.919 0.606 1.464 0 0.544-0.22 1.079-0.606 1.464-0.386 0.384-0.919 0.606-1.464 0.606-0.544 0-1.079-0.222-1.463-0.606-0.386-0.386-0.608-0.92-0.608-1.464 0-0.546 0.222-1.080 0.608-1.464 0.384-0.386 0.919-0.606 1.463-0.606z" fill="#022B69"></path>
</svg>