<svg height="18" preserveaspectratio="xMidYMid meet" viewbox="0 0 26 26" width="18">
<path d="M 13 0 C 20.18 0 26 5.82 26 13 C 26 20.18 20.18 26 13 26 C 5.82 26 0 20.18 0 13 C 0 5.82 5.82 0 13 0 Z M 12 16.586 L 9.739 14.325 C 9.349 13.935 8.716 13.935 8.325 14.325 C 7.935 14.716 7.935 15.349 8.325 15.739 L 12.285 19.699 C 12.485 19.9 12.75 19.997 13.012 19.992 C 13.275 19.997 13.539 19.9 13.739 19.699 L 17.699 15.739 C 18.09 15.349 18.09 14.716 17.699 14.325 C 17.309 13.935 16.675 13.935 16.285 14.325 L 14 16.61 L 14 7 C 14 6.448 13.552 6 13 6 C 12.448 6 12 6.448 12 7 Z" fill="#FFF"></path>
</svg>