<svg height="32" version="1.1" viewbox="0 0 39 32" width="39" xmlns="http://www.w3.org/2000/svg">
<title>twitter</title>
<path d="M39 3.788c-1.45 0.642-2.996 1.068-4.607 1.275 1.657-0.999 2.923-2.57 3.517-4.463-1.545 0.93-3.252 1.588-5.070 1.954-1.467-1.578-3.559-2.555-5.84-2.555-4.427 0-7.99 3.628-7.99 8.076 0 0.64 0.054 1.255 0.185 1.841-6.647-0.327-12.529-3.545-16.48-8.446-0.69 1.209-1.094 2.592-1.094 4.081 0 2.796 1.426 5.275 3.551 6.71-1.285-0.025-2.545-0.401-3.612-0.994 0 0.025 0 0.057 0 0.089 0 3.924 2.771 7.183 6.406 7.934-0.651 0.18-1.36 0.266-2.096 0.266-0.512 0-1.029-0.030-1.514-0.138 1.036 3.198 3.976 5.548 7.471 5.625-2.72 2.149-6.174 3.444-9.913 3.444-0.656 0-1.285-0.030-1.913-0.111 3.542 2.306 7.739 3.623 12.265 3.623 14.713 0 22.756-12.308 22.756-22.976 0-0.357-0.012-0.702-0.029-1.044 1.587-1.137 2.92-2.558 4.007-4.192z" fill="#022B69"></path>
</svg>