<svg data-bbox="-0.002 0 1101.602 527.81" data-type="color" height="527.81" preserveaspectratio="xMidYMid meet" role="img" viewbox="-0.002 0 1101.602 527.81" width="1101.6" xmlns="http://www.w3.org/2000/svg">
<g>
<g>
<path d="M722.48 21.87c-53.28 21.35-115 82.48-136.56 135.65-68.14 167.64 26.93 328.65 172.41 370.29C712.76 509 682 471 682 414.89c0-83.13 150.52-232.25 150.52-232.25S983 331.76 983 414.89c0 56.11-30.73 94.11-76.29 112.92C1019.24 495.6 1101.6 392 1101.6 269.09 1101.6 85 916.71-55.94 722.48 21.87z" data-color="1" fill="#ffffff"></path>
<path d="M146.25 220q0 19.31-5.55 33.59a63.21 63.21 0 0 1-15.61 23.67 63.87 63.87 0 0 1-24.46 14 104 104 0 0 1-31.87 4.62 129.06 129.06 0 0 1-35.83-5.29 98.23 98.23 0 0 1-31.87-15.35l21.68-31a63.78 63.78 0 0 0 21 12.57A67.16 67.16 0 0 0 66.38 261q19.05 0 28.17-10t9.12-26.72v-7.93h-.79A42.72 42.72 0 0 1 86.48 229a55.48 55.48 0 0 1-23.54 4.76q-15.07 0-26.71-5.42a58.41 58.41 0 0 1-19.7-14.68 64 64 0 0 1-12.3-21.55A79.53 79.53 0 0 1 0 166a80.75 80.75 0 0 1 4.23-26.18 66.91 66.91 0 0 1 12.3-22A58.72 58.72 0 0 1 62.68 97a58.27 58.27 0 0 1 23.8 5 41.3 41.3 0 0 1 18.25 15.6h.53v-16.91h41zM105 165.75a36.56 36.56 0 0 0-2.24-12.7 32.59 32.59 0 0 0-6.48-10.71 30.86 30.86 0 0 0-10-7.27A31.7 31.7 0 0 0 73 132.42a30.75 30.75 0 0 0-13.09 2.65 28.89 28.89 0 0 0-9.65 7.14 31.25 31.25 0 0 0-6.08 10.58 38.93 38.93 0 0 0-2.12 13 38.07 38.07 0 0 0 2.12 12.69 32.65 32.65 0 0 0 6.08 10.71A28.86 28.86 0 0 0 73 199.33a31.07 31.07 0 0 0 23.4-10.05 32 32 0 0 0 6.35-10.57 37.32 37.32 0 0 0 2.25-12.96z" data-color="1" fill="#ffffff"></path>
<path d="M299.11 166a71.11 71.11 0 0 1-5.82 29.22 65.51 65.51 0 0 1-15.87 22.22 72.74 72.74 0 0 1-23.27 14.15 81.89 81.89 0 0 1-56.46 0 70.88 70.88 0 0 1-23.28-14.15 66.27 66.27 0 0 1-15.73-22.22 71.11 71.11 0 0 1-5.82-29.22 70.26 70.26 0 0 1 5.82-29.09A65.16 65.16 0 0 1 174.41 115a68.48 68.48 0 0 1 23.28-13.75 86.09 86.09 0 0 1 56.46 0A70.2 70.2 0 0 1 277.42 115a64.43 64.43 0 0 1 15.87 21.95 70.26 70.26 0 0 1 5.82 29.05zm-41.79 0a37.62 37.62 0 0 0-2.11-12.43 33.06 33.06 0 0 0-6.09-10.71 31.07 31.07 0 0 0-9.78-7.54 30.37 30.37 0 0 0-36.63 7.54 32.46 32.46 0 0 0-5.82 10.71 40 40 0 0 0 0 24.86 34.2 34.2 0 0 0 6 11 29.37 29.37 0 0 0 9.79 7.8 32.7 32.7 0 0 0 27 0 29.27 29.27 0 0 0 9.79-7.8 34 34 0 0 0 6-11 39.9 39.9 0 0 0 1.85-12.43z" data-color="1" fill="#ffffff"></path>
<path d="M306 232.39V32.45h44.17v199.94z" data-color="1" fill="#ffffff"></path>
<path d="M462.81 232.39V215.2h-.53a41.14 41.14 0 0 1-18.11 15.47 59.12 59.12 0 0 1-25 5.42 58.41 58.41 0 0 1-26.44-5.81A60.86 60.86 0 0 1 373 214.81a67.82 67.82 0 0 1-12.29-22.35 82.88 82.88 0 0 1-4.22-26.46 79.59 79.59 0 0 1 4.37-26.31 68.6 68.6 0 0 1 12.43-22.09A58 58 0 0 1 418.64 97q14.55 0 24.6 5.55t15.6 12.16h.53V32.45h43.38v199.94zm-1.59-66.11a35.73 35.73 0 0 0-2.22-12.43 35.26 35.26 0 0 0-6.37-10.85 31.84 31.84 0 0 0-9.92-7.67 29.17 29.17 0 0 0-13.22-2.91 29.77 29.77 0 0 0-13.49 2.91 30.41 30.41 0 0 0-15.74 18.25 40 40 0 0 0-2 12.43 41.14 41.14 0 0 0 2 12.56 32.51 32.51 0 0 0 5.95 11 30.18 30.18 0 0 0 9.79 7.67 29.77 29.77 0 0 0 13.49 2.91 29.17 29.17 0 0 0 13.22-2.91 31.69 31.69 0 0 0 9.92-7.67 35.33 35.33 0 0 0 6.37-10.86 35.81 35.81 0 0 0 2.22-12.43z" data-color="1" fill="#ffffff"></path>
<path d="M290.64 270.65a40.23 40.23 0 0 0-11.9-1.85 19.59 19.59 0 0 0-9.78 2.12 15.59 15.59 0 0 0-5.82 5.69 23.83 23.83 0 0 0-2.91 8.06 51.6 51.6 0 0 0-.79 9v13.23h29.35v32.26h-29.35v99.44h-43.38v-99.45H192v-32.26h24.06v-12.7a98.14 98.14 0 0 1 2.65-23.14 50.2 50.2 0 0 1 9.12-19.31 44.69 44.69 0 0 1 17.46-13.22q11-4.89 27.37-4.89a90.63 90.63 0 0 1 11 .66 61.71 61.71 0 0 1 9.92 2z" data-color="1" fill="#ffffff"></path>
<path d="M349.62 264.84a22.38 22.38 0 0 1-2 9.38 23.75 23.75 0 0 1-13.23 12.57 25.8 25.8 0 0 1-9.65 1.85 24.31 24.31 0 0 1-17.72-7 22.69 22.69 0 0 1-7.14-16.79 23.21 23.21 0 0 1 1.85-9.13 21.65 21.65 0 0 1 5.29-7.54A28.6 28.6 0 0 1 315 243a24 24 0 0 1 9.79-2 25.61 25.61 0 0 1 9.65 1.86 23.69 23.69 0 0 1 13.23 12.56 22.46 22.46 0 0 1 1.95 9.42zm-46.55 173.75v-131.7h43.38v131.7z" data-color="1" fill="#ffffff"></path>
<path d="M502.74 426.16q0 19.3-5.55 33.59a63.07 63.07 0 0 1-15.6 23.67 64 64 0 0 1-24.47 14 104 104 0 0 1-31.87 4.62 129.11 129.11 0 0 1-35.83-5.29 98.23 98.23 0 0 1-31.87-15.33l21.69-30.95a63.44 63.44 0 0 0 21 12.56 66.93 66.93 0 0 0 22.61 4.1q19 0 28.17-10t9.12-26.71v-7.93h-.79A42.72 42.72 0 0 1 443 435.15a55.44 55.44 0 0 1-23.53 4.76q-15.07 0-26.72-5.42A58.41 58.41 0 0 1 373 419.81a64 64 0 0 1-12.3-21.55 79.53 79.53 0 0 1-4.23-26.05 80.7 80.7 0 0 1 4.25-26.21A66.81 66.81 0 0 1 373 324.08a58.77 58.77 0 0 1 46.15-20.9 58.24 58.24 0 0 1 23.8 5 41.24 41.24 0 0 1 18.25 15.6h.53v-16.89h41zM461.49 372a36.57 36.57 0 0 0-2.25-12.7 32.42 32.42 0 0 0-6.48-10.71 30.65 30.65 0 0 0-10.05-7.27 31.68 31.68 0 0 0-13.22-2.65 30.8 30.8 0 0 0-13.1 2.65 29 29 0 0 0-9.65 7.14 31.41 31.41 0 0 0-6.08 10.54 39.14 39.14 0 0 0-2.12 13 38.32 38.32 0 0 0 2.12 12.69 32.83 32.83 0 0 0 6.08 10.71 28.86 28.86 0 0 0 22.75 10.18 31.07 31.07 0 0 0 23.4-10 32 32 0 0 0 6.35-10.57 37.33 37.33 0 0 0 2.25-13.01z" data-color="1" fill="#ffffff"></path>
</g>
</g>
</svg>