<svg data-bbox="0.001 0 81.697 81.098" data-type="color" height="81.098" preserveaspectratio="xMidYMid meet" role="img" viewbox="0.001 0 81.697 81.098" width="81.698" xmlns="http://www.w3.org/2000/svg">
<g>
<g>
<path d="M15.744 8.344c-.243 0-.606.2-.6.446v6.7l-3.528 1.683-.2.673.568.259 3.163-1.487v.706l-3.531 1.61-.2.592.563.211s.083.154.085.153l3.083-1.4v7.872c0 .243.367.436.609.436a11.357 11.357 0 0 0 4.59-1.145c2.3-1.151 4.636-3.541 4.636-8.081a.668.668 0 0 0-.588-.525c-.243 0-.6.282-.6.525 0 4.247-1.828 5.961-3.919 7.007a9.286 9.286 0 0 1-3.555 1.074v-7.642l5.352-2.519a2.834 2.834 0 0 0 .223-.733 3.513 3.513 0 0 0-.61-.218l-4.965 2.281v-.606l5.352-2.486.228-.682-.617-.267-4.964 2.306v-6.3c0-.119-.453-.448-.572-.446z" data-color="1" fill="#000000"></path>
<path d="M17.809 0A17.812 17.812 0 0 0 5.2 5.129a17.492 17.492 0 0 0 0 24.887 18.067 18.067 0 0 0 25.222 0 17.492 17.492 0 0 0 0-24.887A17.812 17.812 0 0 0 17.809 0zm11.216 28.639a15.955 15.955 0 0 1-22.43 0 15.576 15.576 0 0 1-4.669-11.066A15.3 15.3 0 0 1 6.595 6.507 16 16 0 0 1 17.809 1.9a15.836 15.836 0 0 1 15.884 15.673 15.3 15.3 0 0 1-4.668 11.066z" data-color="1" fill="#000000"></path>
</g>
<g>
<path d="M63.409 0A17.812 17.812 0 0 0 50.8 5.129a17.492 17.492 0 0 0 0 24.887 18.067 18.067 0 0 0 25.222 0 17.492 17.492 0 0 0 0-24.887A17.812 17.812 0 0 0 63.409 0zm11.216 28.639a15.955 15.955 0 0 1-22.43 0 15.576 15.576 0 0 1-4.669-11.066 15.3 15.3 0 0 1 4.669-11.066A16 16 0 0 1 63.409 1.9a15.836 15.836 0 0 1 15.884 15.673 15.3 15.3 0 0 1-4.668 11.066z" data-color="1" fill="#000000"></path>
<path d="M58.135 11.527l6.078.048c.63 0 .348 2.291.638 2.775h-6.716v1.277h6.374a2.836 2.836 0 0 1-2.014 1.824h-4.571l7.284 7.817.775-1.3-4.875-5.284h1.388a4.675 4.675 0 0 0 3.488-3.052h2.76v-1.233h-2.471c-.1-.291-.194-2.581-.291-2.824h2.762v-1.276H58.135z" data-color="1" fill="#000000"></path>
</g>
<g>
<path d="M18.173 45a17.573 17.573 0 1 0 17.572 17.573A17.593 17.593 0 0 0 18.173 45zm0 33.241a15.669 15.669 0 1 1 15.668-15.668 15.686 15.686 0 0 1-15.668 15.668z" data-color="1" fill="#000000"></path>
<path d="M24.872 55.016l-6.758 7.83-6.758-7.83c-.361-.418-.992-1.465-1.41-1.1a1 1 0 0 0-.1 1.41l7.089 8.055h-3.089c-.552 0-1-.087-1 .466s.448.534 1 .534h3.655v4.035h-3.655c-.552 0-1-.084-1 .469s.448.531 1 .531h3.655v4.341c0 .552.061 1 .613 1s.753-.448.753-1v-4.35h3.516c.552 0 1 .021 1-.531s-.448-.469-1-.469h-3.517v-4.034h3.516c.552 0 1 .018 1-.534s-.448-.466-1-.466h-3.085l7.088-8.057a1 1 0 0 0-.1-1.41c-.421-.359-1.052.688-1.413 1.11z" data-color="1" fill="#000000"></path>
</g>
<g>
<g>
<path d="M63.65 45a18.049 18.049 0 1 0 18.048 18.05A18.069 18.069 0 0 0 63.65 45zm0 34.5A16.452 16.452 0 1 1 80.1 63.05 16.47 16.47 0 0 1 63.65 79.5z" data-color="2" fill="#1d1c1a"></path>
<path d="M73.309 61.763a.8.8 0 0 0 0-1.6h-2.958v-6.178a.8.8 0 1 0-1.6 0v6.181H62.98l-4.156-6.607a.8.8 0 0 0-1.475.426v6.181h-3.36a.8.8 0 0 0 0 1.6h3.361v2.7h-3.361a.8.8 0 0 0 0 1.6h3.361v6.048a.8.8 0 0 0 1.6 0v-6.057h5.852l4.078 6.483a.8.8 0 0 0 1.474-.426v-6.057h2.958a.8.8 0 0 0 0-1.6h-2.961v-2.7zm-14.362-5.009l2.146 3.412h-2.146zm0 7.7v-2.7h3.151l1.7 2.7zm9.807 4.885l-2.068-3.287h2.068zm0-4.885h-3.073l-1.7-2.7h4.769z" data-color="2" fill="#1d1c1a"></path>
</g>
</g>
</g>
</svg>