<svg data-bbox="0 14.2 490.1 461.7" data-type="shape" preserveaspectratio="xMidYMid meet" role="img" viewbox="0 14.2 490.1 461.7" xmlns="http://www.w3.org/2000/svg">
<g>
<path d="M385.9 14.2H104.3c-28.2 0-51.1 22.9-51.1 51.1v233.1l-32.3-32.3c-4.8-4.8-12.5-4.8-17.3 0s-4.8 12.5 0 17.3l53.3 53.3c2.4 2.4 5.5 3.6 8.7 3.6s6.3-1.2 8.7-3.6l53.3-53.3c4.8-4.8 4.8-12.5 0-17.3-4.8-4.8-12.5-4.8-17.3 0l-32.4 32.4V65.3c0-14.7 11.9-26.6 26.6-26.6H386c14.7 0 26.6 11.9 26.6 26.6v34c0 6.8 5.5 12.3 12.3 12.3s12.3-5.5 12.3-12.3v-34c-.3-28.1-23.2-51.1-51.3-51.1z"></path>
<path d="M416 153.5l-53.3 53.3c-4.8 4.8-4.8 12.5 0 17.3 2.4 2.4 5.5 3.6 8.7 3.6s6.3-1.2 8.7-3.6l32.4-32.4v233.1c0 14.7-11.9 26.6-26.6 26.6H104.3c-14.7 0-26.6-11.9-26.6-26.6v-34c0-6.8-5.5-12.3-12.3-12.3s-12.3 5.5-12.3 12.3v34c0 28.2 22.9 51.1 51.1 51.1h281.5c28.2 0 51.1-22.9 51.1-51.1V191.7l32.4 32.4c4.8 4.8 12.5 4.8 17.3 0s4.8-12.5 0-17.3l-53.3-53.3c-4.4-4.6-12.6-4.6-17.2 0z"></path>
<path d="M245.1 136.7c-6.8 0-12.3 5.5-12.3 12.3v18.8h-1.6c-23.4 0-42.5 20.1-42.5 44.7s19.1 44.7 42.5 44.7h27.6c9.9 0 18 9.1 18 20.2 0 11.2-8.1 20.2-18 20.2h-49.6c-6.8 0-12.3 5.5-12.3 12.3s5.5 12.3 12.3 12.3h23.6v19.1c0 6.8 5.5 12.3 12.3 12.3s12.3-5.5 12.3-12.3v-19.2h2.1c23.2-.3 41.9-20.3 41.9-44.7 0-24.7-19.1-44.7-42.5-44.7h-27.6c-9.9 0-18-9.1-18-20.2s8.1-20.2 18-20.2H280c6.8 0 12.3-5.5 12.3-12.3s-5.5-12.3-12.3-12.3h-22.6v-18.8c-.1-6.7-5.5-12.2-12.3-12.2z"></path>
</g>
</svg>