<svg data-bbox="0 0.006 59.746 64.006" data-type="shape" height="64.011" preserveaspectratio="none" role="img" viewbox="0 0.006 59.746 64.006" width="59.747" xmlns="http://www.w3.org/2000/svg">
<g>
<g>
<path d="M43.742 55.473h-25.6a2.134 2.134 0 0 1-2.138-2.13V35.207a2.134 2.134 0 0 1 2.134-2.134h25.6a2.134 2.134 0 0 1 2.134 2.134v18.136a2.134 2.134 0 0 1-2.13 2.13zm-25.6-20.27v18.14h25.6V35.207z"></path>
<path d="M35.206 59.743h-8.533a1.067 1.067 0 0 1-1.067-1.066V54.41a1.067 1.067 0 0 1 1.067-1.067h8.533a1.067 1.067 0 0 1 1.067 1.067v4.267a1.067 1.067 0 0 1-1.067 1.066zm-7.468-2.134h6.4v-2.132h-6.4z"></path>
<path d="M23.472 62.944h-2.134V60.81a1.067 1.067 0 0 1 1.067-1.067h.625l1.821-1.821a1.067 1.067 0 0 1 .754-.312h1.067v2.134h-.625l-1.821 1.821a1.067 1.067 0 0 1-.754.313z"></path>
<path d="M40.542 62.944h-2.134v-1.067a1.067 1.067 0 0 1-.754-.312l-1.821-1.821h-.625V57.61h1.067a1.067 1.067 0 0 1 .754.312l1.821 1.821h.625a1.067 1.067 0 0 1 1.067 1.067z"></path>
<path d="M42.676 61.878v2.134H19.205v-2.134h23.471z"></path>
<path d="M30.937 32.006a16 16 0 1 1 16-16 16 16 0 0 1-16 16zm0-29.872A13.869 13.869 0 1 0 44.809 16 13.869 13.869 0 0 0 30.937 2.134z"></path>
<path d="M32.007 1.067v29.872h-2.134V1.067h2.134z"></path>
<path d="M28.079 31.718c-4.945-4.615-7.452-9.716-7.452-15.162 0-9.209 7.148-15.986 7.452-16.27l1.456 1.559c-.067.064-6.783 6.452-6.775 14.723.005 4.826 2.284 9.4 6.773 13.587z"></path>
<path d="M33.091 31.718l-1.457-1.558c.068-.064 6.783-6.452 6.775-14.723 0-4.826-2.284-9.4-6.773-13.587L33.091.287c4.944 4.621 7.451 9.716 7.451 15.162 0 9.209-7.148 15.986-7.451 16.269z"></path>
<path d="M45.876 14.936v2.134H16.004v-2.134h29.872z"></path>
<path d="M43.743 7.468v2.134H18.138V7.468h25.605z"></path>
<path d="M43.743 22.404v2.134H18.138v-2.134h25.605z"></path>
<path d="M44.809 48.008v2.134H17.071v-2.134h27.738z"></path>
<path d="M53.657 21.024l-4.267-4.267a1.067 1.067 0 0 1 0-1.509l4.267-4.267 1.509 1.507-3.513 3.513 3.513 3.513z"></path>
<path d="M58.679 44.808H48.01v-2.134h9.6V18.136a.979.979 0 0 0-1.08-1.067h-6.386v-2.133h6.4a3.111 3.111 0 0 1 3.2 3.2v25.6a1.067 1.067 0 0 1-1.065 1.072z"></path>
<path d="M6.088 48.762l-1.507-1.508 3.513-3.513-3.513-3.515 1.507-1.507 4.267 4.267a1.067 1.067 0 0 1 0 1.509z"></path>
<path d="M9.601 44.808h-6.4a3.111 3.111 0 0 1-3.2-3.2v-25.6a1.067 1.067 0 0 1 1.067-1.072h10.668v2.134h-9.6v24.537a.979.979 0 0 0 1.08 1.067h6.385z"></path>
<path d="M8.536 29.871H6.403a2.134 2.134 0 0 1-2.134-2.133v-2.133a2.134 2.134 0 0 1 2.134-2.134h4.266a2.134 2.134 0 0 1 2.134 2.134v1.066h-2.134v-1.066H6.403v2.134h2.134z"></path>
<path d="M10.669 34.138H6.403a2.134 2.134 0 0 1-2.134-2.133v-1.067h2.134v1.067h4.266v-2.133H8.536v-2.134h2.133a2.134 2.134 0 0 1 2.134 2.134v2.134a2.134 2.134 0 0 1-2.134 2.132z"></path>
<path d="M9.603 21.337v3.201H7.469v-3.201h2.134z"></path>
<path d="M9.603 33.073v3.201H7.469v-3.201h2.134z"></path>
<path d="M51.21 29.871h-2.133a2.134 2.134 0 0 1-2.134-2.133v-2.133a2.134 2.134 0 0 1 2.134-2.134h4.266a2.134 2.134 0 0 1 2.134 2.134v1.066h-2.134v-1.066h-4.266v2.134h2.134z"></path>
<path d="M53.343 34.138h-4.266a2.134 2.134 0 0 1-2.134-2.133v-1.067h2.134v1.067h4.266v-2.133H51.21v-2.134h2.133a2.134 2.134 0 0 1 2.134 2.134v2.134a2.134 2.134 0 0 1-2.134 2.132z"></path>
<path d="M52.278 21.337v3.201h-2.134v-3.201h2.134z"></path>
<path d="M52.278 33.073v3.201h-2.134v-3.201h2.134z"></path>
<path d="M41.609 49.075h-2.137v-9.6H22.406v9.6h-2.134V38.407a1.067 1.067 0 0 1 1.067-1.067h19.2a1.067 1.067 0 0 1 1.067 1.067z"></path>
<path d="M37.339 45.874h-5.332a1.067 1.067 0 0 1-.754-.312l-1.38-1.38-1.379 1.379a1.067 1.067 0 0 1-.754.313h-3.201v-2.133h2.759l1.821-1.821a1.067 1.067 0 0 1 1.509 0l1.821 1.821h4.89z"></path>
</g>
</g>
</svg>