<svg data-bbox="-0.001 0.467 511.954 490.795" data-type="shape" height="511pt" preserveaspectratio="xMidYMid meet" role="img" viewbox="-0.001 0.467 511.954 490.795" width="511pt" xmlns="http://www.w3.org/2000/svg">
<g>
<path d="M383.953 491.262h-21.336c-17.672 0-32-14.328-32-32v-10.668c0-5.89 4.778-10.664 10.668-10.664s10.668 4.773 10.668 10.664v10.668c0 5.89 4.774 10.668 10.664 10.668h21.336c5.89 0 10.664-4.778 10.664-10.668v-49.387a10.668 10.668 0 0 1 3.797-8.172 166.623 166.623 0 0 0 54.711-83.894 10.665 10.665 0 0 1 10.293-7.88h16.535c5.89 0 10.664-4.777 10.664-10.667v-42.668c0-5.89-4.773-10.664-10.664-10.664h-16.535a10.673 10.673 0 0 1-10.293-7.875 167.302 167.302 0 0 0-57.227-85.93 10.661 10.661 0 0 1-3.945-8.395 116.688 116.688 0 0 1 22.738-68.468 95.205 95.205 0 0 0-66.503 28.117 10.677 10.677 0 0 1-10.375 2.91 10.668 10.668 0 1 1-4.71-17.992 116.457 116.457 0 0 1 82.85-34.367c7.613.027 15.211.77 22.688 2.215a10.67 10.67 0 0 1 5.277 18.285 95.497 95.497 0 0 0-30.461 64.574 188.568 188.568 0 0 1 57.961 85.59h8.535c17.672 0 32 14.328 32 32v42.668c0 17.672-14.328 32-32 32h-8.535a188.24 188.24 0 0 1-55.465 83.5v44.5c0 17.672-14.328 32-32 32zm0 0"></path>
<path d="M266.617 469.93a233.507 233.507 0 0 1-78.226-13.528 10.668 10.668 0 0 1-6.164-13.496c1.925-5.422 7.804-8.344 13.289-6.601a212.736 212.736 0 0 0 142.207 0c5.484-1.743 11.363 1.18 13.285 6.601a10.666 10.666 0 0 1-6.16 13.496 233.529 233.529 0 0 1-78.23 13.528zm0 0"></path>
<path d="M170.617 491.262h-21.332c-17.672 0-32-14.328-32-32V414.77a180.931 180.931 0 0 1-64-136.84 185.41 185.41 0 0 1 1.578-23.778c9.867-71.297 62.422-131.105 137.09-156.148 5.594-1.875 11.649 1.144 13.524 6.738 1.875 5.598-1.145 11.653-6.743 13.528-66.953 22.42-113.984 75.582-122.718 138.718C68.62 312.223 90.988 367.25 134.82 401.66a10.667 10.667 0 0 1 3.797 8.215v49.387c0 5.89 4.778 10.668 10.668 10.668h21.332c5.89 0 10.668-4.778 10.668-10.668v-10.668c0-5.89 4.774-10.664 10.668-10.664 5.89 0 10.664 4.773 10.664 10.664v10.668c0 17.672-14.324 32-32 32zm0 0"></path>
<path d="M22.234 313.234a10.675 10.675 0 0 1-6.754-2.421c-13.859-11.458-19.046-30.38-12.968-47.31 6.078-16.925 22.12-28.222 40.105-28.241a42.924 42.924 0 0 1 30.446 12.8c4.019 4.223 3.906 10.891-.258 14.973-4.164 4.082-10.836 4.067-14.977-.039a21.121 21.121 0 0 0-15.21-6.402c-11.782 0-21.333 9.55-21.333 21.336a21.103 21.103 0 0 0 7.723 16.382 10.669 10.669 0 0 1 3.289 11.852 10.669 10.669 0 0 1-10.063 7.07zm0 0"></path>
<path d="M330.617 159.207a10.69 10.69 0 0 1-3.137-.469 170.822 170.822 0 0 0-16.062-4.129 216.83 216.83 0 0 0-89.406 0 181.432 181.432 0 0 0-16.301 4.153c-5.621 1.656-11.527-1.528-13.227-7.137-1.703-5.61 1.442-11.543 7.04-13.281 6.488-1.961 12.43-3.465 18.132-4.63a238.707 238.707 0 0 1 98.137 0 197.558 197.558 0 0 1 17.984 4.618 10.675 10.675 0 0 1 7.453 11.805 10.67 10.67 0 0 1-10.613 9.07zm0 0"></path>
<path d="M219.781 154.836a10.59 10.59 0 0 1-6.719-2.402 85.05 85.05 0 0 1-27.894-41.196 83.648 83.648 0 0 1-3.883-25.308c-.055-39.739 27.32-74.25 66.028-83.243 38.703-8.988 78.492 9.926 95.957 45.618 17.46 35.691 7.98 78.715-22.872 103.757-4.566 3.723-11.289 3.036-15.011-1.53-3.723-4.571-3.04-11.29 1.531-15.016a63.72 63.72 0 0 0 23.156-41.055c.367-2.828.551-5.68.543-8.531 0-35.348-28.652-64-64-64-35.344 0-64 28.652-64 64a62.414 62.414 0 0 0 2.914 18.953 64.106 64.106 0 0 0 20.992 31.02 10.662 10.662 0 0 1 3.305 11.843 10.664 10.664 0 0 1-10.047 7.09zm0 0"></path>
<path d="M266.617 107.262c-17.672 0-32-14.328-32-32s14.328-32 32-32c17.676 0 32 14.328 32 32 0 5.89-4.773 10.668-10.664 10.668-5.894 0-10.668-4.778-10.668-10.668s-4.777-10.668-10.668-10.668c-5.89 0-10.664 4.777-10.664 10.668s4.774 10.668 10.664 10.668 10.668 4.773 10.668 10.664-4.777 10.668-10.668 10.668zm0 0"></path>
<path d="M266.617 149.93c-17.672 0-32-14.328-32-32 0-5.895 4.778-10.668 10.668-10.668s10.668 4.773 10.668 10.668c0 5.89 4.774 10.664 10.664 10.664s10.668-4.774 10.668-10.664c0-5.895-4.777-10.668-10.668-10.668-5.89 0-10.664-4.778-10.664-10.668s4.774-10.664 10.664-10.664c17.676 0 32 14.324 32 32 0 17.672-14.324 32-32 32zm0 0"></path>
<path d="M266.617 64.594c-5.89 0-10.664-4.774-10.664-10.664V43.262c0-5.89 4.774-10.668 10.664-10.668s10.668 4.777 10.668 10.668V53.93c0 5.89-4.777 10.664-10.668 10.664zm0 0"></path>
<path d="M405.285 203.262c0 11.781-9.55 21.332-21.332 21.332-11.785 0-21.336-9.551-21.336-21.332s9.551-21.332 21.336-21.332c11.781 0 21.332 9.55 21.332 21.332zm0 0"></path>
<path d="M191.953 459.262c-5.894 0-10.668-4.778-10.668-10.668v-32c0-5.89 4.774-10.664 10.668-10.664 5.89 0 10.664 4.773 10.664 10.664v32c0 5.89-4.773 10.668-10.664 10.668zm0 0"></path>
<path d="M341.285 459.262c-5.89 0-10.668-4.778-10.668-10.668v-32c0-5.89 4.778-10.664 10.668-10.664s10.668 4.773 10.668 10.664v32c0 5.89-4.777 10.668-10.668 10.668zm0 0"></path>
</g>
</svg>