<svg data-bbox="0.5 0 409.603 512" data-type="shape" height="511pt" preserveaspectratio="xMidYMid meet" role="img" viewbox="0.5 0 409.603 512" width="511pt" xmlns="http://www.w3.org/2000/svg">
<g>
<path d="M239.363 0H51.77C23.469.031.53 22.969.5 51.27v409.46c.031 28.301 22.969 51.24 51.27 51.27h187.593c28.305-.031 51.239-22.969 51.27-51.27V344.355a165.831 165.831 0 0 0 21.785 13.192 8.538 8.538 0 0 0 7.629 0c55.348-27.442 90.273-83.973 90.055-145.75v-49.664c0-4.711-3.82-8.531-8.536-8.531a212.256 212.256 0 0 1-79.113-15.235l-3.047-1.219a8.532 8.532 0 0 0-6.347 0l-3.047 1.211a212.77 212.77 0 0 1-19.38 6.707V51.27C290.603 22.969 267.669.03 239.364 0zM51.77 17.066h187.593c18.856.02 34.149 15.278 34.203 34.133h-256c.055-18.855 15.348-34.113 34.204-34.133zM273.566 460.73c-.023 18.88-15.324 34.18-34.203 34.204H51.77c-18.88-.024-34.18-15.325-34.204-34.204v-16.996h256zm0-34.062h-256V68.266h256v80.93a212.714 212.714 0 0 1-42.668 4.406 8.532 8.532 0 0 0-8.53 8.53v49.665a161.927 161.927 0 0 0 51.198 118.613zm42.668-272.41a229.1 229.1 0 0 0 76.801 16.21v41.329c.184 53.742-29.375 103.183-76.8 128.46-47.43-25.277-76.985-74.718-76.801-128.46v-41.285a229.246 229.246 0 0 0 76.8-16.254zm0 0"></path>
<path d="M307.7 281.602a8.562 8.562 0 0 0 6.034-2.5l59.73-59.735-12.066-12.066L307.7 261l-28.097-28.098-12.067 12.067 34.133 34.133a8.553 8.553 0 0 0 6.031 2.5zm0 0"></path>
<path d="M145.746 210.945c27.004-18.953 33.531-56.203 14.582-83.207-18.95-27.004-56.203-33.535-83.207-14.586-27.004 18.953-33.531 56.203-14.582 83.207a59.727 59.727 0 0 0 14.582 14.586 60.305 60.305 0 0 0-33.953 54.153V332.8c0 4.71 3.82 8.531 8.531 8.531h119.469c4.71 0 8.531-3.82 8.531-8.531v-67.703a60.305 60.305 0 0 0-33.953-54.153zm-76.98-48.812c0-23.563 19.101-42.668 42.668-42.668 23.562 0 42.668 19.105 42.668 42.668 0 23.566-19.106 42.668-42.668 42.668-23.551-.028-42.641-19.113-42.668-42.668zm93.867 162.133H60.234v-59.168c.028-23.864 19.364-43.203 43.227-43.23h15.941c23.864.027 43.203 19.366 43.23 43.23zm0 0"></path>
<path d="M51.7 358.398h93.866v17.07H51.7zm0 0"></path>
<path d="M51.7 392.535h128v17.067h-128zm0 0"></path>
</g>
</svg>