<svg data-bbox="23.584 0 464.833 511.999" data-type="shape" preserveaspectratio="xMidYMid meet" role="img" viewbox="23.584 0 464.833 511.999" xmlns="http://www.w3.org/2000/svg">
<g>
<path d="M256.281 232.255c-9.426 0-17.067 7.641-17.067 17.067-.001 6.815 4.004 12.68 9.779 15.416v20.747a7.287 7.287 0 1 0 14.574 0v-20.747c5.776-2.736 9.781-8.601 9.781-15.416 0-9.426-7.641-17.067-17.067-17.067z"></path>
<path d="M438.138 111.149c-31.369-12.413-56.267-35.275-70.108-64.373-3.764-7.913-11.9-13.027-20.729-13.027H164.699c-8.828 0-16.964 5.113-20.728 13.027-13.84 29.098-38.739 51.96-70.108 64.373-8.799 3.481-14.484 11.869-14.484 21.368v44.412c0 58.219 16.977 115.73 49.096 166.318 32.431 51.083 79.425 93.774 135.898 123.456l.92.484a23.006 23.006 0 0 0 21.413.001l.923-.485c56.474-29.683 103.467-72.373 135.899-123.456 32.118-50.589 49.095-108.1 49.095-166.318v-44.412c0-9.5-5.687-17.887-14.485-21.368zm-.088 65.781c0 55.447-16.192 110.257-46.825 158.507-31.069 48.936-76.153 89.867-130.374 118.367l-.923.484a8.435 8.435 0 0 1-7.855 0l-.92-.483c-54.223-28.5-99.307-69.431-130.377-118.368-30.633-48.249-46.825-103.06-46.825-158.508v-44.412c0-3.481 2.07-6.55 5.273-7.817 34.81-13.774 62.477-39.225 77.906-71.664 1.361-2.863 4.332-4.713 7.568-4.713h182.604c3.236 0 6.206 1.85 7.568 4.713 15.43 32.439 43.098 57.89 77.907 71.665 3.203 1.267 5.273 4.336 5.273 7.817v44.412z"></path>
<path d="M474.672 246.08a7.284 7.284 0 0 0-8.713 5.501c-22.192 98.177-89.78 183.32-185.436 233.597l-22.229 11.684a4.928 4.928 0 0 1-4.584 0l-22.229-11.684c-95.806-50.356-163.428-135.646-185.527-234a7.286 7.286 0 0 0-14.218 3.194c23.036 102.531 93.369 191.358 192.965 243.705l22.229 11.684a19.501 19.501 0 0 0 18.144-.001l22.229-11.684c99.439-52.265 169.737-140.938 192.871-243.283a7.288 7.288 0 0 0-5.502-8.713z"></path>
<path d="M471.125 83.377c-38.909-4.105-69.503-31.416-74.4-66.414C395.372 7.292 387.061 0 377.393 0H134.609c-9.667 0-17.978 7.292-19.331 16.963-4.898 34.999-35.492 62.309-74.4 66.414-9.859 1.04-17.294 9.369-17.294 19.373v78.244c0 11.37.589 22.865 1.751 34.167a7.288 7.288 0 0 0 14.497-1.49 320.878 320.878 0 0 1-1.675-32.677V102.75c0-2.485 1.867-4.63 4.25-4.881 45.576-4.808 81.476-37.248 87.304-78.887.358-2.555 2.417-4.409 4.898-4.409h242.783c2.481 0 4.542 1.854 4.899 4.409 5.826 41.639 41.727 74.078 87.303 78.887 2.383.251 4.25 2.396 4.25 4.881v78.244c0 10.759-.552 21.639-1.64 32.34a7.287 7.287 0 0 0 14.499 1.474 335.49 335.49 0 0 0 1.714-33.814V102.75c.001-10.004-7.433-18.333-17.292-19.373z"></path>
<path d="M339.46 181.865h-11.981v-34.782c0-39.259-31.939-71.198-71.199-71.198-39.259 0-71.199 31.939-71.199 71.198v34.782h-11.98c-12.778 0-23.174 10.396-23.174 23.174v104.329c0 12.778 10.396 23.174 23.174 23.174H339.46c12.778 0 23.174-10.396 23.174-23.174V205.039c0-12.778-10.396-23.174-23.174-23.174zm-139.805-34.781c0-31.223 25.402-56.625 56.626-56.625s56.626 25.402 56.626 56.625v34.782H199.655v-34.782zm148.406 162.284c0 4.742-3.859 8.601-8.601 8.601H173.101c-4.743 0-8.601-3.859-8.601-8.601V205.039c0-4.742 3.859-8.601 8.601-8.601H339.46c4.742 0 8.601 3.858 8.601 8.601v104.329z"></path>
</g>
</svg>