<svg data-bbox="0 -0.01 64.011 64.022" data-type="shape" height="64.011" preserveaspectratio="none" role="img" viewbox="0 -0.01 64.011 64.022" width="64.011" xmlns="http://www.w3.org/2000/svg">
<g>
<path d="M45.427 48.181l-5.162 6.882-5.162-6.882v-2.754h-2.065v3.441l5.162 6.883h-3.1v2.065h4.13v2.065H35.1v2.065h4.13v2.065h2.068v-2.065h4.13v-2.065h-4.13v-2.065h4.13v-2.065h-3.1l5.162-6.883v-3.441h-2.063z"></path>
<path d="M19.126 51.622h-2.607v2.065h2.126a8.78 8.78 0 0 0 0 2.065h-2.126v2.065h2.607a9.3 9.3 0 0 0 8.75 6.195h2.065v-2.066h-2.065a7.23 7.23 0 0 1-6.52-4.13h8.585v-2.065h-9.21a6.494 6.494 0 0 1 0-2.065h9.209v-2.064h-8.584a7.229 7.229 0 0 1 6.52-4.13h2.065v-2.065h-2.065a9.3 9.3 0 0 0-8.75 6.195z"></path>
<path d="M4.13 49.557h6.195a2.067 2.067 0 0 1 2.065 2.065h2.065a4.134 4.134 0 0 0-4.13-4.13H8.26v-2.065H6.195v2.065H4.13a4.13 4.13 0 1 0 0 8.26h6.195a2.065 2.065 0 0 1 0 4.13H4.13a2.067 2.067 0 0 1-2.065-2.065H0a4.134 4.134 0 0 0 4.13 4.13h2.065v2.065H8.26v-2.066h2.065a4.13 4.13 0 0 0 0-8.26H4.13a2.065 2.065 0 0 1 0-4.13z"></path>
<path d="M54.719 52.654v1.033h-3.1v2.065h3.1v1.032a5.168 5.168 0 0 1-5.162 5.162v2.065h14.454v-2.065h-9.4a7.207 7.207 0 0 0 2.173-5.162v-1.033h4.13v-2.064h-4.13v-1.033a5.168 5.168 0 0 1 5.162-5.162h2.065v-2.065h-2.065a7.236 7.236 0 0 0-7.227 7.227z"></path>
<path d="M64.011 40.265v2.065h-2.065v-2.065h2.065z"></path>
<path d="M38.2 42.33h21.682v-2.065h-2.91a27.876 27.876 0 1 0-49.933 0H0v2.065h38.2zm-7.227-12.389a1.032 1.032 0 1 1 1.032 1.032 1.033 1.033 0 0 1-1.032-1.032zm2.065 10.324v-7.417a3.1 3.1 0 1 0-2.065 0v7.417h-3.1v-4.377l-.386-.311a7.227 7.227 0 1 1 9.032 0l-.386.311v4.378zm-9.782-13.422h-4.645a29.27 29.27 0 0 1 2.752-11.357h9.61v5.224a9.306 9.306 0 0 0-7.717 6.133zm-17.035 0A25.634 25.634 0 0 1 9.37 15.486h9.688a31.393 31.393 0 0 0-2.513 11.357zm51.57 0H47.466a31.414 31.414 0 0 0-2.513-11.357h9.688a25.647 25.647 0 0 1 3.15 11.357zm-12.39 0h-4.645a9.306 9.306 0 0 0-7.717-6.134v-5.222h9.61A29.27 29.27 0 0 1 45.4 26.843zM33.038 13.422V3.13A37.284 37.284 0 0 1 41.6 13.422zm-2.065 0h-8.561A37.268 37.268 0 0 1 30.973 3.13zM38.2 36.86a9.22 9.22 0 0 0 3.036-7.952H45.4a29.375 29.375 0 0 1-2.741 11.357H38.2zm6.723 3.4a31.28 31.28 0 0 0 2.539-11.357h10.32a25.79 25.79 0 0 1-3.151 11.357zm8.456-26.843h-9.387a38.03 38.03 0 0 0-8.738-11.14 25.835 25.835 0 0 1 18.125 11.145zm-24.62-11.14a38 38 0 0 0-8.739 11.145h-9.387A25.831 25.831 0 0 1 28.759 2.277zM6.229 28.908h10.32a31.28 31.28 0 0 0 2.539 11.357H9.38a25.791 25.791 0 0 1-3.151-11.357zm15.125 11.357a29.375 29.375 0 0 1-2.741-11.357h4.161a9.477 9.477 0 0 0-.06 1.032 9.24 9.24 0 0 0 3.1 6.919v3.4z"></path>
<path d="M51.622 17.551v2.065h-2.065v-2.065h2.065z"></path>
<path d="M39.233 17.551v2.065h-2.065v-2.065h2.065z"></path>
<path d="M26.844 17.551v2.065h-2.065v-2.065h2.065z"></path>
<path d="M14.454 17.551v2.065h-2.065v-2.065h2.065z"></path>
</g>
</svg>