<svg data-bbox="0 49.067 468.652 370.517" data-type="shape" preserveaspectratio="xMidYMid meet" role="img" viewbox="0 49.067 468.652 370.517" xmlns="http://www.w3.org/2000/svg">
<g>
<path d="M234.338 216.929c46.28 0 83.931-37.651 83.931-83.931s-37.651-83.931-83.931-83.931-83.931 37.651-83.931 83.931 37.652 83.931 83.931 83.931zm0-152.108c37.593 0 68.177 30.584 68.177 68.177s-30.584 68.177-68.177 68.177-68.177-30.584-68.177-68.177 30.584-68.177 68.177-68.177z"></path>
<path d="M61.715 353.641c0 8.003-6.488 14.491-14.491 14.491s-14.491-6.488-14.491-14.491 6.488-14.491 14.491-14.491 14.491 6.488 14.491 14.491z"></path>
<path d="M466.929 263.614l-.241-.602c-11.421-28.373-42.996-42.746-71.896-32.716l-58.953 20.459c-13.109-14.08-33.338-20.623-52.774-15.675l-62.597 15.927c-14.256 3.628-29.669 1.375-42.289-6.181a114.341 114.341 0 0 0-58.713-16.23h-.08l-24.937.018V205.01a7.877 7.877 0 0 0-7.877-7.877H7.877A7.877 7.877 0 0 0 0 205.01v206.697a7.877 7.877 0 0 0 7.877 7.877h78.695a7.877 7.877 0 0 0 7.877-7.877v-38.994l25.027.001c13.911 0 27.425 2.829 40.168 8.407l15.613 6.835a106.451 106.451 0 0 0 42.712 8.953 106.42 106.42 0 0 0 46.389-10.652c55.897-27.059 155.04-75.048 191.011-92.43 11.135-5.383 16.213-18.654 11.56-30.213zM78.695 236.495v167.334H15.754V212.887h62.941v23.608zm369.818 43.147c-35.974 17.384-135.121 65.375-191.019 92.434a90.61 90.61 0 0 1-75.919 1.449l-15.613-6.835c-14.747-6.457-30.387-9.73-46.486-9.73l-25.027-.001V244.367l24.948-.017h.068a98.585 98.585 0 0 1 50.62 13.993c16.196 9.694 35.974 12.585 54.266 7.931l62.597-15.927c18.14-4.614 37.251 4.914 44.485 22.17l1.355 3.252.896 2.151.557 1.336-107.861 43.422 5.883 14.613 115.257-46.399.037-.017.051-.018c.113-.047.218-.105.328-.156.113-.054.229-.103.34-.162.138-.073.268-.155.4-.235.089-.054.18-.104.267-.162.144-.096.281-.2.418-.305.067-.051.137-.1.203-.153a8.14 8.14 0 0 0 .403-.36c.056-.053.115-.102.17-.157.126-.126.244-.259.36-.392.054-.061.11-.119.162-.182.108-.131.206-.268.304-.405.053-.073.109-.143.159-.218.089-.134.169-.273.25-.412.049-.084.103-.166.149-.253.078-.145.145-.296.213-.446.036-.078.077-.152.111-.231l.008-.021c.078-.188.144-.382.208-.576.016-.05.037-.098.053-.148a7.844 7.844 0 0 0-.263-5.329l-5.842-14.022-.04-.096-.918-2.204 54.908-19.055c20.946-7.266 43.837 3.148 52.116 23.716l.241.602c1.595 3.966-.04 8.328-3.803 10.147z"></path>
<path d="M225.969 160.367a45.384 45.384 0 0 1-6.316-2.311c-1.951-.889-3.681-1.864-5.187-2.927-1.507-1.061-2.773-2.105-3.799-3.132l-4.416 7.805c7.193 5.886 15.514 9.235 24.957 10.061v10.478h11.702v-10.784a37.95 37.95 0 0 0 4.162-.872c3.114-.855 5.802-2.105 8.061-3.748 2.259-1.643 4.039-3.731 5.341-6.264 1.299-2.532 1.951-5.511 1.951-8.935 0-3.287-.565-6.059-1.695-8.319-1.13-2.26-2.773-4.176-4.929-5.751-2.157-1.574-4.759-2.891-7.806-3.954a78.583 78.583 0 0 0-5.086-1.566v-24.974c1.617.423 3.144.946 4.573 1.584 1.608.719 3.029 1.507 4.262 2.362 1.232.857 2.259 1.73 3.081 2.619l4.313-7.497c-2.875-2.396-6.146-4.313-9.807-5.751-2.011-.789-4.154-1.386-6.422-1.803V85.655h-11.702V96.15c-2.907.273-5.62.835-8.115 1.726-2.876 1.027-5.358 2.449-7.446 4.262-2.09 1.815-3.715 4.005-4.878 6.573-1.165 2.567-1.746 5.494-1.746 8.78 0 2.876.478 5.341 1.437 7.394.958 2.054 2.379 3.8 4.262 5.238 1.883 1.438 4.226 2.67 7.035 3.697 2.726.998 5.883 1.93 9.451 2.798v24.834a35.647 35.647 0 0 1-5.238-1.085zm16.942-20.432c.136.05.281.099.414.149 1.985.754 3.662 1.627 5.032 2.619 1.369.993 2.413 2.123 3.132 3.389.719 1.268 1.079 2.791 1.079 4.57 0 3.697-1.405 6.47-4.211 8.318-1.486.978-3.308 1.69-5.446 2.151v-21.196zm-16.327-13.972c-1.848-.65-3.355-1.42-4.519-2.311-1.165-.889-2.037-1.951-2.619-3.184-.582-1.232-.873-2.704-.873-4.416 0-3.492 1.164-6.264 3.492-8.318 2.03-1.792 5.079-2.905 9.143-3.343v22.99a65.132 65.132 0 0 1-4.624-1.418z"></path>
</g>
</svg>