<svg data-bbox="-0.004 0 69.013 63.821" data-type="shape" height="63.821" preserveaspectratio="xMidYMid meet" role="img" viewbox="-0.004 0 69.013 63.821" width="69.009" xmlns="http://www.w3.org/2000/svg">
<g>
<path d="M3.796 0a3.816 3.816 0 0 0-3.8 3.808v56.206a3.816 3.816 0 0 0 3.8 3.807h56.237a3.815 3.815 0 0 0 3.79-3.807V42.47h.862a4.35 4.35 0 0 0 4.324-4.345V21.792a4.35 4.35 0 0 0-4.324-4.345h-.862V3.808a3.815 3.815 0 0 0-3.79-3.807H3.796zm0 2.256h56.237a1.515 1.515 0 0 1 1.534 1.551v13.64H45.718a4.35 4.35 0 0 0-4.322 4.345v16.333a4.35 4.35 0 0 0 4.324 4.345h15.846v17.544a1.515 1.515 0 0 1-1.534 1.551H3.796a1.516 1.516 0 0 1-1.54-1.551V3.808a1.516 1.516 0 0 1 1.54-1.551zm41.923 17.447h18.966a2.05 2.05 0 0 1 2.068 2.089v16.334a2.05 2.05 0 0 1-2.068 2.089H45.719a2.05 2.05 0 0 1-2.068-2.089V21.792a2.05 2.05 0 0 1 2.068-2.089zm7.584 5.787a4.469 4.469 0 1 0 4.468 4.468 4.487 4.487 0 0 0-4.468-4.468zm0 2.256a2.213 2.213 0 1 1-2.214 2.212 2.195 2.195 0 0 1 2.214-2.211z"></path>
<g>
<path d="M21.97 42.502a12.464 12.464 0 1 1 12.464-12.463A12.464 12.464 0 0 1 21.97 42.502zm0-23.265a10.8 10.8 0 1 0 10.8 10.8 10.8 10.8 0 0 0-10.8-10.8z"></path>
<path d="M21.971 18.406v23.265h-1.662V18.406h1.662z"></path>
<path d="M19.743 42.278c-3.851-3.594-5.8-7.567-5.8-11.809 0-7.172 5.567-12.45 5.8-12.671l1.134 1.214c-.052.05-5.283 5.025-5.276 11.466 0 3.759 1.779 7.319 5.275 10.582z"></path>
<path d="M23.646 42.278l-1.135-1.214c.053-.05 5.283-5.025 5.276-11.466 0-3.759-1.779-7.319-5.275-10.582l1.134-1.218c3.85 3.6 5.8 7.567 5.8 11.809.003 7.172-5.564 12.45-5.8 12.671z"></path>
<path d="M32.772 29.207v1.662H9.507v-1.662h23.265z"></path>
<path d="M31.942 23.391v1.662H12v-1.662h19.942z"></path>
<path d="M31.942 35.024v1.662H12v-1.662h19.942z"></path>
</g>
</g>
</svg>