<svg height="60px" version="1.1" viewbox="0 0 130 130" width="60px"><g fill="none" fill-rule="evenodd" stroke="none" stroke-width="1"><path d="M76.3846477,6.8251671 L76.7635647,38.4822201" stroke="#72CEAA" stroke-linecap="round" stroke-width="9" transform="translate(76.384648, 22.825167) rotate(12.000000) translate(-76.384648, -22.825167) "></path><path d="M107.043705,60.1851189 L107.545024,91.4583502" stroke="#72CEAA" stroke-linecap="round" stroke-width="9" transform="translate(107.043705, 76.185119) rotate(102.000000) translate(-107.043705, -76.185119) "></path><path d="M107.168746,39.1441228 L108.200921,69.0008127" stroke="#72CEAA" stroke-linecap="round" stroke-width="9" transform="translate(108.168746, 54.144123) rotate(81.000000) translate(-108.168746, -54.144123) "></path><path d="M22.4672214,38.2109253 L22.8645852,68.9950829" stroke="#72CEAA" stroke-linecap="round" stroke-width="9" transform="translate(22.467221, 53.710925) rotate(-78.000000) translate(-22.467221, -53.710925) "></path><path d="M20.8312539,60.8558772 L21.8634287,90.7125671" stroke="#72CEAA" stroke-linecap="round" stroke-width="9" transform="translate(21.831254, 75.855877) rotate(-99.000000) translate(-21.831254, -75.855877) "></path><path d="M76.3846477,91.027776 L76.6874869,122.326911" stroke="#72CEAA" stroke-linecap="round" stroke-width="9" transform="translate(76.384648, 107.027776) scale(1, -1) rotate(12.000000) translate(-76.384648, -107.027776) "></path><path d="M53.5392291,6.75166331 L54.7995771,38.3693001" stroke="#72CEAA" stroke-linecap="round" stroke-width="9" transform="translate(54.039229, 22.751663) rotate(-10.000000) translate(-54.039229, -22.751663) "></path><path d="M53.2777461,93.9902271 L54.1153405,123.799971" stroke="#72CEAA" stroke-linecap="round" stroke-width="9" transform="translate(53.277746, 108.490227) scale(1, -1) rotate(-9.000000) translate(-53.277746, -108.490227) "></path><path d="M107.996473,23.1513746 C97.0966473,11.9544723 81.8604756,5 65,5 C31.862915,5 5,31.862915 5,65 C5,98.137085 31.862915,125 65,125 L65,125 C98.137085,125 125,98.137085 125,65 C125,57.1532269 123.493716,49.6582651 120.754525,42.7884906" stroke="#72CEAA" stroke-linecap="round" stroke-width="9"></path><circle cx="65" cy="65" r="27" stroke="#72CEAA" stroke-width="9"></circle><g stroke="#72CEAA" stroke-linecap="round" stroke-linejoin="round" stroke-width="9" transform="translate(104.080805, 21.426292) rotate(-47.000000) translate(-104.080805, -21.426292) translate(89.080805, 13.426292)"><polyline points="0.775110957 15.9890467 15.275111 0.989046695 15.275111 0.989046695 29.775111 15.9890467" transform="translate(15.275111, 8.489047) scale(1, -1) translate(-15.275111, -8.489047) "></polyline></g></g></svg>