<svg height="60px" version="1.1" viewbox="0 0 130 130" width="60px"><g fill="none" fill-rule="evenodd" stroke="none" stroke-width="1"><g fill="#72CEAA" transform="translate(51.000000, 49.000000)"><circle cx="14" cy="8" r="8" stroke="#72CEAA" stroke-width="2.6"></circle><path d="M27.5697211,31 C27.5697211,25.4771525 21.3980288,21 13.7848606,21 C6.1716923,21 -3.19744231e-14,25.4771525 -3.19744231e-14,31 L27.5697211,31 Z"></path></g><path d="M50.0866717,23.5916991 C37.8123817,28.0130296 28.070035,37.7366903 23.6234264,49.9988863 M23.268269,78.9826333 C27.5841072,91.8689504 37.7015073,102.095832 50.5184813,106.561289 M79.6304798,106.509089 C92.672904,101.912144 102.898279,91.3422217 107.021926,78.0840017 M106.331388,49.8748648 C101.802769,37.5033212 91.8779415,27.7325548 79.407248,23.4129098" stroke="#72CEAA" stroke-width="9"></path><circle cx="65" cy="21" r="15" stroke="#72CEAA" stroke-width="9"></circle><circle cx="65" cy="109" r="15" stroke="#72CEAA" stroke-width="9"></circle><circle cx="109" cy="64" r="15" stroke="#72CEAA" stroke-width="9"></circle><circle cx="21" cy="64" r="15" stroke="#72CEAA" stroke-width="9"></circle></g></svg>