<svg viewbox="0 0 144 144"><path d="M133.34,0H10.63A10.51,10.51,0,0,0,0,10.38V133.61A10.52,10.52,0,0,0,10.63,144H133.34A10.54,10.54,0,0,0,144,133.61V10.38A10.53,10.53,0,0,0,133.34,0ZM42.71,122.71H21.35V54H42.71ZM32,44.59A12.38,12.38,0,1,1,44.41,32.2,12.38,12.38,0,0,1,32,44.59Zm90.68,78.12H101.36V89.29c0-8-.14-18.23-11.1-18.23-11.11,0-12.81,8.69-12.81,17.65v34H56.1V54H76.59v9.39h.29c2.85-5.41,9.81-11.1,20.2-11.1,21.63,0,25.63,14.23,25.63,32.73Z" fill="#FFFFFF" transform="translate(0 0)"></path></svg>