<svg viewbox="0 0 130 130"><g fill="none" fill-rule="evenodd" stroke="none" stroke-width="1"><g fill="none" fill-rule="evenodd" stroke="none" stroke-linecap="round" stroke-width="1"><g stroke="#C7EBDD" stroke-width="9" transform="translate(69.113767, 60.425431) scale(-1, 1) rotate(-71.000000) translate(-69.113767, -60.425431) translate(15.113767, -3.074569)"><g stroke-linejoin="round" transform="translate(53.734932, 19.675039) rotate(96.000000) translate(-53.734932, -19.675039) translate(35.234932, 9.675039)"><polyline points="0.387076759 19.8356957 18.3870768 0.835695664 18.3870768 0.835695664 36.3870768 19.8356957" transform="translate(18.387077, 10.335696) scale(1, -1) translate(-18.387077, -10.335696) "></polyline></g><path d="M0.537585444,73.2071185 C0.537585444,102.754353 24.4903513,126.707119 54.0375854,126.707119 L54.0375854,126.707119 C83.5848196,126.707119 107.537585,102.754353 107.537585,73.2071185 C107.537585,43.6598844 83.5848196,19.7071185 54.0375854,19.7071185"></path></g><g stroke="#72CEAA" stroke-width="9" transform="translate(59.000000, 31.000000)"><path d="M1,0.74 L1,36.26"></path><path d="M9.5,28 L9.5,45" transform="translate(9.500000, 36.500000) rotate(-90.000000) translate(-9.500000, -36.500000) "></path></g></g></g></svg>