<svg height="228px" version="1.1" viewbox="0 0 228 228" width="228px"><g fill="none" fill-rule="evenodd" stroke="none" stroke-width="1"><circle cx="114" cy="114" fill="#C7EBDD" r="114"></circle><g stroke="#72CEAA" stroke-width="9" transform="translate(41.000000, 96.000000)"><circle cx="52" cy="66" r="18"></circle><g><circle cx="18" cy="18" id="Oval-Copy-5" r="18"></circle></g><path d="M29.8098312,33.7388139 L42.8098312,50.7388139" stroke-linecap="round" transform="translate(36.309831, 42.238814) rotate(2.000000) translate(-36.309831, -42.238814) "></path></g><circle cx="93" cy="162" r="18" stroke="#72CEAA" stroke-width="9" transform="translate(93.000000, 162.000000) scale(-1, 1) translate(-93.000000, -162.000000) "></circle><g stroke="#72CEAA" stroke-width="9" transform="translate(127.000000, 114.000000) scale(-1, 1) translate(-127.000000, -114.000000) translate(109.000000, 96.000000)"><circle cx="18" cy="18" r="18"></circle></g><path d="M102.190169,129.738814 L115.190169,146.738814" stroke="#72CEAA" stroke-linecap="round" stroke-width="9" transform="translate(108.690169, 138.238814) scale(-1, 1) rotate(2.000000) translate(-108.690169, -138.238814) "></path><circle cx="127" cy="114" r="18" stroke="#72CEAA" stroke-width="9" transform="translate(127.000000, 114.000000) scale(-1, 1) translate(-127.000000, -114.000000) "></circle><g stroke="#72CEAA" stroke-width="9" transform="translate(161.000000, 66.000000) scale(-1, 1) translate(-161.000000, -66.000000) translate(143.000000, 48.000000)"><circle cx="18" cy="18" r="18"></circle></g><path d="M136.190169,81.7388139 L149.190169,98.7388139" stroke="#72CEAA" stroke-linecap="round" stroke-width="9" transform="translate(142.690169, 90.238814) scale(-1, 1) rotate(2.000000) translate(-142.690169, -90.238814) "></path><path d="M21,114.5 L40.5419363,114.5" stroke="#72CEAA" stroke-linecap="round" stroke-width="9"></path><path d="M179,66.5 L198.541936,66.5" stroke="#72CEAA" stroke-linecap="round" stroke-width="9"></path></g></svg>