<svg viewbox="0 0 130 130"><g fill="none" fill-rule="evenodd" stroke="none" stroke-width="1"><g fill="none" fill-rule="evenodd" stroke="none" stroke-width="1"><path d="M65.9857207,51.3483819 C62.4020301,47.4419156 57.2988278,45 51.6356751,45 C40.7911912,45 32,53.954305 32,65 C32,76.045695 40.7911912,85 51.6356751,85 L51.6356751,85 C57.3063537,85 62.4155926,82.5515898 66,78.6360362" stroke="#C7EBDD" stroke-width="9"></path><path d="M101.989921,56.2851578 C99.4602565,53.6482931 95.8579961,52 91.8604765,52 C84.2055467,52 78,58.0441559 78,65.5 C78,72.9558441 84.2055467,79 91.8604765,79 L91.8604765,79 C95.8633085,79 99.4698301,77.3473231 102,74.7043244" stroke="#72CEAA" stroke-width="9"></path><path d="M65.25,50.7 L65.25,19.7" stroke="#C7EBDD" stroke-linecap="round" stroke-width="9"></path><path d="M35,48.826087 L35,-11.4891304" stroke="#C7EBDD" stroke-linecap="round" stroke-width="9" transform="translate(35.000000, 18.500000) rotate(90.000000) translate(-35.000000, -18.500000) "></path><path d="M113,30 L113,6.89130435" stroke="#72CEAA" stroke-linecap="round" stroke-width="9" transform="translate(113.000000, 18.500000) rotate(90.000000) translate(-113.000000, -18.500000) "></path><path d="M113,122 L113,98.8913043" stroke="#72CEAA" stroke-linecap="round" stroke-width="9" transform="translate(113.000000, 110.500000) rotate(90.000000) translate(-113.000000, -110.500000) "></path><path d="M35,140.826087 L35,80.5108696" stroke="#C7EBDD" stroke-linecap="round" stroke-width="9" transform="translate(35.000000, 110.500000) rotate(90.000000) translate(-35.000000, -110.500000) "></path><path d="M101.5,55.9 L101.5,19.7" stroke="#72CEAA" stroke-linecap="round" stroke-width="9"></path><path d="M65.25,110.3 L65.25,79.3" stroke="#C7EBDD" stroke-linecap="round" stroke-width="9"></path><path d="M101.5,110 L101.5,75.1" stroke="#72CEAA" stroke-linecap="round" stroke-width="9"></path></g></g></svg>