<svg viewbox="0 0 36 36"><g fill="none" fill-rule="evenodd" stroke="none" stroke-width="1"><path d="M28.91,22.01 C27.75,20.87 26.31,20.87 25.16,22.01 C24.28,22.88 23.41,23.75 22.54,24.64 C22.31,24.88 22.11,24.93 21.824,24.77 C21.25,24.46 20.65,24.213 20.10,23.87 C17.56,22.27 15.43,20.22 13.55,17.9 C12.61,16.75 11.78,15.52 11.20,14.1439322 C11.0861975,13.8640205 11.1082964,13.67 11.33,13.45 C12.21,12.60 13.06,11.73 13.92,10.86 C15.13,9.65 15.13,8.24 13.92,7.02 C13.23,6.33 12.5520903,5.65818965 11.8670249,4.96577663 C11.1598605,4.25863142 10.4600624,3.54412011 9.74553174,2.844341 C8.58902335,1.71732832 7.14522943,1.71732832 5.99608733,2.85170709 C5.11213186,3.72090641 4.26500788,4.61220402 3.36,5.46667115 C2.53392843,6.25484342 2.11404959,7.21980198 2.02,8.34681466 C1.88569443,10.1809726 2.33503845,11.9120051 2.96853987,13.5988411 C4.26500788,17.0903705 6.23917508,20.1914969 8.63322112,23.03481 C11.8670249,26.879912 15.7269637,29.9221097 20.2425029,32.1172063 C22.2756004,33.1042631 24.3823609,33.862971 26.6732788,33.9881946 C28.2496661,34.0765878 29.619797,33.6788186 30.7173751,32.4486806 C31.4687372,31.6089456 32.3158612,30.8428717 33.1114211,30.03 C34.29,28.84 34.29,27.4 33.12,26.22 C31.72,24.81 30.31,23.41 28.91,22.01 Z" fill-rule="nonzero" stroke="#FFFFFF" stroke-width="3"></path></g></svg>