<svg height="60px" version="1.1" viewbox="0 0 130 130" width="60px"><g fill="none" fill-rule="evenodd" stroke="none" stroke-width="1"><path d="M14.5345642,115.071696 L42.0193246,103.929226 L43.9045548,104.983415 C51.5094311,109.235935 60.0851845,111.5 69,111.5 C97.4426646,111.5 120.5,88.4426646 120.5,60 C120.5,31.5573354 97.4426646,8.5 69,8.5 C40.5573354,8.5 17.5,31.5573354 17.5,60 C17.5,69.2331544 19.9290833,78.1008992 24.474778,85.8978319 L25.5878292,87.8069758 L14.5345642,115.071696 Z" stroke="#72CEAA" stroke-width="9"></path><g stroke="#72CEAA" stroke-linecap="round" stroke-width="9" transform="translate(59.000000, 35.000000)"><path d="M1,0.875 L1,13.3214286"></path><path d="M20,0.875 L20,13.3214286"></path></g><path d="M46,70.0155277 C49.1437913,79.8605559 58.4751279,87 69.4975237,87 C80.5257136,87 89.8610659,79.8530481 93,70" stroke="#72CEAA" stroke-linecap="round" stroke-width="9"></path></g></svg>