<svg viewbox="0 0 130 130"><g fill="none" fill-rule="evenodd" stroke="none" stroke-width="1"><g fill="none" fill-rule="evenodd" stroke="none" stroke-width="1"><g fill="#72CEAA" transform="translate(51.000000, 49.000000)"><circle cx="14" cy="8" r="8" stroke="#72CEAA" stroke-width="2.6"></circle><path d="M27.5697211,31 C27.5697211,25.4771525 21.3980288,21 13.7848606,21 C6.1716923,21 -3.19744231e-14,25.4771525 -3.19744231e-14,31 L27.5697211,31 Z"></path></g><path d="M76.8004711,6.8688719 L77.0478035,34.1976948" stroke="#C7EBDD" stroke-linecap="round" stroke-width="9" transform="translate(76.800471, 20.868872) rotate(12.000000) translate(-76.800471, -20.868872) "></path><g stroke="#C7EBDD" stroke-linecap="round" stroke-width="9" transform="translate(109.000000, 65.000000) rotate(90.000000) translate(-109.000000, -65.000000) translate(93.000000, 51.000000)"><path d="M27.6009422,2.84941255e-12 L27.8482746,27.3288229" transform="translate(27.600942, 14.000000) rotate(12.000000) translate(-27.600942, -14.000000) "></path><path d="M4,4.76128685e-13 L4.73429481,27.5196319" transform="translate(4.000000, 14.000000) rotate(-9.000000) translate(-4.000000, -14.000000) "></path></g><g stroke="#C7EBDD" stroke-linecap="round" stroke-width="9" transform="translate(21.000000, 65.000000) rotate(-90.000000) translate(-21.000000, -65.000000) translate(5.000000, 51.000000)"><path d="M27.6009422,2.84941255e-12 L27.8482746,27.3288229" transform="translate(27.600942, 14.000000) rotate(12.000000) translate(-27.600942, -14.000000) "></path><path d="M4,4.76128685e-13 L4.73429481,27.5196319" transform="translate(4.000000, 14.000000) rotate(-9.000000) translate(-4.000000, -14.000000) "></path></g><path d="M76.8004711,94.9840712 L77.0478035,122.312894" stroke="#C7EBDD" stroke-linecap="round" stroke-width="9" transform="translate(76.800471, 108.984071) scale(1, -1) rotate(12.000000) translate(-76.800471, -108.984071) "></path><path d="M53.1995289,6.8688719 L53.9338237,34.3885038" stroke="#C7EBDD" stroke-linecap="round" stroke-width="9" transform="translate(53.199529, 20.868872) rotate(-10.000000) translate(-53.199529, -20.868872) "></path><path d="M53.1995289,94.9840712 L53.9338237,122.503703" stroke="#C7EBDD" stroke-linecap="round" stroke-width="9" transform="translate(53.199529, 108.984071) scale(1, -1) rotate(-9.000000) translate(-53.199529, -108.984071) "></path><circle cx="65" cy="65" r="60" stroke="#C7EBDD" stroke-width="9"></circle><circle cx="65" cy="65" r="31" stroke="#C7EBDD" stroke-width="9"></circle></g></g></svg>