<svg height="228px" version="1.1" viewbox="0 0 228 228" width="228px"><g fill="none" fill-rule="evenodd" stroke="none" stroke-width="1"><circle cx="114" cy="114" fill="#C7EBDD" r="114"></circle><g stroke="#72CEAA" stroke-linecap="round" stroke-width="9" transform="translate(114.000000, 56.000000)"><path d="M-57.418951,59.4973915 L59.5,59.4973915" transform="translate(1.000000, 59.000000) rotate(90.000000) translate(-1.000000, -59.000000) "></path></g><ellipse cx="114.5" cy="114.5" rx="30.5" ry="59.5" stroke="#72CEAA" stroke-width="9"></ellipse><path d="M119,99 C112.311164,109.838429 108,126.875942 108,146.03629 C108,165.153924 112.291963,182.158176 118.9553,193" id="Path" stroke="#72CEAA" stroke-width="9" transform="translate(113.500000, 146.000000) rotate(90.000000) translate(-113.500000, -146.000000) "></path><path d="M55,114.502123 L173,114.502123" id="Line-7-Copy-3" stroke="#72CEAA" stroke-linecap="round" stroke-width="9" transform="translate(113.500000, 115.000000) rotate(0.000000) translate(-113.500000, -115.000000) "></path><path d="M119,36 C112.311164,46.8384285 108,63.8759419 108,83.0362904 C108,102.153924 112.291963,119.158176 118.9553,130" stroke="#72CEAA" stroke-width="9" transform="translate(113.500000, 83.000000) rotate(-90.000000) translate(-113.500000, -83.000000) "></path><circle cx="114.5" cy="114.5" r="59.5" stroke="#72CEAA" stroke-width="9"></circle></g></svg>