<svg viewbox="0 0 1391 762" xmlns="http://www.w3.org/2000/svg" xmlns:xlink="http://www.w3.org/1999/xlink">
<defs>
<lineargradient id="frameLaptopThin-a" x1="50%" x2="50%" y1="100%" y2="0%">
<stop offset="0%" stop-color="#FFF">
</stop>
<stop offset="100%" stop-color="#F1F2F4">
</stop>
</lineargradient>
<path d="M166 0h1057c18.225 0 33 14.775 33 33v679c0 12.15-9.85 22-22 22H155c-12.15 0-22-9.85-22-22V33c0-18.225 14.775-33 33-33z" id="frameLaptopThin-b">
</path>
<filter filterunits="objectBoundingBox" height="102.3%" id="frameLaptopThin-c" width="101.5%" x="-.8%" y="-1.2%">
<fegaussianblur in="SourceAlpha" result="shadowBlurInner1" stddeviation="4">
</fegaussianblur>
<feoffset dy="-9" in="shadowBlurInner1" result="shadowOffsetInner1">
</feoffset>
<fecomposite in="shadowOffsetInner1" in2="SourceAlpha" k2="-1" k3="1" operator="arithmetic" result="shadowInnerInner1">
</fecomposite>
<fecolormatrix in="shadowInnerInner1" result="shadowMatrixInner1" values="0 0 0 0 0 0 0 0 0 0 0 0 0 0 0 0 0 0 0.0248033217 0">
</fecolormatrix>
<fegaussianblur in="SourceAlpha" result="shadowBlurInner2" stddeviation="1.5">
</fegaussianblur>
<feoffset in="shadowBlurInner2" result="shadowOffsetInner2">
</feoffset>
<fecomposite in="shadowOffsetInner2" in2="SourceAlpha" k2="-1" k3="1" operator="arithmetic" result="shadowInnerInner2">
</fecomposite>
<fecolormatrix in="shadowInnerInner2" result="shadowMatrixInner2" values="0 0 0 0 0 0 0 0 0 0 0 0 0 0 0 0 0 0 0.136636801 0">
</fecolormatrix>
<femerge>
<femergenode in="shadowMatrixInner1">
</femergenode>
<femergenode in="shadowMatrixInner2">
</femergenode>
</femerge>
</filter>
<path d="M303.477 740.075h776.702c195.565 0 299.171 7.333 310.821 22V763H0v-.925c31.315-14.667 132.474-22 303.477-22z" id="frameLaptopThin-d">
</path>
<filter filterunits="objectBoundingBox" height="236.4%" id="frameLaptopThin-e" width="102.2%" x="-1.1%" y="-68.2%">
<fegaussianblur in="SourceAlpha" result="shadowBlurInner1" stddeviation="9">
</fegaussianblur>
<feoffset dy="12" in="shadowBlurInner1" result="shadowOffsetInner1">
</feoffset>
<fecomposite in="shadowOffsetInner1" in2="SourceAlpha" k2="-1" k3="1" operator="arithmetic" result="shadowInnerInner1">
</fecomposite>
<fecolormatrix in="shadowInnerInner1" values="0 0 0 0 0.88627451 0 0 0 0 0.888083393 0 0 0 0 0.890196078 0 0 0 1 0">
</fecolormatrix>
</filter>
</defs>
<g fill="none" fill-rule="evenodd">
<g>
<use fill="url(#frameLaptopThin-a)" xlink:href="#frameLaptopThin-b">
</use>
<use fill="#000" filter="url(#frameLaptopThin-c)" xlink:href="#frameLaptopThin-b">
</use>
</g>
<path d="M182 33h1025c10.493 0 19 8.507 19 19v626c0 10.493-8.507 19-19 19H182c-10.493 0-19-8.507-19-19V52c0-10.493 8.507-19 19-19z" fill="transparent">
</path>
<path d="M3 729h1385a3 3 0 0 1 3 3v9H0v-9a3 3 0 0 1 3-3z" fill="#FFF">
</path>
<g transform="matrix(1 0 0 -1 0 1502)">
<use fill="#FFF" xlink:href="#frameLaptopThin-d">
</use>
<use fill="#000" filter="url(#frameLaptopThin-e)" xlink:href="#frameLaptopThin-d">
</use>
</g>
</g>
</svg>