<svg data-usage="social-icons-svg" style="display:none" version="1.1" xmlns="http://www.w3.org/2000/svg"><symbol id="linkedin-icon" viewbox="0 0 64 64"><path d="M20.4,44h5.4V26.6h-5.4V44z M23.1,18c-1.7,0-3.1,1.4-3.1,3.1c0,1.7,1.4,3.1,3.1,3.1 c1.7,0,3.1-1.4,3.1-3.1C26.2,19.4,24.8,18,23.1,18z M39.5,26.2c-2.6,0-4.4,1.4-5.1,2.8h-0.1v-2.4h-5.2V44h5.4v-8.6 c0-2.3,0.4-4.5,3.2-4.5c2.8,0,2.8,2.6,2.8,4.6V44H46v-9.5C46,29.8,45,26.2,39.5,26.2z"></path></symbol><symbol id="linkedin-mask" viewbox="0 0 64 64"><path d="M0,0v64h64V0H0z M25.8,44h-5.4V26.6h5.4V44z M23.1,24.3c-1.7,0-3.1-1.4-3.1-3.1c0-1.7,1.4-3.1,3.1-3.1 c1.7,0,3.1,1.4,3.1,3.1C26.2,22.9,24.8,24.3,23.1,24.3z M46,44h-5.4v-8.4c0-2,0-4.6-2.8-4.6c-2.8,0-3.2,2.2-3.2,4.5V44h-5.4V26.6 h5.2V29h0.1c0.7-1.4,2.5-2.8,5.1-2.8c5.5,0,6.5,3.6,6.5,8.3V44z"></path></symbol><symbol id="facebook-icon" viewbox="0 0 64 64"><path d="M34.1,47V33.3h4.6l0.7-5.3h-5.3v-3.4c0-1.5,0.4-2.6,2.6-2.6l2.8,0v-4.8c-0.5-0.1-2.2-0.2-4.1-0.2 c-4.1,0-6.9,2.5-6.9,7V28H24v5.3h4.6V47H34.1z"></path></symbol><symbol id="facebook-mask" viewbox="0 0 64 64"><path d="M0,0v64h64V0H0z M39.6,22l-2.8,0c-2.2,0-2.6,1.1-2.6,2.6V28h5.3l-0.7,5.3h-4.6V47h-5.5V33.3H24V28h4.6V24 c0-4.6,2.8-7,6.9-7c2,0,3.6,0.1,4.1,0.2V22z"></path></symbol></svg>