<svg height="24" style="enable-background:new 0 0 32 32;" version="1.1" viewbox="0 0 32 32" width="24" x="0" xml:space="preserve" xmlns="http://www.w3.org/2000/svg" xmlns:xlink="http://www.w3.org/1999/xlink" y="0">
<g id="icon-x-close">
<path d="M30.3448276,31.4576271 C29.9059965,31.4572473 29.4852797,31.2855701 29.1751724,30.980339 L0.485517241,2.77694915 C-0.122171278,2.13584324 -0.104240278,1.13679247 0.52607603,0.517159487 C1.15639234,-0.102473494 2.17266813,-0.120100579 2.82482759,0.477288136 L31.5144828,28.680678 C31.9872448,29.1460053 32.1285698,29.8453523 31.8726333,30.4529866 C31.6166968,31.0606209 31.0138299,31.4570487 30.3448276,31.4576271 Z" fill="#ffffff" id="Shape"></path>
<path d="M1.65517241,31.4576271 C0.986170142,31.4570487 0.383303157,31.0606209 0.127366673,30.4529866 C-0.12856981,29.8453523 0.0127551942,29.1460053 0.485517241,28.680678 L29.1751724,0.477288136 C29.8273319,-0.120100579 30.8436077,-0.102473494 31.473924,0.517159487 C32.1042403,1.13679247 32.1221713,2.13584324 31.5144828,2.77694915 L2.82482759,30.980339 C2.51472031,31.2855701 2.09400353,31.4572473 1.65517241,31.4576271 Z" fill="#ffffff" id="Shape"></path>
</g>
</svg>