<svg style="position: relative; height:80px">
<path class="st0" d="M8.5,33.9h3.8l4.8,14.4l4.8-14.4h3.8l3.5,20.6h-3.8l-2.2-13l-4.4,13h-3.5l-4.3-13l-2.3,13H4.9L8.5,33.9z" fill="#FFFFFF"></path>
<path class="st0" d="M43.2,39.2H47v15.2h-3.8v-1.6c-0.6,0.6-1.4,1.2-2.2,1.5c-0.8,0.3-1.6,0.5-2.4,0.5c-2,0-3.8-0.8-5.1-2.3c-1.4-1.5-2.2-3.6-2.1-5.7c-0.1-2.1,0.6-4.2,2-5.8c1.3-1.5,3.1-2.3,5.1-2.2c0.9,0,1.8,0.2,2.6,0.5c0.8,0.4,1.6,0.9,2.2,1.5L43.2,39.2z M39.2,42.4c-1.1,0-2.2,0.4-2.9,1.2c-0.8,0.9-1.2,2-1.2,3.2c0,1.2,0.4,2.4,1.2,3.2c0.7,0.8,1.8,1.3,2.9,1.3c1.1,0,2.2-0.4,3-1.3c0.8-0.9,1.2-2.1,1.2-3.3c0.1-1.2-0.4-2.3-1.2-3.2C41.4,42.8,40.3,42.3,39.2,42.4L39.2,42.4z" fill="#FFFFFF"></path>
<path class="st0" d="M62.1,39.2h3.8v13c0,2.6-0.5,4.5-1.6,5.7c-1.4,1.6-3.5,2.5-6.3,2.5H58c-1.2,0-2.5-0.2-3.7-0.6c-2-0.7-3.5-2.3-4.1-4.3h4.2c0.4,0.5,0.9,0.8,1.5,1c0.7,0.2,1.4,0.3,2.1,0.3h0c0.8,0,1.7-0.1,2.4-0.5c0.6-0.2,1-0.6,1.3-1.2c0.3-0.8,0.4-1.7,0.4-2.6c-0.6,0.6-1.3,1.1-2.1,1.5c-2.7,1-5.7,0.2-7.7-1.9c-1.4-1.5-2.2-3.5-2.1-5.6c-0.1-2.2,0.7-4.3,2.2-5.8c1.3-1.3,3-2,4.8-2c0.9,0,1.7,0.2,2.5,0.5c0.9,0.4,1.7,0.9,2.3,1.6V39.2z M58.1,42.4c-1.1,0-2.2,0.4-3,1.2c-1.6,1.8-1.6,4.4,0,6.2c0.8,0.8,1.9,1.2,3,1.2c1.1,0,2.2-0.4,2.9-1.2c0.8-0.8,1.2-2,1.2-3.1c0-1.1-0.4-2.3-1.2-3.1C60.3,42.9,59.2,42.4,58.1,42.4L58.1,42.4z" fill="#FFFFFF"></path>
<path class="st0" d="M85,48H72.8c0.1,1,0.6,1.9,1.4,2.6c0.8,0.7,1.9,1,2.9,1c1.4,0,2.7-0.5,3.7-1.5l3.2,1.5c-0.7,1.1-1.7,1.9-2.9,2.5c-1.3,0.6-2.6,0.9-4,0.8c-2.2,0.1-4.3-0.7-5.8-2.3C69.8,51.2,69,49.1,69,47c-0.1-2.2,0.8-4.2,2.2-5.8c1.5-1.5,3.5-2.4,5.6-2.3c2.2-0.1,4.3,0.8,5.8,2.3c1.5,1.6,2.3,3.8,2.3,6.1L85,48z M81.2,45c-0.2-0.8-0.8-1.6-1.5-2.1c-0.8-0.5-1.7-0.8-2.6-0.8c-1,0-2,0.3-2.8,0.9c-0.6,0.5-1.1,1.2-1.4,2L81.2,45z" fill="#FFFFFF"></path>
</svg>