<svg fill="#8595AE" style="height:40px" viewbox="0 0 187.78 36.38" xmlns="http://www.w3.org/2000/svg">
<path d="M193.74,22.31c0-5.44-3.71-8.61-8.6-8.61a8.53,8.53,0,0,0-8.83,8.9,8.63,8.63,0,0,0,8.83,9,10.3,10.3,0,0,0,5.15-1.3A7,7,0,0,0,193.59,26H190c-0.88,1.58-2.45,2.35-4.67,2.35-3,0-5.23-2.35-5.23-4.59H193.7C193.74,23.12,193.74,22.72,193.74,22.31ZM180.06,20.6A4.75,4.75,0,0,1,185,16.88c2.57,0,4.68,1.54,5,3.72h-9.89Z" transform="translate(-5.96 -5.23)"></path>
<path d="M19.59,24.85a5.16,5.16,0,1,1,.06-4.25h4a9,9,0,1,0,0,4.25h-4Z" transform="translate(-5.96 -5.23)"></path>
<path d="M37.9,14.46a8.06,8.06,0,0,0-3.6-.76,6.69,6.69,0,0,0-3.62,1.11v-0.5H27V31H30.7V23a13.36,13.36,0,0,1,.23-3.25l0-.08A2.82,2.82,0,0,1,32.31,18a3.72,3.72,0,0,1,4,0Z" transform="translate(-5.96 -5.23)"></path>
<path d="M51.87,14.31v8a13.36,13.36,0,0,1-.23,3.25l0,0.08a2.82,2.82,0,0,1-1.36,1.66,3.72,3.72,0,0,1-4,0,2.82,2.82,0,0,1-1.36-1.66l0-.08a13.36,13.36,0,0,1-.23-3.25v-8H41v9.1a11.14,11.14,0,0,0,.63,4.39,5.65,5.65,0,0,0,3,3,8.06,8.06,0,0,0,3.6.76,6.69,6.69,0,0,0,3.62-1.11V31h3.65V14.31H51.87Z" transform="translate(-5.96 -5.23)"></path>
<path d="M63.75,31V23A13.36,13.36,0,0,1,64,19.74l0-.08A2.82,2.82,0,0,1,65.36,18a3.72,3.72,0,0,1,4,0,2.82,2.82,0,0,1,1.36,1.66l0,0.08A13.36,13.36,0,0,1,70.93,23v8h3.67v-9.1A11.14,11.14,0,0,0,74,17.51a5.65,5.65,0,0,0-3-3,8.06,8.06,0,0,0-3.6-.76,6.69,6.69,0,0,0-3.62,1.11v-0.5H60.08V31h3.67Z" transform="translate(-5.96 -5.23)"></path>
<path d="M91.63,24.85a5.16,5.16,0,1,1,.06-4.25h4a9,9,0,1,0,0,4.25h-4Z" transform="translate(-5.96 -5.23)"></path>
<path d="M102.74,31V23a13.36,13.36,0,0,1,.23-3.25l0-.08A2.82,2.82,0,0,1,104.35,18a3.72,3.72,0,0,1,4,0,2.82,2.82,0,0,1,1.36,1.66l0,0.08a13.36,13.36,0,0,1,.23,3.25v8h3.67v-9.1a11.14,11.14,0,0,0-.63-4.39,5.65,5.65,0,0,0-3-3,8.06,8.06,0,0,0-3.6-.76,6.69,6.69,0,0,0-3.62,1.11V5.23H99.07V31h3.67Z" transform="translate(-5.96 -5.23)"></path>
<path d="M126.84,13.7l-0.66,0a8.88,8.88,0,0,0-4.4,1.55V5.23h-3.65V31h3.67V30.06A9,9,0,1,0,126.84,13.7ZM132,23.34l0,0.16a5.12,5.12,0,0,1-.14.63v0a5.11,5.11,0,0,1-.25.65l0,0.08A5.19,5.19,0,0,1,128,27.69h0l-0.49.08H127.4a5.08,5.08,0,0,1-.56,0h0a5.16,5.16,0,0,1-.7-0.05l-0.16,0a5.11,5.11,0,0,1-1.31-.4l-0.1,0a5.18,5.18,0,0,1-1.16-.78l0,0a5.21,5.21,0,0,1-.91-1.09l0,0a5.16,5.16,0,0,1-.33-0.64h0a5.13,5.13,0,0,1,.06-4.25h0a5.17,5.17,0,0,1,4.14-2.93,5.11,5.11,0,0,1,.53,0h0A5.17,5.17,0,0,1,132,22.65h0A5.15,5.15,0,0,1,132,23.34Z" transform="translate(-5.96 -5.23)"></path>
<path d="M173.34,19.3V19.22c0-2.72-2.09-5.49-6.75-5.54s-6.68,2.74-6.74,5.42h0v0.2h0c0.1,1.57,1,3.57,4.48,4.39l3.1,0.7c0.8,0.18,2.16.63,2.27,1.65h0c0,1.41-1.81,2.15-3.11,2.15-1.5,0-3.11-.83-3.11-2.16V25.95h-3.63V26c0,2.72,2.09,5.49,6.75,5.54s6.75-2.81,6.75-5.54V25.95h0c-0.08-1.59-.94-3.62-4.48-4.44l-3.1-.7c-0.68-.15-2.27-0.61-2.27-1.62,0-1.58,1.61-2.14,3.11-2.14s3.11,0.83,3.11,2.16V19.3h3.63Z" transform="translate(-5.96 -5.23)"></path>
<path d="M138.8,22.65a9,9,0,0,0,14,7.4V31h3.67V14.31h-3.65v1a8.88,8.88,0,0,0-4.4-1.55l-0.66,0A9,9,0,0,0,138.8,22.65Zm3.79,0h0a5.17,5.17,0,0,1,5.16-5.16h0a5.11,5.11,0,0,1,.53,0,5.17,5.17,0,0,1,4.14,2.93h0a5.13,5.13,0,0,1,.06,4.25h0a5.16,5.16,0,0,1-.33.64l0,0a5.21,5.21,0,0,1-.91,1.09l0,0a5.18,5.18,0,0,1-1.16.78l-0.1,0a5.11,5.11,0,0,1-1.31.4l-0.16,0a5.16,5.16,0,0,1-.7.05h0a5.08,5.08,0,0,1-.56,0h-0.07l-0.49-.08h0a5.19,5.19,0,0,1-3.53-2.81l0-.08a5.11,5.11,0,0,1-.25-0.65v0a5.12,5.12,0,0,1-.14-0.63l0-.16A5.15,5.15,0,0,1,142.59,22.65Z" transform="translate(-5.96 -5.23)"></path>
</svg>