<svg fill="none" height="43" viewbox="0 0 46 43" width="46" xmlns="http://www.w3.org/2000/svg">
<path clip-rule="evenodd" d="M2.95807 4.91618C4.12031 4.91618 5.0625 3.974 5.0625 2.81176C5.0625 1.64952 4.12031 0.707336 2.95807 0.707336C1.79583 0.707336 0.853653 1.64952 0.853653 2.81176C0.853653 3.974 1.79583 4.91618 2.95807 4.91618Z" fill="#E5E5E5" fill-rule="evenodd"></path>
<path clip-rule="evenodd" d="M4 17.3712C4 9.5781 11.6259 3.23993 21 3.23993C30.3741 3.23993 38 9.57951 38 17.3698C38 25.16 30.3741 31.4996 21 31.4996C19.1951 31.5031 17.3979 31.2649 15.6563 30.7913L7.18325 34.7353C6.6367 34.9898 5.98891 34.8706 5.56885 34.4381C5.14879 34.0056 5.0485 33.3546 5.31892 32.8157L8.33075 26.8033C5.61593 24.4149 4.04193 20.9868 4 17.3712ZM15.9538 27.9268C17.5898 28.4226 19.2905 28.6723 21 28.6677C28.8115 28.6677 35.1667 23.6017 35.1667 17.3712C35.1667 11.1407 28.8115 6.07326 21 6.07326C13.1885 6.07326 6.83333 11.1378 6.83333 17.3712C6.90907 20.5258 8.43863 23.4683 10.9771 25.3428C11.499 25.7605 11.6579 26.4863 11.3582 27.0838L10.1271 29.5418C10.0592 29.6765 10.0842 29.8395 10.1892 29.9477C10.2943 30.056 10.4564 30.0858 10.5932 30.022L14.9423 27.9976C15.2592 27.85 15.6195 27.8248 15.9538 27.9268Z" fill="#E5E5E5" fill-rule="evenodd"></path>
<path d="M25.2798 11.1392C23.9534 10.9171 22.6018 11.3535 21.6559 12.3094L21.1998 12.7656L20.7422 12.3094C19.1067 10.7181 16.497 10.7335 14.8803 12.3439C13.2637 13.9543 13.2383 16.564 14.8233 18.2056L20.6883 24.3242C20.8219 24.4631 21.0063 24.5417 21.1991 24.5417C21.3918 24.5417 21.5762 24.4631 21.7098 24.3242L27.5634 18.2169C28.8382 16.9448 29.154 14.9988 28.3468 13.3889C27.7507 12.1853 26.6069 11.3463 25.2798 11.1392Z" fill="#E5E5E5"></path>
<path clip-rule="evenodd" d="M43.2264 18.5259C44.3886 18.5259 45.3308 17.5837 45.3308 16.4215C45.3308 15.2593 44.3886 14.3171 43.2264 14.3171C42.0641 14.3171 41.1219 15.2593 41.1219 16.4215C41.1219 17.5837 42.0641 18.5259 43.2264 18.5259Z" fill="#E5E5E5" fill-rule="evenodd"></path>
<path clip-rule="evenodd" d="M27.8293 42.5366C28.8395 42.5366 29.6585 41.7176 29.6585 40.7073C29.6585 39.697 28.8395 38.8781 27.8293 38.8781C26.819 38.8781 26 39.697 26 40.7073C26 41.7176 26.819 42.5366 27.8293 42.5366Z" fill="#E5E5E5" fill-rule="evenodd"></path>
</svg>