<svg id="Layer_1" viewbox="0 0 738 144" xmlns="http://www.w3.org/2000/svg"><path class="st1" d="M80.6 27.7L48.3 27.5 64.2 128.1 67.6 128.1 99.3 128.1 102.7 128.1 118.6 27.5z" id="Fill-1"></path><path class="st0" d="M80.6 27.7L48.3 27.5 64.2 128.1 67.6 128.1 91.2 128.1 94.7 128.1 110.5 27.5z" id="Fill-2"></path><path class="st2" d="M39.1 27.5L122.3 27.5 122.3 18.2 39.1 18.2z" id="Fill-3"></path><path class="st3" d="M39.1 27.5L122.3 27.5 122.3 18.2 39.1 18.2z" id="Stroke-4"></path><path class="st2" d="M106.2 3.1L86.3 3.1 74.5 3.1 54.7 3.1 48.6 17.1 74.5 17.1 86.3 17.1 112.2 17.1z" id="Fill-6"></path><g id="Group-11" transform="translate(3.455)"><path class="st4" d="M102.7 3.1L82.9 3.1 71.1 3.1 51.2 3.1 45.2 17.1 71.1 17.1 82.9 17.1 108.8 17.1z" id="Stroke-7"></path><path class="st3" d="M77.1 27.7L39.1 27.5 54.9 128.1 58.4 128.1 95.8 128.1 99.3 128.1 115.1 27.5z" id="Stroke-9"></path></g><path class="st2" d="M119.7 55.9L81.8 55.9 79.1 55.9 41.1 55.9 48.2 95.9 80.4 95.6 112.6 95.9z" id="Fill-12"></path><path class="st3" d="M119.7 55.9L81.8 55.9 79.1 55.9 41.1 55.9 48.2 95.9 80.4 95.6 112.6 95.9z" id="Stroke-13"></path><g><path d="M174 41.6c.4-1.5 1-2.5 2-3s2-.8 3-.7c1 .1 1.9.4 2.7 1 .8.6 1.2 1.3 1.2 2 0 .3 0 .6-.1.9-.1.3-.1.6-.1.8 3.2-1.1 6.3-1.9 9.4-2.3s5.8-.2 8.4.4c2.5.7 4.7 1.9 6.7 3.7 1.9 1.8 3.3 4.2 4.2 7.4.4 1.3.4 2.8.2 4.5-.2 1.7-.6 3.5-1.2 5.2-.6 1.7-1.3 3.3-2.1 4.8s-1.6 2.5-2.5 3.2c1.9.6 3.6 1.6 5 3s2.5 3 3.4 4.8c.8 1.8 1.4 3.8 1.6 5.9.2 2.1.1 4.3-.4 6.4-.5 2.1-1.4 4-2.9 5.8-1.5 1.8-3.3 3.4-5.4 4.8-2.1 1.4-4.5 2.6-7.1 3.5-2.6.9-5.3 1.6-7.9 1.9-2.7.3-5.3.3-7.9 0-2.6-.3-5-1.1-7-2.2-.7 1.1-1.5 1.9-2.4 2.3-.9.4-1.8.6-2.6.4-.8-.2-1.6-.6-2.2-1.4-.6-.8-1-1.9-1.2-3.3.5-4.7.9-9.6 1.4-14.7.5-5.1.9-10.2 1.4-15.4.5-5.2.9-10.3 1.3-15.3.3-4.8.7-9.7 1.1-14.4zm3.7 54.3c1.5 1 3.2 1.7 5.3 2.1 2.1.3 4.2.4 6.5.1 2.2-.3 4.4-.8 6.6-1.7 2.2-.8 4.1-1.9 5.8-3.2 1.6-1.3 2.9-2.9 3.9-4.7.9-1.8 1.3-3.8 1-6-.1-.8-.4-1.5-.9-2.3-.5-.7-1-1.4-1.7-2-1.3-1.1-3-1.8-5.1-2.1-2.2-.3-4.5-.3-6.9-.1-2.4.2-4.8.6-7.1 1.2-2.3.5-4.2 1.1-5.7 1.6l-1.7 17.1zm2.5-27.4c.4 0 1.1 0 2.3-.1 1.2-.1 2.6-.2 4.1-.4 1.6-.2 3.2-.5 5-1 1.7-.4 3.4-1 4.9-1.8 1.5-.8 2.8-1.7 3.9-2.8 1.1-1.1 1.7-2.5 1.9-4.1.3-2 .1-3.7-.5-5-.6-1.3-1.4-2.3-2.6-3.1-1.2-.7-2.5-1.1-4.1-1.3-1.5-.2-3.1-.1-4.7.1s-3.2.6-4.7 1.1c-1.5.5-2.9 1.1-4 1.8l-1.5 16.6zm41.4-5.8c.7-1.3 1.6-2.2 2.6-2.7s2-.6 3-.4c1 .2 1.8.8 2.5 1.7.7.9 1 2.1 1 3.6-.2.6-.4 1.9-.9 3.8-.4 1.9-.9 4-1.4 6.5-.5 2.5-1 5-1.4 7.8-.5 2.7-.8 5.3-.9 7.6-.2 2.3-.1 4.2.1 5.8s.8 2.4 1.6 2.6c1.5.3 2.9-.3 4.2-1.7 1.3-1.4 2.5-3.3 3.6-5.6s2.1-4.9 3-7.8c.9-2.9 1.7-5.6 2.3-8.3.7-2.6 1.2-5 1.6-7 .4-2 .7-3.4.9-4.1.4-1.3.8-2.4 1.4-3.2.6-.8 1.5-1.5 2.8-2 1.8-.2 3.2.2 4.3 1.1 1 1 1.6 2.4 1.6 4.2-.4 2-.9 4.2-1.4 6.5-.5 2.3-1 4.6-1.5 6.8-.5 2.3-.9 4.5-1.2 6.6-.3 2.1-.5 4-.6 5.7-.1 1.7 0 3.1.2 4.2s.7 1.9 1.4 2.2c1.7.3 3.2-.6 4.5-2.6 1.3-2 2.8-5.2 4.3-9.7.5-1.1 1.2-1.9 2.1-2.1.9-.3 1.8-.2 2.6.2s1.4 1.1 1.9 2.1c.4 1 .4 2.2 0 3.6-.3.9-.7 1.9-1.2 3.1-.5 1.2-1 2.4-1.7 3.6-.7 1.3-1.4 2.5-2.2 3.8-.8 1.3-1.6 2.4-2.5 3.4-1.3 1.6-2.8 2.7-4.4 3.3-1.6.7-3.2.9-4.8.7-1.6-.2-3.1-.9-4.5-2s-2.6-2.6-3.4-4.6c-.9 1.4-1.9 2.6-2.9 3.8-1 1.1-2 2.1-3.2 3-1.2.8-2.5 1.4-3.9 1.8-1.4.4-3.1.5-5 .4-1.9-.1-3.4-.6-4.7-1.6-1.2-.9-2.2-2.1-2.9-3.6-.7-1.5-1.1-3.1-1.4-4.8-.3-1.7-.4-3.5-.4-5.3 0-1.8.1-3.5.2-5 .1-1.6.2-2.9.4-4 .2-1.4.4-3.1.7-4.9.3-1.9.7-3.8 1.1-5.8.4-2 .8-3.9 1.2-5.7.7-2 1-3.6 1.3-5z"></path><path d="M263.2 62.7c.5-1.3 1.4-2.1 2.6-2.4 1.2-.4 2.3-.4 3.4 0 1.1.3 2 1 2.6 2 .6 1 .6 2.3 0 3.8-.4 1.3-.9 2.8-1.3 4.6-.5 1.8-.9 3.8-1.3 5.8s-.7 4.1-.9 6.1c-.2 2.1-.3 4-.2 5.7.1 1.7.3 3.2.7 4.3.4 1.1 1.1 1.9 2 2.1 2 .1 3.9-.3 5.7-1.2 1.7-.9 3.4-2.2 4.9-3.8 1.5-1.6 2.9-3.5 4.1-5.6 1.3-2.1 2.4-4.2 3.4-6.5 1-2.2 1.9-4.4 2.7-6.5.8-2.1 1.5-4.1 2.2-5.8.7-1.3 1.6-2.2 2.6-2.7s2-.6 3-.4c1 .2 1.8.8 2.5 1.7.7.9 1 2.1 1 3.6-.9 2.8-1.7 5.6-2.2 8.5-.5 2.9-.8 5.7-1 8.5-.1 2-.1 3.9-.1 5.9 0 1.9.1 3.7.4 5.4.6-.3 1.4-.8 2.4-1.5s2.1-1.5 3.2-2.4c1.1-.9 2.2-2 3.2-3.1s1.9-2.3 2.6-3.6c1-1.3 2.1-1.8 3.1-1.7s1.9.5 2.6 1.3c.7.8 1.1 1.7 1.3 2.8.2 1.1 0 2-.6 2.8-1.9 3.2-4.3 6.2-7.1 9.1-2.9 2.9-6.5 5.2-11 7.1.2 2.2.2 4.8 0 7.7-.2 2.9-.5 5.8-1.1 8.8-.6 3-1.4 5.8-2.4 8.6-1 2.7-2.3 5.1-3.9 7-1.6 1.9-3.5 3.3-5.6 4.1-2.1.8-4.6.8-7.4-.1-2.7-.8-4.7-2.2-5.9-4.1-1.2-1.9-1.8-4.2-1.8-6.8 0-2.6.5-5.4 1.4-8.3 1-3 2.4-5.9 4.1-8.8 1.7-2.9 3.8-5.6 6.1-8.2 2.3-2.6 4.8-4.7 7.4-6.6.1-1.3.1-2.4.1-3.5s0-2.2.1-3.4c-1.3 1.7-2.8 3.3-4.6 4.8-1.7 1.5-3.6 2.9-5.7 4-2 1.1-4.2 1.9-6.4 2.3-2.2.4-4.5.3-6.9-.3-2.2-.6-3.9-1.8-5.2-3.4-1.3-1.7-2.2-3.7-2.8-6-.6-2.3-.8-4.9-.8-7.7.1-2.8.3-5.6.7-8.5.4-2.8 1-5.6 1.8-8.3.6-2.7 1.4-5.1 2.3-7.2zm27.4 49.2c-1.2 1-2.3 2.2-3.4 3.7s-2.1 3-2.9 4.7c-.9 1.6-1.6 3.2-2.2 4.9-.6 1.6-1 3.1-1.2 4.4-.2 1.3-.2 2.4 0 3.3.2.9.7 1.4 1.5 1.5 1 .2 1.9-.2 2.8-1.2.9-1 1.6-2.2 2.3-3.8s1.3-3.3 1.8-5.2c.5-1.9.9-3.7 1.2-5.4.3-1.7.4-3.2.5-4.5 0-1.3-.1-2.1-.4-2.4zm41.9-8.1c.7-4.7 1.3-8.9 1.6-12.5.3-3.6.5-6.7.6-9.4.1-2.7 0-5-.1-6.8-.1-1.9-.3-3.4-.5-4.7-.2-1.3-.4-2.4-.7-3.2-.2-.8-.4-1.5-.4-2.1-.1-.8 0-1.5.2-2.1.2-.6.6-1.1 1-1.5.4-.4 1-.7 1.5-1 .6-.2 1.1-.4 1.7-.4 1.1 0 2 .2 2.7.5.6.4 1.1.9 1.4 1.6.3.7.6 1.6.7 2.6.1 1 .2 2.2.4 3.6.7-1.1 1.5-2.3 2.3-3.5.9-1.2 1.9-2.2 3-3.2 1.1-.9 2.3-1.7 3.6-2.3 1.3-.6 2.8-.9 4.3-.9 1.6 0 3.2.3 4.6.9 1.5.6 2.8 1.4 4 2.5 1.2 1.1 2.2 2.3 3 3.8.8 1.4 1.4 3 1.8 4.7 1.1-2.2 2.4-4.3 3.8-6.3s3.2-3.5 5.6-4.6c2.3-1.1 4.5-1.4 6.6-.9s3.8 1.4 5.4 2.9c1.5 1.4 2.8 3.2 3.6 5.4.9 2.2 1.3 4.4 1.3 6.8 0 2.7-.2 5.6-.5 8.5-.3 3-.6 5.7-.9 8.3-.3 2.6-.4 4.7-.3 6.4.1 1.7.5 2.7 1.4 2.9 1.4.4 2.8-.1 4.1-1.3 1.3-1.2 2.5-2.7 3.6-4.5 1.1-1.8 2-3.6 2.8-5.4.8-1.9 1.4-3.3 1.9-4.3.4-.9 1-1.4 1.8-1.6.8-.2 1.6-.2 2.3.2.8.3 1.4.9 1.9 1.7.5.8.7 1.8.5 2.9-.6 2.6-1.5 5.1-2.6 7.7-1.1 2.6-2.5 4.9-4.1 6.9-1.6 2.1-3.6 3.7-5.9 5-2.3 1.3-4.9 1.9-7.9 1.9-2 0-3.6-.5-4.9-1.6-1.3-1.1-2.3-2.4-3-3.9-.7-1.5-1.2-3.2-1.5-4.9-.3-1.7-.4-3.2-.4-4.5 0-1.9.1-3.7.4-5.4.2-1.7.5-3.4.8-5 .3-1.6.6-3.2.8-4.8.2-1.5.4-3 .4-4.5 0-2-.2-3.5-.7-4.7-.4-1.1-1.1-1.7-1.9-1.7-1.6 0-3.1 1-4.6 2.9-1.4 1.9-2.7 4.4-3.9 7.4-1.2 3-2.2 6.4-3.1 10.2-.9 3.8-1.6 7.6-2.2 11.3-.2 1.3-.7 2.2-1.7 2.8-1 .5-2 .8-3.2.6-1.1-.1-2.1-.5-3.1-1.3-.9-.7-1.4-1.7-1.4-2.9.1-.7.3-1.9.5-3.7.2-1.8.4-3.8.6-6.1.2-2.3.3-4.7.3-7.2s-.1-4.8-.5-6.8c-.3-2.1-.9-3.8-1.7-5.1-.8-1.3-1.9-2-3.4-2-1.2 0-2.3.6-3.4 1.7s-2.2 2.6-3.2 4.5-1.9 4-2.8 6.5c-.8 2.5-1.6 5-2.2 7.7-.7 2.7-1.2 5.5-1.6 8.2-.4 2.8-.7 5.4-.9 7.8-.2 1.3-.8 2.2-1.8 2.7-1.1.5-2.2.7-3.4.6-1.2-.1-2.3-.5-3.2-1.2-.9-.8-1.3-1.7-1.2-2.8z"></path><path d="M433.3 69c-.1 2.6-.6 5.2-1.4 7.9-.8 2.6-2.1 5-3.7 7.1s-3.6 3.8-5.9 5.1c-2.3 1.3-5 1.8-7.9 1.6.1 1.6.2 3.2.5 4.7s.8 2.8 1.5 3.9 1.7 1.8 2.9 2.3c1.2.4 2.7.4 4.5-.2 1.8-.5 3.6-1.4 5.2-2.6 1.7-1.2 3.2-2.6 4.5-4.1 1.3-1.6 2.5-3.2 3.4-5 .9-1.7 1.6-3.5 2-5.1.2-.9.7-1.4 1.5-1.6.8-.2 1.6-.2 2.5.1.9.3 1.6.7 2.2 1.4.6.7.8 1.4.6 2.2-1.1 3-2.3 5.7-3.4 8.1-1.1 2.3-2.4 4.4-3.7 6.2-1.4 1.8-2.9 3.3-4.6 4.6-1.7 1.3-3.7 2.3-6 3.1-3.1 1.1-5.9 1.6-8.5 1.4-2.6-.1-4.9-.8-6.8-2.1-1.9-1.3-3.5-3-4.6-5.3-1.1-2.3-1.8-5.1-1.9-8.4-.1-1.6-.1-3.5-.1-5.7s.2-4.5.4-7 .7-4.9 1.3-7.4c.6-2.5 1.4-4.8 2.3-7 1-2.2 2.2-4.1 3.7-5.7 1.5-1.6 3.3-2.8 5.4-3.6 1.8-.6 3.5-.9 5.2-.7 1.7.2 3.2.7 4.6 1.6 1.3.9 2.4 2.3 3.2 4 .8 1.7 1.2 3.8 1.1 6.2zm-9.8-2c-.7-.5-1.4-.5-2.2-.1-.7.4-1.4 1-2 2-.6.9-1.2 2-1.6 3.2-.5 1.3-.9 2.5-1.2 3.9-.3 1.3-.5 2.6-.7 3.8-.2 1.2-.2 2.2-.1 2.9 2.4-.5 4.3-1.5 5.7-3 1.4-1.5 2.4-3.1 2.9-4.9.5-1.7.7-3.3.5-4.9-.1-1.5-.6-2.5-1.3-2.9zm49 38.2c-3.2 0-5.7-.9-7.6-2.7-1.9-1.8-3.1-4.1-3.9-6.8-.7-2.8-1-5.9-.7-9.3.3-3.4 1-6.7 2.2-10 1.1-3.3 2.6-6.3 4.5-9 1.9-2.8 4-4.9 6.4-6.3 2.4-1.5 5-2.1 7.9-1.9 2.8.2 5.8 1.6 8.9 4.3.3-.9 1-1.5 2-1.7 1-.2 2.1-.1 3.1.3s1.9 1 2.5 2c.7.9.8 2 .4 3.3-.4 1.5-.8 3.2-1.4 5.4s-1.1 4.3-1.7 6.6c-.5 2.3-1 4.6-1.4 6.9-.4 2.3-.6 4.4-.5 6.3 0 1.9.3 3.4.8 4.6.5 1.2 1.4 1.9 2.7 2 1.6.1 3-.4 4.4-1.6 1.4-1.2 2.6-2.6 3.7-4.4 1.1-1.8 2-3.7 2.7-5.6.7-2 1.2-3.7 1.4-5.2.4-1.4 1-2.2 1.8-2.4.9-.2 1.7-.1 2.5.3s1.5 1.1 2 1.9c.5.9.6 1.7.2 2.5-.4 2.1-1.1 4.5-2.2 7.2s-2.5 5.2-4.2 7.7c-1.7 2.4-3.6 4.5-5.8 6.1-2.1 1.7-4.4 2.5-6.9 2.5-1.1 0-2.2-.2-3.4-.6-1.2-.4-2.3-1-3.4-1.8s-2-1.9-2.9-3.2c-.8-1.3-1.4-2.9-1.8-4.8-.5.6-1.1 1.3-2 2.2-.8.9-1.8 1.7-2.9 2.5s-2.3 1.5-3.6 2c-1.1.4-2.4.7-3.8.7zm-.1-9.8c1.7.2 3.1-.2 4.4-1.2 1.3-.9 2.4-2.2 3.4-3.8 1-1.6 1.8-3.4 2.5-5.4.7-2 1.2-3.9 1.7-5.8.4-1.9.8-3.5 1.1-5.1.3-1.5.4-2.6.5-3.3-1.7-1.4-3.2-2.1-4.7-2.2-1.5-.1-2.8.4-4 1.2-1.2.9-2.3 2.1-3.2 3.6-.9 1.6-1.7 3.3-2.4 5.1-.7 1.9-1.1 3.7-1.4 5.7s-.5 3.7-.4 5.3c0 1.6.3 2.9.7 4 .3 1.2 1 1.8 1.8 1.9zM556 75.9c-.1 0-.2 0-.2-.1-.6 1.3-1.3 2.2-2.2 2.7-.9.6-1.8.8-2.8.7-.9-.1-1.8-.6-2.5-1.4-.8-.8-1.3-1.9-1.5-3.3 0-.7.1-1.5.2-2.5.2-1 .3-2 .4-3 .1-1 0-1.8-.1-2.5-.2-.7-.6-1.1-1.3-1.2-1.2.7-2.2 1.8-3.1 3.4-.9 1.6-1.6 3.4-2.2 5.4-.6 2-1 4.1-1.2 6.4-.2 2.2-.3 4.4-.2 6.5.1 2.1.3 3.9.8 5.5.4 1.6 1.1 2.8 1.9 3.5 1 1 2.2 1.6 3.4 1.8 1.3.2 2.6.2 3.9-.1 1.1-.2 2.5-.6 3.9-1.2 1.5-.6 2.9-1.4 4.4-2.5 1.5-1.1 2.9-2.5 4.3-4.2 1.4-1.7 2.6-3.9 3.6-6.5.4-.8 1-1.3 1.9-1.4.9-.2 1.8-.1 2.7.3.9.3 1.6.9 2.1 1.7.5.8.6 1.7.2 2.9-1 2.5-2.3 4.6-3.9 6.6s-3.2 3.6-5 5.1c-1.8 1.5-3.6 2.7-5.6 3.8-1.9 1-3.8 1.9-5.6 2.6-1.4.5-2.9.9-4.5 1.2-1.6.3-3.1.4-4.7.2s-3.1-.6-4.6-1.2c-1.5-.7-2.8-1.7-3.9-3.1-1.4-1.6-2.4-3.6-3.2-6-.8-2.4-1.2-5-1.4-7.7-.2-2.7-.1-5.5.2-8.4.3-2.9.9-5.6 1.7-8.2.8-2.6 1.9-4.9 3.1-7 1.3-2.1 2.8-3.8 4.4-5 2.7-1.8 5.4-2.7 7.9-2.5 2.6.1 4.6 1.3 6.1 3.5 1.2.2 2.2.8 2.9 1.8.7 1 .9 2.2.6 3.6l-.9 9.8z"></path><path d="M589.6 59.3c2.4-.8 4.5-.9 6.3-.5s3.3 1.4 4.5 2.7c1.2 1.4 2.2 3 2.9 5 .7 2 1.2 4.1 1.4 6.4.1 1 .2 2.2.2 3.4 0 1.3 0 2.5-.1 3.8-.1 1.3-.2 2.5-.3 3.6-.1 1.1-.3 2.2-.5 3.1 1.3-.1 2.4-.2 3.4-.5s1.9-.6 2.7-1c.8-.4 1.6-.8 2.4-1.3.8-.5 1.5-.9 2.3-1.3 1-.5 1.8-.6 2.5-.2s1.1 1 1.3 1.8c.2.8.3 1.6.2 2.5-.1.9-.5 1.6-1.1 2.2-2.5 2.3-5.2 4-8.2 5s-6 1.5-9.1 1.5c-2 3.6-4.6 6.3-7.8 8.2-3.2 1.9-6.7 2.8-10.4 2.9-3.5.1-6.4-.7-8.8-2.1-2.4-1.5-4.3-3.4-5.7-5.7s-2.3-5-2.8-8c-.4-3-.4-6 0-9.1s1.3-6 2.7-8.9c1.3-2.9 3-5.4 5.1-7.6 2.1-2.1 4.6-3.8 7.4-4.9 2.7-1.1 5.9-1.5 9.5-1zm-5.7 9c-1.7.4-3.2 1.3-4.6 2.8-1.4 1.5-2.6 3.3-3.6 5.3-1 2.1-1.7 4.3-2.1 6.7-.4 2.4-.5 4.7-.1 6.8.3 2.1 1.1 4 2.4 5.5 1.3 1.6 3.1 2.6 5.4 3.1.8.2 1.8.1 2.8-.2 1-.3 2.1-.8 3.1-1.4 1-.6 1.9-1.4 2.7-2.2.8-.9 1.4-1.7 1.8-2.6-1.5-.9-2.7-2-3.7-3.2-1-1.3-1.9-2.6-2.6-4.1-1.1-2.5-1.8-5.2-2-8-.3-3.1-.1-5.8.5-8.5zm9.7.4c-1.5.9-2.3 2.1-2.5 3.7-.2 1.6 0 3.2.4 4.9.5 1.6 1.1 3.1 2 4.4.8 1.3 1.5 2.1 2.1 2.4.3-.3.6-.9.7-1.8.2-1 .3-2.1.4-3.3.1-1.3 0-2.6-.1-3.9-.1-1.4-.3-2.6-.5-3.6-.3-1-.6-1.8-1-2.4-.4-.6-.9-.7-1.5-.4z"></path><path d="M614.5 41.1c.7-1.3 1.7-2.1 2.8-2.5 1.1-.4 2.2-.4 3.2-.1 1 .3 1.8.9 2.4 1.7.6.8.8 1.8.5 2.9l-4.9 52c2.2-.2 4.4-.6 6.6-1.4 2.1-.8 4.2-1.7 6.2-2.9s3.9-2.5 5.7-4 3.5-2.9 5-4.5c.8-.4 1.6-.3 2.2.5.7.7 1.1 1.7 1.4 2.8.3 1.1.3 2.3.2 3.5-.2 1.2-.7 2.1-1.5 2.6-1.1.8-2.3 1.8-3.7 2.8s-2.7 2-4.1 2.9c-1.4.9-2.7 1.7-4 2.5-1.3.7-2.4 1.2-3.4 1.5 1.6 1.7 2.8 3.9 3.7 6.6.9 2.7 1.4 5.5 1.6 8.5.2 3 .1 6-.4 9s-1.3 5.6-2.5 7.9c-1.2 2.3-2.8 4.1-4.7 5.4-1.9 1.3-4.2 1.8-6.9 1.4-2.5-.3-4.5-1.3-6.1-2.9-1.5-1.6-2.7-3.6-3.6-5.9-.8-2.3-1.4-4.9-1.6-7.8-.3-2.8-.4-5.7-.3-8.5.1-2.8.2-5.5.4-8s.3-4.7.4-6.4c0-1 .1-2.9.3-5.6.2-2.8.5-6 .7-9.8.3-3.8.6-7.8 1-12.1s.8-8.5 1.2-12.6c.4-4.1.8-7.8 1.2-11.3.3-3.5.7-6.3 1-8.2zm5.8 88.7c1.4-.1 2.6-.7 3.5-1.9.9-1.2 1.6-2.7 2.1-4.5.4-1.8.6-3.7.5-5.8-.1-2.1-.5-4.1-1.1-5.9-.6-1.8-1.5-3.4-2.7-4.7-1.2-1.3-2.6-2.1-4.4-2.3-.1.9-.2 2.1-.4 3.8-.2 1.6-.3 3.4-.5 5.2-.1 1.9-.2 3.8-.2 5.7 0 1.9.1 3.7.2 5.2.2 1.6.5 2.8 1 3.8.4 1 1.1 1.5 2 1.4z"></path><path d="M642.9 41.1c.7-1.3 1.7-2.1 2.8-2.5 1.1-.4 2.2-.4 3.2-.1 1 .3 1.8.9 2.4 1.7.6.8.8 1.8.5 2.9l-4.9 52c2.2-.2 4.4-.6 6.6-1.4s4.2-1.7 6.2-2.9 3.9-2.5 5.7-4 3.5-2.9 5-4.5c.8-.4 1.6-.3 2.2.5.7.7 1.1 1.7 1.4 2.8.3 1.1.3 2.3.2 3.5-.2 1.2-.7 2.1-1.5 2.6-1.1.8-2.3 1.8-3.7 2.8s-2.7 2-4.1 2.9c-1.4.9-2.7 1.7-4 2.5-1.3.7-2.4 1.2-3.4 1.5 1.6 1.7 2.8 3.9 3.7 6.6.9 2.7 1.4 5.5 1.6 8.5.2 3 .1 6-.4 9s-1.3 5.6-2.5 7.9c-1.2 2.3-2.8 4.1-4.7 5.4-1.9 1.3-4.2 1.8-6.9 1.4-2.5-.3-4.5-1.3-6.1-2.9-1.5-1.6-2.7-3.6-3.6-5.9-.8-2.3-1.4-4.9-1.6-7.8-.3-2.8-.4-5.7-.3-8.5.1-2.8.2-5.5.4-8s.3-4.7.4-6.4c0-1 .1-2.9.3-5.6.2-2.8.5-6 .7-9.8.3-3.8.6-7.8 1-12.1s.8-8.5 1.2-12.6c.4-4.1.8-7.8 1.2-11.3.2-3.5.6-6.3 1-8.2zm5.7 88.7c1.4-.1 2.6-.7 3.5-1.9.9-1.2 1.6-2.7 2.1-4.5.4-1.8.6-3.7.5-5.8-.1-2.1-.5-4.1-1.1-5.9-.6-1.8-1.5-3.4-2.7-4.7-1.2-1.3-2.7-2.1-4.4-2.3-.1.9-.2 2.1-.4 3.8-.2 1.6-.3 3.4-.5 5.2s-.2 3.8-.2 5.7c0 1.9.1 3.7.2 5.2s.5 2.8 1 3.8c.4 1 1.1 1.5 2 1.4z"></path><path d="M694 69c-.1 2.6-.6 5.2-1.4 7.9-.8 2.6-2.1 5-3.7 7.1s-3.6 3.8-5.9 5.1c-2.3 1.3-5 1.8-7.9 1.6.1 1.6.2 3.2.5 4.7s.8 2.8 1.5 3.9 1.7 1.8 2.9 2.3c1.2.4 2.7.4 4.5-.2 1.8-.5 3.6-1.4 5.2-2.6 1.7-1.2 3.2-2.6 4.5-4.1 1.3-1.6 2.5-3.2 3.4-5 .9-1.7 1.6-3.5 2-5.1.2-.9.7-1.4 1.5-1.6.8-.2 1.6-.2 2.5.1.9.3 1.6.7 2.2 1.4.6.7.8 1.4.6 2.2-1.1 3-2.3 5.7-3.4 8.1-1.1 2.3-2.4 4.4-3.7 6.2-1.4 1.8-2.9 3.3-4.6 4.6-1.7 1.3-3.7 2.3-6 3.1-3.1 1.1-5.9 1.6-8.5 1.4-2.6-.1-4.9-.8-6.8-2.1-1.9-1.3-3.5-3-4.6-5.3-1.1-2.3-1.8-5.1-1.9-8.4-.1-1.6-.1-3.5-.1-5.7s.2-4.5.4-7 .7-4.9 1.3-7.4c.6-2.5 1.4-4.8 2.3-7 1-2.2 2.2-4.1 3.7-5.7 1.5-1.6 3.3-2.8 5.4-3.6 1.8-.6 3.5-.9 5.2-.7 1.7.2 3.2.7 4.6 1.6 1.3.9 2.4 2.3 3.2 4 .8 1.7 1.2 3.8 1.1 6.2zm-9.9-2c-.7-.5-1.4-.5-2.2-.1-.7.4-1.4 1-2 2-.6.9-1.2 2-1.6 3.2-.5 1.3-.9 2.5-1.2 3.9-.3 1.3-.5 2.6-.7 3.8-.2 1.2-.2 2.2-.1 2.9 2.4-.5 4.3-1.5 5.7-3 1.4-1.5 2.4-3.1 2.9-4.9.5-1.7.7-3.3.5-4.9 0-1.5-.5-2.5-1.3-2.9z"></path><path d="M725.6 69c-.1 2.6-.6 5.2-1.4 7.9-.8 2.6-2.1 5-3.7 7.1s-3.6 3.8-5.9 5.1c-2.3 1.3-5 1.8-7.9 1.6.1 1.6.2 3.2.5 4.7s.8 2.8 1.5 3.9 1.7 1.8 2.9 2.3c1.2.4 2.7.4 4.5-.2 1.8-.5 3.6-1.4 5.2-2.6 1.7-1.2 3.2-2.6 4.5-4.1 1.3-1.6 2.5-3.2 3.4-5 .9-1.7 1.6-3.5 2-5.1.2-.9.7-1.4 1.5-1.6.8-.2 1.6-.2 2.5.1.9.3 1.6.7 2.2 1.4.6.7.8 1.4.6 2.2-1.1 3-2.3 5.7-3.4 8.1-1.1 2.3-2.4 4.4-3.7 6.2-1.4 1.8-2.9 3.3-4.6 4.6-1.7 1.3-3.7 2.3-6 3.1-3.1 1.1-5.9 1.6-8.5 1.4-2.6-.1-4.9-.8-6.8-2.1-1.9-1.3-3.5-3-4.6-5.3-1.1-2.3-1.8-5.1-1.9-8.4-.1-1.6-.1-3.5-.1-5.7s.2-4.5.4-7 .7-4.9 1.3-7.4c.6-2.5 1.4-4.8 2.3-7 1-2.2 2.2-4.1 3.7-5.7 1.5-1.6 3.3-2.8 5.4-3.6 1.8-.6 3.5-.9 5.2-.7 1.7.2 3.2.7 4.6 1.6 1.3.9 2.4 2.3 3.2 4 .7 1.7 1.1 3.8 1.1 6.2zm-9.9-2c-.7-.5-1.4-.5-2.2-.1-.7.4-1.4 1-2 2-.6.9-1.2 2-1.6 3.2-.5 1.3-.9 2.5-1.2 3.9-.3 1.3-.5 2.6-.7 3.8-.2 1.2-.2 2.2-.1 2.9 2.4-.5 4.3-1.5 5.7-3 1.4-1.5 2.4-3.1 2.9-4.9.5-1.7.7-3.3.5-4.9 0-1.5-.5-2.5-1.3-2.9z"></path></g></svg>