<svg fill="none" height="30" viewbox="0 0 30 30" width="30" xmlns="http://www.w3.org/2000/svg">
<path d="M14.8956 0C6.6822 0 0 6.6822 0 14.8956C0 23.1084 6.6822 29.7912 14.8956 29.7912C23.1084 29.7912 29.7912 23.1084 29.7912 14.8956C29.7912 6.6822 23.1096 0 14.8956 0Z" fill="#FF813F"></path>
<path clip-rule="evenodd" d="M14.5 6C9.80749 6 6 9.80749 6 14.5C6 19.1925 9.80749 23 14.5 23C19.1833 23 23 19.1925 23 14.5C23 9.80749 19.1833 6 14.5 6ZM20.1144 9.91811C21.1285 11.1535 21.737 12.7299 21.7554 14.4355C21.5157 14.3894 19.1188 13.9008 16.7034 14.205C16.6481 14.0851 16.6019 13.9561 16.5466 13.827C16.3991 13.4767 16.2332 13.1171 16.0672 12.776C18.7408 11.6882 19.9577 10.1209 20.1144 9.91811ZM14.5 7.2538C16.3438 7.2538 18.0309 7.94523 19.3124 9.07918C19.1833 9.26356 18.0862 10.7294 15.5049 11.6974C14.3156 9.51247 12.9973 7.72397 12.7945 7.4474C13.3384 7.31833 13.91 7.2538 14.5 7.2538ZM11.4116 7.93601C11.6052 8.19414 12.8959 9.99187 14.1036 12.1307C10.711 13.0342 7.71476 13.0157 7.39208 13.0157C7.86225 10.7663 9.38341 8.89479 11.4116 7.93601ZM7.23536 14.5092C7.23536 14.4355 7.23536 14.3617 7.23536 14.288C7.54881 14.2972 11.0705 14.3433 14.6936 13.2554C14.9056 13.6611 15.0992 14.0759 15.2836 14.4908C15.1914 14.5184 15.09 14.5461 14.9978 14.5737C11.2549 15.7815 9.26356 19.0819 9.09762 19.3585C7.94523 18.077 7.23536 16.3715 7.23536 14.5092ZM14.5 21.7646C12.8221 21.7646 11.2733 21.1931 10.0472 20.2343C10.1763 19.9669 11.6513 17.1274 15.7446 15.6985C15.763 15.6893 15.7722 15.6893 15.7907 15.68C16.814 18.3259 17.2289 20.5477 17.3395 21.1838C16.4637 21.5618 15.5049 21.7646 14.5 21.7646ZM18.5472 20.5201C18.4734 20.0775 18.0862 17.9572 17.1367 15.3482C19.4138 14.9886 21.4051 15.5786 21.654 15.6616C21.3406 17.6806 20.179 19.423 18.5472 20.5201Z" fill="white" fill-rule="evenodd"></path>
</svg>