<svg fill="none" height="30" viewbox="0 0 30 30" width="30" xmlns="http://www.w3.org/2000/svg">
<path clip-rule="evenodd" d="M0 14.8956C0 6.6822 6.6822 0 14.8956 0C23.1096 0 29.7912 6.6822 29.7912 14.8956C29.7912 23.1084 23.1084 29.7912 14.8956 29.7912C6.6822 29.7912 0 23.1084 0 14.8956ZM21.5508 11.9316C21.5508 11.7828 21.5472 11.634 21.5406 11.4864C22.2108 11.0046 22.7922 10.4004 23.2494 9.714C22.6368 9.987 21.9744 10.1706 21.2802 10.2534C21.99 9.8286 22.5318 9.1572 22.7898 8.3562C22.1256 8.7504 21.3936 9.0348 20.6118 9.1884C19.9854 8.5224 19.0956 8.106 18.1092 8.106C16.2162 8.106 14.6814 9.6414 14.6814 11.5344C14.6814 11.8038 14.7108 12.0648 14.7696 12.3162C11.9208 12.1722 9.3936 10.8078 7.7034 8.733C7.4082 9.2394 7.2396 9.8286 7.2396 10.4574C7.2396 11.6466 7.845 12.6966 8.7642 13.3104C8.2026 13.293 7.674 13.1382 7.212 12.882C7.2114 12.8958 7.2114 12.9108 7.2114 12.9252C7.2114 14.5872 8.3928 15.9726 9.9612 16.287C9.6738 16.3656 9.3702 16.4064 9.0576 16.4064C8.8374 16.4064 8.622 16.3842 8.4132 16.3446C8.8494 17.7072 10.116 18.6984 11.616 18.726C10.4424 19.6452 8.9646 20.1936 7.3578 20.1936C7.0812 20.1936 6.8082 20.1774 6.54 20.1456C8.0568 21.1188 9.8592 21.6846 11.7954 21.6846C18.1032 21.6846 21.5508 16.4622 21.5508 11.9316Z" fill="#FF813F" fill-rule="evenodd"></path>
</svg>