<svg fill="none" height="61" viewbox="0 0 66 61" width="66" xmlns="http://www.w3.org/2000/svg">
<path d="M56.6718 41.3905C56.1327 40.2958 55.1442 39.457 53.8886 39.0284C52.6498 38.6055 51.2988 38.6349 50.0826 39.1114L39.4343 43.3007C39.0174 41.535 37.4108 40.1234 35.2842 39.8425L22.6058 38.1671C19.1755 37.7138 15.6366 38.718 13.1316 40.8543L7.35004 45.2833V60.3971L19.7294 52.1025L36.5145 54.127L54.1145 47.2255C56.6242 46.2411 57.7714 43.6237 56.6718 41.3905V41.3905Z" fill="#010101" opacity="0.1"></path>
<path d="M57.0894 31.788H10.0216V8.62811H57.0895V31.788H57.0894Z" fill="#FF813F"></path>
<path clip-rule="evenodd" d="M1.97745 33.6497C3.06528 33.6497 3.94715 32.8771 3.94715 31.9241C3.94715 30.971 3.06528 30.1984 1.97745 30.1984C0.889615 30.1984 0.00775146 30.971 0.00775146 31.9241C0.00775146 32.8771 0.889615 33.6497 1.97745 33.6497Z" fill="#FF813F" fill-rule="evenodd"></path>
<path clip-rule="evenodd" d="M48.2653 59.5341C49.3532 59.5341 50.235 58.7615 50.235 57.8085C50.235 56.8554 49.3532 56.0828 48.2653 56.0828C47.1775 56.0828 46.2956 56.8554 46.2956 57.8085C46.2956 58.7615 47.1775 59.5341 48.2653 59.5341Z" fill="#E5E5E5" fill-rule="evenodd"></path>
<path clip-rule="evenodd" d="M36.4471 3.45125C37.535 3.45125 38.4168 2.67866 38.4168 1.72563C38.4168 0.772589 37.535 0 36.4471 0C35.3593 0 34.4774 0.772589 34.4774 1.72563C34.4774 2.67866 35.3593 3.45125 36.4471 3.45125Z" fill="#E5E5E5" fill-rule="evenodd"></path>
<path clip-rule="evenodd" d="M63.0381 49.1803C63.582 49.1803 64.0229 48.794 64.0229 48.3175C64.0229 47.841 63.582 47.4547 63.0381 47.4547C62.4942 47.4547 62.0532 47.841 62.0532 48.3175C62.0532 48.794 62.4942 49.1803 63.0381 49.1803Z" fill="#FF813F" fill-rule="evenodd"></path>
<path clip-rule="evenodd" d="M62.0532 6.03967C63.685 6.03967 65.0078 4.88079 65.0078 3.45123C65.0078 2.02168 63.685 0.862793 62.0532 0.862793C60.4215 0.862793 59.0987 2.02168 59.0987 3.45123C59.0987 4.88079 60.4215 6.03967 62.0532 6.03967Z" fill="#E5E5E5" fill-rule="evenodd"></path>
<path d="M33.7453 18.5679H33.2875C33.0693 18.5679 32.8917 18.4123 32.8917 18.2212C32.8917 18.0301 33.0692 17.8745 33.2875 17.8745H33.7453C33.9635 17.8745 34.1411 18.0301 34.1411 18.2212H37.6019C37.6019 16.8245 36.6295 15.6231 35.2468 15.1091V13.4079H31.7859V15.109C30.4032 15.623 29.4308 16.8245 29.4308 18.2211C29.4308 20.0841 31.1609 21.5998 33.2874 21.5998H33.7452C33.9634 21.5998 34.141 21.7553 34.141 21.9466C34.141 22.1377 33.9634 22.2932 33.7452 22.2932H33.2874C33.0692 22.2932 32.8916 22.1377 32.8916 21.9466H29.4308C29.4308 23.3433 30.4032 24.5447 31.7859 25.0587V26.7598H35.2468V25.0587C36.6295 24.5447 37.6019 23.3433 37.6019 21.9466C37.6021 20.0836 35.8719 18.5679 33.7453 18.5679Z" fill="white"></path>
</svg>