<svg fill="none" height="39" viewbox="0 0 48 39" width="48" xmlns="http://www.w3.org/2000/svg">
<path clip-rule="evenodd" d="M38.9581 4.91618C40.1203 4.91618 41.0625 3.974 41.0625 2.81176C41.0625 1.64952 40.1203 0.707336 38.9581 0.707336C37.7958 0.707336 36.8537 1.64952 36.8537 2.81176C36.8537 3.974 37.7958 4.91618 38.9581 4.91618Z" fill="#E5E5E5" fill-rule="evenodd"></path>
<path clip-rule="evenodd" d="M40.1092 8.79758C40.4055 9.10224 40.5685 9.51211 40.5625 9.937V26.188C40.5685 26.6129 40.4055 27.0228 40.1092 27.3274C39.813 27.6321 39.4079 27.8066 38.983 27.8125H12.142C11.7171 27.8066 11.312 27.6321 11.0158 27.3274C10.7195 27.0228 10.5565 26.6129 10.5625 26.188V9.937C10.5565 9.51211 10.7195 9.10224 11.0158 8.79758C11.312 8.49292 11.7171 8.31843 12.142 8.3125H38.983C39.4079 8.31843 39.813 8.49292 40.1092 8.79758ZM21.0625 18.0625C21.0625 20.5478 23.0772 22.5625 25.5625 22.5625C26.756 22.5625 27.9006 22.0884 28.7445 21.2445C29.5884 20.4006 30.0625 19.256 30.0625 18.0625C30.0625 15.5772 28.0478 13.5625 25.5625 13.5625C23.0772 13.5625 21.0625 15.5772 21.0625 18.0625Z" fill="#E5E5E5" fill-rule="evenodd"></path>
<path d="M44.3125 12.4375C43.6912 12.4375 43.1875 12.9412 43.1875 13.5625V30.0625C43.1875 30.2696 43.0196 30.4375 42.8125 30.4375H15.8125C15.1912 30.4375 14.6875 30.9412 14.6875 31.5625C14.6875 32.1838 15.1912 32.6875 15.8125 32.6875H42.8125C44.2616 32.6858 45.4358 31.5116 45.4375 30.0625V13.5625C45.4375 12.9412 44.9338 12.4375 44.3125 12.4375Z" fill="#E5E5E5"></path>
<path clip-rule="evenodd" d="M45.2264 38.5259C46.3886 38.5259 47.3308 37.5837 47.3308 36.4215C47.3308 35.2593 46.3886 34.3171 45.2264 34.3171C44.0641 34.3171 43.1219 35.2593 43.1219 36.4215C43.1219 37.5837 44.0641 38.5259 45.2264 38.5259Z" fill="#E5E5E5" fill-rule="evenodd"></path>
<path clip-rule="evenodd" d="M3 36C4.65685 36 6 34.6569 6 33C6 31.3431 4.65685 30 3 30C1.34315 30 0 31.3431 0 33C0 34.6569 1.34315 36 3 36Z" fill="#E5E5E5" fill-rule="evenodd"></path>
</svg>