<svg fill="none" height="30" viewbox="0 0 30 30" width="30" xmlns="http://www.w3.org/2000/svg">
<path d="M12.2354 18.2409C14.4805 17.0767 16.706 15.9233 18.952 14.7585C16.6993 13.5829 14.4744 12.4227 12.2354 11.2543C12.2354 13.5912 12.2354 15.9043 12.2354 18.2409Z" fill="#FF813F"></path>
<path clip-rule="evenodd" d="M0 14.9617C0 6.69857 6.69888 0 14.9617 0C23.2246 0 29.9235 6.69857 29.9235 14.9617C29.9235 23.2249 23.2246 29.9235 14.9617 29.9235C6.69888 29.9235 0 23.2249 0 14.9617ZM22.8719 22.0313C23.978 21.908 24.8969 21.0793 25.1559 19.9558C25.5242 18.3557 25.5251 16.609 25.5251 14.9617V14.9213C25.5251 13.2859 25.5252 11.5547 25.1599 9.96765C24.9015 8.84388 23.9826 8.0152 22.8759 7.89153C20.2567 7.59888 17.6051 7.59735 14.9654 7.59888C12.3251 7.59735 9.67347 7.59888 7.05337 7.89153C5.94735 8.0152 5.02898 8.84418 4.77061 9.96765C4.40235 11.5674 4.39806 13.3145 4.39806 14.9617C4.39806 16.609 4.39806 18.3554 4.76633 19.9558C5.02469 21.0793 5.94306 21.908 7.04908 22.0313C9.66918 22.3243 12.3208 22.3258 14.9611 22.3243C17.6014 22.3258 20.2524 22.3243 22.8719 22.0313Z" fill="#FF813F" fill-rule="evenodd"></path>
</svg>