<svg fill="none" height="12" viewbox="0 0 15 12" width="15" xmlns="http://www.w3.org/2000/svg">
<path clip-rule="evenodd" d="M15 1.425C14.5749 2.0375 14.0609 2.55937 13.4581 2.99062C13.4645 3.07813 13.4676 3.20937 13.4676 3.38438C13.4676 4.19688 13.3471 5.00781 13.106 5.81719C12.8648 6.62657 12.4984 7.40312 12.0067 8.14688C11.5149 8.89063 10.9296 9.54844 10.2506 10.1203C9.5717 10.6922 8.75318 11.1484 7.79505 11.4891C6.83692 11.8297 5.81219 12 4.72081 12C3.00126 12 1.42767 11.5469 0 10.6406C0.222082 10.6656 0.469542 10.6781 0.742386 10.6781C2.17006 10.6781 3.44225 10.2469 4.55901 9.38437C3.89276 9.37187 3.29632 9.17031 2.76967 8.77969C2.24302 8.38906 1.88135 7.89063 1.68464 7.28438C1.89404 7.31563 2.08756 7.33125 2.26523 7.33125C2.53807 7.33125 2.80774 7.29688 3.07424 7.22813C2.36357 7.08437 1.77507 6.73594 1.30869 6.18281C0.84232 5.62968 0.609137 4.9875 0.609137 4.25625V4.21875C1.04061 4.45625 1.5038 4.58437 1.99873 4.60313C1.57995 4.32812 1.24683 3.96875 0.999366 3.525C0.751902 3.08125 0.628173 2.6 0.628173 2.08125C0.628173 1.53125 0.767765 1.02188 1.04695 0.553125C1.81472 1.48438 2.74904 2.22968 3.84994 2.78906C4.95083 3.34844 6.12944 3.65937 7.38579 3.72187C7.33503 3.48437 7.30964 3.25313 7.30964 3.02813C7.30964 2.19062 7.60945 1.47657 8.20907 0.885938C8.8087 0.29531 9.53363 0 10.3839 0C11.2722 0 12.0209 0.318747 12.6301 0.95625C13.3217 0.824999 13.9721 0.581252 14.5812 0.225C14.3464 0.943754 13.8959 1.5 13.2297 1.89375C13.8198 1.83125 14.4099 1.675 15 1.425Z" fill="#1DA1F2" fill-rule="evenodd"></path>
</svg>