<svg fill="none" height="18" viewbox="0 0 18 18" width="18" xmlns="http://www.w3.org/2000/svg">
<path d="M10.296 8.7689C10.2621 8.73513 10.2431 8.68928 10.2431 8.64146C10.2431 8.59364 10.2621 8.54779 10.296 8.51402L16.9654 1.84538C17.3871 1.42308 17.3866 0.738884 16.9643 0.317182C16.542 -0.104521 15.8578 -0.104037 15.4361 0.318262L8.76743 6.98402C8.73366 7.01788 8.68781 7.0369 8.63999 7.0369C8.59218 7.0369 8.54632 7.01788 8.51255 6.98402L1.84391 0.318262C1.42221 -0.10364 0.738335 -0.103801 0.316434 0.317902C-0.105467 0.739604 -0.105629 1.42348 0.316074 1.84538L6.98399 8.51402C7.01785 8.54779 7.03688 8.59364 7.03688 8.64146C7.03688 8.68928 7.01785 8.73513 6.98399 8.7689L0.316074 15.4383C0.0432803 15.7112 -0.0631892 16.1089 0.0367717 16.4816C0.136732 16.8543 0.427937 17.1454 0.800692 17.2452C1.17345 17.345 1.57112 17.2383 1.84391 16.9654L8.51255 10.296C8.54632 10.2622 8.59218 10.2431 8.63999 10.2431C8.68781 10.2431 8.73366 10.2622 8.76743 10.296L15.4361 16.9654C15.8578 17.3873 16.5417 17.3874 16.9636 16.9657C17.3855 16.544 17.3856 15.8602 16.9639 15.4383L10.296 8.7689Z" fill="black"></path>
</svg>