<svg fill="none" height="30" viewbox="0 0 31 30" width="31" xmlns="http://www.w3.org/2000/svg">
<path d="M15.7529 0C7.49008 0 0.791199 6.69857 0.791199 14.9617C0.791199 23.2249 7.49008 29.9235 15.7529 29.9235C24.0158 29.9235 30.7147 23.2249 30.7147 14.9617C30.7147 6.69857 24.0158 0 15.7529 0Z" fill="#FF813F"></path>
<path clip-rule="evenodd" d="M12.5577 7H19.0247C21.6529 7 23.7912 9.13823 23.7912 11.7665V18.2335C23.7912 20.8618 21.653 23 19.0247 23H12.5577C9.92943 23 7.7912 20.8618 7.7912 18.2335V11.7665C7.7912 9.13823 9.92943 7 12.5577 7ZM19.0247 21.3904C20.7682 21.3904 22.1816 19.977 22.1816 18.2335V11.7664C22.1816 10.0229 20.7682 8.60956 19.0247 8.60956H12.5577C10.8142 8.60956 9.40082 10.0229 9.40082 11.7664V18.2335C9.40082 19.977 10.8142 21.3904 12.5577 21.3904H19.0247Z" fill="white" fill-rule="evenodd"></path>
<path clip-rule="evenodd" d="M11.653 15C11.653 12.7182 13.5094 10.8618 15.7912 10.8618C18.073 10.8618 19.9294 12.7182 19.9294 15C19.9294 17.2817 18.073 19.1381 15.7912 19.1381C13.5094 19.1381 11.653 17.2817 11.653 15ZM13.2626 15C13.2626 16.3965 14.3947 17.5285 15.7912 17.5285C17.1877 17.5285 18.3198 16.3964 18.3198 15C18.3198 13.6035 17.1877 12.4714 15.7912 12.4714C14.3947 12.4714 13.2626 13.6035 13.2626 15Z" fill="white" fill-rule="evenodd"></path>
<path d="M19.9374 11.8844C20.485 11.8844 20.929 11.4405 20.929 10.8928C20.929 10.3452 20.485 9.90125 19.9374 9.90125C19.3898 9.90125 18.9458 10.3452 18.9458 10.8928C18.9458 11.4405 19.3898 11.8844 19.9374 11.8844Z" fill="white"></path>
</svg>