<svg fill="none" height="36" viewbox="0 0 50 36" width="50" xmlns="http://www.w3.org/2000/svg">
<path clip-rule="evenodd" d="M37.8049 4.26828C37.8049 2.24772 36.1669 0.609741 34.1463 0.609741H12.1951C10.1746 0.609741 8.53659 2.24772 8.53659 4.26828V22.561C8.53659 24.5815 10.1746 26.2195 12.1951 26.2195H34.1463C36.1669 26.2195 37.8049 24.5815 37.8049 22.561V4.26828ZM12.1951 4.87803C12.1951 4.20452 12.7411 3.65852 13.4146 3.65852C14.0882 3.65852 14.6342 4.20452 14.6342 4.87803C14.6342 5.55155 14.0882 6.09755 13.4146 6.09755C12.7411 6.09755 12.1951 5.55155 12.1951 4.87803ZM17.0732 3.65852C16.3997 3.65852 15.8537 4.20452 15.8537 4.87803C15.8537 5.55155 16.3997 6.09755 17.0732 6.09755C17.7467 6.09755 18.2927 5.55155 18.2927 4.87803C18.2927 4.20452 17.7467 3.65852 17.0732 3.65852ZM19.5122 4.87803C19.5122 4.20452 20.0582 3.65852 20.7317 3.65852C21.4052 3.65852 21.9512 4.20452 21.9512 4.87803C21.9512 5.55155 21.4052 6.09755 20.7317 6.09755C20.0582 6.09755 19.5122 5.55155 19.5122 4.87803ZM34.1463 23.7805C34.8199 23.7805 35.3659 23.2345 35.3659 22.561V9.75608C35.3659 9.41932 35.0929 9.14633 34.7561 9.14633H11.5854C11.2486 9.14633 10.9756 9.41932 10.9756 9.75608V22.561C10.9756 23.2345 11.5216 23.7805 12.1951 23.7805H34.1463Z" fill="#E5E5E5" fill-rule="evenodd"></path>
<rect fill="#E5E5E5" height="9.7561" rx="0.609756" width="7.31707" x="12.8049" y="11.5853"></rect>
<path d="M23.7805 17.378H32.3171C32.8222 17.378 33.2317 16.9685 33.2317 16.4634C33.2317 15.9583 32.8222 15.5488 32.3171 15.5488H23.7805C23.2753 15.5488 22.8658 15.9583 22.8658 16.4634C22.8658 16.9685 23.2753 17.378 23.7805 17.378Z" fill="#E5E5E5"></path>
<path d="M23.7805 13.7195H32.3171C32.8222 13.7195 33.2317 13.31 33.2317 12.8049C33.2317 12.2998 32.8222 11.8903 32.3171 11.8903H23.7805C23.2753 11.8903 22.8658 12.2998 22.8658 12.8049C22.8658 13.31 23.2753 13.7195 23.7805 13.7195Z" fill="#E5E5E5"></path>
<path d="M23.7805 21.0365H32.3171C32.8222 21.0365 33.2317 20.627 33.2317 20.1219C33.2317 19.6168 32.8222 19.2073 32.3171 19.2073H23.7805C23.2753 19.2073 22.8658 19.6168 22.8658 20.1219C22.8658 20.627 23.2753 21.0365 23.7805 21.0365Z" fill="#E5E5E5"></path>
<path clip-rule="evenodd" d="M17.9581 35.9161C19.1203 35.9161 20.0625 34.9739 20.0625 33.8117C20.0625 32.6495 19.1203 31.7073 17.9581 31.7073C16.7958 31.7073 15.8537 32.6495 15.8537 33.8117C15.8537 34.9739 16.7958 35.9161 17.9581 35.9161Z" fill="#E5E5E5" fill-rule="evenodd"></path>
<path clip-rule="evenodd" d="M47.2264 11.5259C48.3886 11.5259 49.3308 10.5837 49.3308 9.4215C49.3308 8.25926 48.3886 7.31708 47.2264 7.31708C46.0641 7.31708 45.1219 8.25926 45.1219 9.4215C45.1219 10.5837 46.0641 11.5259 47.2264 11.5259Z" fill="#E5E5E5" fill-rule="evenodd"></path>
<path clip-rule="evenodd" d="M1.82927 8.53659C2.83955 8.53659 3.65854 7.7176 3.65854 6.70732C3.65854 5.69704 2.83955 4.87805 1.82927 4.87805C0.818991 4.87805 0 5.69704 0 6.70732C0 7.7176 0.818991 8.53659 1.82927 8.53659Z" fill="#E5E5E5" fill-rule="evenodd"></path>
</svg>