<svg fill="none" height="51" viewbox="0 0 75 51" width="75" xmlns="http://www.w3.org/2000/svg">
<path d="M68.0921 33.2717V39.0664H50.574V32.4458C50.5763 31.1341 50.1456 29.8517 49.3372 28.7628C50.4323 27.9605 51.7903 27.5089 53.199 27.4786C54.2106 28.7159 55.7966 29.4616 57.4971 29.4994C59.1976 29.5372 60.8222 28.8629 61.8997 27.672C61.9529 27.6051 62.0136 27.5433 62.0806 27.4875C65.4585 27.6763 68.0914 30.2097 68.0921 33.2717V33.2717Z" fill="#010101" opacity="0.1"></path>
<path d="M63.2155 17.8194V20.3953C63.2155 23.2397 60.6669 25.5456 57.5231 25.5456C54.3792 25.5456 51.8306 23.2397 51.8306 20.3953V17.8194C51.8306 14.975 54.3792 12.6691 57.5231 12.6691C60.6669 12.6691 63.2155 14.975 63.2155 17.8194Z" fill="#010101" opacity="0.1"></path>
<path d="M49.3372 28.7629C50.1456 29.8517 50.5763 31.1342 50.574 32.4459V42.0084H26.426V32.4459C26.4248 28.8539 29.5903 25.9166 33.5592 25.8268C34.7148 27.2406 36.5268 28.0928 38.4697 28.1361C40.4126 28.1795 42.2688 27.4091 43.5 26.0486C43.5614 25.9727 43.6302 25.902 43.7056 25.8373C45.9844 25.9644 48.0671 27.0463 49.3372 28.7629Z" fill="#FF813F"></path>
<path d="M45.0033 14.7926V17.7345C45.0033 20.9841 42.0917 23.6184 38.5 23.6184C34.9084 23.6184 31.9967 20.9841 31.9967 17.7345V14.7926C31.9967 11.543 34.9084 8.90863 38.5 8.90863C42.0917 8.90863 45.0033 11.543 45.0033 14.7926Z" fill="#FF813F"></path>
<path clip-rule="evenodd" d="M62.1711 50.7257C63.2611 50.7257 64.1448 49.9262 64.1448 48.9399C64.1448 47.9537 63.2611 47.1542 62.1711 47.1542C61.081 47.1542 60.1974 47.9537 60.1974 48.9399C60.1974 49.9262 61.081 50.7257 62.1711 50.7257Z" fill="#FF813F" fill-rule="evenodd"></path>
<path clip-rule="evenodd" d="M25.6579 2.51136C26.2029 2.51136 26.6447 2.11162 26.6447 1.6185C26.6447 1.12539 26.2029 0.725647 25.6579 0.725647C25.1129 0.725647 24.6711 1.12539 24.6711 1.6185C24.6711 2.11162 25.1129 2.51136 25.6579 2.51136Z" fill="#FF813F" fill-rule="evenodd"></path>
<path clip-rule="evenodd" d="M1.97368 23.9399C3.06372 23.9399 3.94737 23.1404 3.94737 22.1542C3.94737 21.168 3.06372 20.3685 1.97368 20.3685C0.883649 20.3685 0 21.168 0 22.1542C0 23.1404 0.883649 23.9399 1.97368 23.9399Z" fill="#E5E5E5" fill-rule="evenodd"></path>
<path clip-rule="evenodd" d="M72.0395 16.7971C73.6746 16.7971 75 15.5978 75 14.1185C75 12.6392 73.6746 11.4399 72.0395 11.4399C70.4045 11.4399 69.079 12.6392 69.079 14.1185C69.079 15.5978 70.4045 16.7971 72.0395 16.7971Z" fill="#E5E5E5" fill-rule="evenodd"></path>
<path d="M27.3832 28.5857L27.6398 28.7926C26.8462 29.8755 26.4239 31.1465 26.426 32.4458V39.0664H8.88156V33.2717C8.88161 30.1282 11.6517 27.5579 15.125 27.4786C16.1369 28.7159 17.7232 29.4616 19.4239 29.4994C21.1246 29.5372 22.7495 28.8629 23.8273 27.672C23.8803 27.6054 23.9403 27.5436 24.0066 27.4875C25.2252 27.5531 26.3973 27.9343 27.3832 28.5857V28.5857Z" fill="#010101" opacity="0.1"></path>
<path d="M25.1431 17.8194V20.3953C25.1431 23.2397 22.5945 25.5456 19.4507 25.5456C16.3068 25.5456 13.7582 23.2397 13.7582 20.3953V17.8194C13.7582 14.975 16.3068 12.6691 19.4507 12.6691C22.5945 12.6691 25.1431 14.975 25.1431 17.8194Z" fill="#010101" opacity="0.1"></path>
</svg>