<svg fill="none" height="38" viewbox="0 0 50 38" width="50" xmlns="http://www.w3.org/2000/svg">
<path clip-rule="evenodd" d="M37.9581 4.91618C39.1203 4.91618 40.0625 3.974 40.0625 2.81176C40.0625 1.64952 39.1203 0.707336 37.9581 0.707336C36.7958 0.707336 35.8537 1.64952 35.8537 2.81176C35.8537 3.974 36.7958 4.91618 37.9581 4.91618Z" fill="#E5E5E5" fill-rule="evenodd"></path>
<path d="M25 26C28.3137 26 31 23.3137 31 20C31 16.6863 28.3137 14 25 14C21.6863 14 19 16.6863 19 20C19 23.3137 21.6863 26 25 26Z" fill="#E5E5E5"></path>
<path clip-rule="evenodd" d="M39.0655 18.5H41.5C42.3284 18.5 43 19.1716 43 20C43 20.8284 42.3284 21.5 41.5 21.5H39.0655C38.6974 21.5005 38.3842 21.7681 38.326 22.1315C37.3962 27.8852 32.8852 32.3962 27.1315 33.326C26.7681 33.3842 26.5005 33.6974 26.5 34.0655V36.5C26.5 37.3284 25.8284 38 25 38C24.1716 38 23.5 37.3284 23.5 36.5V34.0655C23.4995 33.6974 23.2319 33.3842 22.8685 33.326C17.1148 32.3962 12.6038 27.8852 11.674 22.1315C11.6158 21.7681 11.3026 21.5005 10.9345 21.5H8.5C7.67157 21.5 7 20.8284 7 20C7 19.1716 7.67157 18.5 8.5 18.5H10.9345C11.3026 18.4995 11.6158 18.2319 11.674 17.8685C12.6038 12.1148 17.1148 7.60381 22.8685 6.674C23.2319 6.61585 23.4995 6.30256 23.5 5.9345V3.5C23.5 2.67157 24.1716 2 25 2C25.8284 2 26.5 2.67157 26.5 3.5V5.9345C26.5005 6.30256 26.7681 6.61585 27.1315 6.674C32.8852 7.60381 37.3962 12.1148 38.326 17.8685C38.3842 18.2319 38.6974 18.4995 39.0655 18.5ZM14.5 20C14.5 25.799 19.201 30.5 25 30.5C30.7962 30.4934 35.4934 25.7962 35.5 20C35.5 14.201 30.799 9.5 25 9.5C19.201 9.5 14.5 14.201 14.5 20Z" fill="#E5E5E5" fill-rule="evenodd"></path>
<path clip-rule="evenodd" d="M47.2264 30.5259C48.3886 30.5259 49.3308 29.5837 49.3308 28.4215C49.3308 27.2593 48.3886 26.3171 47.2264 26.3171C46.0641 26.3171 45.1219 27.2593 45.1219 28.4215C45.1219 29.5837 46.0641 30.5259 47.2264 30.5259Z" fill="#E5E5E5" fill-rule="evenodd"></path>
<path clip-rule="evenodd" d="M1.82927 37.5366C2.83955 37.5366 3.65854 36.7176 3.65854 35.7073C3.65854 34.697 2.83955 33.8781 1.82927 33.8781C0.818991 33.8781 0 34.697 0 35.7073C0 36.7176 0.818991 37.5366 1.82927 37.5366Z" fill="#E5E5E5" fill-rule="evenodd"></path>
</svg>