<svg class="hidden-effect" fill="none" height="41" viewbox="0 0 30 41" width="30" xmlns="http://www.w3.org/2000/svg">
<mask height="6" id="mask0" mask-type="alpha" maskunits="userSpaceOnUse" width="11" x="11" y="0">
<path clip-rule="evenodd" d="M12.4327 0.758911L21.9353 3.48372L21.3041 5.68478L11.8016 2.95997L12.4327 0.758911Z" fill="white" fill-rule="evenodd"></path>
</mask>
<g mask="url(#mask0)">
<path clip-rule="evenodd" d="M21.6308 4.00848C20.4436 2.92139 18.7601 2.52259 17.2118 2.23383C15.6813 1.9483 13.7968 1.51446 12.2996 2.08901C11.8168 2.27427 11.7958 2.87988 12.285 3.07618C13.0044 3.36476 13.7794 3.42788 14.5498 3.49284C15.3295 3.5586 16.1048 3.65479 16.8749 3.79414C18.3693 4.06462 19.881 4.57859 21.408 4.52197C21.651 4.51289 21.8345 4.19502 21.6308 4.00848Z" fill="#FF813F" fill-rule="evenodd"></path>
</g>
<path clip-rule="evenodd" d="M19.8439 19.4708C19.6007 19.3647 19.4381 19.2281 19.1723 19.1551C18.8674 19.0713 18.5577 19.0232 18.2455 18.9774C17.6168 18.8851 16.9846 18.8499 16.3504 18.8158C15.0284 18.7447 13.6944 18.7346 12.3709 18.7617C11.0804 18.7882 9.79058 18.84 8.50223 18.9172C7.20969 18.9946 5.91659 19.1206 4.71793 19.6398C4.33404 19.8061 4.41988 20.4546 4.82042 20.5394C6.03106 20.7959 7.25958 20.715 8.48467 20.6279C9.7729 20.5363 11.063 20.47 12.3537 20.429C13.6092 20.3892 14.8639 20.3604 16.1197 20.3337C16.7286 20.3208 17.3418 20.3226 17.9493 20.2789C18.2504 20.2573 18.5518 20.2323 18.8511 20.1911C19.2392 20.1377 19.4811 20.0098 19.8376 19.8925C20.0571 19.8202 20.0395 19.5563 19.8439 19.4708Z" fill="#FF813F" fill-rule="evenodd"></path>
<path clip-rule="evenodd" d="M20.7864 33.2872C18.7514 33.6175 16.7719 34.3739 14.8004 34.9572C12.84 35.5372 10.8558 36.068 8.98911 36.912C8.61272 37.0822 8.76998 37.7524 9.19127 37.7109C11.2686 37.5064 13.2652 36.8998 15.2474 36.2687C17.21 35.644 19.2838 35.0645 21.0905 34.0532C21.5213 33.812 21.2373 33.214 20.7864 33.2872Z" fill="#FF813F" fill-rule="evenodd"></path>
</svg>