<svg fill="none" height="19" id="resend-btn" viewbox="0 0 20 19" width="20" xmlns="http://www.w3.org/2000/svg">
<path d="M8.88663 15.8942C8.32353 15.7775 7.77247 16.1394 7.6558 16.7025C7.53913 17.2656 7.90103 17.8167 8.46413 17.9333C12.4892 18.7636 16.5624 16.7456 18.3404 13.0403C20.1184 9.33494 19.1441 4.89489 15.978 2.27448C12.8119 -0.345918 8.26796 -0.472984 4.96035 1.96639C1.65274 4.40576 0.431815 8.78442 1.99996 12.5833C2.03775 12.6728 2.00871 12.7765 1.92996 12.8333L1.09663 13.4383C0.830474 13.6315 0.702785 13.9631 0.770667 14.2848C0.838549 14.6066 1.08931 14.8583 1.4108 14.9275L4.69913 15.635C4.75671 15.6469 4.81533 15.653 4.87413 15.6533C5.26702 15.6534 5.60662 15.3791 5.68913 14.995L6.47663 11.3283C6.54942 10.9907 6.40639 10.6432 6.11703 10.4546C5.82768 10.266 5.45197 10.2754 5.17246 10.4783L4.0383 11.3025C3.98396 11.3421 3.91385 11.353 3.85004 11.3319C3.78623 11.3107 3.73655 11.26 3.71663 11.1958C2.80024 8.2326 3.98018 5.0226 6.59758 3.35834C9.21498 1.69408 12.6224 1.98722 14.9171 4.07407C17.2118 6.16092 17.8261 9.52528 16.4171 12.2885C15.008 15.0516 11.9241 16.5301 8.88746 15.8983L8.88663 15.8942Z" fill="#FF813F"></path>
</svg>