<svg fill="none" height="50" viewbox="0 0 64 50" width="64" xmlns="http://www.w3.org/2000/svg">
<path d="M61.0744 19.1347V35.8743C61.0744 39.2222 58.3465 41.9501 54.9986 41.9501V41.9501V49.8239L45.3888 41.9501H27.8432C24.4953 41.9501 21.7673 39.2222 21.7673 35.8743V32.4024L25.1153 29.6124H42.7228C46.0708 29.6124 48.7987 26.8845 48.7987 23.5366V12.9968H54.9986C58.3465 13.0588 61.0744 15.7868 61.0744 19.1347Z" fill="#010101" opacity="0.1"></path>
<path d="M42.7228 0.72113H15.5675C12.2196 0.72113 9.49163 3.44907 9.49163 6.79699V23.5366C9.49163 26.8845 12.2196 29.6124 15.5675 29.6124V29.6124V37.4863L25.1773 29.6124H42.7228C46.0708 29.6124 48.7987 26.8845 48.7987 23.5366V6.79699C48.7987 3.44907 46.0708 0.72113 42.7228 0.72113Z" fill="#FF813F"></path>
<path clip-rule="evenodd" d="M57.7162 6.66784C59.1457 6.66784 60.3046 5.50896 60.3046 4.07941C60.3046 2.64985 59.1457 1.49097 57.7162 1.49097C56.2866 1.49097 55.1277 2.64985 55.1277 4.07941C55.1277 5.50896 56.2866 6.66784 57.7162 6.66784Z" fill="#E5E5E5" fill-rule="evenodd"></path>
<path clip-rule="evenodd" d="M2.49613 22.1984C3.44917 22.1984 4.22176 21.4259 4.22176 20.4728C4.22176 19.5198 3.44917 18.7472 2.49613 18.7472C1.5431 18.7472 0.770508 19.5198 0.770508 20.4728C0.770508 21.4259 1.5431 22.1984 2.49613 22.1984Z" fill="#E5E5E5" fill-rule="evenodd"></path>
<path clip-rule="evenodd" d="M21.478 49.8085C22.9076 49.8085 24.0664 48.6496 24.0664 47.22C24.0664 45.7905 22.9076 44.6316 21.478 44.6316C20.0485 44.6316 18.8896 45.7905 18.8896 47.22C18.8896 48.6496 20.0485 49.8085 21.478 49.8085Z" fill="#FF813F" fill-rule="evenodd"></path>
<path clip-rule="evenodd" d="M62.893 11.8447C63.3695 11.8447 63.7558 11.4584 63.7558 10.9819C63.7558 10.5054 63.3695 10.1191 62.893 10.1191C62.4165 10.1191 62.0302 10.5054 62.0302 10.9819C62.0302 11.4584 62.4165 11.8447 62.893 11.8447Z" fill="#FF813F" fill-rule="evenodd"></path>
<path d="M17.8614 19.1347C19.9501 19.1347 21.6433 17.4415 21.6433 15.3528C21.6433 13.2641 19.9501 11.5709 17.8614 11.5709C15.7727 11.5709 14.0795 13.2641 14.0795 15.3528C14.0795 17.4415 15.7727 19.1347 17.8614 19.1347Z" fill="white"></path>
<path d="M29.1452 19.1347C31.2339 19.1347 32.9271 17.4415 32.9271 15.3528C32.9271 13.2641 31.2339 11.5709 29.1452 11.5709C27.0565 11.5709 25.3633 13.2641 25.3633 15.3528C25.3633 17.4415 27.0565 19.1347 29.1452 19.1347Z" fill="white"></path>
<path d="M40.3669 19.1347C42.4556 19.1347 44.1488 17.4415 44.1488 15.3528C44.1488 13.2641 42.4556 11.5709 40.3669 11.5709C38.2782 11.5709 36.585 13.2641 36.585 15.3528C36.585 17.4415 38.2782 19.1347 40.3669 19.1347Z" fill="white"></path>
</svg>