<svg fill="none" height="62" viewbox="0 0 61 62" width="61" xmlns="http://www.w3.org/2000/svg">
<rect fill="#FF813F" height="42.733" width="42.733" x="9.92667" y="7.62817"></rect>
<path d="M29.8687 31.8435L22.4617 18.0266H25.8803L30.1536 26.7156C30.1536 26.858 30.2961 27.0005 30.4385 27.1429C30.5809 27.2854 30.5809 27.4278 30.7234 27.7127L30.8658 27.8551V27.9976C31.0083 28.2825 31.0083 28.4249 31.1507 28.7098C31.2932 28.8522 31.2932 29.1371 31.4356 29.2796C31.578 28.8522 31.8629 28.5674 32.0054 27.9976C32.1478 27.5703 32.4327 27.1429 32.7176 26.7156L36.9909 18.0266H40.1246L32.7176 31.986V40.8175H29.8687V31.8435Z" fill="white"></path>
<path clip-rule="evenodd" d="M58.2442 17.9819C59.6737 17.9819 60.8326 16.823 60.8326 15.3935C60.8326 13.9639 59.6737 12.8051 58.2442 12.8051C56.8146 12.8051 55.6557 13.9639 55.6557 15.3935C55.6557 16.823 56.8146 17.9819 58.2442 17.9819Z" fill="#E5E5E5" fill-rule="evenodd"></path>
<path clip-rule="evenodd" d="M2.16136 42.1406C3.11439 42.1406 3.88698 41.3681 3.88698 40.415C3.88698 39.462 3.11439 38.6894 2.16136 38.6894C1.20832 38.6894 0.43573 39.462 0.43573 40.415C0.43573 41.3681 1.20832 42.1406 2.16136 42.1406Z" fill="#FF813F" fill-rule="evenodd"></path>
<path clip-rule="evenodd" d="M19.4176 4.1769C20.3706 4.1769 21.1432 3.40431 21.1432 2.45127C21.1432 1.49824 20.3706 0.725647 19.4176 0.725647C18.4646 0.725647 17.692 1.49824 17.692 2.45127C17.692 3.40431 18.4646 4.1769 19.4176 4.1769Z" fill="#FF813F" fill-rule="evenodd"></path>
<path clip-rule="evenodd" d="M51.3417 61.1225C52.2947 61.1225 53.0673 60.3499 53.0673 59.3969C53.0673 58.4439 52.2947 57.6713 51.3417 57.6713C50.3886 57.6713 49.6161 58.4439 49.6161 59.3969C49.6161 60.3499 50.3886 61.1225 51.3417 61.1225Z" fill="#FF813F" fill-rule="evenodd"></path>
<path clip-rule="evenodd" d="M28.0457 55.9456C28.9988 55.9456 29.7714 55.173 29.7714 54.22C29.7714 53.267 28.9988 52.4944 28.0457 52.4944C27.0927 52.4944 26.3201 53.267 26.3201 54.22C26.3201 55.173 27.0927 55.9456 28.0457 55.9456Z" fill="#E5E5E5" fill-rule="evenodd"></path>
</svg>