<svg class="hidden-effect" fill="none" height="41" viewbox="0 0 30 41" width="30" xmlns="http://www.w3.org/2000/svg">
<mask height="6" id="mask0" mask-type="alpha" maskunits="userSpaceOnUse" width="11" x="7" y="0">
<path clip-rule="evenodd" d="M16.9911 0.758911L7.48854 3.48372L8.11969 5.68478L17.6222 2.95997L16.9911 0.758911Z" fill="white" fill-rule="evenodd"></path>
</mask>
<g mask="url(#mask0)">
<path clip-rule="evenodd" d="M7.79297 4.00848C8.98023 2.92139 10.6637 2.52259 12.212 2.23383C13.7425 1.9483 15.627 1.51446 17.1242 2.08901C17.607 2.27427 17.628 2.87988 17.1388 3.07618C16.4194 3.36476 15.6444 3.42788 14.874 3.49284C14.0943 3.5586 13.319 3.65479 12.5489 3.79414C11.0544 4.06462 9.54279 4.57859 8.01575 4.52197C7.77282 4.51289 7.58934 4.19502 7.79297 4.00848Z" fill="#FF813F" fill-rule="evenodd"></path>
</g>
<path clip-rule="evenodd" d="M9.57993 19.4708C9.82305 19.3647 9.98568 19.2281 10.2515 19.1551C10.5564 19.0713 10.8661 19.0232 11.1783 18.9774C11.807 18.8851 12.4392 18.8499 13.0734 18.8158C14.3954 18.7447 15.7294 18.7346 17.0529 18.7617C18.3434 18.7882 19.6332 18.84 20.9216 18.9172C22.2141 18.9946 23.5072 19.1206 24.7059 19.6398C25.0898 19.8061 25.0039 20.4546 24.6034 20.5394C23.3927 20.7959 22.1642 20.715 20.9391 20.6279C19.6509 20.5363 18.3608 20.47 17.0701 20.429C15.8146 20.3892 14.5598 20.3604 13.3041 20.3337C12.6952 20.3208 12.082 20.3226 11.4745 20.2789C11.1734 20.2573 10.872 20.2323 10.5727 20.1911C10.1846 20.1377 9.94265 20.0098 9.58617 19.8925C9.36671 19.8202 9.3843 19.5563 9.57993 19.4708Z" fill="#FF813F" fill-rule="evenodd"></path>
<path clip-rule="evenodd" d="M8.63742 33.2872C10.6724 33.6175 12.6519 34.3739 14.6234 34.9572C16.5838 35.5372 18.568 36.068 20.4347 36.912C20.8111 37.0822 20.6538 37.7524 20.2325 37.7109C18.1552 37.5064 16.1586 36.8998 14.1764 36.2687C12.2138 35.644 10.1399 35.0645 8.33325 34.0532C7.90248 33.812 8.18648 33.214 8.63742 33.2872Z" fill="#FF813F" fill-rule="evenodd"></path>
</svg>