<svg height="30px" version="1.1" viewbox="0 0 513 513" width="30px"><g fill="none" fill-rule="evenodd" id="Page-1" stroke="none" stroke-width="1"><g fill="#FFFFFF" fill-rule="nonzero" id="rocket"><path d="M105.904,265.705 L87.623,320.551 C85.83,325.947 87.229,331.882 91.248,335.901 L176.101,420.754 C180.118,424.773 186.055,426.172 191.451,424.379 L246.297,406.098 L105.904,265.705 Z" id="Path"></path><path d="M282.167,420.753 C274.817,428.101 268.905,429.643 264.578,431.629 L223.791,445.223 L214.425,494.058 C213.431,499.029 215.015,504.094 218.527,507.606 C223.401,512.48 230.951,513.403 236.85,509.855 L342.916,444.215 C348.343,440.963 351.15,434.633 349.909,428.418 L337.34,365.58 L282.167,420.753 Z" id="Path" opacity="0.502952939"></path><path d="M17.943,297.577 L66.778,288.209 L80.952,245.703 C84.336,238.628 85.709,235.374 91.248,229.835 L146.421,174.662 L83.583,162.094 C77.367,160.851 71.038,163.658 67.786,169.087 L2.146,275.152 C-0.919,280.248 -0.681,286.658 2.737,291.507 C6.286,296.504 12.268,298.712 17.943,297.577 Z" id="Path" opacity="0.502952939"></path><path d="M486.39,4.397 L458.952,31.837 C403.901,31.872 368.405,32.692 330.416,51.73 C331.716,85.154 345.27,117.835 369.72,142.283 C394.249,166.812 426.745,180.254 460.33,181.469 C479.309,143.524 480.129,108.042 480.164,53.052 L507.606,25.61 C513.467,19.749 513.467,10.26 507.606,4.397 C501.741,-1.466 492.253,-1.466 486.39,4.397 Z" id="Path"></path><circle cx="271.556407" cy="240.441555" id="Oval" opacity="0.502952939" r="14.9998561" transform="translate(271.556407, 240.441555) rotate(-45.000000) translate(-271.556407, -240.441555) "></circle><path d="M302.239,68.799 C284.48,81.428 265.186,98.323 242.439,121.07 L123.066,240.442 L271.559,388.933 L390.931,269.563 C413.513,246.981 430.344,227.797 442.944,210.145 C407.808,205.362 374.494,189.485 348.504,163.495 C322.545,137.537 307.016,103.937 302.239,68.799 Z M303.379,272.26 C285.832,289.807 257.286,289.807 239.739,272.26 C222.194,254.715 222.194,226.167 239.739,208.622 C257.286,191.075 285.832,191.075 303.379,208.622 C320.926,226.167 320.926,254.715 303.379,272.26 Z" id="Shape"></path><path d="M41.974,385.174 C24.905,402.243 8.03,444.434 0.179,494.691 C-0.555,499.424 1.008,504.22 4.396,507.607 C7.784,510.994 12.579,512.558 17.312,511.822 C67.558,503.981 109.747,487.107 126.828,470.027 C137.631,459.224 143.212,445.278 144.04,431.112 L80.89,367.962 C66.723,368.79 52.778,374.371 41.974,385.174 Z" id="Path" opacity="0.5"></path></g></g></svg>