<svg viewbox="0 0 79 79" width="100%"><defs><lineargradient id="c" x1="0%" x2="82.171%" y1="100%" y2="3.831%"><stop offset="0%" stop-color="#F65FD0"></stop><stop offset="100%" stop-color="#8D82E0"></stop></lineargradient><rect height="61" id="b" rx="18" width="61"></rect><filter filterunits="objectBoundingBox" height="152.5%" id="a" width="152.5%" x="-26.2%" y="-18%"><feoffset dy="5" in="SourceAlpha" result="shadowOffsetOuter1"></feoffset><fegaussianblur in="shadowOffsetOuter1" result="shadowBlurOuter1" stddeviation="4.5"></fegaussianblur><fecolormatrix in="shadowBlurOuter1" values="0 0 0 0 0.701960784 0 0 0 0 0.474509804 0 0 0 0 0.823529412 0 0 0 0.321050044 0"></fecolormatrix></filter></defs><g fill="none" fill-rule="evenodd"><g transform="translate(9 4)"><use fill="#000"></use><use fill="url(#c)"></use></g><g fill="#FFF" fill-rule="nonzero" transform="translate(25 22)"><ellipse cx="15" cy="9.09" opacity=".5" rx="3.75" ry="1.875"></ellipse><ellipse cx="15" cy="2.215" opacity=".5" rx="3.75" ry="1.875"></ellipse><ellipse cx="23.125" cy="5.34" opacity=".5" rx="3.75" ry="1.875"></ellipse><ellipse cx="7.5" cy="5.34" opacity=".5" rx="3.75" ry="1.875"></ellipse><path d="M1.125 19.365l12.061 5.25a.625.625 0 0 0 .875-.572v-10a.625.625 0 0 0-.375-.574L.875 7.89A.625.625 0 0 0 0 8.465v9.18c0 .746.441 1.422 1.125 1.72zM15.937 14.035v10a.625.625 0 0 0 .876.573l12.062-5.25A1.875 1.875 0 0 0 30 17.638V8.466a.625.625 0 0 0-.875-.574l-12.813 5.57a.625.625 0 0 0-.375.574z"></path></g></g></svg>