<svg viewbox="0 0 79 79" width="100%"><defs><lineargradient id="c" x1="0%" x2="82.171%" y1="100%" y2="3.831%"><stop offset="0%" stop-color="#F65FD0"></stop><stop offset="100%" stop-color="#8D82E0"></stop></lineargradient><rect height="61" id="b" rx="18" width="61"></rect><filter filterunits="objectBoundingBox" height="152.5%" id="a" width="152.5%" x="-26.2%" y="-18%"><feoffset dy="5" in="SourceAlpha" result="shadowOffsetOuter1"></feoffset><fegaussianblur in="shadowOffsetOuter1" result="shadowBlurOuter1" stddeviation="4.5"></fegaussianblur><fecolormatrix in="shadowBlurOuter1" values="0 0 0 0 0.701960784 0 0 0 0 0.474509804 0 0 0 0 0.823529412 0 0 0 0.321050044 0"></fecolormatrix></filter></defs><g fill="none" fill-rule="evenodd"><g transform="translate(9 4)"><use fill="#000" filter="url(#a)"></use><use fill="url(#c)"></use></g><g fill="#FFF" fill-rule="nonzero"><path d="M51.028 28.902l2.418-2.42a1.563 1.563 0 1 0-2.209-2.21l-2.5 2.5a14.762 14.762 0 0 0-7.333-2.875v-4.772h3.125a1.562 1.562 0 1 0 0-3.125h-9.375a1.562 1.562 0 0 0 0 3.125h3.125v4.772a14.844 14.844 0 1 0 12.749 5v.005zM39.842 51.156c-6.904 0-12.5-5.596-12.5-12.5 0-6.903 5.596-12.5 12.5-12.5 6.903 0 12.5 5.597 12.5 12.5a12.5 12.5 0 0 1-12.5 12.5z" opacity=".5"></path><path d="M39.842 28.5c-5.61 0-10.157 4.547-10.157 10.156 0 5.61 4.548 10.157 10.157 10.157s10.156-4.548 10.156-10.157A10.156 10.156 0 0 0 39.842 28.5zm.828 10.66c-.46.449-1.196.449-1.656 0l-3.191-3.188a1.172 1.172 0 0 1 1.658-1.658l3.189 3.19a1.17 1.17 0 0 1 0 1.657v-.002z"></path></g></g></svg>