<svg height="20px" version="1.1" viewbox="0 0 30 20" width="30px"><defs><lineargradient id="linearGradient-1" x1="100%" x2="2.064%" y1="56.111%" y2="56.111%"><stop offset="0%" stop-color="#FFFFFF"></stop><stop offset="56.224%" stop-color="#F3F2F7"></stop><stop offset="100%" stop-color="#FFFFFF"></stop></lineargradient><lineargradient id="linearGradient-2" x1="0%" x2="82.171%" y1="62.9865788%" y2="38.0087429%"><stop offset="0%" stop-color="#F65FD0"></stop><stop offset="100%" stop-color="#8D82E0"></stop></lineargradient><lineargradient id="linearGradient-3" x1="0%" x2="82.171%" y1="75.482%" y2="26.471%"><stop offset="0%" stop-color="#F65FD0"></stop><stop offset="100%" stop-color="#8D82E0"></stop></lineargradient><rect height="472" id="path-4" rx="8" width="1140" x="0" y="0"></rect><lineargradient id="linearGradient-6" x1="0%" x2="82.171%" y1="100%" y2="3.831%"><stop offset="0%" stop-color="#F65FD0"></stop><stop offset="100%" stop-color="#8D82E0"></stop></lineargradient></defs><g fill="none" fill-rule="evenodd" id="Page-1" stroke="none" stroke-width="1"><g id="check" transform="translate(-236.000000, -998.000000)"><polygon fill="#EFEEF4" fill-rule="nonzero" id="Path" points="0 0 1440 0 1440 4051 0 4051"></polygon><polygon fill="url(#linearGradient-1)" fill-rule="nonzero" id="Path" points="0 824 1440 824 1440 2446 0 2446"></polygon><g fill="url(#linearGradient-3)" fill-rule="nonzero" id="Group"><g id="b-link" opacity="0.1"><polygon id="b" points="0 0 1440 0 1440 946 0 1028"></polygon></g><g id="d-link"><polygon id="d" points="0 0 1440 0 1440 832 0 1028"></polygon></g><g id="e-link" opacity="0.4"><polygon id="e" points="0 0 1440 0 1440 889 0 1028"></polygon></g></g><g id="Group" transform="translate(150.000000, 750.000000)"><g fill="#000000" fill-rule="nonzero" id="f-link"><rect height="472" id="f" rx="8" width="1140" x="0" y="0"></rect></g><g fill="#FFFFFF" fill-rule="nonzero" id="f-link"><rect height="472" id="f" rx="8" width="1140" x="0" y="0"></rect></g><g id="Clipped"><g id="f"></g><g id="Group" mask="url(#mask-5)"><g transform="translate(70.000000, 227.000000)"><g><g fill="#000000" fill-rule="nonzero" id="j-link"><rect height="61" id="j" rx="18" width="61" x="0" y="0"></rect></g><g fill="url(#linearGradient-6)" fill-rule="nonzero" id="j-link"><rect height="61" id="j" rx="18" width="61" x="0" y="0"></rect></g></g><g transform="translate(16.000000, 21.000000)"><path d="M6.915,13.825 C6.18453214,13.0930711 6.18453214,11.9079289 6.915,11.176 L5,9.261 C4.76557006,9.02650824 4.44757772,8.89476694 4.116,8.89476694 C3.78442228,8.89476694 3.46642994,9.02650824 3.232,9.261 L0.679,11.815 C0.191355716,12.3030675 0.191355716,13.0939325 0.679,13.582 L6.67,19.574 C6.90442994,19.8084918 7.22242228,19.9402331 7.554,19.9402331 C7.88557772,19.9402331 8.20357006,19.8084918 8.438,19.574 L10.33,17.682 C10.3887458,17.6234578 10.421766,17.5439353 10.421766,17.461 C10.421766,17.3780647 10.3887458,17.2985422 10.33,17.24 L6.915,13.825 L6.915,13.825 Z M12.125,8.625 L14.015,10.514 C14.0735422,10.5727458 14.1530647,10.605766 14.236,10.605766 C14.3189353,10.605766 14.3984578,10.5727458 14.457,10.514 L22.41,2.561 C22.4687458,2.50245782 22.501766,2.42293526 22.501766,2.34 C22.501766,2.25706474 22.4687458,2.17754218 22.41,2.119 L20.714,0.423 C20.4795701,0.188508237 20.1615777,0.0567669376 19.83,0.0567669376 C19.4984223,0.0567669376 19.1804299,0.188508237 18.946,0.423 L11.231,8.138 C11.57,8.211 11.88,8.38 12.125,8.625 Z" fill="#FFFFFF" fill-rule="nonzero" id="Shape" opacity="0.5"></path><path d="M26.951,0.664 C26.7070237,0.420510714 26.3119763,0.420510714 26.068,0.664 L14.674,12.058 C14.556785,12.1752459 14.3977889,12.2411165 14.232,12.2411165 C14.0662111,12.2411165 13.907215,12.1752459 13.79,12.058 L11.236,9.5 C11.118785,9.38275412 10.9597889,9.31688347 10.794,9.31688347 C10.6282111,9.31688347 10.469215,9.38275412 10.352,9.5 L7.799,12.057 C7.68175412,12.174215 7.61588347,12.3332111 7.61588347,12.499 C7.61588347,12.6647889 7.68175412,12.823785 7.799,12.941 L13.79,18.933 C14.034,19.176 14.43,19.176 14.674,18.933 L29.5,4.103 C29.6172459,3.98578503 29.6831165,3.82678886 29.6831165,3.661 C29.6831165,3.49521114 29.6172459,3.33621497 29.5,3.219 L26.951,0.664 L26.951,0.664 Z" fill="#FFFFFF" fill-rule="nonzero" id="Path"></path></g></g></g></g></g></g></g></svg>