<svg height="18" width="18" xmlns="http://www.w3.org/2000/svg"><path d="M 0 4 C 0 1.791 1.791 0 4 0 L 14 0 C 16.209 0 18 1.791 18 4 L 18 14 C 18 16.209 16.209 18 14 18 L 4 18 C 1.791 18 0 16.209 0 14 Z M 12.967 5.767 C 13.706 6.668 14.115 7.794 14.125 8.959 C 13.956 8.923 12.261 8.58 10.556 8.794 L 10.445 8.53 C 10.34 8.28 10.226 8.032 10.106 7.787 C 12 7.014 12.859 5.913 12.967 5.767 Z M 7.8 4.024 C 9.428 3.628 11.147 4.058 12.397 5.173 C 12.306 5.305 11.533 6.342 9.711 7.024 C 8.872 5.482 7.941 4.214 7.8 4.024 Z M 3.983 7.958 C 4.316 6.384 5.366 5.056 6.821 4.37 C 7.507 5.323 8.142 6.312 8.723 7.334 C 6.327 7.969 4.218 7.961 3.983 7.958 Z M 5.194 12.436 C 4.375 11.526 3.877 10.324 3.877 9.008 L 3.879 8.852 C 4.103 8.857 6.587 8.888 9.146 8.122 C 9.292 8.408 9.43 8.698 9.562 8.992 C 9.494 9.011 9.427 9.031 9.359 9.053 C 6.716 9.908 5.309 12.236 5.194 12.436 Z M 11.003 13.727 C 10.388 13.989 9.711 14.134 9.001 14.134 C 7.861 14.136 6.753 13.754 5.855 13.052 C 5.948 12.863 6.985 10.859 9.875 9.85 L 9.908 9.839 C 10.628 11.708 10.927 13.276 11.003 13.726 Z M 14.062 9.822 C 13.835 11.221 13.04 12.464 11.865 13.257 C 11.812 12.946 11.54 11.446 10.869 9.603 C 12.475 9.347 13.886 9.767 14.061 9.823 Z M 9 15 C 12.309 15 15 12.308 15 9 C 15 5.691 12.309 3 9 3 C 5.693 3 3 5.691 3 9 C 3 12.308 5.693 15 9 15 Z" fill="currentColor"></path></svg>