<svg height="18" width="18" xmlns="http://www.w3.org/2000/svg"><path d="M 0 4 C 0 1.791 1.791 0 4 0 L 14 0 C 16.209 0 18 1.791 18 4 L 18 14 C 18 16.209 16.209 18 14 18 L 4 18 C 1.791 18 0 16.209 0 14 Z M 14.055 12.866 C 14.048 12.811 14.045 5.311 14.058 5.244 C 14.071 5.178 15 4 15 4 L 11.853 4 L 9.316 10.25 L 6.617 4 L 3.381 4 L 4.449 5.622 C 4.505 5.692 4.523 5.734 4.528 5.788 C 4.533 5.842 4.528 11.721 4.512 11.782 C 4.497 11.843 3 14 3 14 L 6.429 14 C 6.429 14 4.933 11.843 4.917 11.781 C 4.902 11.721 4.905 6.222 4.905 6.222 C 4.974 6.418 8.368 14 8.368 14 L 11.381 6.308 C 11.381 6.308 11.379 12.814 11.372 12.871 C 11.365 12.928 10.429 14 10.429 14 L 15 14 C 15 14 14.061 12.921 14.055 12.866 Z" fill="currentColor"></path></svg>