<svg height="18" width="18" xmlns="http://www.w3.org/2000/svg"><path d="M 0 4 C 0 1.791 1.791 0 4 0 L 14 0 C 16.209 0 18 1.791 18 4 L 18 14 C 18 16.209 16.209 18 14 18 L 4 18 C 1.791 18 0 16.209 0 14 Z M 14.5 5.994 C 14.5 5.994 14.5 5.994 14.499 5.995 C 14.5 5.994 14.5 5.994 14.5 5.994 Z M 13.263 6.328 C 13.714 6.061 14.051 5.644 14.21 5.155 C 13.788 5.402 13.325 5.576 12.842 5.669 C 12.437 5.243 11.867 5 11.269 5 C 10.08 5 9.115 5.949 9.115 7.12 C 9.115 7.286 9.133 7.449 9.171 7.604 C 7.379 7.515 5.793 6.671 4.73 5.388 C 4.538 5.712 4.437 6.08 4.438 6.454 C 4.438 7.19 4.819 7.839 5.397 8.218 C 5.055 8.208 4.72 8.118 4.421 7.954 L 4.421 7.981 C 4.421 9.008 5.164 9.865 6.15 10.06 C 5.833 10.144 5.5 10.156 5.177 10.096 C 5.451 10.939 6.246 11.552 7.19 11.569 C 6.429 12.157 5.486 12.476 4.514 12.475 C 4.34 12.475 4.168 12.467 4 12.447 C 4.982 13.07 6.129 13.401 7.302 13.4 C 11.264 13.4 13.431 10.169 13.431 7.366 C 13.431 7.275 13.43 7.183 13.425 7.092 C 13.848 6.791 14.211 6.419 14.499 5.995 C 14.107 6.165 13.69 6.278 13.263 6.328 Z" fill="currentColor"></path></svg>