<svg height="18" width="18" xmlns="http://www.w3.org/2000/svg"><path d="M 0 4 C 0 1.791 1.791 0 4 0 L 14 0 C 16.209 0 18 1.791 18 4 L 18 14 C 18 16.209 16.209 18 14 18 L 4 18 C 1.791 18 0 16.209 0 14 Z M 5.521 9.323 L 4.261 9.323 C 3.567 9.323 3 9.889 3 10.583 C 3 11.277 3.567 11.843 4.261 11.843 C 4.955 11.843 5.521 11.277 5.521 10.583 Z M 6.157 13.739 C 6.158 14.434 6.722 14.998 7.417 15 C 8.111 15 8.677 14.433 8.677 13.739 L 8.677 10.583 C 8.677 9.889 8.111 9.323 7.417 9.323 C 6.723 9.323 6.157 9.889 6.157 10.583 Z M 8.677 5.521 L 8.677 4.261 C 8.677 3.567 8.111 3 7.417 3 C 6.723 3 6.157 3.567 6.157 4.261 C 6.157 4.955 6.723 5.521 7.417 5.521 Z M 4.261 6.157 C 3.567 6.157 3 6.723 3 7.417 C 3 8.111 3.567 8.677 4.261 8.677 L 7.417 8.677 C 8.111 8.677 8.677 8.111 8.677 7.417 C 8.677 6.723 8.111 6.157 7.417 6.157 Z M 12.479 8.677 L 13.739 8.677 C 14.433 8.677 15 8.111 15 7.417 C 15 6.723 14.433 6.157 13.739 6.157 C 13.045 6.157 12.479 6.723 12.479 7.417 Z M 11.843 4.261 C 11.843 3.567 11.277 3 10.583 3 C 9.889 3 9.323 3.567 9.323 4.261 L 9.323 7.417 C 9.323 8.111 9.889 8.677 10.583 8.677 C 11.277 8.677 11.843 8.111 11.843 7.417 Z M 9.323 12.479 L 9.323 13.739 C 9.325 14.434 9.888 14.998 10.583 15 C 11.277 15 11.843 14.433 11.843 13.739 C 11.843 13.045 11.277 12.479 10.583 12.479 Z M 13.739 11.843 C 14.433 11.843 15 11.277 15 10.583 C 15 9.889 14.433 9.323 13.739 9.323 L 10.583 9.323 C 9.889 9.323 9.323 9.889 9.323 10.583 C 9.323 11.277 9.889 11.843 10.583 11.843 Z" fill="currentColor"></path></svg>