<svg class="Logo__Svg-sc-1aawami-1 bkTsaO" viewbox="0 0 17.43 14.06"><path d="M5.07,0A2.77,2.77,0,0,0,2.74,1.7l0,0L3,.12H2.43L0,1.11v.34L.86,2V7.66H.14v.82h4V7.65H3.09V5.76a2.24,2.24,0,0,0,1.53.61A2.87,2.87,0,0,0,7.48,3.16C7.48,1.09,6.23,0,5.07,0Zm-.38,5.1a.9.9,0,0,1-.75.29,2,2,0,0,1-.85-.21V1.89a1.35,1.35,0,0,1,1-.49.76.76,0,0,1,.66.27A3,3,0,0,1,5,3.16,4.09,4.09,0,0,1,4.69,5.14Z"></path><path d="M10.43,12.88h.91V8.36l-1.08-.71V7.23L12.83,6h.65L13.2,8h0c.59-1.26,1.44-2.11,2.5-2.11a1.6,1.6,0,0,1,1.7,1.6A1.52,1.52,0,0,1,16,9.12,1.2,1.2,0,0,1,14.72,7.9a1,1,0,0,1,.19-.57v0a2.48,2.48,0,0,0-1.26,1v4.53h1.09v.76H10.43Z"></path><path d="M4.38,14.06a.28.28,0,0,1-.15,0,.29.29,0,0,1-.09-.39L12.46.13A.28.28,0,0,1,12.84,0a.29.29,0,0,1,.09.39L4.62,13.93A.31.31,0,0,1,4.38,14.06Z"></path></svg>