<svg class="mr-1 mr-md-2" height="20" style="vertical-align: middle" version="1.1" viewbox="0 0 90.8 57.8" width="20" x="0px" xml:space="preserve" xmlns="http://www.w3.org/2000/svg" xmlns:xlink="http://www.w3.org/1999/xlink" y="0px">
<path d="M61,18.8V3.3c0-0.8-0.7-1.5-1.5-1.5c-0.2,0-0.4,0-0.6,0.1c-0.9,0.4-1.7,0.8-2.6,1.2
	c-11,5.1-20.9,9.7-43.6,9.7H9.9C4.4,12.9,0,17.3,0,22.8v5.6c0,5.4,4.4,10.4,9.9,10.4h2.8c2.4,0,4.2,0,6.4,0.1
	c0.1,8.2,5.1,15.1,12.4,18.7c0.7,0.4,1.6,0.1,2-0.7c0,0,0,0,0,0c0.4-0.7,0.1-1.6-0.7-2c-6.2-3.1-10.6-8.9-10.8-15.9
	c16.2,1.2,25,4.8,34.3,9c0.9,0.4,1.7,0.8,2.6,1.2c0.8,0.3,1.6,0,2-0.7c0.1-0.2,0.1-0.4,0.1-0.6V32.8c3.2,0,5.8-2.5,5.9-5.7v-2.8
	C66.9,21.3,64.1,18.9,61,18.8z M9.9,35.8c-3.8,0-6.9-3.6-6.9-7.4v-5.6c0-3.8,3-6.9,6.9-7h2.8c2.4,0,4.2,0.1,6.4,0v20.1
	c-2.2-0.1-4-0.1-6.4-0.1H9.9z M58,45.6l-0.4-0.2C48,41,38.9,37.2,22,36.1V15.6c16.8-1.2,26-5.4,35.5-9.8L58,5.6V45.6z M63.9,27.2
	c-0.2,1.5-1.4,2.6-2.9,2.7v-8c1.4,0.1,2.9,1.1,2.9,2.6V27.2L63.9,27.2z M75.4,9.1c0.3,0,0.6-0.1,0.9-0.3l8.6-6.1
	c0.7-0.5,0.8-1.4,0.4-2.1c-0.5-0.7-1.4-0.8-2.1-0.4l-8.6,6.1c-0.7,0.5-0.9,1.4-0.4,2.1C74.4,8.9,74.9,9.1,75.4,9.1L75.4,9.1z
	 M77.7,20.1c0.2,0.6,0.8,1.1,1.4,1.1c0.1,0,0.3,0,0.4-0.1l10.2-2.9c0.8-0.2,1.3-1.1,1-1.9c-0.2-0.8-1.1-1.3-1.9-1l-10.2,2.9
	C78,18.5,77.5,19.3,77.7,20.1L77.7,20.1z M84.8,48.5l-8.6-6.1c-0.7-0.5-1.6-0.3-2.1,0.4s-0.3,1.6,0.4,2.1l8.6,6.1
	c0.7,0.5,1.6,0.3,2.1-0.4S85.5,48.9,84.8,48.5z M89.7,32.9L79.6,30c-0.8-0.2-1.6,0.2-1.9,1c-0.2,0.8,0.2,1.6,1,1.9l10.2,2.9
	c0.8,0.2,1.6-0.2,1.9-1C91,34,90.5,33.1,89.7,32.9L89.7,32.9z" fill="#ffffff"></path>
</svg>