<svg class="SocialIcon-svg" data-v-2369b5e0="" height="125%" viewbox="0 0 25 18" width="125%"><path class="SocialIcon-path" d="m9.919 12.319v-7.191l6.755 3.608-6.754 3.583m14.831-8.437c0 0-.245-1.763-.994-2.54-.951-1.02-2.02-1.024-2.505-1.084-3.498-.259-8.746-.259-8.746-.259h-.011c0 0-5.248 0-8.746.259-.489.059-1.554.064-2.505 1.084-.749.777-.993 2.54-.993 2.54 0 0-.25 2.071-.25 4.142v1.942c0 2.071.25 4.142.25 4.142 0 0 .244 1.763.993 2.54.952 1.02 2.201.988 2.757 1.094 2 .197 8.5.258 8.5.258 0 0 5.253-.008 8.752-.267.488-.06 1.554-.065 2.505-1.084.749-.777.994-2.54.994-2.54 0 0 .25-2.071.25-4.142v-1.942c0-2.071-.25-4.142-.25-4.142" data-v-2369b5e0=""></path></svg>