<svg class="SocialIcon-svg" data-v-2369b5e0="" height="95%" viewbox="0 0 25 25" width="95%"><path class="SocialIcon-path" d="m18.377 7.475c2.01 0 3.611.506 4.815 1.523 1.205 1.02 1.808 2.576 1.808 4.682v10.659c0 .166-.069.32-.199.453-.132.133-.285.2-.451.2h-4.582c-.169 0-.315-.067-.437-.2-.119-.133-.182-.286-.182-.453v-9.637c0-.806-.145-1.426-.434-1.853-.291-.423-.881-.636-1.768-.636-.563 0-1.03.093-1.41.28-.38.187-.682.436-.897.746-.216.316-.365.693-.451 1.127-.086.436-.129.906-.129 1.407v8.567c0 .166-.063.32-.195.453-.132.133-.281.2-.454.2h-4.453c-.169 0-.318-.067-.451-.2-.136-.133-.199-.286-.199-.453v-15.813c0-.167.063-.32.199-.453.132-.13.281-.2.451-.2h4.328c.348 0 .544.133.586.407.043.27.063.526.063.777.603-.567 1.288-.969 2.052-1.212.768-.244 1.563-.367 2.384-.367m-13.11.4c.169 0 .318.063.451.194.132.126.199.28.199.46v15.813c0 .166-.067.32-.199.453-.132.133-.281.2-.451.2h-4.456c-.166 0-.318-.067-.451-.2-.129-.133-.199-.286-.199-.453v-15.813c0-.167.069-.32.199-.453.132-.13.285-.2.451-.2h4.456m-2.251-7.881c.41 0 .805.084 1.172.247.371.166.695.383.976.653.278.274.493.594.648.967.153.373.229.767.229 1.183 0 .413-.076.803-.229 1.169-.156.367-.371.689-.648.96-.281.27-.605.487-.976.653-.367.167-.762.247-1.172.247-.414 0-.801-.08-1.166-.247-.365-.166-.682-.383-.95-.653-.268-.27-.486-.593-.652-.96-.162-.367-.246-.756-.246-1.169 0-.417.082-.809.246-1.183.166-.373.384-.693.652-.967.268-.27.586-.486.95-.653.365-.164.752-.247 1.166-.247" data-v-2369b5e0=""></path></svg>