<svg class="SocialIcon-svg" data-v-2369b5e0="" height="100%" viewbox="0 0 25 25" width="100%"><path class="SocialIcon-path" d="M3.7 17.7c0-1 .2-1.8.7-2.4.4-.5 1-.9 1.8-1.1-.3-.7-.4-1.1-.4-1.4 0-.5.3-1.1.9-1.7.6-.6 1.2-.9 1.7-.9.3 0 .6.1 1 .2C8.6 8.2 8 6.5 7.7 5.3c-.4-1.3-.6-2.2-.6-2.8 0-.8.2-1.4.6-1.8.4-.5.9-.7 1.6-.7 1.2 0 2.6 2.4 4.2 7.2l.5 1.2c.1-.2.2-.5.3-.8C15.9 2.8 17.4.4 18.7.4c.7 0 1.2.2 1.5.7.4.4.6 1 .6 1.7 0 .5-.2 1.4-.6 2.8-.3 1.2-.9 2.8-1.6 4.9.9.2 1.6.7 2 1.3.4.7.7 1.8.7 3.3 0 2.9-.9 5.3-2.6 7.1-1.8 1.8-4 2.8-6.7 2.8-1.1 0-2.1-.2-3.1-.6-1-.4-1.9-.9-2.6-1.6-.8-.8-1.5-1.6-1.9-2.4-.5-.9-.7-1.8-.7-2.7zm1.6-.1c0 .4.1.9.3 1.4.2.5.5 1.1 1 1.6.7.9 1.5 1.5 2.4 2 .9.5 2 .7 3.2.7 2.1 0 3.9-.8 5.3-2.4 1.4-1.6 2.1-3.6 2.1-6 0-.8 0-1.3-.1-1.7-.1-.4-.2-.6-.5-.8-.4-.4-1.3-.7-2.6-1-1.4-.3-2.7-.4-4.1-.4-.4 0-.6 0-.7.1-.1 0-.2.2-.2.5 0 .7.4 1.1 1.1 1.4.8.3 2.2.5 4.1.5h.7c.3 0 .4.1.6.3.1.1.2.4.3.8-.3.3-.7.5-1.4.8-.6.2-1 .4-1.3.6-.6.5-1.2 1-1.6 1.7-.4.6-.6 1.2-.6 1.8 0 .3.1.8.2 1.2.2.5.3.9.3 1.1v.2l-.1.4c-.7 0-1.2-.4-1.6-1-.3-.5-.4-1.2-.5-2H11v.3c0 .5-.2.9-.6 1.2-.4.3-.8.5-1.3.5-.8 0-1.5-.4-2.3-1.1-.8-.8-1.2-1.5-1.2-2.2 0-.1 0-.3.1-.4 0-.1.1-.3.4-.5.4.5.7.9.8 1.1.7 1 1.3 1.4 1.9 1.4.2 0 .3-.1.4-.1.1-.1.1-.2.1-.2 0-.1-.1-.4-.3-.7-.1-.2-.4-.7-.9-1.3-.5-.6-.8-1-1.1-1.2-.2-.2-.4-.3-.5-.3-.3 0-.6.2-.9.5-.1.2-.3.7-.3 1.2zm2.2-4.7c0 .2.1.6.4 1.1.2.4.6 1 1.1 1.7.5.7 1 1.2 1.4 1.5.4.3.7.5.9.5.1 0 .2-.1.3-.2.1-.1.2-.3.2-.4 0-.2-.1-.7-.4-1.4-.3-.8-.7-1.6-1.1-2.3-.4-.6-.7-1-1-1.2-.3-.2-.6-.3-.8-.3-.2 0-.4.1-.6.4-.3.2-.4.4-.4.6zM8.6 2.3c0 .6.2 1.4.6 2.6.4 1.2.9 2.7 1.6 4.7.2-.1.4-.1.7-.1h.5c.1 0 .3 0 .6.1l-1.7-4.9c-.5-1.3-.8-2.2-1.1-2.5-.2-.4-.4-.6-.6-.6-.2 0-.3.1-.4.2-.1.1-.2.3-.2.5zm4.1 12.5c.1.4.3.8.5 1.2.3-.3.6-.7 1-.9-.1 0-.2 0-.4-.1-.1 0-.2 0-.4-.1-.2.1-.5 0-.7-.1zm2.6-5l1.6.3c.6-1.6 1.2-3.2 1.7-4.9.4-1.3.6-2.1.6-2.4 0-.3-.1-.5-.2-.6-.1-.1-.2-.2-.4-.2s-.5.2-.8.7c-.3.5-.7 1.3-1.1 2.5l-1.4 4.6z" data-v-2369b5e0=""></path></svg>