<svg class="SocialIcon-svg" data-v-2369b5e0="" height="100%" viewbox="0 0 25 25" width="100%"><path class="SocialIcon-path" d="M25 4.7c-.9.4-1.9.7-2.9.8 1.1-.6 1.9-1.7 2.3-2.8-1 .6-2.1 1-3.3 1.2-1-1-2.3-1.6-3.7-1.6-2.8 0-5.1 2.3-5.1 5.1 0 .4 0 .8.1 1.2-4.3-.2-8-2.3-10.6-5.4C1.3 4 1 4.9 1 5.8c0 1.8 1 3.4 2.3 4.3-.8 0-1.6-.2-2.3-.6v.1c0 2.4 1.7 4.6 4.1 5-.4.1-.9.2-1.4.2-.3 0-.6 0-1-.1.7 2.1 2.6 3.5 4.8 3.6-1.8 1.4-4.1 2.2-6.4 2.2-.4 0-.8 0-1.2-.1 2.3 1.5 5.1 2.3 7.9 2.3 9.4 0 14.6-7.8 14.6-14.6v-.7c1-.7 1.9-1.6 2.6-2.7" data-v-2369b5e0=""></path></svg>