<svg fill="none" height="25" viewbox="0 0 96 25" width="96" xmlns="http://www.w3.org/2000/svg"><path d="M54.3554 0V7.96027C54.4543 7.93162 54.5516 7.89796 54.6471 7.85942C55.2652 7.57338 55.896 7.32691 56.5737 7.21736C58.5246 6.90264 60.3682 7.07652 61.9735 8.37758C63.2267 9.39392 64.0005 10.7176 64.4661 12.2399C64.8573 13.5175 64.8764 14.832 64.836 16.1522C64.7991 17.3983 64.5348 18.6271 64.0562 19.7781C62.949 22.4476 60.9302 24.0569 58.1442 24.7315C56.9292 25.0254 55.6904 24.988 54.4523 24.9689C52.78 24.9432 51.1547 24.5963 49.5237 24.2799C49.3211 24.2403 49.2772 24.1551 49.2798 23.9625C49.3276 20.7168 49.3701 17.4723 49.4072 14.2291C49.4215 12.8168 49.4172 11.4035 49.4024 9.99163C49.3862 8.44177 49.3572 6.89221 49.3155 5.34293C49.2985 4.69392 49.259 4.04708 49.0325 3.42111C48.806 2.79514 48.4113 2.41216 47.7514 2.30262C47.5671 2.27175 47.3867 2.21568 47.2041 2.17221C47.0468 2.13482 46.9716 2.03658 46.9785 1.87531C46.979 1.86807 46.979 1.86081 46.9785 1.85357C46.962 1.38235 46.9616 1.37844 47.4176 1.29107C49.6224 0.869985 51.8273 0.449772 54.0324 0.030429C54.1246 0.014345 54.2189 0.0130411 54.3554 0ZM54.3467 15.7327H54.3154C54.3402 17.6515 54.3589 19.5707 54.3919 21.4895C54.4019 22.0981 54.4428 22.7041 54.4693 23.3109C54.4758 23.4622 54.5536 23.5578 54.7014 23.5817C55.8316 23.7656 56.8284 23.5465 57.6096 22.6406C58.2412 21.9081 58.6337 21.0522 58.9289 20.145C59.3329 18.8988 59.5482 17.5991 59.5674 16.2892C59.5918 14.8825 59.5544 13.4827 59.1062 12.1278C58.8189 11.2584 58.4477 10.4416 57.7617 9.80732C57.3787 9.45347 56.9405 9.16526 56.4215 9.0931C55.7948 9.01071 55.1576 9.07165 54.558 9.27133C54.3984 9.32263 54.3436 9.39783 54.3441 9.56258C54.3493 11.6193 54.3506 13.676 54.348 15.7327H54.3467Z" fill="#A4B0BC"></path> <path d="M0.0472301 1.5584C0.0289726 1.21586 0.00593337 0.898962 0.00375986 0.58163C0.00375986 0.53816 0.0985255 0.463825 0.153733 0.459913C0.478455 0.436439 0.805787 0.416443 1.12964 0.416443C6.06989 0.416443 11.011 0.417892 15.953 0.42079C17.0032 0.42079 18.0535 0.436005 19.1033 0.444264C19.4106 0.444264 19.4193 0.448176 19.4345 0.754641C19.4563 1.18934 19.4723 1.62404 19.4802 2.05875C19.5102 3.73148 19.5336 5.40595 19.5671 7.07694C19.5706 7.2443 19.5236 7.3269 19.3571 7.36167C19.1598 7.40297 18.9694 7.47556 18.7738 7.52642C18.4512 7.61076 18.3691 7.57381 18.2369 7.26343C18.0335 6.78526 17.8705 6.28535 17.6322 5.825C17.331 5.24207 17.018 4.65522 16.6281 4.12967C15.7587 2.95597 14.5663 2.33435 13.0953 2.30957C11.8064 2.2874 10.5166 2.29827 9.22641 2.28957C9.09947 2.28957 9.03905 2.32783 9.02992 2.45432C9.0121 2.6995 8.98036 2.94423 8.9708 3.18941C8.9382 4.01534 8.89864 4.84127 8.88777 5.66416C8.86126 7.64119 8.84995 9.61995 8.83169 11.5957C8.83169 11.7148 8.81561 11.8378 8.99645 11.8291C9.91411 11.7856 10.8352 11.7765 11.749 11.6904C12.4489 11.6248 12.9483 11.1875 13.3187 10.6037C13.6617 10.0646 13.8303 9.45911 13.9855 8.84835C14.092 8.4306 13.9999 8.51102 14.4263 8.46799C14.6132 8.4493 14.8028 8.46103 14.9914 8.45234C15.1027 8.44712 15.1536 8.49059 15.1475 8.60231C15.1453 8.64578 15.1475 8.68925 15.1475 8.73272C15.1475 11.2754 15.1475 13.818 15.1475 16.3604C15.1475 16.6556 15.1475 16.6552 14.8488 16.6495C14.6532 16.6456 14.4576 16.6356 14.2624 16.6447C14.1172 16.6513 14.0655 16.5904 14.0273 16.4556C13.8942 15.984 13.759 15.5119 13.5965 15.0498C13.5182 14.8277 13.3882 14.6203 13.2626 14.4182C12.8692 13.7857 12.3063 13.4279 11.5516 13.3879C10.7209 13.3445 9.88976 13.301 9.05948 13.2523C8.87473 13.241 8.82561 13.3062 8.82865 13.4844C8.85169 14.8529 8.83865 16.2231 8.89168 17.5898C8.93515 18.6578 9.03557 19.725 9.14642 20.7887C9.18598 21.1643 9.3077 21.5364 9.43115 21.8968C9.70327 22.6914 10.248 23.1696 11.1013 23.2796C11.4925 23.33 11.8837 23.4235 12.275 23.4861C12.4532 23.5148 12.5136 23.6165 12.5306 23.7799C12.6075 24.5311 12.5901 24.5537 11.8446 24.5537C8.09227 24.5537 4.33934 24.5527 0.585827 24.5507C-0.0401444 24.5507 0.0359292 24.6232 0.00245713 23.9421C-0.0144963 23.5908 0.0502751 23.5278 0.3863 23.4482C0.647121 23.387 0.907942 23.3226 1.17094 23.287C2.21205 23.1466 2.80151 22.5045 3.02103 21.5334C3.17913 20.8309 3.28103 20.1168 3.32576 19.3981C3.54311 15.8823 3.46356 12.3612 3.45617 8.84183C3.45356 7.6551 3.39314 6.46793 3.32576 5.28293C3.28576 4.59175 3.18448 3.90536 2.95756 3.23983C2.63936 2.31 1.98731 1.81705 1.03096 1.69142C0.707108 1.65013 0.385863 1.60448 0.0472301 1.5584Z" fill="#A4B0BC"></path> <path d="M25.6604 6.85352C27.1523 6.83048 28.582 7.10521 29.9014 7.82595C31.6358 8.77403 32.7217 10.2568 33.3451 12.1008C33.838 13.5584 33.9671 15.0568 33.8941 16.5926C33.8271 17.9962 33.5268 19.3273 32.8882 20.5749C31.6762 22.9449 29.7366 24.3568 27.1354 24.8584C26.2503 25.0293 25.35 24.9888 24.4515 24.9623C23.59 24.9371 22.7398 24.7588 21.9407 24.4359C19.7919 23.5704 18.39 22.0016 17.6371 19.8281C17.1142 18.3114 16.9542 16.7465 17.0603 15.1472C17.1472 13.8583 17.3902 12.6072 17.9771 11.4479C19.229 8.97399 21.1969 7.44297 23.9542 6.9748C24.2389 6.92655 24.5254 6.8783 24.8127 6.85787C25.1001 6.83744 25.3783 6.85352 25.6604 6.85352ZM22.3158 15.7214C22.3432 18.0028 22.4393 18.9926 22.8318 20.474C23.057 21.3239 23.3574 22.1442 23.916 22.8423C24.8493 24.0095 26.2846 24.0234 27.2501 22.8858C27.7609 22.2828 28.0117 21.5617 28.1982 20.8144C28.5399 19.4438 28.6155 18.0414 28.6216 16.6387C28.6259 15.6123 28.5677 14.5847 28.5034 13.5601C28.4448 12.5997 28.2546 11.6519 27.9382 10.7432C27.6479 9.91165 27.2366 9.1557 26.5472 8.58102C26.1998 8.29158 25.7631 8.13094 25.3109 8.12627C24.8587 8.1216 24.4188 8.27317 24.0655 8.55538C23.6821 8.85967 23.4247 9.2609 23.223 9.69864C22.751 10.7224 22.5449 11.8169 22.4467 12.9272C22.3636 13.8548 22.3567 14.7903 22.3158 15.7223V15.7214Z" fill="#A4B0BC"></path> <path d="M76.4338 15.2142H71.6751C71.3517 15.2142 71.3708 15.2142 71.3708 15.535C71.3755 16.3742 71.4816 17.2098 71.6868 18.0236C72.0781 19.5542 72.9009 20.7783 74.2424 21.6317C74.938 22.0742 75.7057 22.2663 76.5194 22.3272C77.3932 22.3911 78.2626 22.3707 79.0863 22.0551C79.5754 21.8681 80.0318 21.5925 80.4957 21.3443C80.8717 21.1426 81.1986 21.2822 81.2751 21.7138C81.292 21.8103 81.2381 21.9516 81.1677 22.0255C80.7899 22.4233 80.4191 22.8328 80.0044 23.1896C78.9177 24.1247 77.6279 24.6711 76.2277 24.8737C73.9099 25.2097 71.6946 24.9141 69.7272 23.5152C68.0901 22.3507 67.0933 20.7457 66.5404 18.8383C66.2361 17.7876 66.2309 16.7117 66.2326 15.6332C66.2365 13.6044 66.8077 11.747 67.9888 10.102C69.2429 8.35411 70.973 7.33821 73.0874 6.97523C74.4468 6.74179 75.8004 6.76092 77.115 7.20997C78.8825 7.81334 80.0544 9.05572 80.7734 10.7511C81.1469 11.6458 81.3815 12.5923 81.4689 13.5579C81.5124 14.0109 81.5229 14.4669 81.5559 14.9207C81.5707 15.1172 81.5033 15.185 81.2999 15.1842C79.6775 15.1772 78.0552 15.1802 76.4312 15.1802L76.4338 15.2142ZM72.9183 13.7975V13.7766C74.0186 13.7422 75.1184 13.704 76.2186 13.677C76.4016 13.6727 76.4199 13.584 76.4051 13.4449C76.3034 12.4886 76.2312 11.5322 76.0899 10.5811C75.9921 9.92295 75.7752 9.28698 75.3653 8.74143C74.8671 8.07851 74.1294 7.94592 73.4278 8.38801C73.0579 8.62101 72.7758 8.9427 72.5584 9.3148C71.7855 10.6315 71.5116 12.0869 71.3847 13.5823C71.3695 13.7627 71.4499 13.8035 71.6138 13.7996C72.0489 13.7905 72.4836 13.7975 72.9183 13.7975Z" fill="#A4B0BC"></path> <path d="M82.542 21.0774C82.542 20.411 82.5485 19.745 82.5372 19.0777C82.5346 18.9086 82.5933 18.8204 82.7441 18.7761C82.7719 18.7682 82.7993 18.7591 82.8271 18.7504C83.3601 18.5835 83.4166 18.6083 83.6235 19.1156C84.0147 20.0767 84.4577 21.0104 85.1328 21.8107C85.6979 22.481 86.3726 23.0005 87.2511 23.1583C88.2031 23.3296 89.1264 23.313 89.958 22.6758C90.9878 21.8872 91.3095 19.8133 89.9297 18.8647C89.2077 18.3683 88.4139 18.0266 87.6154 17.6858C86.8516 17.3598 86.0652 17.0707 85.3397 16.6725C84.0217 15.9496 83.161 14.8564 82.9367 13.3297C82.5059 10.4011 84.1595 8.37019 86.2591 7.45428C87.3785 6.96611 88.563 6.81266 89.7771 6.83657C91.3329 6.867 92.8574 7.07305 94.3263 7.61686C94.5267 7.69076 94.6245 7.78378 94.6258 8.01548C94.6306 8.67405 94.6662 9.33219 94.6832 9.99076C94.7014 10.6863 94.708 11.3818 94.7306 12.0773C94.7358 12.2403 94.6871 12.3229 94.5319 12.3816C93.9185 12.6064 93.8799 12.5951 93.6451 11.9869C93.3334 11.1744 92.9931 10.3785 92.461 9.67864C91.7968 8.80533 90.9165 8.32542 89.8297 8.22631C88.6995 8.12154 87.6019 9.00877 87.4745 10.139C87.4344 10.447 87.4274 10.7584 87.4537 11.0679C87.5206 11.7135 87.9397 12.1512 88.4209 12.5281C89.1573 13.105 90.0067 13.4792 90.8552 13.8479C91.8372 14.2739 92.8296 14.679 93.7121 15.3002C94.6975 15.9957 95.3552 16.9086 95.5256 18.1184C95.9077 20.8365 94.8571 23.197 92.1545 24.3472C91.1982 24.7536 90.2084 24.984 89.1612 24.9558C88.4809 24.9375 87.7993 24.9658 87.1181 24.9519C86.1517 24.9323 85.2136 24.7149 84.2799 24.4915C83.79 24.3741 83.3114 24.2068 82.8332 24.0464C82.7922 24.0265 82.7565 23.9971 82.729 23.9608C82.7015 23.9245 82.683 23.8821 82.675 23.8373C82.6376 22.9188 82.6146 21.9994 82.5881 21.08L82.542 21.0774Z" fill="#A4B0BC"></path> <path d="M41.3505 10.4224L41.5562 10.0538C42.0574 9.15308 42.6547 8.33323 43.5002 7.71943C44.4109 7.05782 45.4203 6.7044 46.5505 6.81612C46.9969 6.85959 47.4416 6.98435 47.8703 7.12476C48.168 7.22213 48.1958 7.3395 48.0876 7.63249C47.566 9.03354 47.0321 10.4311 46.5096 11.8326C46.4392 12.0221 46.3475 12.0356 46.1719 11.9665C45.6015 11.7422 45.0373 11.4883 44.4474 11.334C43.5489 11.0997 42.6651 11.2384 41.8357 11.6535C41.5157 11.8135 41.2897 12.0304 41.2875 12.436C41.2836 13.2102 41.2288 13.9844 41.2288 14.7586C41.2288 16.1931 41.2314 17.6276 41.2753 19.0621C41.304 19.9933 41.4005 20.9227 41.4827 21.8516C41.501 22.0564 41.574 22.2602 41.6453 22.4559C41.8383 22.9866 42.2187 23.294 42.782 23.3644C43.1763 23.4135 43.5706 23.4635 43.9657 23.5018C44.144 23.5187 44.2444 23.5696 44.2226 23.7765C44.2047 23.9644 44.2031 24.1534 44.2179 24.3416C44.23 24.5203 44.1579 24.559 43.9914 24.559C42.8542 24.5537 41.717 24.559 40.5798 24.559C38.6457 24.559 36.7117 24.5575 34.7778 24.5546C34.5535 24.5546 34.3292 24.5324 34.1049 24.5285C33.9901 24.5264 33.9245 24.482 33.9258 24.3646C33.9284 24.1195 33.9288 23.8739 33.9458 23.6291C33.9484 23.5917 34.0301 23.5422 34.0827 23.5287C34.314 23.4735 34.5492 23.4335 34.7817 23.3813C35.5446 23.2105 35.9989 22.7645 36.105 21.9929C36.2005 21.3494 36.2558 20.7006 36.2706 20.0502C36.3019 17.8202 36.3241 15.5893 36.3062 13.3588C36.2988 12.4507 36.1836 11.5435 36.108 10.6363C36.0963 10.4954 36.0411 10.3559 35.9915 10.2207C35.8072 9.72167 35.4673 9.40043 34.9308 9.30436C34.6539 9.25437 34.3788 9.19438 34.1049 9.13656C34.0566 9.12657 33.9745 9.11048 33.9701 9.08788C33.9414 8.89226 33.9001 8.69143 33.9223 8.49885C33.9319 8.41887 34.0771 8.31411 34.177 8.2915C34.9227 8.12168 35.6708 7.96229 36.4214 7.81333C37.9503 7.50904 39.4813 7.21344 41.0115 6.91393C41.0397 6.90871 41.068 6.90089 41.0984 6.89741C41.3918 6.85959 41.4062 6.87046 41.3975 7.16997C41.3685 8.18428 41.3372 9.19728 41.3036 10.209C41.3014 10.2764 41.3036 10.3442 41.3036 10.412L41.3505 10.4224Z" fill="#A4B0BC"></path></svg>