<svg class="Icon Icon--twitter" role="presentation" viewbox="0 0 32 26">
<path d="M32 3.077c-1.1748.525-2.4433.8748-3.768 1.031 1.356-.8123 2.3932-2.0995 2.887-3.6305-1.2686.7498-2.6746 1.2997-4.168 1.5934C25.751.796 24.045.0025 22.158.0025c-3.6242 0-6.561 2.937-6.561 6.5612 0 .5124.0562 1.0123.1686 1.4935C10.3104 7.7822 5.474 5.1702 2.237 1.196c-.5624.9687-.8873 2.0997-.8873 3.2994 0 2.2746 1.156 4.2867 2.9182 5.4615-1.075-.0314-2.0872-.3313-2.9745-.8187v.0812c0 3.1806 2.262 5.8363 5.2677 6.4362-.55.15-1.131.2312-1.731.2312-.4248 0-.831-.0438-1.2372-.1188.8374 2.6057 3.262 4.5054 6.13 4.5616-2.2495 1.7622-5.074 2.812-8.1546 2.812-.531 0-1.0498-.0313-1.5684-.0938 2.912 1.8684 6.3613 2.9494 10.0668 2.9494 12.0726 0 18.6776-10.0043 18.6776-18.6776 0-.2874-.0063-.5686-.0188-.8498C30.0066 5.5514 31.119 4.3954 32 3.077z"></path>
</svg>