<svg aria-labelledby="pi-freecharge" height="24" role="img" viewbox="0 0 38 24" width="38" xmlns="http://www.w3.org/2000/svg"><title id="pi-freecharge">Freecharge</title><g fill="none" fill-rule="evenodd"><path d="M34.5 24h-31C1.6 24 0 22.4 0 20.5v-17C0 1.6 1.6 0 3.5 0h31C36.4 0 38 1.6 38 3.5v17c0 1.9-1.6 3.5-3.5 3.5z" fill="#EDEDED"></path><path d="M3.5 1C2.1 1 1 2.1 1 3.5v17C1 21.9 2.1 23 3.5 23h31c1.4 0 2.5-1.1 2.5-2.5v-17C37 2.1 35.9 1 34.5 1h-31z" fill="#fff"></path><circle cx="19" cy="12" fill="#E2704D" r="9"></circle><path d="M16.6 11.7l.1-1.4s.7.1.9-.1c.4-.3.4-.9.5-1.2.3-1.4 2-2.2 3.8-1.7l-.2 1.4s-.1-.1-.4-.1c-1.1-.1-1.6.2-1.7 1.7h1.5l-.2 1-2.4 2.4h1.4c-1.2 1.3-2.8 2.9-3.8 3.8l1.3-2.6h-1.1c1-1.9 1-2 1.7-3.3" fill="#fff"></path></g></svg>