<svg color="var(--green)" height="140" name="find" version="1.1" viewbox="0 0 140 141" width="140" xmlns="http://www.w3.org/2000/svg" xmlns:xlink="http://www.w3.org/1999/xlink"><title>encuentra_icon</title><desc>Created with Sketch.</desc><defs><polygon id="path-1" points="0 0.0833935747 139.947345 0.0833935747 139.947345 140.957252 0 140.957252"></polygon></defs><g fill="none" fill-rule="evenodd" id="Page-1" stroke="none" stroke-width="1"><g id="home_grin" transform="translate(-41.000000, -1116.000000)"><g id="seccion-1" transform="translate(41.000000, 803.000000)"><g id="encuentra" transform="translate(0.000000, 313.000000)"><g id="encuentra_icon"><g id="Group-3" transform="translate(0.000000, 0.064206)"><mask fill="white" id="mask-2"><use xlink:href="#path-1"></use></mask><g id="Clip-2"></g><path d="M137.475489,135.771204 C137.472094,135.915999 137.258961,136.137693 136.91904,136.350236 C135.298252,137.36321 130.446222,138.581051 116.537502,138.632563 C107.013956,138.664888 96.2696164,138.150504 89.1640411,137.808517 C85.3902235,137.626822 82.6639178,137.495311 81.292278,137.495311 L37.8833394,137.495311 C38.4363938,120.642429 39.847295,110.091887 42.0775196,106.136375 C43.4915204,103.629992 45.5100877,101.666037 47.9147746,100.457347 C48.6549849,100.085101 50.3114912,99.7023764 52.0785494,99.2986925 L52.4872517,101.337776 C52.6910863,102.355178 53.2810405,103.233246 54.1484812,103.811244 C54.7979179,104.24371 55.5425561,104.467913 56.3026923,104.467913 C56.5578914,104.467913 56.8151568,104.442674 57.0709463,104.391457 L88.6943803,98.0563496 C89.7113391,97.8522198 90.5899974,97.2622656 91.1677008,96.3949725 C91.7455519,95.5275317 91.9516004,94.4897614 91.7480611,93.4728026 L80.0973145,35.317666 C79.8937751,34.3007071 79.303821,33.4224916 78.4363802,32.844493 C77.890263,32.4811036 77.2765453,32.2647231 76.6436397,32.2049454 L77.1587611,24.6788598 L97.0310809,16.8856196 C104.376062,18.8120849 112.35203,21.2077683 114.195693,22.2158712 C114.100048,23.6126029 114.018426,27.7954179 114.092816,41.5524058 C114.116432,45.9093879 114.15097,50.2591378 114.181375,53.6773887 C113.992006,53.5457302 113.799093,53.4179092 113.598949,53.2985015 C111.352046,51.9575623 108.726107,51.5696715 106.205407,52.206267 L100.281512,53.7026282 L97.7611068,43.7227051 C97.1860602,41.4455439 98.5659655,39.1338445 100.843127,38.5586502 C103.119993,37.9836036 105.431987,39.3635089 106.006886,41.6403749 L107.341184,46.9232472 C107.483026,47.4850099 108.054974,47.8237502 108.615851,47.6786601 L109.011417,47.5765214 C109.567866,47.432317 109.903359,46.8662739 109.762697,46.3092343 L108.351058,40.719208 C107.438304,37.1043548 103.767953,34.9142772 100.1531,35.8271786 C96.5383947,36.7397847 94.3480218,40.4101352 95.2607756,44.0248408 L97.9082633,54.5079297 C93.8209449,56.4823648 91.534485,61.1276083 92.6881207,65.6969858 L93.2185924,67.7965851 C93.8550403,70.3175803 95.4433558,72.4444854 97.689964,73.785277 C99.2307525,74.7051155 100.949693,75.1761047 102.691217,75.1761047 C103.488843,75.1761047 104.29134,75.0773608 105.083505,74.8772162 L111.520161,73.2517057 C114.041009,72.6152577 116.167914,71.0272374 117.508705,68.7803341 C118.646548,66.8737946 119.095102,64.6943441 118.81673,62.5373287 L131.412259,68.9887442 C131.578604,69.0740566 131.760298,69.1164176 131.94214,69.1164176 C132.127525,69.1164176 132.313057,69.0719902 132.482206,68.9832831 C132.816666,68.80764 133.044854,68.4801172 133.09371,68.1053627 L135.384893,50.5392811 L137.158741,50.9826693 C137.141029,59.2054233 137.141029,66.8860454 137.14649,73.7228425 C137.152689,81.5972623 137.271211,89.5857764 137.386044,97.311859 C137.572904,109.910783 137.766259,122.939221 137.475489,135.771204 Z M13.5718246,137.495311 C17.9177368,124.072045 21.9283036,107.26979 25.1729778,93.6733899 L25.7071395,91.4347522 C27.1661581,85.3232577 28.67477,79.0039436 31.640334,74.0410665 C33.2073952,71.419261 35.0138624,69.4567815 37.1634979,68.0420427 C39.4616181,66.5294456 42.0967075,65.6754363 45.2033765,65.4360304 L47.1564097,74.1502899 C46.4184135,74.6878464 45.538722,75.4180198 45.0568104,75.86436 C43.3969093,77.4013109 42.2023886,79.1930182 41.6925808,80.9095974 C41.0131814,83.1994522 41.5057201,85.3406744 43.1172087,87.1016811 C45.5009365,89.7072506 49.3134251,90.4465752 54.5170366,89.199214 C58.7088552,88.1035848 60.5749525,89.4256312 60.5749525,89.4256312 C60.872365,89.6679892 61.1303684,89.9655493 61.3533909,90.321411 C62.2224553,91.7097296 61.9243048,92.4288331 61.8261513,92.6651395 C60.8993756,94.8983161 55.3369504,96.1706216 51.6559728,97.0122325 C49.5442703,97.4953249 47.8763988,97.8764261 46.8713956,98.3816583 C44.0531355,99.7983159 41.6961232,102.085514 40.0542291,104.995433 C37.6011296,109.345773 36.1304507,119.978823 35.5589464,137.495311 L13.5718246,137.495311 Z M2.95102555,137.495311 C2.94320279,122.691254 2.78733798,107.656943 2.63604876,93.1055756 C2.53627167,83.4608504 2.43590418,73.7088206 2.37642168,63.9045406 L17.1053506,62.7416061 C17.7007659,62.6945219 18.163342,62.2036068 18.1750023,61.6064203 L18.9726286,20.5333874 L46.6005509,20.9119794 L46.6005509,38.0568128 L43.890186,38.5995352 C41.7851255,39.0215215 40.4154045,41.077579 40.8368003,43.1829346 L43.9845019,58.8957601 C40.5287607,59.6030557 36.4672722,60.5937419 33.6233299,63.474584 C32.5827552,64.5287378 31.8029884,65.7461364 31.1774628,66.7979286 C30.3202064,68.2392353 29.5147573,70.8797858 28.8042145,73.2093447 C28.4428915,74.3938287 28.1014945,75.5124834 27.8191371,76.2507748 L27.8833428,76.2752763 C27.17649,77.862411 26.5192306,79.6272552 25.8991661,81.5990335 C24.933867,84.6701311 24.1784541,87.8348065 23.4476902,90.8955721 L22.9135285,93.1342099 C19.6199989,106.935035 15.5350422,124.047396 11.1278762,137.495311 L2.95102555,137.495311 Z M44.8340831,63.1358437 C39.9757063,63.5495644 36.0119285,65.3614927 32.8386923,68.6343584 C32.9517533,68.3891961 33.0639288,68.1706016 33.1737426,67.9853646 C33.7279778,67.0537181 34.4112147,65.9831808 35.2764415,65.1067364 C37.6408338,62.7114959 41.2990812,61.8176348 44.4408788,61.1733641 L44.8340831,63.1358437 Z M49.7047107,87.4478013 C47.5785436,87.3914184 45.9466863,86.7531992 44.8309836,85.5337343 C41.9378907,82.3721584 45.4804203,78.6378974 46.6350892,77.5686885 C46.8734619,77.3483228 47.2107262,77.0603567 47.5659976,76.7716525 L49.7047107,87.4478013 Z M61.0298533,86.9652994 C59.4762237,86.1881893 57.724811,86.218152 56.3307361,86.4270049 L48.1070965,45.3772927 L74.2336392,40.1429806 L82.7424406,82.6156971 L61.0298533,86.9652994 Z M63.3222173,89.0883669 C63.2810371,89.0231281 63.2380857,88.9632028 63.1960199,88.9006207 L85.4762739,84.4372195 L76.0550139,37.4089997 L45.3731156,43.5557703 L54.0603645,86.9202816 C53.3558733,87.0873639 52.6840015,87.2153325 52.0448968,87.303892 L49.6430142,75.3147004 L49.7799863,75.233078 L48.3376465,68.7981936 L43.1144043,42.726853 C42.9442224,41.8774193 43.4974244,41.0474687 44.3465628,40.8771392 L75.970292,34.5418843 C76.0724306,34.521368 76.1753073,34.5116265 76.277446,34.5116265 C76.583862,34.5116265 76.8851121,34.6024 77.1485767,34.7776003 C77.4994202,35.0115451 77.7377929,35.3656357 77.8198581,35.7740428 L89.4704571,93.9288842 C89.640639,94.7784655 89.0878799,95.6082685 88.2378558,95.7787456 L56.6145695,102.113853 C56.2057196,102.19518 55.7874233,102.111787 55.4364323,101.878285 C55.0851461,101.644192 54.8470685,101.290249 54.7650033,100.881694 L54.3421315,98.7701396 C58.4620692,97.7688263 62.7957307,96.3893637 63.9715063,93.5554581 C64.5393207,92.1869179 64.3210214,90.6839148 63.3222173,89.0883669 Z M115.513901,67.5902414 C114.491186,69.3041638 112.870547,70.5147729 110.951461,70.9994888 L104.514806,72.6248517 C100.533316,73.629855 96.4762554,71.2090797 95.4709569,67.2277376 L94.9403376,65.1281383 C93.9350391,61.1466486 96.3564048,57.0895881 100.337452,56.0842897 L106.774255,54.4586315 C107.37646,54.3064567 107.986487,54.2314763 108.593268,54.2314763 C109.920776,54.2314763 111.23249,54.5914709 112.408709,55.2931577 C114.122631,56.3160205 115.33324,57.9365126 115.818104,59.8557456 L116.348575,61.9556401 C116.832996,63.8751683 116.536764,65.8760237 115.513901,67.5902414 Z M2.92785247,2.8006662 C3.46718012,2.7217006 4.61978264,2.63727383 7.03332553,2.69985591 C9.30399235,2.75830521 11.8810752,2.92435437 13.5867321,3.03431581 C14.7670833,3.11018182 15.3973321,3.14973842 15.688693,3.14973842 L15.6900214,3.14973842 C35.9986446,3.13999687 56.6470413,3.14914802 76.6158911,3.15697078 C90.4918439,3.16272715 104.36824,3.16863112 118.241978,3.16863112 L118.264266,3.16863112 C119.263956,3.16863112 120.722974,3.035349 122.410772,2.88140298 C125.169992,2.62945107 128.604184,2.31595027 131.499343,2.45159398 C135.440981,2.63565024 136.506352,3.58235181 136.790628,4.13024022 C137.475931,5.45095828 137.45571,7.16724233 137.437703,8.681463 C137.273278,22.4635427 137.197116,36.1042223 137.164645,48.5896427 L134.683206,47.969283 C134.36203,47.8886938 134.021519,47.9495047 133.747574,48.1363654 C133.473925,48.3227832 133.292821,48.6173913 133.24987,48.9459473 L131.003704,66.1693034 L118.145153,59.583425 L118.07032,59.2871933 C117.764495,58.0758463 117.237123,56.9571916 116.524514,55.9712286 C116.387246,41.8171988 116.295587,23.671495 116.532041,22.1098949 C116.61942,21.7847338 116.577059,21.4406799 116.410124,21.1326403 C116.101937,20.5645308 115.399955,20.0654977 112.577119,19.0562141 C110.996184,18.4913518 108.855552,17.8103288 106.215001,17.0326284 C101.737726,15.7144195 97.2964644,14.5542895 97.2524798,14.5426291 C97.0146974,14.4806374 96.7634835,14.495545 96.5349999,14.5852853 L75.6262381,22.7845711 C75.2085322,22.9485538 74.9221897,23.3388063 74.8914891,23.7866224 L74.2943025,32.5085571 L48.9234679,37.59158 L48.9234679,19.7661665 C48.9234679,19.1308993 48.4132173,18.613564 47.7776549,18.604708 L17.8496936,18.1946773 L17.8337528,18.1946773 C17.2020281,18.1946773 16.6848403,18.7003523 16.6725896,19.3337007 L15.873192,60.5088723 L2.36343295,61.5754244 C2.25922788,42.0362361 2.3334703,22.3054639 2.92785247,2.8006662 Z M139.708665,97.2773208 C139.594276,89.5596513 139.475754,81.5791076 139.469555,73.7210713 C139.455533,55.977723 139.476492,32.5534273 139.760177,8.70921166 C139.780694,7.01078713 139.806081,4.8971659 138.85259,3.05999807 C136.864723,-0.770940388 128.733333,-0.0285161746 122.199262,0.567784784 C120.568143,0.716712425 119.157979,0.845714167 118.262937,0.845714167 L118.244488,0.845714167 C104.368535,0.845714167 90.4925819,0.839957796 76.6166291,0.834053826 C56.6477793,0.826231066 35.9986446,0.817375111 15.6891358,0.826821463 L15.6883978,0.826821463 C15.4584382,0.826821463 14.6602214,0.775604524 13.7358073,0.716122028 C2.79634154,0.0113356222 1.38883512,0.391994081 0.785892192,1.4279932 L0.638292945,1.6823067 L0.629141791,1.9758816 C-0.31755978,32.3416223 0.00332098306,63.2441815 0.313427002,93.1297819 C0.468258612,108.055903 0.628403795,123.489766 0.628403795,138.65677 L0.628403795,139.818376 L81.292278,139.818671 C82.6081253,139.818671 85.4517724,139.955348 89.052456,140.128777 C95.9488833,140.460875 106.256329,140.957252 115.602904,140.957252 C115.918471,140.957252 116.233153,140.956366 116.546358,140.95548 C128.314594,140.912086 135.381498,140.049811 138.150165,138.320391 C139.483872,137.487046 139.782465,136.503002 139.797815,135.824045 C140.089914,122.948077 139.895821,109.897794 139.708665,97.2773208 Z" fill="var(--green)" id="Fill-1" mask="url(#mask-2)"></path></g><path d="M69.8271522,90.9808107 C69.9670763,90.9527668 70.1065576,90.9394829 70.2438249,90.9394829 C71.2321495,90.9394829 72.1186306,91.6362989 72.3201035,92.641745 C72.4312458,93.1965706 72.3195131,93.7612853 72.0058647,94.2319793 C71.6923639,94.7026733 71.2139948,95.0234065 70.6591692,95.1345487 C69.5132086,95.3633275 68.3957347,94.6185417 68.1665131,93.4734668 C67.9369963,92.3285394 68.6820773,91.2103275 69.8271522,90.9808107 M70.2417585,97.4990886 C70.5297247,97.4990886 70.8225616,97.4707496 71.1156937,97.4120051 C72.2789233,97.1790935 73.281565,96.5070741 73.9391197,95.5197827 C74.5966743,94.5324914 74.8307667,93.3485978 74.5977075,92.1855157 C74.1166816,89.7845188 71.7736911,88.2224759 69.3706278,88.7032067 C66.969926,89.1843802 65.4077356,91.5286991 65.8886139,93.9299912 C66.3111906,96.0381513 68.1696127,97.4990886 70.2417585,97.4990886" fill="var(--green)" id="Fill-4"></path><path d="M65.0385603,61.865206 C63.0257494,62.1823968 61.1369218,60.807805 60.8198787,58.7954369 C60.5025403,56.7824784 61.8772797,54.8937984 63.8896478,54.5767552 C65.9024587,54.2595644 67.7911387,55.6337134 68.1081819,57.6465244 C68.4255203,59.6593353 67.0512237,61.5481629 65.0385603,61.865206 M61.8594202,50.4467807 C59.1266201,51.2665469 57.7601463,51.9044708 56.7582426,58.1899848 C55.7558961,64.4756463 67.4165318,74.1317367 67.4165318,74.1317367 C67.4165318,74.1317367 73.0642694,62.5627601 71.1512356,54.8194084 C70.3072631,51.4021906 64.5923678,49.6268669 61.8594202,50.4467807" fill="var(--green)" id="Fill-6"></path><path d="M107.252166,60.1806411 C106.928039,58.8969704 105.624442,58.1191224 104.340624,58.4432503 C103.056805,58.7675259 102.279105,60.0711224 102.603233,61.3549407 C102.835554,62.2747792 103.401892,62.9776468 104.272285,63.1586035 L105.020761,68.792024 L108.402112,67.9383099 L106.549594,62.6331502 C107.289804,62.0685831 107.494672,61.1406266 107.252166,60.1806411" fill="var(--green)" id="Fill-8"></path><path d="M89.5092019,30.1831752 C88.8758535,30.0888593 88.2833902,30.5254579 88.1884838,31.159987 L86.7188381,40.9830121 C86.6239318,41.6172461 87.0612684,42.2086763 87.6955024,42.3035826 C87.7536565,42.3119958 87.8118106,42.3165713 87.8687839,42.3165713 C88.4343842,42.3165713 88.9298749,41.9028507 89.0162204,41.3266232 L90.4858661,31.5038933 C90.5812152,30.8695117 90.1435835,30.2782291 89.5092019,30.1831752" fill="var(--green)" id="Fill-10"></path><path d="M60.2831045,27.4582865 C60.3943943,27.4582865 60.5074553,27.4420506 60.6194832,27.4083979 C61.2333484,27.2224229 61.5807971,26.5746098 61.3952648,25.9603017 C60.2150612,22.0567444 59.5400899,18.0106063 59.388653,13.9343579 C59.3648896,13.2934819 58.8285139,12.7934157 58.1848336,12.8170316 C57.5439576,12.8409426 57.0435962,13.3798275 57.0675073,14.0209986 C57.2258813,18.2954728 57.9337673,22.5385084 59.1713869,26.6326163 C59.3234142,27.1347489 59.784219,27.4582865 60.2831045,27.4582865" fill="var(--green)" id="Fill-12"></path><path d="M35.1605613,54.3222203 C35.389045,54.5651687 35.6975274,54.6878237 36.0066002,54.6878237 C36.2920572,54.6878237 36.5782521,54.5828806 36.8023077,54.3716661 C37.2693118,53.9322631 37.2917469,53.1972189 36.8521963,52.7300672 C34.4414578,50.1693679 32.4408976,47.296201 30.9064558,44.1914508 C30.6224749,43.6164041 29.9256588,43.3803929 29.3507598,43.6649643 C28.7754179,43.9492404 28.5397019,44.6457613 28.823978,45.2208079 C30.4607061,48.5320494 32.5923344,51.5938482 35.1605613,54.3222203" fill="var(--green)" id="Fill-14"></path><path d="M120.577176,93.0337981 C115.602491,92.1452507 110.746918,90.6375244 106.144774,88.5517994 C105.560576,88.2874491 104.872173,88.5464858 104.607527,89.1306836 C104.342734,89.7147339 104.601623,90.4031367 105.185821,90.6679298 C109.963609,92.8326204 115.004714,94.3982056 120.168621,95.3207009 C120.23755,95.332804 120.306626,95.338708 120.374227,95.338708 C120.926248,95.338708 121.415835,94.94388 121.516202,94.3815269 C121.628968,93.7499497 121.208753,93.146564 120.577176,93.0337981" fill="var(--green)" id="Fill-16"></path><path d="M98.4911327,105.247134 C98.0269331,104.805074 97.291446,104.822786 96.8490911,105.287576 C96.4068837,105.752219 96.4250384,106.48741 96.8899761,106.929765 C99.2754751,109.200137 101.485774,111.688218 103.458585,114.325078 C103.686626,114.629723 104.035846,114.790606 104.389494,114.790606 C104.631704,114.790606 104.875538,114.715183 105.084243,114.559023 C105.598036,114.174674 105.70298,113.447158 105.318631,112.933365 C103.267887,110.192742 100.970948,107.606803 98.4911327,105.247134" fill="var(--green)" id="Fill-18"></path><path d="M81.0734031,111.925557 C80.9886811,111.289552 80.4034501,110.841736 79.7683305,110.928081 C79.1326206,111.012803 78.6861329,111.597296 78.7708548,112.233006 L79.609809,118.515864 C79.6874462,119.099766 80.1864792,119.524114 80.7594595,119.524114 C80.8106764,119.524114 80.8626314,119.520572 80.9148815,119.513487 C81.5502963,119.428617 81.9970792,118.844567 81.9119144,118.208857 L81.0734031,111.925557 Z" fill="var(--green)" id="Fill-20"></path><path d="M63.1988686,112.650801 C62.6133424,112.389107 61.9262679,112.650801 61.663984,113.235884 C60.4916032,115.854442 59.5736835,118.600674 58.9366451,121.398123 C58.7940642,122.023648 59.185645,122.645927 59.8111706,122.78895 C59.8978114,122.808286 59.9845998,122.81788 60.0700597,122.81788 C60.5997934,122.81788 61.078753,122.452719 61.2015556,121.913982 C61.8047937,119.265166 62.6737104,116.664762 63.7840996,114.185685 C64.0463834,113.600307 63.7843948,112.913232 63.1988686,112.650801" fill="var(--green)" id="Fill-22"></path></g></g></g></g></g></svg>