<svg color="var(--green)" height="140" name="unlock" version="1.1" viewbox="0 0 140 141" width="140" xmlns="http://www.w3.org/2000/svg" xmlns:xlink="http://www.w3.org/1999/xlink"><title>desboquea_icon</title><desc>Created with Sketch.</desc><defs><polygon id="path-1" points="0 0.0837934668 139.87549 0.0837934668 139.87549 140.885142 0 140.885142"></polygon></defs><g fill="none" fill-rule="evenodd" id="Page-1" stroke="none" stroke-width="1"><g id="home_grin" transform="translate(-41.000000, -1318.000000)"><g id="seccion-1" transform="translate(41.000000, 803.000000)"><g id="desbloquea" transform="translate(0.000000, 515.000000)"><g id="desboquea_icon"><g id="Group-3" transform="translate(0.000000, 0.063730)"><mask fill="white" id="mask-2"><use xlink:href="#path-1"></use></mask><g id="Clip-2"></g><path d="M137.405146,135.702059 C137.401753,135.846927 137.188729,136.068508 136.849277,136.280499 L136.848982,136.280499 C135.228877,137.292955 130.37933,138.510468 116.477876,138.561659 C106.955368,138.597802 96.2203625,138.080289 89.1184236,137.738181 C85.3465374,137.556432 82.6214795,137.425431 81.2506891,137.425431 L29.396843,137.425431 C30.9204679,136.772491 32.2821117,135.827749 33.3578546,134.640183 C34.5734499,133.29875 35.4584447,131.553545 35.9887924,129.45325 C36.204177,128.59894 36.3096565,127.871796 36.3198356,127.179762 L38.0911528,127.179762 C38.7324384,127.179762 39.2521644,126.660036 39.2521644,126.018898 C39.2521644,125.975526 39.2506891,125.932596 39.2503941,125.889224 C39.8148198,126.590405 40.307254,127.23346 40.7122065,128.035252 L40.7841981,128.177612 C41.3082023,129.217507 41.9024278,130.396664 42.9342086,131.286674 C43.9077176,132.125937 45.1935342,132.336896 46.4697619,132.336601 C47.1640084,132.336601 47.8557471,132.274493 48.4920169,132.216664 C48.9629125,132.174325 49.4081391,132.134493 49.7753256,132.127707 L67.1006575,131.810089 C69.3369694,131.769077 71.6016059,131.706969 73.8091507,131.644862 C73.9485606,132.204567 74.2470011,132.731669 74.6841138,133.177191 C75.447254,133.955673 76.5569273,134.420078 77.6528809,134.420078 L77.6543562,134.420078 C78.7284763,134.419635 79.716,134.065283 80.6060105,133.587602 C80.6592666,133.678771 80.717686,133.768318 80.7806786,133.854767 C81.2824067,134.54385 82.0271064,134.997781 82.8246196,135.099572 C83.623313,135.200921 84.4569694,134.949688 85.1158103,134.408866 C85.1641981,134.36874 85.2109631,134.327876 85.256843,134.285831 C85.8880969,134.755252 86.681627,135.053987 87.5596881,135.127307 C87.6983604,135.139109 87.8355574,135.144862 87.9714268,135.144862 C88.9973066,135.144862 89.9385079,134.81913 90.6520801,134.235968 C91.1465796,134.490742 91.7086449,134.638856 92.3077387,134.666885 C93.6587608,134.729435 95.0713003,134.202481 96.0870011,133.256411 C96.6490664,132.733292 97.0892771,132.142312 97.4589715,131.516074 C99.8549041,131.443787 102.609614,131.278856 104.677749,131.087222 C105.083292,132.333798 105.69109,133.487581 106.489488,134.475694 C108.327338,136.7511 111.123355,138.05462 114.363271,138.146527 C114.486158,138.149772 114.608013,138.151543 114.730605,138.151543 C118.222491,138.151543 121.57305,136.740036 123.752565,134.335252 C124.96757,132.994261 125.852565,131.248761 126.382765,129.147876 C126.598445,128.294008 126.703924,127.567012 126.714398,126.874978 L128.48542,126.874978 C129.126706,126.874978 129.646285,126.354957 129.646285,125.713966 C129.646285,117.641764 123.079119,111.074599 115.007212,111.074599 C112.997201,111.074599 111.080721,111.481911 109.335663,112.218055 C110.091279,110.528908 110.397834,108.726759 109.791364,106.83875 C109.278866,105.242396 108.220089,104.042733 107.196126,102.882607 C106.641585,102.254156 106.108287,101.648571 105.690795,101.012449 L107.39071,101.012449 C108.032143,101.012449 108.551722,100.49287 108.551722,99.8514373 L108.551722,74.7551465 L137.079119,74.7551465 C137.094462,82.2788556 137.206137,89.8897513 137.315747,97.2623962 C137.502512,109.85502 137.695768,122.876348 137.405146,135.702059 Z M24.0349463,136.130763 C21.4841138,136.058181 19.3056312,135.060921 17.9015005,133.322059 C16.6083077,131.720984 15.9415005,129.465347 16.0310474,127.179762 L17.6589715,127.179762 L17.6589715,124.858181 L12.3495933,124.858181 C12.9365901,118.608339 18.2124805,113.701553 24.6129442,113.701553 C31.0135553,113.701553 36.2895933,118.608339 36.876,124.858181 L32.4327334,124.858181 C31.8696354,121.047644 28.5774963,118.113987 24.6129442,118.113987 L24.6129442,120.435715 C27.6913214,120.435715 30.1958314,122.940521 30.1958314,126.018898 C30.1958314,126.660036 30.7158525,127.179762 31.3566955,127.179762 L33.9981075,127.179762 C33.9871907,127.678982 33.9042824,128.224967 33.7375806,128.884988 C33.301353,130.612639 32.594862,132.024736 31.6374331,133.081595 C29.8585922,135.044841 26.9442613,136.213229 24.0349463,136.130763 Z M87.6566112,98.6905732 L87.6566112,93.5011317 C87.6566112,92.8598462 87.1370327,92.3401201 86.4958946,92.3401201 L65.3280126,92.3401201 L65.3280126,74.7551465 L106.229846,74.7551465 L106.229846,98.6905732 L87.6566112,98.6905732 Z M42.5980021,125.626042 C43.5446617,125.545494 44.5321855,125.481469 45.6164847,125.430573 C47.6570327,125.335125 49.7486238,125.302818 51.716,125.278329 L80.6865585,124.916453 C79.9560211,125.56836 79.1565901,126.100626 78.3027229,126.488761 C78.1329231,126.565916 77.9572223,126.643071 77.7787187,126.721701 C76.5085395,127.279783 74.8862213,127.992913 74.1347355,129.312807 C71.8107945,129.378308 69.414862,129.445283 67.0583182,129.488655 L49.7326913,129.806126 C49.2821538,129.814388 48.7969484,129.858055 48.2835659,129.904525 C46.9136607,130.02815 45.2082866,130.181722 44.4504573,129.528487 C43.7680126,128.93972 43.3258841,128.062101 42.8573488,127.132849 L42.7846196,126.988276 C42.5451886,126.51443 42.2879073,126.092955 42.0167587,125.698329 C42.2229968,125.667644 42.4183182,125.640942 42.5980021,125.626042 Z M32.137686,111.131248 L45.0995616,123.131416 C44.143608,123.180247 43.257138,123.239551 42.4012055,123.312428 C42.0782761,123.340015 41.751216,123.389878 41.4346301,123.438708 C40.8974963,123.520731 40.3428072,123.606 39.934314,123.553334 C39.6246617,123.513503 39.3204679,123.602459 39.081627,123.785241 C38.38502,119.252133 35.600215,115.398223 31.7439452,113.238181 L32.137686,111.131248 Z M34.9103941,92.3619536 L35.7660316,92.5645037 L33.4687924,105.199024 C33.3965058,105.598518 33.5378335,106.007012 33.8417323,106.275947 L47.5282445,118.388529 L47.5820906,122.265452 L32.1714689,107.998582 C31.9532813,107.796769 31.6706259,107.689519 31.3823646,107.689519 C31.26051,107.689519 31.1373277,107.708698 31.017686,107.748381 C30.6164215,107.881448 30.3191612,108.221933 30.2417113,108.637359 L29.5676754,112.243724 C28.0194141,111.685052 26.3513635,111.379825 24.6129442,111.379825 C24.4897619,111.379825 24.3665796,111.381448 24.2439874,111.384693 L29.2637766,92.3619536 L34.9103941,92.3619536 Z M34.3083498,90.040373 L32.7302887,90.040373 L34.8363372,75.7829442 L37.691216,75.7243772 L34.3083498,90.040373 Z M85.4294457,100.310089 C85.3679283,108.311037 85.1832287,115.528192 84.8257787,117.265136 C84.5360421,118.67325 84.0809315,119.988129 83.489804,121.172006 C82.6282655,121.170531 81.7569905,121.151796 80.8678651,121.130995 C78.9584658,121.085705 76.984451,121.039383 75.0238609,121.199446 L61.2454415,122.323429 C60.7025543,122.367981 60.1328177,122.446464 59.5297408,122.529519 C57.8311528,122.76305 55.9065585,123.028297 54.749235,122.435547 C54.34502,122.228571 54.2351149,122.058624 54.2067903,121.995336 C54.1569273,121.883956 54.1834816,121.700436 54.270373,121.559404 C54.4332392,121.294156 54.8387819,121.126864 55.3089399,120.93287 L55.3595406,120.911774 C55.7504784,120.768677 57.5186976,120.629267 58.2737239,120.569962 C58.7103941,120.535442 59.055157,120.508445 59.275705,120.48189 C59.8896986,120.407686 60.3377281,119.865831 60.2949463,119.248887 C60.2523119,118.632386 59.7314057,118.155294 59.1150516,118.168571 C58.970921,118.171374 58.7918272,118.177865 58.5863267,118.185389 C57.8194984,118.212681 56.6609947,118.25502 55.6315743,118.14541 C54.4574331,118.020605 54.0844932,117.766421 53.9905205,117.682038 C54.5235237,117.167623 57.1311528,116.570299 58.9288767,116.570299 C59.5701623,116.570299 60.0897408,116.050721 60.0897408,115.409435 C60.0897408,114.76815 59.5701623,114.248571 58.9288767,114.248571 C56.3694879,114.248571 53.9927334,113.83757 53.5311317,113.46463 C53.4281602,113.296453 53.3968851,113.044925 53.4496986,112.798561 C53.5095933,112.521216 53.7465163,112.302438 54.154862,112.148424 C54.7691507,112.040879 58.3125227,111.871817 58.7934499,111.884504 C58.8028915,111.884799 58.8120379,111.884799 58.8211844,111.884799 C59.4359157,111.884799 59.9463477,111.404166 59.9799831,110.787075 C60.0142086,110.160984 59.5447882,109.620752 58.9198778,109.567054 C58.5798356,109.538139 58.0919747,109.54522 57.4747355,109.553777 C56.6050832,109.565726 54.2958946,109.599361 53.80051,109.303576 C53.7624489,109.277465 53.647823,109.19913 53.6594773,108.953945 C53.6706891,108.719973 53.7984447,108.484377 53.9630811,108.393208 C54.4338293,108.132533 55.1310263,108.120879 55.8690875,108.108487 C56.1543983,108.103766 56.4492982,108.099045 56.7412476,108.078392 C58.2116164,107.976158 59.7349463,108.001975 61.2082655,108.026906 C61.6129231,108.03384 62.0172856,108.040183 62.4217956,108.044904 C66.2223014,108.085031 70.5755785,107.917296 74.1019852,105.37797 C76.0885395,103.947433 77.4975385,100.349625 78.3061159,94.6621433 L85.3350306,94.6621433 L85.3350306,99.8514373 C85.3350306,100.014303 85.3691085,100.169351 85.4294457,100.310089 Z M64.1671486,94.6621433 L75.9566533,94.6621433 C75.2557682,99.3567903 74.1307524,102.496242 72.7450622,103.494093 C69.7898672,105.62227 66.0373066,105.760499 62.4470221,105.723323 C62.0472329,105.71875 61.6477387,105.711964 61.2479494,105.705178 C59.7247671,105.679656 58.1500991,105.652955 56.5800042,105.762417 C56.3492771,105.778055 56.0974542,105.782628 55.8302887,105.787054 C54.886137,105.802839 53.8158525,105.820837 52.8385079,106.361806 C51.9641349,106.845831 51.3902677,107.796327 51.3404046,108.84345 C51.3045564,109.596116 51.5441349,110.282396 52.0103098,110.801237 C51.5889821,111.216516 51.3049989,111.727686 51.1798988,112.311585 C50.9876754,113.207644 51.1570327,114.122291 51.6453361,114.821553 C51.890078,115.17207 52.2625753,115.459741 52.7908577,115.695336 C52.167275,116.123155 51.7331128,116.677697 51.6609737,117.395694 C51.5897197,118.103956 51.8040717,118.747012 52.2807208,119.255378 C52.4391612,119.424145 52.6212055,119.571374 52.8231654,119.700015 C52.6290242,119.878518 52.4483077,120.089477 52.2923751,120.343513 C51.8037766,121.138076 51.725589,122.134746 52.0882023,122.944356 C52.089235,122.947012 52.0904152,122.949372 52.0918904,122.95188 L51.6870854,122.957043 C51.1058419,122.964124 50.5130917,122.972386 49.9141454,122.982122 L49.8424489,117.842986 C49.8381707,117.516221 49.6961054,117.206421 49.451216,116.989709 L35.8701834,104.9711 L38.3361897,91.4086554 C38.3975595,91.0703836 38.3056523,90.72149 38.0851043,90.4575701 C37.8645564,90.1930601 37.5380864,90.040373 37.1939136,90.040373 L36.6941033,90.040373 L40.295157,74.7996986 C40.2985501,74.7849463 40.3004679,74.7701939 40.3031233,74.7551465 L63.0059895,74.7551465 L63.0059895,93.5011317 C63.0059895,94.1424173 63.5260105,94.6621433 64.1671486,94.6621433 Z M103.521901,116.465262 C103.349446,116.667222 103.179056,116.86756 103.011469,117.065389 C100.412101,120.138898 98.3239031,123.58815 96.8051465,127.316664 C96.7256312,127.511985 96.6471486,127.709519 96.5682234,127.907201 C96.0042403,129.321364 95.4715321,130.657338 94.5049568,131.557528 C93.9533656,132.07091 93.1316586,132.37894 92.4155785,132.347517 C92.2856101,132.341321 92.1643456,132.323619 92.0507524,132.296179 L93.2747566,129.332575 L91.1287292,128.446105 L89.7567587,131.767749 C89.6483288,131.855968 89.5547987,131.963366 89.4826596,132.087876 C89.1288978,132.700837 88.3300569,132.862375 87.7533867,132.81384 C87.279098,132.774303 86.6808894,132.569393 86.345568,132.12933 L87.4211633,129.146548 L85.2369273,128.359214 L83.9882866,131.822038 L83.9890242,131.822333 C83.953176,131.921764 83.9298672,132.026948 83.9223435,132.136558 C83.9112792,132.300752 83.8063899,132.479551 83.6420485,132.614388 C83.4778546,132.749372 83.2825332,132.81738 83.1186344,132.79658 C82.9554731,132.775631 82.7830179,132.660563 82.6582129,132.48855 C82.5331128,132.316685 82.4764636,132.117675 82.5068535,131.955547 C82.5133446,131.921174 82.5149673,131.886211 82.5185079,131.85169 L84.2072118,129.247897 L82.2597513,127.984651 L80.2339557,131.107286 C79.4017745,131.652681 78.5276965,132.097907 77.6533235,132.09835 L77.6528809,132.09835 C77.1821328,132.09835 76.6675701,131.883408 76.3419852,131.551627 C76.2012476,131.408234 76.0348409,131.178392 76.0402993,130.898392 C76.0563793,130.079045 77.208392,129.507981 78.7126913,128.847222 C78.9004889,128.764462 79.0851886,128.683176 79.2633973,128.602333 C83.1316164,126.844293 86.0611423,122.780752 87.0998567,117.733229 C87.4637977,115.964714 87.6666428,108.918392 87.7433551,101.012449 L103.059414,101.012449 C103.627675,102.345768 104.555895,103.399383 105.455494,104.418476 C106.36129,105.445389 107.216927,106.41462 107.580868,107.548634 C108.549804,110.566527 105.878592,113.700226 103.521901,116.465262 Z M101.529003,126.874978 L104.095178,126.874978 C104.072754,127.524082 104.101079,128.168613 104.176906,128.801638 C102.44011,128.95698 100.427296,129.0809 98.5693825,129.155694 C98.6217534,129.026021 98.6732392,128.8962 98.72502,128.766822 C98.8015848,128.574599 98.8781496,128.38267 98.9555996,128.19266 C99.3831233,127.143323 99.8594773,126.118329 100.381121,125.119003 C100.373302,125.316242 100.367992,125.514662 100.367992,125.713966 C100.367992,126.354957 100.887718,126.874978 101.529003,126.874978 Z M120.590394,125.713966 C120.590394,126.354957 121.109973,126.874978 121.750963,126.874978 L124.39267,126.874978 C124.381311,127.373608 124.29796,127.920036 124.131848,128.579762 C123.695768,130.30815 122.988982,131.719952 122.031701,132.776369 C120.252712,134.739614 117.339857,135.91287 114.429214,135.825389 C111.878234,135.752955 109.700194,134.755547 108.295621,133.017128 C107.002575,131.416053 106.336063,129.160563 106.425168,126.874978 L106.876295,126.874978 L106.876295,124.553102 L102.744156,124.553102 C103.33071,118.303113 108.606601,113.396474 115.007212,113.396474 C121.407823,113.396474 126.683713,118.303113 127.270268,124.553102 L122.826706,124.553102 C122.263756,120.742712 118.971469,117.809056 115.007212,117.809056 L115.007212,120.130784 C118.085589,120.130784 120.590394,122.635294 120.590394,125.713966 Z M108.006032,42.6123857 L108.003229,41.4498988 L117.595958,41.0287187 L117.645526,46.9351254 L107.937728,46.7805205 C108.036717,44.913313 108.017981,43.2203309 108.006032,42.6123857 Z M26.6413952,47.6197829 L20.4662002,47.77247 L20.7051886,42.3620379 L26.8606154,42.4971697 C26.8153256,42.9527229 26.7725437,43.407686 26.7350727,43.8619115 L26.7215005,44.0261054 C26.6439031,44.9611106 26.5344405,46.2874963 26.6413952,47.6197829 Z M2.94953003,137.425431 C2.94171128,122.62895 2.78592624,107.60189 2.63471444,93.0582655 C2.3277176,63.4596986 2.01024658,32.8592982 2.92636881,2.7997197 C3.46542044,2.72035195 4.61772813,2.63611591 7.02929821,2.69851844 C9.299098,2.7573804 11.8750095,2.92319705 13.5794984,3.03280717 C14.759393,3.10863435 15.3891718,3.1487608 15.6806786,3.1487608 L15.6821538,3.1487608 C19.6468535,3.14640042 23.6251254,3.14551528 27.6084131,3.14477766 L27.7128599,15.5997619 C27.7268746,17.2647144 27.7382339,18.9298145 27.7494457,20.5949146 C27.7715743,23.8817429 27.7950306,27.2803941 27.8389926,30.624314 C27.8767587,33.5129758 27.5346512,36.4841033 27.2041981,39.3577176 C27.1727756,39.6297513 27.141353,39.9053256 27.1097829,40.1803098 L19.6213319,40.0161159 C18.9893404,40.0034289 18.464156,40.4943878 18.4361264,41.1250516 L18.0916586,48.9123857 C18.0772013,49.2342824 18.1969905,49.5470327 18.4224067,49.7767271 C18.6413319,49.9996354 18.9400674,50.124588 19.25149,50.124588 C19.2609315,50.124588 19.2705205,50.124588 19.2801096,50.1242929 L27.1198145,49.9302993 C27.567844,51.1093087 28.3681602,52.0723435 29.7598988,52.4531022 C30.5158103,52.6593404 31.2581496,52.560647 31.907254,52.1680864 C32.0137661,52.1039136 32.1151149,52.0329547 32.2114478,51.9563899 C32.4828915,52.5374858 32.8679283,53.1008788 33.4139136,53.5518588 C33.9411633,53.9879389 34.5792034,54.1320695 35.211785,53.9585817 C35.9989715,53.7424594 36.6660738,53.0213635 37.1930285,52.202607 C37.6913635,52.9350622 38.4210158,53.6096881 39.4846617,53.9299621 C39.75404,54.0111001 40.0231233,54.0515216 40.2877808,54.0515216 C40.7253361,54.0515216 41.1507945,53.9407313 41.5452729,53.7219536 C42.2222592,53.3454731 42.712333,52.7078757 43.0756839,52.0062529 C43.5819852,52.4255153 44.1750306,52.709941 44.797138,52.8028809 C46.0178967,52.9847777 47.1591401,52.4135659 47.8501412,51.272765 C48.1212898,50.8259157 48.3313635,50.1695827 48.4942297,49.4017218 L49.9569273,49.3655785 C50.0151992,49.4949568 50.0969273,49.614156 50.1998988,49.7155047 C50.4172013,49.9292666 50.7097408,50.0487608 51.0140822,50.0487608 L51.0235237,50.0487608 L58.0701412,49.9897513 C58.7112792,49.9842929 59.2265796,49.4601412 59.2215638,48.8192982 L59.2153678,48.1008577 L81.2411001,47.9164531 C81.3974752,48.3634499 81.8183604,48.6860843 82.3177281,48.6943456 L85.5930495,48.746569 C85.7132813,50.9557366 86.3762529,53.2705311 88.7344194,53.9159473 C89.4898883,54.1218904 90.2328177,54.023197 90.881627,53.6304889 C90.9879916,53.5661686 91.0891928,53.4952097 91.1853783,53.4190875 C91.4572645,54.0003309 91.8424489,54.5637239 92.3879916,55.0147039 C92.9155364,55.4501939 93.5537239,55.5952097 94.1863056,55.4209842 C94.9734921,55.204862 95.6405943,54.4840611 96.1674015,53.665157 C96.6658841,54.3976122 97.3955364,55.0719431 98.4588872,55.3922171 C98.7285606,55.4736502 98.9974963,55.5137766 99.2621538,55.5137766 C99.6998567,55.5137766 100.125315,55.4035764 100.519646,55.1840611 C101.19678,54.8077281 101.687149,54.1702782 102.049762,53.4689505 C102.556358,53.8882129 103.149404,54.1723435 103.771954,54.2655785 C104.99109,54.4480653 106.133661,53.8762634 106.824662,52.7356101 C107.287001,51.9720274 107.572754,50.600647 107.748013,49.0995933 L118.797834,49.2757366 C118.80403,49.2760316 118.810226,49.2760316 118.816421,49.2760316 C119.122533,49.2760316 119.416548,49.1547671 119.634145,48.9390875 C119.856021,48.7188346 119.979793,48.4181812 119.977138,48.105431 L119.907507,39.8063372 C119.904851,39.4912266 119.774293,39.1908683 119.545926,38.9738609 C119.31756,38.7571486 119.009235,38.6438504 118.695747,38.6559473 L107.997918,39.1261054 L107.910879,3.16528346 C111.334314,3.16602107 114.758192,3.16734879 118.181479,3.16734879 L118.203313,3.16734879 C119.202491,3.16734879 120.661058,3.0342824 122.347844,2.88026765 C125.105947,2.62829715 128.537939,2.31525184 131.432059,2.45023604 C135.371532,2.63464067 136.436506,3.58085774 136.720636,4.12817071 C137.405442,5.44821286 137.385378,7.16347102 137.36738,8.6772118 C137.089741,31.9658946 137.063777,54.8500674 137.075431,72.4334183 L2.52407165,72.4334183 L2.52407165,74.7551465 L32.6413319,74.7551465 L30.383334,90.040373 L28.3691928,90.040373 C27.8422381,90.040373 27.3815216,90.3954626 27.24698,90.9053045 L21.7706048,111.65776 C15.054588,112.985031 9.97342887,118.919467 9.97342887,126.018898 C9.97342887,126.660036 10.4934499,127.179762 11.1342929,127.179762 L13.7006154,127.179762 C13.6033973,130.000563 14.4470854,132.740816 16.0952202,134.780921 C17.0094247,135.91287 18.1614373,136.803914 19.4870854,137.425431 L2.94953003,137.425431 Z M29.0352624,44.2189189 L29.0489821,44.0522171 C29.169804,42.5843562 29.3428493,41.0791718 29.5105838,39.6229652 C29.8497408,36.6770643 30.2004046,33.6308472 30.1602782,30.5940717 C30.1166112,27.2575279 30.0934499,23.8627123 30.0713214,20.5792771 C30.0599621,18.9131444 30.0484552,17.2467165 30.0347355,15.5802887 L29.9305838,3.14448261 C35.494883,3.14374499 41.066411,3.14448261 46.6255469,3.14551528 L46.7102255,41.1651781 C46.7102255,41.1721117 46.7102255,41.1786027 46.7105205,41.1853888 C46.769235,44.1979705 46.5457366,48.9458736 45.8647671,50.0700042 C45.596274,50.5124278 45.3376649,50.5358841 45.1405732,50.5066744 C44.68502,50.4388135 44.0950727,49.9460843 43.897981,49.1681918 C43.8780653,49.0889715 43.8475279,49.0134394 43.8116797,48.9407102 L43.7839452,45.6335237 L41.4623646,45.6531444 L41.4961475,49.6772961 C41.041922,51.2007734 40.5956628,51.593039 40.4174542,51.69247 C40.357412,51.7256628 40.2966322,51.7494141 40.1541243,51.7067798 C38.9551992,51.3454942 38.5737028,49.7910369 38.4828282,49.3055364 L38.4493404,45.3131022 L36.1276122,45.3325753 L36.1585922,49.0425016 C35.7542297,50.1191296 35.130647,51.2314584 34.7324805,51.6108894 C34.0939979,50.9281496 33.9165269,49.6985395 33.892628,49.057254 L33.8969062,49.057254 L33.8625332,44.9341138 L31.5408051,44.9535869 L31.5719326,48.653334 C31.4335553,49.1717323 31.08953,49.9511001 30.7043456,50.1822698 C30.6178967,50.2341981 30.5318904,50.2570643 30.3713846,50.2136923 C28.5772013,49.7224384 28.886411,46.0051359 29.0352624,44.2189189 Z M49.037117,42.9844405 L49.8036502,43.0015532 L49.8375806,47.0459157 L48.8341243,47.0706997 C48.9739768,45.6370643 49.0233973,44.1426491 49.037117,42.9844405 Z M56.889804,47.6779073 L52.1650622,47.7174436 L52.0868746,38.3852413 L56.8116164,38.345705 L56.889804,47.6779073 Z M66.0693193,3.15171128 L66.3901834,41.491058 L59.1603414,41.5513952 L59.1234605,37.1653678 C59.1211001,36.8577808 58.9961475,36.5633235 58.7769273,36.3476438 C58.5569694,36.1319642 58.2631022,36.0084868 57.9530074,36.0143878 L50.9065374,36.0733973 C50.2655469,36.0788556 49.7499515,36.6030074 49.7554099,37.2438504 L49.784177,40.6787924 L49.030921,40.6619747 L48.9471275,3.14581033 C54.6793087,3.14713804 60.3940822,3.1493509 66.0693193,3.15171128 Z M72.6463688,3.15407165 L72.9670854,41.435589 L68.712059,41.4714373 L68.3911949,3.15230137 C69.8121433,3.15303899 71.2311739,3.15362908 72.6463688,3.15407165 Z M81.1587819,45.5954626 L59.1958946,45.7791296 L59.1798145,43.8732708 L81.1427018,43.6891612 L81.1587819,45.5954626 Z M85.9977071,42.4173593 C85.8907524,43.3823119 85.7891085,44.356706 85.7094457,45.324314 L85.695726,45.4885079 C85.6725648,45.7685079 85.6467482,46.0850938 85.6240295,46.4246934 L83.4874436,46.391058 L83.4549884,42.5290348 L85.9977071,42.4173593 Z M76.5765479,3.15584194 C86.2476122,3.15982508 95.918529,3.1630706 105.589003,3.16498841 L105.684156,42.6280232 C105.684156,42.6345142 105.684599,42.6414478 105.684599,42.6479389 C105.744051,45.6596354 105.520847,50.4069484 104.838993,51.5324067 C104.570499,51.9752729 104.310268,51.9984341 104.115389,51.9690769 C103.659541,51.9010685 103.069151,51.4086344 102.872207,50.6305943 C102.852291,50.5513741 102.822048,50.4762845 102.7862,50.4035553 L102.758466,47.0963688 L100.436738,47.1158419 L100.470521,51.1396986 C100.016443,52.6633235 99.5704784,53.055589 99.3919747,53.1548725 C99.3319326,53.1879178 99.2707102,53.2118166 99.1283498,53.1691823 C97.9294247,52.8083393 97.5482234,51.254177 97.4573488,50.7682339 L97.4238609,46.7755047 L95.1021328,46.7949779 L95.1331128,50.5046091 C94.7268325,51.5819747 94.1033973,52.6943035 93.706706,53.0732919 C93.0685184,52.3904046 92.8908999,51.1610896 92.8671486,50.5199515 L92.8714268,50.5199515 L92.8369062,46.3963688 L90.5151781,46.4158419 L90.5461581,50.115294 C90.4083709,50.6335448 90.0639031,51.4135026 89.6785711,51.6445248 C89.5919747,51.6966006 89.5062634,51.7197619 89.3459052,51.6760948 C87.5514268,51.1851359 87.8609315,47.4675385 88.0097829,45.6811739 L88.0235026,45.5146196 C88.1443246,44.0469062 88.3173699,42.5417218 88.4851043,41.0856628 C88.8239663,38.1397619 89.1744826,35.0935448 89.1347987,32.0564742 C89.0908367,28.7259789 89.0679705,25.3376544 89.0456944,22.0607102 C89.03404,20.3880864 89.0228282,18.7154626 89.008666,17.0426913 L88.8927123,3.1748725 L86.5709842,3.19434563 L86.6870854,17.0623119 C86.7011001,18.733608 86.7127545,20.4049041 86.7239663,22.0766428 C86.7460948,25.3571275 86.7692561,28.7492877 86.8130706,32.0871591 C86.8477387,34.7287187 86.5647882,37.4394668 86.2629547,40.0816164 L82.2340822,40.2584974 C81.6299726,40.2849041 81.1524384,40.7699621 81.1263267,41.3674331 L75.2888135,41.4161159 L74.9680969,3.15510432 C75.5043456,3.15539937 76.041627,3.15539937 76.5765479,3.15584194 Z M139.63718,97.2278757 C139.522849,89.514156 139.40424,81.537549 139.398044,73.6835342 C139.384177,55.9492666 139.404683,32.5368114 139.688666,8.70479874 C139.708877,7.00753846 139.734398,4.8947039 138.781395,3.05877134 C136.794693,-0.770059009 128.667465,-0.0281622761 122.136885,0.567981033 C120.506011,0.716979979 119.096569,0.845620653 118.201985,0.845620653 L118.183692,0.845620653 C104.315136,0.845620653 90.4462845,0.839867229 76.5774331,0.83396628 C56.6186554,0.825704953 35.9805311,0.817296101 15.6811212,0.826737619 L15.6803836,0.826737619 C15.4500991,0.826737619 14.6522908,0.775251844 13.7286449,0.715947313 C2.79418757,0.0118166491 1.38813909,0.391837724 0.785947313,1.42745416 C0.688876712,1.59430348 0.634883035,1.78254373 0.628834563,1.97506217 C-0.317382508,32.3249673 0.00333403583,63.2121538 0.313133825,93.0823119 C0.467886196,108.000942 0.628096944,123.427201 0.628096944,138.586295 C0.628096944,139.227138 1.14782297,139.747159 1.78896101,139.747159 L81.2506891,139.747159 C82.565863,139.747159 85.4080548,139.884061 89.0067482,140.057254 C95.8996459,140.38933 106.201522,140.885157 115.543756,140.885157 C115.859161,140.885157 116.173534,140.884862 116.486285,140.883534 C128.24894,140.840162 135.312228,139.978476 138.079182,138.249941 C139.412354,137.417022 139.710795,136.433482 139.726137,135.754725 C140.017791,122.885642 139.82424,109.842038 139.63718,97.2278757 Z" fill="var(--green)" id="Fill-1" mask="url(#mask-2)"></path></g><path d="M24.3778504,129.292965 C23.3951949,129.292965 22.596059,128.493829 22.596059,127.511026 C22.596059,126.528371 23.3951949,125.728645 24.3778504,125.728645 C25.3605058,125.728645 26.1602318,126.528371 26.1602318,127.511026 C26.1602318,128.493829 25.3605058,129.292965 24.3778504,129.292965 M24.3778504,123.406917 C22.1152792,123.406917 20.2741834,125.248013 20.2741834,127.511026 C20.2741834,129.773745 22.1152792,131.614693 24.3778504,131.614693 C26.6408641,131.614693 28.48196,129.773745 28.48196,127.511026 C28.48196,125.248013 26.6408641,123.406917 24.3778504,123.406917" fill="var(--green)" id="Fill-4"></path><path d="M116.21518,127.118643 C116.21518,128.101298 115.415602,128.900582 114.432946,128.900582 C113.450733,128.900582 112.651007,128.101298 112.651007,127.118643 C112.651007,126.135987 113.450733,125.336556 114.432946,125.336556 C115.415602,125.336556 116.21518,126.135987 116.21518,127.118643 M110.329279,127.118643 C110.329279,129.381361 112.170375,131.222457 114.432946,131.222457 C116.69596,131.222457 118.537056,129.381361 118.537056,127.118643 C118.537056,124.855629 116.69596,123.014533 114.432946,123.014533 C112.170375,123.014533 110.329279,124.855629 110.329279,127.118643" fill="var(--green)" id="Fill-6"></path><polygon fill="var(--green)" id="Fill-8" points="121.601168 106.894352 123.746162 107.783477 127.324055 99.1514226 125.17906 98.2622972"></polygon><polygon fill="var(--green)" id="Fill-10" points="111.789041 99.7593383 113.27726 106.404249 115.543224 105.896915 114.05471 99.2520042"></polygon><polygon fill="var(--green)" id="Fill-12" points="128.098333 111.21094 129.292685 113.20192 134.414266 110.129296 133.219619 108.138316"></polygon><polygon fill="var(--green)" id="Fill-14" points="65.407882 56.5974858 62.4965016 51.4317956 60.4736565 52.5718588 63.3853319 57.737549"></polygon><polygon fill="var(--green)" id="Fill-16" points="56.0158588 59.4229926 55.9676185 53.6871233 53.6460379 53.7065964 53.6941307 59.4423182"></polygon><polygon fill="var(--green)" id="Fill-18" points="49.7602929 53.8431591 47.8264046 52.5582276 44.7241286 57.2279431 46.6580169 58.5128746"></polygon><polygon fill="var(--green)" id="Fill-20" points="131.066894 49.3634247 125.75309 46.7320443 124.722636 48.8128662 130.03644 51.4440991"></polygon><polygon fill="var(--green)" id="Fill-22" points="124.070464 56.5817893 120.802666 51.8675216 118.894742 53.1902192 122.16254 57.9044868"></polygon><polygon fill="var(--green)" id="Fill-24" points="115.198447 59.8721876 115.134569 54.2664341 112.812988 54.2926934 112.877014 59.8982993"></polygon></g></g></g></g></g></svg>