<svg color="var(--green)" height="140" name="move" version="1.1" viewbox="0 0 140 141" width="140" xmlns="http://www.w3.org/2000/svg" xmlns:xlink="http://www.w3.org/1999/xlink"><title>muevete_icon</title><desc>Created with Sketch.</desc><defs><polygon id="path-1" points="5.49962012e-06 0.0838696522 139.87549 0.0838696522 139.87549 140.885068 5.49962012e-06 140.885068"></polygon></defs><g fill="none" fill-rule="evenodd" id="Page-1" stroke="none" stroke-width="1"><g id="home_grin" transform="translate(-41.000000, -1522.000000)"><g id="seccion-1" transform="translate(41.000000, 803.000000)"><g id="muevete" transform="translate(0.000000, 719.000000)"><g id="muevete_icon"><g id="Group-3" transform="translate(0.000000, 0.063730)"><mask fill="white" id="mask-2"><use xlink:href="#path-1"></use></mask><g id="Clip-2"></g><path d="M137.40525,135.702266 C137.401857,135.846839 137.188685,136.068419 136.849233,136.280558 L136.848938,136.280558 C135.228832,137.292866 130.379433,138.510674 116.477831,138.561718 C106.955766,138.598303 96.2203182,138.080348 89.1185269,137.73824 C85.3466407,137.556934 82.6215827,137.42549 81.2507924,137.42549 L2.9496333,137.42549 C2.94166702,122.628862 2.78573446,107.601802 2.6348177,93.0584721 C2.51325817,81.341254 2.39140358,69.466333 2.34390095,57.5310748 L31.666746,57.5310748 L28.6068093,70.6698314 L24.6487482,70.6698314 C24.1216459,70.6698314 23.6609294,71.0250685 23.5266828,71.5349104 L17.8001075,93.2338778 C10.7958293,94.6027503 5.49294204,100.785321 5.49294204,108.184373 C5.49294204,108.825511 6.01296312,109.345237 6.65410116,109.345237 L9.38727292,109.345237 C9.27367966,112.296301 10.150118,115.167113 11.8728999,117.300453 C13.7822993,119.664226 16.6882213,121.018198 20.0558925,121.113941 C20.1836481,121.117629 20.310666,121.119399 20.4379789,121.119399 C24.0701602,121.119399 27.5539326,119.651834 29.8197492,117.151602 C31.0829947,115.757208 32.0031001,113.942518 32.5545437,111.757397 C32.7839431,110.849389 32.8934057,110.079315 32.8997492,109.345237 L34.7995595,109.345237 C35.4408451,109.345237 35.9604236,108.825511 35.9604236,108.184373 C35.9604236,108.08981 35.9585058,107.995543 35.956883,107.90157 C36.5866617,108.681528 37.1347123,109.381085 37.5818567,110.266523 L37.6572413,110.415964 C38.2021939,111.497313 38.8203182,112.723087 39.8895701,113.645258 C40.893764,114.511517 42.2254605,114.729262 43.5488957,114.729262 C44.2713193,114.729262 44.9916776,114.664499 45.6546491,114.604457 C46.1475258,114.560053 46.6128156,114.518156 46.997705,114.511222 L65.0877998,114.179589 C67.6339115,114.132824 70.2188219,114.060095 72.7187587,113.989431 C76.2895701,113.88882 79.9817935,113.784668 83.6089589,113.756048 C86.5569252,113.732002 89.6059452,113.707808 92.6270832,113.875395 C94.9685796,114.005659 99.224491,113.878936 102.643796,113.599378 C103.064828,114.84138 103.679412,115.99177 104.478991,116.981949 C106.388095,119.345574 109.294312,120.699842 112.661541,120.795437 C112.789444,120.799273 112.916166,120.800896 113.043922,120.800896 C116.675808,120.800453 120.160023,119.33333 122.425692,116.83295 C123.688938,115.438851 124.608748,113.623867 125.160339,111.439041 C125.389739,110.530443 125.499201,109.760516 125.505397,109.026733 L127.405503,109.026733 C128.046346,109.026733 128.566514,108.507155 128.566514,107.865869 C128.566514,99.4657218 121.732626,92.631981 113.332478,92.631981 C106.275682,92.631981 100.325018,97.4557113 98.602236,103.978472 C97.4798757,104.085132 96.0772202,104.190316 94.3247861,104.285174 C97.6355132,102.912908 99.6542276,99.2824974 99.9373256,94.0513066 C100.157874,89.9758166 99.9924995,85.8178609 99.7371359,81.7171444 C102.192816,81.6880822 103.845376,81.6690516 103.85054,81.6690516 C104.033911,81.6665437 104.952394,81.5945522 105.01878,80.3829399 C105.026451,80.2476607 105.032942,80.0577977 105.0384,79.8016965 C105.048432,79.3461433 105.056693,78.6796312 105.063184,77.7643941 C105.075576,76.0445627 105.08074,73.6678082 105.086493,70.9154584 C105.104196,62.5136881 105.137684,46.8751423 105.517705,45.3349947 C107.08603,38.9808535 114.037937,35.7589357 119.594122,34.1751212 C125.671656,32.4426027 132.517199,31.9684615 137.162131,32.2459536 C137.072879,47.5481454 137.067125,61.8768282 137.076419,73.6855111 C137.082468,81.5560485 137.200929,89.5404742 137.31585,97.2626027 C137.502468,109.854932 137.695871,122.876554 137.40525,135.702266 Z M11.5666407,47.1558799 C11.438295,47.072824 11.2971149,47.0179452 11.1512139,46.9906533 C11.6572202,39.9934563 12.2393488,32.0776291 16.2037534,25.8170179 L19.4538483,38.669431 C20.174059,41.5173762 20.9183161,44.4598841 21.1925627,47.392803 C17.9955764,47.4317492 14.760824,47.3517914 11.5666407,47.1558799 Z M2.57610327,17.4307376 C4.30434352,16.8497893 6.03450158,15.6951212 7.72320548,14.5673024 C12.2554289,11.5411486 14.4532371,10.513941 16.4753446,13.3784089 C17.6645332,15.0628346 18.3118672,16.9956902 18.9971149,19.041844 C19.7888746,21.406059 20.6076312,23.8506744 22.3308556,25.9933087 C24.899981,29.1880822 28.1319305,30.6172919 31.9411401,30.2430242 C33.9610348,30.0440148 36.0993909,29.3595047 38.513764,28.132255 L32.207568,55.2093467 L16.6219831,55.2093467 L16.6219831,49.6897471 C17.6216038,49.7118757 18.6210769,49.7241201 19.6184847,49.7241201 C20.1839431,49.7241201 20.7486639,49.720432 21.3124995,49.7132034 C21.6715722,49.7084826 22.6259031,49.6960906 23.1907713,48.9125922 C23.6051654,48.3366596 23.549549,47.6894731 23.5225522,47.3777555 C23.2462403,44.1964067 22.4627418,41.0973762 21.704765,38.1002845 L18.3487482,24.8291992 C18.2599389,24.4779452 18.0947123,23.8244152 17.4879473,23.3989568 C17.0824046,23.114236 16.5879052,23.011412 16.0975364,23.1087777 C15.1474837,23.2968704 14.5174099,24.1433614 14.290666,24.498451 C9.95877977,31.2833614 9.35968599,39.5713909 8.83110854,46.8836986 C8.8035216,47.2660801 8.75690411,47.906333 9.10933825,48.5094099 C9.38506006,48.9804531 9.87277345,49.3075132 10.4155132,49.384373 C10.4833741,49.3939621 10.5516776,49.3994204 10.6188008,49.4007482 C10.6888746,49.4188936 10.7616038,49.430843 10.8366934,49.4358588 C11.9863456,49.5115385 13.1421939,49.5718757 14.300255,49.6180506 L14.300255,55.2093467 L2.33534457,55.2093467 C2.2956607,42.6397366 2.34729399,30.0105269 2.57610327,17.4307376 Z M2.92632455,2.79963119 C3.46508114,2.72055848 4.61827397,2.63676502 7.02822129,2.69872497 C9.29743098,2.75743941 11.8731949,2.92325606 13.5776839,3.03286617 C14.7581686,3.10898841 15.3885374,3.14867229 15.6800443,3.14867229 L15.6821096,3.14867229 C25.1928156,3.14424658 34.7775785,3.14350896 44.3331317,3.14527924 L39.2204025,25.0969547 C32.3558293,29.1174183 27.671804,28.9294731 24.1402339,24.5379874 C22.6770938,22.7191675 21.9589484,20.575058 21.1987587,18.3048156 C20.4902023,16.1894731 19.7578946,14.0022866 18.3722044,12.0393361 C16.7941433,9.80435195 14.7493172,8.97040042 12.2946702,9.56123288 C10.33349,10.0327187 8.35106639,11.3564489 6.43399579,12.6365121 C5.15157218,13.4927397 3.84215174,14.3669652 2.62272076,14.9187039 C2.70444889,10.871686 2.8034373,6.83086407 2.92632455,2.79963119 Z M48.6464299,3.72135933 L32.5381686,70.6698314 L30.9907924,70.6698314 L46.5607397,3.81621707 L48.6464299,3.72135933 Z M76.5767987,3.15575342 C77.6349863,3.156196 78.6930263,3.15649104 79.7512139,3.15722866 L77.8130474,78.2833825 L65.6010348,78.3971233 L65.8900337,36.1898525 C65.9252919,35.7643941 66.1486428,32.808314 65.9255869,29.3220337 C65.5992645,24.2128451 64.4940169,20.597039 62.6403815,18.5752266 C61.4848282,17.3146365 60.0600443,16.6754162 58.4051233,16.6754162 C54.1859452,16.6757113 50.5182107,18.2036143 47.075745,20.174236 L51.1727734,3.14660695 C59.710118,3.14896733 68.2035005,3.1525079 76.5767987,3.15575342 Z M92.3380843,102.463846 C89.7978736,102.935774 87.2436481,102.875732 84.5388008,102.81215 C82.629844,102.767597 80.6555342,102.720685 78.6949442,102.880896 L64.9171149,104.004879 C64.373785,104.049283 63.804196,104.127766 63.200824,104.210822 C61.5026786,104.444499 59.5776417,104.710042 58.4204658,104.116849 C58.0161033,103.909874 57.9066407,103.739779 57.8783161,103.676639 C57.8281581,103.565111 57.8547123,103.381739 57.9414563,103.240706 C58.1043224,102.975753 58.5103077,102.808019 58.9801707,102.614173 L59.0309189,102.592929 C59.4215616,102.449979 61.1899283,102.310569 61.9452497,102.251264 C62.3814773,102.216744 62.7263878,102.189895 62.9469357,102.163193 C63.5607819,102.089283 64.0091064,101.547134 63.9660295,100.930042 C63.9238377,100.320769 63.4170938,99.8498736 62.8085585,99.8498736 L62.7864299,99.8498736 C62.6424468,99.8526765 62.4632055,99.8591675 62.2575574,99.8665437 C61.4910242,99.8939831 60.3325205,99.9363224 59.3031001,99.8265648 C58.1288114,99.7017597 57.7557239,99.4477239 57.6621939,99.3636354 C58.1947545,98.8489252 60.8026786,98.2516017 62.6004025,98.2516017 C63.2412455,98.2516017 63.760824,97.7320232 63.760824,97.0908851 C63.760824,96.4494521 63.2412455,95.9298736 62.6004025,95.9298736 C60.0410137,95.9298736 57.6642592,95.5191675 57.202215,95.145785 C57.0993909,94.977608 57.068411,94.7262276 57.121372,94.479863 C57.1806765,94.2025184 57.4175996,93.9837408 57.8260927,93.829726 C58.4402339,93.7221812 61.9803604,93.5526765 62.4648282,93.5658061 C62.4739747,93.5659536 62.4831212,93.5659536 62.4928577,93.5659536 C63.1074415,93.5659536 63.6175785,93.0854689 63.6513614,92.4683772 C63.6854394,91.8421391 63.2158714,91.3020548 62.5912561,91.2486512 C62.251804,91.219294 61.7637956,91.2262276 61.1461138,91.2352266 C60.2764615,91.2477661 57.9669779,91.2802213 57.4717408,90.9844362 C57.4341222,90.9589146 57.3189062,90.880432 57.3305606,90.6351001 C57.3419199,90.401275 57.4696754,90.1656797 57.634607,90.074215 C58.1050601,89.8141307 58.8022571,89.8024763 59.5407608,89.7897893 C59.8259241,89.7850685 60.120824,89.7802002 60.4127734,89.7596944 C61.8826997,89.657313 63.406177,89.6832771 64.8797914,89.7082086 C65.2840063,89.7149947 65.6886639,89.7219283 66.0928788,89.7262065 C69.8938272,89.7672181 74.2468093,89.598451 77.773216,87.0592729 C79.6247861,85.7259536 81.0051654,83.9376712 81.98251,81.9242677 C85.8871675,81.8789779 92.4832476,81.801823 97.4123098,81.7441412 C97.6678209,85.8143203 97.8349652,89.9318546 97.6189905,93.9256164 C97.4645332,96.7765121 96.57349,101.676807 92.3380843,102.463846 Z M28.1151128,94.8666702 L28.5498651,92.5393361 L42.2415406,105.214573 C41.1976628,105.266354 40.2335954,105.330379 39.304196,105.409157 C38.9685796,105.437924 38.6280948,105.490148 38.2986744,105.540453 C37.7345437,105.627345 37.151235,105.716449 36.7173678,105.660832 C36.3776207,105.617313 36.0433319,105.728398 35.7962297,105.949684 C35.0920991,101.180832 32.1700969,97.1249631 28.1151128,94.8666702 Z M30.0237745,86.4553109 C29.9510453,86.8548051 30.0925205,87.2631507 30.3967144,87.5322339 L44.7035638,100.193751 L44.7619831,104.384162 L28.5836481,89.4066702 C28.3657555,89.2048577 28.0831001,89.097608 27.7949863,89.097608 C27.6729842,89.097608 27.5496544,89.1167861 27.4303077,89.1563224 C27.0290432,89.2892413 26.7316354,89.629726 26.6537429,90.0454478 L25.9395806,93.869705 C24.3125416,93.2751844 22.556862,92.9509273 20.7268303,92.9509273 C20.5753235,92.9509273 20.4247018,92.9535827 20.2745227,92.9580084 L25.5430369,72.9918546 L32.4714879,72.9918546 L30.0237745,86.4553109 Z M47.1639642,105.064689 C47.1403604,105.065132 47.1169041,105.065427 47.0933003,105.065722 L47.0927102,105.010695 C47.1169041,105.028398 47.1390327,105.047281 47.1639642,105.064689 Z M53.1264299,99.0532455 C52.9824468,99.0560485 52.8035005,99.0622445 52.598,99.0697682 C51.8314668,99.0975026 50.6726681,99.1396944 49.6433952,99.0297893 C48.469254,98.9051317 48.0961665,98.6508008 48.0026365,98.5667123 C48.5347545,98.0522972 51.1426786,97.4546786 52.9404025,97.4546786 C53.5816881,97.4546786 54.1012666,96.9351001 54.1012666,96.2942571 C54.1012666,95.652824 53.5816881,95.133393 52.9404025,95.133393 C50.3810137,95.133393 48.0042592,94.7222445 47.5426575,94.3490095 C47.4398335,94.1806849 47.408706,93.9293045 47.4615195,93.683235 C47.520824,93.4057429 47.7580421,93.1871128 48.1665353,93.033098 C48.7806765,92.9255532 52.3240485,92.7544257 52.8052708,92.7691781 L52.8328577,92.7691781 C53.4474415,92.7691781 53.9578736,92.2885458 53.991804,91.6718967 C54.0257345,91.0456586 53.556314,90.5054268 52.9315511,90.4517281 C52.5920991,90.4228135 52.1042381,90.4295996 51.4861138,90.4385985 C50.6169041,90.4504004 48.3072729,90.4835933 47.8120358,90.1879557 C47.7742698,90.1622866 47.6593488,90.083509 47.6710032,89.838177 C47.6823625,89.604647 47.8099705,89.3687566 47.974902,89.2775869 C48.4453551,89.0172076 49.1426997,89.0054057 49.8807608,88.9931612 C50.1663667,88.9884405 50.4612666,88.9834247 50.7530685,88.9632139 C52.2229947,88.8603899 53.7469146,88.8866491 55.2200864,88.9112856 C55.3311718,88.9133509 55.4418145,88.914236 55.5527524,88.9164489 C55.233216,89.3783456 55.0395174,89.9362803 55.0116354,90.5248999 C54.9757871,91.2774183 55.2155132,91.9636986 55.6818356,92.482392 C55.2605079,92.8978188 54.9760822,93.4089884 54.8509821,93.9928872 C54.6587587,94.8887987 54.8285585,95.8035933 55.3165669,96.5028556 C55.5611612,96.8538145 55.9338061,97.1408957 56.461941,97.3766386 C55.8385058,97.8043098 55.404196,98.3588514 55.3322044,99.0768493 C55.261098,99.7854057 55.4755975,100.428314 55.9522466,100.936681 C56.110392,101.1053 56.2922887,101.252529 56.4948388,101.381317 C56.3001075,101.559821 56.1195385,101.770927 55.9634584,102.024816 C55.674607,102.494236 55.5306238,103.034468 55.534607,103.565111 C53.5911296,103.740664 50.1519094,104.033203 48.7609083,103.320221 C48.3565458,103.11295 48.2469357,102.943151 48.2183161,102.879715 C48.1684531,102.768188 48.1951549,102.584816 48.2818988,102.443783 C48.444765,102.17883 48.8504552,102.011096 49.3204658,101.81725 L49.3713614,101.796449 C49.7620042,101.653056 51.5303709,101.513646 52.2852497,101.454636 C52.7219199,101.420116 53.0668303,101.392972 53.2873783,101.366565 C53.9012244,101.292508 54.349254,100.750211 54.3064721,100.133267 C54.2638377,99.5166175 53.7472097,99.0381981 53.1264299,99.0532455 Z M78.0827208,81.6144679 C78.3013509,81.8359009 78.5990537,81.960411 78.9094436,81.960411 L78.9230158,81.960411 C79.0214141,81.9593783 79.1494647,81.957608 79.3045121,81.9558377 C78.4690854,83.3251528 77.4688746,84.4169758 76.4162929,85.1753952 C73.4720148,87.2956059 69.7356818,87.4413593 66.1577893,87.4047734 C66.8136797,87.0986617 67.4521623,86.7339831 68.0660084,86.2965753 C68.5553446,86.0090516 71.7791802,84.0273656 73.8375785,80.6422866 L77.7533003,80.6057007 L77.7490221,80.7695996 C77.7410558,81.0847102 77.8615827,81.3899368 78.0827208,81.6144679 Z M52.9912982,48.8224552 C54.2678209,48.780411 55.3859031,48.6510327 56.4524995,48.4232561 C56.9554078,48.3158588 58.4864089,47.9883562 59.0082002,46.4459958 C59.2768409,45.6514331 59.1583793,44.8447734 59.0257555,44.1508219 C58.0509189,39.0389779 56.2672097,34.0861644 53.8669989,29.8286301 C53.7357028,29.5953952 53.4903709,29.1610854 52.9923309,28.9305058 C52.6426997,28.7685248 51.7314457,28.5164067 50.8259452,29.6752055 C49.9779789,30.7597998 49.2683899,32.102118 48.5245753,34.0278925 C48.4453551,34.232803 48.3679052,34.4393361 48.2907503,34.6463119 L48.2349863,34.7951633 C48.1851233,34.9270495 47.0130474,38.0563224 45.9272729,41.0684615 C45.355471,42.6549315 44.9111296,43.9224552 44.6066407,44.8350369 C44.421941,45.3892835 44.2899073,45.8078082 44.2034584,46.1148051 C44.0742276,46.5721286 43.8343541,47.4231928 44.6156396,47.9104636 C44.6191802,47.912824 44.6225732,47.9153319 44.6264089,47.9172497 C45.4597703,48.4242887 46.3233741,48.4757745 47.0171781,48.5175237 C47.2294647,48.5302107 47.4299494,48.5421602 47.6156818,48.5653214 C48.6181054,48.690274 49.6417724,48.7728872 50.6579157,48.8110959 C50.6620464,48.8115385 50.6657345,48.8115385 50.6695701,48.8115385 L50.6695701,55.0728872 L38.6792856,55.0728872 L46.3140801,23.3406849 C50.0558714,21.0083351 53.9752813,18.9974394 58.4051233,18.9971444 C59.3955975,18.9971444 60.2208451,19.3717071 60.9280738,20.142961 C63.9443435,23.4328872 63.860255,32.7311591 63.5734689,36.0362803 C63.570666,36.0674078 63.5690432,36.0980927 63.5690432,36.1290727 L63.4389273,55.0728872 L52.9912982,55.0728872 L52.9912982,48.8224552 Z M50.6695701,43.3724868 L50.6695701,46.4873024 C49.745039,46.4504215 48.814902,46.3750369 47.9032055,46.2612961 C47.6432687,46.2288409 47.3954289,46.2140885 47.1555553,46.1994837 C46.960529,46.1882719 46.780255,46.1772076 46.6135532,46.1587671 C47.2263667,44.2478925 48.87996,39.6889673 50.4090432,35.6102318 L50.4649547,35.4602002 C50.5393066,35.2610432 50.6139536,35.0626238 50.6903709,34.8647945 C51.2146702,33.5072813 51.7060717,32.4949737 52.2387798,31.6859536 C54.318569,35.5619916 55.8712561,40.0033404 56.7454816,44.5857218 C56.801098,44.8773762 56.9040695,45.4196733 56.8089168,45.7015911 C56.7767566,45.7965964 56.7099283,45.9938356 55.9671465,46.1527187 C55.0584004,46.3467123 54.0968409,46.4603056 52.9912982,46.500137 L52.9912982,43.3724868 L50.6695701,43.3724868 Z M34.808706,71.1602002 L38.1206133,57.3946154 L63.4232898,57.3946154 L63.2713404,79.5609378 C63.2688325,79.8720653 63.3917197,80.1710959 63.6124152,80.3906112 C63.8300126,80.6079136 64.1249125,80.7297682 64.4320569,80.7297682 L64.4426786,80.7297682 L70.9928788,80.6686934 C69.1688957,82.9746365 66.8878841,84.2961538 66.86251,84.3107587 C66.8260717,84.3315595 66.7905184,84.3541307 66.756588,84.3784721 C63.8015406,86.5065016 60.0501602,86.6450263 56.4585479,86.6078504 C56.0590537,86.6034247 55.6592645,86.5966386 55.2594752,86.589705 C53.7367355,86.5638883 52.1619199,86.5376291 50.5916776,86.6467966 C50.360803,86.6628767 50.1088325,86.6673024 49.8421096,86.6718757 C48.8978103,86.6875132 47.8273783,86.7053635 46.8506238,87.2464805 C45.9761033,87.7302107 45.4017935,88.6811486 45.3519305,89.7279768 C45.3160822,90.4809378 45.5559557,91.1672181 46.0218356,91.685764 C45.600803,92.1008957 45.3165248,92.6125079 45.1909821,93.1962592 C44.9989062,94.0915806 45.1685585,95.0066702 45.656862,95.7059326 C45.9002761,96.0551212 46.2707081,96.3416122 46.7951549,96.57647 C46.2929842,96.921823 45.8729842,97.3820969 45.7220674,97.9946154 L32.4251654,86.2272392 L35.0046175,72.0385564 C35.0609715,71.7300843 34.9882424,71.413941 34.808706,71.1602002 Z M26.6074204,108.184373 C26.6074204,108.825511 27.1271465,109.345237 27.7682845,109.345237 L30.5780211,109.345237 C30.5713825,109.884731 30.484196,110.473351 30.3034795,111.189431 C29.8458609,113.001907 29.1044067,114.48334 28.0991802,115.592571 C26.2318251,117.65333 23.176314,118.878367 20.1216881,118.793246 C17.4432476,118.717418 15.1553024,117.669262 13.6791802,115.841886 C12.312373,114.149347 11.6111928,111.760495 11.7165248,109.345237 L13.466156,109.345237 L13.466156,107.023509 L7.86659852,107.023509 C8.45521812,100.445279 13.9981264,95.2725079 20.7268303,95.2725079 C27.4550917,95.2725079 32.9984426,100.445279 33.5870622,107.023509 L28.8472729,107.023509 C28.2818145,103.048483 24.8555764,99.9820548 20.7268303,99.9820548 L20.7268303,102.303783 C23.9694015,102.303783 26.6074204,104.941654 26.6074204,108.184373 Z M119.213068,107.865869 C119.213068,108.507155 119.73309,109.026733 120.37408,109.026733 L123.184112,109.026733 C123.177178,109.56608 123.089844,110.154847 122.909128,110.87078 C122.451656,112.683256 121.71035,114.164689 120.705123,115.27392 C118.837916,117.334974 115.78329,118.560306 112.727484,118.474594 C110.049191,118.398472 107.761393,117.350316 106.285271,115.52294 C104.918021,113.8304 104.216988,111.441992 104.32232,109.026733 L104.842489,109.026733 L104.842489,106.704858 L100.472247,106.704858 C101.061309,100.126923 106.604217,94.9537092 113.332478,94.9537092 C120.06133,94.9537092 125.604091,100.126923 126.19271,106.704858 L121.452773,106.704858 C120.887463,102.729831 117.461519,99.6634036 113.332478,99.6634036 L113.332478,101.985279 C116.575197,101.985279 119.213068,104.623298 119.213068,107.865869 Z M99.2598967,109.026733 L101.993068,109.026733 C101.963416,109.79902 102.0031,110.564816 102.106809,111.314679 C98.6001707,111.590548 94.7685374,111.669326 92.7557239,111.557355 C89.6609715,111.385638 86.574628,111.410274 83.590666,111.434173 C79.9400443,111.463087 76.2357239,111.567682 72.6537007,111.668736 C70.1589273,111.739104 67.5796228,111.811834 65.0451654,111.858303 L46.9552181,112.189789 C46.4872729,112.198198 45.9817092,112.244078 45.4461981,112.292171 C44.0060717,112.421992 42.2135111,112.583825 41.4059663,111.887218 C40.6859031,111.266291 40.221941,110.3453 39.7305395,109.370906 L39.6544173,109.219694 C39.3918251,108.699968 39.108137,108.241022 38.809254,107.811138 C39.0556185,107.773962 39.288411,107.740917 39.5006976,107.722624 C40.4902866,107.63883 41.5217724,107.57215 42.6543119,107.519041 C44.7885374,107.418872 46.9717408,107.385385 49.0246807,107.359715 L84.5070832,106.916702 C86.1007819,106.896786 90.2444278,106.827155 94.2967566,106.61177 C95.8133003,106.531222 97.0923309,106.44197 98.1744173,106.348145 C98.1245543,106.847661 98.0988851,107.353667 98.0988851,107.865869 C98.0988851,108.507155 98.6184636,109.026733 99.2598967,109.026733 Z M82.0736797,3.15781876 C94.1102866,3.16268704 106.146894,3.16755532 118.181583,3.16755532 C119.183564,3.17537408 120.648327,3.03537408 122.3478,2.88017914 C125.105608,2.62835616 128.537305,2.31457323 131.432015,2.45044257 C135.371635,2.63484721 136.436609,3.58091675 136.720592,4.12822972 C137.405545,5.44856691 137.385334,7.16353003 137.367336,8.67712329 C137.281625,15.846628 137.220107,22.9755638 137.176145,29.9224552 C132.313616,29.6504215 125.236314,30.1521496 118.95741,31.9424974 C110.142721,34.4549737 104.715914,38.893667 103.263395,44.7783878 C102.850034,46.4538145 102.792942,57.6045416 102.764765,70.9105901 C102.757094,74.4005585 102.750013,77.7432982 102.725524,79.3603056 C98.6438377,79.4081033 84.3567566,79.5749526 80.1011401,79.6245205 L82.0736797,3.15781876 Z M139.637283,97.2280822 C139.522805,89.5143625 139.404344,81.537608 139.398148,73.6834457 C139.384133,55.9580295 139.404639,32.5532455 139.688769,8.70485774 C139.708832,7.00759747 139.734502,4.89491043 138.781646,3.05897787 C136.794207,-0.77 128.667273,-0.0279557429 122.136841,0.568040042 C120.505966,0.716891465 119.096672,0.845679663 118.201941,0.845679663 L118.183648,0.845679663 C104.315092,0.845679663 90.4462403,0.839926238 76.5775364,0.834172813 C56.6187587,0.825911486 35.9801918,0.817207587 15.6807819,0.826944152 L15.6800443,0.826944152 C15.4494647,0.826944152 14.6512139,0.775605901 13.7269779,0.715858799 C2.79443836,0.012170706 1.38809484,0.392339305 0.785903056,1.42751317 C0.688832455,1.59451001 0.634986301,1.78260274 0.628790306,1.97512118 C-0.317279241,32.3251739 0.00328977871,63.2123604 0.313237092,93.0822234 C0.467989463,108.001001 0.628200211,123.427113 0.628200211,138.586207 C0.628200211,139.227492 1.14777871,139.747071 1.78906428,139.747071 L81.2507924,139.747071 C82.5659663,139.747071 85.4080105,139.88412 89.0068514,140.057313 C95.8996017,140.389536 106.201477,140.885068 115.543711,140.885068 C115.859117,140.885068 116.17349,140.884773 116.48624,140.883446 C128.248896,140.840074 135.312183,139.978683 138.079138,138.25 C139.412457,137.417229 139.710898,136.433688 139.72624,135.755079 C140.017895,122.885701 139.824196,109.842097 139.637283,97.2280822 Z" fill="var(--green)" id="Fill-1" mask="url(#mask-2)"></path></g><path d="M22.3934352,109.739229 C22.3934352,110.793728 21.5357323,111.651283 20.4816754,111.651283 C19.427176,111.651283 18.5696207,110.793728 18.5696207,109.739229 C18.5696207,108.684877 19.427176,107.827321 20.4816754,107.827321 C21.5357323,107.827321 22.3934352,108.684877 22.3934352,109.739229 M16.2478925,109.739229 C16.2478925,112.073791 18.1468177,113.973159 20.4816754,113.973159 C22.8160906,113.973159 24.7151633,112.073791 24.7151633,109.739229 C24.7151633,107.404813 22.8160906,105.505446 20.4816754,105.505446 C18.1468177,105.505446 16.2478925,107.404813 16.2478925,109.739229" fill="var(--green)" id="Fill-4"></path><path d="M114.6451,109.32957 C114.6451,110.383922 113.787397,111.241625 112.73334,111.241625 C111.679136,111.241625 110.821286,110.383922 110.821286,109.32957 C110.821286,108.275366 111.679136,107.417515 112.73334,107.417515 C113.787397,107.417515 114.6451,108.275366 114.6451,109.32957 M108.499557,109.32957 C108.499557,111.663985 110.39863,113.563353 112.73334,113.563353 C115.067608,113.563353 116.966681,111.663985 116.966681,109.32957 C116.966681,106.995007 115.067608,105.095787 112.73334,105.095787 C110.39863,105.095787 108.499557,106.995007 108.499557,109.32957" fill="var(--green)" id="Fill-6"></path><path d="M25.6289399,17.0409652 L27.7407418,18.0062129 C27.9564215,17.5335469 28.5285184,16.4755068 29.1703941,15.3047587 C30.1136607,15.9430938 30.855705,16.4929146 31.2164004,16.8506596 L32.8514057,15.2019347 C32.3350727,14.6900274 31.3739557,13.987372 30.2933446,13.2611128 C31.0020485,11.9692476 31.6150095,10.8370032 31.8706681,10.2772982 L29.7587187,9.31234563 C29.5442192,9.78220864 28.976843,10.8322824 28.3389505,11.9958019 C27.0568219,11.1910601 25.8664531,10.4839789 25.2676544,10.1321349 L24.0918904,12.1341791 C25.122196,12.7391739 26.2069378,13.3974247 27.2185079,14.0348746 C26.5043456,15.3360337 25.8860738,16.4783098 25.6289399,17.0409652" fill="var(--green)" id="Fill-8"></path><path d="M121.243614,46.8403119 L121.298493,46.6938209 C121.374615,46.4906807 121.450738,46.2875406 121.528335,46.0857281 C122.063699,44.6998904 122.565132,43.6689947 123.110084,42.8458124 C125.221296,46.775549 126.797587,51.280333 127.684057,55.9277724 C127.744394,56.2445058 127.845595,56.7748535 127.747935,57.064 C127.714299,57.1623983 127.645111,57.3676038 126.885511,57.5297323 C126.003614,57.7178251 125.071412,57.8311233 124.010421,57.8764131 L124.010421,51.084569 L121.688841,51.084569 L121.688841,57.8755279 C121.657713,57.8744953 121.627914,57.8739052 121.596639,57.8725774 C120.634784,57.8364341 119.666438,57.7580991 118.718451,57.6396375 C118.456301,57.6068872 118.205216,57.5922824 117.962982,57.5776776 C117.759252,57.5655806 117.571307,57.5542213 117.397966,57.5348957 C118.011075,55.6231359 119.674257,51.0270348 121.243614,46.8403119 M118.431075,59.9436628 C119.4453,60.0703857 120.481064,60.1540316 121.5096,60.1925353 C121.569937,60.1948957 121.628946,60.1968135 121.688841,60.1987313 L121.688841,68.4633045 L124.010421,68.4633045 L124.010421,60.1994689 C125.243425,60.1522613 126.330969,60.0221454 127.370569,59.8002698 C127.877608,59.6921349 129.421296,59.3621243 129.947071,57.8079621 C130.217777,57.0072034 130.098282,56.19302 129.964921,55.4925774 C128.97843,50.3202487 127.173182,45.3090158 124.744204,41.0001433 C124.612171,40.7658757 124.365511,40.3292055 123.865258,40.0970032 C123.514447,39.9347271 122.600242,39.6824615 121.689726,40.8471612 C120.832761,41.9438525 120.114763,43.3016607 119.36254,45.2491212 C119.281697,45.4588999 119.202624,45.6691212 119.123994,45.8799326 L119.069705,46.0252434 C119.019842,46.1581623 117.835817,49.31753 116.734257,52.3746639 C116.155079,53.9804594 115.705427,55.2633256 115.397397,56.186824 C115.210337,56.7478567 115.076681,57.1711022 114.989347,57.4816396 C114.859673,57.9407334 114.61862,58.7959283 115.400495,59.2833467 C115.404183,59.2858546 115.407576,59.2877724 115.41156,59.2901328 C116.252002,59.8015975 117.124015,59.8535258 117.824752,59.8951275 C118.039694,59.9082571 118.243277,59.9202065 118.431075,59.9436628" fill="var(--green)" id="Fill-10"></path><path d="M96.9300105,22.1441349 C95.9354057,22.1462002 94.8100948,22.1513635 93.8685985,21.8141243 C93.0243203,21.5111106 92.3495469,20.7282023 92.2276923,19.9094457 C92.1359326,19.2907313 92.3681349,18.7698251 92.9178082,18.3610369 C93.5285564,17.9065163 94.3592624,17.683313 95.2390938,17.4471275 L95.3668493,17.412607 C95.5786934,17.3555153 95.8824447,17.294588 96.2044889,17.2304152 C97.5692308,16.9580864 99.2673762,16.6189294 100.068135,15.5310896 C100.575764,14.8412687 100.687587,14.0831444 100.777281,13.474019 C100.883646,12.7532181 100.948999,12.4817745 101.26765,12.270078 C101.553404,12.0799199 101.775722,11.9827018 102.005416,11.9827018 C102.373045,11.9827018 102.760295,12.2315743 103.457787,12.746432 C104.192455,13.2885817 105.10607,13.9636502 106.311781,14.0434605 C106.699473,14.0695722 107.081412,14.0259052 107.445205,13.9134921 C108.540569,13.5765479 109.208704,12.7064531 109.745395,12.0076333 C109.799684,11.9369694 109.85412,11.8661581 109.907966,11.7972645 C110.80078,10.6535132 111.749652,9.91176396 112.72803,9.59326027 C113.769547,9.25395574 114.933361,9.46388198 115.556059,10.1048725 C115.943309,10.5025964 116.267861,11.0357471 116.612181,11.6003203 C116.882887,12.0451043 117.163182,12.5050832 117.498504,12.9386554 C118.649779,14.4268746 120.475385,13.7096143 121.566027,13.281058 C121.959768,13.1264531 122.554436,12.8942508 122.761117,12.9137239 C123.312266,12.9690453 123.853087,13.2882866 124.139136,13.7267271 C124.353635,14.0555574 124.403056,14.404746 124.285922,14.7644089 C124.268514,14.81796 124.249041,14.8732813 124.229715,14.9293404 C124.046639,15.4554099 123.666027,16.5501834 124.521517,17.3643667 C125.187587,17.9981286 126.033635,17.8631444 126.488156,17.7904152 C128.057808,17.5399199 129.855532,18.0833973 130.414795,18.7366322 C130.58961,18.94051 130.76295,19.257981 130.552729,19.9084131 C130.179494,21.062491 127.277555,21.3461791 126.038504,21.4674436 L125.816923,21.4892771 C124.259368,21.6446196 122.645311,21.591216 120.936839,21.5350095 C119.632139,21.4916375 118.283182,21.4469378 116.956649,21.5043246 C116.192919,21.5370748 115.426976,21.5705627 114.659852,21.6039031 C108.795342,21.8600042 102.730938,22.1251043 96.9300105,22.1441349 M117.056375,23.8236923 C118.294247,23.7707313 119.598799,23.8138082 120.859979,23.8555574 C122.569484,23.911764 124.336818,23.9701834 126.047798,23.7994984 L126.264658,23.77796 C128.24118,23.5851465 131.920569,23.2251886 132.762192,20.6227229 C133.288999,18.9937661 132.73549,17.8768641 132.178293,17.226137 C130.811781,15.6308156 128.13216,15.2959368 126.504236,15.4496565 C126.825838,14.42953 126.677429,13.3680969 126.083941,12.4581707 C125.408872,11.4237345 124.253909,10.730373 122.993319,10.6036502 C122.227671,10.5267903 121.459368,10.8281812 120.717176,11.1201307 C120.316649,11.2770959 119.581243,11.5674226 119.335911,11.5188872 C119.335911,11.5185922 119.335469,11.5185922 119.335026,11.5182972 C119.078925,11.1871064 118.84392,10.8010369 118.594752,10.3922487 C118.199241,9.74284932 117.790011,9.07117387 117.220569,8.48565227 C115.9647,7.19511486 113.919136,6.76346048 112.008999,7.38556797 C110.583035,7.85026765 109.260337,8.85372392 108.077787,10.3683498 C108.019958,10.4424067 107.962129,10.5179389 107.904299,10.5933235 C107.516312,11.0982972 107.150306,11.5752413 106.762318,11.6944405 C106.668936,11.7235026 106.571423,11.7344194 106.465353,11.7270432 C105.938398,11.6920801 105.427966,11.315157 104.837281,10.8787819 C103.767292,10.0886449 102.150285,8.89473551 99.9818335,10.3369273 C98.7740569,11.1398988 98.6044046,12.2936818 98.4801897,13.1357471 C98.4173446,13.5625332 98.3629083,13.9310474 98.1981243,14.1548409 C97.9308114,14.5184868 96.4026133,14.8234183 95.7499684,14.9538293 C95.3894204,15.0259684 95.0481981,15.0938293 94.7625922,15.1706891 L94.6364594,15.2049146 C93.6340358,15.4741454 92.4981033,15.779372 91.532118,16.4978124 C90.2967545,17.4167376 89.7132982,18.7844299 89.9313383,20.2509631 C90.1808008,21.9308156 91.4188198,23.4020695 93.0852476,23.9995406 C94.2906639,24.431785 95.5598103,24.4667482 96.6269968,24.4667482 C96.7326238,24.4667482 96.8360379,24.4663056 96.9375342,24.465863 C102.785522,24.4465374 108.87353,24.1804046 114.760906,23.9237134 C115.527587,23.890373 116.29294,23.8568851 117.056375,23.8236923" fill="var(--green)" id="Fill-12"></path><polygon fill="var(--green)" id="Fill-14" points="127.428664 72.8211254 116.895028 85.7198609 118.693342 87.1884594 129.226978 74.2898714"></polygon><polygon fill="var(--green)" id="Fill-16" points="129.261041 85.2632603 123.215667 89.8999305 124.628354 91.7423541 130.673728 87.1056839"></polygon><polygon fill="var(--green)" id="Fill-18" points="129.839614 116.398759 134.502396 117.981688 135.248866 115.78329 130.585937 114.200213"></polygon><polygon fill="var(--green)" id="Fill-20" points="129.958607 99.046784 134.686594 97.6699452 134.037047 95.4405669 129.30965 96.8175532"></polygon><path d="M128.437564,122.260156 L126.325909,121.294908 C126.110967,121.765066 125.543886,122.814993 124.906141,123.978512 C123.624013,123.173475 122.433791,122.466394 121.83455,122.114698 L120.659081,124.116594 C121.689092,124.721884 122.774129,125.380135 123.785551,126.017732 C123.071684,127.318891 122.453412,128.460872 122.195836,129.023823 L124.30749,129.988481 C124.52376,129.516405 125.095709,128.457922 125.737142,127.287321 C126.680556,127.925952 127.422748,128.475182 127.783739,128.833222 L129.418154,127.18435 C128.902263,126.67259 127.941146,125.970082 126.86024,125.243675 C127.568944,123.95181 128.181905,122.819418 128.437564,122.260156" fill="var(--green)" id="Fill-22"></path></g></g></g></g></g></svg>