<svg height="225" viewbox="0 0 269 225" width="269" xmlns="http://www.w3.org/2000/svg">
<defs>
<lineargradient id="pricing-shape-3-a" x1="100%" x2="50%" y1="96.594%" y2="13.534%">
<stop offset="0%" stop-color="#FFE388"></stop>
<stop offset="100%" stop-color="#FFDD6E"></stop>
</lineargradient>
</defs>
<g fill="none" fill-rule="evenodd">
<path d="M142.27 175.852c41.42 0 26.289-71.165 105.01-87.141C326 72.734 165.656-13.99 54.117 2.305c-111.539 16.293-13.82 183.539-13.82 214.86 0 31.32 60.551-41.313 101.973-41.313z" fill="url(#pricing-shape-3-a)"></path>
<path d="M196.203 95.737c.424-.616.86-.6 1.309-2.66 1.555-.667 1.843 3.29 3.257-.072-.598 1.52.38 1.149.323 2.314.15-.095.203-.88.364-.869.311.495.796.576.388 2.784-.458-.126-.896-.084-1.221.766-.141-.699-.065-1.912-.326-2.317-.555-.43-1.415 1.976-1.476-.176-.206.176-.027.584-.174 1.35-.653-1.661-1.732.556-2.576-.652a7.395 7.395 0 0 1-.306.795c-.24-.665-.252-1.626-.765-.95.171-1.44.495-.14.936-1.207-.111-.745-.615-.606-.708-1.38.597-1.303 1.077.656 1.572-.265-.334 1.145-.422 1.842-.597 2.539zm-41.108 58.332a8.462 8.462 0 0 1-.013.087c-.261.162-.429.934-.732.835-.099-.597.186-2.143.084-2.737-.789-.011-1.137 1.343-1.434-.606.981-.94 1.473-.13 2.466-.648-.337.8-.234 1.478-.308 2.477.287-.46.677-.75.769-.091-.227.49-.635.967-.832.683zm-6.09-76.993c.08-1.594 1.04-2.625.535-3.541.258-1.113.816-.099 1.19-.37-.413 1.353-.401.308-.863.906.024 1.31.579.293.525 1.067-.068.523-.123.77-.174.867.125.054.095.521.05 1.014.099.099.14-.174.183-.468.408-.102-.477 1.359-.036 1.46-.398 1.452-.54-.609-.293-1.974-.11-.101-.233-.541-.468.02-.012.62.054 1.04.273 1.033-.231.7-.537.895-.864.91a4.137 4.137 0 0 1-.061-.846c-.553.945-2.115 1.721-1.996-1.28.117-.077.1.204.072.494-.09.655.687.254.666-1.385.123.135-.02.96.147.987.414-.275-.006-1.04.21-1.925.51-.407-.099 2.093.114 2.448.567-.916.272.64.79.583zm-23.88 74.39c-.273 1.57-.981.416-1.093.937-.204-1.177.613-1.509 1.054-1.375.156-.454.355-.632.575-.671-.116-.954-.472.313-.571-1.09 1.003-1.33 1.678-.032 2.785-1.267.116 1.039-.087.65-.23 2.043.436-.063 1.496-.253 1.34 1.682-1.376.079-2.928.71-3.86-.258zm47.29-59.21c-.134.05-.26.152-.31.737-.375.156.405-2.339.03-2.186a2.58 2.58 0 0 1 .1-.295c-.07-.142-.153-.256-.235-.37.074-1.583.377-1.497.543-2.427.015 4.256 1.09.171 1.014 3.601.374-.04.64-.84 1.018-.874.015-.452-.42-1.373-.457-.556-.178-.792.567-1.95.757-.908.193-1.682-.343.027-.156-2.009-.27-.122-.457.352-.561 1.428-.162-1.81.751-3.635 1.165-4.347.392-.321.144 1.009.398 1.042.408-1.473 2.968-1.605 2.903.841.475-.177.932-2.375.776.092.282-.104.414-1.284.619-1.923.383.397.732.886 1.17 1.137 1.233-2.739 2.036 3.054 3.6-.575.12 1.526.613 1.049 1.158.138.328 1.672-.99 2.002-.739 2.907-.168 1.379-.214-1.213-.377.95-.677-3.188-2.936.074-3.181-2.87-1.089 2.816-1.72.9-2.695.682-.754-.165-1.94 3.13-1.744-.706-.41 1.712-.493 1.107-1.134 1.859-.181 1.045.077.96.27 1.033-.387.544-.66 1.923-1.131 1.858.128 1.948 1.48-.938 2.105-1.247-.404.447-.69 2.608.025 1.996-.092.697-.184 1.391-.043 1.49-.377 1.24-.969.92-1.462 1.323.132-.86.352-1.095.628-.926-.061-2.125-.962 2.014-1.027-.12-.404.404.26 1.147-.233 1.969-.619-2.837-1.272-2.436-2.912-1.837.056-.344.094-.643.118-.906zm-12.414 44.182l-.001.002.002-.018c.006-.149.023-.297.05-.438l.113-.984.335.038a.212.212 0 0 1 .12-.038c-.054.634-.126 1.15-.222 1.485l.1.012c-.13.75-.182.587-.243.319-.067.09-.143.116-.23.065a2.44 2.44 0 0 1-.024-.443zm6.193-70.532a.31.31 0 0 1-.093.049c-.014.067-.03.165-.05.3a.96.96 0 0 1-.05-.284.88.88 0 0 1-.256-.046c.018.741.243 1.244-.147 2.075-.117-.51.081-2.052-.324-.454-.024-2.07-1.497-.1-1.245-2.208.348.338.519-.377.813-.336.087.397-.159 1.52.219 1.272.315-.2-.072-.66.291-1.224.144.16.102.744.267.865-.106-.961.17-.609.549-.626.259-.472.696-.515.39 1.026-.224.382-.3-.193-.364-.41zm-28.04 75.453c-.358.009-.894.556-1.154.503.162-1.119.366-1.971.564-2.862.277 1.028.506.715.988.636l.138-.636c.276.183.384.813.819.576-.264 2.418-.966 1.794-1.509 2.274.053-.149.104-.314.154-.49zm-6.084-85.756c-.49-.016-.775-.576-1.07-1.102.309-.791 1.042-.635 1.17.395.086-.61.158-1.274.096-1.896 1.029 1.628 1.53.166 2.388 1.907-.144 1.086-.444 1.01-.588 2.093-.135-.116-.018-.545.05-.535-.341-1.342-.902-.086-1.268-.15.042-.916.195-.996.357-1.043-.177-1.508-1.008-.1-1.17 1.489-.066-.28-.029-.686.035-1.158zm-5.319 13.626c.168-.256.312-.472.119-.784.162-1.295.147.715.507.056-.37 3.16.48.8.683 2.113.15-1.335.891-2.36.807-.422.243-.05.252-1.691.456-1.985.621 1.385 1.077-.05 1.8 1.216-.27.478-.96 1.013-.46 1.982-.131 1.125-.251-.685-.632-.07.531 1.839-.852.204-1.089 1.92.177 1.107 1.113-.556.43 2.079.326.55.335-1.094.455-1.982.426 2.96 2.073-.935 2.424 1.285.189-.131.237-1.25.333-2 .14.462.45.456.174 2.056.86-1.966.62 1.65 1.77.197-.19-1.557.395-2.988.59-4.517.252.031.021 1.388.402 1.063-.579.75-.537 1.654-.489 3.507.327-.619.483-2.416.969-1.928-.498 1.325-.231 1.24-.312 3.016-1.008-1.67-3.173 2.488-3.614-.907-.951 2.004-2.6 2.57-3.033-.334-.41.397-.219.74-.33 2-.492-2.153-1.41.341-1.664-1.203-.303 1.497-.891 1.047-1.038 1.413-.12-1.413 1.029-1.429 1.239-3.426.227 1.654 1.007.45 1.517.169.27-2.45-.384-.672-.48-1.582-.204-1.319.396 1.185.405-1.478-.23.684-.642.15-.783 1.434-.276-.862-.84-1.8-1.19.382-.121-.07-.155-.38-.161-.765-.226.093-.434-.417-.453-1.277-.207.296-.347 1.008-.462 1.914-.402-1.416-1.038-.055-1.205-2.086-.918-.218-1.408 2.336-1.922 4.715-.119-.978-.173-2.12-.514-2.509.25-1.189.423.719.897.094.067-1.325.025-1.226.049-2.946.949.175 2.193-.915 3.08.314.311.389.15-2.304.46-1.914.138.268.205.722.265 1.19zm-3.365 26.079c-.163-.884-.11-2.364-.386-2.932.399-1.333.633.736 1.284-1.376.069 2.379-.186 2.37-.507 5a.282.282 0 0 1-.187-.117c.072.383.09.91.038 1.625-.174-.936-.651-1.053-.627-2.508.15.047.28.143.385.308zm59.752 15.496a2.45 2.45 0 0 0-.138.068 5.09 5.09 0 0 1 .037-.431c-.097-.57 0-1.375.25-2.441.44.065.26.825.074 1.845.153-.053.31-.092.368-.845 1.518 1.897.628 1.295-.517 1.772l-.018.153a1.275 1.275 0 0 1-.056-.12zm1.595-10.709c.495-.246.958.01 1.334.496-.672.588-1.172.704-1.592.548-.494 1.28-1.114-.388-1.475-.368.696-1.11 1.191-.153 1.749-.771l-.016.095zm-19.484 14.913c.212-.067.486.308.684.136-.336 1.539-.699.429-.933.378l.005-.03c-.353.02-.598.788-1.005.41.06-1.323.36-.939.471-1.902.35.102.88-.264.778 1.008zm-1.487 7.743c1.064-.48 2.02-1.123 2.947-.482-.824 2.11-1.09-.04-1.834.7-.25 2.47 1.41.2 2.125 1.09-.117.496-.386 1.082-.326.412-.238.414-.041.722-.44 1.276-1.381-.684-2.274 1.407-3.234-.76.052-.393.288-.695.46-1.023-.218-.022-.397-.147-.46-.572.099-1.338.519-.399.666-1.392.065.167.093.426.096.75zm-2.747-59.922c-.836 1.678-1.367-.246-2.015 1.17.651-2.44 1.345-2.116 2.166-1.739.23-.49.58-.227.647.292-.312 1.176-.531.804-.813.396l.015-.12zm-8.537 9.342c.112-.243.224-.265.34.184-.492 1.363-.351 2.64-.678 4.099.027.779.201 1.145.525 1.106-.606 1.312-1.065-.673-1.665-1.24.171-.591.312-1.367.396-2.566.333 1.246.604.043.858-.892-.076.1-.158.163-.254.14.09-.687.174-1.362.036-1.461.243-1.437.216.495.504.057l-.062.573zm-2.146 8.993a.506.506 0 0 1 .28-.164c-.081.567-.066.867.021.981-.05.355-.127.508-.21.542a6.517 6.517 0 0 1-.003.025c-.328.545-.361.171-.345-.397a1.207 1.207 0 0 1-.075-.239c.03-.122.062-.229.096-.322.017-.466.02-.915-.096-1.043.159-1.122.585-.216.633.069-.057.47-.195.36-.309.456l.008.092zm-2.015 3.79c.07-.178.128-.436.148-.95.031-.01.054.002.069.034l.006-.033c.282-.06.357.435.219 1.488-.182.488-.266.444-.351.288-.011.29.036.427.225.193-.159 1.128-.585.22-.633-.069.027-.24.067-.395.112-.515a.188.188 0 0 0-.112.019c.132-1.233.162-.576.309-.453a.04.04 0 0 0 .008-.001zM23.816 86c-.216 1.673-.39 3.574-.816 4 .147-2.074.324-3.972.816-4zm-2.787 50.222c-.174 1.557-.729 3.24-1.029 1.866.153-1.659.852-2.526 1.029-1.866zm1.925-18.844c-.246.807-.813 1.617-.954.894.195-1.083.795-1.722.954-.894zm-.642-4.44c.462-.434.78-1.75 1.284-1.938-.231 1.337-.429 2.876-.861 2.992-.078 2.206.732-.686.468 2.086-.534-.5-.774.787-1.203.922.387-1.17.171-2.495.312-4.062zm-1.903 30.014c0-1.353-.522-1.194-.387-2.952.384.249.663.804.387 2.952zm.052-8.925c-.129.21-.258.417-.327.973-.351-.933.087-2.453.189-4 .225.482.264 1.507.138 3.027zM27.699 76c-.099 1.548-.381 2.07-.699 2.376.174-1.143.351-2.238.699-2.376zm2.838.017c-.195 1.962-.042 1.092.3.999a7.378 7.378 0 0 0-.246 1.44c-.321.177-.201-.906-.591-.534.129-.918.216-2.076.537-1.905zm9.754 98.003c.561-.276.168 2.469-.291 1.926.132-.423.228-1.08.291-1.926zm26.327 5.586c-.351-.375-.207-.363-.618-.057.3-1.524.879-2.568.618.057zm.255 1.405a7.422 7.422 0 0 0-.258 1.437c-.15-.93-.249.261-.615-.06.126-1.497.504-1.404.873-1.377zM68 182.357c.108-1.66.903-1.974.615.06l-.615-.06zm1.999-4.145c-.066.864-.246 1.002-.306 1.917-.309.04-.6.018-.693-.552.264-.9.855-2.06.999-1.365zm2.754-.212c-.066 1.845-.624 2.232-.753 1.389.237-.543.432-1.365.753-1.389zm5.126-7.72c-.135 1.464-.549 1.164-.879 1.38.117-1.683.774-1.968.879-1.38zM90.405 56.093c.522-.532.246 1.394.669 1.18-.231 1.669-.18 1.042-.231 2.727-.438-.556-.594-.088-.843-.638.486-2.183.351-.352.405-3.269zm2.657 1.052c-.135 1.722-.762.423-.867 2.35-.369.173.054-1.81-.195-1.969.198-1.08.732-.12 1.062-.38zM97.777 57c-.156 2.088-.498 1.839-.777 1.392.183-.948.465-1.26.777-1.392zM87 165.45c.288-1.643.492 1.92.666-.39.147.173.111.798.276.916-.105.579-.291.678-.387 1.306.204.447.816.107.456 2.718-.432-.562-.057-1.73-.798-1.857.564-2.38-.138-.916-.213-2.693zm1.99-.754c-.216.972-.576 1-.96.882.075-.558.057-.86-.03-.978.324-1.464.591.228.99.096zm.721 2.352c-.114 1.44-.606 1.662-.711.91.123-1.057.411-1.009.711-.91zm2.993-5.904c-.348.477-.606-1.41-1.011 1.362-.411.312-.279-.87-.693-.555.204-1.851 1.695-2.877 1.704-.807zM103.89 57.55c-.261-.6-1.011.126-.873-1.551.378 1.008 1.053-.963.873 1.551zm.013 3.449c-.267 1.506-.603 2.013-.903 1.374.291-.507.564-1.164.903-1.374zm-5.769 97.336c-.351.627-.69 1.332-1.134 1.35.198-1.563.96-2.103 1.134-1.35zm-1.05 5.829c.48.165 1.036-.963 1.018 1.077-.252-.384-.663-.405-1.038.384-.138-.087-.015-.891.02-1.461zm13.621-107.143c-.567.228-.759-.549-.693-2.022.25.63.783.495.693 2.022zm1.366-.413c-.336 2.004-.67-1.467-.858.888-.402.141-.105-1.596-.138-2.448.636-.29.765.768.996 1.56zm-8.924 95.778c.585-.366.564-.057 1.041-.387.021.723.033 1.239.054 1.959.213-.465.453-.756.642-1.395.168.126-.105 1.449.102 1.47-.261 1.275-1.035 1.005-.945-.582-.402 1.251-.609.717-1.041.381l.147-1.446zm13.432-96.368c-.093 1.263-.204 2.418-.579 1.887.147-.921.258-2.067.579-1.887zM123.422 82c-.037.963-.275.593-.354 1.272.267 2.045 1.226-1.009 1.932-.23-.753 2.637-1.432 1.711-2.11 1.958.167-1.49-.514-.692-.49-1.798-.186.175-.014.558-.133 1.296-.357.03-.27-1.143-.222-2.206.465.891.849.153 1.377-.292zm-8.084 74.737c-.336.195-.654 1.104-1.338.84.423-1.857 1.041-1.989 1.338-.84zM118.375 119c.435.378-.258 1.593.177 1.971-.108.657-.357.369-.552.432.3-1.5.099-1.281.375-2.403zm.774 4c-.561-2.29.69-1.484.102-3.313.789-2.464.519 2.424-.102 3.313zm7.47-66.99c-.153.642-.366.873-.609.918.18-1.416-.132-1.521.048-2.928.417.066.087 2.1.561 2.01zM123.131 108c-.399 1.538-.042 1.09-.18 2.652-.438.564-.837.482-.951-.534.6-1.937.501.115 1.131-2.118zm-3.79 44c-.105 1.212-.348 1.494-.576 1.896-.423-.675-.297-.816-.765-1.062.387-1.605.699-.06 1.341-.834zm7.214-67.462c-.108.651-.357.363-.555.43.225-1.522-.075-1.915.306-2.899.588-.522.012 2.061.249 2.47zm2.636-20.148c-.192 1.689-.717.537-1.191.363.276-.423 1.128-1.24 1.191-.363zm-5.036 50.949c-.363.6-.795.732-1.155 1.344.165-1.86.999-1.96 1.155-1.344zm1.156 1.661c-.132.75.003.849.15.912-.435 1.349-1.026 4.98-1.461 3.885.081-1.522.546-.69.705-1.728.084-1.039-.525-.319-.552.395-.15-1.458.702-3.211 1.158-3.464zm-3.28 35c-.21 2.823-.592-.324-1.02 1.353-.106-2.028.611-.939 1.02-1.353zm10.983-87.914c-.423.774-.93 1.014-1.014-.108.273-1.755.966-.786 1.014.108zm-.874 5.201c-.327 1.113-.678 2.1-1.14 2.32.18-1.969.918-3.196 1.14-2.32zm-3.264 41.607c-.246 1.185-.408-.717-.876-.093.36-1.46.675-.612.876.093zm5.652-41.388c-.447.369-.309-.798-.528-1.032.207-1.071.747-.153.528 1.032zm-8.259 88.717c-.297 1.785-.96 1.968-1.269 1.335.396-1.707.843-1.76 1.269-1.335zM131.456 111c.126.183.228.882.024.972-.048.477.111.396.198.513-.228.672-.597 1.047-.678.417l.456-1.902zm4.66-42.748c-.36 1.098-.777 1.788-1.116.861.174-1.605 1.05-1.062 1.116-.86zm-5.336 46.176c-.204.831-.411 1.653-.78 1.38.087-1.845.66-2.226.78-1.38zM134.786 76c-.078 1.89-.705 1.935-.786 1.38.126-1.362.459-1.359.786-1.38zm2.101-10l.633.066c-.108 1.206-.357 1.473-.51 2.385-.273-.318-.504-.75-.963-.591-.3-1.239.936.768.84-1.86zm-4.653 41l.252.024c-.426.504.27 2.705-.486 2.976.039-.496.12-.756.228-.84.003-.624-.069-1.06-.222-1.32.066-.336.18-.41.228-.84zm-3.716 50.107c-.351 1.509-.936 1.4-1.518 1.308.252-2.184.972-1.143 1.518-1.308zm8.544-87.96c-.285 2.222-.756.84-1.062.377.21-1.077.732-.117 1.062-.378zm1.595-.573c.084-.945-.321-2.352-.657-1.044.27 1.782.855 2.541 1.596.654-.159-1.068-.684-.318-.939.39zM129.717 149c.267.3.315 1.926-.063 2.928.03-1.113-.906.351-.588-1.53.114-.075.096.201.072.495.072-.996.327-.378.579-1.893zm12.705-82c-.375 1.086-.897 1.212-1.422 1.311.285-1.683.897-1.215 1.422-1.311zm-11.266 86.546c.792.012 1.812-1.392 2.358.258-.693 1.824-1.638.735-2.514 1.19l.156-1.448zm11.495-100.489c-.111 1.203-.36 1.476-.513 2.388-.33-.666.042-1.005.006-2.445l.507.057zm-5.057 61.497c.027-1.104-.435-.912-.594-1.53.183-.846.234-.039.375.042.219-.186.273-1.506.606-.915-.024 1.536-.078 1.29-.387 2.403zM135.279 132c.297.018.279.867.699.561-.819 1.332.156.963-.639 2.373-.342.108.105-1.884-.339-1.506.048-.777.207-.813.279-1.428zm6.657-52.376c-.369.837-.672.78-.936.384.405-.219.972-1.893.936-.384zm-3.426 28.386c.726-.14.309 1.191 1.152 1.098-.498 2.877-1.038-.708-1.662 1.29.066-1.5.495-.546.51-2.388zM136.246 135c-.375-.947.252-4.16-.201-3.802-.222-.99.444-1.603.603-.886-.186 1.574.11 2.707-.402 4.688zm-1.036 18l.495.054c-.246.546-.363 1.989-.705 1.872l.21-1.926zm10.583-87c-.333 2.175.43-.699.096 1.473-.426.195-.35-.918-.834-.576-.276-.57.564-.564.738-.897zm-3.406 28c.093.561.078 1.404.525 1.038-.225.996-.531 1.428-.912 1.362.075-1.167.345-1.023.387-2.4zM139 152.997c-.83 1.104-2.185 2.07-3 .639 1.11-1.836 1.986-2.235 3-.64zm-.895-6.526c.096.102.138-.174.177-.471.12.03.033.6.021.978.33.081.336-.777.495.054-.132 1.065-.549.15-.798.402l.105-.963zm3.886-28.375c-.228 1.263-.684.957-.891 2.346-.132-.336-.12-1.056-.04-1.959.313-.123.556-.71.93-.387zm-.49 8.254c-.336-.08-.339.78-.501-.057l.105-.966c.336-.77.156.063.501.057l-.105.966zm.354 7.65c-.294 1.974-.45.933-.855.888.231-.675.528-.87.855-.888zm1.55-17.988c.217-.096.169.416.325.455-.333.862-.438 1.208-.444 2.496-.702.395.135-2.507-.057-2.543.02-.356.099-.39.177-.408zm3.88-34.627c.408 1.368.72-.702 1.317-.342-.114 1.203-.366 1.47-.522 2.385-.48-.735-.585-.585-1.08-.606.051-.78.21-.816.285-1.437zM151.543 51c.06.528.45.201.219 1.494-.372-.291-.612.996-.762-.084.075-1.167.552.327.543-1.41zm-1.973 29c.486.204-.327 1.662.222 1.488-.111 1.515-.444 1.518-.792 1.38.243-.597.327-2.271.57-2.868zm-8.613 79c-.291.834-.771 2.91-.957 1.854.183-1.596.558-1.809.957-1.854zm10.952-92.421c-.312.48-1.164 1.614-.834-.579.384.687.468.015.834.579zM155.25 51c-.348 2.352-.675.951-1.251.837.312-.981.909-.066 1.251-.837zm-12.074 99.982c.123 0 .162-.58.231-.954.468-.288.258 1.743-.021 2.445-.243-.033-.009-1.338-.387-1.02.06-.87.228-.981.177-.471zM152.975 67c-.096 2.175-.654 1.218-.975 1.842.153-1.779.624-1.407.975-1.842zm-6.171 59.636c-.135 1.068-.555.144-.804.396.081-1.785.756-.798.804-.396zm4.78-42.579c-.07 1.491-.447.885-.52 2.382-.14-.432-.011-1.572.016-2.439l.504.057zM155.288 51c.27 2.097 1.566-.252 1.743 1.665-.72.426-1.47 1.161-2.031-.228.111-.384.219-.774.288-1.437zm-2 39c.411.177 1.062-.258 1.203.621-.102 1.86-.669.501-.774 2.358-.174-1.413-.372-.996-.717-1.545.108-.381.216-.768.288-1.434zm-4.086 56l-.216 1.926c-.846-.993-1.191.747-1.986-.222.849-2.889 1.338.399 2.202-1.704zm.271-3.413c-.285 1.743-.978.567-1.473.81.423-1.224 1.419-1.989 1.473-.81zM155.491 94l-.27 2.415c-.453-.411-.861-.939-1.221-1.602.525-1.416.747-.336 1.491-.813zm-6.567 58.384c-.258.72-.798 1.299-.924.384.273-.594.813-1.173.924-.384zM155 89.697c.414-.526.681-1.957 1.224-1.656-.387 1.645.243.881-.018 2.225-.471-.632-.414 2.08-.846 1.697.486-2.19-.21-1.582-.36-2.266zm-1.041 19.652c-.324 1.821-.546.297-.933.384-.21-.408.936-1.188.933-.384zM151.158 141c.09.099.069.495.195.51-.069.402-.003.462.069.498-.387.597-1.185 1.377-1.422.324.285-2.427.816 1.374 1.158-1.332zm-.993 4.414c1.101.16 2.037-.846 2.661-.189-1.263 2.748-1.659.894-2.826 1.635l.165-1.446zm7.771-60.011c-.321 1.824-.546.3-.936.387.129-1.893.45.303.936-.387zm-7.835 66.766c-.234 1.245-.915 1.899-1.101.858.138-1.914.747-.495 1.101-.858zm.899.606c.174-1.944 1.23-2.787.744.084l-.744-.084zm5.182-28.61c-.246 1.17-1.023 1.207-1.182.352.258-1.08.807-.09 1.182-.351zM160.453 75c-.195 2.683 1.149.171.882 3-.384-.86-.699-.74-1.335-.542.399-.977.297-.86.453-2.458zm-7.601 79.402c-.153 1.23-.525.912-.852.879.159-1.428.759-1.57.852-.88zm1.336-7.458c-.597.318-.672-.73-1.188-.624.249-2.115 1.299-1.527 1.188.624zm.433-7.668c-.363-.33-.486.86-.621-.07.27-.725.894-2.342.621.07zm8.002-60.035c-.528 2.844-.798-.9-1.623.795.285-2.052 1.11-.342 1.623-.795zM153.335 156l-.219 1.935c-.447-.471-.999.615-1.116-.126.312-1.584.84-1.56 1.335-1.809zm7.884-71.934c.426-.306.405.55.702.57-.207 1.161-.6 1.017-.921 1.362l.219-1.932zm.781-6.681c.057-1.152.063-2.265.528-2.385-.162.909-.159 2.925-.528 2.385zm-6.926 59.133c.273.231.369-.849.675-.414-.063 1.02-.231 1.272-.345 1.92-.339.096-.513-.234-.33-1.506zm.66 19.945c-.141-1.86-1.515-1.968-1.734-.198.042-.288.081-.564.18-.465.132 2.235 1.047.696 1.554.663zm8.449-85.621c.312.181.489-.607.597-1.842.447 1.14.654.81 1.335.628-.183 1.132.111 1.052-.147 2.372-.621-1.648-.945-.988-1.968-.7.024-.4.099-.444.183-.458zm1.816-8.69c-.438 1.147-.54 1.38-.999.862.108-1.845.672-.543.999-.861zm-9.85 90.315c-.263-.099-.128-1.245.028-2.439.468-.29.252 1.74-.027 2.44zm11.297-89.82c-.252 1.058-1.128.692-1.446.317.441-1.89 1.302-.44 1.446-.318zm-2.679 35.744c-.906-1.092-1.059 5.435-1.767 3.1.369-1.337.87-3.553.009-3.293.186-.35 1.899-2.624 1.758.193zm-1.937 26.583c-.621 2.524-.831-.497-1.8.243.051-.675.213-.71.288-1.246-.216.102-.162-.415-.318-.454 1.095-1.78 1.017 1.62 1.83 1.457zm3.556-34.913c-.45 1.701-.831-.17-1.386-.159.402-1.5 1.074-.906 1.386.16zm.355-12.04c-.102 1.678-.642 1.68-.741.892.186-.705.438-1 .741-.891zm-7.5 74.979c.043 2.448-.72.747-1.226.84-.18-.486 1.344-.777 1.227-.84zm6.324-53.55c-.36.627-.327-1.302-.501-.06-.363-1.242.96-2.406.5.06zM170 78.694c.414-.744.906-.936 1.188-.35-.447 1.685-.594.074-1.188.35zm4.466-15.08c-.843 1.392-1.497-.192-2.379 1.68.261-.678.402-1.848-.087-1.476.3-1.656 2.073-.303 2.466-.204zm-1.204 7.926c-.681 1.371-1.407.885-2.262.72.768-2.04 1.722-1.074 2.262-.72zm-6.515 46.532c-.666 1.44-.918 4.122-.627-.072l.627.072zm-4.686 35.435c.43.482.444-2.108.91-1.375-.094.527-.286.303-.36.942.071.512.137 1.015.206 1.508-.093 1.127-.423.497-.543 1.418.01-1.039-.432-.906-.213-2.493zm3.8-26.507c.186 1.689-.57 1.401-.861.876.327-1.14.759-.144.861-.876zm2.003-13c-.051 2.235-.786 1.452-.864.879.219-.783.591-.462.864-.879zm-.39-7.121c.282.555.552.378.864-.879.132.672.291 1.284.225 2.469-.594-.393-1.023.336-1.563.312l.474-1.902zm-4.622 51.181c-.264.663-.738 1.725-.852.88.156-1.234.525-.91.852-.88zm4.802-41.054c.111.78-.318 2.208-.654 2.37.408-.96.036-2.481.654-2.37zm2.225-15.359c-.321 1.833-.708.411-.879-.102.357-1.437.504.462.879.102zm-2.964 29.636c-.108.549-.36 1.2-.306.453-.156.06-.207.867-.294 1.431-.069-.264-.141-.525-.315-.525.153-1.683.816-1.944.915-1.359zm-1.118 16.738c-.648 1.401-1.275 1.302-1.797.282.531-.81 1.602-2.322 1.797-.282zm8.153-67.496c-.387 1.143-1.425.363-1.95.264.612-1.626 1.308-.228 1.95-.264zM172 87.43c.111-.381.222-.771.294-1.431.063.345.258.786.378.042.117-.078.099.204.072.495-.039.327-.075.645-.114.966-.369-.33-.495.861-.63-.072zm-6.313 70.192c-.291-.021-.267-.87-.687-.57.126-1.812 1.074-1.062.687.57zm.313-9.189c.057-.78.213-.816.294-1.434.213.234.516.237.327 1.506l-.621-.072zM173.21 89c-.297-.41.522-1.659-.21-1.284.114-.825.414-.496.477-1.636.39-.517.171 1.682.447.465.324.388-.258 1.331-.282 2.075-.117.067-.096-.173-.069-.426-.138.176-.273.34-.363.806zm-7.286 69.435c-.18 1.074-.633.129-.924.381.336-1.542.69-.435.924-.381zm2.06-10.797c-.117 1.845-.66.546-.984.864.051-1.809.96-1.836.984-.864zM171.168 106c.261.453.882-.021.708 1.551-.126-.984-.564-.303-.876-.102l.168-1.449zm-1.286 25c.045.36-.408 4.371-.882 3.972.276-1.439.573-2.733.882-3.972zm-1.534 16c.687.486 1.407.186 1.686.687-.609 2.238-1.092.789-2.034 1.23.084-.87.273-.999.348-1.917zm10.174-83.4c-.435.31-.09-1.355-.522-1.043.168-.936.99-.76.522 1.044zm-7.418 83.4c-.147 1.911-.747.483-1.104.849.333-1.347.474-.576 1.104-.849zm7.892-56c.27 1.146-.576 1.728-.858 1.854-.006-.435-.009-.873-.138-.996.546-2.358.6 1.296.996-.858zm5.341-22.914c-.402 1.725-1.938.75-2.337.216.585-.594 1.98-.108 2.337-.216zm-6.131 41.878c-.864 2.013-.741-.861-1.206-1.611.582-1.254.834 1.209 1.206 1.61zm2.571-31.961c-.21 1.317-.369 2.965-.777 2.997.189-1.426.351-3.076.777-2.997zm-.841 31.277c-.255.546-.474 1.356-.801 1.374-.006-.435-.009-.876-.135-.996.372-.83.675-.777.936-.378zm1.739-14.233c-.114 1.272-.363 1.56-.675 1.383.111-1.269.36-1.56.675-1.383zm.588-1.054c-.546.142-.066-2-.102-2.993.297.413.225 1.644.102 2.993zm-.567 7.4c-.315.03-.615.003-.696-.57.225-1.026.939-1.353.696.57zm.615 3.783c-.507 1.305-1.116.768-1.311.336.306-1.08.894-.075 1.311-.336zM184.3 80c.633.486.906.972 1.65 1.173-.564 1.857-1.389.432-1.95.258.06-.783.219-.819.3-1.431zm-2.686 44.187c-.546 1.1-1.17 1.236-1.614.789.327-1.791 1.077-.513 1.614-.79zM186.933 86c-.135 1.743-.549 1.425-.933 1.359.366-2.061.486-.684.933-1.359zm3.093-20.865c-.09-1.014-.501-1.19-1.026-1.098.243-1.524 1.602-1.536 1.026 1.098zM187.921 79c.336.039.09 1.554.456 1.521-.387.798-.861.945-1.377.813.279-.984.654-1.266.921-2.334zm-3.9 46.554c-.252.858-.693.297-.987.858-.126-.945.129-1.212.288-2.412.087 1.635.336.771.699 1.554zm4.101-37.11c-.117.623-.309.725-.426 1.412-.426.303-.267-.879-.696-.573.366-2.199.879-.924 1.122-.84zm-.217 4.527c-.498 2.238-.621-1.014-.88-.108-.191-1.773.745-.336.88.108zm-2.038 17.157c-.369 1.56-.426 1.182-.867.873.09-1.755.573-.612.867-.873zm.742 3.898c.126.858-.267 1.896-.609 1.884.117-1.26.297-2.067.609-1.884zm1.008 10.205c-.303 2.055-1.104.33-1.617.783.507-2.316 1.113.198 1.617-.783zm6.514-54.12c-.048 2.506-.723.109-1.131.844.315-2.214.909.273 1.131-.843zM189.174 104l.753.093c-.651 1.692.696.198.21 2.469-.939.864-.513-2.106-1.137-1.116l.174-1.446zm-.058 17.177c-.312.735-.744.564-1.116.843.153-1.911.753-.48 1.116-.843zM195 64.92c.159-1.227.612-1.086.69-.405-.162 1.227-.606 1.08-.69.405zm.065 18.555c-.273 1.692-.822.684-1.065.363.366-1.92.504.126 1.065-.363zm-2.871 23.712c-.6-.44-.834.162-1.194-.633.204-.606 1.47-1.083 1.194.633zm4.478-40.152c.111.786-.33 2.211-.672 2.37.141-1.386.303-2.637.672-2.37zM198 71.943c.414-1.12.762-2.65 1.299-2.943-.27.96-.552 1.856-.792 3l-.507-.057zm-3.247 36.698c-.261 2.181-.597.087-.753-.093.075-.792.87-.696.753.093zM200 86.653c-1.271 3.429-1.302-.495-3 .597.807-2.454 2.158-.525 3-.597zM195.828 99c.589 0-.164 1.239-.18 2.544 1.94-.752 3.253-.503 4.352.531-1.612 2.16-3.218-.23-5 .415.27-1.2.538-2.415.828-3.49zM201 67.933l.234-1.926c.351-.108.204 1.044.144 1.974l-.378-.048zM203.947 72c-.048 1.011.171 1.608-.168 2.427-.363.246-.432-.249-.204-1.494-.687 2.421-1.179.558-1.575.294.801-.843 1.053-.618 1.947-1.227zm.085-7.934c-.243 2.216-.33-.28-.627.934.504 2.238.35.283-.354 3-.111-.75-.033-1.982.162-3.532.219-.554.516-.508.819-.402zm-1.706 22.661c-.3 3.045-.552.741-1.119 1.818.054-1.128-.117-1.695-.207-2.469.309-.33.645.51 1.326.651zm1.349-6.713c-.222.828-.315 2.592-.675 2.364.084-.765.288-1.83.111-1.944.12-.648.366-.36.564-.42zm-1.988 21.683c1.311.243.816.732-.687.405.312-2.205.585-.423.687-.405zM205.99 71c.243.956-.297 2.81.522 1.852-.633 2.616-.639-.187-1.512.725.249-1.426.873-.266.99-2.577zm-3.797 26.423c-.312-.222-.27-2.63.3-2.409-.096 1.497-.027.94-.3 2.41zm4.878-32.907c-.225 1.074-.732.102-1.071.357.366-1.362.75-.843 1.071-.357zM203 98.36c.132-1.866.831-1.78.504.063L203 98.36zm1.09-5.447c-.176-.12-.113-3.216.358-2.889l-.357 2.89zM209.255 65c.222 1.419-.645 2.577-.993 2.814-.036-.459-.138-.762-.261-1.008.369-.975 1.014.12 1.254-1.806zM206 103.074c-.009-1.506 1.005-1.38.627.078l-.627-.078zm2.813-10.683c-.27 1.581-.561.633-.813.387.321-1.707.315-.018.813-.387zm-.333 2.657c.618-.547-.108 3.786-.48 3.952l.48-3.952zm1.747 1.95c-.453.09-.14-2.268.174-2.998.16.523-.216 2.226-.174 2.997zm5.466-3.14c-.294-.023-.261-.872-.693-.575.666-1.458.768-2.154.693.576zm5.458-4.386c-.207-.363-.171-1.329-.07-2.457.424-.168.27 1.08.07 2.457zm2.684-16.052c-.156 1.486-.654.626-.75 2.58-.129-.392-.114-1.13.06-2.213.276-.357.561-1.345.69-.367zM221.131 95c-.4-.222.225-2.047.432-3 .288.694-.375 1.871-.432 3zm3.745-15.982c-.315.756-.438 3.018-.876 2.829.267-1.119.435-3.054.876-2.829zM137.21 128.51c.279.227.366-.837.675-.406.117 1.275-.24 3.776-.024 4.793-.108.465-.657-.751-.717-1.514.069-1.47.495-.534.513-2.346-.399-.745-.261 2.119-.657 1.367l.21-1.894zm-77.592 52.604l-.618-.057c.051-1.404 1.065-2.961.501-1.416.036.501.24.525.117 1.473zm14.66-4.343c.099-.267-1.155 1.374-1.278.372.267-.702 1.107-1.968 1.278-.372zm3.132-3.335c-.255 1.737-1.032.129-1.371 1.332-.255-1.413.828-.876 1.125-1.356.033-.57-.186-.43-.324-.52.384-2.096.384.1.57.544zm8.282-2.208c.16-.911-.087-.831-.276-.89.54-.62 1.083-.357 1.311.55-.36.735-.9.423-1.1 2.07-.328.341-.367-1.548-.57-.482-.253-.408.41-1.285.635-1.248zm13.104-113.74c.291 1.597-.837.952-.759-.074-.234-1.347.702 1.119.76.075zm2.838-.834c.489.537-.576 1.263-.144 1.455-.507.153-1.275-.114-2.49-.732.348-1.77.513.138.903-1.377.288.408.672.552.747 1.536.093-1.953.54.381.984-.882zm-7.101 106.819c-.315.048-1.011.84-1.533.333.315-1.665 1.116-.141 1.428-1.806.132.105.021.489-.048.483.012.435.024.876.153.99zm2.36-3.35c-.04 1.162-.323.831-.417 1.673.247.097.409-.31.488-1.24.312 1.027.724.148 1.036 1.382-.599 2.242-.809-1.226-1.291-.118-.12.718.005.807.144.865-.252.813-.834-.058-.92-1.368-.22.04-.416.242-.556.805-.164-.2.043-1.342-.377-.892.057-.34.165-.41.207-.834-.09-.09-.128.153-.162.41.335-1.846 1.062.18 1.848-.683zm2.94-1.086c-.498 1.78-.37-1.065-.82-.57-.131-1.134.727.093.82.57zm21.672-81.032c-.108.864.045 1.035-.075 1.944-.117.081-.102-.201-.078-.495.033-.609-.2-.513-.252-.027-.282.054.12-1.719.123-2.427.072.978.9-.063.735 1.539-.258 1.419.051-1.473-.453-.534zm1.694-2.148c-.735-.583-.804 1.17-1.011 2.143-.351-1.008-.69-2.082-1.188-1.903.741.727 2.109-2.594 2.199-.24zM125.467 74l.759.078c-.063 1.809-.945 3.086-.102 3.295-.249 1.05-.813.099-1.188.354.102-.667.396-.128.48-.894-.078-1.451-.66.476-1.011-.104.339 1.039.051 2.946-.351 3.271.216-1.77.408-2.967-.054-4.255.591-1.516 1.215.717 1.467-1.745zm3.275-18.981c.176-1.792-.673-.586-.62-2.019.647.018 1.467.383 1.878 2.166-.446-.195-.866-2.336-1.236.834-.893-.033-1.255-1.499-1.764-2.154.676-1.274 1.014 1.43 1.742 1.173zm-5.567 43.442c.444-.393.705-1.395 1.056-.375-.243 2.1-.537-.639-.654 1.395-.303-.36-.885-1.014-.375-2.481.138.099.012.894-.027 1.461zm.203 9.555c.417-.186.195 1.338.477 1.515-.3 1.26-.567 1.44-.855.888.078-1.122.216-1.851.378-2.403zm-.246 8.984l.375.04c-.063.405-.174.489-.228.993.31-.134.474.128.576.566-.15 1.562-.552 3.557-.129 2.518.288 1.832-.74 2.666-.726.933.078-.582.27-.398.426-.46-.09-1.304 0-3.121-.396-3.585l.102-1.005zm1.538-6.703c.171-1.201-.447-.407-.174-1.87.312.412.396-.615.678-.396-.006 1.964-.423 3.564-.132 4.617-.11.6-.303.7-.405 1.352.006-.535.084-1.836-.42-1.893-.099-.097-.14.165-.177.441-.213-.404.48-1.574.63-2.251zm4.49-24.646c-.345-1.345-1.413.738-2.07.283-.273-.095.162-2.153.18-3.051.606-.509.714-.006 1.185-.38l-.15 1.517c.432-1.278.687-1.238 1.035-1.42-.03-.521-.237-.55-.1-1.542.769-.544.169 2.928.325 3.1-.081.575-.156.27-.126-.012-.474-.145-.087.411-.28 1.505zm-.098-19.28c.213.135.687-.434.405 1.048.315-.68.558-1.85.963-1.909-.024-.884-.351-.955-.48-1.561.183-.724.429-1.036.735-.928.186 2.307-.516 3.052-.51 4.979-.438-.356-1.431.801-1.113-1.63zM128.933 93c-.783.903-.132 1.395.249.024 1.404.804-.6 2.091-1.134 2.319-.144-.312.177-1.86-.048-1.959.141-.42.444-.369.933-.384zm-3.691 42.227c-.357.894-.88.666-1.125 2.322-.546-1.1.993-3.252 1.125-2.322zm6.034-51.715c.441-.705 0-2.337-.276-1.005.09.387.225 2.364.528 1.032l-.252-.027zm2.592-15.035c.066.35-.066 1.178.099 1.305-.31.565-.423-.077-.786 1.218-.615-.12.59-2.581-.072-2.594-.138-1.075.414.358.759.071zM132 82.696c1.221-1.65 1.377.294 2.628-.696-.852 3.879-1.5-.111-2.328 2.682-.426.201.207-2.397-.3-1.986zM131.032 107c.192.801-.666 1.536-1.032 1.353.201-1.41.777-.312 1.032-1.353zm3.198-34.627c-.075-.033-.141-.087-.075-.498.207-.357.98-1.107.71-1.875-.266.261-1.325 3.381-.635 2.373zm-4.104 81.576c.159-.3.246-1.09.474-.927.102.984-.078.618-.21 1.938l-.369-.042c.081-.558.063-.861-.021-.984.081-.54.153-.25.126.015zM135.933 137c.126 1.625.306 3.125.114 5.542-.387-.138-.618.753-1.047.354.207-.792.546-.707.711-1.772-.012-.41-.018-.823-.144-.937-.123 0-.162.547-.231.898-.531-.496.954-1.852.597-4.085zm8.08-72.863c-.05.474-.195.362-.303.456-.03 1.126.705.228.42 2.028-.102-.428-.27-.683-.579-.559-.33 2.047.195 2.299-.168 3.938-.075-.267-.15-.534-.327-.534.61-2.171-.255-1.351-.012-3.461.51.634.432-2.712.97-1.868zm.146 18.42c.177.96.651-1.195 1.188-.36-.081.563-.276.383-.429.44-.072.411-.003.462.072.498-.177.138-.501.762-.99.867l.159-1.446zM139 137.436c.048-.78.207-.817.282-1.432.12.024.033.597.018.978.249.021.303-1.299.603-.912l-.156 1.446c-.306-.093-.291-.96-.552.43-.09-.1-.072-.496-.195-.51zm2.5-13.147c-.738.813-.756-.612-1.5-.162.432-.153 1.593-2.56 1.5.162zm-.948 7.71c-.27 2.367-.165-1.122-.552.429-.006 3.27 1.929 1.278 2.049-.264-.351.117-.717.756-1.284 1.323.468-1.2-.132-.801-.213-1.488zm8.314-66c.23.3.182.776-.032 1.454 1.018-1.802 1.415-.776 2.166-.25-.739.735-1.566 1.24-2.34.711-.086.56-.068.854.018.973-.15.479-.783-.646-.663-2.01.33.03.704.341.85-.878zm-3.72 51.397c.318-.297 1.224-1.113.894 1.071.219-.186.276-1.503.606-.906-.312 2.097-1.098.9-1.587 1.776-.237-.672.333-1.779.087-1.94zm4.35-30.1c-.348 2.032-.735-.734-.309-3.297.435.133-.177 3.3.31 3.297zm3.79-23.595c.94-.85 2.14-.08 2.714-.702-.717 2.922-2.528 2.137-2.742 5.914-.542.66-.078-2.63.029-5.212zm1.256 8.747c-.207 1.71-.303-1.074-.435.441-.168-.129.117-1.443-.09-1.476-.126-1.2.468.54.525 1.035zM154 68.146c.463-2.05.886.646 1.225-1.417.144-1.815-.573 1.243-.426-.578 1.701-3.172 2.613 1.433 4.032-.53.27-.058.339.469.206 1.593.948-1.773 1.882-.463 2.963-.665-1.165 1.337-3.883 3.104-4.82-.096-.415.417-.7 1.838-.95 3.547.233-4.238-1.203-.376-2.23-1.854zm3.065 5.534c-.29-.336-.342.888-.52 1.282-.118-.123.023-.883-.138-.905-.04 1.041-1.63 1.112-1.283-.584-.488-.334-.604 1.76-1.124 1.216.316-1.602.512-.358.555-2.61.687-.14.906.872 1.297 1.473.285.025.098-1.202-.138-.904.06-.716.897-.804.552.502.53-2.166.963-.32 1.734-1.15-.043 1.798-.428 1.366-.555 2.61-.095-.585-.382-.63-.538.39-.158-.21.115-.557.158-1.32zm2.71 18.564c.43-2.663-.76-.456-.674-2.86-.113.08-.182.442-.307.43.104 1.583-.78 1.127-.63 3.186-.385-1.158.027-2.39.042-4.64.45.237 1.465 1.594 1.934-.26.34-2.212-1.337-2.115-1.504-.159-.451-.75-.045-1.597.25-3.225.027 1.05 1.618 1.066 1.994-.716.027 1.848-.394 4.05-.725 5.033 1.19-.35 2.662.217 4.011.437.284.045 1.066-1.452.767 1.012-1.88 1.768-2.981-2.048-4.784 1.802-.487.032 0-.376.042-1.391-.159.33-.29.815-.415 1.351zm3.044-30.242c-.108 3.129.58-.414 1.14.126-.672 2.469-2.037 3.59-1.956.27.348.393.52-.441.816-.396zm1.264 5.876c-.486-.609-.693-.165-1.083-.612.693-2.868.996.087 1.701-.3.207 1.581-.657-1.1-.618.912zm2.484 1.093c.123.14-.024 1.007.141 1.032.15-.106.195-.988.363-.97-.393-.907.27-2.445-.357-2.585.093-.711.177-1.416.04-1.519.26-2.09.41.624.743-.929-.15 1.512-.447 5.46.786 5.685-.516 2.682-1.188 1.66-2.034 3.315-.549-1.07-.003-.777-.117-3.574.177.063.348.128.435-.455zm3.36-2.971c.129.969.447.201.759.09-.3 2.445-1.338 1.713-1.686 1.266.396-1.788.81 1.584.927-1.356zm-.613 5.044c.465-.285.37.861.285 1.99-.393 1.44-.24-1.366-.507-.06-.312-.154.27-.814.222-1.93zm7.872-1.664c.206-.124.264-1.146.38-1.832.458.198.754 1.197 1.434.618-.064.447-.216.341-.332.433-.364 1.476.393.399.03 1.875-1.116-.199-2.54-1.49-3.367 1.518-.342.029-.664.006-.754-.545.341-1.436.148-1.042.36-2.768-.315-.313-.512.135-.586 1.344-.129.072-.106-.192-.077-.474L174 69.52c.796-3.318 1.972-.872 2.81-2.52.157.18.106.835.29.965-.136.565-.3.933-.532.884.074 1.01.377-.299.618.53zM173.014 100c-.043 3.726 2.687-1.173 2.986 2.349-2.063-.186-3.47-.627-5 .33.615-3.27 1.25-.957 2.014-2.679zM174 80.1c.112.74.849 1.12.952-.866.287.956.854-.96.737 1.074.487-.214.84-1.437 1.103-3.308.342.803.568-.196.912.607-.608 3.492 1.13.474 1.296 2.62a7.755 7.755 0 0 0-.281 1.44c-.863.507-1.032-.45-1.623.292-.272.435.235-2.789-.132-1.002-.364-.884.35-.767.402-1.425-.135-1.355-.837.538-.697 1.88-.734-.678-2.451 1.525-2.669-1.312zm.111 3.34c.132-.24.264-.475.438-.436l-.228 1.926.252.03c-.375 1.575-.192-1.038-.573-.555.036-.318.072-.639.111-.966zM168.906 155c.138.504-.531 2.643-.906 2.334.069-2.481.735-.585.906-2.334zm12.107-86.895c-.702 1.935-1.221.738-2.013.738.789-1.971 1.185.273 2.013-.738zm6.322 2.03c.408 1.007-.327 2.482-.726 2.865.438-.685.018-2.009.414-2.41-.06-1.629-.696-1.502-1.023-1.1.165-2.45 1.992-1.413 2.589-.188-.093.69-.186 1.372-.048 1.469-.465 1.764-.678.618-.876.88-.207-.946.312-1.743.498-.925-.021-.504-.234-.534-.081-1.484-.306-.109-.483.718-.747.893zM187.183 88c.069-1.404-.3-1.51-.145-3.161.228-.412.942.138.887 1.69.216-.752.465-1.215.615-2.529.742.704 2.385 2.14 3.092.954.207 1.131.393.954.365 2.15-.105-1.205-.997 1.317-.823-1.167-1.077 1.019-2.775 1.36-3.43.042-.215.427-.448.726-.561 2.021zm3.266-18.938c-.045.579-.129.874-.24.972.021.745.195 1.102.516 1.065.405-1.852-.552-.163-.147-2.021.387.369.708.913.597 2.58-.483 1.185-.885-1.214-1.314 1.342.072-.898-.174-3.784.279-3.48-.057-1.245-.861-.307-1.14-.138.477-2.596.99-.833 1.449-.32zm.114 30.463c.113.06.999-1.042.292-1.297.829-.912 1.637 1.308 2.36-.174-.315 1.355-.115 1.16-.405 2.172l.484.054c.154-.054.209-.784.293-1.297-.079 2.594 1.08 1.381 1.413 2.375-1.156.808-2.392.724-3.873.445-1.32-.25-2.94-.169-4.127-1.355.333-1.3 1.469-.17 2.416-.61.7-.323.573-.611 1.147-.313zM188 113.495c.504-1.24.981-1.83 1.428-1.3-.336 1.833-.651-.483-.801 1.374l-.627-.075zm6-49.124c.198-.969.63-.246.81-1.371.498.894-.738.987-.303 1.434-.165 1.197-.444.09-.507-.063zm-1.284 28.046c-.125.355-.25.713-.332 1.333.046.833.667.425.838.997.44-.542.565-.885.594-2.215.62-.4.512.76.634 1.43.493.003-.079-1.514.332-1.33.44-.122.075 1.49.092 2.286-.913-.235-2.178 2.196-2.756-.285-.23.176-.03.584-.194 1.35-.322.237-.184-2.026-.42-.956-.342-.145.299-.752.256-1.8l-.276-.027c-.256.433-.046.748-.466 1.318-.168-1.712.9-3.296 1.698-2.1zm.706-4.305c-.23-1.737-.95-.222-1.422-1.164 1.498-2.001 2.609-.165 4-.456-.309 3.057-1.007-.774-1.518 1.758.155-.924-.333-1.57-.706-.09.03-.561.036-1.71-.354-.048zm2.697-16.168c.12-.861-.033-1.032.108-1.944.303.237.204 1.482.582 1.539-.342 1.632-.47-.207-.75.888-.132-.108-.012-.492.06-.483zM193.07 107c-.365-.618.868-2.072-.014-1.795.24-1.976.59-1.09.687-.37-.018.642-.633 1.024-.303 1.31-.093.476-.291.272-.37.855zm9.384-20.537c.465.164 1.017-1.025 1.39.155-.127 1.798-.892 1.448-1.003.779-.33.014-.45 1.442-.609 2.603-.717-.628.495-2.494.156-3.988.12-.071.096.186.066.45zM81.51 166c.255 1.134.513 1.162 1.143 1.009.033-.528-.186-.4-.324-.484.669-.822 1.089 1.423 1.557.595-.69 1.086-1.638 4.065-2.145 3.87.258-1.35.666-1.828 1.017-2.617.021-.486-.213-.325-.153-.92-.369-.027-.54 1.129-.879 1.276-.414-1.365-.51-.461-.726-1.42.063-1.076.537.303.51-1.309zm6.511-5.306c.54-1.779.825-.338 1.551-1.694-.015 2.092.669.547.972 1.463-.768 2.65-1.557.578-2.388 2.537-.372-.457.027-.854.114-2.283l-.249-.023zm52.943-20.21c.048-.494-.111-.413-.195-.532.249-1.983.345.413.603-.952.189.787-.22 1.221-.141 2.533l.249.025c.153-.063.2-.903.285-1.493.696.212-.198 2.011-.372 3.516-.138-1.655-.936.815-1.3.363-.263-.787.127-1.952 0-3.56.313 1.361.247.212.87.1zm-.682 10.724c.75 1.542 2.247-2.064 2.376 1.239-.804.02-2.313 2.466-2.658.198.051-.783.207-.82.282-1.437zm2.1-11.322c1.122-1.803 1.5-.314 2.618-.207-.188.483-.942 1.253-.91.415-.197.324-.335 1.085-.45 2.053-.18-2.244-1.034 2.348-1.64.324.162-.587.3-1.37.383-2.585zm15.781-70.173c.376-.899.682-.84.951-.412-.088.605-.282.412-.439.473.07 3.889 1.35.66 2.355-.245-.063 1.405-.372.967-.55 1.508.093.906 1.095.725 1.186-1.434.312.107.297 1.038.566-.454.133 2.748.711 4.466 1.768 2.835-.348 1.437-.93 1.176-1.371 1.937.1-.883.051-1.357-.088-1.585-.709 1.749-2.044 1.391-2.407.76-.085 1.524-.85 3-.82.428-.236.751-.57.745-.802 1.476-.179-.242.06-1.643-.403-1.095.142-1.373.46-3.232-.109-2.64.076-.756.711-1.578.163-1.552z" fill="#FFF4D0"></path>
</g>
</svg>