<svg height="34" viewbox="0 0 34 34" width="34" xmlns="http://www.w3.org/2000/svg">
<defs>
<lineargradient id="pricing-shape-4-a" x1="50%" x2="13.275%" y1="0%" y2="91.026%">
<stop offset="0%" stop-color="#FFB07A"></stop>
<stop offset="0%" stop-color="#FFAD75"></stop>
<stop offset="100%" stop-color="#FF9247"></stop>
</lineargradient>
</defs>
<g fill="none" fill-rule="evenodd">
<path d="M17 33.582c9.09 0 16.458-10.357 16.458-19.446 0-9.09-9.38-13.554-18.47-13.554C5.898.582.542 5.046.542 14.136S7.911 33.582 17 33.582z" fill="url(#pricing-shape-4-a)"></path>
<path d="M24.415 18.257c-.134.049-.26.15-.31.736-.375.156.405-2.339.03-2.186a2.58 2.58 0 0 1 .1-.295c-.07-.142-.153-.256-.235-.37.074-1.583.377-1.497.543-2.427.015 4.256 1.09.171 1.014 3.601.374-.04.64-.84 1.018-.874.015-.452-.42-1.373-.457-.556-.178-.792.567-1.95.757-.908.193-1.682-.343.027-.156-2.009-.27-.122-.457.352-.561 1.428-.162-1.81.751-3.635 1.165-4.347.392-.321.144 1.009.398 1.042.408-1.473 2.968-1.605 2.903.841.475-.177.932-2.375.776.092.282-.104.414-1.284.619-1.923.383.397-.089 2.586-1.064 2.37-.754-.166-1.94 3.13-1.744-.707-.41 1.712-.493 1.107-1.134 1.859-.181 1.045.077.96.27 1.033-.387.544-.66 1.923-1.131 1.858.128 1.948 1.48-.938 2.105-1.247-.404.447-.69 2.608.025 1.996-.092.697-.184 1.391-.043 1.49-.377 1.24-.969.92-1.462 1.323.132-.86.352-1.095.628-.926-.061-2.125-.962 2.014-1.027-.12-.404.404.26 1.147-.233 1.969-.619-2.837-1.272-2.436-2.912-1.837.056-.344.094-.643.118-.906zM5.288 16c.411.177 1.062-.258 1.203.621-.102 1.86-.669.501-.774 2.358-.174-1.413-.372-.996-.717-1.545.108-.381.216-.768.288-1.434zm2.203 4l-.27 2.415c-.453-.411-.861-.939-1.221-1.602.525-1.416.747-.336 1.491-.813zM7 15.697c.414-.526.681-1.957 1.224-1.656-.387 1.645.243.881-.018 2.225-.471-.632-.414 2.08-.846 1.697.486-2.19-.21-1.582-.36-2.266zm2.936-4.294c-.321 1.824-.546.3-.936.387.129-1.893.45.303.936-.387zM13.335 4c-.384-.86-.699-.74-1.335-.542.399-.977 1.602-2.287 1.335.542zm1.288 1.24c-.528 2.845-.798-.9-1.623.796.285-2.052 1.11-.342 1.623-.795zm-1.404 4.826c.426-.306.405.55.702.57-.207 1.161-.6 1.017-.921 1.362l.219-1.932zm3.548 14.325c-.906-1.092-1.059 5.435-1.767 3.1.369-1.337.87-3.553.009-3.293.186-.35 1.899-2.624 1.758.193zm1.619-8.33c-.45 1.701-.831-.17-1.386-.159.402-1.5 1.074-.906 1.386.16zm.355-12.04c-.102 1.678-.642 1.68-.741.892.186-.705.438-1 .741-.891zM17.565 25.45c-.36.627-.327-1.302-.501-.06-.363-1.242.96-2.406.5.06zM22 4.694c.414-.744.906-.936 1.188-.35-.447 1.685-.594.074-1.188.35zm-.121 22.953c-.321 1.833-.708.411-.879-.102.357-1.437.504.462.879.102zM25.95 6.525c-.387 1.143-1.425.363-1.95.264.612-1.626 1.308-.228 1.95-.264zM24 13.43c.111-.381.222-.771.294-1.431.063.345.258.786.378.042.117-.078.099.204.072.495-.039.327-.075.645-.114.966-.369-.33-.495.861-.63-.072zM25.21 15c-.297-.41.522-1.659-.21-1.284.114-.825.414-.496.477-1.636.39-.517.171 1.682.447.465.324.388-.258 1.331-.282 2.075-.117.067-.096-.173-.069-.426-.138.176-.273.34-.363.806zm5.786 2c.27 1.146-.576 1.728-.858 1.854-.006-.435-.009-.873-.138-.996.546-2.358.6 1.296.996-.858zm-19.22 1.244c.43-2.663-.761-.456-.675-2.86-.113.08-.182.442-.307.43.104 1.583-.78 1.127-.63 3.186-.385-1.158.027-2.39.042-4.64.45.237 1.465 1.594 1.934-.26.34-2.212-1.337-2.115-1.504-.159-.451-.75-.045-1.597.25-3.225.027 1.05 1.618 1.066 1.994-.716.027 1.848-.394 4.05-.725 5.033 1.19-.35 2.662.217 4.011.437.284.045 1.066-1.452.767 1.012-1.88 1.768-2.981-2.048-4.784 1.802-.487.032 0-.376.042-1.391-.159.33-.29.815-.415 1.351zM25.014 26c-.043 3.726 1.406-1.022 1.705 2.5-2.063-.186-2.19-.778-3.719.179.615-3.27 1.25-.957 2.014-2.679zM26 6.1c.112.74.849 1.12.952-.866.287.956.854-.96.737 1.074.487-.214 3.099.691 3.03 1.358-.863.508-1.032-.45-1.623.293-.272.435.235-2.789-.132-1.002-.364-.884-.435-.887-.295.456-.734-.68-2.451 1.524-2.669-1.313zm.111 3.34c.132-.24.264-.475.438-.436l-.228 1.926.252.03c-.375 1.575-.192-1.038-.573-.555.036-.318.072-.639.111-.966z" fill="#FFD9BF"></path>
</g>
</svg>