<svg height="316" viewbox="0 0 374 316" width="374" xmlns="http://www.w3.org/2000/svg">
<defs>
<lineargradient id="pricing-shape-1-a" x1="85.739%" x2="2.574%" y1="4.746%" y2="65.4%">
<stop offset="0%" stop-color="#A7F3ED"></stop>
<stop offset="100%" stop-color="#6EE4D7"></stop>
</lineargradient>
</defs>
<g fill="none" fill-rule="evenodd">
<path d="M321.028 311.779c-44.349 31.053-65.251-129.834-112.267-37.438-20.446 40.18-72.29-41.897-138.982-46.778-174.286-12.756 27.376-70.352 99.214-120.653C240.83 56.608 284.55-46.335 334.852 25.503c50.301 71.838 58.014 235.974-13.824 286.276z" fill="url(#pricing-shape-1-a)"></path>
<path d="M230.322 104.374c-.13-.783-.341-1.284-.298-2.607.1.273.194.55.38.532-.069-1.405-.276-2.36-.54-3.134.07-.705.35-.415.553-.497-.039.73-.077 1.465.074 1.56.246-2.689.691 2.183 1.694 1.103-.384 3.6-.687.523-1.357.466-.186.156-.164 1.297-.22 2.071-.152-.09-.247.104-.286.506zM214.45 121.89c.043-.6.008-.92-.095-1.042.177-1.513.419.324.674.03.195-.112.108-1.547.333-1.547-.264-2.295-.329-.865-.566-2.615.605-.208.96.406 1.296 1.089-.16.9-.38 1.984-.579 1.016-.22 1.915.41 1.033.45 2.096.311-.216.16-2.55.285-3.626.208-.731.787-.705.938.038.134 1.19-.428 1.937-.086 2.071-.333.726-.817.74-.912 2.564-.515-1.263-1.05-.7-1.738-.074zm-38.91 7.224c.255 1.53-.337 1.91-.108 2.589-.303 1.738-.683-.043-1.358.462.009-1.953-.073-2.364.398-3.095.463 1.008.523 1.008 1.068.044zm-7.703 56.789c.293-.476.527-1.254.64-2.568.241 1.18.475-.41.937.039.04 1.422-.31 1.029-.354 2.062.67 1.128 1.716.22 2.792.631-.116.272-.756 2.3-.622 2.053-.925 1.72-1.984-1.733-3.393-2.217zm1.232-33.174c-.122-.778-.1-1.318.086-2.08-.238-.068-.307.628-.558.502-.31.273.13.817-.199 1.548-.142-2.222-1.158-.121-.96-2.633l-.67-.03c.416.636.312 1.73.14 3.121-.567-.255-.658-2.78-.654-3.661.333-1.54.843-2.248 1.557-2.01-.593 1.854 1.655-.973 2.234 1.128-.31 1.007-.207 2.957-.172 4.145-.433-1.041-.234-.687-.804-.03zm-4.929-13.703c-.263-.294-.358.972-.177 1.033.005.44-.073.484-.155.51-.113-.1-.134.195-.156.51-.138-1.029-.29-2.032-.873-1.59.021-1.751.6-.908.644-2.568.268-.489.38 1.569.536.017.164.35.203 1.12.181 2.088zm-4.78-4.353c-.256.47-.364 1.608-.398 3.1.082.769.402.769.627 1.067-.225 1.418-.524 2.494-1.042 2.55.354-.678-.07-1.94.216-2.066-.082-.92-.428-.968-.605-1.582-.169.454.026 1.448-.58 1.016.087.916.433.96.61 1.582-.39 2.624-1.344-.156-1.72-.592-.03-1.587.293-1.513.263-3.104.856-.242 1.077-1.046 1.894-.445.285-.139-.143-1.41.332-1.54-.043-1.888-.384-.332-.782-.553.385-2.442.246-2.909.463-4.651.855-.45 1.495 2.317 2.16-.437.42.104.541 1.21 1.025 1.081-.082.64-.211 1.055-.44 1.025.328.86.96.709 1.426 1.098-.955 3.864-2.023 2.088-3.45 2.45zm-6 51.152c-.122-.774-.1-1.31.086-2.075-.45-.432-.545.752-.96.48.791-2.992 1.483-1.237 2.257.614-.29 1.12-1.05.043-1.384.98zm-4.82-52.116c.177-.636.16-1.06-.091-1.042.185-3.787 1.193-1.375.873 1.595-.134-.605-.45-.605-.783-.553zm-10.414 15.147c.09-.307.419-2.447.108-2.59.294-1.448.371-.475.825-.492-.026.51-.181.397-.29.514.148 1.228.243.977.027 2.594l-.67-.026zM109.68 168.97c-.899 2.74-1.664.523-2.697.406-.004-1.249.596.312.467-1.538.869.838 1.487-.584 2.23 1.132zm-20.533 3.822c-.056.929.117 1.098.047 2.083-.263.203-.583.16-.6 1.53-.385-.82-1.258-.026-1.254-2.13-.026-1.777.575-.632.51-2.573.367 1.57.545 1.28 1.297 1.09zm-4.202-5.36c.242.228.177 1.486.623 1.063-.26.838-.42 2.152-.887 2.036.035-1.271.082-2.499.264-3.1zm-1.06 19.162c.567-1.115.697 1.864 1.315.571-.376 2.352-.873.744-1.556 2.014.008-1.201.104-1.992.242-2.585zM39.53 215.397c.402.973.424.584.873 1.591-.363 2.923.645 2.91.208 4.682-.631-1.202-1.24-2.46-1.08-6.273zM341.877 90.804c-.622 1.6-1.262-.583-1.694-1.106.393-.839.994 1.47 1.694 1.106zm-6.83 32.426c.575 1.526.584.9 1.384 2.136-.234.747-1.003-.532-1.604-.065-.013-1.085.151-1.37.22-2.07zm-12.739-25.963c-.009 1.072.584.164.627 1.068-.147 1.158-.757.168-1.094.471.151-1.988.614-2.507.955-3.597.281.36-.324 1.712-.488 2.058zm-.398 3.095c-.419-1.322-.67-1.733-1.426-1.093.233-1.669-.42-.42-.182-2.084.359.692.917.687 1.224-.475-.057.95.233 2.208.384 3.652zm-3.454-23.503c.286-.748.446-2.066.89-2.04-.03 1.91-.552 1.543-.89 2.04zm-12.143 18.186c-.194 1.198-1.776 3.55-1.625.454.42 2.062.795-.968 1.625-.454zm-1.344-3.164c-.42 2.058-1.673-1.699-.804-.035.41-.45.432-.45.804.035zm-1.893.436c-.255 2.465-.96-.488-1.63.454.683-2.433.964.54 1.63-.454zm6.246-11.684c-.333.047-.1 1.712.07 1.56-.286.532-.58 1.025-.87 1.526-.004-.838.165-.886.2-1.552l-.67-.025c-.105 1.24.622-.264.336 1.569-1.923.073-3.173 5.252-5.105 3.423.208-.73.826-1.668.809.035.22-.216.181-1.625.579-1.016-.497-1.932-1.7-1.56-1.971-4.236-.441.017-.575 1.452-1.116.99.38-.666.42-1.985-.203-1.56.134-3.403 1.085.626 1.422-2.02.385.649-.276 1.972.03 2.598.424-.652.878.065 1.163 1.081.217.065.588-3.173.554-.488.523-.39.082-1.816.372-2.581l.536.021c-.247 1.276-.372 2.184.095 1.042.393.536-.325.839-.333 1.544.38 1.932.691-1.69 1.132-1.513-.523 1.724.26 1.413.454 2.092.38-.445-.233-1.258-.337-1.565.618-1.612 1.137 2.148 1.76-.45-.087-.61-.117-1.396-.026-2.602.549-.164.557 1.444.847 2.118.19-.765.54-.787.735-1.526-.225.999 1.007 2.832 1.318.57-.138-1.573-.61.407-.938-.038.095-3.324.912-.536 1.223-.467.437-1.465-.687-1.573-.674-3.143 1.41-.588 2.615.026 3.73.675-.207 1.547-.82.756-.756 2.04-.233-.735-.77-2.784-1.292-1.09.268.429.592.67 1.003 1.6-.195.757-.606.476-.51 2.577-.636.605-.649-2.183-1.18-.567.082 1.18.708-.869.605 1.583-.908-.649-2.205-.17-2.992-2.205zm-14.378 4.08c-.164.688-.406 1.008-.488 2.058-.112-.96-.973.58-1.007-1.6-.29.502-.584.99-.87 1.522-.272-.164.26-1.396-.202-1.564-.208.211.026.665-.065 1.552-.303-.493-.489-1.362-.558-2.616.735.934.718-.428.726-1.534.51-.476.018 2.338.454 2.1.878-2.135 1.085.995 2.01.083zm-13.003 12.965c.091 2.304-.51 1.336-.531 3.09l-.666-.025c.021-.506.177-.394.285-.506-.008-.424-.112-.523-.09-1.046-.113-.1-.135.203-.156.514-.372-.307.238-.8.199-1.547.268 1.31.458 1.072.691-.493l.268.013zm-15.19-12.048c2.481-2.23 5.161.45 7.656 2.914-2.797 1.15-5.525-2.827-7.656-2.914zm-13.224 11.914c-.086.635-.22 1.059-.445 1.016-.16.082-.151.942-.203 1.552-.675-.355.493-2.149-.182-2.084.07-1.146.58-.195.83-.484zm9.489-5.836c-.004 2.248-.679 1.366-1.137 1.509 2.027 1.132 3.549 1.314 5.512-.294.108.389.164.95.203 1.565.475-.044.566-1.894 1.132-1.51-.147.762-.384 1.099-.713 1.008.169 1.094.93.212 1.163 1.09.25-.07.156-1.751.354-2.063.402.018.523.956.584 2.101.225-.795.705-.428 1.094-.48-.835 2.097-1.107 2.625-2.119 2.512.19-.67.091-.813.065-1.556-1.314.73-1.763-1.293-3.212-.134 0 .61.23.45.385.545-.073 1.318-.497 1.002-.851.998.004-1.625.523-1.353.246-2.59-.45 2.032-.886 1.358-1.314 2.547-1.669-2.905-3.363.354-4.842.315-.177-3.95-1.379.809-1.608-3.181-.143.372-.242.934-.333 1.552-1.616-2.503-3.276-2.456-5.226-3.337 2.166-2.793 6.169-.165 8.762-1.194-.103 1.686.057 2.499.433 2.611-.303-2.1.709-.484 1.422-2.014zm-10.872-3.048c.398-1.876 1.44-.717 1.85-2.52.359-.138.022 2.015.476 1.578-.38 2.576-.493-.653-1.077-.043.212 1.245-.54-.026-1.25.985zm-2.321-2.174c.259-2.131.38.212.652.549.286-.661-.108-2.52.618-2.053-.432 1.491.03 2.524.584 2.1-.086 1.038-.039 1.626.203 1.565-.96 1.103-1.34-.877-2.057-2.161zm1.443 10.444c-.09-.445-.98-1.457-.95.48.289-.294.851.674.95-.48zm-.488-1.06c1.18.035 2.974-1.37.627 1.064.1.428.017 1.423.203 1.565-.277.394-1.66.052-1.768-2.663-.415.108-.333 2.568-.886 2.036.047-.596.004-.925-.091-1.041.194-.74.566-.666.618-2.054.329.065.679 1.077 1.297 1.094zm-9.489 18.814c.134.903.385 1.43.74 1.595-.165 1.677-.77.333-.515 2.576-.303-1.223-1.042.32-1.18-.57-.398.497.138 1.387-.22 2.066-.286.212-.338-.367-.515-.536.333-.527.458-2.001.778-2.563.043-1.034-.333-.679-.177-2.088l.398.017c.008-.908-.182-1.189-.493-1.06.462-2.074.644 2.902 1.184.563zm-1.517.981c-.277 1.05.06 1.025-.22 2.07-.52.364-.208-1.996-.58-2.104.121-.874.32-.307.247.536.13-.402.32-.545.553-.502zm-5.326-36.562c.54.155.458 2.356.653 3.665-.359-.765-.588-1.954-.653-3.665zm-.657 9.315c.134-1.409 1.12-1.988.199-1.543.164-1.171.778-1.88.981-.999.03 1.985-.67.584-.644 2.564l-.536-.022zm-2.412 19.635c-.065 2.382-.687 2.161-.955 3.592-.385-1.41-1.116.173-1.388-2.131-1.003.968.61-1.76.782.553.38-.225.956-1.215 1.561-2.014zm-4.418-10.047c.09-.886-.06-.98-.225-1.05.022-1.12.817-.783.761 1.072l-.536-.022zm-.009 6.748c-.082 1.18-.047 1.95.182 2.084-.424 1.292-.782-2.023-1.223.471-.19-.233.082-.661.064-1.56.601-.312.545.112.977-.995zm0 0c-.082-.462-.095-1.171-.047-2.075.432 1.133.644.86 1.184.562-.233 2.75-.614.497-1.137 1.513zm-.696-2.628c-.008.886-.28 1.331-.06 1.56-.16 1.086-.765 1.388-.96.48-.09-.134.636-.89 1.02-2.04zm3.122-.912c-.052-1.504-.178-.588-.51-.536.047-.925-.126-1.098-.052-2.08.596 1.916.328-.626.89-2.035.117-.096.117.198.108.523-.039.436.035.488.117.518-.45 1.15-.726 4.146-.216 5.188-.38 1.98-.934-1.448-1.47-.06.1-1.795.778-.913 1.133-1.518zm-1.397-8.36c-.704-.934-1.824-.926-2.434.423-.172-2.974-2.217-2.075-1.439-7.331.402.021.523.955.588 2.096.83-1.5 1.53 2.023 2.183-.942.073 1.997 1.042 1.037.92 3.67.225.034.364-.368.442-1.016-.078-.778-.29-1.133-.623-1.068.562-2.654 1.461 1.574 1.69-2.005.597.618 1.88 2.623 1.872.077.32.338.476 2.4.272 3.126-.838-.126-2.13-2.4-2.286.406-.009.203-.03.324-.03.536.15-.09.103-.471.03-.51.895-2.036.873 2.75 1.47 3.169-.99 3.726-1.885.527-3.078-.126.047-.605.259-.428.423-.505zm-5.135-2.287c-.22.882-.515 2.019.052 2.075-.07 1.335-.554.722-.627 2.053-.139-.134-.043-1.033-.22-1.05.116-.476.276-.774.44-1.02-.082-.761-.13-1.648-.467-1.57.03-.795.433-1.69.264.009.134-.398.324-.55.558-.497zm-2.335-8.404c.54 2.39 1.133-2.174 1.678 1.626-.454.043-.753 1.011-.917-.554-.35.337-.307 1.712-.22 2.067-.38 1.65-.342-1.82-.74-1.591.091-.411.173-.835.2-1.548zm-1.418 66.913c-.583.913-.83.99-1.495.463.268-2.693 2.196-1.664 1.565 1.102-.156-.09-.074-.955-.07-1.565zm1.05-61.22c-.012-.704-.319-.445-.514-.536.057-.925-.116-1.102-.047-2.079.307.765.475 1.275.912.558-.09 1.357.502.428.316 2.083-.156-.164-.826.052-.42.506-.06.484-.38.467-.402-.013-.341-1.167.178.657.156-.519zm-.5 31.652c.125.575-.139 2.689.203 1.565.328 2.313-.813.623-1.003 1.517-.113-2.343-1.167-.29-1.518-2.14.117-1.828.117-2.671.26-3.103.238 1.24.268.713.406 3.134.71-1.535.908-.23 1.651-.973zm-1.933-21.368c-.06.372-1.029 1.323-.74-1.586.407-.009.476 1.115.74 1.586zm2.788 13.617c.139-.056.178 2.253.38.536-.41-.79.286-1.46.355-2.066-.212-.968-.506.795-.735 1.53zm4.53.705c.079.488.208.791.36 1.055.406.657.168-1.678.574-1.016-.047.6-.004.92.091 1.042-.078 1.063-.596.1-.596 1.53.445 1.029 1.275-1.448 1.936-1.474-.406 1.586-1.003 2.788-2.001 3.034.086 1.06.467 1.133.89 1.073-.518 2.706-1.526-.982-2.161.432-.393-.912.696.021.6-1.535-.163-1.387-1.244.238-1.426-1.098.618-2.689 1.496-.12 1.894-.445-.376-1.24-1.492-2.9-1.695-1.107-.298.234-.225-.748-.203-1.56-.58 1.184-.476-.657-1.055-.567-.039 1.928.653 1.436.523 3.662l-.674-.03c.009 1.003 1.05 2.382 1.05.562.251.069.022 1.716.342 1.569-.147 1.802-.908.726-1.383.977.077-2.04-.134-3.139-.83-2.624.017-1.37.255-1.695.6-1.535.065-1.707-.302-1.993-.717-2.105-.458.787.034 3.117-.285 3.623-.333-.835-.601-1.894-.964-2.637-.126.134-.45 2.282-.217 2.07-.263 1.4-.376-1.405-.454-2.096-.436 1.95-.838-.398-1.024-1.081-.177 1.863-1.184-.143-1.293 2.023-.259-.324-.964.8-.76-1.068.76.035 1.076-1.993 1.824-2.001-.281-.515-.359-.277-.605-1.587.445-.402.873-1.262 1.625-.45-.207 2.158-.173 2.054.147 3.122.463-.454.104-.96.238-2.585.432-.238.432.95.912.553.294-1.288.238-.354.58-1.011.163-1.068-.252-2.343-.36-1.055-.155-1.543.459-1.06.87-1.526.012.89-.143.977-.312 1.033.35 2.481 1.007-.553 1.517-.981-.346 1.275-.255 2.274.07 1.565.211 1.694-.649-.217-.757 2.04.16.821.834-.506.878 1.6.211-1.656 1.426-2.006 1.067.043.554-1.764 1.124-1.496 1.608.064-.047.606-.263.428-.423.502zm-5.1 6.54c.238-1.392 1.003-.276 1.158-2.027-.021-1.56-.302.484-.536-.026.424-2.07.9.463 1.453.58-.675 1.728-1.198 1.724-2.075 1.473zm-2.162-25.53c-.095.994-.536.389-.488 2.057-.186-.28-.303-.778-.489-1.059.173-.83.493.865.329-1.543.398-.415.315.74.648.545zm4.928 10.586c-.553 2.68-.964.744-1.763.446-.026-2.754 1.227-1.03.648.549.208.229.527-1.915.22-2.071.446-.843 2.36-.359 2.478 1.66-.528.212-.783-1.332-.977.998-.307-.185-.558-.557-.606-1.582zm-6.26-7.526c-.047.601-.008.921.092 1.042-.48 2.252-1.634-.912-2.248 2.503-.121.09-.121-.203-.117-.523l-.264-.009c.571-1.444-.242-.432-.605-1.586.744-1.963 1.206.458 2.296-.42-.247-1.49.28-.665.847-1.007zm-15.15 84.52c.086.973-.472 1.712-.087 2.075-.026 1.124-.484.217-.692.489.078 2.058.675-.238 1.03 1.085.016.981-.312 3.108.163 2.598-.233 1.31-.89.29-.605-1.582-.6 1.547-1.016-.675-1.915.96-.004.609.22.45.376.531-.432 1.552-.64-1.43-1.314-.57.527-1.457 1.236-2.067 2.092-1.989.022-1.72-.739-.843-1.163-1.09.104-1.175 1.747-.5 2.114-2.507zm.834-94.977c.026-.497.181-.393.29-.505.043-.433-.031-.493-.113-.524-.372-.998.778-.034.225 1.047l.665.03c.61-3.25 1.124-1.029 1.587.583-.631 1.574-1.504-.795-2.07 1.47-.17-.778-.105-2.325-.584-2.1zm-3.234 49.19c.017-.506-.147-.41-.246-.527-.39-.683.406-.653.397.017-.073.454-.155.925-.306 1.024.28.117.747 1.19 1.318.575-.558 1.967-1.552.342-2.053.951.034-1.91.553-1.547.89-2.04zm2.481 4.772c.156-1.353.787-.467.887-2.036-.753-.224-2.032-2.243-2.265 3.022-.52-.99.103-5.114.618-5.166-.165 1.306.843.212.821-.488.657.008 1.28 1.37 2.058 2.165-.515.273-1.522.307-1.336 3.061.203-.506.324-1.375.484-2.058.03.64.095 1.513.298 2.607.316-2.36 1.751-.523 2.296-.424-.886 2.14-.852.515-1.738-.069-.043 3.675-1.025-.29-2.027.432.173-.635.16-1.059-.096-1.046zm-1.59-55.613c.112-.138.678-.821.933.039-.125 1.098-.838.454-.933-.039zm-5.067 99.992c.06-1.384.472-1.111.51-2.572-.15-.68-.389-.342-.553.488.463.164-.42 1.92.043 2.084zm-.363-4.168c.216 1.561.73-.657 1.206.052-.847 3.627 1.284 1.53 1.768 2.668-.047.073-.45 2.26-.32 2.243-.92 1.971-2.321-.869-3.691.705.026-.497.181-.394.285-.506.108-1.245-.19-1.137-.022-2.598.23 1.413.338 1.517.895 1.08.091-1.357.04-2.243-.32-2.096-.19.177-.047.912.095 1.046-.574.968-.868-2.334-1.608-.069.03-1.258.947-2.715.104-2.59.506-1.3 1.772-1.84 2.317-.942-.06 1.133-.38 1.098-.709 1.007zm.16-59.18c-.039.731-.078 1.466.074 1.561-.22.977-.394-1.214-.804-.03-.087-2.049.376-1.535.73-1.53zm-9.813 36.464c-.09-1.345.865-.804.467-1.548.268.39 1.323-.298 1.673 1.634-.432 2.525-1.128.363-1.937 1.47.044-.882-.043-1.34-.203-1.556zm-4.09 21.113c.031 1.076.316 1.686.027 2.593.155.095.246-.103.29-.505.328.76-.54 1.14-.394 3.1-.26-1.695-.61-1.051-1.007-1.6.545-1.876.324-2.806.752-2.045.303-.065-.117-1.314.108-2.594.164.83.532.402.692-.493.376.649-.113 2.27-.467 1.544zm-.254-6.761c.73-2.04 1.003.125 1.357-.463.212-.661.082-1.072.108-2.598-.938 1.02-1.413-.41-2.14-.086.065-1.738.662-1.03.887-2.036.549 1.802.747-.433 1.452.579.087-3.156-1.202-.856-.925-3.675-.285-.103-.44.407-.463 1.535-.345-1.288-.06-2.965-.652-3.657.086-1.617.86-.964.782.553-.618-.994-.021 2.144.623 1.064-.126-1.37-.35-2.421-.675-3.143.679-1.483 1.232-.303 1.963-1.997.004.838-.164.886-.199 1.552.48.384.61-.865 1.09-.476-.03.886-.152 1.336-.33 1.54.066.535.286.557.204 1.568.242-.112.342-.877.35-2.062.268.601.493 1.362 1.029 1.081-.255.9-1.042 2.516-1.267 1.509-.15.116-.134 1.024-.31 1.024.414 2.222 1.456-2.576 2.182-.946.095-1.362-.501-.428-.315-2.097.644-1.124.972-.588 1.759-.44-.22.596-.428 1.279-.618 2.048 1.033 1.323 2.088.64 3.57 1.185-.008 3.047-1.914.527-1.711 2.528-.052.982-.567-.15-.337-1.577-.385.562-.783.371-1.05-.558-.77 2.097-1.648 3.004-2.608 1.448-.186.58-.302 1.474-.713 1.012.022.683.203.825.208 1.564.341.17.185-2.005.596-1.53.156 3.113.558 4.301 1.392 5.248.169-.877.428-1.314.847-.998-.428.721-.06 1.296-.376 2.576-2.105-1.06-4.076.765-5.71-1.275zm-.372 5.697c-.428 1.958-.782.428-1.176 2.546-.44-.224.54-2.926.065-1.556-.242-1.189 1.033-2.766 1.111-.99zm2.015 16.172c.315-.337.66-1.872.96-.476-1.505 2.136-3.165 1.825-5.305 1.86.26-2.409.856-.86 1.267-1.51.073-1.123-.04-1.65-.338-1.569.022-1.12.485-.22.692-.488-.047 1.41-.264 1.029-.086 2.07 1.033-1.901 2.01-1.17 2.675.109-.077-1.5-.332-1.73-.76-1.068.112-2.611.419-.497.981-.999.182 1.042-.039.662-.086 2.071zm-4.95-.199c-.048.601-.009.92.09 1.038-.142.454-.397.073-.825.488-.009-1.09.151-1.375.22-2.066.268-.489.385 1.569.536.021.147.104.052.523-.021.52zm1.05-12.42c-.315-1.655-1.011-.185-1.547-1.62.168.008.445-1.271.691-.489.195-.177.052-.916-.09-1.046.28-1.777 1.193-1.807 1.65-.973-.276 1.198-.591 2.192-.704 4.129zm-4.655-20.438c.207.238-1.107 1.297-.895-1.076.588-.601.553.86.895 1.076zm-2.616 34.16c.424-1.85.8-.096 1.38-.986.466 1.05-.675-.355-.463 1.539-.584-.048-.653.752-.917-.554zm1.518-36.801c-.247-2.24 2.079-2.637 2.005.082-.83.532-2.057 1.574-2.81-.117-.16.078-.15.938-.198 1.552-.528.113-.83-.544-1.003-1.6.043-.609.26-.427.42-.505-.014-.7-.316-.445-.515-.536-.152-.57.916-.653.912-2.56.147.105.052.52-.022.52.134 1.936.822 2.049 1.21 3.164zm-.178-47.772c.536.636-.198 2.196-.505 2.572.038-1.465.453-1.193.505-2.572zm-6.021 74.513c.354-.83.851-.973 1.27-1.504-.29 1.137-.665 1.854-1.27 1.504zm3.752-48.65c.134.878.99-.272 1.137 1.6-1.025-.056-3.009.662-3.925-2.235.99-1.292 2.196-3.384 3.138-1.43.1 1.685-.445.38-.35 2.066zm-4.902 40.817c.194 3.065 1.46-2.278 1.409 1.612-.393-.389-.51.51-.826.489 1.232 1.215 1.915-.372 3.411-1.422-.125.462-.194 1.167-.22 2.07.523.277.734-2.096.938.04.138-.381.242-.939.328-1.544.726-.826 1.34 2.607 1.855.592.13 2.789-1.25.005-1.578 2.53-1.293-2.413-3.052 1.46-4.06.872-.155.091-.094.523-.02.523-.978 1.54-.93-2.001-1.657-2.148.074-.7.355-.415.558-.497-.532-.804-.147-1.876-.229-4.163.359.45.376-.718.687-.489-.16.696-.397 1.016-.596 1.535zm6.471-46.466c-.865.48-1.202.147-1.115-2.118-.19 1.383-.87.501-1.137 1.513-.307-.152.017-2.283.108-2.594-.817.765-1.185 2.11-1.846 2.52.087.467.095 1.176.048 2.08l-.402-.018c-.048-1.655.198-1.967.376-2.585-.255-1.262-.45-.644-.917-.553.454-4.522 3.411.42 3.744-2.966.756.337 1.379 1.124 1.764 2.676-.061.735-.645-.506-1.073-.047.005 1.966.588-.536.45 2.092zm-7.928 42.77c.048-.605.009-.925-.09-1.042-.135-1.072.872 1.094 1.14 1.604-.406 1.746-.458-1.44-1.05-.562zm2.131-45.083c-.359.614-1.768 1.535-1.413-1.617 1.076-.017 1.513.299 2.1 1.129.018 1.106-.233.977-.445 1.02.035 1.236.83-.052.895 1.076-.311 1.591-.42.26-.96.471.156-1.405-.22-1.046-.177-2.079zm.74 17.685c-.805 1.094-1.535.532-2.231-1.128-.16.073-.152.933-.2 1.547-.228-.877-.172.035-.535-.021-.065-.973-.143-1.907-.138-3.126 1.184.765 1.53.04 2.502 1.146-.488-2.101 1.622-1.73 2.162-.428-.666 2.576-.631 1.958-1.621 3.566-.13-.687-.022-.826.06-1.556zm-2.262-19.82c.281-.908.03-1.608-.181-2.088.756-1.716 1.937 1.016 2.027-.437.087-1.336.2.722.532.022-.437 3.402-1.634 1.854-2.378 2.503zm-.531 55.003c-.342-.155-.58.173-.597 1.54l.536.025.06-1.565zm.856 2.119c-.152-.095-.242.108-.29.505-.112-.389-.164-.946-.207-1.569-1.142 2.378-2.188 1.483-3.117.912-.013-.881.142-.977.311-1.028.065-1.12-.467-.256-.648-.54.064.527.285.544.203 1.564l-.938-.039c.069-.912.28-1.171.579-1.02-.303-1.539-1.05.424-1.318-.566.462-2.663 1.543-2.218 2.049-.956.047-.817.246-2.957.912-2.554-.057.557-.281.332-.312 1.02.627-2.304 1.124 1.003 1.513-.973.394.64.874 1.012.658 3.662.423-.346.272-.35.665.025l-.06 1.557zm-1.375-18.753l.108-2.585c-.713-.246-.618 1.427-1.223.467.021-.501.177-.398.285-.51.225-1.427.532-2.486 1.159-2.032-.277-.566-.472-1.422-.407-3.12.134-.403.324-.554.554-.507.013 1.09-.147 1.37-.22 2.07.237.079.31-.622.557-.492-.203-.501-.39-1.94.199-1.556-.005-1.893-.735 1.375-.493-1.06.934-.224 1.055-.522 1.742.074-.147 1.652.186 1.613-.108 2.594.328.09.45-.8.709-1.007-.074-.493-.208-.8-.359-1.055.372-.337.272-2.87.778-2.563-.134 1.62.406 1.387.026 2.598.506.894.916-.446 1.63-.459.389 0-.048 1.263.337 1.578.104.082.553-1.491.333-1.552.89.234 1.037.597 1.586 3.705-.367.895-1.426.35-2.161.432.078-.462.16-.92.311-1.024-.437-1.794-1.003 1.072-1.288 2.023-.57.06.034-.8.06-1.556-1.167.518-2.096-1.064-3.211-.134-.122 2.113-.71 6.817.19 5.2-.294 2.17-.765 1.055-1.094.471zm-1.24-8.87c.077.484.211.79.358 1.054-.047.601-.264.42-.423.498.134-1.626-.407-1.388-.026-2.598.142.19.302.929.09 1.046zm-.498 34.76c.523.553 1.353-.657 1.025-2.036-.156 1.547-.912.298-1.025 2.036zm1.963-1.993c-.545-.056-.735 1.539-.934 3.078-.583-.601-1.418-.078-1.422 2.014-.333.056-.649.052-.783-.553.147-1.362.653-1.068.779-2.564-.134-1.724-.377 1.068-.692.493.402-1.323-.143-1.811-.61-1.586.402-1.224 1.224-.497 1.111-4.103.095 1.777 1.012.839 1.565 1.103-.086.626-.216 1.059-.445 1.02.519 1.145 1.582.817 2.04-.71-.12 2.266 1.094.126.973 2.391-.437-1.115-1.31 1.526-1.582-.583zm.61-1.807c.008-.09 0-.143.008-.242.017 0 .035-.013.052-.013-.022.078-.035.177-.06.255zm.164-.76c.173.25.03.47-.104.505.039-.16.078-.32.104-.506zm-4.898-20.967c.086-1.366-.359-3.25-.74-1.595-.293-.415.303-1.798.377-2.576.311.45.687.709 1.18.57-.303 2.456.056 1.289-.017 3.636-.398-.601-.299-.065-.8-.035zm1.331-16.042c.182-.177.247-.903.446-1.02.181-1.95-.065-2.486.034-4.146.653-.28.55 1.941 1.185.562-.035 1.466-.58 1.276-.087 2.075-.674-1.184-.912 2.395-1.643 4.081.195.813.493-.155.917.562.043-2.058-.493.562-.342-1.573.71-.48 1.098-.506 1.124 2.122-.29-.108-.445.41-.467 1.543-.674-.942-1.417.022-1.94 1.474-.165 1.596.328 1.012.164 2.603-.843.367-.463 1.12-.912 2.555-.152-1.137-.178-2.69-.696-2.62.043-.817.017-1.98.22-2.07-.168-.835-.851-1.164-.428-2.612-.017-.726-.233-.052-.29.506-.116.095-.12-.207-.112-.523.043-.437-.034-.493-.117-.523.636-.808 2.02-.03 2.585-4.046.17.19.173.916.36 1.05zm-3.566 14.91a2.978 2.978 0 0 0-.359-1.055c.234-1.989.437 2.019.67.03.402.934-.242 2.092-.376 2.58-.22-.388.022-.941.065-1.555zm-.64-7.289a8.553 8.553 0 0 1-.069-1.569c-.393-.402-.316 1.418-.709 1.012.355-1.137.039-2.019.147-3.627-.393-.398-.428.873-.821.484.367-1.898 1.11-2.08 1.444-2.542.15.108.051.528-.022.523-.017.96.44.337.493 1.06-.03.89-.156 1.344-.333 1.543.506.678.315 1.063.583 2.105-.518.302-.964 3.389-1.422 2.014.186-1.94.467-.013.71-1.003zm-1.859 6.147l.268.013c-.077.459-.155.926-.31 1.025.051.415.103.843.068 1.56l-.402-.017c-.12-1.305.597-1.595.22-2.07-.004-.441.074-.48.156-.51zm-2.468 17.551c.45.83 1.245-1.932 1.669-1.487.039-.774-.766-.782-.087-1.042-.398-2.01-.813.575-1.184-.57.03-2.961.31-.437.579-1.02.683-1.475.475-4.928 1.327-6.17-.095 1.22-.506.943-.51 2.573.38-.285.536-1.617.999-1.513.06 2.326-.593 1.349-.887 2.04.67 1.418 1.768 1.604 2.836 2.71-.523 1.034-.92.295-1.18-.566-.225.753-.173 1.639.203 1.565-.004 1.436-.519.467-.6 1.535-.19-1.82-.71-2.118-1.276-1.608.164 1.755-.268 3.181.385 3.648.043-.886-.04-1.348-.203-1.565.181-1.417.45 1.03.579-1.015.156.233.246.67.203 1.564 1.669-1.361 2.092 1.263 3.904-.354-.044.735-.083 1.461.069 1.556-1.193 1.734-3.074 1.88-4.435.333-.502 2.149-1.773.584-2.434.424-.018.505.147.406.246.527-.467 1.323-.112 2.477.095 4.159-.272.955-.38-.238-.648-.55.073-2.2.372-2.593-.134-3.112.324-.436.354.247.484-2.062zm-1.094 10.34c-.043-.752.57-1.245.195-1.556.372-.981.886-1.253.916.562.433-.341.234-1.374.242-2.585.61 1.38 1.116 1.777 1.829 1.111.009-1.072-.58-.16-.627-1.063.303-.761.869-.588.718 2.105-1.202-.42-1.695 1.284-2.784 2.486.324-1.682-.03-1.315-.489-1.06zm.977-26.957c.29-.916.61-1.69 1.133-1.513-.117.692-.324.956-.575 1.012.147 2.356.942-.251 1.47.06l-.087 2.08c-1.046-.653-.925-.904-1.76.445-.35-.999.658-2.278-.18-2.084zm5.698-43.898c.013.402-.04 1.024.09 1.042-.09-.964.472-1.717.087-2.071.121.795-1.184-.882-.826.484.45.23.113 1.41.649.545zm3.142-1.427c-.48.402-.527-.994-.804-.03.67.07-.194 2.87-.06 4.669.246 3.216 1.517 1.556 3.285 1.686.208.51.2 1.733.45 2.1-.826 2.421-1.509-1.828-2.21 1.466-.449-.454-.639-1.764-1.274-1.608-.13-.688-.013-.822.069-1.552-.666.575-.938-1.617-1.319-.58.078.493.212.796.36 1.051-.221 1.042-.511 1.738-.891 2.045.069-1.128-.04-1.652-.338-1.57.303-1.486 1.107-.618 1.09-3.592-.623 1.803-1.37-2.753-1.652.969-.337-1.176-1.15.869-1.115-2.119-.93-1.063-1.932 1.678-2.278-.095-.194.329-.294 1.098-.35 2.062-.74-.925-1.275.277-1.522-2.135.121.635.074 1.063-.177 1.024.004-1.201.104-1.984.238-2.585l1.072.044a2.836 2.836 0 0 1-.445 1.02c.527 2.006.946-1.747 1.65-.969-.522-.82 1.237.402 1.739.074-.04-.463-.078-.934-.225-1.046.519-1.643 1.072.583 1.292-2.028.377 1.608.951-.177 1.427 1.103.207-.52-.022-.865.333-1.552.104-1.237-.618.263-.337-1.565.294.808.882.661.83 2.624.415-.32-.083-1.107.086-2.07.558-.113.493.704.934.038-.082 1.055-.402 1.003-.484 2.053.782-.838 1.18-.12 1.871.078-.077.925-1.154.303-.73 1.53-.026 1.129-.484.212-.692.49.043-.416.156-.507.177-1.03zm-11.61 79.99c-.074 1.323-.282 2.006-.623 2.058.021-1.133.177-1.652.462-1.54.048-.44-.03-.492-.108-.527-.358-.613.242-.587.268.01zm2.628-76.726c-.13.009-.13.627-.178 1.033-.588-1.02.299-1.975.018-3.635.177.445.233 1.314.16 2.602zm-1.652 23.815c.022-1.95.532-5.318.143-6.744.022-.925.207-1.09.22-2.07.35.48 1.297-1.012 1.163 1.089-.397.415-.32-.748-.648-.55-.208.286-.363.796-.467 1.544 0 1.638.73.869.852 2.11.298-1.047.458-1.786.843-1.004-.048 1.215-.29 1.518-.26 3.104.48-.454.77-2.191.683-3.605.441 1.634.726 2.01 1.543 1.621-.09 1.842-.086 1.708.096 4.154-1.016-.48-1.678 3.083-2.08-1.634-.92.86-.964 2.05-2.088 1.985zm1.405-11.36c-.216.03-.501-.278-.557.492-.139-.13-.048-1.033-.225-1.05.052-.584.147-.286.134.004.112-.091.155-.506.29-.506-.143-1.716-.502.052-.761-1.068.233-2.092.63.186 1.227-.467-.16 1.591-.138.99-.108 2.594zm-2.974 59.058c.255.51.489 1.085.744 1.586-.32 2.564-.874.359-1.54 1.5.091-.877.857-1.699.956-.48.454-.82-.501-.67-.16-2.606zm2.334-43.514c-.402-.056-1.05 1.885-1.072-.043-.44.402-.328 3.415-.933 3.078-.108-3.839.717-3.753.596-4.652-.359-.082 1.677-.925 1.41 1.617zm30.861-16.898c.454-3.009 1.215.497 1.293 1.094-.545.013-.567-1.72-1.293-1.094zm32.409.817c-.26 1.267.389 1.548.376.536-.273-.16.255-1.375-.044-2.08-.324-.406-.709 1.955-.492 2.058.021-.315.047-.61.16-.514zm-6.087-8.555c-.048-.722-.51-.1-.488-1.063.605-1.678.363-1.582 1.041-2.55-.207-.061-.467.047-.358-1.051-.251.458-.675.147-.843.998.229-.013.324.415.358 1.055-.28.372-1.14 1.236-1.227.467.25-.471.717.048.735-1.526-.926.48-1.781 2.058-2.413-.1-.082 1.47.459 1.228.03 2.599.442-.575.29.83.49 1.059.31-1.742.686.043 1.365-.463-.039 1.288.182 1.617-.112 2.59.397-.411.32.747.653.544.064-2.187.203.018.397.018.35-1.194.173-1.375.372-2.577zm-11.054 1.621c.627.056 1.306.316 1.535-1.5-.45.783-1.301-.276-1.535 1.5zm4.855-3.96c-1.007.182-.661.256-1.27 1.51.423-.226.617.67.336 1.568.337-.903.865-.903.934-3.078zm-1.608-.064c-.035-.96-1.02-.575-.558.501.087-.795.165-.07-.021.515.255-.018.268.414.09 1.046.35.164.472-.705.489-2.062zm-.96.484c.074-.981-.1-1.154-.047-2.084-.36.662-.601-1.18-.666-.026.078.03.151.082.108.528-.277 1.046.06 1.016-.216 2.066.726.467.328-1.392.618-2.053-.043.894.052 1.335.203 1.569zm-3.484-3.26c.195-2.399-1.331-.492-.821.485.151-.99.64-1.384.821-.485zm-8.205.696c.143.718.618.83.692-.488-.38.359-.23-1.042-.497-1.055a7.848 7.848 0 0 1-.195 1.543zm-1.923-2.157c-.165 2.326.557 1.397.782.558-.424.354-.359-.912-.782-.558zm3.186-2.46c-.632.437-.722-.89-1.163-1.084l-.065 1.551c.722-.89.073 2.75.562 2.624.212-1.085.454-2.005.666-3.09zm-5.443-1.262c-.207 1.768-.717-1.418-.96.476.083.034.156.086.113.527-.009.316-.009.614.112.523-.034-1.993 1.098.735.735-1.526zm6.225 1.812c.013-.58.225-.796.039-1.034-.22.817-.8-.648-.774 2.564.852-.432 1.003 1.47 1.673 1.625.484-1.729 1.785-3.142.752-5.161-.017 1.37-.333 1.323-.596 1.534-.126-1.24-.35-2.144-.7-2.624-.212 2.39.185.55.203 1.565-.01 1.06-.614 2.374-.597 1.53zm1.91-4.073c-.16-.804-.678-.536-.713 1.008.165.825.731.79.714-1.008zm-6.095-1.81c-.03.66-.198.712-.194 1.551.523-.527.519 2.27.8.03-.216-.47-.082-2.11-.606-1.582zm-1.534 1.495c-.039-2.045.519-1.288.42-3.618-.788.402-1.004-.281-1.518.977.462 1.396.532-.026.916.557-.043 1.025-.389.636-.354 2.062l.536.022zm-2.032-2.68c1.245-.882.355-1.116-.069-1.56-.09-.965.778-.282.307-1.025-.359.116-.484 1.046-.359-1.05-1.076.081-1.461-3.027-2.252-.619.415-.285.67 2.222.272 3.13-.13-1.025-1.374.44-1.543-1.621.471-1.997.117-.925.804.03-.086-1.643.26-1.25.355-2.062-.441-.843-1.609 1.275-1.137 1.513-.2.307-.1 1.993-.35 2.062-.93-.255-1.66-.588-2.413-.1.186.143.108 1.142.203 1.565-.108.108-.263.005-.285.51 1.496-2.861 1.915 1.92 2.477 1.656.398-5.767 2.118 1.578 3.631-3.484.186.13.19.86.36 1.055zm-1.444-7.328c.433.113 1.25 1.297 1.63-.453-.238-.498-1.228-.23-1.63.453zm2.036 2.68c.2-.31.104-1.997.35-2.061.251 1.603.074.207.537.021.095 1.033.142 2.227.432 2.607.065-1.734.588-1.375.886-2.036-.246 2.304.99-.277.562 2.624.203-.082.488.203.558-.502-.147-1.007.021-2.61.527-3.09-.1-.117-.134-.441-.09-1.042-.49.285-4.008 1.547-3.762 3.48zm4.297-3.458c.912-.142.048 1.293.316 2.088.367-1.725 1.418-.168 1.673-1.487-.394.134-1.198-1.547-1.989-.6zm1.95 4.756c.013.402-.039 1.02.09 1.041.096-1.201.061-1.984-.025-2.602l-1.072-.043c-.091.89.142 1.344-.06 1.56-.031-.575-.46-1.993-.65-.553.152.095.381-.065.381.545-.432.722-.743-1.86-.826.48.627.726 1.436.064 2.162-.428zm-6.087 1.305l.536.022c.048-.61.04-1.474.2-1.548-.277 1.548.678 1.582.53.026-.475.38-.54-.61-.756-1.076-.112 1.495-.172 1.219-.51 2.576zm9.934-6.86c.298.518.847.207.718 2.11-.394-.399-.51.5-.822.483-.069-2.494-2.11-1.521-2.031.433-.238-.925-.052-1.613-.182-2.08-.29.977.043.938-.104 2.59.571.583.7-.856 1.111-.995.152 1.241.545.54.627 1.064-.021 1.962-.73.717-.89 2.045.428-.07.812.013.895 1.072-.377-.662-.766 1.694-.485 2.053.463-2.74.86.955 1.53-1.491a109.03 109.03 0 0 1-.332-1.565c.41.255.432-1.297.622-2.058-.056-.717-.514-.1-.497-1.059.778.869 1.894-.337 1.25-.986.293-.194-.753-.294-.852-2.113.134.004.177-.415.294-.506.155.41.618 2.053.756 1.067-.155-2.074 1.254-2.018 1.025-2.031-.147-.117-.186-.588-.225-1.05.58.548.398-.282.467 1.577-.25.878-.847.164-.886 2.036.678.666 1.478-4.383 2.204-1.46-.16.073-.376-.109-.423.496.743-.078 1.651-1.115 2.278.095-.73-2.516-2.248-2.425-3.177-4.28-.748 1.081-1.73 4.017-2.473 1.453-.238.765-.618.809-.977.999-.25.013-.35-2.676-.627-1.064.074.005.13.428-.026.52.035-1.29-.44-.17-.532-.023-.012-.704-.15-.998-.051-2.079-.29.13-1.41-.462-1.094.471 1.145 1.37 2.161 4.868 3.242 2.732-.233-.077-.337.506-.333 1.544zm.458-7.773c.165.35.204 1.12.182 2.088-.367.545-.575-1.604-.804-.034.575-.026 1.176 3.337 1.565 1.102-.368-.441-.86-4.703-.943-3.156zm1.626-.45c-.29.308-.895-.873-.847 1.008.211.99.696.09.847-1.007zm1.608.07c.393.402.311-1.414.709-1.012.216-2.347-.618-1.236-.54-3.138.341 1.41.315-2.637.778-2.564-.61.044-3.61 2.348-4.003 6.065.48-.22 3.138-1.422 3.056.649zm-1.4 1.5c.362-.675.22 2.42.51.54-.372-.985-.51-2.892-.51-.54zm2.226 1.128c.138-2.131-1.016-1.59-1.202-.052l1.202.052zm4.625 1.746c.445-.678 1.267-.855 1.448.584.29-.908-.1-1.526.238-2.59-1.06 1.25-1.193-1.91-1.738-.068.692-.368.216 1.366.052 2.074zm-.311 4.146c.294-.307.86.674.96-.488-.368.185-.77-1.388-.96.488zm1.92-.96c-.079 1.565.635 1.479.137 3.122.502-1.898.887-.502 1.535-1.5-.648.069-.86-1.328-1.098-2.637.437.825 1.068-.147 1.18-2.55l-.804-.031c-.181 2.978-.653.739-1.154 2.027.661.156.743 1.764.203 1.57zm2.537-3.017c-.169.052-.325.147-.312 1.029.143.722.558.536.917.558.043.756-.264 2.671.026 2.598.186-2.015 1.245.026 1.314-2.542 0 .63.134.315.264.013-.277 1.046.06 1.016-.22 2.062.54.518.674-.22 1.184.57.147-.964.302-1.889.397-3.1-.678-.686-1.422-1.676-2.252-.609-.086-.61-.12-1.396-.03-2.598-.9-.903-1.725-1.841-2.3-2.697-.203.51-.324 1.379-.488 2.066.77-.333.454 1.08.069 1.556.527.385.787-.466 1.227-.47 0 .751.186.885.204 1.564zm2.178-4.06c.554-.734.826-1.158 1.336.057.398-2.654-.657-.501-.428-2.61-.475.574-.25 1.015-.821.483l-.087 2.07zm5.508-.297c.13-1.245.177-2.287.665-3.078.636.294 1.366.553 1.69-2.01-.786 1.841-1.672.726-2.472 1.452.311-.13.497.147.493 1.064-.545-.281-.778.92-1.137 1.508.095.886.315 1.345.76 1.064zm.31-1.02c.403.864 1.298 1.344 1.605.064-.484-.79-1.358-.64-1.604-.065zm1.855.596c.35-.415 1.111 1.055 1.111-.99-.856 1.306-.76-2.827-1.296-1.094.168.346.207 1.116.185 2.084zm-3.592-.666c-.445 1.314-.92-.717-1.228.467.139.471 1.206 1.513 1.228-.467zm-.934 3.074c-.657-.19-1.405-2.58-1.677-1.626.445.645 1.016 3.208 1.677 1.626zm-1.915.96c.485.332.446 2.403.964 2.636.044-2.092-.31-2.861-.652-3.661-.156.104-.234.566-.312 1.025zm-2.844 7.15c.35.544.8-.264.475 1.577.783-1.154 1.003.783 1.54 1.626.224-.804.713-.38.752-2.045-1.047 1.107-1.643-.839-2.322-2.179a3.03 3.03 0 0 0-.445 1.02zm8.295.345c-.492-.069-.354-.6-.8-.034-.12 2.71.64 1.163.8.034zm-4.318 3.977l.272.013c.329.091-.034 1.755-.09 2.067.83.19.363-2.987 1.404-1.496.035-1.695.562-1.076.645-2.572-.68.96-1.825-.242-2.231 1.988zm-1.643 4.081c.774.355.562-2.952 1.271-1.504.113-1.574-.389-1.094-.605-1.582-.052 1.616-.303 1.694-.666 3.086zm-5.334-3.852c-.394-.393-.432.878-.826.485.117 1.305-.134 1.62.048 2.075.16-.675.203-1.915.488-2.054.186.052.519-.095.29-.506zm3.056.649c.476-.043 1.064.415 1.133-1.517-.467.09-.757 1.015-1.133 1.517zm-1.379.977c.311 0 .355.908.778.553.26-1.643-.743-1.344-.778-.553zm3.921-.873l-.666-.03c-.134 1.737.666 2.697.757 1.067-.1-.117-.139-.44-.091-1.037zm-5.356-3.338c-.385.074-.9-.484-.981.999.177.76.752-.13.98-.999zm-1.25.986l.04-1.037c-.03-1.267-.619-.104-.688.488.329-.199.25.96.649.549zm2.335-4.578l.67.03c.039-1.322-.112-2.018-.454-2.096-.277 1.042.06 1.02-.216 2.066zm1.612 3.182c-.09-1.647-.302-2.9-.657-3.666-.043 1.712-.328 1.037-.531 3.1.263 1.43.899-.978 1.188.566zm-10.189 3.216c.165-1.59-.328-1.012-.16-2.607.424-.691.571.329 1.202.052-.086-2.04.38-1.526.73-1.526-.163-2.498-1.114-.955-1.603-.065-.004-.821.03-3.1-.471-1.578.16.07.311.17.229 1.047-.718 2.174-1.09-.913-1.764.45.216 1.266.61-.857.627 1.063.074 1.435-.8 1.547-.488 2.062.367.051.307-.865.536.017.047-.402.043-1.025.177-1.033.367 1.09.558.765.985 2.118zm1.825-2.002c.263.627 1.171 2.054.341 4.69.852-1.032 1.811 1.48 2.676.109-.86-.735-2.667-1.128-1.72-3.705-.113-1.15-.882-2.425-1.297-1.094zm-13.306 4.124c.268-.15.233.714.359 1.05.039-.911.812-1.469.372-2.58-.005 1.634-.632.363-.731 1.53zm3.121-.912c-.138 1.02-.743-.151-.847 1.008.333-.204.25.955.648.544-.181-1.405.631-.977.2-1.552zm3.095-.389c-.562.242-1.284-.233-1.422 2.019.545-.354 1.128-.523 1.422-2.019zm3.735 3.787c-.043-.756.264-2.671-.026-2.598-.42 1.491-.713-3.584-1.43-1.098.086 3.017-1.004 1.27-1.272 1.509.091 2.1.796 1.3 1.185.566-.022.666.143.722.07 1.56.453.109.88-3.099.535.022l.938.04zm2.598-4.565c-.402-.19-.687 1.176-.934-.039-.207 1.876.584.458.45 2.092-.475 2.05-1.634-1.508-1.85 2.52.843-.414 1.854-.838 1.854.597.32-1.24.99-1.21 1.202.052-.168 1.461.138 1.349.03 2.598-.397.41-.315-.748-.644-.545-.008 1.673.476 4.055.804 3.143-.16-.51-.211-1.392-.315-2.088.61-.45.302-1.331.242-2.59-.004.67.787.701.398.018-.17-2.27-1.306-1.344-1.613-3.177.272-.484.385 1.573.536.021-.328-.138-.488-1.556-.16-2.602zm3.113 5.836c.1 1.69-.446.376-.355 2.066.502.657.8-1.785.355-2.066zm-1.375 4.102c.017-1.366.536-.389.488-2.057-.557.445-.665.337-.894-1.081-.052 1.66.38 1.738.406 3.138zm2.693-3.523c.156.523.476.51.471 1.574-.847 2.46-.579-4.513-1.387-2.136.155.117.06.58-.044 1.038.2.1.502-.169.515.544-.121.882-.437.835-.597 1.53.242.139-.112.848.087 1.043.445-2.36 1.197 1.997 1.673-1.488-.19-.873-.459-2.835-.1-4.158-.397-.212-.302 1.876-.618 2.053zm-4.548 2.922c-.324-1.543-.561.51-.842 1.003.013-.536-.156-.41-.156.52.363-.394.778-.49.998-1.523zm-3.363.385c.956-1.085 1.28-.445 2.023-.436.117-2.02-1.845-1.877-2.023.436zm-.804-.034c.294-2.032-.575-.204-.47-1.578.047-.58.18-.796.31-1.025.139.186.273 2.572.489 1.06-.355-.528.255-1.371-.043-2.08-.7.73-.394-1.768-1.034-1.08.22.077.078 3.57-.147 3.626-.229-.588-.203-2.014-.432-2.61-.117 2.174.424 2.195.368 4.162.51-.514 1.504 1.25 1.647-.968-.36-.437-.376.713-.688.493zm7.548 5.498c.082-1.059.519-.458.6-1.53-.453.043-.751 1.012-.916-.553.03-.688.255-.467.307-1.025-.756.536-1.284-1.945-1.846-.6.731.847 1.462 1.724 1.855 3.708zm1.889-3.553c.233.562.086 2.395.272 3.13.013-.29.134-.588.134.004-.371.648-.45 1.124-.825.484.19 2.793 1.188-.38 1.405-1.5-.22-.212-.376.752-.402-.017.19-1.626.514-2.179.869-1.518.233-2.425-1.012.052-1.012-1.603.264-.45.402-1.427.852-1.003-.809-2.46-1.142 1.504-1.872 3.039.605.436.41-.562.579-1.016zm1.098 2.641c.437-.229.843-.61 1.02-2.027-.445.181-.882.406-1.02 2.027zm5.464.748c-.277-1.137 1.102.225 1.137-1.513-.311-.661-.653 1.128-1.202-.048-.28.333-.233 3.377.065 1.561zm-24.286.553l-.064 1.557c.76-1.18 1.538.445 1.824-2.002-.77.653-1.154-.41-1.76.445zm2.097 1.124a7.808 7.808 0 0 1-.195 1.548c.58 1.107 1.276 1.011 1.807 1.638-.034-1.928-.713-2.226-1.14-1.612.008-.688.609-1.54.22-2.062-.402 1.422-.286 1.409-.692.488zm-.329 1.54c-.134-.602-.453-.597-.782-.545.138 1.668-.048 2.278-.623 2.053.044 1.833-.453 2.65.01 3.108.081-.648.211-1.046.44-1.016.09-.89-.143-1.336.065-1.552.229.873.173-.043.536.018.013.41-.039 1.02.09 1.046.256-2.04-.397-1.077-.138-3.126.156.082.264.943.402.013zm.026 2.602c.1.12.134.445.091 1.041.398.005.813.082.865-1.517-.476.674-.696-.311-.956.476zm-1.768-2.672c-.579.532-.596.112-1.201-.048-.074.982.103 1.15.043 2.084.35-.851 1.132.32 1.158-2.036zm7.297 14.845c-.22-.312-.812.592-.778-.558-.004-.912.692-1.573.35-2.058-.276.342-.717.528-1.4 1.5.605-.566.406 2.745.76 4.18.035-2.515.796-1.65 1.18-2.541.234-1.176-.263-1.967.087-2.08.164.809 1.064-.587.584 2.106.35.743.8-1.578.648.544.333.104.45-.778.597-1.534-.52-.545-.995 1.539-.895-1.077.255-.056.467-.32.583-1.011-.6.173-.328-2.503-.674-3.143-.078 2.291-.324-.065-.692.489-.315 1.046.013 1.024.044 2.083-.528-.359-.925 2.512-.394 3.1zm4.92 7.47c-1.111-1.505-1.526-.904-1.98 2.511.588-1.275 1.331.458 1.98-2.511zm-2.538 3.008c-.294.087-.406-.44-.337-1.573.32-.156.6-.506.735-1.526-.536.181-.8 1.638-1.176 2.55.277 1.85 1.37.458.96 2.633.393-1.712.812.506 1.137-1.509-.688 1.989-1.345-5.019-1.025-1.08-.138-.005-.177.414-.294.505zm5.045 1.245c-.225-.735-.813.787-1.133 1.513.325 1.198.714-1.245 1.133-1.513zm-3.99 2.434c.398-.41.32.744.648.549.238-1.677-.415-.42-.181-2.092-.29-.104-.445.415-.467 1.543zm18.515-26.235c-.06 1.379-.433 1.31-.623 2.053.791.203 1.617.307 2.451.38-.047-.35-.09-.825-.155-.804.25-1.79.92-2.559 1.405-1.5.034 2.062-1.492.009-1.025 2.032-.017.134-.03.203-.043.29 1.772.147 3.58.16 5.24.445-1.13 3.657-3.602-.164-4.099 1.91-.065 1.138-.58.195-.826.485-.142.372-.242.934-.328 1.543.346 2.892 3.813 7.362 3.25-.903-.488-.225-.436 2.083-.998 1.513-.017.505.147.406.246.527-.57 1.31-.933.519-1.625.458.022-.825.143-1.98-.052-2.083.506-1.54 1.375 2.606 1.673-1.483.523 1.625 1.007-.666 1.85.592l-.108 2.59c-.125-.779-.532-.632-.45-2.093-.38.463.122 1.626-.13 3.108.01 1.176.8-.237.455 2.097.233.078.307-.623.557-.497-.255 2.032.247 1.556.601 1.582-.315 3.086-1.53-.74-1.275-1.612-2.032 1.054-3.45 3.021-4.535 6.047-.19-.233.078-.661.061-1.556-.955.973-1.323-.355-2.542-.104.7-2.715 2.456-.523 3.32-2.464-.095-1.928-.536-2.71-.92-3.67.215-.856.086-3.298.527-3.09.073-.844-.087-.9-.07-1.566-.35-.389-.31 1.016-.574 1.016.034.467.077.934.22 1.05-.527 1.272-1.068.485-1.513.978-.078 1.292.138 1.625.316 2.088.285.108.445-.411.467-1.544.63 1.276.31 2.914 1.054 3.68-1.188 3.708-1.928-3.053-2.944-.122.057.424.104.847.07 1.565.233-.623.588-1.638.825-.489-.272 1.003-.739 1.094-1.249.99.246 1.284.42 1.405.004 3.117.904-.488 2.68-1.184 2.348 1.651.181-.592.497-.57.82-.48.14-2.32 1.134-2.17 1.942-1.486-.255.462-.722 1.417-.22 2.07-2.192 3.567-2.988-.95-4.505-1.223-.592.627-1.876 2.702-2.257-.61.489-.899.675.372 1.34.057-.367-1.245-.644-.454-1.028-1.085.246-2.447.933.782 1.379-.977.155-1.418-.22-1.06-.182-2.093-.488-.212-.436 2.088-1.003 1.522.165-.687.407-1.003.489-2.058-.281-.41-.558-.79-.852-2.11-.173.225-.056 2.231-.51 2.573-.363.67-.22-2.43-.51-.536.121-1.21-.195-2.14-.765-1.072.268-1.02.017-.657.09-2.075.515-.208.589 1.05.87 1.595.263-.048-.083-1.742.13-3.108l.535.017c-.073.683-.268.808-.333 1.548 1.34.103 2.18.263 3.32-2.464.013.886-.142.977-.307 1.028 0 1.297.593.42.441-1.02.104-1.236-.618.26-.337-1.565.234 1.133.437-.056.692-.501-.1-1.578-.484.549-.804-.03.047.8-.614 2.382-.982 1.003.07-1.137.385-1.107.714-1.016-.22-2.672-1.068 1.007-1.05-.558-.45.76.302 2.248-.126 3.108.268.234.372-.346.553-.497.182.683-.735 1.478-1.02 2.036.022-.506.182-.398.29-.51-.338-.76-.104-1.31.108-2.59-1.388 1.635-1.388-.241-3.03 1.955.579-5.14-.485-5.101-1.972-4.241-.35.117.147.903-.086 2.08-.337-.83-.77-1.35-.809-3.152.294-.964.342-.04.67.03-.09-2.4-.043-3.376-1.076-3.16-.143.359-.013 2.434-.398 3.095-.095 1.375.77-.45.476 1.582-.528.376-.618-.661-1.055-.57.16-1.587.138-.99.108-2.585.23 1.046.355.147.558-.497-.407-.917-.973-1.168-1.336-.052.1 1.007.765.151.735 1.586-.735 1.639-2.205 2.334-3.216.117-.03-.151-.07-.255-.108-.368.086-.765.436-.294.445-1.426.385.38.519 1.57 1.163 1.085-.06.748-.407.164-.446 1.02.372 1.483.887-1.625 1.293-2.023-1.128-1.478-2.339.048-3.748-.151.242 1.374.93.484 1.293 1.495.017.212.064.273.108.368.043.216.073.458.095.79-.813 1.242-1.682.399-2.81-.116.017 1.448.458 1.474.718 2.11-.355 2.42-.476-.86-.96.48.06-.567.285-.342.315-1.034-.03-1.435-.765 1.418-.475-1.569-.398-.008-.813-.082-.865 1.518-.583-.683-.99-1.998-1.699-1.111.044-.882-.043-1.345-.203-1.56.022-1.125.484-.217.692-.494.07-2.723-.77-.493-1.184-.566-1.28-.22-3.122-.58-4.064-2.248-.19 1.98.618.64.428 2.615-.406-1.573-.878-.302-1.254-2.126.165-1.682.774-.333.515-2.573.207 1.388.778.312.687-.492.143-.454.398-.074.821-.484.044 1.413-.306 1.028-.35 2.057-.013 1.077.584.164.627 1.064.29-.143-.069-1.803-.337-1.57.307-1.647.653-1.283 1.11-.99.195 4.552 2.772 1.081 3.62 3.264.081-1.46-.265-1.508-.602-1.586.294-2.987 1.046-1.773 1.578-2.53-.004-.54-.89.533-.337-1.568-.821 1.335-1.47 3.445-2.56 3.527.01-.925.243-2.59-.18-2.088.16-2.42.777.86 1.11-.99-.7-1.422-2.36-.76-2.161.433-.074.7-.35.419-.558.492-.026-1.15.285-.722.333-1.543-.121-1.323-.86-.363-.735 1.526-.242.056-.255-.644-.51-.536-.017-1.107.23-.977.441-1.02-.878-3.022-2.304 1.906-4.167.346-.078 2.8.946 1.928.877 4.703-.691.26.07-1.829-.47-1.57-.226.632.263 1.522-.243 2.581.104-.112 1.215-.7 1.163 1.09-.878-1.517-.627 1.379-1.4 1.5.06.532.28.549.198 1.569.268-.402.527-.852.847-1.007-.255 2.702 1.172 1.513.497 4.176-.19-.765-.427-2.55-.894-1.077.155 1.885.968 1.574 1.677 1.626-.121.458-.195 1.163-.22 2.066.466.519.229-2.226.505-2.572.234.74.489 1.392.878 1.595-.454-1.06.078-1.154.467-1.543 0-.605-.23-.445-.385-.532.315-1.003.41-3.056.934-3.078-.009 1.206-.104 1.984-.242 2.59.562.76.423-1.738.868-1.526-.211 1.4-.116 1.288-.13 3.112.494-.164.848-1.02 1.267-1.504-.186 2.105.865.13.567 2.62-.307-.333-.584-.774-1.05-.567-.087.882.068.981.228 1.046-.026.506-.181.402-.294.51.303.804.796.956.835 2.633.32-.156.536-.8.955-.484-.246 1.21-.324.96-.238 2.59.312.224.329-.939.688-.494-.16 2.339-.934 1.829-1.56 2.015-.187-1.072.146-1.012-.044-2.08-.242-.082-.311.623-.558.498-.004 1.344.333 1.577.273 3.12.98-1.348.864 1.747 1.426 1.103.415-.432-.277-.791-.043-2.084.687-.315.96 1.232 1.357-.458-.017-.475-.428-1.764-.514-.544-.437-.186.445-2.244-.026-2.598.186-1.202.851 2.079.58-1.016.099.41.276.575.51.544-1.146 5.534.842 5.006 1.612 3.182.393 1.57 1.43.488 2.213 1.651.194-2.408.873-.506 1.915-.96-.29 3.07-.778 1.92-1.332 3.061.04-.42.156-.514.178-1.029-.71.52-.644.822-1.384.977.091-.415.173-.834.2-1.552-.385-.54-.286 1.15-.355 2.067-.333.194-.247-.96-.644-.545-.39.45.358 1.176-.091 2.066-.294.087-.406-.436-.333-1.565-.35-.168-.19 2.002-.605 1.53.125-.457.194-1.162.22-2.066-.268-.233-.367.346-.557.493-.286-.6.501-1.314.851-.998-.371-1.09-1.487-.346-1.56 2.01-.178-.164-.056-1.306-.048-2.08-.955.891-.864 2.715-1.15 5.145.38-.484.666-1.431.908-2.564.623.117.76.143 1.05.57-.345 1.41-.596-.544-.96.48-.202.493-.241 1.738-.483 2.054.276-.553 1.353 1.669 1.69-2.006.398.597.303.06.8.035-.022 2.04-.39 2.676-.013 3.627.415-.316-.082-1.107.086-2.071.316-.151.51.104.644.549.048-.6.013-.92-.086-1.042.54-1.746.398 2.667-.22 2.067-.027 1.27.462 1.915-.104 2.593-.005.605.22.446.376.532-.07 1.323-.277 2.006-.618 2.049.185 1.837.652.406 1.18.575-.804 2.849-2.296-.074-3.234.385-.155.073-.095.553-.021.518-1.35.653-2.192.714-3.411 1.414.16-.912.385-1.5.506-2.572.294-.208.345.367.518.54.152-.337.19-1.184.446-1.024.181-2.24-.567-1.418-1.008-1.595.074-.683.268-.809.333-1.548-.674.285-.665.519-.743-1.59-1.154-.515-.925 1.983-1.937 1.482-.121-1.396-.16-3.048-.83-2.633-.151.126-.134 1.03-.311 1.025-.04 1.331.467.856.61 1.586-.472 1.055-1.012 1.34-1.496.459.052-1.51.432-.865.691-.493a7.701 7.701 0 0 1-.069-1.565c-.488.19-.813.156-.96.484-.146-1.768.61-.666.532-3.09.42 1.845 2.512-3.018 2.162-.433.242 1.483.704-1.197.998-1.517.03-1.146-.557-.242-.778-.55.42-1.573.878-.851 1.046.558.255-.043.164-1.707.467-1.534-.324-.567-.575-1.392-.852-2.114.117-.476.277-.774.446-1.02-.065-.523-.286-.545-.203-1.565-.394-.13-.532 1.897-.826.484.03 1.292-.199 2.922-.147 3.631-.545.744.07-2.317-.471-1.582.1-.76.25-1.297.354-2.058-.38-1.413-.709-.583-1.21-.052-.065 2.317.315 3.152.635 4.18-.35.636-.549 1.25-.354 2.067-.139.713-.87-.385-.718-2.11-.315-.026-.432.878-.825.484.025-.497.181-.393.29-.505-.1-1.582-.48.54-.805-.035.087.77.026 2.015.476 1.578-.89 3.03-2.192-.035-2.793-.631-.735 3.58-1.79 1.223-2.676-.113.57-1.11.592 1.384 1.202.048.043-1.029-.337-.67-.182-2.08.502.506.636-2.005.96-.48.134-.846-.173-2.273-.225-1.05-.147-.108-.052-.527.022-.523l.043-1.033c.294.38.264 2.512.809 3.152-.208 1.703-1.042.501-1.18 2.541.726 1.673 1.897-3.856 2.412.1.743-.441 1.015-3.091 1.867-3.03-.104-.705-.32-1.038-.316-2.093-.194 1.154-.683.934-.661 3.087-.307-1.345-.718.28-1.206-.048.09-1.846.527-2.07 1.024-2.036-.393-.947-1.059-.981-.925-3.67-.419-.32-.635.324-.955.476-.233 1.288.463 1.647.048 2.079-.394-1.474-.489-1.461-1.297-1.09-.035-1.4.315-.994.467-1.538-.07-1.423-.627-1.22-1.008-1.604-.237.004.113 2.455-.263 3.108-.286.207-.337-.372-.515-.54.121-.485.277-.774.446-1.02-.087-1.202-.571-1.099-1.025-1.081 1.197-3.796 2.416.224 3.584-2.447.155.233.246.666.203 1.565.41-.445.432-.445.804.034-.013-1.003-.502-.432-.316-2.092.558-.199.835.515 1.159 1.09-.489-3.1-2.754-.939-3.722-.675-.722.112.134-2.218-.584-2.1.005-1.211.104-1.99.238-2.586-.22-.307-.813.592-.782-.558-.156.083-.147.947-.2 1.552-.371-.484-.388-.484-.799-.03l.086-2.075c-.45-.238-.466 1.54-.756 2.05-.42-.014-.735-1.544-.428-2.62-.117.276-.238.536-.424.505.476-1.993-.389-2.066.018-3.63-.506 1.162-.601.457-1.245.985.13 1.902.393.778.272 3.12-.8 1.285-.748-1.106-1.699-1.106.022-.93.208-1.08.22-2.066.424-.359.467.545.783.553.208-.22-.026-.67.065-1.556.661-.523 1.21-1.608 1.893-.445-.181-1.336-.812-1.193-1.12-2.118.749-1.933.779-.126 1.604.064.35-.501-.164-2.3.489-2.053.06.484.233 1.92-.199 1.548.13 1.132.873-.018.981-.999-.276-.484-.505-2.304-.116-3.64-.502.847-.748-.864-1.142-1.604.156.986.204 2.309.718 2.106-.043.739-.082 1.47.07 1.56-.191 1.578-1.164-.553-1.566-1.102.139-.917.247-.065.402.017-.1-3.009-.795-1.75-1.63-2.663.074-1.292.018-2.153-.164-2.602.251-.813.433-.186.67.026-.415 2.066.273 3.16.606 1.582-.571-1.79-.018-4.928-1.28-4.725.104 1.457-.627 4.176-.298 7.258-.22.973-.83-.523-1.185-.566.64-1.176.203-4.271 1.129-4.626-.022-1.78-.7-3.056-1.12-2.126.086.765.134 1.651.471 1.573-.134 1.885-.627 1.664-.752 2.05-.07-1.051.324-1.713.147-3.632-.42.09-.964-.39-1.223.467.116.964.696.393.428 2.62-.472-.096-.536-1.51-1.008-1.604-.41.423.121 1.318-.108 2.593-.212-.48-.467-1.18-.181-2.083-.173.428-.385.67-.692.493.009-1.198.415-.558.467-1.54-.247-.535-1.21.619-1.275-1.612-.281 1.522.108 1.946.12 3.64.416.329.455-.955.666.03-.371.316-.458 1.989-.886 2.032-.376.35-.212-1.08-.337-1.565-.29 1.28-.25.744-.536-.021-.052 1.82.61 1.266.385 3.652-.51-.765-.575-.678-1.025-1.085.082-.63.212-1.054.441-1.024-.32-.441-1.323 1.232-1.6 3.052-1.067-.203-1.473-3.73-2.476-1.656-.078-1.202.06-1.673.013-3.635.458-.778.6-.156 1.072.043-.441 1.27-.195.912.246.532-.246.765-.186 2.113.026 2.593 0-.994.346-1.97.55-3.61.673.07 1.949-1.236 1.698 1.107.497-.57.964-1.28 1.314-2.537-.065-.532-.285-.553-.203-1.57-.497.848-1.258 1.34-1.319-.574.303.423.87.48 1.111-.99-.497-1.038-1.958-.705-1.85-.592-.177 1.128-1.846 1.526-2.178 4.059-.22-1.582-2.789-1.492-3.303-1.176.086-1.09-.605.212.112.527-.31 2.754-.181 2.78-.665 3.087.056 2.3-.329 3.277.255 3.644-.342 1.833-.623.125-1.228.467.475 1.915-.476 1.4-.67-.026.147-1.163.76-.173 1.094-.471l.064-1.56c-.013-1.16-.652-.239-.916-.554.177-.636.16-1.06-.09-1.042.068-1.133.38-1.098.712-1.007-.134-.692-.017-.826.065-1.556-.155-1.284 31.847-29.089 33.982-27.671-.648 2.408-.164 1.133-.013 3.631-.311-.225-.328.93-.691.493-.005-.847.164-.886.198-1.556-.13.229-.259.445-.307 1.029.04-.887-.16-1.297-.76-1.072.142-.761.458-.731.709-1.008-1.068-2.684-2.607-1.067-2.737 4.557.143 1.028.809.32 1.03 1.08.41-.423-.122-1.305.107-2.585-.268.2-.19 2.002-.6 1.526.48-1.448.64-4.426 1.396-4.612-.026.825-.147 1.98.047 2.083-.086.636-.216 1.05-.445 1.02.238 1.656.74-.644 1.094-.475-.316 1.18.008.575.069 1.56.873-2.36 1.396 2.153 2.433-.419.277.42.074 2.438.428 2.616.238-1.12.986-.636.71-1.012.38-1.184.458 3.143.233 4.159 1.452-2.931.28-4.72-.796-6.779.441-1.024 1.51-1.798 2.183-.946.013.882-.142.972-.306 1.024.047 1.768 1.331 1.072 1.266-1.508.428-.225.294 1.413.605 1.586.121-.272.238-.532.424-.501.169-1.462-.134-1.353-.03-2.598-.588-.485-.791.83-1.245.985.004-4.993 1.547-3.246 2.135-3.026.675.247 1.115.013 1.72.592.615-1.98 2.205-1.28 2.832-.402-.078 1.06-.402 1.02-.6 1.53.103 1.734 1.292-2.096.73-1.525.276-1.703.285 1.09.653.544-.54-1.647.514-1.807.843-.998-.692 2.546.315-.324.337 1.569.346-.039.298-1.924.51-2.576-.126-.35-.813-2.036-.804-.035-1.025-2.654-3.091 1.4-3.99-.683a1.724 1.724 0 0 1-.164-.74c-.973 2.084-1.825-1.05-2.72-.937-.207.22.026.67-.064 1.556-4.894-.696 4.552-3.017 6.89-1.275.437-.342.234-1.375.242-2.585.428 4.042 1.989 1.137 2.659 3.743.177-.108.242-1.539.065-1.547.354-.696 1.137.99 1.699 1.102-.03.76-.632 1.617-.065 1.556-1.63 1.301-2.335-1.867-3.325-.657-.436.592-.125 2.218-.66 3.087.047 1.521.44-.294.665.03.047-.605.008-.925-.091-1.046.022-.502.177-.394.29-.506l.268.013c.008 1.08-.152 1.366-.22 2.066.31-1.219.73-1.201.933.04.328-.148.328-1.795.735-1.527.073 2.404.808-.039.696 2.62-.441.562-.303.039-.8-.035.087 1.042.558.843.428 2.62.501-1.543 1.543-1.98 1.872.078.648-1.397 1.31-.934 2.23-1.984-.233.899-.173 1.175.225 1.046-.16 1.085-.765 1.392-.96.48-.185.579-.302 1.47-.713 1.007-.069 2.39.58 1.444-.017 3.635.527-.346.661-.32 1.05.562.152-.125.134-1.029.312-1.024.103-1.245-.623.26-.338-1.578.675-.74.178 2.39.718 2.114-.903 1.552-1.37.19-2.451.934.311-.45.476-2.192-.048-2.084.065 2.68-.79.376-.583 1.02-.186 1.301-.57-.44-.467-1.578.549.515.584-.359 1.223-.47-1.21-2.314-2.407.405-3.856.505.117.415.467.056.446.916.255.273-.407.203-.71 1.007.26-.976 0-1.054.19-1.906-.207 0-.423-.052-.639-.19-.078 1.297.138 1.63.316 2.092-1.21 1.517-1.738-1.042-3.035-1.158.117.938.679.428.895 1.072-.636 3.151-1.755.164-2.611 1.448.177.614.324 1.31.454 2.092.315-1.011.168-1.02.397.017.156-1.763.2-1.551.848-1.002.406.45-.268.674-.424.501.355 1.4.515.756.718 2.105.38-.908-.19-1.41.108-2.59.575.118.203.909.16 2.603.207.156.25-.48.423-.501.26 1.042-.804 1.163-1.249.981.627.488 1.025 1.708 1.811 1.638.005-.912-.181-1.184-.492-1.059.276-1.876 1.24 2.188 1.27-1.508.74.544 1.137 1.759 1.717.592-.087.41-.178.838-.2 1.547-.553.048-.799-.933-1.452-.575.242 1.142.303 2.897.657 3.658-.683 2.083-1.232-.03-1.936 1.478l.06-1.552c-.467-.333-.458 1.565-.864 1.517.28 2.516.955-1.5.869 1.6.341-2.07.8.073 1.249-.986.065 1.928-.493.99-.618 2.05.683.397 1.27 1.888 1.854 3.708-.484.618-1.05.865-1.534 1.496.64 1.007 1.755.463 2.343 1.651-.89 1.993-1.812-1.603-2.313.947-.636-.756-.138-3.393.302-4.146-.229-1.405-.475 2.279-1.115.99-.186-1.673-.09-2.628-.808-3.142.078-1.068.596-.104.596-1.535-.008-.42-.108-.523-.086-1.042-.216 2.499-.705-.44-.934 3.074-.393-.385-.432.877-.821.488-.108-.696-.324-1.029-.32-2.092-.177 1.88-1.154 3.242-.994 4.634-.441 1.548-1.509-.415-.986-2.118-.813.752-.735-1.448-1.115-2.127-.294.718-.316 2.676-.554 3.614-.13-.22-.384-2.032.065-1.552-.082-.77-.397-.774-.627-1.063-.445 2.023-2.464.579-3.276 1.417.103-.739.263-1.257.462-1.534-.082-1.064-.462-1.141-.895-1.08.299.924.225 1.158-.306 1.028.108.705.31 1.055.47 1.578-.198 1.712-.237-.588-.375-.536-.29 1.859.419 4.258 1.318 3.692-.696-1.907.67-.212.865-1.522.276.164-.255 1.392.203 1.565-.06 1.145-.57.194-.821.484 1.465 2.46 2.952 2.131 4.331 2.252l-.065 1.565c.32-.337.696-.393 1.025-2.04.108-1.103-.152-.995-.36-1.055.208-.735.654-1.349.822-.484-.056.557-.28.337-.307 1.024.523.977.856 1.016 1.362 2.659.104-1.92.333.052.631 1.059-.233-.04-.877 2.464-.242 2.585-.986.968-2.568-.113-3.545 1.413.026.77.182-.198.398.013-.095 1.799-.817.714-.683 3.61-.584-.277-.692.687-1.068-.043.372 1.552 1.06.93 1.716.588-.056 1.387.377 1.14.294 2.606 1.72.411 2.828.087 4.124-2.425-1.34-1.18-3.86.9-4.53-.704.597-5.75 3.346-.982 4.319-3.977.017-.502-.147-.411-.243-.528.074-.462.156-.925.312-1.029l.263.013c-.056.947-.185 2.04.16 2.603-.475 1.14-1.003 1.474-1.513.972.152 1.838 1.392.16 2.214 1.652zm-69.27 5.45c.104-.462.204-.92.044-1.037.622-2.23.972-.501 1.556-2.01-.303 2.334.467 1.141.588 2.097-.026.506-.182.393-.29.506.03.648.126 1.076.359 1.059.16-.083.151-.943.194-1.552.225 1.098.528 1.392.692-.489.212.921.873 1.816.385 3.649.09-.809-.277-2.585-.532-.022-1.314-.955-1.651-1.98-2.996-2.2zm-8.792 73.36c0 .609.229.449.38.54.013 1.08-.147 1.357-.216 2.062-.268-.428-.432-2.157-.143-3.117.152.104.057.523-.021.514zm3.756-45.533c.251-.29.761.661.826-.484-.225.06-.782-1.716-.826.484zm1.388 2.131c-.627.856-.86-1.885-1.184-.562.203.791 1.037 2.317 1.184.562zm1.556 10.971l.407.018c-.026.817-.096 1.794.198 1.565-.207-1.993.19-1.617.51-2.577-.255-.61-.531.294-.76-1.068-.044 1.03-.39.645-.355 2.062zm1.016 4.712c-.194-.514-.25-1.392-.052-2.075-.328-.09-.644-.125-.709 1.008.54-.843.51 2.433.761 1.067zm-5.027-17.857c.15-3.307-1.085.302-1.297-1.09.09-2.693 1.694-1.552 2.049-.955.151-.324.186-1.189.445-1.02-.086-.467-.095-1.176-.048-2.075.42.095.502-1.358.977-1.003-.073.679-.268.804-.328 1.547-.087 1.47.899-.596.605 1.583.942-.108.912-2.961 1.483-3.571-.022 2.27-.026 1.699-.013 3.631-.796-.333-1.085 1.098-1.513.977.445 1.353.864 1.007 1.47.06.004.835-.16.883-.2 1.548.386-.078.9.484.982-.998.043-.441-.03-.493-.112-.523-.195-.29.013-.54.155-.52.402 1.051-.423 2.206-.108 2.595-.553 2.472-1.392-.247-1.733 3.047.354 1.37 1.361 2.832 1.517-.981.661-.324 1.21-.523 1.56 1.107.078-1.496.744-.238.757-2.05.264.022.113 1.423.489 1.06-.917.773-.913 1.409-1.669 1.495.117 1.522-.195 2.676-.212 5.18-.679.28-.566-2.305-.385-3.65-.76-.15-.185 2.69-.553 3.61.631-.294.722 1.198 1.297 1.094-.57-1.552.437-1.124.536.021-.329 1.155-.8 1.639-1.068 3.07.45 1.167-.41 4.24.653 3.661-1.223-.96.968-2.77.782.553l-.536-.021c.013 1.085-.147 1.37-.216 2.066-.06 1.453.415-1.219.22 1.05.36-.19.446-1.646.982-.998-.29 1.357-.402 1.037.182 2.084-.1.458-.2.92-.04 1.033-.073.912-.28 1.171-.579 1.011.225.463.312 1.353.601 1.587-.043 1.029-.389.644-.35 2.062-.026 1.141.294 1.124.627 1.063a2.978 2.978 0 0 0-.359-1.055c.13-1.253.856.281.869-1.517.112.368-.164 2.356.29 2.602.41-.427.186-.765.22-2.062.454.705.493-.017.917.558-.134 1.016-.415 1.366-.731 1.522.246 1.457.735-.67 1.046.566-.164 1.076-.458 1.565-.864 1.522-.636-2.261-2.78.977-2.464-5.291-.809 1.28-1.57-1.989-2.145-.091.143-.601.238-1.384.242-2.585.619.052.727 1.776 1.254 2.127-.021-2.71-1.56-2.464-1.124-5.235.458.864.675 2.541 1.522 2.14-.342-1.57-1.033-1.959-1.479-3.178-.237-.078-.31.623-.557.493-.165 1.595.328 1.016.16 2.607-.268-.766-.588-1.332-1.159-1.085-.06.925.117 1.098.043 2.075-.354-.013-.28-1.453-.45-2.093-.086.683-.116 1.366-.708 1.007.424-1.379 1.011-3.272 1.405-1.504.359-.13.406-3.039.73-1.522-.28-1.612-.549-3.259-1.344-3.172.1-.977-.052-3.13.376-2.577-.821-2.334-2.308 2.058-2.594-2.192.38-.073.61-.873.644-2.563.225 1.115.536-.125.826-.48.06-1.556-1.024.683-.74-1.6-.254.07-.462.33-.578 1.017-.005.61.224.45.38.54-.644.839-.977 1.522-1.651.968.518-1.43.298-2.434.709-4.124.142.722.557.54.912.558.12-2.883-1.388-4.301-1.92-2.157-.203-1.414-.834-1.422-1.253-2.127.423-2.131 1.513.865 2.166-.432zm-3.826 30.994c.177-.739.194-1.262-.074-1.56 1.042-.748.982-.778 2.188-.947-.013 1.18-.113 1.95-.355 2.058-.376.341-.212-1.08-.337-1.57-.212.45-.536.39-.488 2.058-.632-1.785-.113.104-.934-.039zm1.457-58.09c.454 1.306.778-1.465.778.553-.441-.216-.303 2.287-.865 1.518l.087-2.07zm-.497 8.81c.263.078.765-3.497.713-1.016l-.268-.008c.086.605.117 1.396.026 2.598-.727-.645-1.141-.588-1.742-.07.09-1.041.039-1.625-.204-1.569.268-2.148 1.172-1.245 1.475.065zm6.786-8.55c.048-1.397-.203-2.508-.47-1.578-.1 1.366.224 1.353.47 1.577zm-2.062 7.703c.558 1.43.96-1.811 1.163 1.09.316-1.22.93-1.021 1.513-.982.16-1.41-.22-1.05-.181-2.08-.484 1.777-1.055-1.422-1.245.982-.009-1.461-.848-.177-.567-2.615-.406-.472-.45.782-.596 1.534.622.087-.177.748-.087 2.07zm-.903 5.676c.277 1.552.705-1.293.938.039.082-1.02-.138-1.038-.203-1.565-.346.039-.506.925-.735 1.526zm3.778-20.093c.32.575.7-1.552.804.035-.376.536-1.18 2.74-1.716 2.524-.017.502.151.407.246.532-.021.497-.181.389-.285.501.195.809.493-.16.917.558-.36 2.11.851 2.412.877 4.708.138-.376.238-.93.329-1.54.294-.073-.013 1.838.03 2.594-.247-.458-.865 1.73-.804-.034-.143.372-.242.938-.333 1.547-.07 1.124.467.251.648.545-.324 1.535-.332 1.88.005 3.117-.45 3.28-1.487-.186-2.339 1.457-.22 1.932.272 1.491.143 3.125l-.809-.035c-.16.441-.28 3.77-.838 4.12.337-1.072-.048-1.686.242-2.59-1.807 1.881-.817-3.795-1.193-6.8.086.45.35.33.354 1.06.22-.216.182-1.625.58-1.02-.947-1.747.419-1.163-.45-2.092.117-.692.324-.956.58-1.012-.2-1.906-.615-.346-1.164-1.085.765-2.045-.12-2.78-.25-3.649-.018-1.106.233-.98.445-1.02.017-3.28-1.098-1.794-1.725-3.704.294-1.548.51-.554.96-.485-.169-2.126-.07-2.157.086-2.07.342-2.438 4.682.043 4.66.713zm-21.748 36.485c-.502 1.418-.307-1.954-.986-2.118.921-.113.943-1.172 1.764-.454-.173 2.006-.078 1.85-.264 3.112-.48-.056-.272-2.382-.851-2.118.108.536.22 1.063.337 1.578zm-5.2-13.716c-.165-.84-.688.419-.584-2.101.588.825.77 2.576 1.41 1.62.423 1.228-.29 2.305-.394 3.092-.143-.13-.052-1.034-.225-1.042-.212.397-.138 2.43-.108 2.593-.07.696-.355.415-.558.493.178-1.176.005-2.01-.008-3.117.056-.977.458-.341.466-1.538zm-1.198 16.046c.164.203-.28 2.75-.64 2.568.018-1.773.463-1.544.64-2.568zm.082-5.192c.29.23-.008 2.758-.13 3.113-.021 1.34.26-.696.537.026.233-1.678-.415-.42-.182-2.088.156.536.471.527.627 1.063-.151 1.651.181 1.612-.108 2.59-.57-1.479-.813-.269-1.496.462.558-1.89-.42-1.245-.428-2.615.177-.376.942-.696 1.18-2.55zm1.989 13.587c-.437.661-.169 1.643.181 2.083-.644 1.604-1.27-2.01-1.383.982-2.01.315-4.189.96-5.33-.74.488-2.182 1.867 1.233 2.36-1.984 1.76.852 3.108-.79 4.172-.341zm-5.218-10.081c-.22.039-.545-.886-.268-.013-.519 2.317-1.28.484-1.491.458-.346-.484.35-1.15.35-2.062.45.251.886.51 1.361-.462.182.458-.069.773.048 2.079zm-.614-17.68c.316.017-.104 1.417-.307 1.024.212 1.734.454-1.535.843-.999.264 1.695.67.597.809 3.148-1.258.276-3.026.752-3.195-3.766.7.152 1.362.77 1.85.593zM103.17 157.8c.545-1.12.64-.64 1.357-.471-.051.566-.276.346-.306 1.029.082.773.29 1.128.626 1.067.173-.22.303-.652.329-1.543 0-.666-.372-.696-.398-.017-.186-.467.07-.774-.052-2.08.89.165 1.63-1.128 2.741-1.443-.467 1.31-.903 2.784-.925 6.19-2.075-.912-2.797-.346-4.483-1.742.03-1.288.277-1.595.372-2.58.246 1.456.886-1.16.74 1.59zm-5.036 27.826c.285.774-.54 1.552-.869 1.522-.13-.8.1-3.657.666-3.091.086 1.145-.173 2.857.203 1.57zm-1.647 13.946c.255-.86.92 1.219 1.34.051-.19 3.139-1.024.441-1.34-.051zm-.471-27.533c.013-1.37.333-1.322.596-1.53-.276 1.323.03 2.935-.661 3.078-.017-1.102.23-.977.44-1.012.005-.613-.224-.445-.375-.536zm7.777-3.315c-.757 3.752-2.145 1.677-3.186 2.464.026-.502.181-.394.29-.502-1.955-1.093-3.308-1.106-5.218-.216-.264-.765.216-1.258-.07-1.565.273-2.148.683.182 1.111-.99-.073.675-.268.804-.332 1.544.752.674 1.037-1.487 1.495-.459-.039-.462-.082-.929-.225-1.046 1.916-.108 3.52-1.007 6.135.77zm-8.062-6.044l-.403-.013c.109-2.23-1.028.649-.985-2.122.704.359 1.128-.22 1.388 2.135zm-2.244 5.62c.147.108.052.519-.022.519.044 1.228.169 3.298-.397 3.1.03-.887.155-1.336.332-1.544-.012-1.007-.501-.437-.315-2.092.233-.1.311.899.402.017zm-.208 8.3c.35.488 1.12 1.94 1.587.58.06 3.03-2.615 1.274-2.546-.1.337-.065.657-.074.627 1.059.142-.376.242-.934.332-1.539zm-2.533 6.121c-.026 1.522-.367 1.582-.393 3.1-.51-.342.242-1.142-.009-3.117l.402.017zm.35-18.152c.096.277.19.545.377.532-.109.532-.329.523-.329 1.548.06 1.413.363-1.565.532.021-.195 1.976-.718.493-.934-.034.043-1.038.389-.653.354-2.067zm-.579 1.012c-.112.41-.268 1.41-.065 1.556-.138.99-.432-1.219-.45-2.1.29-.208.338.38.515.544zm-.7 7.24c1.292-.259 2.248 1.484 3.437 1.18-.126 2.655-1.743.987-2.01-.081-.204.497-.325 1.374-.49 2.057-.284-.696-.911-.255-1.158-1.085.057-.566.281-.345.312-1.028.026-1.155-.368.657-.67-.026.09-1.215.29-1.941.28-3.623.381-.06.333 1.284.299 2.607zm-1.76-9.419c.204.532.057 2.21.143 3.126-.467-.454-.696 1.137-.938-.04.06-.656.285-.514.264.014.337-.29.38-1.945.531-3.1zm-1.24 17.084c-.056.558-.281.337-.307 1.025-.043.44.03.488.108.523-.22 2.226-.895 1.379-1.068-.043-.004-1.245.597.31.463-1.54l.804.035zm-6.925 31.38c.354 2.498-1.09 1.897-1.578 2.533.021-.502.181-.393.29-.506.056-.834.276-.631.371-2.58.346.522.484 2.693.917.553zm5.222-35.603c-.342 1.612.064.674.38.531-.316 1.622-.324 3.061.316 2.088-.217 2.097-1.224-.017-1.492.463.195-1.37.342-2.944.796-3.082zm-5.365-19.431c-.246-1.725-1.102-.117-1.4 1.5.34.562.924-2.317 1.4-1.5zm8.862 2.96c-.104-.12-.139-.44-.091-1.041-.298-.16-.51.104-.58 1.011.243.64.554.45.67.03zm-1.5-2.658c.462-.039.972-.229 1.029 1.08.531-1.581-.822-3.306-1.03-1.08zm.194-4.664c-.25 1.764.147 3.631.45 2.096-.26-.337.069-2.62-.45-2.096zm5.983 4.396c.03-.679.255-.462.311-1.024-.358.138-.021-2.01-.47-1.574.034.925-.022 2.153.16 2.598zm-4.085-1.725c.23 1.129.627.299.713-1.007-.333-.09-.648-.117-.713 1.007zm-.514-.536c.103 1.146.039 2.862.406 3.13.16-2.092-.588-2.053-.004-3.112l-.402-.018zm-6.472 10.635c.532 1.11.277 4.305.813 6.263.09-3.605-.367-3.229-.121-6.756.22 1.09.57.039.713-1.008-.657-.064.35-1.171-.047-2.074-.562.566-.627 4.746-1.358 3.575zm1.7 1.11c.53-2.45.99.104 1.309-2.546-.225-.31-.813.597-.782-.549.328.087.648.121.713-1.011-.528-.454-.458-.095-1.072-.043-.056.82-.415 2.766-.169 4.15zm-6.1 8.054c.186-.017.285.26.38.532 0-1.496.912-1.872.532-3.091-.26 1.063-.554 1.945-.912 2.559zm-1.621 3.566c-.13 1.613.28 1.959.38.532-.1-.117-.26-.022-.246-.523.108-.117.173-.432.177-1.033-.25-.255-.74 1.361-.467 1.534.022-.31.048-.61.156-.51zm-.536-.021c-.524-.074-.601 3.09.03 2.593.104-1.24-.199-1.132-.03-2.593zm-1.267 1.504c-.082-1.09-1.215-.458-.826.489.022-.32.048-.61.156-.515-.264 1.262.393 1.543.38.536-.635-1.055.251.545.29-.51zm-.562-2.62c-.255.467-.674.156-.847 1.008.246.125.83 1.366 1.072.043-.16-.07-.311-.169-.225-1.05zm3.514 8.97c.26-1.647-.743-1.34-.778-.549.316 0 .355.917.778.55zm-4.815-.199c.428-.367.199 1.436.627 1.064.064-3.774.523 1.085.843-1.003-.251.022-.264-.41-.091-1.042-.683.432-1.21-.787-1.38.981zm-.57 4.133c-.239-.566-.282-1.768-.429-2.61-.376.924-.112 5.325.428 2.61zm-2.413-.1c-.389-.324-.847 2.15-.527 3.096.151-1.526.419-1.933.557-.497a7.86 7.86 0 0 1 .195-1.552c-.16-.065-.307-.169-.225-1.046zm-5.382 7.047a7.808 7.808 0 0 1 .195-1.548c-.338-.216-.156-2.118-.54-3.138.146 2.369-.282 3.9.345 4.686zm3.562-1.932c-.341.043-.506.933-.73 1.534.51.117.8-.795.907-2.563-.246-.04-.298.389-.177 1.029zm-4.57.337c-.319 1.867-.103 1.92-.016 3.63-.074-.003-.169.412-.022.515.359-1.007.173-1.517.527-3.082-.44.566-.285-.838-.488-1.063zm3 5.313c.183-.013.282.255.377.536-.039-1.418.311-1.034.355-2.062-.368.544-.571-1.604-.805-.035.346.42.528.19.074 1.56zm-1.27 1.504c-.07-1.41.878-1.176.372-2.58-.104.639-.964 2.576-.372 2.58zm-.294-2.611c-.28.38-1.215.895-1.003 1.517.562-.112.515.64.316 2.088.203-.073.488.212.557-.493-.553-.095-.013-.341.044-1.037-.688-.35-.1-1.038.086-2.075zm-2.46-2.175a7.487 7.487 0 0 1-.198 1.548c.185.281.306.783.492 1.06.04-1.324.087-2.668-.294-2.608zm5.81 5.43l-.065 1.552c.411.471.45-.774.601-1.53l-.536-.022zm-7.327 5.412c-.445-.432-.61.458-.735 1.526.38.113.73.095.735-1.526zm.255 6.757c.156-2.149-.415-1.366-.648-.545.432-.238.28 1.798.648.545zM342.414 90.826c-.065-1.167 1.426-.42 1.586.588-.424 1.22-.973-.947-1.586-.588zm-2.04-8.91c.03-2.36 1.11.606.462-1.538.211-1.384.713-.017.47 1.578l-.933-.04zm-2.231 76.744c-.204 2.481-.515.61-1.116.994.23-1.002.835-.246 1.116-.994zm-.394-32.72c.004-1.206.104-1.984.242-2.593.424-.35.359.912.778.558-.397.397-.67 1.4-1.02 2.036zm-2.278 35.729c-.51 1.798-.718-1.185-1.007-1.6.432-1.686.32 1.457.804.035.095.42.021 1.422.203 1.565zm-1.189-3.683c.26-1.526.32-.437.848-1.003-.048 1.582-.757 1.422-.848 1.003zm.8-51.887c.186-1.202.8-2.274 1.115-.99-.186 1.193-.665 1.042-1.115.99zm.017-3.631c.065-1.427.679-1.207.822-.489-.06 1.141-.575.195-.822.489zm-1.967 60.658c-.307-.325-.579-.765-1.046-.558-.1-2.287 1.742-1.79 1.686-2.006.199-1.578.333.605.515.536-.303 1.055-1.02.19-1.155 2.028zm3.908-84.983c-.164 1.582.169 1.539.005 3.121-.217-.791-.606-2.36-.251-3.648-.908 1.322-1.094-1.513-1.945-1.643 1.05.38 2.217-.74 3.328.661-.207 1.617-.692.07-1.137 1.509zm-6.173 78.14c.065-1.142.575-.19.826-.48-.065 1.418-.683 1.202-.826.48zm1.193-32.14c.588-2.594 1.155.864 1.894-.437-.58 2.775-1.388.497-1.894.436zm1.833-47.686c.07-1.323.489-1.007.847-1.003.048 1.876-.557.7-.847 1.003zm-.691 26.447c-.264 2.24-.999 2.058-1.535 1.496.484-.618 1.05-.865 1.535-1.496zm-2.975 20.123c.2-2.46.584-.83 1.116-.986-.32 1.669-.61-.086-1.116.986zm.45 28.06c-.514 1.093-1.28 1.037-2.049.955.661-2.278 1.383-.964 2.049-.955zm.765-60.715c-.017 1.37-.337 1.327-.6 1.535.068-1.396.41-2.477.6-1.535zm2.226-14.961c-1.007.938-1.677 1.712-2.563.41.683-1.716 1.612-.726 2.563-.41zm-2.637 24.809c-.043.61-.259.428-.419.501-.16.078-.151.947-.199 1.552-.13-.605-.45-.605-.782-.558.16-1.586.134-.99.108-2.585.882.355.484.778 1.292 1.09zm-4.002 54.87c.54-1.142.955.484 1.63-.45-.234 1.47-1.32 1.292-1.63.45zm2.49-79.852c.237-1.172.942-.156 1.357-.463-.177 1.574-1.353 1.781-1.358.463zm-1.25 23.832c.536.76.471 3.506 1.34 3.173-.882 1.897-.644-1.15-1.448-.584l.108-2.59zm-1.556 5.127c.073-.778.216-.921.488-2.054.407.152.558 1.146.874 1.591-.294 2.564-.765.523-1.518.977-.004-.44.074-.488.156-.514zm.298 2.61c-.29 1.336-.665-.764-1.206-.051.113-2.641.536-.273 1.003-1.522.095.428.022 1.431.203 1.574zm-3.44 47.621c-.234 2.516-.982.76-1.652.968.519-1.837.86-.977 1.651-.968zm-1.587-52.5c.06-1.51.804-1.198.955-.485-.104 1.163-.666.182-.955.484zm.173-26.993c.83 1.768 1.456-.717 2.386.614-.195 1.876-.406.307-.821.493.518 1.6-1.22 2.265-1.673 1.483l.108-2.59zm-.904 5.676c.644-.968 1.384-1.072 1.872.078-.627 1.427-1.28.692-1.872-.078zm-.12-3.644c.12-1.379.63-2.563.872-1.522-.134 1.254-.553 1.133-.873 1.522zm-1.203 25.911c.757-1.578.446-2.014 1.094-.475-.255 1.292-.454 2.823-1.042 2.55.251-.934.826-2.351-.052-2.075zm.843-26.961c-.06 1.577-.873 2.113-.665-.026l.665.026zm2.283 13.076c1.859.212 4.245-.934 5.42 1.777-3.012-.795-6.803-.74-10.15-.938 1.004-2.002 3.061-1.033 4.73-.839zm-9.178 56.729c.143-1.772.675-.77.951-.48-.103 1.154-.665.182-.95.48zm-2.948-.121c.005-1.621.355-1.647.735-1.53-.009 1.625-.354 1.647-.735 1.53zm2.075-63.256c.126-1.072.286-1.954.73-1.526-.16.903-.323 1.794-.73 1.526zm-2.26 9.246c.267-1.02.017-.652.086-2.066.19.052.376.104.42-.506.449.692-.723 2.49.185 2.088.398.73-.493.493-.692.484zm.164 5.72c.052 1.88-.558.704-.843 1.007.069-1.323.488-1.012.843-1.008zm-1.263 4.625c.307-1.742.912-.705 1.362-.463-.398.835-1.063.791-1.362.463zm-1.422-10.963c.45-2.896 1.643-.54 2.183-.947-.22 3.377-1.66-1.798-1.444 2.534-.536.432-.428-1.289-.739-1.587zm.506-2.572c-.402 0-.89.26-.74-1.59.195.695.865-.152.74 1.59zm-1.357 13.44c.155-2.006 1.132-2.62 1.534-1.492-.199 1.959-1.15.402-1.534 1.492zm-2.892 40.898c.203-1.707.61-1.746.82-.488-.06 1.145-.574.194-.82.488zm3.03-50.759c.056.42.104.848.073 1.56-.61-.263-.324 2.3-1.158 2.033-.035-1.397.315-.99.462-1.54-.082-.786-.203.13-.514-.54.212-2.148.73.956.873-1.521l.264.008zm.203-11.412c-.242 1.34-.674-.406-.916-.553.246-1.345.678.402.916.553zm-2.006-.082c.048-.601.009-.92-.09-1.046.255-.722.976-.925 1.089-.471-.13 1.448-.683.925-.999 1.517zM302.881 84c-.661 3.951-2.723 1.22-3.545 1.414 1.124-3.095 2.127 1.34 3.545-1.414zm-8.166 35.49c-.056-1.875.614-.89.688-.492-.16.9-.523 1.323-.688.493zm3.752-32.554c-1.599-.16-2.606-.856-3.613-.147 1.067-2.287 2.29-2.317 3.635-.372.644-.342.592.908-.022.519zm-6.86 29.827c.138-2.481.463.42.804.035-.194 1.452-.562-.165-.804-.035zm-.501-20.27c-.437.104-.532-.938-1.05-.557-.191-.536.795-.804.998-1.518-.052.934.12 1.098.052 2.075zm-.428-12.467c.246-.065.26.644.518.536.048 2.702-.635 1.984-1.158 2.028.048-1.634.756-.186.64-2.564zm-.912-.566c.397.043.237 3.696-.264 3.108.229-1.75.298-.804.264-3.108zm-2.72.93c-.22 2.048-.83.462-1.227.47.406-1.867.74-1.344 1.228-.47zm-4.12 15.402c-.392 1.699-.686-.692-.894-1.072.363-1.608.575 1.041.895 1.072zm-8.524-1.388c-.22-.199-.268.39-.307 1.025-.255-.22.082-2.374-.475-1.578.16-.9.112-2.784.506-2.572-.273 2.256.475 1.124.276 3.125zm-3.155 44.002c-.39 1.556-.856-.432-1.336-.056.034-2.628 1.115-.748 1.336.056zm.013-42.571c-.268 2.576-.7.553-1.267 1.504.255-2.425.877-.76 1.267-1.504zm-12.718 48.277c-.035 2.101-.856.536-1.245.986.116-1.72.804-.782 1.245-.986zm-6.99-44.944c-.2 1.457-.567-.164-.804-.03.324-1.137.605-.951.804.03zm.151-26.465c.13-.687 1.362-1.245 1.18.562-.207-1.201-.903.96-1.18-.562zm-4.003 80.825c-.138-1.596.938-1.552.666.026l-.666-.026zm1.79-69.499l.406.018c.082 1.638-.268 1.249-.354 2.062-.173-.165-.061-1.302-.052-2.08zm-.212 18.165c.026 1.975-.657.631-.977.998.233-.76.622-.812.977-.998zm-1.418-7.85c.048-.597.009-.921-.09-1.038.064-1.141.578-.199.825-.484-.26.432-.428 1.318-.735 1.522zm-2.352 44.04c.32-1.266 1.155-1.391 1.34.053-.229 1.007-1.162.587-1.34-.052zm-1.046 15.528c-.134-1.603.947-1.556.67.03l-.67-.03zm1.275-50.309c-.475-1.215.658-1.414.688-.488-.126 1.763-.7-.813-.688.488zm-3.95 11.261c.077-1.483.6-.925.98-.994-.155 1.79-.717 1.25-.98.994zm-3.602 67.864c.117-2.585 2.106.03.554-.492-.134.397-.324.544-.554.492zm1.237-43.038c.026 1.967-.662.627-.981.994.233-.76.622-.808.98-.994zm.25-9.337c-.164 2.464-.605-.653-1.067-.043.307-1.198 1.007.095 1.068.043zm-1.059 42.014c-.35 2.338-.938-.277-1.63.45-.043-.645 1.18-.65 1.535-1.497-.047.601-.008.921.095 1.047zm-1.915-34.869c.091-2.049 1.09.13 1.042-2.55.705.143.164 1.634.713 2.105-.272 1.323-1.214 1.198-1.755.445zm-.605-1.582l.06-1.556c.251.23.571.216.476 1.578l-.536-.022zm-2.209 37.29c-.575-1.017.982-2.024.666.03-.359.652-.6-1.185-.666-.03zm1.915-62.747c.173-2.486.71.311 1.072.043-.298 1.526-.7-.32-1.072-.043zm-1.828 24.852c.177 1.349-.264 1.617.358 1.046.013 1.094-.146 1.375-.216 2.075-.523.368-.211-1.993-.583-2.105.043-.42.155-.51.173-1.029l.268.013zm-.532 3.09c-.393-3.137-1.063.355-1.582-.583.065-1.962.86.225.462-1.543.152-1.158.761-.173 1.094-.471-.169 1.461.134 1.349.026 2.598zm-.986-54.039c.61-.562.437.03.917.562-.588.999-.856 1.496-1.518.977.467-1.517.04-4.232.977-4.115-.034 1.288-.276 1.595-.376 2.576zm.437 8.849c-.23 1.171-.934.156-1.357.458.108-2.187 1.102-.635 1.357-.458zm.242-15.562c-.44 1.02-.774.7-1.223.467.415-1.133.752-.817 1.223-.467zm-1.435-4.215c.7 1.707 1.09-.424 1.811 1.63-.596 2.442-.947-1.137-1.898.44l.087-2.07zm-.904 18.653c.147-.76.385-1.098.714-1.007-.16 1.586-.134.99-.104 2.585-.398-.402-.238 1.785-.713 1.011-.04-1.582.964-2.61.103-2.589zm-3.12 75.671c-.264-.497-.031-3.773.397-3.1-.004 1.635-.272 2.024-.398 3.1zm1.452-35.248c.086.471.1 1.18.052 2.084-.523.527-.19-1.76-.454-2.101.069-1.129.384-1.098.713-1.008.013.887-.147.973-.311 1.025zm-.523 6.212c.095 1.465.6.877.134.008.311-1.556.35 1.488.916.558-.1 1.418-1.716 1.69-1.05-.566zm0 0c-.333.203-.247-.96-.644-.545.064-.7.35-.42.557-.493-.086-.782-.402-.77-.63-1.067.215-1.392.695.03.937.039-.021.929-.207 1.085-.22 2.066zm-1.505 7.21c.294-2.2.73-.255 1.094-.48-.151 1.168-.756.173-1.094.48zm3.485-71.504c-.022 1.124-.48.212-.688.489-.004-.843.165-.89.2-1.548.185.277.302.778.488 1.06zm-.411 6.73c-.523.528-.13-1.953-.601-1.581.246-1.375.726.242.6 1.582zm-1.319-3.687c-.051-1.672.467-.695.485-2.057.177.168.06 1.305.047 2.083l-.532-.026zm-1.184 25.384c.06.705.246.986.493 1.064-.022 1.12-.484.216-.692.492.164-1.577-.168-1.534-.004-3.116.372-.078.428.812.203 1.56zm-.182 10.898c-.051.981-.453.342-.462 1.543-.16-.527-.208-1.413-.471-1.577.095-1 .536-.39.484-2.054.22.467.143 1.91.45 2.088zm-1.491 13.44c.177-1.863.432-.32.977-.999.03 1.971-.657.631-.977.999zm.696-49.294c.501-.86.778.057 1.47.061-.554 1.254-1.016.791-1.47-.06zm-2.494 40.912c.237-1.275.497-.895.825-.484-.064 1.422-.683 1.201-.825.484zm.825-23.326c1.336-2.654 2.132 1.738 3.307 1.171-.968 3.182-2.079-1.098-3.307-1.171zm-.056 30.627c.164-.873.428-1.318.847-1.003.407.45-.268.67-.423.502-.004.916.181 1.188.493 1.059-.07.704-.355.41-.558.497.42.973.93.96 1.452.575-.112 1.349-.48 1.483-.756 2.049.1-1.366-.225-1.349-.471-1.578-.394.493.138 1.396-.22 2.07-.372-.47-.117-.786-.044-2.079-.506.022-.406.567-.808-.034.026-1.128.484-.216.691-.493-.008-1.167-.735.048-.6-1.582-.225 1.91-1.003 2.183-1.405 1.496.536-.934 1.322-1.116 1.353-3.58.419-.177.15 1.894.45 2.101zm.886-28.003c-.67 1.465-1.201-1.392-1.65-2.14.799-1.89.88 2.447 1.65 2.14zm-1.418 5.14c-.103 1.154-.665.181-.955.48.121-1.665.692-.645.955-.48zm-1.47 38.88c-.553.557-.864-1.609-1.093.47-.29.446-.156-2.65-.359-1.054-.026-2.866 1.03-.83 1.54-1.496l-.087 2.08zm.256-45.166c-.372-.462-.117-.787-.048-2.075.424-.363.467.554.783.554-.074.7-.355.41-.558.492-.13.009-.13.631-.177 1.03zm.458-17.628c.048-.606.009-.925-.09-1.042.423-2.728.38 1.02.916.553-.065 1.146-.58.199-.826.489zm.865 8.338c.216.472.276 1.462.756 1.068-.043.61-.004.934.095 1.042-.25-.661-1.094 1.707-1.452-.575-.299 1.046-.459 1.79-.843 1.007.25-1.504.696-2.118 1.176-2.55-.415 2.04.224-.57.069 1.56.16-.078.151-.938.199-1.552zm-2.477 37.28c.29.091.233 1.32.164 2.599-.398-.385-.432.881-.83.492.009-1.62.354-1.65.735-1.53a7.711 7.711 0 0 1-.07-1.56zm1.31-41.477c.164.635.095 2.07.449 2.092-.138 1.02-.415 1.37-.735 1.53.169-1.595-.324-1.011-.16-2.606.26.194.424-.087.445-1.016zm-2.43 39.35c.303-2.684.177-2.917-.272-3.12-.005-.839.164-.887.198-1.552.312 1.331.891 1.093 1.449.579-.1.765-.251 1.301-.35 2.062-.575-2.352-.614 1.73-1.025 2.032zm-3.437 60.607c.117-1.716.804-.778 1.25-.986-.13 1.643-1.09 1.427-1.25.986zm1.124-43.566l.536.022c-.35 1.418-.008 2.17-.28 3.623-.446-1.008-.234-1.423-.256-3.645zm-1.975 44.569c.004-1.625.419-1.353.514-2.572.311.704-.056 3.389-.514 2.572zm2.823-71.526c-.256 1.54-.77.71-1.094.467.346-.903.756-1.06 1.094-.467zm-.809-13.016c.333-.194.255.955.653.545-.151.765-.385 1.102-.713 1.007l.06-1.552zm-2.568 46.099c.286-1.958.99 1.971 1.985.605-.355 2.174-1.85.886-1.985-.605zm3.087-68.4c.1.276.194.544.38.531-.155 1.09-.76 1.392-.955.48.134-.916.242-.065.398.017.134-.013.134-.63.177-1.028zm-1.06 6.177c.01-1.189.411-.558.472-1.53.199.229.039 1.63.488 1.059-.22.786-.752 1.44-.96.47zm.39 16.638c-.004 2.05-.761.58-1.115.986.246-1.474.51-.42 1.115-.986zm.181 2.08c-.406.825-.977 1.202-1.357.471.346-1.885.817-.402 1.357-.471zm-.717 10.876c.16-2.313-1.042-.143-1.141-1.604 0-.916.843-.912.466-1.539.528-1.56.619 2.11 1.431 1.098-.112 1.345-.475 1.479-.756 2.045zm-1.924 7.708c.234-.813 1.098-2.577.938.039l-.938-.04zm2.101-21.718c-.424-1.604.774-.89 1.111-.99.074-1.764-1.56-1.811-1.491.454-.744.207-1.142-.696-1.232-2.646.32-1.176 1.12-.143 1.625-.454.212-.216-.026-.666.07-1.552.202-.276.665.631.687-.493-.303 1.613.553 3.057 1.136 1.604-.077 3.06 1.111.727 1.098 2.642.32-1.02.593-3.54 1.137-1.51-.51 1.012-.735.122-.778 2.564-.134-.44-.328-.7-.644-.544-.168 1.076-.173 2.295-.778 2.563.134-.42.143-1.418.333-1.543-.342-2.04-1.638-.51-2.274-.095zm-3.121 52.83c-.199 2.908-.303.125-.821.483.064-1.145.575-.194.821-.484zm-.013-32.193c.242-1.465.58.424.782.553-.237 1.461-.579-.428-.782-.553zm-1.509-8.888c.623.052.506 2.953-.065 1.556l.065-1.556zm-1.167-4.202c.454.48.445-.086.761 1.072-.056.722-.89.286-.76-1.072zm-2.313 52.86c.035-1.686.264-2.49.645-2.568-.035 1.69-.264 2.49-.645 2.568zm-1.046-49.367c.42 1.254-.06 3.705-.488 2.062.082-1.055.402-1.003.488-2.062zm-1.552 18.113c.368.277.515 1.27.874 1.59-.07 1.51-.809 1.194-.96.48l.086-2.07zm-1.694 37.83c.428-.692.947-.373 1.34.055-.23 1.012-1.167.588-1.34-.056zm.484-15.04c.056.424.108.852.07 1.556-.342 1.085-.623-.566-1.203-.047.052-2.002.86-.515 1.133-1.509zm-2.494 27.934c-.1-1.642 1.18-1.59.938.04l-.938-.04zm2.144-48.714c-.247 1.193-.359.774-.687.493-.013-1.085.147-1.375.22-2.07.445-.437.22 1.357.467 1.577zm1.733-19.137c-.255 1.094-.938.177-1.137 1.509-.095-.882-.315-1.35-.76-1.068.363-1.228 1.24-1.206 1.897-.441zm-4.547 64.708c-.035-1.184 1.003-1.845.8.035-.498-.07-.36-.6-.8-.035zm.272-6.739l.272.013c-.043.735-.086 1.466.07 1.56-.195 1.583-.441-.254-.515-.544.043-.415.156-.51.173-1.029zm.147-19.72c.056-2.05 1.206-2.18 1.362-.467-.679-.93-1.008 1.802-1.362.466zm-.173 26.987c-.268 3.173.38.717.25 3.653-.682-1.306-.782 1.011-1.512.972.22-2.43.333-1.37.147-3.63.397-.014.436-1.064 1.115-.995zm1.111-36.818c.19.056.376.108.428-.497.45.834-.346.765-.22 2.07.946-.09 2.697 1.734 3.562-1.932.324 2.395 1.815.03 2.234 1.133-2.226 3.506-4.763 2.659-6.912 1.79.147-2.715.42-.52.826-.484.35-.117-.147-.904.082-2.08zm-.484 15.04c-.29 2.282-.32-.818-.938-.035.194-1.172.488-1.872.89-2.05-.307 1.177-.371 1.544.048 2.084zm-1.202-.048c-.28 1.18-1.033.151-1.496.458.316-1.133 1.06-.895 1.496-.458zm-2.036-2.68l.065-1.557c.627-.76 1.072-1.275 1.608.07-.488.363-1.124.086-1.673 1.487zm.726-4.643c-.462.203-.337-1.565-.583-2.101.276-.999.575-1.859 1.024-2.036-.103.458-.199.916-.043 1.033-.337 1.617-.74 1.128-.398 3.104zm2.581-17.028c-.834 2.646-1.932-.89-3.078-.13.005-.6.065-.916.177-1.028.67-.32 2.391-.523 2.901 1.158zm-6.013 41.806c.186-1.193.826-1.14 1.223-.466-.454 1.258-.652.497-1.223.466zm2.481 4.777c-.505 2.412-1.543-.471-1.98 2.512l-.938-.043c.178-2.27.774-.718 1.003-1.513-.065-.528-.285-.55-.203-1.561.817 1.007 1.738-.268 2.118.605zm-1.97-17.218c-.286.208-.338-.376-.515-.536.073-.912.28-1.176.579-1.016l-.065 1.552zm-1.376 17.08c.005-1.323 1.09-.951 1.05.562-.207.622-.773-.078-1.05-.562zm2.248-41.443c-.069 1.56-1.011 1.46-.782-.554.233-.177.233.411.225 1.047.138-.398.328-.545.557-.493zm-4.508 37.712c.034-.79 1.041-1.098.786.55-.428.367-.467-.55-.786-.55zm-.065-1.56c-.463-1.786.575-1.812.774-2.564.345 1.258-.593 1.734-.774 2.564zm.203-11.413c-.095 1.686.207 2.512-.376 2.581.173-1.461-.134-1.353-.026-2.598l.402.017zm1.124-30.588c.277 2.023.717.834 1.098 2.646-.333 2.066-1.25-.19-1.63.45-.389-1.276.359-2.404.532-3.096zm-1.876 35.746c1.08-1.366 1.837-1.159 2.702-.402-.316 1.638-.87.09-.666 3.086-.177-.462-.506-.428-.316-2.088-.657-.242-1.543 1.72-2.3.42.39-1.375.498-1.254.109-2.59.168-1.785.415-.328.67.03.004.835-.16.887-.2 1.544zm-2.261-3.727c.238.752 1.158 2.023 1.452.584.121-.09.121.207.113.523-.043.44.03.484.112.523-.687 1.012-1.327 2.153-2.382 2.499.186-1.656-.138-1.634-.315-2.093.177-1.024.41-1.798.64-2.567-.217-1.95-.411 1.296-.822.48.454-3.468 2.088-2.845 2.274.095-.415.064-.705-1.254-1.072-.044zm-.951-35.343c.493-.925.74-.234 1.05.566-.402 1.029-.834 1.902-1.314 2.542.177-.61.23-1.824.264-3.108zm-2.81 51.8c-.264-.164-.203-1.409-.471-1.569.026-1.128.484-.22.691-.493.01 1.085-.146 1.366-.22 2.062zm.199-27.502c.324-1.158.813-1.569 1.176-2.55.19.13-.018 1.548.203 1.565-.277 1.098-1.128 1.707-1.38.985zm-1.604 25.894c.182.29.718-.583.644.54.07 1.751-.45.792-.713 1.008l.07-1.548zm-1.487-6.294c.104.402.281.575.514.54-.051 1.6-.466 1.522-.864 1.522-.095-1.681.45-.38.35-2.062zm.93 6.787c-.338.709-.753 1.029-1.137 1.513-.29-.674.064-2.957-.338-1.573-.367-1.168.588-1.35.87-1.522-.243 2.987.436.16.604 1.582zm-3.809 4.513c.476-1.063 1.552-1.426 2.3-.424-.787 1.466-1.47.822-2.3.424zm-1.608-3.177c.28-1.085.363-1.522.26-3.104.648-.942.155 1.867.449 2.092-.065 1.129-.385 1.098-.71 1.012zm.864-27.485c-.138-2.788 1.85-.285.822-.484-.311-.022-.428.878-.822.484zm1.129-17.602c-.268-.169-.316-1.05-.471-1.578.056-.562.28-.342.31-1.03.182.446.122 1.682.16 2.608zm-.48-17.672c-.104 1.158-.666.186-.955.475.142-1.768.674-.765.955-.475zm-3.938 66.29c.311-.803.748-1.046 1.245-.985.026 2.347-1.033 1.673-1.245.986zm2.455-49.738l-.047 1.033c-.316-.436-1.193.964-1.025-1.076l1.072.043zm-3.45 31.526l-.401-.017c.25-1.496.657.177.782.553-.07.913-.277 1.172-.58 1.016 0-.838.165-.886.2-1.552zm-1.18 25.393c-.008.882-.285 1.331-.064 1.552-.186 1.841-.653-1.293-.204-1.56l.268.008zm3.091-68.405c-.216 1.388-.7-.03-.938-.039.363-.972.757-1.076.938.04zm-3.302 37.765c.704-3.143 3.09-3.666 3.812-1.397-.964.843-2.416-.575-3.812 1.397zm1.664 8.377c-.203 4.271-1.91 2.715-2.382 2.49.25-.484.363-1.617.51-2.568.67 1.124 1.133.986 1.872.078zm-1.223-35.356c.09-.878.86-1.7.96-.48.025 1.945-.865.925-.96.48zm-1.972 44.568c.247-1.69.787-3.13 1.846-2.52-.216 1.625-.017 1.37-.238 2.585-.587.035-.864.83-1.028-1.08-.173.458.021 1.456-.58 1.015zm.091 14.02c-.143 1.772-.674.769-.955.479.151-2.313.648-1.05.955-.48zm.973-33.183c-.333-.095-.57.238-.718 1.003-.302-.156-.25-1.396-.047-2.075.307.177.47.839.916.553-.169.964.329 1.755-.086 2.075-.515.074-.03-.423-.065-1.556zm.743-44.106c.74-1.007.761 1.993 1.54 1.625-.545 2.659-1.112-1.05-1.54-1.625zm-1.4 53.426c-.433 1.941-.394 3.03-.614 5.162-.087-.891-.502-1.068-.182-2.088-.268 0-.229 1.409-.579 1.02.017-.506-.147-.41-.246-.532-.048-1.656.198-1.963.376-2.58.242-.053.255.648.514.54-.065-.532-.29-.554-.207-1.56.397.725.445.12.938.038zm-2.71 17.015c.25-2.866.89-.268 1.646-.973-.583 1.703-1.09 3.022-1.647.973zm-.926-16.652c.398.06.234 3.104-.238 2.58-.246-1.084.083-1.663.238-2.58zm1.077-22.799c-.243 1.28-.498.895-.826.485.065-1.418.683-1.206.826-.485zm-1.103 20.205c-.242 2.668-.8 1.03-1.25.986.265-1.474.9-1.582 1.25-.986zm1.24-30.065c-.522.986-.643-.847-1.318-.57-.173-.16 1.639-2.162 1.319.57zm-2.723 36.753c-.242.056-.255-.649-.51-.54.22-.39.264-1.643.597-1.535l-.087 2.075zm-.678 19.695c0 2.053-.761.579-1.111.994-.234-.713.838-.58 1.11-.994zm.57-56.046c.338-.07.38.83.627 1.068-.026 1.124-.484.216-.691.488l.064-1.556zm-3.946 50.201c.082-1.059.402-1.003.484-2.057.1.272.194.549.38.536-.056.696-.592.938-.039 1.033-.065 1.145-.579.194-.825.488zm3.661-72.537c-.264-.013-.791-.242-1.318-.57.371-2.482 1.085-.969 1.63-.45-.048.6-.264.423-.424.497-.044.44.03.493.112.523zm-1.686 5.118c.372-2.23 1.708-4.27 2.226-1.98-.497 2.322-1.396 2.845-2.226 1.98zm-2.274 51.827c.32-1.396.735-2.352 1.202-3.056-.052 2.632-.64 2.78-1.202 3.056zm1.06-32.14c.687-2.162 1.729-1.423 2.74-1.444-.54 2.209-2.096-.29-2.516 2.49-.039-.467-.078-.934-.225-1.047zm1.733-16.03c.216 1.85-1.357.675-1.803 1.487.45-2.48 1.271-.207 1.803-1.487zm-4.989 65.734c.338.069.195 1.746.139 3.12-.45.437-.22-1.352-.471-1.573.077-.683.268-.808.332-1.547zm1.591-58.082c.39-2.015.87-.19 1.492-.458-.277 1.18-1.03.147-1.492.458zm-.341 8.295c.216-1.041.51-1.742.886-2.044-.082-.761-.134-1.652-.471-1.574.199-2.498.583.679.691-.493-.082 2.503.696 2.175.765 4.19-.566-.416-1.076 1.119-1.871-.079zm-1.842 31.592c.562-.485.41 3.116-.108 2.593l.108-2.593zm-2.053 23.797c-.048-1.669 1.392-1.613 1.206.052-.355-.657-.8-.675-1.206-.052zm.743-21.256c.06-.747.407-.164.446-1.02.324.696.337 1.72.138 3.121-.458.173-.151-2.187-.584-2.1zm.454-33.73c.147-.753.268-1.63.597-1.53.043-.438-.03-.494-.113-.524.294-1.517.441 1.193.294 2.607-.467-.19-.268-1.436-.778-.554zm1.56-24.857c.066.536.286.553.204 1.574-.428 1.283-.752-.506-1.185-.575.71-.515.614-1.38.934-3.074.835.782 1.617-.934 1.479 3.173-.472-.238-.251-2.762-.986-2.118.553 1.037.199 1.132-.445 1.02zm-2.113 41.452c.216 1.582 1.107-1.362 1.007 1.6-.51.185-.882.18-1.625.444.112-2.29.393-2.433.346-5.17.45-.696.12 3.411.47 1.574.424.523-.19 1.02-.198 1.552zm-.255-19.743c.45.77.549 2.568.095 4.155-.29-.54-.177-2.387-.095-4.155zm-.657 58.125c-.601-.493-1.215-.895-2.006-.082.233-.774.16-2.957.64-2.572-.398 3.043 1.448-.246 1.366 2.654zm-2.157 3.54c.155-1.184.851-.466.626 1.068-.536.727-.198-1.435-.626-1.067zm1.833-60.662c.354-.134.566.208.47 1.574-.358.13-.566-.216-.47-1.574zm-1.293 50.824c.428-3.809-.393-1.254-.718-2.105.377-2.676 1.12-.35 1.67-1.487-.278 1.928-.386 1.884-.148 3.626l-.804-.034zm1.595-67.947c.225-2.04.636-1.435.981-1.002-.376 1.379-.415.497-.98 1.002zm-2.87 66.339c.173-1.461-.13-1.358-.026-2.603.264.502.752 2.56.026 2.603zm2.866-43.497c.333-.194-.173 2.356.341 1.574-.164.899-.467 1.128-.847 1.003-.186-1.842-.173-2.01-.873-1.595.216-1.254.25-3.355.687-3.61.005.445-.073.489-.16.519.324.307.58 3.138.852 2.11zm-1.262 30.58c-.234-.436-.614-1.94-.8-.034.238-.13.605 1.487.8.034zm-2.183.943c.108-1.241-.195-1.129-.026-2.59.82-.475 1.448-.467 2.52.623-.29.972-.065 1.3-.104 2.593-.973-.739-1.245-.017-2.166.424.095-1.223.506-.942.51-2.572-.44-.406-.259 2.1-.734 1.522zm1.953-31.064c-.069.7-.354.415-.557.497.056.7.246.977.493 1.054-.139.597-.234 1.384-.242 2.59-.394-.394-.51.506-.826.484-.255-2.39.32-2.633.328-4.66.411.281.571-1.102.804.035zm-2.576 42.986c-.207 1.305-.657 1.483-1.137 1.509.108-2.188.839-1.855 1.137-1.51zm-2.066 4.586c.056-1.655.895-1.31.981-.998-.32.45-.713 2.183-.981.998zm3.065-67.885c-.147.955-.26 2.087-.506 2.576-.324-.778.173-2.844.506-2.576zm.419 9.363c-.592 1.353-.7-1.193-1.336-.052.177-2.706 1.383-2.486 1.336.052zm-1.578 15.51c-.268-.155-.047-1.936-.315-2.092.077-.674.272-.804.332-1.543.247.371.299 1.4.294 2.61-.13.225-.259.446-.31 1.025zm-.588 7.764c.316-.143.087 1.5.337 1.57 0 1.447-.713-.433-.713 1.01-.173-.168-.056-1.3-.047-2.079.185.048.376.1.423-.501zm.506-28.54c-.138-1.595.942-1.547.67.03l-.67-.03zm.328-4.66c.091 2.296-.501 1.397-.868 1.53.13-1.253.553-1.136.869-1.53zm-.678 19.708c-.385 1.384-.58.437-1.25.986.117-2.308.636-2.637.688-3.605.06-1.15.575-.195.821-.489-.194 1.349-1.033 2.123-.26 3.108zm-2.412 48.702c-.36-.917-.688.138-.917-.554.268-.812.744-.666 1.116-.994-.087.41-.173.834-.2 1.548zm-1.224 3.587c.385-.7.562-2.347 1.046-2.559-.13 2.732.683.04.852 2.119-1.02.57-.951.994-1.898.44zm1.271-27.471c-.108.532-.333.527-.333 1.552.009.972.796-2.019.627 1.059-.488-1.033-.45.998-.938-.04l.108-2.593.536.022zm-.657 6.207c-.216-.929.247-1.595-.186-2.083.307-1.548.35 1.487.917.557-.04 1.457-.39 1.479-.73 1.526zm-.467 27.498c.082 1.656-1.284 1.604-1.067-.043.605.1.505.45 1.067.043zm2.343-50.262c-.246.705-.57 1.046-.756 2.045-.156-2.278-.165-.58-.783-.553.2-2.564 1.116-1.544 1.54-1.492zm-.523 6.208c-.207 2.563-1.059-.311-1.093.471-.281-1.872.972-.363 1.093-.471zm3.55 40.643c-2.089 1.146-3.55-.086-5.573 1.846.592-1.98-.26-3.674-.748-4.703.584-2.26 1.202 4.621 2.24 1.128.899 3.052 3.242-.934 4.08 1.73zm-6.239 4.933c-.35 1.232-.544 3.229-1.31 2.537.29-.899-.095-1.517.243-2.58.393.808.579.207 1.067.043zm1.103-33.182c-.476-.061-.74-.84-1.163-1.085.056-.982.458-.342.467-1.54-.035 1.751.726.882.696 2.625zm-1.92 10.82c.178-1.245.912-1.751 1.111-.995-.32 1.103-.765 1.63-1.11.995zm1.608-48.736c.07-.9.761-.186.627 1.068-.445.419-.488-.48-.627-1.068zm.52 3.657c-.074 1.543-.857 1.349-.65-.545.32-.155.51.1.65.545zm-2.486 18.065c-.083 2.542-.934 2.507-.809-.034l.809.034zm-.722 20.741c-.29-.385-.666-.488-.9-1.072.23-.605.251-2.148.627-2.058-.29 2.287.394 1.38.273 3.13zm1.089-49.276c.242.074.311-.622.558-.497.134 2.049-.584.156-.597 1.535-.177-.169-.056-1.306-.052-2.084.134.022.082.644.091 1.046zm-2.084 66.887c-.125 1.068-.29 1.954-.734 1.526.043-.596.008-.92-.091-1.041.065-1.137.575-.2.825-.485zm.277-55.54c.06-1.612 1.007-2.265.804.035-.41.45-.432.445-.804-.034zm.51-15.553l-.043 1.033-.536-.021c.03-2.235.389-.649.462-1.54.121-.086.121.208.117.528zm-1.66 33.675c-.402-.043-.238-4.25.286-3.618.16.739-.135 2.511-.286 3.618zm2.028-13.414c-.13 2.058-1.146.017-1.289 2.028-.605-1.276-.964-.878-1.543-1.626.575-3.64 1.72-.86 2.654-2.481.07 1.465.139 1.305.178 2.08zm-3.856 25.28c-.333-.614.1-2.754.488-2.053.048 1.668-.475.691-.488 2.053zm-.083-20.767c.217-2.624.766.117.913.553-.437 2.153-.441-.458-.913-.553zm-4.47 7.6c.13.021.078.64.091 1.042.139-.394.325-.545.558-.493-.233 1.357-.506 1.569-.847 1.007-.004-.843.164-.89.199-1.556zm-1.936 1.482c.445-3.034 1.621-3.436 2.334-4.577-.203 2.974-1.184 2.3-1.53 4.612l-.804-.035zm-1.932 17.568c.294-1.167 1.024-2.269 1.072.048-.558-.138-.666.813-1.072-.048zm-.497-30.13c.397.58 1.206-1.962 1.18.567.285-.943.622-1.647 1.024-2.036.03 1.085.268 1.495.139 3.12-1.384.225-1.872.805-3.03 1.955.25-1.094.48-2.3.687-3.606zm-.757 2.045c-.108 1.154-.67.182-.96.475.234-1.353.636-.96.96-.475zm-1.535 27.45c.026 1.98-.66.631-.98.999.055-1.652.53-.095.98-.999zm.109-38.413c.22-.22.181-1.63.579-1.011-.043.415-.156.51-.177 1.029.246.246.64-1.578.514.54.173-.121.177-1.025.043-1.038.35-1.832.32 1.284.471 1.578-.19 2.192-1.024-.45-1.002 1.518-.377.013-.809-.506-.472-1.578-.583 1.184-.804-1.072-1.335-.056.038-.74.082-1.47-.07-1.561.415-.363 1.328-1.111 1.449.58zm-5.482 64.679c.121-1.704.71-1.241 1.137-1.522-.104 1.798-.778.916-1.137 1.522zm.748-31.13c.26-2.178.73-.146 1.228-.466-.337 1.816-.692.354-1.228.467zm1.414-8.247c-.411.203-.908-.489-1.453-.58.38-1.81 1.453-2.442 1.453.58zm.28-29.577c-.112.415-.267 1.405-.064 1.552-.104 1.15-.726.376-.804-.035.026-1.742.614-.838.869-1.517zm-2.273 51.822c-.394 1.4-.532.407-1.09.476.364-1.306.627-.727 1.09-.476zm-1.799-8.382c.286-2.434.748-.882 1.224-.471-.212 1.764-1.025 1.971-1.224.471zm1.505-33.165c-.182 1.405-.45-.549-.649-.549.32-2.334.761-.687 1.155-2.027.147.622-.022 1.963-.238 2.585-.29-.22-.489-1.617-.268-.009zm-3.502 39.308c.657-1.82 1.129.095 1.742.073.04-.769.783-2.29.217-2.062.064-1.145.579-.203.825-.488-.605 2.14.523 1.254.41 3.134-.911-.437-2.057.39-3.103.385.048-.597.009-.917-.09-1.042zm-.575-8.845c.06-1.66 1.146-2.373.943.04l-.943-.04zm-1.673 37.315c-.246.886-.648 1.094-1.11.99.146-1.379.98-1.426 1.11-.99zm-.553-61.29c-.64-.825-.834.77-1.474-.06.432-1.685 1.271-2.144 1.474.06zm-1.643 30.045c.312-1.241.826-1.522 1.068-3.07.545.636.545-.017 1.09-.475-.346.947 1.43 2.347 1.634 2.663.44 1.426-.735 2.321-.536-.026-.38 1.573-1.583 2.702-2.028.44-.618.926-1.772 2.547-1.854-.596.047 1.154-.528 1.288-.329 1.544-.324.237-.501-.779-1.094.475.489-2.914 1.025-2.646 1.643-4.085-.61 2.157.588 1.033.406 3.13zm-2.031-15.658c.337.074.194 1.747.138 3.121-.32.147-.51-.108-.648-.549.147-.96.259-2.087.51-2.572zm-.973 17.093c.095-1.366-.225-1.349-.475-1.578.432-2.062.743-.934 1.517-.981-.113 1.954-.636 2.006-1.042 2.559zm.177-10.898c-.544-1.206.459-1.197.757-2.045-.164 1.595.328 1.012.16 2.607-.554.86-2.845.674-.917-.562zm-1.175 2.55c.017.99.345.952.16 2.603-.485.264-.251-1.85-.74-1.595.117-.688.329-.943.58-1.008zm.259-16.085c-.039 1.461-.39 1.483-.73 1.526.004-1.62.35-1.647.73-1.526zm-.774 15.545c-.311 1.284-.791-.644-1.18-.566.156-2.646.89-.506 1.042-2.56.168.195.173.926.359 1.055-.01.696-.61 1.548-.22 2.071zm-4.06 49.67c-.168-.342-.202-1.116-.18-2.084.276-.955.32.437.803.035-.13 1.054-.683.12-.622 2.049zm1.367-46.147c.06-1.569.523-1.275.869-1.521-.022.929-.212 1.08-.22 2.066-.407-.372-.55.035-.649-.545zm.631-21.783c-.104-1.4-.7-.021-.938-.034.562-2.097-.718.96-.45-2.097.878.23 2.456-3.96 3.186-2.464-.466.277-.73 1.526-.709 4.124-.285.203-.337-.372-.51-.54-.38 1.206.16.973.026 2.598-.445.28-.61-.38-.916-.558.056-.562.28-.341.311-1.029zm-2.049 13.937c.195-1.811.043-1.712.398-3.1.311.308.67.476.579 2.102-.51-1.405-.32 1.543-.977.998zm.186 5.2c-.631-1.642-1.003.338-1.85-.6.653-3.009 1.275-.445 1.958-1.989l-.108 2.59zm-5.136 46.51c.018-1.366 1.401-1.975 1.05.566-.466-.79-.367-.868-1.05-.566zm1.617-45.619c.376 2.162 1.734-.337 2.343 1.656-.497.583-1.47.41-2.43.42l.087-2.076zm-.562-12.484c.26-2.348.99-2.157 1.383-.986-.332.925-.972.42-1.383.986zm-.12 6.225c.846 1.275-1.025 3.333-.628-1.064.363-.657.601 1.19.67.03.165.135.091 1.038-.043 1.034zm.323-17.638c.143 1.35.178 2.733.74 1.591-.04.73-.083 1.466.069 1.557-.489.76-1.306.056-2.028.436-.06-1.595-.618-1.526-.674-3.143.056-.977.458-.345.467-1.539.302.524.998 3.913 1.426 1.098zm-2.187 23.793c-.367 1.483.125 1.725.493 1.06-.277 1.966-.938 1.197-1.38.976.087-.41.174-.83.195-1.547.363.445.38-.718.692-.489zm-1.254-2.13c.523.44.9.847.735-1.522.312.458.208 2.308.718 2.1-.368 2.352-.783.753-1.513.973l.06-1.552zm1.133-4.626c-.1 1.608-.705.847-1.115.994.168-2.654.925 1.301.886-2.04.143.125.052 1.029.229 1.046zm-2.758 18.06c.281-.76.679-.968 1.115-.994-.073 1.708-.462 1.967-.89 2.036.086-.873-.065-.98-.225-1.041zm2.347-34.176c-.29.454-.034 2.274.091 1.042.277 1.4-.203 1.513-.575 1.02-.238 1.673.415.415.182 2.084-.83.212-1.306-1.09-1.28-4.725.216 2.045 1.137 1.41 1.582.58zm-3.03 24.8c.022-1.768.86-2.157.67.026l-.67-.026zm-.553 16.591l-.087 2.071c-.246.303-.493-1.539-.67-.026-.398-1.314.41-2.183.757-2.045zm-.376-23.377c-.087-.472-.096-1.176-.048-2.08.354-.13.566.216.471 1.574-.117.276-.242.54-.423.506zm-1.358 39.398c.07.821.394.795.316 2.092-.355 1.189-.605-.272-.761-1.068.065-.747.41-.164.445-1.024zm3.286-60.088c-.156 2.538-.934 1.237-1.384.986.528-.817.852-1.63 1.384-.986zm-2.071 1.47c-.017.506.143.41.246.532l-.043 1.037c-.112-.099-.138.2-.156.51-.341-.073-.194-1.742-.142-3.116.147.186.302.925.095 1.037zm-2.806 41.945c-.19.67-.086.812-.064 1.552.315-.277-.126-.813.198-1.548.71.143.165 1.634.718 2.105-.19 1.167-.847.156-1.223.463-.03-1.228-.108-2.417.371-2.572zm.778-25.41c-.043.6-.004.925.096 1.042-.065 1.145-.58.194-.826.484.225-.6.389-1.483.73-1.526zm-1.18-13.548c.044-.436-.03-.493-.112-.523.246-.488.359-1.612.506-2.576.946.393.817 1.872 1.5 2.658-.636 3.281-1.25-1.405-1.781.964-.117.091-.117-.207-.113-.523zm-1.223 39.407c-.16.9-.467 1.124-.847 1.003-.048-1.88.557-.704.847-1.003zm.004-22.846c-.108-2.352.86.311.752-2.045.428-.367.2 1.431.627 1.06-.402.51-1.14 1.646-1.379.985zm-2.732 46.618c-.125 1.828-.627.998-.393 3.095-.22-.2-.268.393-.311 1.024l-.666-.03c.225-.588.385-1.478.73-1.522.005-.61-.224-.45-.38-.536.125-.454.195-1.162.22-2.066.398.605.303.056.8.035zM94.02 165.2l-.065 1.564c-.329 1.129-.368-.683-.783-.557-.047-1.88.558-.7.848-1.007zm-1.271 1.517c-.177-.169-.056-1.306-.048-2.084l-.268-.013c.07-.7.355-.415.558-.497.052 1.47-.247 1.345-.242 2.594zm-.476 21.264c-.082 1.552-.825 1.63-.981.994.06-1.655.9-1.31.981-.994zm-1.232-15.631l-.402-.018c-.013-1.089.151-1.366.22-2.062.234.13.269.9.182 2.08zm-2.758 40.902c.169.19.173.921.359 1.055-.216.9-.916 2.693-.804-.034.26.19.424-.087.445-1.02zm1.202-25.91c-.16.907-.324 1.798-.73 1.53l.06-1.557.67.026zm-1.971-4.233c-.03-1.967.674-1.811.847-1.003-.229.726-.657 1.89-.847 1.003zm-1.262 4.621c.557-.652.203 1.716.76 1.068-.065 1.146-.579.199-.825.488l.065-1.556zm-.307-8.844c.38-1.02-.424-2.421.376-2.577.142 2.85.808.7 1.409 1.613-.376-.567.086 2.831.359 1.055-.091 1.046-.044 1.625.203 1.569-.649.527-1.4.216-1.522-2.14-.393-.398-.432.877-.825.48zm-2.763-23.992c.065-1.146.575-.195.822-.484-.208.882-.36 2.027-.753 2.045-.263-.757.22-1.263-.069-1.561zm-1.655 33.68c.341-1.587.847-.571 1.534-1.496a8.192 8.192 0 0 0-.199 1.551c-.644-1.167-.61.83-1.335-.056zm-3.143 27.384c-.043-1.91.743-.912.826-.484-.065 1.146-.58.2-.826.484zm-2.304-2.688c.605-.921 1.885-.51 2.3-.428-.472 1.318-1.682.527-2.3.428zm1.15-8.257l-1.072-.043c.229-2.105.998.596 1.175-2.555.515.722-.025 1.327-.103 2.598zm-1.764.44c-.726 1.194-1.08-2.264-1.513.978-.09-.9-.463-.865-.298-2.607.423 1.422 1.63-1.53 1.811 1.63zm-3.9 3.476c-.306 1.284-.553-.67-.955.489-.211-1.007.117-.942.109-2.602.22 1.14.168 1.81.847 2.113zM69.05 198.44c-.004.916.181 1.193.493 1.06-.39 1.724-.796.09-1.18-.563.384-1.707 1.037-2.17 1.487-3.575.376 1.046.276 2.019 1.27 1.613-.531 2.546-1.24.445-2.07 1.465zm-6.882 17.37c.19-2.236 1.154-.796 1.517-.974-.324 1.168-1.158-.038-1.517.973zm-11.21 5.251c.485.696.779-.29 1.008 1.596-.41 2.087-.545-.515-1.206-.048 0-.843.164-.886.199-1.548zm-6.228-1.815c0-.835.168-.886.198-1.548.558.1.398 2.564.502 4.172-.964.536.065-2.836-.7-2.624zm-1.492.454c-.06.752-.406.173-.44 1.024-.33-.406-.403-1.673-.256-3.644.212.938.428 1.872.696 2.62zm-6.246-1.293c.389-2.645-.07-3.16-.03-5.71 1.154.812.574 5.282 1.015 7.828-.739.644-.31-2.55-.985-2.118z" fill="#BBFFF8"></path>
</g>
</svg>