<svg height="62" viewbox="0 0 80 62" width="80" xmlns="http://www.w3.org/2000/svg">
<defs>
<lineargradient id="pricing-shape-2-a" x1="50%" x2="50%" y1="100%" y2="1.423%">
<stop offset="0%" stop-color="#9D62F1"></stop>
<stop offset="100%" stop-color="#BA91F5"></stop>
</lineargradient>
</defs>
<g fill="none" fill-rule="evenodd">
<path d="M47 61.89c17.673 0 32.594-13.268 32.594-30.941S60.76 0 43.088 0C25.415 0 .938 27.397.938 45.07.938 62.743 29.326 61.89 47 61.89z" fill="url(#pricing-shape-2-a)"></path>
<path d="M31.005 18.076c.08-1.594 1.04-2.625.535-3.541.258-1.113.816-.099 1.19-.37-.413 1.353-.401.308-.863.906.024 1.31.579.293.525 1.067-.068.523-.123.77-.174.867.125.054.095.521.05 1.014.099.099.14-.174.183-.468.408-.102-.477 1.359-.036 1.46-.398 1.452-.54-.609-.293-1.974-.11-.101-.233-.541-.468.02-.012.62.054 1.04.273 1.033-.231.7-.537.895-.864.91a4.137 4.137 0 0 1-.061-.846c-.553.945-2.115 1.721-1.996-1.28.117-.077.1.204.072.494-.09.655.687.254.666-1.385.123.135-.02.96.147.987.414-.275-.006-1.04.21-1.925.51-.407-.099 2.093.114 2.448.567-.916.272.64.79.583zm23.41 15.18c-.134.05-.26.152-.31.737-.375.156.405-2.339.03-2.186a2.58 2.58 0 0 1 .1-.295c-.07-.142-.153-.256-.235-.37.074-1.583.377-1.497.543-2.427.015 4.256 1.09.171 1.014 3.601.374-.04.64-.84 1.018-.874.015-.452-.42-1.373-.457-.556-.178-.792.567-1.95.757-.908.193-1.682-.343.027-.156-2.009-.27-.122-.457.352-.561 1.428-.162-1.81.751-3.635 1.165-4.347.392-.321.144 1.009.398 1.042.408-1.473 2.968-1.605 2.903.841.475-.177.932-2.375.776.092.282-.104.414-1.284.619-1.923.383.397.732.886 1.17 1.137 1.233-2.739 2.036 3.054 3.6-.575.12 1.526.613 1.049 1.158.138.328 1.672-.99 2.002-.739 2.907-.168 1.379-.214-1.213-.377.95-.677-3.188-2.936.074-3.181-2.87-1.089 2.816-1.72.9-2.695.682-.754-.165-1.94 3.13-1.744-.706-.41 1.712-.493 1.107-1.134 1.859-.181 1.045.077.96.27 1.033-.387.544-.66 1.923-1.131 1.858.128 1.948 1.48-.938 2.105-1.247-.404.447-.69 2.608.025 1.996-.092.697-.184 1.391-.043 1.49-.377 1.24-.969.92-1.462 1.323.132-.86.352-1.095.628-.926-.061-2.125-.962 2.014-1.027-.12-.404.404.26 1.147-.233 1.969-.619-2.837-1.272-2.436-2.912-1.837.056-.344.094-.643.118-.906zm-6.22-26.35a.31.31 0 0 1-.094.049c-.014.067-.03.165-.05.3a.96.96 0 0 1-.05-.284.88.88 0 0 1-.256-.046c.018.741.243 1.244-.147 2.075-.117-.51.081-2.052-.324-.454-.024-2.07-1.497-.1-1.245-2.208.348.338.519-.377.813-.336.087.397-.159 1.52.219 1.272.315-.2-.072-.66.291-1.224.144.16.102.744.267.865-.106-.961.17-.609.549-.626.259-.472.696-.515.39 1.026-.224.382-.3-.193-.364-.41zM5.384 36.308c-.162-.884-.109-2.364-.385-2.932.399-1.333.633.736 1.284-1.376.069 2.379-.186 2.37-.507 5a.282.282 0 0 1-.187-.117c.072.383.09.91.038 1.625C5.454 37.572 4.977 37.455 5 36c.15.047.28.143.385.308zm59.753 15.496c-.046.02-.092.043-.138.068a5.09 5.09 0 0 1 .037-.431c-.097-.57 0-1.375.25-2.441.44.065.26.825.074 1.845.153-.053.31-.092.368-.845 1.518 1.897.628 1.295-.517 1.772l-.018.153a1.275 1.275 0 0 1-.056-.12zm1.595-10.709c.495-.246.958.01 1.334.496-.672.588-1.172.704-1.592.548-.494 1.28-1.114-.388-1.475-.368.696-1.11 1.191-.153 1.749-.771l-.016.095zM47.25 56.008c.212-.067.486.308.684.136-.336 1.539-.699.429-.933.378l.005-.03c-.353.02-.598.788-1.005.41.06-1.323.36-.939.471-1.902.35.102.88-.264.778 1.008zm-4.234-52.18C42.18 5.509 41.648 3.584 41 5c.651-2.44 1.345-2.117 2.166-1.74.23-.49.58-.227.647.292-.312 1.176-.531.804-.813.396l.015-.12zm-8.537 9.343c.112-.243.224-.265.34.184-.492 1.363-.351 2.64-.678 4.099.027.779.201 1.145.525 1.106-.606 1.312-1.065-.673-1.665-1.24.171-.591.312-1.367.396-2.566.333 1.246.604.043.858-.892-.076.1-.158.163-.254.14.09-.687.174-1.362.036-1.461.243-1.437.216.495.504.057l-.062.573zm-2.146 8.993a.506.506 0 0 1 .28-.164c-.081.567-.066.867.021.981-.05.355-.127.508-.21.542a6.381 6.381 0 0 1-.003.025c-.328.545-.361.171-.345-.397a1.207 1.207 0 0 1-.075-.239c.03-.122.062-.229.096-.322.017-.466.02-.915-.096-1.043.159-1.122.585-.216.633.069-.057.47-.195.36-.309.456l.008.092zm-2.015 3.79c.07-.178.128-.436.148-.95.031-.01.054.002.069.034l.006-.033c.282-.06.357.435.219 1.488-.182.488-.266.444-.351.288-.011.29.036.427.225.193-.159 1.128-.585.22-.633-.069.027-.24.067-.395.112-.515a.188.188 0 0 0-.112.019c.132-1.233.162-.576.309-.453a.04.04 0 0 0 .008-.001zM5.13 49c-.399 1.538-.042 1.09-.18 2.652-.438.564-.837.482-.951-.534.6-1.937.501.115 1.131-2.118zm5.745 2.894c-.246 1.185-.408-.717-.876-.093.36-1.46.675-.612.876.093zm2.58.106c.126.183.228.882.024.972-.048.477.111.396.198.513-.228.672-.597 1.047-.678.417L13.456 52zm-.676 3.428c-.204.831-.411 1.653-.78 1.38.087-1.845.66-2.226.78-1.38zM14.234 48l.252.024c-.426.504.27 2.705-.486 2.976.039-.496.12-.756.228-.84.003-.624-.069-1.06-.222-1.32.066-.336.18-.41.228-.84zm5.36 7.554c.027-1.104-.435-.912-.594-1.53.183-.846.234-.039.375.042.219-.186.273-1.506.606-.915-.024 1.536-.078 1.29-.387 2.403zm4.342-34.93c-.369.837-.672.78-.936.384.405-.219.972-1.893.936-.384zM20.51 49.01c.726-.14.309 1.191 1.152 1.098-.498 2.877-1.038-.708-1.662 1.29.066-1.5.495-.546.51-2.388zM24.387 35c.093.561.078 1.404.525 1.038-.225.996-.531 1.428-.912 1.362.075-1.167.345-1.023.387-2.4zm-.396 24.096c-.228 1.263-1.011 1.29-.93.387.312-.123.555-.71.93-.387zm1.415-2.084c.216-.096.168.416.324.455-.333.862-.31-.01-.501-.047.02-.356.099-.39.177-.408zm3.879-34.627c.408 1.368.72-.702 1.317-.342-.114 1.203-.366 1.47-.522 2.385-.48-.735-.585-.585-1.08-.606.051-.78.21-.816.285-1.437zM31.57 21c.486.204-.327 1.662.222 1.488-.111 1.515-.444 1.518-.792 1.38.243-.597.327-2.271.57-2.868zm2.339-13.421c-.312.48-1.164 1.614-.834-.579.384.687.468.015.834.579zM34.975 8c-.096 2.175-.654 1.218-.975 1.842.153-1.779.624-1.407.975-1.842zm-1.391 17.057c-.07 1.491-.447.885-.52 2.382-.14-.432-.011-1.572.016-2.439l.504.057zM35.288 31c.411.177 1.062-.258 1.203.621-.102 1.86-.669.501-.774 2.358-.174-1.413-.372-.996-.717-1.545.108-.381.216-.768.288-1.434zm2.203 4l-.27 2.415c-.453-.411-.861-.939-1.221-1.602.525-1.416.747-.336 1.491-.813zM37 30.697c.414-.526.681-1.957 1.224-1.656-.387 1.645.243.881-.018 2.225-.471-.632-.414 2.08-.846 1.697.486-2.19-.21-1.582-.36-2.266zm-1.041 19.652c-.324 1.821-.546.297-.933.384-.21-.408.936-1.188.933-.384zm3.977-23.946c-.321 1.824-.546.3-.936.387.129-1.893.45.303.936-.387zM42.453 16c-.195 2.683 1.149.171.882 3-.384-.86-.699-.74-1.335-.542.399-.977.297-.86.453-2.458zm2.17 4.24c-.528 2.845-.798-.9-1.623.796.285-2.052 1.11-.342 1.623-.795zm-1.404 4.826c.426-.306.405.55.702.57-.207 1.161-.6 1.017-.921 1.362l.219-1.932zM44 18.385c.057-1.152.063-2.265.528-2.385-.162.909-.159 2.925-.528 2.385zm2.183-6.543c.312.181.489-.607.597-1.842.447 1.14.654.81 1.335.628-.183 1.132.111 1.052-.147 2.372-.621-1.648-.945-.988-1.968-.7.024-.4.099-.444.183-.458zm1.816-8.69c-.438 1.147-.54 1.38-.999.862.108-1.845.672-.543.999-.861zm1.447.494c-.252 1.06-1.128.693-1.446.318.441-1.89 1.302-.44 1.446-.318zm-2.679 35.745c-.906-1.092-1.059 5.435-1.767 3.1.369-1.337.87-3.553.009-3.293.186-.35 1.899-2.624 1.758.193zm1.619-8.33c-.45 1.701-.831-.17-1.386-.159.402-1.5 1.074-.906 1.386.16zm.355-12.04c-.102 1.678-.642 1.68-.741.892.186-.705.438-1 .741-.891zM47.565 40.45c-.36.627-.327-1.302-.501-.06-.363-1.242.96-2.406.5.06zM52 19.694c.414-.744.906-.936 1.188-.35-.447 1.685-.594.074-1.188.35zm4.466-15.08c-.843 1.392-1.497-.192-2.379 1.68.261-.678.402-1.848-.087-1.476.3-1.656 2.073-.303 2.466-.204zm-1.204 7.926c-.681 1.371-1.407.885-2.262.72.768-2.04 1.722-1.074 2.262-.72zm-6.515 46.532c-.666 1.44-.918 4.122-.627-.072l.627.072zM49.864 55c-.051 2.235-.786 1.452-.864.879.219-.783.591-.462.864-.879zm-.39-7.121c.282.555.552.378.864-.879.132.672.291 1.284.225 2.469-.594-.393-1.023.336-1.563.312l.474-1.902zm2.405-5.232c-.321 1.833-.708.411-.879-.102.357-1.437.504.462.879.102zm4.071-21.122c-.387 1.143-1.425.363-1.95.264.612-1.626 1.308-.228 1.95-.264zM54 28.43c.111-.381.222-.771.294-1.431.063.345.258.786.378.042.117-.078.099.204.072.495-.039.327-.075.645-.114.966-.369-.33-.495.861-.63-.072zM55.21 30c-.297-.41.522-1.659-.21-1.284.114-.825.414-.496.477-1.636.39-.517.171 1.682.447.465.324.388-.258 1.331-.282 2.075-.117.067-.096-.173-.069-.426-.138.176-.273.34-.363.806zm-2.042 17c.261.453.882-.021.708 1.551-.126-.984-.564-.303-.876-.102L53.168 47zm7.828-15c.27 1.146-.576 1.728-.858 1.854-.006-.435-.009-.873-.138-.996.546-2.358.6 1.296.996-.858zm5.341-22.914c-.402 1.725-1.938.75-2.337.216.585-.594 1.98-.108 2.337-.216zm-6.131 41.878c-.864 2.013-.741-.861-1.206-1.611.582-1.254.834 1.209 1.206 1.61zm2.571-31.961c-.21 1.317-.369 2.965-.777 2.997.189-1.426.351-3.076.777-2.997zm-.841 31.277c-.255.546-.474 1.356-.801 1.374-.006-.435-.009-.876-.135-.996.372-.83.675-.777.936-.378zm1.739-14.233c-.114 1.272-.363 1.56-.675 1.383.111-1.269.36-1.56.675-1.383zm.588-1.054c-.546.142-.066-2-.102-2.993.297.413.225 1.644.102 2.993zm-.567 7.4c-.315.03-.615.003-.696-.57.225-1.026.939-1.353.696.57zm.615 3.783c-.507 1.305-1.116.768-1.311.336.306-1.08.894-.075 1.311-.336zM66.3 21c.633.486.906.972 1.65 1.173-.564 1.857-1.389.432-1.95.258.06-.783.219-.819.3-1.431zm2.633 6c-.135 1.743-.549 1.425-.933 1.359.366-2.061.486-.684.933-1.359zm.988-7c.336.039.09 1.554.456 1.521-.387.798-.861.945-1.377.813.279-.984.654-1.266.921-2.334zm.201 9.443c-.117.624-.309.726-.426 1.413-.426.303-.267-.879-.696-.573.366-2.199.879-.924 1.122-.84zm-.217 4.528c-.498 2.238-.621-1.014-.88-.108-.191-1.773.745-.336.88.108zm-2.038 17.157c-.369 1.56-.426 1.182-.867.873.09-1.755.573-.612.867-.873zM71.174 45l.753.093c-.651 1.692.696.198.21 2.469-.939.864-.513-2.106-1.137-1.116L71.174 45zm5.891-20.524c-.273 1.692-.822.684-1.065.363.366-1.92.504.126 1.065-.363zM5.175 39.46c.444-.393.705-1.395 1.056-.375-.243 2.1-.537-.639-.654 1.395-.303-.36-.885-1.014-.375-2.481.138.099.012.894-.027 1.461zm.203 9.555c.417-.186.195 1.338.477 1.515-.3 1.26-.567 1.44-.855.888.078-1.122.216-1.851.378-2.403zm1.292 2.28c.171-1.2-.447-.406-.174-1.87.312.413.396-.614.678-.395-.006 1.964-.423 3.564-.132 4.617-.11.6-.303.7-.405 1.352.006-.535.084-1.836-.42-1.893-.099-.097-.14.165-.177.441-.213-.404.48-1.574.63-2.251zm4.49-24.645c-.345-1.345-1.413.738-2.07.283-.273-.095.162-2.153.18-3.051.606-.509.714-.006 1.185-.38l-.15 1.517c.432-1.278.687-1.238 1.035-1.42-.03-.521-.237-.55-.1-1.542.769-.544.169 2.928.325 3.1-.081.575-.156.27-.126-.012-.474-.145-.087.411-.28 1.505zM10.933 34c-.783.903-.132 1.395.249.024 1.404.804-.6 2.091-1.134 2.319-.144-.312.177-1.86-.048-1.959.141-.42.444-.369.933-.384zm2.343-9.488c.441-.705 0-2.337-.276-1.005.09.387.225 2.364.528 1.032l-.252-.027zm.724-.816c1.221-1.65 1.377.294 2.628-.696-.852 3.879-1.5-.111-2.328 2.682-.426.201.207-2.397-.3-1.986zM13.032 48c.192.801-.666 1.536-1.032 1.353.201-1.41.777-.312 1.032-1.353zm13.127-24.444c.177.96.651-1.194 1.188-.36-.081.564-.276.384-.429.441-.072.411-.003.462.072.498-.177.138-.501.762-.99.867l.159-1.446zM30.866 7c.23.3.182.776-.032 1.454 1.018-1.802 1.415-.776 2.166-.25-.739.735-1.566 1.24-2.34.711-.086.56-.068.854.018.973-.15.479-.783-.646-.663-2.01.33.03.704.341.85-.878zm-3.72 51.397l1.5.165c-.33-.597-.387.72-.606.906.33-2.184-.576-1.368-.894-1.07zm4.35-30.1c-.348 2.032-.735-.734-.309-3.297.435.133-.177 3.3.31 3.297zm3.79-23.595c.94-.85 2.14-.08 2.714-.702-.717 2.922-2.528 2.137-2.742 5.914-.542.66-.078-2.63.029-5.212zm1.256 8.747c-.207 1.71-.303-1.074-.435.441-.168-.129.117-1.443-.09-1.476-.126-1.2.468.54.525 1.035zM36 9.146c.463-2.05.886.646 1.225-1.417.144-1.815-.573 1.243-.426-.578 1.701-3.172 2.613 1.433 4.032-.53.27-.058.339.469.206 1.593.948-1.773 1.882-.463 2.963-.665-1.165 1.337-3.883 3.104-4.82-.096-.415.417-.7 1.838-.95 3.547.233-4.238-1.203-.376-2.23-1.854zm3.065 5.534c-.29-.336-.342.888-.52 1.282-.118-.123.023-.883-.138-.905-.04 1.041-1.63 1.112-1.283-.584-.488-.334-.604 1.76-1.124 1.216.316-1.602.512-.358.555-2.61.687-.14.906.872 1.297 1.473.285.025.098-1.202-.138-.904.06-.716.897-.804.552.502.53-2.166.963-.32 1.734-1.15-.043 1.798-.428 1.366-.555 2.61-.095-.585-.382-.63-.538.39-.158-.21.115-.557.158-1.32zm2.71 18.564c.43-2.663-.76-.456-.674-2.86-.113.08-.182.442-.307.43.104 1.583-.78 1.127-.63 3.186-.385-1.158.027-2.39.042-4.64.45.237 1.465 1.594 1.934-.26.34-2.212-1.337-2.115-1.504-.159-.451-.75-.045-1.597.25-3.225.027 1.05 1.618 1.066 1.994-.716.027 1.848-.394 4.05-.725 5.033 1.19-.35 2.662.217 4.011.437.284.045 1.066-1.452.767 1.012-1.88 1.768-2.981-2.048-4.784 1.802-.487.032 0-.376.042-1.391-.159.33-.29.815-.415 1.351zM44.82 3.002c-.108 3.129.58-.414 1.14.126-.672 2.469-2.037 3.59-1.956.27.348.393.52-.441.816-.396zm1.264 5.876c-.486-.609-.693-.165-1.083-.612.693-2.868.996.087 1.701-.3.207 1.581-.657-1.1-.618.912zm2.484 1.093c.123.14-.024 1.007.141 1.032.15-.106.195-.988.363-.97-.393-.907.27-2.445-.357-2.585.093-.711.177-1.416.04-1.519.26-2.09.41.624.743-.929-.15 1.512-.447 5.46.786 5.685-.516 2.682-1.188 1.66-2.034 3.315-.549-1.07-.003-.777-.117-3.574.177.063.348.128.435-.455zM51.927 7c.129.969.447.201.759.09-.3 2.445-1.338 1.713-1.686 1.266.396-1.788.81 1.584.927-1.356zm-.613 5.044c.465-.285.37.861.285 1.99-.393 1.44-.24-1.366-.507-.06-.312-.154.27-.814.222-1.93zm7.872-1.664c.206-.124.264-1.146.38-1.832.458.198.754 1.197 1.434.618-.064.447-.216.341-.332.433-.364 1.476.393.399.03 1.875-1.116-.199-2.54-1.49-3.367 1.518-.342.029-.664.006-.754-.545.341-1.436.148-1.042.36-2.768-.315-.313-.512.135-.586 1.344-.129.072-.106-.192-.077-.474L56 10.52c.796-3.318 1.972-.872 2.81-2.52.157.18.106.835.29.965-.136.565-.3.933-.532.884.074 1.01.377-.299.618.53zM55.014 41c-.043 3.726 2.687-1.173 2.986 2.349-2.063-.186-3.47-.627-5 .33.615-3.27 1.25-.957 2.014-2.679zM56 21.1c.112.74.849 1.12.952-.866.287.956.854-.96.737 1.074.487-.214.84-1.437 1.103-3.308.342.803.568-.196.912.607-.608 3.492 1.13.474 1.296 2.62a7.755 7.755 0 0 0-.281 1.44c-.863.507-1.032-.45-1.623.292-.272.435.235-2.789-.132-1.002-.364-.884.35-.767.402-1.425-.135-1.355-.837.538-.697 1.88-.734-.678-2.451 1.525-2.669-1.312zm.111 3.34c.132-.24.264-.475.438-.436l-.228 1.926.252.03c-.375 1.575-.192-1.038-.573-.555.036-.318.072-.639.111-.966zm6.902-15.335c-.702 1.935-1.221.738-2.013.738.789-1.971 1.185.273 2.013-.738zM69.183 29c.069-1.404-.3-1.51-.145-3.161.228-.412.942.138.887 1.69.216-.752.465-1.215.615-2.529.742.704 2.385 2.14 3.092.954.207 1.131.393.954.365 2.15-.105-1.205-.997 1.317-.823-1.167-1.077 1.019-2.775 1.36-3.43.042-.215.427-.448.726-.561 2.021zm3.38 11.525c.113.06.999-1.042.292-1.297.829-.912 1.637 1.308 2.36-.174-.315 1.355-.115 1.16-.405 2.172l.484.054c.154-.054.209-.784.293-1.297-.079 2.594-.98 3.1-2.46 2.82-1.32-.25-2.94-.169-4.127-1.355.333-1.3 1.469-.17 2.416-.61.7-.323.573-.611 1.147-.313zm2.153-7.108c-.125.355-.25.713-.332 1.333.046.833.667.425.838.997.44-.542.565-.885.594-2.215.62-.4.512.76.634 1.43.493.003-.079-1.514.332-1.33.44-.122.075 1.49.092 2.286-.913-.235-2.178 2.196-2.756-.285-.23.176-.03.584-.194 1.35-.322.237-.184-2.026-.42-.956-.342-.145.299-.752.256-1.8l-.276-.027c-.256.433-.046.748-.466 1.318-.168-1.712.9-3.296 1.698-2.1zm.706-4.305c-.23-1.737-.95-.222-1.422-1.164 1.498-2.001 2.609-.165 4-.456-.309 3.057-1.007-.774-1.518 1.758.155-.924-.333-1.57-.706-.09.03-.561.036-1.71-.354-.048zm2.514 6.73c-.111-.744-.615-.605-.708-1.38.597-1.302 1.128 2.222.537 3.538-.24-.665-.252-1.626-.765-.95.171-1.44.495-.14.936-1.207zM40.163 10.714c.376-.899.682-.84.951-.412-.088.605-.282.412-.439.473.07 3.889 1.35.66 2.355-.245-.063 1.405-.372.967-.55 1.508.093.906 1.095.725 1.186-1.434.312.107.297 1.038.566-.454.133 2.748.711 4.466 1.768 2.835-.348 1.437-.93 1.176-1.371 1.937.1-.883.051-1.357-.088-1.585-.709 1.749-2.044 1.391-2.407.76-.085 1.524-.85 3-.82.428-.236.751-.57.745-.802 1.476-.179-.242.06-1.643-.403-1.095.142-1.373.46-3.232-.109-2.64.076-.756.711-1.578.163-1.552z" fill="#DDC7FE"></path>
</g>
</svg>