<svg enable-background="new 0 0 196.041 45.25" height="45.25px" id="Layer_1" version="1.1" viewbox="0 0 196.041 45.25" width="196.041px" x="0px" xml:space="preserve" xmlns="http://www.w3.org/2000/svg" xmlns:xlink="http://www.w3.org/1999/xlink" y="0px">
<g>
<path class="filled" d="M45.25,0L45.25,0L0,0v45.25h40.25v0h155.792V0H45.25z M24.818,24.552v8.959h-4.573v-8.959l-6.767-12.812   h5.263l2.788,5.952c0.564,1.19,0.846,1.974,1.096,2.788c0.251-0.626,0.689-1.691,1.159-2.726l2.819-6.015h5.169L24.818,24.552z    M191.041,40.25H45.25V5h145.791V40.25z" fill="#F06827"></path>
<path class="filled" d="M61.408,23.006l1.155,0.315c0.93,0.255,1.365,0.675,1.365,1.35c0,0.93-0.631,1.425-1.83,1.425   c-1.05,0-1.891-0.33-2.865-0.84l-0.78,1.635c1.05,0.6,2.37,0.945,3.556,0.945c2.595,0,4.305-1.395,4.305-3.51   c0-1.545-0.931-2.64-2.641-3.105l-1.26-0.345c-0.87-0.24-1.154-0.51-1.154-1.05c0-0.705,0.6-1.2,1.454-1.2   c0.78,0,1.485,0.225,2.431,0.795l0.989-1.5c-0.915-0.66-2.204-1.05-3.479-1.05c-2.205,0-3.735,1.32-3.735,3.225   c0,0.585,0.15,1.125,0.436,1.59C59.728,22.316,60.372,22.721,61.408,23.006z" fill="#F06827"></path>
<polygon class="filled" fill="#F06827" points="69.838,27.611 71.968,27.611 71.968,18.926 74.457,18.926 74.803,17.186 67.288,17.186    67.288,18.926 69.838,18.926  "></polygon>
<path class="filled" d="M76.497,27.611l0.735-2.475h3.06l0.735,2.475h2.25l-3.285-10.455h-2.265l-3.42,10.455H76.497z    M78.297,21.461c0.195-0.78,0.495-2.01,0.495-2.01s0.315,1.365,0.42,1.845c0.226,1.005,0.57,2.1,0.57,2.1h-2.04   C77.967,22.706,78.103,22.211,78.297,21.461z" fill="#F06827"></path>
<path class="filled" d="M86.787,23.261c0.135,0.015,0.225,0.045,0.33,0.09c0.375,0.165,0.689,0.675,1.725,2.55   c0.405,0.735,0.57,1.02,0.976,1.71h2.475c0,0-1.905-3.3-2.505-4.05c-0.135-0.18-0.226-0.27-0.436-0.435   c1.29-0.03,2.325-1.32,2.325-2.88c0-1.83-1.215-3.06-3.06-3.06h-3.885v10.425h2.055V23.261z M86.787,18.866h0.75   c0.51,0,0.945,0.06,1.185,0.15c0.495,0.18,0.75,0.63,0.75,1.275c0,0.435-0.149,0.81-0.404,1.05   c-0.285,0.255-0.676,0.345-1.575,0.345h-0.705V18.866z" fill="#F06827"></path>
<polygon class="filled" fill="#F06827" points="95.367,27.611 97.497,27.611 97.497,18.926 99.988,18.926 100.332,17.186 92.818,17.186    92.818,18.926 95.367,18.926  "></polygon>
<path class="filled" d="M105.372,27.805c2.25,0,3.27-1.14,3.54-1.965c0.149-0.45,0.165-0.645,0.165-1.635v-7.02h-2.13v6.675   c0,0.555,0,0.705-0.03,0.93c-0.09,0.765-0.675,1.215-1.59,1.215c-0.69,0-1.186-0.255-1.425-0.72c-0.12-0.225-0.181-0.6-0.181-1.245   v-6.855h-2.145v7.26c0,1.005,0.105,1.425,0.45,1.965C102.613,27.325,103.783,27.805,105.372,27.805z" fill="#F06827"></path>
<path class="filled" d="M113.773,23.771h1.154c1.155,0,1.605-0.12,2.085-0.345c1.14-0.54,1.8-1.65,1.8-3.03   c0-1.2-0.524-2.16-1.5-2.7c-0.585-0.33-1.125-0.51-2.895-0.51h-2.745v10.425h2.101V23.771z M113.773,18.881h1.335   c0.885,0,1.409,0.585,1.409,1.56c0,0.495-0.075,0.795-0.255,1.08c-0.285,0.435-0.54,0.54-1.395,0.54h-1.095V18.881z" fill="#F06827"></path>
<path class="filled" d="M127.182,26.095c-1.05,0-1.89-0.33-2.864-0.84l-0.78,1.635c1.05,0.6,2.37,0.945,3.555,0.945   c2.595,0,4.305-1.395,4.305-3.51c0-1.545-0.93-2.64-2.64-3.105l-1.26-0.345c-0.87-0.24-1.155-0.51-1.155-1.05   c0-0.705,0.6-1.2,1.455-1.2c0.78,0,1.484,0.225,2.43,0.795l0.99-1.5c-0.915-0.66-2.205-1.05-3.48-1.05   c-2.204,0-3.734,1.32-3.734,3.225c0,0.585,0.15,1.125,0.435,1.59c0.375,0.63,1.021,1.035,2.056,1.32l1.154,0.315   c0.931,0.255,1.365,0.675,1.365,1.35C129.012,25.601,128.382,26.095,127.182,26.095z" fill="#F06827"></path>
<path class="filled" d="M137.637,27.791c1.185,0,2.069-0.3,2.895-0.975l-0.96-1.32c-0.615,0.495-1.17,0.675-1.785,0.675   c-0.899,0-1.59-0.405-2.01-1.17c-0.314-0.57-0.435-1.365-0.435-2.79c0-1.215,0.18-2.085,0.585-2.685   c0.375-0.555,1.064-0.9,1.77-0.9c0.585,0,1.14,0.195,1.665,0.585l0.945-1.425c-0.57-0.495-1.605-0.825-2.641-0.825   c-1.68,0-3.18,0.9-3.989,2.415c-0.48,0.9-0.705,1.935-0.705,3.24c0,1.53,0.42,2.79,1.26,3.735   C135.087,27.325,136.197,27.791,137.637,27.791z" fill="#F06827"></path>
<polygon class="filled" fill="#F06827" points="144.492,22.961 147.492,22.961 147.492,27.611 149.621,27.611 149.621,17.186 147.492,17.186    147.492,21.236 144.492,21.236 144.492,17.186 142.407,17.186 142.407,27.611 144.492,27.611  "></polygon>
<path class="filled" d="M156.386,27.776c0.87,0,1.455-0.135,2.085-0.48c1.516-0.825,2.325-2.595,2.325-4.95   c0-3.27-1.71-5.295-4.484-5.295c-0.78,0-1.545,0.18-2.16,0.51c-1.5,0.825-2.355,2.625-2.355,4.875c0,1.53,0.405,2.85,1.2,3.87   C153.791,27.341,154.812,27.776,156.386,27.776z M154.661,19.586c0.3-0.555,0.915-0.915,1.62-0.915c1.109,0,1.665,0.795,1.83,1.32   c0.18,0.585,0.27,1.35,0.27,2.415c0,2.655-0.615,3.765-2.069,3.765c-0.495,0-0.915-0.12-1.245-0.36   c-0.63-0.45-0.931-1.575-0.931-3.375C154.136,21.176,154.301,20.261,154.661,19.586z" fill="#F06827"></path>
<path class="filled" d="M167.111,27.776c0.87,0,1.455-0.135,2.085-0.48c1.516-0.825,2.325-2.595,2.325-4.95   c0-3.27-1.71-5.295-4.484-5.295c-0.78,0-1.545,0.18-2.16,0.51c-1.5,0.825-2.355,2.625-2.355,4.875c0,1.53,0.405,2.85,1.2,3.87   C164.516,27.341,165.536,27.776,167.111,27.776z M165.386,19.586c0.3-0.555,0.915-0.915,1.62-0.915c1.109,0,1.665,0.795,1.83,1.32   c0.18,0.585,0.27,1.35,0.27,2.415c0,2.655-0.615,3.765-2.069,3.765c-0.495,0-0.915-0.12-1.245-0.36   c-0.63-0.45-0.931-1.575-0.931-3.375C164.861,21.176,165.026,20.261,165.386,19.586z" fill="#F06827"></path>
<polygon class="filled" fill="#F06827" points="179.576,25.871 175.841,25.871 175.841,17.186 173.696,17.186 173.696,27.611 179.201,27.611  "></polygon>
</g>
</svg>