<svg class="svg-icon" enable-background="new 0 0 95.162 66" height="66px" id="Layer_1" version="1.1" viewbox="0 0 95.162 66" width="95.162px" x="0px" xml:space="preserve" xmlns="http://www.w3.org/2000/svg" xmlns:xlink="http://www.w3.org/1999/xlink" y="0px">
<path class="filled" d="M87.42,15.97H63.947V3.192c0-0.828-0.672-1.5-1.5-1.5H7.742c-0.829,0-1.5,0.672-1.5,1.5V37.81  c0,0.828,0.671,1.5,1.5,1.5h5.708v9.22c0,0.614,0.375,1.166,0.945,1.394c0.18,0.071,0.368,0.106,0.555,0.106  c0.404,0,0.801-0.163,1.09-0.469l9.707-10.251h5.469v12.778c0,0.828,0.671,1.5,1.5,1.5h36.701l9.708,10.251  c0.289,0.306,0.685,0.469,1.089,0.469c0.187,0,0.375-0.035,0.555-0.106c0.571-0.228,0.945-0.779,0.945-1.394v-9.22h5.707  c0.828,0,1.5-0.672,1.5-1.5V17.47C88.92,16.642,88.248,15.97,87.42,15.97z M25.101,36.31c-0.412,0-0.806,0.17-1.089,0.469  l-7.562,7.985V37.81c0-0.828-0.671-1.5-1.5-1.5H9.242V4.692h51.705V36.31H25.101z M85.92,50.588h-5.707c-0.828,0-1.5,0.672-1.5,1.5  v6.954l-7.562-7.985c-0.283-0.299-0.677-0.469-1.089-0.469H34.215V39.31h28.231c0.829,0,1.5-0.672,1.5-1.5V18.97H85.92V50.588z" fill="#FBA634"></path>
</svg>