<svg height="512.698" viewbox="0 0 768 512.698" width="768" xmlns="http://www.w3.org/2000/svg" xmlns:xlink="http://www.w3.org/1999/xlink">
<defs>
<filter filterunits="userSpaceOnUse" height="74.894" id="Elipse_1" width="74.891" x="368.401" y="437.805">
<feoffset dy="3" input="SourceAlpha"></feoffset>
<fegaussianblur result="blur" stddeviation="8"></fegaussianblur>
<feflood flood-opacity="0.161"></feflood>
<fecomposite in2="blur" operator="in"></fecomposite>
<fecomposite in="SourceGraphic"></fecomposite>
</filter>
</defs>
<g class="step6-fade-out" id="step6-v2" transform="translate(4257 -14829.748)">
<g id="steps--1" transform="translate(-696 -4729)">
<path class="step6-1" d="M766.267,504.412H4.732a3.458,3.458,0,0,1-3.232-3.7V5.2A3.458,3.458,0,0,1,4.732,1.5H766.267A3.458,3.458,0,0,1,769.5,5.2V500.709A3.458,3.458,0,0,1,766.267,504.412Z" id="nav-container" transform="translate(-3562.5 19557.248)"></path>
</g>
<text class="step6-2" data-name="Contrato General de Fondos" id="Contrato_General_de_Fondos" transform="translate(-4038 14926)"><tspan x="0" y="0">Contrato General de Fondos</tspan></text>
<text class="step6-3" data-name="FINTUAL ADMINISTRADORA GENERAL DE FONDOS S.A." id="FINTUAL_ADMINISTRADORA_GENERAL_DE_FONDOS_S.A." transform="translate(-4038 14951)"><tspan x="0" y="0">FINTUAL ADMINISTRADORA GENERAL DE FONDOS S.A.</tspan></text>
<text class="step6-4" data-name="Este contrato se suscribe de conformidad con lo dispuesto en la Norma de Carácter General N° 365, de la Superintendencia de Valores y Seguros (hoy Comisión para el Mercado Financiero), y regirá las relaciones del partícipe (el “Partícipe”) y la Administrad" id="Este_contrato_se_suscribe_de_conformidad_con_lo_dispuesto_en_la_Norma_de_Carácter_General_N_365_de_la_Superintendencia_de_Valores_y_Seguros_hoy_Comisión_para_el_Mercado_Financiero_y_regirá_las_relaciones_del_partícipe_el_Partícipe_y_la_Administrad" transform="translate(-4038 14963)"><tspan x="0" y="8">Este contrato se suscribe de conformidad con lo dispuesto en la Norma de Carácter General N° </tspan><tspan x="0" y="20">365, de la Superintendencia de Valores y Seguros (hoy Comisión para el Mercado Financiero), y </tspan><tspan x="0" y="32">regirá las relaciones del partícipe (el “Partícipe”) y la Administradora en lo que se refiera a los </tspan><tspan x="0" y="44">aportes y rescates de cuotas, en uno o más fondos mutuos administrados por Fintual </tspan><tspan x="0" y="56">Administradora General De Fondos S.A. o que pueda administrar en el futuro, en adelante los </tspan><tspan x="0" y="68">“Fondos”.</tspan></text>
<text class="step6-3" data-name="A. IDENTIFICACIÓN DE LAS PARTES" id="A._IDENTIFICACIÓN_DE_LAS_PARTES" transform="translate(-4038 15063)"><tspan x="0" y="0">A. IDENTIFICACIÓN DE LAS PARTES</tspan></text>
<text class="step6-3" data-name="1. ADMINISTRADORA" id="_1._ADMINISTRADORA" transform="translate(-4025 15090)"><tspan x="0" y="0">1. ADMINISTRADORA</tspan></text>
<text class="step6-3" data-name="2. PARTICIPE" id="_2._PARTICIPE" transform="translate(-4025 15161)"><tspan x="0" y="0">2. PARTICIPE</tspan></text>
<text class="step6-5" data-name="Razón Social:" id="Razón_Social:" transform="translate(-4012 15109)"><tspan x="0" y="0">Razón Social:</tspan></text>
<text class="step6-5" data-name="RUT N°:" id="RUT_N_:" transform="translate(-4012 15122)"><tspan x="0" y="0">RUT N°:</tspan></text>
<text class="step6-5" id="Domicilio:" transform="translate(-4012 15135)"><tspan x="0" y="0">Domicilio:</tspan></text>
<text class="step6-4" data-name="Fintual Administradora General De Fondos S.A." id="Fintual_Administradora_General_De_Fondos_S.A.-2" transform="translate(-3902 15109)"><tspan x="0" y="0">Fintual Administradora General De Fondos S.A.</tspan></text>
<text class="step6-4" data-name="76.810.627-4" id="_76.810.627-4" transform="translate(-3902 15122)"><tspan x="0" y="0">76.810.627-4</tspan></text>
<text class="step6-4" data-name="Los Conquistadores 2461, Providencia, Santiago, Chile." id="Los_Conquistadores_2461_Providencia_Santiago_Chile." transform="translate(-3902 15135)"><tspan x="0" y="0">Los Conquistadores 2461, Providencia, Santiago, Chile.</tspan></text>
<text class="step6-5" data-name="Correo Electrónico:" id="Correo_Electrónico:" transform="translate(-4012 15187)"><tspan x="0" y="0">Correo Electrónico:</tspan></text>
<text class="step6-5" id="Nombre:" transform="translate(-4012 15200.195)"><tspan x="0" y="0">Nombre:</tspan></text>
<text class="step6-5" data-name="RUT N°:" id="RUT_N_:-2" transform="translate(-4012 15212.866)"><tspan x="0" y="0">RUT N°:</tspan></text>
<text class="step6-5" data-name="Domicilio:" id="Domicilio:-2" transform="translate(-4012 15225.8)"><tspan x="0" y="0">Domicilio:</tspan></text>
<text class="step6-5" id="Teléfono:" transform="translate(-4012 15238.733)"><tspan x="0" y="0">Teléfono:</tspan></text>
<text class="step6-5" data-name="Representante Legal:" id="Representante_Legal:" transform="translate(-4012 15251.404)"><tspan x="0" y="0">Representante Legal:</tspan></text>
<text class="step6-5" data-name="RUT N° Representante Legal:" id="RUT_N_Representante_Legal:" transform="translate(-4012 15264.6)"><tspan x="0" y="0">RUT N° Representante Legal:</tspan></text>
<text class="step6-4" data-name="ingeniero@fintual.cl" id="ingeniero_fintual.cl" transform="translate(-3902 15187)"><tspan x="0" y="0">ingeniero@fintual.cl</tspan></text>
<text class="step6-4" data-name="Ingeniero De Fintual" id="Ingeniero_De_Fintual" transform="translate(-3902 15200.195)"><tspan x="0" y="0">Ingeniero De Fintual</tspan></text>
<text class="step6-4" data-name="12.345.678-F" id="_12.345.678-F" transform="translate(-3902 15212.866)"><tspan x="0" y="0">12.345.678-F</tspan></text>
<text class="step6-4" data-name="Los Conquistadores 2461, Providencia, Santiago" id="Los_Conquistadores_2461_Providencia_Santiago" transform="translate(-3902 15225.8)"><tspan x="0" y="0">Los Conquistadores 2461, Providencia, Santiago</tspan></text>
<text class="step6-4" data-name=" +56 987654321" id="_56_987654321" transform="translate(-3902 15238.733)"><tspan x="0" xml:space="preserve" y="0"> +56 987654321</tspan></text>
<text class="step6-4" data-name="No aplica" id="No_aplica" transform="translate(-3902 15251.404)"><tspan x="0" y="0">No aplica</tspan></text>
<text class="step6-4" data-name="No aplica" id="No_aplica-2" transform="translate(-3902 15264.6)"><tspan x="0" y="0">No aplica</tspan></text>
<g id="step3" transform="translate(-997.324 -4734)">
<circle class="step6-6" cx="18.515" cy="18.515" data-name="Elipse 227" id="Elipse_227" r="18.515" transform="translate(-3096.676 19637.191)"></circle>
<g data-name="Grupo 5260" id="Grupo_5260">
<path class="step6-1" d="M424.923,721.133l5.728,5.3a.9.9,0,0,1,.039,1.28l-.323.338a.9.9,0,0,1-.442.254l-.365.087v.422a.9.9,0,0,1-.354.715l-.623.474a.9.9,0,0,1-.922.1l-.165-.077-.135.355a.9.9,0,0,1-.46.494l-1.159.541a.9.9,0,0,1-.608.056l-.508-.134a.9.9,0,0,0-.695.1l-.54.328a.9.9,0,0,1-.866.037l-2.133-1.058a.906.906,0,0,1-.252-.186l-8.731-9.185a.9.9,0,0,1,.016-1.255l3.15-3.15a.9.9,0,0,1,1.29.019l1.706,1.813a.9.9,0,0,0,.654.283h1.156a.9.9,0,0,1,.309.055l4.932,1.8A.913.913,0,0,1,424.923,721.133Z" data-name="Trazado 5271" id="Trazado_5271" transform="translate(-3501.705 18933.348)"></path>
<path class="step6-7" d="M437.822,716.782l-2.447,1.872a.607.607,0,0,1-.64.061l-2.374-1.187a.57.57,0,0,0-.135-.049l-3.418-.791a.607.607,0,0,0-.549.146l-3.546,3.282a.607.607,0,0,0-.188.534l.107.722a.607.607,0,0,0,.547.516l.822.073a.6.6,0,0,0,.391-.1l2.254-1.509a.608.608,0,0,1,.547-.066l1.785.655a.609.609,0,0,1,.2.124l4.613,4.272a.607.607,0,0,0,.782.035l5.433-4.18a.607.607,0,0,0,.059-.91l-3.449-3.449A.607.607,0,0,0,437.822,716.782Z" data-name="Trazado 5272" id="Trazado_5272" transform="translate(-3508.007 18933.375)"></path>
</g>
</g>
<g class="step-contract-deal" data-name="Grupo 5285" id="Grupo_5285">
<g data-name="Grupo 5049" id="Grupo_5049" transform="translate(1002.293 821.806) rotate(180)">
<g class="step6-9" transform="matrix(-1, 0, 0, -1, 419.29, 485.7)">
<ellipse class="step6-1 step-contract-deal__circle" cx="13.446" cy="13.447" data-name="Elipse 1" id="Elipse_1-2" rx="13.446" ry="13.447" transform="translate(419.29 485.7) rotate(180)"></ellipse>
</g>
<path class="step6-6 step-contract-deal__arrow" d="M6.891.161a.537.537,0,0,0-.767,0,.537.537,0,0,0,0,.767l3.9,3.9H.542a.542.542,0,0,0,0,1.084H10.02l-3.9,3.9a.537.537,0,0,0,0,.767.558.558,0,0,0,.389.164.534.534,0,0,0,.389-.164l5.215-5.215Z" data-name="Trazado 4316" id="Trazado_4316" transform="translate(19.486 18.731) rotate(180)"></path>
</g>
<text class="step6-8" id="acepto" transform="translate(963 812.603)"><tspan x="-41.706" y="0">acepto</tspan></text>
</g>
</g>
</svg>