<svg height="502.912" viewbox="0 0 768 502.912" width="768" xmlns="http://www.w3.org/2000/svg">
<g id="step4-v2" transform="translate(5857 -14829.748)">
<g data-name="Grupo 5265" id="Grupo_5265">
<g id="info1" transform="translate(-2296 -5469)">
<g id="steps--1" transform="translate(0 740)">
<path class="step4-1" d="M766.267,504.412H4.732a3.458,3.458,0,0,1-3.232-3.7V5.2A3.458,3.458,0,0,1,4.732,1.5H766.267A3.458,3.458,0,0,1,769.5,5.2V500.709A3.458,3.458,0,0,1,766.267,504.412Z" id="nav-container" transform="translate(-3562.5 19557.248)"></path>
</g>
<g data-name="Grupo 5111" id="Grupo_5111" transform="translate(-3343 20506.273)">
<rect class="step4-2" data-name="Rectángulo 1553" height="47.761" id="Rectángulo_1553" rx="4" transform="translate(0)" width="332.211"></rect>
<text class="step4-3 step-dni" data-name="12.345.678-9" id="_12.345.678-9" transform="translate(22.623 30.454)"><tspan x="0" y="0">12.345.678-9</tspan></text>
</g>
<g data-name="Grupo 5127" id="Grupo_5127" transform="translate(-3343 20579.799)">
<rect class="step4-2" data-name="Rectángulo 1553" height="47.761" id="Rectángulo_1553-2" rx="4" transform="translate(0)" width="332.211"></rect>
<text class="step4-3 step-birth" data-name="01/01/1981" id="_01_01_1981" transform="translate(22.623 30.454)"><tspan x="0" y="0">01/01/1981</tspan></text>
</g>
<text class="step4-4" id="Si" transform="translate(-3321.637 20744)"><tspan x="0" y="0">Si</tspan></text>
<text class="step4-4" data-name="Si" id="Si-2" transform="translate(-3139.213 20744)"><tspan x="0" y="0">Si</tspan></text>
<text class="step4-4" id="No" transform="translate(-3269.734 20744)"><tspan x="0" y="0">No</tspan></text>
<text class="step4-4" data-name="No" id="No-2" transform="translate(-3088.311 20744)"><tspan x="0" y="0">No</tspan></text>
<text class="step4-5" id="Info" transform="translate(-3192 20465)"><tspan x="0" y="0">Info</tspan></text>
<text class="step4-6" data-name="1 de 3" id="_1_de_3" transform="translate(-3186 20443.232)"><tspan x="0" y="0">1 de 3</tspan></text>
<text class="step4-7" id="RUT" transform="translate(-3340.375 20502.049)"><tspan x="0" y="0">RUT</tspan></text>
<text class="step4-7" data-name="Fecha de nacimiento" id="Fecha_de_nacimiento" transform="translate(-3340.375 20575.574)"><tspan x="0" y="0">Fecha de nacimiento</tspan></text>
<text class="step4-7 step-chileno" data-name="Eres chileno" id="Eres_chileno" transform="translate(-3343.003 20716.973)"><tspan x="0" y="0">Eres chileno</tspan></text>
<text class="step4-7 step-chilena" data-name="Eres chileno" id="Eres_chileno" transform="translate(-3343.003 20716.973)"><tspan x="0" y="0">Eres chilena</tspan></text>
<text class="step4-7" data-name="¿Calificas como US person?" id="_Calificas_como_US_person_" transform="translate(-3160.58 20716.973)"><tspan x="0" y="0">¿Calificas como US person?</tspan></text>
<g class="step4-8" data-name="Elipse 168" id="Elipse_168" transform="translate(-3343.003 20731)">
<ellipse class="step4-11" cx="8.17" cy="8.17" rx="8.17" ry="8.17"></ellipse>
<ellipse class="step-checkbox step-checkbox-2" cx="8.17" cy="8.17" rx="7.17" ry="7.17"></ellipse>
</g>
<g class="step4-8" data-name="Elipse 180" id="Elipse_180" transform="translate(-3160.58 20731)">
<ellipse class="step4-11" cx="8.17" cy="8.17" rx="8.17" ry="8.17"></ellipse>
<ellipse class="step4-12" cx="8.17" cy="8.17" rx="7.17" ry="7.17"></ellipse>
</g>
<g class="step4-8" data-name="Elipse 169" id="Elipse_169" transform="translate(-3291.1 20731)">
<ellipse class="step4-11" cx="8.17" cy="8.17" rx="8.17" ry="8.17"></ellipse>
<ellipse class="step4-12" cx="8.17" cy="8.17" rx="7.17" ry="7.17"></ellipse>
</g>
<g class="step4-8" data-name="Elipse 181" id="Elipse_181" transform="translate(-3109.677 20731)">
<ellipse class="step4-11" cx="8.17" cy="8.17" rx="8.17" ry="8.17"></ellipse>
<ellipse class="step-checkbox step-checkbox-3" cx="8.17" cy="8.17" rx="7.17" ry="7.17"></ellipse>
</g>
<text class="step4-4" data-name="En femenino" id="En_femenino" transform="translate(-3321.637 20686)"><tspan x="0" y="0">En femenino</tspan></text>
<text class="step4-4" data-name="En masculino" id="En_masculino" transform="translate(-3215.405 20686)"><tspan x="0" y="0">En masculino</tspan></text>
<text class="step4-7" data-name="¿Cómo nos dirigimos a ti?" id="_Cómo_nos_dirigimos_a_ti_" transform="translate(-3343.003 20659.785)"><tspan x="0" y="0">¿Cómo nos dirigimos a ti?</tspan></text>
<g class="step4-8" data-name="Elipse 170" id="Elipse_170" transform="translate(-3343.003 20673)">
<ellipse class="step4-11" cx="8.17" cy="8.17" rx="8.17" ry="8.17"></ellipse>
<ellipse class="step-checkbox step-checkbox-1" cx="8.17" cy="8.17" rx="7.17" ry="7.17"></ellipse>
</g>
<g class="step4-8" data-name="Elipse 171" id="Elipse_171" transform="translate(-3236.771 20673)">
<ellipse class="step4-11" cx="8.17" cy="8.17" rx="8.17" ry="8.17"></ellipse>
<ellipse class="step4-12" cx="8.17" cy="8.17" rx="7.17" ry="7.17"></ellipse>
</g>
</g>
<g id="step3" transform="translate(-2395.324 -4729)">
<circle class="step4-9" cx="18.515" cy="18.515" data-name="Elipse 227" id="Elipse_227" r="18.515" transform="translate(-3096.676 19637.191)"></circle>
<g data-name="Grupo 5260" id="Grupo_5260">
<path class="step4-1" d="M424.923,721.133l5.728,5.3a.9.9,0,0,1,.039,1.28l-.323.338a.9.9,0,0,1-.442.254l-.365.087v.422a.9.9,0,0,1-.354.715l-.623.474a.9.9,0,0,1-.922.1l-.165-.077-.135.355a.9.9,0,0,1-.46.494l-1.159.541a.9.9,0,0,1-.608.056l-.508-.134a.9.9,0,0,0-.695.1l-.54.328a.9.9,0,0,1-.866.037l-2.133-1.058a.906.906,0,0,1-.252-.186l-8.731-9.185a.9.9,0,0,1,.016-1.255l3.15-3.15a.9.9,0,0,1,1.29.019l1.706,1.813a.9.9,0,0,0,.654.283h1.156a.9.9,0,0,1,.309.055l4.932,1.8A.913.913,0,0,1,424.923,721.133Z" data-name="Trazado 5271" id="Trazado_5271" transform="translate(-3501.705 18933.348)"></path>
<path class="step4-10" d="M437.822,716.782l-2.447,1.872a.607.607,0,0,1-.64.061l-2.374-1.187a.57.57,0,0,0-.135-.049l-3.418-.791a.607.607,0,0,0-.549.146l-3.546,3.282a.607.607,0,0,0-.188.534l.107.722a.607.607,0,0,0,.547.516l.822.073a.6.6,0,0,0,.391-.1l2.254-1.509a.608.608,0,0,1,.547-.066l1.785.655a.609.609,0,0,1,.2.124l4.613,4.272a.607.607,0,0,0,.782.035l5.433-4.18a.607.607,0,0,0,.059-.91l-3.449-3.449A.607.607,0,0,0,437.822,716.782Z" data-name="Trazado 5272" id="Trazado_5272" transform="translate(-3508.007 18933.375)"></path>
</g>
</g>
</g>
</g>
</svg>