<svg height="502.912" viewbox="0 0 768 502.912" width="768" xmlns="http://www.w3.org/2000/svg">
<g id="step3-v2" transform="translate(3378 -14089.748)">
<g class="step3-fade-out" id="steps--3" transform="translate(-1575 -5469)">
<path class="step3-1" d="M766.267,504.412H4.732a3.458,3.458,0,0,1-3.232-3.7V5.2A3.458,3.458,0,0,1,4.732,1.5H766.267A3.458,3.458,0,0,1,769.5,5.2V500.709A3.458,3.458,0,0,1,766.267,504.412Z" id="nav-container" transform="translate(-1804.5 19557.248)"></path>
<g id="graph" transform="translate(41.846 596.982)">
<text class="step3-2" data-name="Jubilación con APV" id="Jubilación_con_APV" transform="translate(-1564.1 19221.484)"><tspan x="0" y="0">Jubilación con APV</tspan></text>
<text class="step3-3" data-name="Has elegido una inversión" id="Has_elegido_una_inversión" transform="translate(-1563.984 19235.832)"><tspan x="0" y="0">Has elegido una inversión</tspan></text>
<path class="step3-4 step-graph" d="M8000.468-950.077H7677.021v-7.839s114.988-23.231,173.426-44.915c109.734-40.717,150.021-93.743,150.021-93.743Z" data-name="Trazado 5299" id="Trazado_5299" transform="translate(-9241.605 20307.406)"></path>
<text class="step3-3" data-name="Resultado esperado" id="Resultado_esperado" transform="translate(-1564.1 19256.268)"><tspan x="0" y="0">Resultado esperado</tspan></text>
<text class="step3-5" data-name="$20.304.820" id="_20.304.820" transform="translate(-1243.988 19220.018)"><tspan x="-56.92" y="0">$20.304.820</tspan></text>
<text class="step3-5" data-name="$12.300.120" id="_12.300.120" transform="translate(-1244.346 19296.793)"><tspan x="-56.92" y="0">$12.300.120</tspan></text>
<text class="step3-5" data-name="$13.006.086" id="_13.006.086" transform="translate(-1244.473 19270.688)"><tspan x="-56.92" y="0">$13.006.086</tspan></text>
<text class="step3-6" data-name="$18.301.450" id="_18.301.450" transform="translate(-1564.585 19274.672)"><tspan x="0" y="0">$18.301.450</tspan></text>
<g data-name="Grupo 5157" id="Grupo_5157" transform="translate(-1450.776 19228.832)">
<text class="step3-7" id="moderada" transform="translate(-2 7)"><tspan x="0" y="0">moderada</tspan></text>
</g>
</g>
<g id="control" transform="translate(71.846 594.979)">
<line class="step3-8" data-name="Línea 6" id="Línea_6" transform="translate(-1708.346 19353.016)" x2="79.473"></line>
<line class="step3-8" data-name="Línea 5" id="Línea_5" transform="translate(-1708.346 19310.988)" x2="79.947"></line>
<line class="step3-8" data-name="Línea 4" id="Línea_4" transform="translate(-1707.346 19237.736)" x2="78.484"></line>
<text class="step3-9" data-name="$5.000.000" id="_5.000.000" transform="translate(-1709.846 19224.021)"><tspan x="0" y="0">$5.000.000</tspan></text>
<text class="step3-9" data-name="$100.000" id="_100.000" transform="translate(-1709.846 19299.277)"><tspan x="0" y="0">$100.000</tspan></text>
<text class="step3-9" data-name="10 años" id="_10_años" transform="translate(-1709.846 19341.307)"><tspan x="0" y="0">10 años</tspan></text>
<path class="step3-10 step-slide1" d="M0,0H50.279" data-name="Trazado 5296" id="Trazado_5296" transform="translate(-1707.846 19237.736)"></path>
<path class="step3-11" d="M0,0H41.522" data-name="Trazado 5297" id="Trazado_5297" transform="translate(-1708.346 19310.988)"></path>
<path class="step3-11" d="M0,0H26.749" data-name="Trazado 5298" id="Trazado_5298" transform="translate(-1708.346 19353.016)"></path>
<g class="step3-12 step-allocation" data-name="Elipse 198" id="Elipse_198">
<circle class="step3-19" cx="5.81" cy="5.81" r="5.81"></circle>
<circle class="step3-20" cx="5.81" cy="5.81" r="4.31"></circle>
</g>
<g class="step3-13" data-name="Elipse 199" id="Elipse_199" transform="translate(-1672.79 19306.373)">
<circle class="step3-19" cx="4.466" cy="4.466" r="4.466"></circle>
<circle class="step3-20" cx="4.466" cy="4.466" r="3.466"></circle>
</g>
<g class="step3-13" data-name="Elipse 200" id="Elipse_200" transform="translate(-1687.563 19348.402)">
<circle class="step3-19" cx="4.466" cy="4.466" r="4.466"></circle>
<circle class="step3-20" cx="4.466" cy="4.466" r="3.466"></circle>
</g>
</g>
<text class="step3-14" id="title" transform="translate(-1418 19738.857)"><tspan x="-94.536" y="0">¿Quieres cambiar algo?</tspan></text>
<text class="step3-15" id="subtitle" transform="translate(-1418 19759.857)"><tspan x="-83.804" y="0">Esto es sólo una simulación.</tspan></text>
<g id="progress" transform="translate(1758)">
<rect class="step3-16" height="5.697" id="progress-bar" transform="translate(-3258.047 19653.043)" width="164.518"></rect>
<rect class="step3-17" height="5.697" id="progress-bar--active" transform="translate(-3258.047 19653.043)" width="101.819"></rect>
</g>
<g id="step1" transform="translate(1759)">
<circle class="step3-17" cx="18.515" cy="18.515" data-name="Elipse 225" id="Elipse_225" r="18.515" transform="translate(-3294.655 19637.191)"></circle>
<path class="step3-1" d="M75.387,587.785a11.092,11.092,0,0,0-7.873,18.9,9.713,9.713,0,0,1,15.862-.121,11.089,11.089,0,0,0-7.989-18.784Zm.093,13.588a4.57,4.57,0,1,1,4.571-4.57A4.57,4.57,0,0,1,75.48,601.373Z" data-name="Trazado 5270" id="Trazado_5270" transform="translate(-3351.821 19056.527)"></path>
</g>
<g id="step2" transform="translate(1759)">
<circle class="step-progress3__circle" cx="18.515" cy="18.515" data-name="Elipse 226" id="Elipse_226" r="18.515" transform="translate(-3194.953 19637.191)"></circle>
<g data-name="Grupo 5259" id="Grupo_5259">
<g data-name="Grupo 5073" id="Grupo_5073" transform="translate(-3186.407 19650.758)">
<path class="step-progress3__mini-bar" d="M332.713,611.171H315.335a.836.836,0,0,1,0-1.671h17.378a.836.836,0,0,1,0,1.671Z" data-name="Trazado 5266" id="Trazado_5266" transform="translate(-314.5 -609.5)"></path>
</g>
<g data-name="Grupo 5074" id="Grupo_5074" transform="translate(-3183.734 19648.586)">
<path class="step-progress3__mini-circle" d="M325.508,603a3.008,3.008,0,1,0,3.008,3.008A3.011,3.011,0,0,0,325.508,603Z" data-name="Trazado 5267" id="Trazado_5267" transform="translate(-322.5 -603)"></path>
</g>
<g data-name="Grupo 5075" id="Grupo_5075" transform="translate(-3186.407 19660.729)">
<path class="step-progress3__mini-bar" d="M315.335,633.5h17.378a.836.836,0,0,1,0,1.671H315.335a.836.836,0,0,1,0-1.671Z" data-name="Trazado 5268" id="Trazado_5268" transform="translate(-314.5 -633.5)"></path>
</g>
<g data-name="Grupo 5076" id="Grupo_5076" transform="translate(-3176.047 19658.557)">
<path class="step-progress3__mini-circle" d="M348.508,633.016a3.008,3.008,0,1,0-3.008-3.008,3.011,3.011,0,0,0,3.008,3.008Z" data-name="Trazado 5269" id="Trazado_5269" transform="translate(-345.5 -627)"></path>
</g>
</g>
</g>
<g id="step3" transform="translate(1759)">
<circle class="step3-16" cx="18.515" cy="18.515" data-name="Elipse 227" id="Elipse_227" r="18.515" transform="translate(-3096.676 19637.191)"></circle>
<g data-name="Grupo 5260" id="Grupo_5260">
<path class="step3-17" d="M424.923,721.133l5.728,5.3a.9.9,0,0,1,.039,1.28l-.323.338a.9.9,0,0,1-.442.254l-.365.087v.422a.9.9,0,0,1-.354.715l-.623.474a.9.9,0,0,1-.922.1l-.165-.077-.135.355a.9.9,0,0,1-.46.494l-1.159.541a.9.9,0,0,1-.608.056l-.508-.134a.9.9,0,0,0-.695.1l-.54.328a.9.9,0,0,1-.866.037l-2.133-1.058a.906.906,0,0,1-.252-.186l-8.731-9.185a.9.9,0,0,1,.016-1.255l3.15-3.15a.9.9,0,0,1,1.29.019l1.706,1.813a.9.9,0,0,0,.654.283h1.156a.9.9,0,0,1,.309.055l4.932,1.8A.913.913,0,0,1,424.923,721.133Z" data-name="Trazado 5271" id="Trazado_5271" transform="translate(-3501.705 18933.348)"></path>
<path class="step3-18" d="M437.822,716.782l-2.447,1.872a.607.607,0,0,1-.64.061l-2.374-1.187a.57.57,0,0,0-.135-.049l-3.418-.791a.607.607,0,0,0-.549.146l-3.546,3.282a.607.607,0,0,0-.188.534l.107.722a.607.607,0,0,0,.547.516l.822.073a.6.6,0,0,0,.391-.1l2.254-1.509a.608.608,0,0,1,.547-.066l1.785.655a.609.609,0,0,1,.2.124l4.613,4.272a.607.607,0,0,0,.782.035l5.433-4.18a.607.607,0,0,0,.059-.91l-3.449-3.449A.607.607,0,0,0,437.822,716.782Z" data-name="Trazado 5272" id="Trazado_5272" transform="translate(-3508.007 18933.375)"></path>
</g>
</g>
</g>
</g>
</svg>