<svg class="navbar-brand__svg" height="31" viewbox="0 0 130 31" width="130">
<defs>
<clippath id="clip-logo">
<rect height="31" width="130"></rect>
</clippath>
</defs>
<g clip-path="url(#clip-logo)" id="logo">
<rect fill="transparent" height="31" width="130"></rect>
<g id="azul_1_" transform="translate(-360 -28.109)">
<g data-name="Group 2562" id="Group_2562" transform="translate(360 28.11)">
<g data-name="Group 2561" id="Group_2561">
<g data-name="Group 2560" id="Group_2560">
<path d="M360,58.356h6.383V46.214H376.2V40.377h-9.815V34.319h10.66V28.56h-17.03Q359.993,43.5,360,58.356Z" data-name="Path 2411" fill="#4d4d4d" fill-rule="evenodd" id="Path_2411" transform="translate(-360 -27.975)"></path>
<path d="M379.27,28.11a3.512,3.512,0,0,0-3.51,3.549,3.517,3.517,0,1,0,3.51-3.549Z" data-name="Path 2412" fill="#4d4d4d" fill-rule="evenodd" id="Path_2412" transform="translate(-355.272 -28.11)"></path>
<path d="M405.42,41.887a8.641,8.641,0,0,0-1.092-3.653,6.7,6.7,0,0,0-3.679-3.094,9.055,9.055,0,0,0-3.991-.416,6.752,6.752,0,0,0-4.342,2.067c-.312.325-.585.676-.923,1.079V35.231H385.14V56.486h6.253V45.475a9.2,9.2,0,0,1,.1-1.469,3.86,3.86,0,0,1,4.212-3.562,3.329,3.329,0,0,1,3.224,2.353,6.78,6.78,0,0,1,.312,2.275v11.4h6.279V44.058C405.524,43.343,405.485,42.615,405.42,41.887Z" data-name="Path 2413" fill="#4d4d4d" fill-rule="evenodd" id="Path_2413" transform="translate(-352.458 -26.144)"></path>
<path d="M431.438,46.072a9.665,9.665,0,0,1-.117,1.625,3.813,3.813,0,0,1-3.432,3.445A3.461,3.461,0,0,1,424.119,49a5.693,5.693,0,0,1-.39-2.223V35.1H417.45V48.282a10.189,10.189,0,0,0,1.1,4.94,6.665,6.665,0,0,0,3.6,3.185,8.968,8.968,0,0,0,4.225.442,6.7,6.7,0,0,0,4.355-2.275c.234-.26.442-.546.715-.884v2.665h6.266V35.113h-6.266C431.438,35.243,431.451,42.536,431.438,46.072Z" data-name="Path 2414" fill="#4d4d4d" fill-rule="evenodd" id="Path_2414" transform="translate(-342.765 -26.013)"></path>
<path d="M455.294,41.525a7.274,7.274,0,0,0-1.391-3.6,7.613,7.613,0,0,0-4.29-2.769,15.692,15.692,0,0,0-6.552-.286,12.45,12.45,0,0,0-4.966,1.807.44.44,0,0,0-.234.429c.013,1.794,0,3.575,0,5.369v.312a2.314,2.314,0,0,0,.221-.169,10.394,10.394,0,0,1,4.407-2.327,9.716,9.716,0,0,1,4.693-.065,2.533,2.533,0,0,1,2.145,2.574c0,.156-.013.247-.208.273-1.664.234-3.315.455-4.979.715a12.386,12.386,0,0,0-4.329,1.417,5.965,5.965,0,0,0-2.847,3.315,7.045,7.045,0,0,0-.286,3.328,5.567,5.567,0,0,0,2.457,4.043,7.581,7.581,0,0,0,6.253.923A6.167,6.167,0,0,0,449.431,54a.755.755,0,0,1,.143-.078v2.587h5.85V43.8C455.4,43.033,455.372,42.279,455.294,41.525Zm-7.735,10a4.194,4.194,0,0,1-2.691.741,2.6,2.6,0,0,1-1.625-.533,1.967,1.967,0,0,1,.273-3.211,5.443,5.443,0,0,1,1.885-.663c1.209-.208,2.431-.4,3.64-.6a1.493,1.493,0,0,1,.247-.013A4.366,4.366,0,0,1,447.559,51.522Z" data-name="Path 2415" fill="#4d4d4d" fill-rule="evenodd" id="Path_2415" transform="translate(-337.02 -26.146)"></path>
<path d="M418.184,51.895a4.273,4.273,0,0,1-1.95.7,3.5,3.5,0,0,1-2.314-.416,2.386,2.386,0,0,1-1.053-2.119c-.039-2.743-.026-5.473-.039-8.216a1.78,1.78,0,0,1,.026-.208h5.317V36.464H412.8V30.38c-.156.117-9.763,10.062-9.763,10.062a1.327,1.327,0,0,0-.325,1.2h3.848v9.113a10.692,10.692,0,0,0,.4,3.133,5.748,5.748,0,0,0,2.808,3.51,7.965,7.965,0,0,0,3.627.858,10.8,10.8,0,0,0,4.524-.741.387.387,0,0,0,.273-.416c-.013-1.638,0-3.276-.013-4.927A.928.928,0,0,0,418.184,51.895Z" data-name="Path 2416" fill="#4d4d4d" fill-rule="evenodd" id="Path_2416" transform="translate(-347.191 -27.429)"></path>
<path d="M376.03,56.417h6.318V35.11H376.03Z" data-name="Path 2417" fill="#4d4d4d" fill-rule="evenodd" id="Path_2417" transform="translate(-355.191 -26.01)"></path>
<path d="M455.14,31.192V58.427h6.318V28.28Z" data-name="Path 2418" fill="#4d4d4d" fill-rule="evenodd" id="Path_2418" transform="translate(-331.458 -28.059)"></path>
</g>
</g>
</g>
</g>
</g>
</svg>