<svg height="148px" version="1.1" viewbox="0 0 133 148" width="133px"><title>Page 1</title><desc>Created with Sketch.</desc><defs><polygon id="path-1" points="0.848269659 0.331 32.7415934 0.331 32.7415934 32.5123497 0.848269659 32.5123497"></polygon><polygon id="path-3" points="85.798 0.475971432 85.798 2.41762857 0.851149805 2.41762857 0.851149805 0.475971432 85.798 0.475971432"></polygon></defs><g id="Page-1"><g transform="translate(0.000000, -1.000000)"><g id="Group-3" transform="translate(46.000000, 0.669000)"><mask id="mask-2"><use xlink:href="#path-1"></use></mask><g id="Clip-2"></g><path d="M28.9754,27.0557 C37.4394,18.2267 30.5004,2.9467 19.4154,0.6567 C6.1764,-2.0783 -2.5816,12.9747 2.1434,24.3397 C3.3844,27.3257 5.3944,29.9007 8.4304,31.1557 C11.2484,32.3207 15.2024,33.1307 18.1124,31.8917 C18.5884,31.6897 18.3464,30.8797 17.8494,30.9187 C14.3214,31.1997 10.5234,31.1387 7.4284,29.1417 C4.5564,27.2887 2.9544,23.5497 2.4054,20.3037 C1.1724,13.0127 4.7874,5.2327 11.9224,2.5917 C18.0584,0.3207 24.6524,3.0877 28.3454,8.2517 C30.1194,10.7327 31.2184,13.6637 31.4014,16.7137 C31.6294,20.5147 30.3404,23.4957 28.5924,26.7607 C28.4654,26.9977 28.7774,27.2617 28.9754,27.0557"></path></g><path d="M66.8149,64.5377 C66.3379,62.2577 64.3959,60.2157 63.3829,58.1047 C62.0299,55.2827 61.1329,52.2457 60.9309,49.1147 C60.5409,43.0727 63.5309,38.0437 64.2519,32.2217 C64.3329,31.5707 63.2479,31.4317 63.1089,32.0667 C61.7239,38.3817 58.8909,44.0327 59.7379,50.6677 C60.0659,53.2327 60.8149,55.7157 61.9019,58.0607 C62.9189,60.2547 64.4329,63.5187 66.7119,64.6167 C66.7679,64.6447 66.8279,64.5997 66.8149,64.5377"></path><path d="M53.574,18.1442 C53.389,19.1332 53.786,20.1102 54.508,20.7912 C55.166,21.4122 56.172,20.3782 55.492,19.8072 C55.013,19.4042 54.809,18.9182 54.746,18.3032 C54.684,17.6902 53.708,17.4272 53.574,18.1442"></path><path d="M50.5,23 C51.256,23.612 52.1209,22.1371 51.3009,21.6291 C51.3009,21.6291 50.4899,20.7241 50.1219,20.0851 C49.7799,19.4901 48.7829,19.8831 48.9969,20.5591 C49.2599,21.3901 49.825,22.455 50.5,23 Z"></path><path d="M77.7129,71.8558 C73.0299,74.7608 68.1419,77.5508 66.2999,83.0788 C65.3739,85.8588 65.4489,88.6238 65.1499,91.4898 C64.6879,95.9138 58.7639,97.5368 56.1209,94.0438 C52.5129,89.2748 53.8259,81.8438 56.7779,77.1288 C59.8239,72.2638 64.5389,68.9688 68.7939,65.2658 C69.2129,64.9018 68.6639,64.1858 68.1969,64.4928 C63.0149,67.9098 57.6649,72.2778 54.7569,77.8798 C52.1939,82.8188 51.4639,90.1078 54.9699,94.8238 C58.1359,99.0828 65.3489,97.6068 66.4369,92.2818 C67.1859,88.6128 66.6129,85.0128 68.4139,81.5288 C70.4869,77.5208 74.7219,75.3198 78.3979,73.0278 C79.1369,72.5668 78.4579,71.3938 77.7129,71.8558"></path><path d="M76.0575,27.5291 C77.2835,30.8121 80.3735,32.8391 83.0425,34.8501 C87.1195,37.9211 90.2075,42.2461 92.0075,47.0211 C93.8505,51.9081 93.8655,57.7461 91.6595,62.5471 C89.4325,67.3921 83.2455,70.9381 78.1075,71.4851 C77.1525,71.5871 77.1435,73.0981 78.1075,72.9931 C83.2485,72.4331 88.0645,69.6221 91.4325,65.6981 C94.4385,62.1951 95.2115,56.2231 94.6465,51.7961 C93.9665,46.4701 91.1535,41.2091 87.5165,37.2961 C84.1365,33.6611 78.6585,32.0181 76.3215,27.4181 C76.2485,27.2741 75.9995,27.3741 76.0575,27.5291"></path><path d="M91.7248,63.5494 C93.3608,65.7684 95.3278,67.6714 96.9568,69.9094 C98.8138,72.4614 100.7648,74.9434 102.6338,77.4864 C104.2008,79.6174 105.7918,81.7404 107.3198,83.8984 C109.0818,86.3884 111.1458,89.9594 108.7278,92.7564 C104.4798,97.6724 98.0888,90.6224 95.4748,87.4654 C91.3658,82.5004 87.5918,77.2864 83.6548,72.1894 C83.1958,71.5954 82.1788,72.1274 82.6128,72.7974 C86.6688,79.0524 91.4348,85.4934 96.5908,90.8934 C99.6488,94.0944 104.8428,97.8894 109.1318,94.3554 C114.0498,90.3044 109.3858,84.3254 106.6588,80.6244 C104.5008,77.6944 102.3638,74.7564 100.1468,71.8704 C98.9128,70.2644 97.7548,68.5934 96.4738,67.0254 C95.2478,65.5244 93.6998,64.4374 92.3648,63.0554 C92.0528,62.7324 91.4448,63.1694 91.7248,63.5494"></path><path d="M60.3133,40.6062 C58.3613,42.1172 57.7573,44.2262 56.5253,46.2712 C54.8543,49.0432 52.6393,51.4792 50.8883,54.2032 C50.4953,54.8142 51.4483,55.5812 51.9133,54.9942 C53.7793,52.6362 55.5963,50.1112 57.1863,47.5592 C58.5223,45.4152 59.2493,42.9632 60.5403,40.7812 C60.6303,40.6292 60.4353,40.5122 60.3133,40.6062"></path><path d="M30.8734,75.1353 C39.0434,68.8983 38.4874,58.3703 31.4364,51.4873 C30.8944,50.9583 30.0614,51.7893 30.6044,52.3183 C37.0554,58.6053 37.8874,68.3483 30.2964,74.1483 C29.7194,74.5893 30.2884,75.5823 30.8734,75.1353"></path><path d="M9.1539,73.1804 C10.7509,75.8844 13.8749,78.5614 17.1939,78.3484 C17.9189,78.3024 17.9199,77.1624 17.1939,77.2164 C14.2549,77.4364 11.4879,75.0324 10.0609,72.6504 C9.7139,72.0714 8.8089,72.5964 9.1539,73.1804"></path><path d="M24.6126,81.3912 C30.1626,79.7692 34.9176,75.7692 38.7966,71.6132 C40.6786,69.5952 42.4056,67.4322 44.0406,65.2112 C45.6706,62.9942 48.8396,57.5592 51.7626,61.0692 C56.3976,66.6322 48.6166,74.2862 45.0616,78.0232 C40.3886,82.9342 35.4126,87.0722 29.1896,89.8602 C28.4496,90.1912 28.9836,91.4892 29.7476,91.1842 C36.9156,88.3212 42.5436,82.9912 47.6736,77.3762 C51.4646,73.2262 56.5046,67.1872 53.5116,61.2602 C50.1666,54.6362 45.1476,61.4272 42.6346,64.8192 C37.6926,71.4882 31.9076,77.1312 24.2356,80.4982 C23.7246,80.7222 24.0906,81.5442 24.6126,81.3912"></path><path d="M80.9522,37.4444 C77.5202,44.9024 72.0832,50.6744 65.9822,56.0344 C62.0822,59.4604 58.2782,63.3784 53.5172,65.6074 C50.1372,67.1904 45.7002,66.9064 47.1202,61.5964 C48.1682,57.6774 51.5332,54.8624 54.5072,52.3634 C60.8172,47.0574 67.0352,41.0014 70.8312,33.5734 C71.1022,33.0424 70.3672,32.6164 70.0352,33.1074 C65.3322,40.0604 60.0842,46.1064 53.6912,51.5474 C51.2042,53.6634 48.6492,55.8994 47.0682,58.8074 C45.9562,60.8534 44.8482,63.9084 46.3292,66.0464 C48.6852,69.4484 53.5822,67.1164 56.2292,65.4724 C60.1592,63.0314 63.4522,59.7754 66.8772,56.7044 C72.8582,51.3404 78.5372,45.3034 81.0952,37.5044 C81.1222,37.4214 80.9892,37.3634 80.9522,37.4444"></path><path d="M17.346,77.5999 C16.834,79.7099 15.642,81.7089 14.794,83.6959 C13.39,86.9819 12.244,90.3939 11.519,93.8959 C10.251,100.0159 10.534,106.4159 11.905,112.5029 C12.985,117.3009 15.187,122.6409 19.997,124.7359 C22.862,125.9839 25.909,125.7999 28.751,124.5939 C32.935,122.8189 36.928,119.9869 40.559,117.2889 C40.958,116.9919 40.624,116.3909 40.164,116.6149 C36.549,118.3719 33.253,120.6249 29.711,122.5039 C26.386,124.2689 22.64,124.8539 19.336,122.7329 C14.995,119.9459 13.545,114.1399 12.774,109.3699 C11.744,102.9949 12.002,96.7269 13.746,90.4879 C14.512,87.7449 15.489,85.0529 16.519,82.3989 C17.097,80.9069 17.897,79.4179 18.242,77.8469 C18.37,77.2649 17.488,77.0159 17.346,77.5999"></path><path d="M31.9873,60.9422 C32.2733,61.5872 33.3913,61.1252 33.1373,60.4572 C32.9053,59.8452 32.5323,59.3432 31.9513,59.0222 C31.2203,58.6192 30.5613,59.7562 31.2983,60.1392 C31.5803,60.2862 31.7683,60.4482 31.9873,60.9422 Z"></path><g id="Group-36" transform="translate(47.000000, 97.669000)"><mask id="mask-4"><use xlink:href="#path-3"></use></mask><g id="Clip-35"></g><path d="M1.5719,2.1928 C29.3959,2.3418 57.2499,2.6108 85.0719,2.1988 C86.0399,2.1848 86.0409,0.6648 85.0719,0.6948 C83.7159,0.7358 82.3569,0.8078 81.0069,0.9468 C80.3649,1.0128 80.3639,1.8808 81.0069,1.9468 C82.3569,2.0848 83.7159,2.1578 85.0719,2.1988 C86.0389,2.2278 86.0419,0.7088 85.0719,0.6948 C57.2499,0.2828 29.3959,0.5518 1.5719,0.7008 C0.6119,0.7058 0.6099,2.1878 1.5719,2.1928" mask="url(#mask-4)"></path></g><path d="M28.7249,43.579 C31.1009,44.44 33.9669,46.268 32.4509,49.227 C31.8289,50.443 27.4099,54.716 26.9779,51.36 C26.9339,51.021 26.4959,50.831 26.2929,51.174 C25.6209,52.315 26.3199,53.542 27.5649,53.935 C29.4089,54.516 31.2129,52.773 32.2799,51.515 C35.4369,47.793 32.6089,44.665 28.9959,42.936 C28.5389,42.718 28.2439,43.405 28.7249,43.579"></path><path d="M22.167,44.622 C22.891,43.557 24.477,45.579 24.78,46.08 C25.19,46.758 25.438,47.503 25.502,48.289 C25.682,50.472 24.381,51.407 22.509,51.959 C22.184,52.055 22.226,52.466 22.509,52.577 C25.651,53.817 27.011,49.306 26.347,47.072 C25.868,45.46 22.988,41.591 21.27,44.098 C20.891,44.65 21.792,45.173 22.167,44.622"></path><path d="M25.9214,43.0253 C27.3114,44.0513 27.4564,46.0063 26.6354,47.4363 C25.9514,48.6253 24.7774,49.1503 23.7054,49.9023 C23.4954,50.0493 23.5534,50.4183 23.8434,50.4123 C27.7384,50.3243 29.1474,45.0103 25.9924,42.9043 C25.9154,42.8533 25.8504,42.9723 25.9214,43.0253"></path><path d="M24.6732,41.3254 C25.5872,42.1844 26.4862,43.1264 26.9362,44.3214 C27.7322,46.4364 25.1762,46.8484 23.6572,46.5184 C21.1552,45.9764 19.9632,43.2584 21.4672,41.1364 C21.5922,40.9594 21.3532,40.7584 21.1842,40.8524 C19.7682,41.6464 19.3862,43.4304 19.8202,44.9114 C20.3382,46.6754 22.0992,47.7284 23.8422,47.9354 C25.2942,48.1084 27.8812,47.8584 28.1742,46.0494 C28.5272,43.8694 26.4472,42.2144 25.0042,40.9944 C24.7772,40.8014 24.4502,41.1164 24.6732,41.3254"></path><path d="M5.6258,58.8724 C4.3498,58.2264 3.0768,57.1594 2.8468,55.6754 C2.7088,54.7834 2.9288,53.6974 3.7948,53.2134 C4.9288,52.5794 5.8458,53.2714 6.6208,53.9804 C8.1158,55.3484 11.1078,59.9844 8.1268,61.3044 C7.9318,61.3904 8.0768,61.6724 8.2648,61.6324 C12.9728,60.6374 8.1738,52.8774 5.4478,52.1074 C3.7018,51.6144 2.0128,52.9564 1.7888,54.6934 C1.4798,57.0914 3.4968,58.5444 5.5268,59.1084 C5.6638,59.1464 5.7588,58.9394 5.6258,58.8724"></path><path d="M7.3906,64.8177 C6.1036,65.0637 4.7656,64.7827 3.6996,64.0077 C2.4266,63.0807 1.3576,60.9057 3.1226,59.8617 C4.4726,59.0637 6.4506,59.2517 7.4226,60.5247 C8.6606,62.1457 7.5326,63.6037 6.4466,64.8927 C6.3196,65.0437 6.4856,65.3147 6.6736,65.1867 C8.3416,64.0547 9.7096,62.2157 8.5546,60.2047 C7.4016,58.1957 4.6696,57.7737 2.6976,58.7447 C0.6126,59.7707 0.5536,62.2307 1.8446,63.9437 C3.1906,65.7287 5.5496,66.3407 7.6526,65.7667 C8.2706,65.5987 8.0066,64.6997 7.3906,64.8177"></path><path d="M5.1247,71.3028 C3.7447,71.6958 2.2327,69.9928 1.6087,68.9488 C0.6407,67.3298 1.6537,65.9138 3.0687,65.0938 C4.2487,64.4098 5.5907,63.9598 6.9427,64.3298 C8.4447,64.7398 9.6797,66.1968 9.2247,67.8628 C9.1767,68.0388 9.4357,68.1568 9.5247,67.9898 C10.3987,66.3378 9.7407,64.4868 8.0987,63.5918 C6.1237,62.5158 3.5667,63.2978 1.8517,64.5148 C0.2957,65.6198 -0.5173,67.2278 0.3607,69.0508 C1.2217,70.8388 3.2657,72.6768 5.3407,72.0858 C5.8427,71.9438 5.6297,71.1588 5.1247,71.3028"></path><path d="M14.0312,65.2799 C11.5032,64.5579 11.1182,59.6749 13.3252,58.3759 C14.5132,57.6769 16.6562,57.5419 17.7162,58.4959 C19.3332,59.9519 18.1502,62.0369 16.4562,62.6439 C16.2572,62.7159 16.2672,63.0699 16.5102,63.0429 C18.1572,62.8629 19.4102,61.3399 19.1552,59.6649 C18.8082,57.3939 16.5692,56.7869 14.5882,57.0859 C12.5452,57.3939 11.1042,58.7229 11.0512,60.8679 C11.0032,62.7879 12.0492,64.8839 13.9982,65.4009 C14.0762,65.4209 14.1082,65.3019 14.0312,65.2799"></path><path d="M22.1212,57.7714 C19.2752,58.6484 17.4452,54.6504 20.3512,53.4284 C21.3342,53.0154 22.9452,52.6164 23.9192,53.2074 C24.9792,53.8494 24.8472,55.1994 24.8182,56.2514 C24.8122,56.4564 25.1112,56.6074 25.2512,56.4314 C26.1872,55.2504 25.9622,53.3534 24.7522,52.4274 C23.2752,51.2974 20.4192,51.7874 18.9962,52.7994 C17.6262,53.7744 17.1652,55.7504 18.0432,57.2094 C18.9752,58.7594 20.8232,58.9834 22.3022,58.1994 C22.5352,58.0764 22.3752,57.6934 22.1212,57.7714"></path><path d="M17.104,61.8893 C16.663,61.5803 16.231,61.1903 15.955,60.7193 C15.439,59.8373 15.815,59.2513 16.701,59.0033 C17.617,58.7463 18.707,59.0033 19.405,59.6563 C19.771,59.9993 20.187,60.6103 20.105,61.1433 C19.994,61.8633 19.233,62.1503 18.606,62.1783 C17.562,62.2253 16.823,61.6333 16.021,61.0723 C15.712,60.8563 15.211,61.2203 15.355,61.5843 C16.033,63.2923 18.321,63.8403 19.919,63.1633 C21.915,62.3183 21.625,59.9173 20.205,58.6553 C18.891,57.4873 16.604,57.1733 15.185,58.3403 C13.371,59.8333 15.165,61.8063 16.749,62.4963 C17.161,62.6753 17.481,62.1533 17.104,61.8893"></path><path d="M23.6496,59.89 C23.7716,61.131 22.5646,61.778 21.4986,61.351 C20.7136,61.037 20.2146,60.382 19.9696,59.585 C19.6996,58.709 19.8776,57.71 20.8626,57.429 C21.5576,57.231 22.2666,57.518 22.9556,57.584 C23.0946,57.598 23.1846,57.387 23.0736,57.298 C22.2626,56.641 20.7596,56.44 19.8106,56.915 C18.5596,57.541 18.5386,59.242 19.0666,60.352 C19.5466,61.361 20.6316,62.39 21.8316,62.2 C22.8746,62.034 23.8566,60.972 23.7196,59.89 C23.7146,59.846 23.6456,59.844 23.6496,59.89"></path><path d="M13.271,67.4302 C12.856,66.4772 13.256,64.9682 14.411,64.7422 C15.712,64.4872 16.712,65.8202 16.091,66.9672 C15.625,67.8262 14.478,68.6672 13.559,68.9492 C11.973,69.4352 11.897,67.5872 11.624,66.5322 C11.554,66.2602 11.209,66.3082 11.12,66.5322 C10.457,68.1902 11.082,70.5602 13.266,70.3302 C15.113,70.1362 17.597,68.1252 17.537,66.1302 C17.484,64.3712 15.47,63.1332 13.854,63.7312 C12.169,64.3552 11.672,66.4222 12.435,67.9192 C12.723,68.4852 13.514,67.9882 13.271,67.4302"></path><path d="M16.7564,71.8229 C15.1334,72.5179 13.6914,72.0159 13.0724,70.3439 C12.6174,69.1129 12.4484,67.6329 13.6864,66.8209 C13.9824,66.6259 13.9054,66.0399 13.4874,66.0849 C11.0374,66.3519 11.0904,69.2149 11.8174,70.9649 C12.1964,71.8779 12.8124,72.8149 13.8184,73.1049 C15.0074,73.4469 15.9824,72.7219 16.9574,72.1669 C17.1864,72.0369 16.9854,71.7249 16.7564,71.8229"></path><path d="M13.8507,45.2204 C12.4037,43.6944 14.8857,42.8464 15.8747,42.8354 C16.7047,42.8264 17.5437,43.0314 18.2947,43.3794 C19.6787,44.0204 20.5417,45.1134 21.4287,46.3014 C21.6177,46.5544 22.0567,46.4194 21.9657,46.0754 C21.2777,43.4514 18.2537,41.7884 15.6577,41.9204 C13.7397,42.0174 11.4457,43.9584 13.2757,45.7954 C13.6467,46.1664 14.2107,45.5994 13.8507,45.2204"></path><path d="M9.5632,68.3788 C9.9982,69.2608 10.4762,70.2188 10.3012,71.2348 C10.1372,72.1818 9.4322,72.8198 8.4602,72.6578 C6.3972,72.3148 6.7322,70.2878 6.2282,68.8238 C6.0632,68.3468 5.4722,68.3858 5.2942,68.8238 C4.8382,69.9438 5.3412,71.5628 6.0162,72.4998 C6.6922,73.4378 7.8182,74.0018 8.9802,73.8958 C10.1092,73.7928 10.9682,73.0238 11.2212,71.9238 C11.5442,70.5248 10.8482,69.1988 10.2112,67.9998 C9.9832,67.5718 9.3512,67.9488 9.5632,68.3788"></path><path d="M14.8281,46.4695 C14.6791,44.9925 13.3231,44.4165 11.9561,44.5735 C10.2011,44.7745 8.7251,46.1485 8.0751,47.7385 C7.3661,49.4725 7.6591,51.4595 8.9791,52.8245 C10.0841,53.9665 11.9741,54.7515 13.4311,53.8235 C13.6801,53.6645 13.6691,53.2185 13.3441,53.1515 C11.2041,52.7165 8.6581,51.7285 9.2311,48.9695 C9.6931,46.7455 12.6461,44.7405 14.6681,46.5355 C14.7231,46.5845 14.8371,46.5565 14.8281,46.4695"></path><path d="M20.6874,49.4991 C21.0954,48.4001 20.1614,47.2851 19.1724,46.8981 C17.9094,46.4041 16.4074,46.7501 15.3964,47.6261 C14.4404,48.4551 13.9104,49.7651 14.3544,50.9981 C14.7414,52.0721 15.7484,52.6851 16.8644,52.3701 C17.2604,52.2591 17.1924,51.7691 16.8644,51.6321 C15.5454,51.0811 15.4624,49.4731 16.5804,48.6561 C17.0904,48.2831 17.8414,48.0751 18.4634,48.2361 C19.2114,48.4301 19.4894,49.0151 19.8734,49.6051 C20.0924,49.9421 20.5534,49.8591 20.6874,49.4991"></path><path d="M7.7553,51.2046 C7.2543,50.6236 6.4613,50.6396 5.9803,51.2546 C5.4603,51.9206 5.4263,52.9536 5.5493,53.7506 C5.8113,55.4576 7.1223,57.3066 8.9893,57.3126 C9.4793,57.3136 9.5513,56.7236 9.2183,56.4676 C8.5223,55.9346 7.8443,55.4206 7.4023,54.6396 C7.1943,54.2716 7.0563,53.8736 6.9983,53.4546 C6.9793,53.3156 6.9593,51.9206 7.2653,52.0466 C7.7743,52.2566 8.0463,51.5416 7.7553,51.2046"></path><path d="M28.0818,54.075 C28.8488,54.693 28.4318,55.543 27.7358,55.936 C27.0728,56.31 26.2628,56.277 25.5318,56.217 C24.6178,56.142 24.0048,55.917 23.8888,54.958 C23.8208,54.396 23.9078,53.833 23.9128,53.27 C23.9148,52.973 23.5168,52.879 23.3668,53.122 C22.8378,53.976 22.5648,55.177 23.0828,56.105 C23.6818,57.178 25.0458,57.15 26.1198,57.109 C27.0108,57.075 28.2458,56.851 28.5458,55.852 C28.7368,55.215 28.6928,54.429 28.1288,54.014 C28.0938,53.988 28.0468,54.047 28.0818,54.075"></path><path d="M16.1637,121.0035 C13.3537,126.1015 10.2677,131.0165 7.5417,136.1615 C6.0927,138.8955 3.2007,143.4165 5.3787,146.4755 C8.5167,150.8835 15.4527,147.8555 17.8497,144.3225 C19.9047,141.2935 21.5717,137.7885 23.2337,134.5275 C24.9387,131.1825 26.6987,127.7785 27.8367,124.1925 C27.9747,123.7575 27.3267,123.4905 27.1037,123.8835 C24.0037,129.3405 21.4467,135.1045 18.3567,140.5805 C16.7327,143.4565 15.1737,146.4335 11.5597,147.0725 C8.9977,147.5265 5.8217,146.5725 6.0687,143.5125 C6.3717,139.7485 9.3647,135.4815 11.1397,132.2725 C13.1587,128.6245 15.3827,125.2195 16.9217,121.3235 C17.0957,120.8825 16.3867,120.5985 16.1637,121.0035"></path><path d="M29.2065,56.4104 C28.7385,56.8014 28.3605,57.3244 27.9735,57.7934 C27.6145,58.2284 27.2285,58.6664 27.0255,59.1974 C26.8975,59.5294 27.3415,59.8494 27.6265,59.6594 C28.1005,59.3444 28.4385,58.8654 28.7825,58.4184 C29.1535,57.9374 29.5815,57.4564 29.8595,56.9144 C30.0805,56.4824 29.5675,56.1094 29.2065,56.4104"></path><path d="M53.4469,28.8163 C56.2729,28.7473 59.9029,26.9633 61.0879,24.2633 C61.2649,23.8593 60.8149,23.4583 60.4599,23.7793 C59.3949,24.7383 58.5319,25.8053 57.2949,26.5763 C56.0739,27.3363 54.7329,27.7403 53.3489,28.0923 C52.9489,28.1933 53.0279,28.8263 53.4469,28.8163"></path><path d="M29.3741,69.1953 C31.7231,68.9283 34.4851,68.0313 35.9001,66.0083 C36.1551,65.6433 35.6641,65.2173 35.3121,65.4203 C33.3251,66.5683 31.7451,67.7123 29.3741,67.9533 C28.5831,68.0333 28.5831,69.2853 29.3741,69.1953"></path><path d="M32.2885,121.5751 C30.7415,124.9721 29.5315,128.4431 29.4055,132.2061 C29.3265,134.5561 29.5785,137.2981 32.0235,138.3531 C35.9525,140.0461 40.0965,135.7271 42.4115,133.1391 C45.4365,129.7581 48.1315,125.9141 50.2885,121.9181 C52.5485,117.7291 55.8335,111.0101 53.4045,106.2671 C50.8785,101.3371 42.9035,102.3171 39.5155,105.6801 C39.0135,106.1791 39.7515,106.8731 40.2785,106.4421 C42.5195,104.6091 46.1335,103.8241 48.9365,104.5401 C52.5275,105.4571 53.1035,108.8391 52.5435,112.0461 C51.7095,116.8211 49.2645,121.2751 46.6605,125.3061 C44.1135,129.2501 41.1655,133.6251 37.1815,136.2511 C34.9495,137.7221 31.5585,138.4491 30.6395,135.0281 C29.5195,130.8591 31.1565,125.6721 32.8555,121.9061 C33.0275,121.5251 32.4635,121.1901 32.2885,121.5751"></path><path d="M33.6071,89.1569 C35.6721,92.4019 37.6281,95.6939 38.6331,99.4469 C39.1551,101.3909 39.4031,103.3939 39.1391,105.3969 C38.8751,107.3979 37.8701,108.9369 37.1301,110.7509 C36.9361,111.2289 37.6041,111.4859 37.9201,111.2109 C40.8421,108.6719 40.8381,103.6919 40.0771,100.2239 C39.1521,96.0069 36.9621,91.9879 34.3191,88.6079 C34.0011,88.2019 33.3341,88.7269 33.6071,89.1569"></path><path d="M32.4665,73.7928 C33.7425,73.2308 34.9845,72.5478 36.2285,71.9168 C37.3835,71.3288 38.6965,70.8278 39.5945,69.8598 C39.8595,69.5728 39.5945,69.1518 39.2255,69.2258 C37.9225,69.4898 36.7605,70.2218 35.5875,70.8218 C34.3615,71.4478 33.0265,72.0268 31.8945,72.8148 C31.2875,73.2368 31.8035,74.0848 32.4665,73.7928"></path><path d="M33.678,75.5018 C34.724,76.8148 35.891,78.0288 37.078,79.2138 C38.14,80.2748 39.25,81.5528 40.598,82.2448 C40.95,82.4248 41.457,82.0328 41.189,81.6548 C40.305,80.4108 38.981,79.4628 37.878,78.4148 C36.662,77.2588 35.514,76.0368 34.319,74.8608 C33.892,74.4418 33.323,75.0558 33.678,75.5018"></path><path d="M13.4525,113.2091 C13.0625,113.5811 13.0955,113.5401 13.0365,114.0901 C13.0255,114.1961 13.1045,114.3121 13.1935,114.3621 C17.7635,116.9571 23.4825,114.2701 27.6685,112.0131 C31.9705,109.6941 36.2025,107.2161 40.3735,104.6711 C40.8295,104.3921 40.4315,103.7601 39.9635,103.9691 C36.1465,105.6721 32.6205,108.0691 28.9825,110.1161 C27.3195,111.0521 25.6475,112.0241 23.8895,112.7741 C22.5185,113.3581 21.0675,113.8621 19.6075,114.1721 C18.9295,114.3161 13.2305,115.0301 13.6145,113.3031 C13.6355,113.2101 13.5245,113.1411 13.4525,113.2091"></path><path d="M6.6282,138.5213 C10.0932,140.0993 13.6772,141.7823 17.4042,142.6223 C17.7822,142.7083 17.9152,142.1843 17.5612,142.0503 C13.9912,140.6983 10.4262,139.3353 6.8622,137.9673 C6.5442,137.8453 6.3152,138.3793 6.6282,138.5213"></path><path d="M30.8401,128.5196 C33.9451,130.7836 38.2911,132.2856 42.0691,132.8346 C42.5561,132.9046 42.7811,132.2156 42.2781,132.0746 C38.5451,131.0246 34.5101,129.9936 31.3381,127.6666 C30.8261,127.2906 30.3311,128.1486 30.8401,128.5196"></path></g></g></svg>