<svg height="191" viewbox="0 0 122 191" width="122"><path d="M121.013 180.728C119.62 176.489 116.077 173.062 111.78 171.843C108.121 170.797 103.475 171.204 100.63 173.817C100.281 170.101 98.3651 166.21 97.2617 162.725L93.3708 150.53C92.0932 146.465 90.7576 142.4 89.4219 138.335C88.2024 134.502 87.2732 130.147 85.2407 126.662C85.0665 126.314 84.4277 126.43 84.4858 126.895C84.8342 130.902 86.5764 134.967 87.7959 138.8C89.0735 142.865 90.4091 146.93 91.6867 150.995C92.9643 155.06 94.3 159.125 95.5776 163.19C96.5648 166.384 97.2617 170.217 98.8296 173.353C98.7716 173.353 98.7716 173.353 98.7135 173.353C97.2036 173.469 96.1002 174.398 94.6484 174.863C92.8482 175.501 90.9318 175.792 89.0154 175.85C85.2988 175.908 82.4532 174.224 78.9689 173.527C78.6204 172.54 78.272 171.494 77.9236 170.507C76.2395 165.629 74.4973 160.809 72.8132 155.931C71.1291 151.053 69.3869 146.233 67.7028 141.355C66.8318 138.916 66.0187 136.477 65.0896 134.096C64.5669 132.702 64.2185 131.192 63.4055 130.031C63.7539 129.914 64.1024 129.798 64.4508 129.682C64.9734 129.45 64.8573 128.579 64.2766 128.463C61.8956 128.056 59.2243 128.753 56.8433 129.043C54.7527 129.334 52.2556 129.276 50.4553 130.437C50.2231 130.611 50.2811 130.902 50.5134 131.018C51.6168 131.424 52.8944 131.424 54.1139 131.308C52.8363 134.967 52.5459 139.322 51.791 142.981C50.7457 147.859 49.6423 152.679 48.3647 157.441C46.7387 163.887 44.8223 170.275 42.7898 176.663C42.6736 176.547 42.5575 176.489 42.4414 176.489C40.7573 176.314 39.0732 177.127 37.331 177.243C35.4146 177.36 33.4982 177.127 31.6399 176.547C28.4459 175.617 26.123 173.585 23.684 171.552C25.31 168.184 25.4842 163.596 26.2392 159.996C27.1103 155.582 27.9813 151.227 28.8524 146.814C29.7235 142.4 30.5946 138.045 31.4657 133.631C31.8722 131.599 32.2787 129.624 32.6271 127.592C32.8013 126.488 33.0917 125.385 33.2079 124.281C33.2659 123.875 33.2079 123.527 33.1498 123.236C33.7305 123.236 34.3693 122.597 33.9628 121.959C31.9303 118.416 31.1753 114.583 31.2915 110.693C38.3182 114.351 46.7968 115.687 54.5785 116.209C63.6958 116.79 72.9294 115.803 81.6402 113.132C82.1629 113.015 82.3371 112.551 82.279 112.086C83.5566 111.68 84.7761 111.157 85.9956 110.576C86.6925 114.874 86.6344 119.171 84.66 123.12C84.66 123.062 84.66 122.946 84.6019 122.888C84.5438 122.365 83.7889 122.539 83.7308 123.004C83.6147 123.759 83.4985 124.572 83.3824 125.327C83.2662 126.082 84.2535 126.953 84.8342 126.198C90.3511 119.287 87.912 110.17 85.8795 102.446C85.5311 101.169 85.1826 99.8911 84.8342 98.5554C85.1826 98.8458 85.5311 99.1362 85.8214 99.4265C86.286 99.833 86.6925 100.24 87.1571 100.588C87.5636 100.878 87.912 101.053 88.3185 101.285C88.2024 101.575 88.2605 101.982 88.6089 102.156C92.3255 104.13 96.3906 105.408 100.63 105.35C104.23 105.234 108.76 104.188 111.199 101.401C116.948 94.9549 108.063 90.193 103.592 86.4764C89.48 74.6877 76.3556 61.8537 67.8771 45.3611C75.2522 40.8896 77.9817 31.0173 76.8202 22.8871C75.891 13.3633 69.0966 5.58158 60.4438 1.98109C51.7329 -1.61939 41.9768 -0.283729 34.6597 5.7558C27.6329 11.505 23.6259 20.9127 25.8327 29.9139C27.9813 38.799 36.1115 47.1033 45.5192 47.9163C43.6609 50.2973 42.3252 53.3171 40.6992 55.8142C38.6086 59.1243 36.4018 62.3183 34.0789 65.3961C29.2589 71.8421 23.9163 77.8236 18.051 83.3405C15.2054 86.0118 12.3018 88.567 9.28204 91.006C6.49457 93.2708 3.24251 95.3034 1.32613 98.4393C-1.51942 103.143 0.280823 109.183 6.08806 109.88C13.5213 110.751 21.9418 106.686 26.936 101.517C26.9941 101.459 27.0522 101.343 27.0522 101.285C28.2717 100.298 29.4332 99.2523 30.5946 98.1489C31.2915 97.5101 32.1045 96.8713 32.9175 96.2325C32.7433 96.7552 32.5691 97.2778 32.3368 97.8005C31.1172 101.401 30.1881 105.176 29.8977 108.95C29.7816 108.892 29.6654 108.892 29.5493 108.834C29.2589 108.776 29.1428 109.125 29.3751 109.299C29.5493 109.415 29.7235 109.473 29.8977 109.589C29.6654 114.003 30.3623 118.358 32.5691 122.365C32.3948 122.597 32.2206 122.888 32.0464 123.178C31.6399 124.165 31.5238 125.385 31.2915 126.43C30.8269 128.637 30.3623 130.786 29.8977 132.992C28.9686 137.348 28.0975 141.761 27.2264 146.175C26.3553 150.588 25.4262 154.944 24.5551 159.357C23.9163 162.667 22.4645 166.674 22.4064 170.217C22.3483 170.159 22.2902 170.159 22.2902 170.101C22.2322 170.042 22.1741 170.101 22.1741 170.159V170.217C18.6317 170.159 14.5666 173.004 12.1276 175.095C8.64324 178.115 6.14613 182.063 4.86854 186.477C4.63625 187.174 5.33312 187.696 5.91384 187.58C10.85 190.658 18.2833 191.065 23.8582 190.832C27.1103 190.716 30.3623 190.252 33.5563 189.439C35.705 188.858 38.6086 188.277 40.6411 186.883C41.0476 186.942 41.5122 186.767 41.6864 186.245C41.7445 186.129 41.8026 185.954 41.8606 185.78C45.2869 176.547 48.0744 166.965 50.5134 157.325C51.7329 152.505 52.8363 147.685 53.8235 142.807C54.5785 139.148 55.9141 134.851 55.8561 131.018C56.611 130.902 57.366 130.786 58.1209 130.669C59.5727 130.495 61.0826 130.437 62.5344 130.205C62.5925 131.657 63.2893 133.05 63.7539 134.444C64.5669 136.883 65.438 139.322 66.251 141.761C67.9351 146.639 69.6192 151.517 71.3033 156.337C72.9874 161.216 74.7296 166.035 76.4137 170.914C77.2848 173.353 78.0978 175.792 78.9689 178.173C79.7238 180.263 80.2465 182.644 81.5241 184.444C81.5821 184.503 81.6402 184.561 81.6983 184.619C81.5241 184.619 81.2918 184.677 81.1176 184.793L81.0595 184.851C81.9886 187 86.3441 187.58 88.3766 187.987C92.0352 188.742 95.8099 188.974 99.5265 188.684C106.205 188.161 112.999 186.07 118.574 182.296C118.69 182.47 118.865 182.528 119.039 182.47C119.968 182.18 120.084 182.122 120.839 181.483C121.013 181.367 121.129 180.96 121.013 180.728ZM111.664 95.1292C114.509 100.065 106.263 103.143 102.662 103.55C99.933 103.898 97.3197 103.55 94.7646 102.795C94.8226 102.737 94.8226 102.679 94.8807 102.62C95.1711 101.807 95.4614 101.053 95.7518 100.24C97.2036 98.4974 98.1328 96.0002 99.1781 94.2C100.398 92.0513 102.314 89.6704 102.837 87.1733C103.127 87.4055 103.417 87.6959 103.708 87.9282C106.205 90.0769 109.98 92.2255 111.664 95.1292ZM70.258 67.1963C69.6773 67.1383 69.445 67.8351 69.6773 68.2417C70.7226 70.1 72.0002 71.726 73.5101 73.1778C70.4903 74.2812 67.6448 76.0234 65.5542 78.5205C65.3799 78.4624 65.1477 78.4043 64.9734 78.3462H64.9154C64.9154 78.2301 64.8573 78.172 64.7411 78.114C64.6831 78.114 64.625 78.114 64.625 78.0559C65.7284 74.978 66.6575 71.8421 67.3544 68.7062C67.4705 68.6482 67.5286 68.532 67.5286 68.3578C67.5286 68.1836 67.5286 68.0094 67.5286 67.8932C67.9351 66.151 68.2255 64.4089 68.5159 62.6667C68.9224 60.2277 69.2127 57.7306 69.3869 55.2915C69.3869 54.9431 69.445 54.5366 69.5031 54.1881C69.9677 56.0465 71.1291 57.9048 71.826 59.4727C73.1616 62.4344 74.6715 65.28 76.3556 68.0094C74.2069 67.719 72.2325 67.4286 70.258 67.1963ZM63.057 81.4822C62.7086 81.1918 62.5344 80.9014 62.4763 80.6111C62.5344 80.4369 62.5925 80.2626 62.5344 80.0884C62.5344 80.0303 62.5925 79.9142 62.6505 79.8561C63.057 80.3788 63.8701 80.1465 64.1604 79.6238C64.4508 79.6819 64.7411 79.7981 65.0315 79.8561C65.438 81.0756 64.1604 82.3532 63.057 81.4822ZM64.6831 102.969C64.8573 103.317 64.8573 103.84 64.6831 104.247C64.6831 104.13 64.6831 103.956 64.625 103.84C64.5669 103.492 64.4508 103.201 64.2766 102.911C64.4508 102.969 64.5669 102.969 64.6831 102.969ZM62.244 103.027C62.7086 103.143 63.1151 103.375 63.4636 103.666C63.6958 103.898 63.812 104.13 63.9862 104.421C64.0443 104.537 64.2185 104.711 64.2766 104.827C64.0443 105.06 63.7539 105.176 63.4636 105.176C62.4763 105.176 61.8956 103.84 62.244 103.027ZM48.4809 63.7701C46.971 63.9443 45.5192 64.1185 44.0093 64.2347C44.9385 60.6342 45.9838 57.0337 46.7968 53.4332C47.784 54.885 48.9455 56.2787 49.8746 57.7306C51.4426 60.0535 53.0105 62.4344 54.4623 64.8735C57.1917 69.287 59.5727 73.8747 61.8956 78.5205C61.6633 78.7528 61.431 78.985 61.3149 79.2754C56.3207 76.4299 51.3264 73.5843 46.2741 70.7968C47.2033 68.8224 48.1325 66.8479 49.0616 64.8735C49.2939 64.4089 49.0616 63.712 48.4809 63.7701ZM63.1732 76.7783C63.1732 76.7783 63.1151 76.7783 63.1732 76.7783C61.9537 74.3393 60.6761 71.9002 59.3404 69.5192C59.9792 67.4286 60.7342 65.338 61.1987 63.1894C61.431 63.1894 61.6633 63.1313 61.8956 63.0732C62.0117 64.0604 63.2893 65.1638 63.8701 65.8607C64.4508 66.5576 65.0315 67.1964 65.6703 67.8351C65.6703 67.8351 65.6703 67.8351 65.7284 67.8932C65.0315 70.913 64.1604 73.8747 63.1732 76.7783ZM57.0756 60.9245C57.5402 62.086 58.6435 62.899 59.9211 63.1894C59.3404 64.6992 58.8758 66.2672 58.4113 67.8351C57.5402 66.3833 56.7272 64.9315 55.798 63.4797C55.5657 63.1313 55.3334 62.7829 55.1011 62.3763C55.8561 62.2021 56.4949 61.5633 57.0756 60.9245ZM66.6575 63.1894C66.4833 64.1766 66.3091 65.1638 66.0768 66.151C65.7284 65.7445 65.3799 65.3961 65.0315 64.9896C64.4508 64.3508 63.5797 63.1313 62.6505 62.7248C63.7539 62.086 64.7411 60.7503 64.9154 59.5308C65.438 60.0535 65.9026 60.5761 66.5414 60.8084C66.7156 60.8665 66.8898 60.8084 67.006 60.6922C66.9479 61.5633 66.8318 62.3763 66.6575 63.1894ZM61.6052 61.6795C61.4891 61.7375 61.3149 61.7956 61.1987 61.7956C61.0245 61.6214 60.7342 61.6214 60.5599 61.8537C59.4566 61.7956 58.4693 61.0407 57.7725 60.2277C57.9467 60.0534 58.1209 59.8212 58.237 59.705C58.8178 59.0662 59.4566 58.4274 60.0373 57.7886C60.2115 57.5563 60.3857 57.3821 60.5599 57.1498C60.7922 57.3241 61.0826 57.3241 61.3149 57.2079C62.1279 57.6144 62.9409 58.079 63.6958 58.5436C63.3474 59.7631 63.057 61.0988 61.6052 61.6795ZM59.1662 56.511C58.4113 57.1498 57.7725 57.8467 57.0756 58.5436C56.3207 59.2985 54.8688 60.2277 54.4043 61.331C53.359 59.705 52.2556 58.0209 51.1522 56.453C50.3973 55.3496 49.6423 54.2462 48.8293 53.2009C48.4809 52.7363 48.1325 52.2718 47.784 51.8653C47.6098 51.691 47.4937 51.4587 47.3194 51.2845C47.3194 51.2265 47.3194 51.2265 47.3194 51.1684C48.8874 52.0975 50.8619 52.6783 52.4298 53.259C54.8108 54.2462 57.1917 55.2915 59.6308 56.1626C59.4566 56.2787 59.3404 56.3949 59.1662 56.511ZM67.7028 54.7689C67.5867 56.511 67.3544 58.1951 67.1802 59.9373C66.8318 58.892 65.7284 58.079 64.8573 57.4983C63.9281 56.9175 63.1151 56.5691 62.1279 56.3949C62.186 56.2787 62.244 56.1626 62.244 56.0465C63.4055 54.7108 64.4508 53.259 65.4961 51.8653C66.3672 50.7619 67.819 49.4843 68.0513 48.0325C68.1093 48.1486 68.2255 48.3228 68.2836 48.439C67.7609 50.4134 67.8771 52.6202 67.7028 54.7689ZM47.9582 47.9744C48.7132 47.9163 48.7132 46.9291 47.9582 46.813C47.6098 46.7549 47.2033 46.6968 46.8549 46.6387H46.7968C38.5505 45.1869 31.4657 40.0766 28.3878 32.0626C25.2519 23.9324 27.8652 14.9893 33.9047 8.8917C39.9442 2.73603 48.597 0.355067 56.9014 2.67796C65.1477 5.00086 72.2906 11.563 74.7296 19.8674C77.3429 28.8105 74.4973 37.8698 67.5286 43.7351C67.4706 43.677 67.4705 43.619 67.4125 43.5609C67.006 42.6898 65.7284 43.4448 66.1349 44.3158C66.6575 45.3031 67.1221 46.3484 67.7028 47.3356H67.6448C66.1349 47.8002 65.2057 49.6585 64.2766 50.878C63.2313 52.2718 62.1279 53.6074 61.1407 55.0012C58.5855 53.8397 55.9141 52.9106 53.359 51.8653C51.6168 51.1684 49.5843 50.065 47.6098 49.7166C47.6679 49.4262 47.7259 49.1358 47.784 48.8455C47.8421 48.3228 47.3194 47.9744 46.9129 48.3228C46.8549 48.3809 46.7968 48.3809 46.7968 48.439C46.8549 48.2648 46.9129 48.0905 46.971 47.9744C47.2614 47.9744 47.6098 47.9744 47.9582 47.9744ZM1.90685 104.827C0.571185 100.123 5.10083 96.581 8.35288 94.0258C9.22397 93.387 10.037 92.6901 10.85 91.9932C11.2565 94.1419 12.8245 96.2325 13.7536 98.0328C15.0893 100.53 16.1927 103.375 17.9348 105.64C16.8314 106.105 15.7281 106.569 14.6247 106.918C11.0242 108.079 3.35866 110.054 1.90685 104.827ZM35.2985 94.7807C38.2021 87.1152 43.6028 77.1848 40.9895 68.7643C40.9315 68.6482 40.7573 68.6482 40.7573 68.7643C40.0023 74.0489 39.4797 78.927 37.7375 84.0373C36.6341 87.1732 35.3565 90.2511 34.137 93.3289C32.511 94.2581 31.1172 96.0583 29.7816 97.2198C28.3878 98.5554 26.9941 99.775 25.7746 101.227C23.7421 102.62 21.5934 103.956 19.3286 105.06C18.4575 102.33 16.7153 99.7169 15.3216 97.2198C14.3343 95.3614 13.4052 92.8063 11.7792 91.3545C13.9278 89.6123 16.0184 87.812 18.051 85.8957C24.0324 80.3207 29.5493 74.2812 34.5435 67.7771C36.9826 64.5831 39.3635 61.273 41.5122 57.8467C42.7898 55.8142 44.4158 53.5493 45.6353 51.2265C45.7515 51.4007 45.8096 51.5749 45.9257 51.7491C45.8096 52.0975 45.7515 52.504 45.6353 52.8525C45.2869 54.1301 44.9965 55.4077 44.6481 56.6853C43.9512 59.4147 43.2544 62.1441 42.5575 64.8154C42.4414 65.2219 42.7898 65.7445 43.2544 65.6865C44.6481 65.5123 46.0418 65.3961 47.4356 65.2219C46.5645 67.0221 45.7515 68.8224 44.8804 70.6226C44.7062 70.9711 44.7643 71.4356 45.1708 71.6099C50.5134 74.5715 55.8561 77.5913 61.1987 80.553C61.3149 81.7144 62.186 82.7598 63.3474 83.1082C63.4636 83.1663 63.5797 83.1663 63.6958 83.1663C62.999 89.1477 63.1151 95.3034 63.057 101.343C62.9409 101.401 62.8828 101.459 62.7667 101.575C62.4763 101.459 62.1279 101.459 61.8375 101.517C61.0245 101.749 60.7922 103.027 60.8503 103.724C60.9084 104.537 61.3149 105.35 61.9537 105.931C63.3474 107.15 65.3219 106.453 66.1349 104.885C66.4833 104.13 66.5995 103.259 66.251 102.446C66.0768 102.098 65.8445 101.691 65.4961 101.517C65.2638 101.401 64.9154 101.401 64.625 101.343C64.8573 95.2453 65.3219 89.0316 64.9154 82.992C65.7865 82.6436 66.4833 81.8887 66.7156 80.9014C66.8318 80.3788 66.7737 79.7981 66.5995 79.2754C69.2127 76.9525 71.826 75.0942 75.2523 74.0489C75.7168 73.9327 75.9491 73.2359 75.5426 72.8874C74.0327 71.6679 72.8132 70.2742 71.826 68.7062C73.8004 68.9966 75.833 69.2289 77.8074 69.5192C78.3882 69.5773 78.6785 68.8805 78.4462 68.4159C76.646 65.5703 75.02 62.6086 73.5681 59.5308C72.4648 57.2079 71.7679 53.3171 69.7934 51.5168C69.7934 51.1684 69.7934 50.8199 69.7934 50.4715C76.4137 61.7376 85.1826 71.3776 94.8807 80.1465C97.3197 82.3532 99.8749 84.5019 102.372 86.5925C100.34 88.2766 99.1781 91.1222 97.9005 93.3289C96.5067 95.7099 93.9516 98.5554 93.8354 101.343C93.8354 101.459 93.8935 101.575 94.0096 101.633C93.9515 101.807 93.8935 101.982 93.8354 102.214C93.8354 102.272 93.8354 102.33 93.7773 102.33C92.4997 101.866 91.2221 101.285 89.9446 100.646C89.6542 100.53 89.4219 100.53 89.2477 100.646C89.0735 100.356 88.9573 100.007 88.667 99.7169C88.2605 99.1942 87.7959 98.7296 87.3313 98.207C86.5183 97.3359 85.7053 96.2325 84.718 95.6518C83.9631 92.9224 83.2662 90.1349 82.5113 87.4055C81.1756 82.5855 80.3045 77.2429 78.1559 72.6552C77.9817 72.3067 77.3429 72.4809 77.4009 72.8874C77.7494 77.2429 79.2592 81.5402 80.3626 85.7795C81.5241 90.193 82.6274 94.5484 83.7889 98.9619C84.6019 102.04 85.5891 105.234 86.2279 108.428C84.5438 109.067 82.9759 109.88 81.4079 110.809C81.2918 110.867 81.1756 111.041 81.1176 111.157C75.5426 112.725 69.9096 113.712 64.1604 114.061C64.1604 112.609 64.1604 111.157 64.1024 109.647C64.1024 108.718 64.2766 107.499 63.4055 106.918H63.3474C62.4763 107.499 62.6505 108.718 62.6505 109.647C62.5925 111.157 62.5925 112.609 62.5925 114.119C60.2696 114.235 57.9467 114.235 55.5657 114.061C47.3194 113.596 39.712 111.331 31.8141 109.241C31.9303 104.421 33.4982 99.3684 35.2985 94.7807ZM33.0917 187.638C29.9558 188.451 26.7037 188.916 23.4517 189.032C20.1996 189.148 16.9476 188.916 13.7536 188.335C11.5469 187.929 9.34011 187.174 7.13336 186.767C7.42372 186.419 7.71409 186.07 8.00445 185.722C8.23674 185.432 7.83023 184.909 7.4818 185.025C7.4818 185.025 7.42372 185.025 7.42372 185.083C8.64324 181.889 10.6177 179.102 13.1729 176.779C14.6828 175.385 16.4249 174.224 18.2833 173.295C19.6189 172.598 21.1869 172.249 22.5225 171.61C22.5225 171.669 22.5225 171.785 22.5225 171.843C22.5806 172.133 22.7548 172.365 23.0452 172.423C24.6131 175.269 27.9233 177.185 31.0592 178.173C34.137 179.218 40.0023 180.147 42.7317 177.708C41.9187 180.263 41.0476 182.818 40.2346 185.374C37.7956 185.722 35.4146 187 33.0917 187.638ZM89.2477 186.477C87.6797 186.187 86.1118 185.78 84.5438 185.374C83.7308 185.141 82.9759 184.793 82.279 184.677C82.3951 184.619 82.5113 184.444 82.4532 184.27C82.3371 182.005 81.2918 179.915 80.5949 177.766C80.2465 176.663 79.84 175.617 79.4915 174.514C81.7564 176.721 85.7633 177.36 88.725 177.418C91.8609 177.476 97.4359 176.895 99.2361 173.991V173.933C99.4103 174.224 99.5846 174.514 99.7588 174.804C100.049 175.211 100.746 175.095 100.746 174.514V174.456C104.23 173.295 107.599 172.249 111.373 173.411C114.8 174.456 117.181 176.895 118.807 179.915C118.226 179.973 117.645 180.147 117.006 180.379C116.658 180.496 116.658 180.96 117.006 181.076C117.064 181.076 117.122 181.134 117.18 181.134C111.722 184.328 105.856 186.477 99.4684 186.942C96.0422 187.232 92.6159 187.116 89.2477 186.477Z"></path><path d="M46.5811 30.0301C46.7553 28.9848 46.7553 27.8814 46.3488 26.9523V26.5458C46.3488 26.0231 45.5358 25.5585 45.1292 26.0812C44.0839 27.3588 44.142 29.2752 45.4196 30.3785C45.768 30.6689 46.4649 30.6108 46.5811 30.0301Z"></path><path d="M54.1887 29.3333C54.6533 29.5075 55.0017 28.9848 54.9436 28.5783C54.7694 27.5911 54.7114 26.3135 54.1306 25.4424C54.0726 25.3843 53.9564 25.3263 53.8983 25.2682C53.666 25.1521 53.4338 25.1521 53.2595 25.3263C52.04 26.6619 52.5627 28.7525 54.1887 29.3333Z"></path></svg>