<svg version="1.1" viewbox="0 0 100 100"><path d="m50 8.707c-24.852 0-45 15.996-45 35.73 0 8.043 3.3477 15.465 8.9961 21.438l-3.7383 24.121-0.003906-0.003906c-0.066406 0.4375 0.12891 0.87109 0.49609 1.1133 0.37109 0.24219 0.84766 0.24609 1.2188 0.007812l21.262-13.52c5.4219 1.7188 11.078 2.5859 16.77 2.5742 24.852 0 45-15.996 45-35.73s-20.148-35.73-45-35.73zm-20.406 29.855c2.375 0 4.5195 1.4336 5.4258 3.6289 0.91016 2.1953 0.41016 4.7227-1.2734 6.4023-1.6797 1.6797-4.207 2.1836-6.4023 1.2734-2.1953-0.91016-3.625-3.0508-3.625-5.4297 0-3.2422 2.6289-5.875 5.875-5.875zm20.406 11.75c-2.375 0-4.5195-1.4297-5.4297-3.625-0.90625-2.1953-0.40625-4.7227 1.2773-6.4023 1.6797-1.6797 4.207-2.1836 6.4023-1.2734 2.1953 0.91016 3.625 3.0508 3.625 5.4258 0 1.5586-0.61719 3.0547-1.7227 4.1562-1.1016 1.1016-2.5938 1.7188-4.1523 1.7188zm20.406 0c-2.375 0-4.5195-1.4297-5.4258-3.625-0.91016-2.1953-0.41016-4.7227 1.2734-6.4023 1.6797-1.6797 4.207-2.1836 6.4023-1.2734 2.1953 0.91016 3.625 3.0508 3.625 5.4258 0 1.5586-0.61719 3.0547-1.7188 4.1562-1.1055 1.1016-2.5977 1.7188-4.1562 1.7188z"></path></svg>