<svg version="1.1" viewbox="0 0 100 100"><path d="m64.41 34.328v-6.8672c0-3.7148-1.4766-7.2734-4.1016-9.9023-2.625-2.625-6.1875-4.0977-9.8984-4.0977h-0.91016c-7.7305 0-14 6.2656-14 14v6.8594c-3.5117 0.28125-7.0156 0.65625-10.512 1.1289v-8c0.011719-6.5 2.6055-12.73 7.2148-17.316 4.6055-4.5859 10.848-7.1523 17.348-7.1328h0.91016c6.4844 0.007812 12.699 2.5859 17.285 7.1719 4.5859 4.5859 7.1641 10.805 7.1758 17.289v8c-3.4961-0.48047-7-0.85938-10.512-1.1328zm-46.898 11c21.473-4.0625 43.523-4.0625 65 0 2.8789 0.54688 4.957 3.0703 4.9375 6v36.883c0 2.6289-1.8672 4.8867-4.4492 5.3789l-3.3281 0.62891c-9.7852 1.8516-19.715 2.7812-29.672 2.7812-9.9492 0-19.875-0.92969-29.648-2.7812l-3.3516-0.62891c-2.5859-0.48828-4.457-2.75-4.4609-5.3789v-37.43c0.003907-2.6328 1.875-4.8906 4.4609-5.3828zm26.359 34.422c3.9414 1.5391 8.3164 1.5391 12.258 0 0.70312-0.26562 1.0547-1.0469 0.79297-1.75l-3.1914-9c2-1.5859 2.7812-4.2656 1.9414-6.6758-0.83984-2.4102-3.1133-4.0273-5.668-4.0273-2.5508 0-4.8281 1.6172-5.6641 4.0273-0.83984 2.4102-0.0625 5.0898 1.9414 6.6758l-3.1914 9c-0.26562 0.69922 0.082031 1.4805 0.78125 1.75z"></path></svg>