<svg id="Layer_1" version="1.1" viewbox="0 0 1080 392" x="0px" xml:space="preserve" y="0px"><g><path class="st0" d="M509,248c17.7-18.4,27.3-41.4,24.4-64.4c-5.6-44.5-56.1-71.8-112.8-61s-98.1,55.7-92.5,100.2
		c1.1,8.9,4.1,17.2,8.5,24.6" fill="#FFFFFF"></path><path d="M509,248c0,0,1-1.2,2.8-3.3c0.9-1.1,2-2.5,3.2-4.2c1.2-1.7,2.6-3.6,4-5.9c2.8-4.5,5.9-10.1,8.5-17
		c1.2-3.4,2.4-7.2,3.1-11.2c0.2-1,0.4-2,0.5-3c0.1-1,0.3-2.1,0.4-3.1c0.1-1.1,0.2-2.1,0.3-3.2c0.1-1.1,0.1-2.2,0.1-3.3
		c0-0.6,0-1.1,0-1.7c0-0.6-0.1-1.1-0.1-1.7c-0.1-1.1-0.1-2.3-0.2-3.4c-0.1-0.6-0.1-1.1-0.2-1.7l-0.1-0.9l0-0.4l-0.1-0.4
		c-0.2-1.2-0.4-2.4-0.7-3.6c-1-4.5-2.5-9.3-4.7-13.8c-4.4-9.1-11.3-17.4-20.1-24.1c-4.4-3.3-9.2-6.2-14.3-8.7
		c-5.1-2.4-10.6-4.4-16.2-6c-11.2-3.1-23.2-4.3-35-3.7c-5.9,0.2-11.9,0.8-17.7,1.9l-1.1,0.2l-0.1,0c-0.1,0,0,0-0.1,0l-0.3,0.1
		l-0.6,0.1l-2.2,0.5l-2.2,0.5l-2.1,0.5c-2.8,0.7-5.7,1.5-8.5,2.4c-11.2,3.6-21.7,8.5-31.1,14.5c-9.4,6.1-17.6,13.1-24.4,20.8
		c-3.4,3.9-6.3,7.9-8.9,11.9c-2.6,4.1-4.8,8.2-6.5,12.3c-3.5,8.2-5.2,16.4-5.6,23.6c-0.4,7.3,0.4,13.7,1.7,18.8
		c1.3,5.1,2.8,9,4,11.6c0.6,1.3,1.1,2.3,1.4,2.9c0.3,0.7,0.5,1,0.5,1s-0.2-0.3-0.6-0.9c-0.4-0.6-1-1.6-1.7-2.8
		c-1.4-2.5-3.4-6.3-5-11.4c-1.6-5.1-3-11.7-3-19.2c-0.1-3.8,0.3-7.8,1-12c0.7-4.2,1.9-8.5,3.5-12.9c3.2-8.8,8.3-17.7,15.1-26.1
		c6.8-8.3,15.2-16,25-22.5c4.9-3.2,10-6.2,15.4-8.9c5.4-2.6,11.1-5,16.9-6.9c2.9-0.9,5.9-1.8,8.9-2.6l2.3-0.6l2.2-0.5l2.2-0.5
		l0.6-0.1l0.3-0.1l0.3-0.1l1.1-0.2c6.1-1.2,12.3-1.9,18.6-2.1c12.5-0.5,25.1,0.9,37,4.2c11.9,3.3,23.1,8.9,32.4,16.2
		c9.4,7.3,16.6,16.7,21,26.6c2.2,5,3.7,10,4.6,15.2c0.2,1.2,0.3,2.4,0.5,3.6l0.1,0.5l0,0.5l0.1,0.9c0,0.6,0.1,1.2,0.1,1.8
		c0.1,1.2,0.1,2.4,0.1,3.6c0,0.6,0,1.2,0,1.8c0,0.6-0.1,1.2-0.1,1.8c-0.1,1.2-0.1,2.3-0.3,3.5c-0.1,1.1-0.3,2.3-0.4,3.4
		c-0.4,2.2-0.7,4.4-1.3,6.4c-1,4.1-2.4,7.9-3.9,11.4c-3,6.9-6.6,12.5-9.7,16.8c-1.6,2.2-3.1,4-4.5,5.6c-1.4,1.5-2.6,2.9-3.6,3.9
		C510.1,247,509,248,509,248z"></path></g><g><g><path class="st0" d="M855.6,204.6c0,0-141.9-104.4-240.7-33s-226.8,58.1-310,51.7c-83.2-6.4-178-13.6-232,54.5" fill="#FFFFFF"></path><path d="M855.6,204.6c0,0-2.6-1.9-7.8-5.1c-5.1-3.3-12.7-7.9-22.7-13.3c-9.9-5.4-22.3-11.5-36.8-17.5
			c-14.6-5.9-31.4-11.6-50.3-15.6c-18.9-3.9-39.9-5.9-61.7-3.1c-10.9,1.4-21.9,4.2-32.5,8.5c-5.3,2.1-10.5,4.7-15.6,7.6
			c-2.6,1.4-5,3-7.5,4.6c-1.2,0.8-2.4,1.7-3.6,2.5c-1.2,0.9-2.5,1.8-3.7,2.6c-20,14.2-42.8,25.9-67,34.5
			c-24.3,8.6-49.9,14.2-75.8,17.5c-25.9,3.2-52,4-77.6,3.5c-25.6-0.5-50.7-2.4-74.9-4.4c-12.1-1-24-1.9-35.6-2.9
			c-11.6-0.9-23-1.6-34.1-2.1c-22.2-0.9-43.2-0.7-62.4,1.3c-19.2,2-36.6,5.9-51.3,11.3c-14.8,5.4-26.7,12.3-35.9,18.9
			c-9.1,6.6-15.5,12.9-19.6,17.3c-2.1,2.2-3.6,4-4.6,5.2c-1,1.2-1.5,1.8-1.5,1.8s0.5-0.6,1.5-1.9c1-1.2,2.4-3,4.4-5.3
			c4-4.5,10.1-11.1,19.2-18c9-6.9,21-14.2,35.8-20c7.4-2.9,15.5-5.5,24.1-7.6c8.7-2.1,17.9-3.8,27.6-5c9.7-1.2,19.9-2,30.4-2.4
			c10.5-0.4,21.4-0.3,32.6,0c22.3,0.6,45.8,2.4,70,4.2c24.2,1.8,49.2,3.5,74.6,3.9c25.4,0.4,51.2-0.5,76.8-3.6
			c25.5-3.1,50.8-8.6,74.6-17c23.8-8.4,46.2-19.6,66-33.4c1.2-0.9,2.5-1.7,3.7-2.6c1.3-0.9,2.5-1.7,3.8-2.6c2.6-1.6,5.2-3.3,7.8-4.7
			c5.3-3,10.7-5.6,16.3-7.7c11.1-4.3,22.5-7,33.7-8.3c5.6-0.7,11.2-1,16.6-1.1c5.5-0.1,10.9,0.1,16.1,0.5
			c10.5,0.8,20.6,2.5,30.2,4.7c19.1,4.3,35.9,10.6,50.5,16.9c14.5,6.3,26.7,12.8,36.6,18.5c9.9,5.6,17.3,10.6,22.3,14
			C853.1,202.6,855.6,204.6,855.6,204.6z"></path></g><g><path class="st0" d="M162.6,266.8c0,0,138.1-130,252.7-66.1s249.3,33.3,337.3,15.8s188.2-37.4,254.4,28.8" fill="none"></path><path d="M162.6,266.8c0,0,2.5-2.4,7.4-6.7c4.9-4.3,12.2-10.5,22-17.8c9.8-7.3,22-15.8,36.6-24.4c14.7-8.6,31.8-17.5,51.7-24.6
			c9.9-3.5,20.5-6.6,31.6-8.9c5.6-1.2,11.3-2,17.1-2.7c5.8-0.6,11.8-1,17.9-1c12.1,0,24.7,1.4,37,4.6c6.2,1.6,12.3,3.7,18.4,6.2
			c3,1.2,6,2.7,9,4.1c1.5,0.8,2.9,1.5,4.4,2.3c1.4,0.8,2.9,1.5,4.3,2.3c22.8,12.2,48.1,21.4,74.6,27.4c26.5,6,54.2,8.6,81.8,8.7
			c27.7,0.1,55.3-2.2,82.4-5.9c27.1-3.7,53.5-8.7,79.1-13.8c25.6-5,50.4-9.9,74.2-13.5c11.9-1.8,23.5-3.2,34.8-4.2
			c11.3-0.9,22.2-1.4,32.7-1.4c10.5,0.1,20.6,0.7,30.1,1.8c9.5,1.2,18.5,2.9,26.7,5.1c16.5,4.3,30.2,10.6,40.7,16.9
			c10.5,6.2,17.9,12.5,22.8,16.9c2.4,2.2,4.2,3.9,5.4,5.1c1.2,1.2,1.8,1.8,1.8,1.8s-0.6-0.6-1.9-1.7c-1.2-1.2-3.1-2.8-5.6-4.9
			c-5-4.2-12.6-10.1-23.1-16.1c-10.6-5.9-24.2-11.8-40.6-15.7c-16.4-3.9-35.5-5.8-56.2-5.6c-20.8,0.3-43.2,2.7-66.8,6.5
			c-11.8,1.9-23.8,4.2-36.1,6.6c-12.3,2.5-24.9,5-37.7,7.6c-25.6,5.2-52.1,10.6-79.4,14.3c-27.2,3.8-55.2,6.3-83.3,6.1
			c-28-0.2-56.1-2.9-83.1-9.1c-27-6.1-52.7-15.8-75.9-28.5c-1.4-0.8-2.9-1.6-4.3-2.3c-1.4-0.8-2.8-1.5-4.2-2.3
			c-2.9-1.4-5.7-2.8-8.6-4c-5.8-2.5-11.7-4.6-17.6-6.2c-11.9-3.2-24-4.8-35.8-4.9c-5.9-0.1-11.7,0.2-17.4,0.7
			c-5.7,0.6-11.3,1.3-16.8,2.3c-11,2-21.4,4.9-31.2,8.2c-19.6,6.7-36.9,15-51.7,23.2c-14.8,8.2-27.1,16.4-37,23.4
			c-9.9,7.1-17.5,13-22.5,17.1C165.2,264.4,162.6,266.8,162.6,266.8z"></path></g></g><g><path class="st0" d="M324.8,151.7c0,0-13.1-21.1-44.1-34.2" fill="none"></path><path d="M324.5,151.9c0,0-0.1-0.2-0.4-0.5c-0.3-0.3-0.7-0.7-1.2-1.3c-0.5-0.5-1.2-1.2-1.9-2c-0.7-0.8-1.6-1.6-2.6-2.5
		c-1-0.9-2-1.8-3.2-2.8c-1.2-0.9-2.3-2-3.7-2.9c-1.3-1-2.7-2-4-3c-1.3-1-2.8-1.9-4.2-2.9c-1.4-0.9-3-1.7-4.4-2.5
		c-1.5-0.8-3-1.5-4.4-2.3c-1.4-0.8-2.7-1.7-3.8-2.6c-0.3-0.2-0.6-0.4-0.9-0.7c-0.3-0.2-0.6-0.4-0.9-0.6c-0.6-0.4-1.1-0.8-1.6-1.3
		c-1-0.8-1.9-1.7-2.8-2.4c-0.8-0.7-1.5-1.4-2.1-2c-0.6-0.6-1-1.1-1.3-1.4c-0.3-0.3-0.5-0.5-0.5-0.5l0,0c-0.2-0.2-0.1-0.5,0.1-0.6
		c0.1-0.1,0.2-0.1,0.2-0.1c0,0,0.2,0,0.7,0c0.5,0,1.1,0,1.9,0.1c0.8,0.1,1.8,0.2,3,0.3c1.1,0.2,2.4,0.5,3.7,0.9
		c1.3,0.4,2.8,0.8,4.2,1.5c1.4,0.6,3,1.3,4.4,2.3c1.4,1,2.8,2.1,4.2,3.2c1.3,1.2,2.7,2.4,4.1,3.6c1.3,1.3,2.7,2.4,4,3.7
		c1.3,1.2,2.5,2.5,3.6,3.8c2.3,2.5,4.2,5,5.8,7.2c1.6,2.2,2.7,4.1,3.5,5.5c0.4,0.7,0.7,1.2,0.9,1.6c0.2,0.4,0.3,0.6,0.3,0.6
		c0.1,0.2,0,0.4-0.2,0.5C324.8,152.1,324.6,152,324.5,151.9L324.5,151.9z"></path></g><g><path class="st0" d="M359.8,124.4c0,0-18.3-16.9-25.3-49.7" fill="none"></path><path d="M359.6,124.7c0,0-0.2-0.1-0.5-0.4c-0.3-0.3-0.8-0.7-1.4-1.2c-1.2-1-2.9-2.5-4.7-4.5c-1.9-2-4-4.3-6-7.1
		c-1.1-1.3-2.1-2.8-3.1-4.3c-1-1.5-1.9-3.1-2.9-4.6c-0.9-1.6-1.8-3.2-2.8-4.7c-0.9-1.6-1.7-3.2-2.4-4.7c-0.6-1.6-1-3.2-1.4-4.8
		c-0.4-1.5-0.5-3-0.7-4.4c-0.1-1.4-0.2-2.6-0.2-3.8c0-1.1,0.1-2.1,0.2-3c0.1-0.8,0.2-1.5,0.3-1.9c0.1-0.4,0.1-0.7,0.1-0.7
		c0.1-0.2,0.3-0.4,0.5-0.3c0.1,0,0.2,0.1,0.2,0.1l0,0c0,0,0.2,0.2,0.4,0.5c0.3,0.4,0.7,0.9,1.1,1.6c0.5,0.7,1,1.5,1.5,2.4
		c0.5,1,1.2,2,1.8,3.2c0.3,0.6,0.6,1.2,0.9,1.8c0.1,0.3,0.3,0.6,0.4,1c0.2,0.3,0.3,0.6,0.5,1c0.7,1.3,1.3,2.7,1.8,4.2
		c0.6,1.5,1,3.1,1.5,4.7c0.5,1.6,1,3.3,1.7,4.8c0.7,1.6,1.3,3.2,2,4.7c0.7,1.5,1.4,3.1,2.2,4.5c0.7,1.5,1.5,2.8,2.2,4.1
		c0.7,1.3,1.4,2.5,2.1,3.6c0.7,1.1,1.3,2.1,1.9,3c0.6,0.9,1.1,1.6,1.6,2.3c0.5,0.6,0.8,1.1,1.1,1.4c0.3,0.3,0.4,0.5,0.4,0.5l0,0
		c0.1,0.2,0.1,0.4-0.1,0.6C359.9,124.8,359.7,124.8,359.6,124.7z"></path></g><g><path class="st0" d="M520.8,127.2c0,0,16.1-9.4,27.1-33.5" fill="none"></path><path d="M520.6,127c0,0,0.5-0.4,1.4-1.2c0.4-0.4,1-0.9,1.6-1.5c0.6-0.6,1.2-1.2,1.9-2c0.7-0.7,1.4-1.5,2.2-2.4
		c0.7-0.9,1.5-1.8,2.3-2.8c0.8-1,1.5-2,2.3-3.1c0.8-1,1.5-2.2,2.3-3.2c0.7-1.1,1.4-2.3,2-3.4c0.6-1.2,1.2-2.3,1.9-3.3
		c0.6-1.1,1.3-2,2.1-2.9c0.7-0.9,1.3-1.8,2-2.5c0.6-0.8,1.3-1.5,1.9-2.1c0.6-0.6,1.1-1.2,1.6-1.6c0.9-0.9,1.5-1.3,1.5-1.3l0,0
		c0.2-0.1,0.4-0.1,0.5,0.1c0,0.1,0.1,0.1,0.1,0.2c0,0,0,0.8-0.1,2c-0.1,0.6-0.2,1.4-0.3,2.3c-0.1,0.9-0.4,1.8-0.8,2.8
		c-0.3,1-0.7,2.1-1.2,3.2c-0.5,1.1-1.1,2.2-1.8,3.4c-0.8,1.1-1.6,2.1-2.6,3.2c-1,1-1.9,2.1-2.9,3.1c-1,1-1.9,2.1-2.9,3
		c-1,1-2,1.9-3,2.7c-1,0.9-2,1.7-2.9,2.4c-0.9,0.7-1.9,1.4-2.7,2c-1.7,1.2-3.2,2.1-4.3,2.6c-1.1,0.6-1.7,0.8-1.7,0.8
		c-0.2,0.1-0.3,0-0.4-0.2C520.5,127.2,520.5,127.1,520.6,127z"></path></g><g><path class="st0" d="M546.3,160.2c0,0,16.3-4.8,27.5-17" fill="none"></path><path d="M546.3,160c0,0,0.5-0.2,1.3-0.6c0.8-0.4,1.9-0.9,3.3-1.7c1.3-0.7,2.9-1.6,4.5-2.6c1.6-1,3.3-2.1,4.9-3.2
		c0.4-0.3,0.8-0.6,1.2-0.9c0.4-0.3,0.8-0.6,1.1-1c0.8-0.6,1.5-1.3,2.2-1.8c0.7-0.5,1.5-1,2.2-1.5c0.7-0.4,1.4-0.9,2.1-1.3
		c0.6-0.4,1.3-0.7,1.8-1c0.5-0.3,1-0.6,1.5-0.8c0.8-0.4,1.4-0.6,1.4-0.6l0,0c0.1,0,0.3,0,0.3,0.1c0,0.1,0,0.1,0,0.2
		c0,0-0.2,0.5-0.6,1.4c-0.2,0.4-0.5,1-0.8,1.5c-0.3,0.6-0.8,1.2-1.3,1.8c-0.5,0.7-1.1,1.3-1.7,1.9c-0.6,0.7-1.3,1.3-2.2,1.9
		c-0.8,0.6-1.7,1.1-2.6,1.6c-0.9,0.5-1.9,1-2.8,1.4c-0.9,0.5-1.9,0.9-2.8,1.4c-0.9,0.4-1.9,0.8-2.8,1.2c-0.9,0.3-1.8,0.7-2.6,1
		c-0.8,0.3-1.6,0.5-2.4,0.8c-1.5,0.4-2.7,0.8-3.6,1c-0.9,0.2-1.4,0.3-1.4,0.3c-0.1,0-0.2-0.1-0.3-0.2
		C546.1,160.1,546.2,160,546.3,160z"></path></g><g><path class="st0" d="M409.3,113.6c0,0,9.4-33.1-13.6-65.8" fill="none"></path><path d="M408.7,113.4c0,0,0-0.3,0.1-0.8c0-0.5,0.1-1.2,0.1-2.2c0-0.9,0-2.1,0-3.4c0-0.6,0-1.3,0-2.1c0-0.7-0.1-1.5-0.1-2.3
		c0-1.6-0.3-3.3-0.4-5.1c-0.3-1.8-0.4-3.7-0.8-5.6c-0.2-1-0.4-1.9-0.6-2.9c-0.2-1-0.4-2-0.7-3c-0.2-1-0.4-2-0.7-3
		c-0.3-1-0.6-2-0.9-2.9l-0.4-1.5c-0.2-0.5-0.4-1-0.6-1.4c-0.4-0.9-0.8-1.9-1.2-2.8c-0.4-0.9-0.9-1.8-1.3-2.7
		c-0.4-0.9-0.8-1.8-1.1-2.6c-0.3-0.9-0.6-1.7-0.9-2.6c-0.3-0.9-0.5-1.7-0.8-2.6c-0.4-1.7-0.9-3.3-1.3-4.8c-0.2-0.8-0.3-1.5-0.5-2.2
		c-0.1-0.4-0.1-0.7-0.2-1.1c-0.1-0.3-0.2-0.7-0.2-1c-0.3-1.3-0.5-2.5-0.6-3.5c-0.1-1-0.2-1.8-0.3-2.4c0-0.6,0-0.9,0-0.9l0,0
		c0-0.4,0.3-0.7,0.7-0.7c0.1,0,0.2,0,0.3,0.1c0,0,0.3,0.1,0.8,0.4c0.5,0.3,1.2,0.7,2.1,1.3c0.9,0.6,1.9,1.3,3,2.3
		c0.6,0.4,1.1,1,1.7,1.6c0.5,0.6,1.1,1.2,1.7,1.9c1.1,1.3,2.4,2.8,3.4,4.5c0.5,0.9,1,1.7,1.5,2.7c0.5,0.9,1,1.9,1.3,2.9
		c0.7,2.1,1.2,4.3,1.5,6.5c0.1,1.1,0.3,2.3,0.4,3.4l0.2,1.7l0.2,1.7c0.1,1.1,0.2,2.3,0.4,3.4c0.1,1.1,0.1,2.3,0.2,3.4
		c0,1.1,0.1,2.2,0.1,3.3c0,1.1-0.1,2.2-0.1,3.2c0,1.1-0.1,2.1-0.2,3.1c-0.1,1-0.2,2-0.3,3c-0.3,1.9-0.5,3.7-0.9,5.4
		c-0.3,1.6-0.7,3.1-1.1,4.4c-0.4,1.3-0.7,2.4-1,3.4c-0.3,0.9-0.6,1.6-0.8,2.1c-0.2,0.5-0.3,0.7-0.3,0.7l0,0
		c-0.1,0.3-0.5,0.4-0.8,0.3C408.8,113.9,408.7,113.7,408.7,113.4z"></path></g><g><path class="st0" d="M462.4,108.7c0,0,23.5-19.4,11-51.5" fill="none"></path><path d="M462,108.3c0,0,0.6-0.7,1.4-1.9c0.4-0.6,0.9-1.4,1.5-2.3c0.6-0.9,1.1-1.9,1.7-3.1c0.6-1.1,1.2-2.4,1.7-3.7
		c0.5-1.3,1.1-2.7,1.6-4.2c0.5-1.5,0.8-3,1.2-4.6c0.3-1.6,0.6-3.1,0.7-4.7c0.1-0.8,0.1-1.6,0.1-2.4c0-0.8-0.1-1.6-0.1-2.3
		c-0.1-1.5-0.4-3-0.4-4.5c-0.1-1.4,0-2.8,0.1-4.2c0-0.3,0-0.7,0.1-1c0-0.3,0-0.7,0-1c0.1-0.7,0.1-1.3,0.2-1.9c0-1.2,0.2-2.4,0.3-3.5
		c0.1-1.1,0.3-2.1,0.4-2.9c0.1-0.8,0.2-1.5,0.4-2c0.1-0.5,0.2-0.7,0.2-0.7l0,0c0.1-0.4,0.5-0.6,0.8-0.5c0.1,0,0.1,0,0.2,0.1
		c0,0,0.2,0.1,0.6,0.5c0.4,0.3,0.9,0.8,1.6,1.4c0.7,0.6,1.3,1.4,2,2.4c0.8,1,1.4,2.1,2.1,3.4c0.6,1.3,1.3,2.8,1.7,4.4
		c0.5,1.6,0.8,3.4,0.8,5.3c0,1.9-0.3,3.8-0.7,5.7c-0.2,0.9-0.5,1.9-0.8,2.8c-0.3,0.9-0.5,1.9-0.8,2.8c-0.6,1.9-1.3,3.6-2,5.4
		c-0.8,1.7-1.7,3.3-2.6,4.8c-0.9,1.5-1.9,2.9-2.9,4.1c-1,1.3-2,2.4-3,3.4c-1,1-1.9,1.8-2.7,2.6c-0.8,0.7-1.6,1.3-2.3,1.8
		c-1.3,0.9-2.1,1.4-2.1,1.4c-0.3,0.2-0.6,0.1-0.8-0.2C461.8,108.7,461.9,108.4,462,108.3z"></path></g><path class="st1" d="M477,227.1c0,0,126.3,30.4,102.8,40.7c-23.5,10.3-135.4,44.5-49.9,63.6" fill="none" stroke="#555" stroke-width="3px"></path><path class="st1" d="M518.8,235.3c0,0,202.4,22.2,179,32.5c-23.5,10.3-144.4,26.4-59,45.5c85.4,19.1,207.3,23.5,248.4,35.2" fill="none" stroke="#555" stroke-width="3px"></path></svg>