<svg viewbox="0 0 1084 244"><path d="M439.45,197.82c-13,9.94-29.35,14-48.29,14s-40.72-5.21-63-21.78l23.67-40.24c15.15,12.78,36.46,17.75,43.56,17.75s12.07-2.13,12.07-6.86-5.92-6.63-11.84-8.52c-5.92-1.66-18.94-5.92-23.67-7.57-4.73-1.89-14.2-5-22.49-12.07s-14.91-17-14.91-34.8,9.23-31.49,18.94-39.53c9.94-8.29,26.28-14.2,48.05-14.2s44,7.81,58.23,19.65l-20.36,37.88c-12.31-10.89-30.3-15.62-38.82-15.62s-13.26,1.66-13.26,6.63c0,4.73,7.58,6.39,11.36,7.58s13.73,4,19.41,5.92,18.94,6.63,27.22,13.73,15.39,18.23,15.39,35.51C460.76,172.25,452.47,187.64,439.45,197.82Z"></path><path d="M555.63,210.79c-50.9,0-88.77-31-88.77-84.27S504.73,42,555.63,42s88.77,31.25,88.77,84.51S606.52,210.79,555.63,210.79Zm0-123.57c-21.31,0-35,15.62-35,38.11s13.73,38.11,35,38.11,34.8-15.62,34.8-38.11S576.93,87.21,555.63,87.21Z"></path><path d="M763.86,208.94H655V45.6h53.26V165.15h55.63Z"></path><path d="M911.36,45.6,849.81,208.94H797.73L736.18,45.6H793l30.77,94.69L854.55,45.6Z"></path><path d="M1037.18,208.94H918.82V45.6h116V87.74H972.08V105.5h59.18v41.9H972.08v18.94h65.1Z"></path><path d="M116,113l53.89-68.73V43h-143v95.5A71.5,71.5,0,0,0,98.37,210h0a71.5,71.5,0,0,0,71.5-71.5V113Z"></path><path d="M270.59,43.11l-74.77-.41v1.5L249.87,113H195.44l-.19,35.12h0l0,6.75A54.83,54.83,0,0,0,249.87,210h0V156l20.42-.47a56.21,56.21,0,0,0,56.52-55.9h0A56.52,56.52,0,0,0,270.59,43.11Z"></path></svg>