<svg id="Capa_1" style="enable-background:new 0 0 55 55;" version="1.1" viewbox="0 0 55 55" x="0px" xml:space="preserve" xmlns="http://www.w3.org/2000/svg" xmlns:xlink="http://www.w3.org/1999/xlink" y="0px"> <style type="text/css"> 	.st0{fill:#1B2846;} </style> <path class="st0" d="M27.8,54.6c-0.7,0-1.4,0-2.2-0.1l-0.3,0c-0.7-0.1-1.4-0.2-2.2-0.3l-0.2,0c-2.3-0.4-4.5-1.1-6.5-2.1L16.3,52 	c-0.6-0.3-1.2-0.6-1.8-1l-0.4-0.2c-0.6-0.3-1.1-0.7-1.6-1c-0.1-0.1-0.3-0.2-0.4-0.3c-0.6-0.4-1.1-0.8-1.5-1.2 	c-0.1-0.1-0.1-0.1-0.2-0.1L9,47.1l0,0l-0.3-0.3c-5.1-5.1-8-12.1-8-19.2c0-14.9,12.1-27.1,27.1-27.1c14.9,0,27.1,12.1,27.1,27.1 	c0,7.2-3,14.2-8.1,19.3l-0.3,0.3l0,0L46,47.6l-0.9,0.7c-0.1,0-0.3,0.2-0.3,0.2c-0.4,0.3-0.8,0.7-1.3,1c0,0-0.4,0.3-0.5,0.4 	c-0.5,0.3-1,0.7-1.6,1l-0.4,0.3c-0.6,0.3-1.2,0.6-1.8,0.9l-0.2,0.1c-2.1,0.9-4.2,1.6-6.5,2l-0.2,0c-0.7,0.1-1.4,0.2-2.1,0.3l-0.3,0 	C29.2,54.6,28.5,54.6,27.8,54.6z M23.4,39.3c0,1.7-0.9,3.3-2.4,4.1l-6.9,3.8l0.5,0.4c0,0,0.5,0.3,0.5,0.3c0.5,0.3,0.9,0.6,1.4,0.8 	l0.1,0.1c0.6,0.3,1.2,0.6,1.7,0.8c0.6,0.2,1.2,0.5,1.8,0.7l0.1,0c1.2,0.4,2.4,0.7,3.7,0.9c0.6,0.1,1.2,0.2,1.9,0.2l0.2,0 	c0.7,0.1,1.3,0.1,1.9,0.1c0.5,0,1.1,0,1.8-0.1l0.3,0c0.7-0.1,1.2-0.1,1.8-0.2c0.7-0.1,1.3-0.2,1.9-0.4l0.1,0 	c0.5-0.1,0.9-0.2,1.4-0.4l0.8-0.3c1-0.3,2-0.8,2.9-1.3l0.3-0.2c0.5-0.2,0.9-0.5,1.4-0.8l1-0.7L34,43.6c-1.6-0.8-2.6-2.4-2.6-4.2 	v-3.8l0.4-0.4c0.2-0.2,0.4-0.5,0.7-0.9c1-1.4,1.8-3,2.3-4.7l0.2-0.8l0.8-0.2c0.4-0.1,0.7-0.5,0.7-1v-3.4c0-0.3-0.1-0.5-0.3-0.7 	L35.7,23l0-5.8c0-0.1,0.2-2.2-1.2-3.8c-1.3-1.4-3.5-2.2-6.6-2.2c-3.1,0-5.4,0.7-6.7,2.2c-1.4,1.7-1.2,3.7-1.2,3.7l0,0.2l0,5.7 	l-0.5,0.5c-0.2,0.2-0.3,0.5-0.3,0.7v3.4c0,0.3,0.2,0.7,0.5,0.9l0.5,0.3l0.1,0.6c0.8,3.3,2.8,5.7,2.8,5.7l0.4,0.4L23.4,39.3z 	 M27.8,8.2c4.1,0,7.1,1.1,9,3.2c2.2,2.5,2,5.5,2,6.1l0,4.2l0.1,0.1c0.5,0.7,0.8,1.5,0.8,2.4v3.4c0,1.5-0.7,2.8-2,3.5l-0.1,0.1l0,0.1 	c-0.6,1.7-1.5,3.3-2.5,4.7c-0.1,0.2-0.3,0.4-0.4,0.6l-0.1,0.1v2.6c0,0.6,0.3,1.1,0.9,1.4l8.2,4.1c0.1,0.1,0.2,0.1,0.3,0.2l0.2,0.1 	l0.2-0.2c4.8-4.5,7.5-10.9,7.5-17.4c0-13.2-10.8-24-24-24c-13.2,0-24,10.8-24,24c0,6.5,2.7,12.8,7.4,17.3l0.2,0.2l0.3-0.1 	c0.1-0.1,7.8-4.2,7.8-4.2c0.5-0.3,0.8-0.8,0.8-1.4v-2.6l-0.1-0.1c-0.7-1-2.1-3.1-2.8-5.8l0-0.1l-0.1-0.1c-0.8-0.8-1.3-1.8-1.3-3 	v-3.4c0-0.9,0.3-1.7,0.8-2.4l0.1-0.1v-4.3c0-0.2-0.3-3.4,2-6C20.8,9.3,23.8,8.2,27.8,8.2z"></path> </svg>