<svg class="wp-header-logo" data-name="Layer 1" id="Layer_1" viewbox="184 222 650 338" xmlns="http://www.w3.org/2000/svg">
<polygon class="wp-logo-fill" points="473.03 222.5 371.18 222.5 565.53 559.13 565.79 558.98 616.54 471.08 473.03 222.5"></polygon>
<path class="wp-logo-fill" d="M708.05,222.5H557.46l55.32,95.81h94.59c15.5,0,28.64,12.13,29.08,27.62A28.47,28.47,0,0,1,708,375.19h-62.3L701,471h5.54c69.73,0,126.93-56.77,125.7-126.48A124.4,124.4,0,0,0,708.05,222.5Z"></path>
<polygon class="wp-logo-fill" points="286.11 222.5 184.26 222.5 378.62 559.13 378.88 558.98 429.63 471.08 286.11 222.5"></polygon>
</svg>