<svg class="drone" height="25px" id="drone_light" version="1.1" viewbox="0 0 78 78" width="25px" xmlns="http://www.w3.org/2000/svg" xmlns:xlink="http://www.w3.org/1999/xlink">
<!-- Generator: Sketch 51.2 (57519) - http://www.bohemiancoding.com/sketch -->
<title>drone</title>
<g fill="#F9FBFF" fill-rule="nonzero">
<path d="M64.3,26.1 C58.4,26.1 53.4,30.1 51.8,35.4 L51.1,35.4 C49,35.4 48.4,34.8 46.6,33.3 L45,31.7 L44.5,31.2 C43,29.5 42.4,28.8 42.4,26.7 L42.4,26.2 C47.8,24.6 51.8,19.6 51.8,13.7 C51.8,6.5 46,0.7 38.8,0.7 C31.6,0.7 25.8,6.5 25.8,13.7 C25.8,19.6 29.8,24.6 35.2,26.2 L35.2,26.7 C35.2,28.8 34.6,29.4 33.1,31.2 L31.5,32.9 L31,33.4 C29.2,35 28.6,35.5 26.5,35.5 L26,35.5 C24.4,30.1 19.4,26.2 13.5,26.2 C6.3,26.2 0.5,32 0.5,39.2 C0.5,46.4 6.3,52.2 13.5,52.2 C19.5,52.2 24.5,48.1 26,42.6 L26.4,42.6 C28.5,42.6 29.1,43.1 30.9,44.7 L32.6,46.3 L33.1,46.8 C34.6,48.5 35.2,49.2 35.2,51.3 L35.2,52 C29.8,53.6 25.8,58.6 25.8,64.5 C25.8,71.7 31.6,77.5 38.8,77.5 C46,77.5 51.8,71.7 51.8,64.5 C51.8,58.5 47.8,53.5 42.3,52 L42.3,51.3 C42.3,49.2 42.9,48.6 44.4,46.8 L46,45.1 L46.5,44.6 C48.3,43 48.9,42.5 51,42.5 L51.7,42.5 C53.2,48 58.3,52 64.2,52 C71.4,52 77.2,46.2 77.2,39 C77.2,31.8 71.5,26.1 64.3,26.1 Z M65.8,39.2 C65.8,40 65.1,40.7 64.3,40.7 C63.5,40.7 62.8,40 62.8,39.2 C62.8,38.4 63.5,37.7 64.3,37.7 C65.1,37.7 65.8,38.3 65.8,39.2 Z M62.8,29.3 L62.8,34.8 C61.5,35.3 60.5,36.3 60.1,37.5 L54.6,37.5 C55.2,33.4 58.6,30 62.8,29.3 Z M38.9,15.2 C38.1,15.2 37.4,14.5 37.4,13.7 C37.4,12.9 38.1,12.2 38.9,12.2 C39.7,12.2 40.4,12.9 40.4,13.7 C40.4,14.5 39.7,15.2 38.9,15.2 Z M40.5,23.5 L40.5,18.1 C41.8,17.6 42.8,16.6 43.2,15.4 L48.6,15.4 C47.9,19.5 44.6,22.8 40.5,23.5 Z M38.9,3.9 C43.8,3.9 47.9,7.5 48.6,12.2 L43.2,12.2 C42.6,10.4 40.9,9.2 38.9,9.2 C36.9,9.2 35.2,10.5 34.6,12.2 L29.1,12.2 C29.9,7.5 33.9,3.9 38.9,3.9 Z M29.1,15.3 L34.6,15.3 C35.1,16.6 36.1,17.6 37.3,18 L37.3,23.5 C33.1,22.9 29.8,19.6 29.1,15.3 Z M23.4,37.7 L17.9,37.7 C17.4,36.4 16.4,35.4 15.2,35 L15.2,29.5 C19.4,30.1 22.7,33.4 23.4,37.7 Z M15.1,39.2 C15.1,40 14.4,40.7 13.6,40.7 C12.8,40.7 12.1,40 12.1,39.2 C12.1,38.4 12.8,37.7 13.6,37.7 C14.4,37.7 15.1,38.4 15.1,39.2 Z M3.7,39.2 C3.7,34.3 7.3,30.2 12,29.5 L12,35 C10.2,35.6 9,37.3 9,39.3 C9,41.3 10.3,43 12,43.6 L12,49 C7.4,48.2 3.7,44.1 3.7,39.2 Z M15.2,48.9 L15.2,43.5 C16.5,43 17.5,42 17.9,40.8 L23.3,40.8 C22.7,45 19.4,48.2 15.2,48.9 Z M39,63 C39.8,63 40.5,63.7 40.5,64.5 C40.5,65.3 39.8,66 39,66 C38.2,66 37.5,65.3 37.5,64.5 C37.5,63.7 38.2,63 39,63 Z M37.4,54.7 L37.4,60.2 C36.1,60.7 35.1,61.7 34.7,62.9 L29.2,62.9 C29.8,58.7 33.2,55.4 37.4,54.7 Z M38.9,74.4 C34,74.4 29.9,70.8 29.2,66.1 L34.7,66.1 C35.3,67.9 37,69.1 39,69.1 C41,69.1 42.7,67.8 43.3,66.1 L48.7,66.1 C47.9,70.7 43.8,74.4 38.9,74.4 Z M48.7,62.9 L43.3,62.9 C42.8,61.6 41.8,60.6 40.6,60.2 L40.6,54.8 C44.7,55.4 48,58.7 48.7,62.9 Z M44.6,42.3 L42.6,44.2 L42.1,44.7 C40.4,46.6 39.3,48 39.3,51.2 C39.2,51.2 39.1,51.1 39,51.1 C38.8,51.1 38.6,51.1 38.4,51.2 L38.4,51.1 C38.4,47.8 37.2,46.5 35.6,44.6 L33.7,42.6 L33.2,42.1 C31.4,40.5 30,39.3 26.9,39.3 C26.9,39.2 27,39.1 27,39 C27,38.8 26.9,38.5 26.8,38.3 C30,38.3 31.3,37.1 33.2,35.5 L35.2,33.6 L35.7,33.1 C37.3,31.2 38.5,29.9 38.5,26.7 C38.7,26.8 38.8,26.8 39,26.8 C39.1,26.8 39.3,26.8 39.4,26.7 C39.5,29.8 40.6,31.2 42.2,33 L44.1,35 L44.6,35.5 C46.5,37.2 47.9,38.3 51.1,38.3 L51.2,38.3 C51.1,38.5 51.1,38.7 51.1,38.9 C51.1,39 51.1,39.1 51.2,39.2 C47.9,39.5 46.5,40.7 44.6,42.3 Z M54.6,40.7 L60,40.7 C60.5,42 61.5,43 62.7,43.4 L62.7,48.8 C58.6,48.2 55.3,44.9 54.6,40.7 Z M65.9,48.8 L65.9,43.4 C67.7,42.8 68.9,41.1 68.9,39.1 C68.9,37.1 67.6,35.4 65.9,34.8 L65.9,29.3 C70.6,30.1 74.2,34.1 74.2,39 C74.2,43.9 70.6,48.1 65.9,48.8 Z" id="Shape">
</path>
</g>
</svg>