<svg alt="Avion Logo" class="avion-logo" role="img" viewbox="0 0 1641.27 506.39" xmlns="http://www.w3.org/2000/svg"><path d="M459.84 55.17l110.76 230 109.34-230h79.52L603.26 382.48 570.6 451.35l-33.37-68.87L380.32 55.17zm-79.52.0h0z"></path><path d="M866.85 54.93V451.35H794.43V54.93zm-72.42-.31h0z"></path><path d="M1248.33 110.15c36.55 36.55 57.82 84.4 57.82 139.56s-21.27 103-57.82 139.56-84.4 57.82-139.56 57.82-103-21.26-139.57-57.82-57.82-84.4-57.82-139.56 21.27-103 57.82-139.56 84.4-57.82 139.57-57.82S1211.78 73.6 1248.33 110.15zm-139.56 10c-35.23.0-67.13 14.62-91 38.54s-38.55 55.83-38.55 91.05c0 36.55 14.62 67.79 38.55 91.71a129.15 129.15.0 0 0 91 37.89c36.55.0 67.78-14 91.71-37.89s37.88-55.16 37.88-91.71a129.22 129.22.0 0 0-37.88-91.05C1176.55 134.74 1145.32 120.12 1108.77 120.12z"></path><path d="M1641.27 54.93v395l-63.19-66L1428.26 229.83V451.22h-72.42V52.33l63.19 66 149.82 154.07V54.93zm-72.42.0h0z"></path><path d="M274.25.0V370.08L515.64 506.39zm45.42 191.36 98.72 207.1-98.72-55.75z"></path><path d="M0 506.39 241.39 370.08V0zM196 342.71 97.26 398.46 196 191.36z"></path></svg>