<svg data-v-30fdc9a4="" data-v-5f725a8d="" fill="none" viewbox="0 0 83 29" xmlns="http://www.w3.org/2000/svg"><path d="M58.4664 0.0030367C58.4664 0.154723 58.4816 0.30641 58.4816 0.458097C58.4816 4.55263 58.4816 8.64564 58.4816 12.7371V13.1361L58.5544 13.1558C58.6196 13.0663 58.6864 12.9783 58.7485 12.8873C60.0075 11.0479 61.265 9.20689 62.521 7.3644C62.5758 7.26486 62.6583 7.18328 62.7584 7.12946C62.8585 7.07564 62.972 7.05188 63.0853 7.06102C64.5839 7.07619 66.0841 7.06861 67.6526 7.06861C67.5676 7.20209 67.516 7.29614 67.4523 7.3826C65.896 9.52442 64.3428 11.6693 62.7728 13.802C62.5847 14.0583 62.5665 14.2146 62.7728 14.4815C64.414 16.6491 66.0341 18.8319 67.6586 21.0041C67.6935 21.0496 67.7254 21.0966 67.7906 21.1876C67.6389 21.1967 67.5358 21.2088 67.4281 21.2088C66.0629 21.2088 64.7083 21.2088 63.3477 21.2088C63.2405 21.2182 63.1329 21.1976 63.0368 21.1494C62.9406 21.1012 62.8597 21.0273 62.8031 20.9358C61.4637 19.0655 60.1122 17.2043 58.7652 15.3416C58.6985 15.2491 58.6272 15.1611 58.5058 15.0033V21.1861H54.2677C54.2677 21.0663 54.2495 20.9434 54.2495 20.822C54.2495 13.9961 54.2495 7.17024 54.2495 0.344332C54.2495 0.230567 54.2692 0.115282 54.2799 0L58.4664 0.0030367Z" data-v-30fdc9a4="" fill="white"></path> <path d="M0 18.213C0.808996 17.7661 1.61799 17.3181 2.42699 16.8691C2.83199 16.6446 3.23245 16.414 3.64048 16.1744C3.67529 16.2227 3.70671 16.2734 3.73453 16.3261C4.32611 17.8429 5.85814 17.9946 6.98669 17.6912C7.14984 17.6611 7.29821 17.5772 7.40816 17.4529C7.51812 17.3287 7.58334 17.1712 7.59344 17.0056C7.61923 16.64 7.36136 16.4398 7.07771 16.3382C6.34809 16.0758 5.60634 15.8513 4.8646 15.6222C3.86498 15.3113 2.87902 14.976 2.04322 14.3147C0.964728 13.4622 0.559724 12.323 0.655287 10.9912C0.799389 9.00717 1.89457 7.71783 3.72998 7.0944C5.89758 6.35872 8.00451 6.5104 9.94914 7.80884C10.6657 8.29933 11.2603 8.94742 11.6875 9.70341L8.10311 11.6556C7.99996 11.5039 7.9044 11.3659 7.79974 11.2279C7.55908 10.8962 7.22176 10.647 6.83399 10.5145C6.44622 10.382 6.02696 10.3726 5.63365 10.4876C5.31966 10.5786 5.06027 10.744 5.01477 11.1141C4.96926 11.4842 5.19072 11.7011 5.48651 11.8043C6.20551 12.0546 6.94726 12.2442 7.66625 12.4975C8.42708 12.7382 9.17056 13.0306 9.8915 13.3727C12.6947 14.8122 12.5111 18.9851 10.1949 20.502C9.12093 21.2058 7.93929 21.5153 6.68484 21.6002C5.43055 21.7063 4.16855 21.5258 2.9943 21.0723C1.80234 20.6087 0.811579 19.7404 0.195676 18.6196C0.141069 18.524 0.0667423 18.4375 0.00303381 18.3465L0 18.213Z" data-v-30fdc9a4="" fill="white"></path> <path d="M51.1399 0.00304423V21.0875C51.1366 21.1197 51.131 21.1516 51.1232 21.1831H46.8896V0.456586C46.8896 0.304899 46.8896 0.153213 46.8896 0.00152588L51.1399 0.00304423Z" data-v-30fdc9a4="" fill="white"></path> <path d="M42.0686 0.00302124C42.7012 0.186562 43.2821 0.444431 43.6917 0.999605C44.0181 1.43052 44.1991 1.95403 44.2086 2.49454C44.2181 3.03506 44.0555 3.5646 43.7444 4.0067C43.4333 4.44881 42.9898 4.78059 42.4778 4.95415C41.9658 5.12771 41.4119 5.13405 40.8961 4.97228C40.3813 4.81479 39.9312 4.49492 39.6132 4.06047C39.2953 3.62602 39.1264 3.10033 39.132 2.56198C39.1289 2.01821 39.3004 1.48781 39.6213 1.04876C39.9421 0.609705 40.3953 0.285168 40.9143 0.122855C41.022 0.0879671 41.1251 0.0439767 41.2313 0.00302124H42.0686Z" data-v-30fdc9a4="" fill="white"></path> <path d="M34.7441 0.00302124C35.2901 0.171394 35.8059 0.385272 36.2018 0.828198C36.5742 1.2404 36.8019 1.76288 36.8503 2.31627C36.8987 2.86966 36.7651 3.42373 36.4699 3.89431C36.1747 4.3649 35.734 4.72629 35.2147 4.92358C34.6955 5.12088 34.126 5.1433 33.5928 4.98745C33.0646 4.83306 32.6011 4.51067 32.2726 4.06914C31.9441 3.62762 31.7686 3.09103 31.7725 2.54074C31.7831 1.97929 31.9751 1.43635 32.3199 0.993119C32.6647 0.549892 33.1437 0.230211 33.6853 0.0818967C33.7611 0.0606606 33.837 0.0303249 33.9068 0.00302124H34.7441Z" data-v-30fdc9a4="" fill="white"></path> <path d="M18.8302 20.0454V28.5186H14.6133V7.09439H18.8211V8.36856C18.9424 8.26844 19.0122 8.21687 19.0714 8.15923C20.0239 7.20967 21.2041 6.79405 22.5192 6.70303C26.2552 6.43606 29.0417 9.24227 29.6485 12.5718C30.0884 14.9988 29.6106 17.2347 28.0527 19.1914C26.2325 21.4758 22.9743 22.2919 20.4214 21.0754C19.8586 20.8099 19.3702 20.4019 18.8302 20.0454ZM25.5438 13.6397C25.5332 12.8403 25.0888 11.7178 23.8404 11.0959C22.592 10.474 21.3345 10.5225 20.1756 11.3143C19.1457 12.0197 18.8105 13.083 18.8347 14.2889C18.8893 16.5081 20.5624 17.9036 22.8195 17.5441C24.5548 17.268 25.5347 15.9908 25.5438 13.6397Z" data-v-30fdc9a4="" fill="white"></path> <path d="M78.785 8.35946V7.09287H83.0004V21.1997H78.7774V19.9529C78.5423 20.1637 78.3663 20.3412 78.1707 20.4929C76.9572 21.4455 75.5419 21.7291 74.0387 21.6032C70.8412 21.3363 68.4597 18.7121 67.9485 15.6268C67.5571 13.2787 68.0092 11.1202 69.4836 9.22711C70.3659 8.06569 71.6169 7.23878 73.0312 6.88211C74.4455 6.52544 75.939 6.6602 77.2666 7.26428C77.5383 7.39495 77.7969 7.55139 78.0387 7.73147C78.2829 7.89984 78.4968 8.11069 78.785 8.35946ZM78.7774 14.1645C78.7774 12.5946 78.0311 11.4144 76.7205 10.9275C75.3235 10.4072 73.7369 10.7758 72.8374 11.8376C72.2306 12.546 72.0471 13.3909 72.0698 14.3025C72.1229 16.5035 73.8021 17.9172 76.0622 17.5441C77.8006 17.2544 78.7774 15.9878 78.7774 14.1645Z" data-v-30fdc9a4="" fill="white"></path> <path d="M43.7723 21.2058H39.5781V7.09894H43.7723V21.2058Z" data-v-30fdc9a4="" fill="white"></path> <path d="M36.4051 21.1982H32.2246V7.09137H36.4051V21.1982Z" data-v-30fdc9a4="" fill="white"></path></svg>