<svg data-v-4611290e="" fill="none" height="64" viewbox="0 0 237 64" width="237" xmlns="http://www.w3.org/2000/svg"><path d="M15.328 6.57599C15.328 7.55199 15.104 8.44799 14.656 9.26399C14.208 10.064 13.52 10.712 12.592 11.208C11.664 11.704 10.512 11.952 9.136 11.952H6.592V18H2.488V1.15199H9.136C10.48 1.15199 11.616 1.38399 12.544 1.84799C13.472 2.31199 14.168 2.95199 14.632 3.76799C15.096 4.58399 15.328 5.51999 15.328 6.57599ZM8.824 8.68799C9.608 8.68799 10.192 8.50399 10.576 8.13599C10.96 7.76799 11.152 7.24799 11.152 6.57599C11.152 5.90399 10.96 5.38399 10.576 5.01599C10.192 4.64799 9.608 4.46399 8.824 4.46399H6.592V8.68799H8.824Z" data-v-4611290e="" fill="black"></path> <path d="M16.6486 11.28C16.6486 9.90399 16.9046 8.69599 17.4166 7.65599C17.9446 6.61599 18.6566 5.81599 19.5526 5.25599C20.4486 4.69599 21.4486 4.41599 22.5526 4.41599C23.4966 4.41599 24.3206 4.60799 25.0246 4.99199C25.7446 5.37599 26.2966 5.87999 26.6806 6.50399V4.60799H30.7846V18H26.6806V16.104C26.2806 16.728 25.7206 17.232 25.0006 17.616C24.2966 18 23.4726 18.192 22.5286 18.192C21.4406 18.192 20.4486 17.912 19.5526 17.352C18.6566 16.776 17.9446 15.968 17.4166 14.928C16.9046 13.872 16.6486 12.656 16.6486 11.28ZM26.6806 11.304C26.6806 10.28 26.3926 9.47199 25.8166 8.87999C25.2566 8.28799 24.5686 7.99199 23.7526 7.99199C22.9366 7.99199 22.2406 8.28799 21.6646 8.87999C21.1046 9.45599 20.8246 10.256 20.8246 11.28C20.8246 12.304 21.1046 13.12 21.6646 13.728C22.2406 14.32 22.9366 14.616 23.7526 14.616C24.5686 14.616 25.2566 14.32 25.8166 13.728C26.3926 13.136 26.6806 12.328 26.6806 11.304Z" data-v-4611290e="" fill="black"></path> <path d="M37.8576 6.50399C38.2416 5.87999 38.7936 5.37599 39.5136 4.99199C40.2336 4.60799 41.0576 4.41599 41.9856 4.41599C43.0896 4.41599 44.0896 4.69599 44.9856 5.25599C45.8816 5.81599 46.5856 6.61599 47.0976 7.65599C47.6256 8.69599 47.8896 9.90399 47.8896 11.28C47.8896 12.656 47.6256 13.872 47.0976 14.928C46.5856 15.968 45.8816 16.776 44.9856 17.352C44.0896 17.912 43.0896 18.192 41.9856 18.192C41.0416 18.192 40.2176 18.008 39.5136 17.64C38.8096 17.256 38.2576 16.752 37.8576 16.128V18H33.7536V0.23999H37.8576V6.50399ZM43.7136 11.28C43.7136 10.256 43.4256 9.45599 42.8496 8.87999C42.2896 8.28799 41.5936 7.99199 40.7616 7.99199C39.9456 7.99199 39.2496 8.28799 38.6736 8.87999C38.1136 9.47199 37.8336 10.28 37.8336 11.304C37.8336 12.328 38.1136 13.136 38.6736 13.728C39.2496 14.32 39.9456 14.616 40.7616 14.616C41.5776 14.616 42.2736 14.32 42.8496 13.728C43.4256 13.12 43.7136 12.304 43.7136 11.28Z" data-v-4611290e="" fill="black"></path> <path d="M54.1467 0.23999V18H50.0427V0.23999H54.1467Z" data-v-4611290e="" fill="black"></path> <path d="M63.2168 18.192C61.9048 18.192 60.7208 17.912 59.6648 17.352C58.6248 16.792 57.8008 15.992 57.1928 14.952C56.6008 13.912 56.3048 12.696 56.3048 11.304C56.3048 9.92799 56.6088 8.71999 57.2168 7.67999C57.8248 6.62399 58.6568 5.81599 59.7128 5.25599C60.7688 4.69599 61.9528 4.41599 63.2648 4.41599C64.5768 4.41599 65.7608 4.69599 66.8168 5.25599C67.8728 5.81599 68.7048 6.62399 69.3128 7.67999C69.9208 8.71999 70.2248 9.92799 70.2248 11.304C70.2248 12.68 69.9128 13.896 69.2888 14.952C68.6808 15.992 67.8408 16.792 66.7688 17.352C65.7128 17.912 64.5288 18.192 63.2168 18.192ZM63.2168 14.64C64.0008 14.64 64.6648 14.352 65.2088 13.776C65.7688 13.2 66.0488 12.376 66.0488 11.304C66.0488 10.232 65.7768 9.40799 65.2328 8.83199C64.7048 8.25599 64.0488 7.96799 63.2648 7.96799C62.4648 7.96799 61.8008 8.25599 61.2728 8.83199C60.7448 9.39199 60.4808 10.216 60.4808 11.304C60.4808 12.376 60.7368 13.2 61.2488 13.776C61.7768 14.352 62.4328 14.64 63.2168 14.64Z" data-v-4611290e="" fill="black"></path> <path d="M83.584 18.168C82.352 18.168 81.248 17.968 80.272 17.568C79.296 17.168 78.512 16.576 77.92 15.792C77.344 15.008 77.04 14.064 77.008 12.96H81.376C81.44 13.584 81.656 14.064 82.024 14.4C82.392 14.72 82.872 14.88 83.464 14.88C84.072 14.88 84.552 14.744 84.904 14.472C85.256 14.184 85.432 13.792 85.432 13.296C85.432 12.88 85.288 12.536 85 12.264C84.728 11.992 84.384 11.768 83.968 11.592C83.568 11.416 82.992 11.216 82.24 10.992C81.152 10.656 80.264 10.32 79.576 9.98399C78.888 9.64799 78.296 9.15199 77.8 8.49599C77.304 7.83999 77.056 6.98399 77.056 5.92799C77.056 4.35999 77.624 3.13599 78.76 2.25599C79.896 1.35999 81.376 0.91199 83.2 0.91199C85.056 0.91199 86.552 1.35999 87.688 2.25599C88.824 3.13599 89.432 4.36799 89.512 5.95199H85.072C85.04 5.40799 84.84 4.98399 84.472 4.67999C84.104 4.35999 83.632 4.19999 83.056 4.19999C82.56 4.19999 82.16 4.33599 81.856 4.60799C81.552 4.86399 81.4 5.23999 81.4 5.73599C81.4 6.27999 81.656 6.70399 82.168 7.00799C82.68 7.31199 83.48 7.63999 84.568 7.99199C85.656 8.35999 86.536 8.71199 87.208 9.04799C87.896 9.38399 88.488 9.87199 88.984 10.512C89.48 11.152 89.728 11.976 89.728 12.984C89.728 13.944 89.48 14.816 88.984 15.6C88.504 16.384 87.8 17.008 86.872 17.472C85.944 17.936 84.848 18.168 83.584 18.168Z" data-v-4611290e="" fill="black"></path> <path d="M99.7176 14.52V18H97.6296C96.1416 18 94.9816 17.64 94.1496 16.92C93.3176 16.184 92.9016 14.992 92.9016 13.344V8.01599H91.2696V4.60799H92.9016V1.34399H97.0056V4.60799H99.6936V8.01599H97.0056V13.392C97.0056 13.792 97.1016 14.08 97.2936 14.256C97.4856 14.432 97.8056 14.52 98.2536 14.52H99.7176Z" data-v-4611290e="" fill="black"></path> <path d="M101.188 11.28C101.188 9.90399 101.444 8.69599 101.956 7.65599C102.484 6.61599 103.196 5.81599 104.092 5.25599C104.988 4.69599 105.988 4.41599 107.092 4.41599C108.036 4.41599 108.86 4.60799 109.564 4.99199C110.284 5.37599 110.836 5.87999 111.22 6.50399V4.60799H115.324V18H111.22V16.104C110.82 16.728 110.26 17.232 109.54 17.616C108.836 18 108.012 18.192 107.068 18.192C105.98 18.192 104.988 17.912 104.092 17.352C103.196 16.776 102.484 15.968 101.956 14.928C101.444 13.872 101.188 12.656 101.188 11.28ZM111.22 11.304C111.22 10.28 110.932 9.47199 110.356 8.87999C109.796 8.28799 109.108 7.99199 108.292 7.99199C107.476 7.99199 106.78 8.28799 106.204 8.87999C105.644 9.45599 105.364 10.256 105.364 11.28C105.364 12.304 105.644 13.12 106.204 13.728C106.78 14.32 107.476 14.616 108.292 14.616C109.108 14.616 109.796 14.32 110.356 13.728C110.932 13.136 111.22 12.328 111.22 11.304Z" data-v-4611290e="" fill="black"></path> <path d="M126.453 4.46399C128.021 4.46399 129.269 4.97599 130.197 5.99999C131.141 7.00799 131.613 8.39999 131.613 10.176V18H127.533V10.728C127.533 9.83199 127.301 9.13599 126.837 8.63999C126.373 8.14399 125.749 7.89599 124.965 7.89599C124.181 7.89599 123.557 8.14399 123.093 8.63999C122.629 9.13599 122.397 9.83199 122.397 10.728V18H118.293V4.60799H122.397V6.38399C122.813 5.79199 123.373 5.32799 124.077 4.99199C124.781 4.63999 125.573 4.46399 126.453 4.46399Z" data-v-4611290e="" fill="black"></path> <path d="M138.569 0.23999V18H134.465V0.23999H138.569Z" data-v-4611290e="" fill="black"></path> <path d="M154.167 11.088C154.167 11.472 154.143 11.872 154.095 12.288H144.807C144.871 13.12 145.135 13.76 145.599 14.208C146.079 14.64 146.663 14.856 147.351 14.856C148.375 14.856 149.087 14.424 149.487 13.56H153.855C153.631 14.44 153.223 15.232 152.631 15.936C152.055 16.64 151.327 17.192 150.447 17.592C149.567 17.992 148.583 18.192 147.495 18.192C146.183 18.192 145.015 17.912 143.991 17.352C142.967 16.792 142.167 15.992 141.591 14.952C141.015 13.912 140.727 12.696 140.727 11.304C140.727 9.91199 141.007 8.69599 141.567 7.65599C142.143 6.61599 142.943 5.81599 143.967 5.25599C144.991 4.69599 146.167 4.41599 147.495 4.41599C148.791 4.41599 149.943 4.68799 150.951 5.23199C151.959 5.77599 152.743 6.55199 153.303 7.55999C153.879 8.56799 154.167 9.74399 154.167 11.088ZM149.967 10.008C149.967 9.30399 149.727 8.74399 149.247 8.32799C148.767 7.91199 148.167 7.70399 147.447 7.70399C146.759 7.70399 146.175 7.90399 145.695 8.30399C145.231 8.70399 144.943 9.27199 144.831 10.008H149.967Z" data-v-4611290e="" fill="black"></path> <path d="M170.012 4.60799L161.612 24.36H157.196L160.268 17.544L154.82 4.60799H159.404L162.5 12.984L165.572 4.60799H170.012Z" data-v-4611290e="" fill="black"></path> <path d="M0.953125 47.2344C0.953125 46.3281 1.17969 45.5234 1.63281 44.8203C2.08594 44.1172 2.64844 43.5078 3.32031 42.9922C3.99219 42.4609 4.71875 42.0156 5.5 41.6562C6.28125 41.2812 7.00781 40.9766 7.67969 40.7422C8.35156 40.4922 8.91406 40.2969 9.36719 40.1562C9.82031 40 10.0469 39.875 10.0469 39.7812C10.0469 39.2344 10.0156 38.7031 9.95312 38.1875C9.90625 37.6562 9.85156 37.125 9.78906 36.5937C9.72656 36.0625 9.66406 35.5391 9.60156 35.0234C9.55469 34.4922 9.53125 33.9687 9.53125 33.4531V31.9297C10.1719 31.6953 10.625 31.7187 10.8906 32C11.1719 32.2812 11.2188 32.7656 11.0312 33.4531C11.0938 33.7969 11.1797 34.3359 11.2891 35.0703C11.3984 35.8047 11.5156 36.6328 11.6406 37.5547C11.7812 38.4766 11.9219 39.4453 12.0625 40.4609C12.2188 41.4766 12.3594 42.4531 12.4844 43.3906C12.625 44.3125 12.7422 45.1406 12.8359 45.875C12.9297 46.5937 13 47.1328 13.0469 47.4922C13.0625 47.5703 13.0781 47.7266 13.0938 47.9609C13.1094 48.1797 13.1172 48.4219 13.1172 48.6875C13.1328 48.9375 13.1406 49.1719 13.1406 49.3906C13.1562 49.6094 13.1641 49.7656 13.1641 49.8594C12.5703 49.8594 12.1641 49.8359 11.9453 49.7891C11.7422 49.7422 11.6094 49.6484 11.5469 49.5078C11.5 49.3672 11.4766 49.1641 11.4766 48.8984C11.4766 48.6328 11.3984 48.2656 11.2422 47.7969C10.6641 48.25 10.1172 48.625 9.60156 48.9219C9.08594 49.2187 8.57031 49.4609 8.05469 49.6484C7.53906 49.8203 7.01562 49.9375 6.48438 50C5.96875 50.0781 5.41406 50.1172 4.82031 50.1172C4.32031 50.1172 3.83594 50.0781 3.36719 50C2.91406 49.9062 2.50781 49.75 2.14844 49.5312C1.78906 49.3125 1.5 49.0156 1.28125 48.6406C1.0625 48.2656 0.953125 47.7969 0.953125 47.2344ZM2.99219 46.7422C2.99219 46.9922 3.04688 47.1953 3.15625 47.3516C3.26562 47.5078 3.40625 47.6406 3.57812 47.75C3.75 47.8594 3.92969 47.9375 4.11719 47.9844C4.32031 48.0156 4.51562 48.0312 4.70312 48.0312C5.25 48.0312 5.83594 47.9297 6.46094 47.7266C7.10156 47.5078 7.6875 47.2109 8.21875 46.8359C8.76562 46.4453 9.21094 45.9844 9.55469 45.4531C9.91406 44.9219 10.0938 44.3437 10.0938 43.7187C10.0938 43.2344 10.0078 42.8984 9.83594 42.7109C9.66406 42.5234 9.33594 42.4297 8.85156 42.4297C8.35156 42.4297 7.76562 42.5469 7.09375 42.7812C6.4375 43.0156 5.79688 43.3281 5.17188 43.7187C4.5625 44.1094 4.04688 44.5703 3.625 45.1016C3.20312 45.6172 2.99219 46.1641 2.99219 46.7422Z" data-v-4611290e="" fill="black"></path> <path d="M14.5469 43.4844C14.5469 42.6406 14.6484 41.7969 14.8516 40.9531C15.0547 40.1094 15.375 39.3516 15.8125 38.6797C16.2656 38.0078 16.8438 37.4609 17.5469 37.0391C18.2656 36.6172 19.1328 36.4062 20.1484 36.4062C20.7266 36.4062 21.2344 36.5156 21.6719 36.7344C22.1094 36.9375 22.4766 37.2109 22.7734 37.5547C23.0703 37.8984 23.2891 38.3047 23.4297 38.7734C23.5859 39.2266 23.6641 39.7031 23.6641 40.2031C23.6641 41 23.4766 41.7734 23.1016 42.5234C22.7422 43.2734 22.25 43.9375 21.625 44.5156C21.0156 45.0781 20.3125 45.5078 19.5156 45.8047C18.7188 46.0859 17.9062 46.1484 17.0781 45.9922C17.0938 46.4453 17.2422 46.8125 17.5234 47.0937C17.8203 47.3594 18.1719 47.5625 18.5781 47.7031C18.9844 47.8437 19.4062 47.9375 19.8438 47.9844C20.2812 48.0156 20.6719 48.0312 21.0156 48.0312C21.375 48.0312 21.7109 48 22.0234 47.9375C22.3359 47.875 22.6484 47.8047 22.9609 47.7266C23.2734 47.6484 23.5859 47.5781 23.8984 47.5156C24.2266 47.4531 24.5703 47.4219 24.9297 47.4219C25.0703 47.4219 25.2109 47.4297 25.3516 47.4453C25.4922 47.4609 25.625 47.5 25.75 47.5625C25.875 47.6094 25.9766 47.6953 26.0547 47.8203C26.1328 47.9297 26.1719 48.0703 26.1719 48.2422C26.1719 48.5391 26.0625 48.7891 25.8438 48.9922C25.625 49.1797 25.3438 49.3437 25 49.4844C24.6719 49.625 24.3047 49.7344 23.8984 49.8125C23.4922 49.875 23.0938 49.9297 22.7031 49.9766C22.3281 50.0078 21.9766 50.0234 21.6484 50.0234C21.3359 50.0391 21.1016 50.0469 20.9453 50.0469C19.9453 50.0469 19.0469 49.8906 18.25 49.5781C17.4531 49.25 16.7812 48.8047 16.2344 48.2422C15.6875 47.6641 15.2656 46.9766 14.9688 46.1797C14.6875 45.3672 14.5469 44.4687 14.5469 43.4844ZM17.0312 41.9609C17.0312 42.5078 17.1016 42.9062 17.2422 43.1562C17.3984 43.4062 17.7656 43.5312 18.3438 43.5312C18.75 43.5312 19.1484 43.4609 19.5391 43.3203C19.9297 43.1641 20.2812 42.9531 20.5938 42.6875C20.9219 42.4219 21.1797 42.1094 21.3672 41.75C21.5547 41.3906 21.6484 41 21.6484 40.5781C21.6484 40.3437 21.625 40.1016 21.5781 39.8516C21.5469 39.6016 21.4688 39.375 21.3438 39.1719C21.2188 38.9531 21.0547 38.7812 20.8516 38.6562C20.6641 38.5156 20.4141 38.4453 20.1016 38.4453C19.6328 38.4453 19.2031 38.5547 18.8125 38.7734C18.4375 38.9766 18.1172 39.25 17.8516 39.5937C17.5859 39.9219 17.3828 40.2969 17.2422 40.7187C17.1016 41.125 17.0312 41.5391 17.0312 41.9609Z" data-v-4611290e="" fill="black"></path> <path d="M32.125 48.9453C32.375 48.7734 32.6719 48.5547 33.0156 48.2891C33.375 48.0078 33.7344 47.7109 34.0938 47.3984C34.4531 47.0859 34.7891 46.7578 35.1016 46.4141C35.4141 46.0703 35.6562 45.7422 35.8281 45.4297C36.0156 45.1016 36.1094 44.7969 36.1094 44.5156C36.1094 44.2344 35.9688 44 35.6875 43.8125C35.1875 43.8125 34.6406 43.8359 34.0469 43.8828C33.4531 43.9141 32.8594 43.9297 32.2656 43.9297C31.6719 43.9141 31.0938 43.8594 30.5312 43.7656C29.9844 43.6719 29.4922 43.5 29.0547 43.25C28.6172 43 28.2656 42.6484 28 42.1953C27.75 41.7266 27.625 41.1328 27.625 40.4141C27.625 39.5703 27.7812 38.8125 28.0938 38.1406C28.4219 37.4531 28.8516 36.8516 29.3828 36.3359C29.9141 35.8047 30.5078 35.3437 31.1641 34.9531C31.8359 34.5469 32.5078 34.2031 33.1797 33.9219C33.5859 34.0312 33.9609 34.2266 34.3047 34.5078C34.6484 34.7891 34.9453 35.1016 35.1953 35.4453C35.0859 35.7891 34.8672 36.0547 34.5391 36.2422C34.2266 36.4297 33.8594 36.5937 33.4375 36.7344C33.0312 36.875 32.6016 37.0234 32.1484 37.1797C31.6953 37.3359 31.2812 37.5469 30.9062 37.8125C30.5469 38.0625 30.2422 38.3984 29.9922 38.8203C29.7422 39.2266 29.6172 39.7656 29.6172 40.4375C29.6172 40.9375 29.7422 41.3047 29.9922 41.5391C30.2422 41.7734 30.5703 41.9375 30.9766 42.0312C31.3828 42.1094 31.8438 42.1406 32.3594 42.125C32.875 42.0937 33.3984 42.0547 33.9297 42.0078C34.4766 41.9609 35.0078 41.9375 35.5234 41.9375C36.0391 41.9219 36.5 41.9844 36.9062 42.125C37.3125 42.25 37.6328 42.4609 37.8672 42.7578C38.1172 43.0547 38.2422 43.4922 38.2422 44.0703C38.2422 44.3203 38.1562 44.6406 37.9844 45.0312C37.8281 45.4219 37.6094 45.8437 37.3281 46.2969C37.0625 46.7344 36.7422 47.1719 36.3672 47.6094C36.0078 48.0469 35.625 48.4453 35.2188 48.8047C34.8281 49.1484 34.4297 49.4375 34.0234 49.6719C33.6328 49.8906 33.2656 50 32.9219 50C32.5938 50 32.375 49.8828 32.2656 49.6484C32.1719 49.4141 32.125 49.1797 32.125 48.9453Z" data-v-4611290e="" fill="black"></path> <path d="M40.1641 41.2109C40.1641 41.1172 40.1641 40.9687 40.1641 40.7656C40.1797 40.5469 40.1875 40.3203 40.1875 40.0859C40.2031 39.8516 40.2109 39.625 40.2109 39.4062C40.2266 39.1875 40.2344 39.0312 40.2344 38.9375C40.4062 38.6875 40.625 38.4844 40.8906 38.3281C41.1719 38.1719 41.4531 38.0469 41.7344 37.9531C41.7812 38.7969 41.9141 39.6953 42.1328 40.6484C42.3516 41.6016 42.5859 42.5625 42.8359 43.5312C43.0859 44.4844 43.3047 45.4297 43.4922 46.3672C43.6953 47.3047 43.7969 48.1797 43.7969 48.9922C43.7969 49.6953 43.4375 50.0469 42.7188 50.0469C42.2812 50.0469 41.9141 49.8672 41.6172 49.5078C41.3203 49.1484 41.0781 48.6953 40.8906 48.1484C40.7188 47.5859 40.5781 46.9687 40.4688 46.2969C40.3594 45.6094 40.2812 44.9375 40.2344 44.2812C40.2031 43.625 40.1797 43.0234 40.1641 42.4766C40.1641 41.9297 40.1641 41.5078 40.1641 41.2109ZM40.4922 32.4219C40.7891 32.5469 41.0391 32.75 41.2422 33.0312C41.4453 33.3125 41.5312 33.5703 41.5 33.8047C41.4844 34.0234 41.3125 34.1797 40.9844 34.2734C40.6562 34.3516 40.1094 34.2578 39.3438 33.9922C39.3438 33.5703 39.4219 33.2031 39.5781 32.8906C39.75 32.5781 40.0547 32.4219 40.4922 32.4219Z" data-v-4611290e="" fill="black"></path> <path d="M50.7578 62.4687C51.6328 62.4687 52.4141 62.3047 53.1016 61.9766C53.7891 61.6641 54.3672 61.2266 54.8359 60.6641C55.3203 60.1172 55.6875 59.4844 55.9375 58.7656C56.2031 58.0625 56.3359 57.3281 56.3359 56.5625C56.3359 56.1719 56.3125 55.6562 56.2656 55.0156C56.2344 54.375 56.1797 53.6797 56.1016 52.9297C56.0234 52.1797 55.9062 51.4141 55.75 50.6328C55.6094 49.8516 55.4297 49.1172 55.2109 48.4297C54.9922 47.7266 54.7188 47.1172 54.3906 46.6016C54.0781 46.0703 53.7109 45.6953 53.2891 45.4766C52.8828 45.7891 52.4844 46.0781 52.0938 46.3437C51.7031 46.5937 51.2969 46.8047 50.875 46.9766C50.4531 47.1484 50.0156 47.2891 49.5625 47.3984C49.1094 47.4922 48.625 47.5391 48.1094 47.5391C47.4375 47.5391 46.8594 47.4766 46.375 47.3516C45.9062 47.2266 45.5078 47.0156 45.1797 46.7187C44.8672 46.4219 44.6328 46.0312 44.4766 45.5469C44.3203 45.0625 44.2422 44.4531 44.2422 43.7187C44.2422 43.2031 44.3672 42.7031 44.6172 42.2187C44.8672 41.7187 45.1953 41.2578 45.6016 40.8359C46.0234 40.3984 46.4922 40 47.0078 39.6406C47.5391 39.2812 48.0781 38.9687 48.625 38.7031C49.1875 38.4375 49.7344 38.2344 50.2656 38.0937C50.8125 37.9531 51.2969 37.8828 51.7188 37.8828C52.125 37.8828 52.4609 37.8984 52.7266 37.9297C52.9922 37.9453 53.2188 38.0078 53.4062 38.1172C53.5938 38.2109 53.75 38.3672 53.875 38.5859C54.0156 38.7891 54.1484 39.0703 54.2734 39.4297C54.6328 40.6484 55.0469 41.9609 55.5156 43.3672C55.9844 44.7734 56.4297 46.2187 56.8516 47.7031C57.2734 49.1875 57.625 50.6797 57.9062 52.1797C58.2031 53.6953 58.3516 55.1562 58.3516 56.5625C58.3516 57.8125 58.1719 58.8672 57.8125 59.7266C57.4688 60.6016 57.0078 61.3125 56.4297 61.8594C55.8672 62.4219 55.2188 62.8516 54.4844 63.1484C53.7656 63.4453 53.0391 63.6328 52.3047 63.7109C51.5703 63.8047 50.8594 63.8281 50.1719 63.7812C49.4844 63.7344 48.8906 63.6406 48.3906 63.5C47.8906 63.375 47.5078 63.2266 47.2422 63.0547C46.9922 62.8828 46.9297 62.7344 47.0547 62.6094C47.1953 62.5 47.5547 62.4219 48.1328 62.375C48.7109 62.3281 49.5859 62.3594 50.7578 62.4687ZM51.0859 39.8516C49.9297 40.1016 48.9922 40.4531 48.2734 40.9062C47.5703 41.3437 47.0391 41.8203 46.6797 42.3359C46.3359 42.8359 46.1484 43.3437 46.1172 43.8594C46.0859 44.3594 46.1797 44.7891 46.3984 45.1484C46.6172 45.5078 46.9297 45.7812 47.3359 45.9687C47.7578 46.1406 48.2344 46.1484 48.7656 45.9922C49.2969 45.8203 49.8594 45.4609 50.4531 44.9141C51.0625 44.3672 51.6719 43.5547 52.2812 42.4766C52.2812 42.2109 52.2812 41.9219 52.2812 41.6094C52.2969 41.2969 52.2734 41.0156 52.2109 40.7656C52.1484 40.5 52.0312 40.2812 51.8594 40.1094C51.6875 39.9375 51.4297 39.8516 51.0859 39.8516Z" data-v-4611290e="" fill="black"></path> <path d="M58.2812 42.1016C58.2812 41.6953 58.3828 41.4062 58.5859 41.2344C58.7891 41.0469 59.1172 40.9531 59.5703 40.9531H59.8047C59.8516 41.2031 59.9062 41.4922 59.9688 41.8203C60.0312 42.1484 60.125 42.4844 60.25 42.8281C60.375 43.1719 60.5234 43.4922 60.6953 43.7891C60.8672 44.0703 61.0781 44.2969 61.3281 44.4687C61.3438 43.9219 61.4766 43.3984 61.7266 42.8984C61.9922 42.3828 62.3125 41.9297 62.6875 41.5391C63.0781 41.1328 63.5 40.7969 63.9531 40.5312C64.4219 40.25 64.8828 40.0625 65.3359 39.9687H65.8516C66.6016 39.9687 67.2422 40.1406 67.7734 40.4844C68.3047 40.8125 68.7422 41.25 69.0859 41.7969C69.4453 42.3281 69.7188 42.9375 69.9062 43.625C70.0938 44.3125 70.2344 45.0156 70.3281 45.7344C70.4375 46.4375 70.5 47.125 70.5156 47.7969C70.5469 48.4531 70.5625 49.0156 70.5625 49.4844H68.8516C68.7578 48.5469 68.6406 47.6484 68.5 46.7891C68.4531 46.4453 68.3906 46.0859 68.3125 45.7109C68.2344 45.3203 68.1484 44.9609 68.0547 44.6328C67.9609 44.2891 67.8594 43.9766 67.75 43.6953C67.6406 43.3984 67.5156 43.1484 67.375 42.9453C67.3125 42.8828 67.2266 42.7969 67.1172 42.6875C67.0234 42.5781 66.9219 42.4687 66.8125 42.3594C66.7031 42.25 66.6016 42.1562 66.5078 42.0781C66.4141 42 66.3594 41.9609 66.3438 41.9609C65.875 41.8359 65.4688 41.9297 65.125 42.2422C64.7812 42.5391 64.4766 42.9453 64.2109 43.4609C63.9453 43.9766 63.7266 44.5625 63.5547 45.2187C63.3984 45.875 63.2656 46.5078 63.1562 47.1172C63.0469 47.7109 62.9688 48.2344 62.9219 48.6875C62.875 49.125 62.8438 49.3906 62.8281 49.4844C62.4375 49.7656 62.0703 49.8516 61.7266 49.7422C61.3828 49.6172 61.0547 49.3672 60.7422 48.9922C60.4453 48.6172 60.1719 48.1484 59.9219 47.5859C59.6875 47.0234 59.4688 46.4297 59.2656 45.8047C59.0625 45.1641 58.875 44.5234 58.7031 43.8828C58.5469 43.2422 58.4062 42.6484 58.2812 42.1016Z" data-v-4611290e="" fill="black"></path> <path d="M83.2188 36.7344C83.2188 36.2812 83.1875 35.8437 83.125 35.4219C83.0625 34.9844 83.0469 34.6016 83.0781 34.2734C83.1094 33.9297 83.2266 33.6562 83.4297 33.4531C83.6484 33.25 84.0391 33.1484 84.6016 33.1484C84.7734 33.5078 84.9375 34.0547 85.0938 34.7891C85.2656 35.5234 85.4297 36.3672 85.5859 37.3203C85.7422 38.2734 85.8906 39.3125 86.0312 40.4375C86.1719 41.5469 86.2969 42.6641 86.4062 43.7891C86.5312 44.9141 86.6328 46.0234 86.7109 47.1172C86.8047 48.1953 86.875 49.1797 86.9219 50.0703C86.4062 50.4141 85.9922 50.4375 85.6797 50.1406C85.3672 49.8437 85.1094 49.3437 84.9062 48.6406C84.7031 47.9219 84.5469 47.0547 84.4375 46.0391C84.3281 45.0078 84.2188 43.9453 84.1094 42.8516C84.0156 41.7422 83.8984 40.6562 83.7578 39.5937C83.6172 38.5156 83.4375 37.5625 83.2188 36.7344Z" data-v-4611290e="" fill="black"></path> <path d="M88.1406 43.4844C88.1406 42.6406 88.2422 41.7969 88.4453 40.9531C88.6484 40.1094 88.9688 39.3516 89.4062 38.6797C89.8594 38.0078 90.4375 37.4609 91.1406 37.0391C91.8594 36.6172 92.7266 36.4062 93.7422 36.4062C94.3203 36.4062 94.8281 36.5156 95.2656 36.7344C95.7031 36.9375 96.0703 37.2109 96.3672 37.5547C96.6641 37.8984 96.8828 38.3047 97.0234 38.7734C97.1797 39.2266 97.2578 39.7031 97.2578 40.2031C97.2578 41 97.0703 41.7734 96.6953 42.5234C96.3359 43.2734 95.8438 43.9375 95.2188 44.5156C94.6094 45.0781 93.9062 45.5078 93.1094 45.8047C92.3125 46.0859 91.5 46.1484 90.6719 45.9922C90.6875 46.4453 90.8359 46.8125 91.1172 47.0937C91.4141 47.3594 91.7656 47.5625 92.1719 47.7031C92.5781 47.8437 93 47.9375 93.4375 47.9844C93.875 48.0156 94.2656 48.0312 94.6094 48.0312C94.9688 48.0312 95.3047 48 95.6172 47.9375C95.9297 47.875 96.2422 47.8047 96.5547 47.7266C96.8672 47.6484 97.1797 47.5781 97.4922 47.5156C97.8203 47.4531 98.1641 47.4219 98.5234 47.4219C98.6641 47.4219 98.8047 47.4297 98.9453 47.4453C99.0859 47.4609 99.2188 47.5 99.3438 47.5625C99.4688 47.6094 99.5703 47.6953 99.6484 47.8203C99.7266 47.9297 99.7656 48.0703 99.7656 48.2422C99.7656 48.5391 99.6562 48.7891 99.4375 48.9922C99.2188 49.1797 98.9375 49.3437 98.5938 49.4844C98.2656 49.625 97.8984 49.7344 97.4922 49.8125C97.0859 49.875 96.6875 49.9297 96.2969 49.9766C95.9219 50.0078 95.5703 50.0234 95.2422 50.0234C94.9297 50.0391 94.6953 50.0469 94.5391 50.0469C93.5391 50.0469 92.6406 49.8906 91.8438 49.5781C91.0469 49.25 90.375 48.8047 89.8281 48.2422C89.2812 47.6641 88.8594 46.9766 88.5625 46.1797C88.2812 45.3672 88.1406 44.4687 88.1406 43.4844ZM90.625 41.9609C90.625 42.5078 90.6953 42.9062 90.8359 43.1562C90.9922 43.4062 91.3594 43.5312 91.9375 43.5312C92.3438 43.5312 92.7422 43.4609 93.1328 43.3203C93.5234 43.1641 93.875 42.9531 94.1875 42.6875C94.5156 42.4219 94.7734 42.1094 94.9609 41.75C95.1484 41.3906 95.2422 41 95.2422 40.5781C95.2422 40.3437 95.2188 40.1016 95.1719 39.8516C95.1406 39.6016 95.0625 39.375 94.9375 39.1719C94.8125 38.9531 94.6484 38.7812 94.4453 38.6562C94.2578 38.5156 94.0078 38.4453 93.6953 38.4453C93.2266 38.4453 92.7969 38.5547 92.4062 38.7734C92.0312 38.9766 91.7109 39.25 91.4453 39.5937C91.1797 39.9219 90.9766 40.2969 90.8359 40.7187C90.6953 41.125 90.625 41.5391 90.625 41.9609Z" data-v-4611290e="" fill="black"></path> <path d="M111.297 46.9766C110.703 47.3828 110.188 47.75 109.75 48.0781C109.328 48.3906 108.914 48.6562 108.508 48.875C108.102 49.0937 107.664 49.2578 107.195 49.3672C106.742 49.4766 106.18 49.5312 105.508 49.5312C104.055 49.5312 102.977 49.1484 102.273 48.3828C101.57 47.6016 101.219 46.4453 101.219 44.9141C101.219 44.3203 101.297 43.7031 101.453 43.0625C101.609 42.4219 101.836 41.7891 102.133 41.1641C102.445 40.5234 102.812 39.9219 103.234 39.3594C103.656 38.7812 104.133 38.2734 104.664 37.8359C105.195 37.3984 105.758 37.0547 106.352 36.8047C106.961 36.5391 107.602 36.4062 108.273 36.4062C109.398 36.5156 110.281 36.7969 110.922 37.25C111.562 37.6875 112.047 38.2578 112.375 38.9609C112.703 39.6484 112.93 40.4219 113.055 41.2812C113.18 42.125 113.273 43 113.336 43.9062C113.414 44.8125 113.508 45.7187 113.617 46.625C113.727 47.5312 113.953 48.3672 114.297 49.1328C114.094 49.6484 113.898 50.0078 113.711 50.2109C113.539 50.4297 113.344 50.4687 113.125 50.3281C112.906 50.1875 112.648 49.8437 112.352 49.2969C112.07 48.75 111.719 47.9766 111.297 46.9766ZM103.211 44.9609C103.211 45.8516 103.375 46.5078 103.703 46.9297C104.047 47.3359 104.648 47.5391 105.508 47.5391C106.148 47.5391 106.758 47.4297 107.336 47.2109C107.93 46.9766 108.445 46.6641 108.883 46.2734C109.32 45.8672 109.672 45.3828 109.938 44.8203C110.203 44.2578 110.336 43.6328 110.336 42.9453C110.336 42.6641 110.344 42.2734 110.359 41.7734C110.375 41.2578 110.344 40.75 110.266 40.25C110.188 39.75 110.039 39.3203 109.82 38.9609C109.602 38.5859 109.273 38.3984 108.836 38.3984C108.023 38.3984 107.273 38.6094 106.586 39.0312C105.898 39.4375 105.305 39.9609 104.805 40.6016C104.305 41.2422 103.914 41.9531 103.633 42.7344C103.352 43.5 103.211 44.2422 103.211 44.9609Z" data-v-4611290e="" fill="black"></path> <path d="M115.258 47.2344C115.258 46.3281 115.484 45.5234 115.938 44.8203C116.391 44.1172 116.953 43.5078 117.625 42.9922C118.297 42.4609 119.023 42.0156 119.805 41.6562C120.586 41.2812 121.312 40.9766 121.984 40.7422C122.656 40.4922 123.219 40.2969 123.672 40.1562C124.125 40 124.352 39.875 124.352 39.7812C124.352 39.2344 124.32 38.7031 124.258 38.1875C124.211 37.6562 124.156 37.125 124.094 36.5937C124.031 36.0625 123.969 35.5391 123.906 35.0234C123.859 34.4922 123.836 33.9687 123.836 33.4531V31.9297C124.477 31.6953 124.93 31.7187 125.195 32C125.477 32.2812 125.523 32.7656 125.336 33.4531C125.398 33.7969 125.484 34.3359 125.594 35.0703C125.703 35.8047 125.82 36.6328 125.945 37.5547C126.086 38.4766 126.227 39.4453 126.367 40.4609C126.523 41.4766 126.664 42.4531 126.789 43.3906C126.93 44.3125 127.047 45.1406 127.141 45.875C127.234 46.5937 127.305 47.1328 127.352 47.4922C127.367 47.5703 127.383 47.7266 127.398 47.9609C127.414 48.1797 127.422 48.4219 127.422 48.6875C127.438 48.9375 127.445 49.1719 127.445 49.3906C127.461 49.6094 127.469 49.7656 127.469 49.8594C126.875 49.8594 126.469 49.8359 126.25 49.7891C126.047 49.7422 125.914 49.6484 125.852 49.5078C125.805 49.3672 125.781 49.1641 125.781 48.8984C125.781 48.6328 125.703 48.2656 125.547 47.7969C124.969 48.25 124.422 48.625 123.906 48.9219C123.391 49.2187 122.875 49.4609 122.359 49.6484C121.844 49.8203 121.32 49.9375 120.789 50C120.273 50.0781 119.719 50.1172 119.125 50.1172C118.625 50.1172 118.141 50.0781 117.672 50C117.219 49.9062 116.812 49.75 116.453 49.5312C116.094 49.3125 115.805 49.0156 115.586 48.6406C115.367 48.2656 115.258 47.7969 115.258 47.2344ZM117.297 46.7422C117.297 46.9922 117.352 47.1953 117.461 47.3516C117.57 47.5078 117.711 47.6406 117.883 47.75C118.055 47.8594 118.234 47.9375 118.422 47.9844C118.625 48.0156 118.82 48.0312 119.008 48.0312C119.555 48.0312 120.141 47.9297 120.766 47.7266C121.406 47.5078 121.992 47.2109 122.523 46.8359C123.07 46.4453 123.516 45.9844 123.859 45.4531C124.219 44.9219 124.398 44.3437 124.398 43.7187C124.398 43.2344 124.312 42.8984 124.141 42.7109C123.969 42.5234 123.641 42.4297 123.156 42.4297C122.656 42.4297 122.07 42.5469 121.398 42.7812C120.742 43.0156 120.102 43.3281 119.477 43.7187C118.867 44.1094 118.352 44.5703 117.93 45.1016C117.508 45.6172 117.297 46.1641 117.297 46.7422Z" data-v-4611290e="" fill="black"></path> <path d="M132.062 46.4375C132.234 46.4375 132.375 46.4766 132.484 46.5547C132.609 46.6328 132.695 46.7344 132.742 46.8594C132.789 46.9687 132.82 47.1016 132.836 47.2578C132.852 47.3984 132.859 47.5391 132.859 47.6797C132.859 48.0078 132.82 48.3984 132.742 48.8516C132.68 49.2891 132.578 49.75 132.438 50.2344C132.297 50.7187 132.117 51.1953 131.898 51.6641C131.695 52.1484 131.453 52.5703 131.172 52.9297C130.891 53.3047 130.57 53.6016 130.211 53.8203C129.867 54.0547 129.484 54.1719 129.062 54.1719C129.062 53.8437 129.094 53.4219 129.156 52.9062C129.234 52.3906 129.336 51.8437 129.461 51.2656C129.602 50.6875 129.766 50.1172 129.953 49.5547C130.141 48.9766 130.344 48.4609 130.562 48.0078C130.781 47.5391 131.016 47.1641 131.266 46.8828C131.516 46.5859 131.781 46.4375 132.062 46.4375Z" data-v-4611290e="" fill="black"></path> <path d="M152.148 46.7422C152.148 45.9141 152.047 45.0156 151.844 44.0469C151.641 43.0781 151.422 42.0859 151.188 41.0703C150.953 40.0547 150.727 39.0469 150.508 38.0469C150.289 37.0312 150.172 36.0781 150.156 35.1875H144.93C144.93 35.0625 144.93 34.8828 144.93 34.6484C144.93 34.4141 144.953 34.1797 145 33.9453C145.047 33.6953 145.117 33.4766 145.211 33.2891C145.305 33.0859 145.445 32.9609 145.633 32.9141H158.523C158.508 33.4141 158.406 33.7969 158.219 34.0625C158.031 34.3281 157.781 34.5312 157.469 34.6719C157.172 34.8125 156.836 34.9062 156.461 34.9531C156.086 34.9844 155.711 35.0234 155.336 35.0703C154.961 35.1172 154.594 35.1797 154.234 35.2578C153.875 35.3203 153.562 35.4531 153.297 35.6562C153.047 35.8594 152.852 36.1406 152.711 36.5C152.586 36.8437 152.555 37.3125 152.617 37.9062C152.617 38.2344 152.641 38.6719 152.688 39.2187C152.734 39.75 152.812 40.3281 152.922 40.9531C153.031 41.5781 153.172 42.2109 153.344 42.8516C153.516 43.4766 153.727 44.0547 153.977 44.5859C154.242 45.1016 154.539 45.5234 154.867 45.8516C155.211 46.1641 155.609 46.3203 156.062 46.3203C156.375 46.3516 156.773 46.3594 157.258 46.3437C157.758 46.3125 158.258 46.2891 158.758 46.2734C159.258 46.2578 159.727 46.2656 160.164 46.2969C160.617 46.3281 160.945 46.4219 161.148 46.5781C161.352 46.7344 161.398 46.9687 161.289 47.2812C161.18 47.5781 160.836 47.9844 160.258 48.5C159.258 48.875 158.242 49.1328 157.211 49.2734C156.195 49.3984 155.172 49.4687 154.141 49.4844C153.109 49.4844 152.078 49.4687 151.047 49.4375C150.016 49.3906 148.992 49.3672 147.977 49.3672C147.398 48.6641 147.055 48.125 146.945 47.75C146.836 47.375 146.875 47.1172 147.062 46.9766C147.266 46.8203 147.578 46.7422 148 46.7422C148.438 46.7266 148.906 46.7422 149.406 46.7891C149.906 46.8203 150.406 46.8516 150.906 46.8828C151.406 46.8984 151.82 46.8516 152.148 46.7422Z" data-v-4611290e="" fill="black"></path> <path d="M163.164 42.1016C163.164 41.6953 163.266 41.4062 163.469 41.2344C163.672 41.0469 164 40.9531 164.453 40.9531H164.688C164.734 41.2031 164.789 41.4922 164.852 41.8203C164.914 42.1484 165.008 42.4844 165.133 42.8281C165.258 43.1719 165.406 43.4922 165.578 43.7891C165.75 44.0703 165.961 44.2969 166.211 44.4687C166.227 43.9219 166.359 43.3984 166.609 42.8984C166.875 42.3828 167.195 41.9297 167.57 41.5391C167.961 41.1328 168.383 40.7969 168.836 40.5312C169.305 40.25 169.766 40.0625 170.219 39.9687H170.734C171.484 39.9687 172.125 40.1406 172.656 40.4844C173.188 40.8125 173.625 41.25 173.969 41.7969C174.328 42.3281 174.602 42.9375 174.789 43.625C174.977 44.3125 175.117 45.0156 175.211 45.7344C175.32 46.4375 175.383 47.125 175.398 47.7969C175.43 48.4531 175.445 49.0156 175.445 49.4844H173.734C173.641 48.5469 173.523 47.6484 173.383 46.7891C173.336 46.4453 173.273 46.0859 173.195 45.7109C173.117 45.3203 173.031 44.9609 172.938 44.6328C172.844 44.2891 172.742 43.9766 172.633 43.6953C172.523 43.3984 172.398 43.1484 172.258 42.9453C172.195 42.8828 172.109 42.7969 172 42.6875C171.906 42.5781 171.805 42.4687 171.695 42.3594C171.586 42.25 171.484 42.1562 171.391 42.0781C171.297 42 171.242 41.9609 171.227 41.9609C170.758 41.8359 170.352 41.9297 170.008 42.2422C169.664 42.5391 169.359 42.9453 169.094 43.4609C168.828 43.9766 168.609 44.5625 168.438 45.2187C168.281 45.875 168.148 46.5078 168.039 47.1172C167.93 47.7109 167.852 48.2344 167.805 48.6875C167.758 49.125 167.727 49.3906 167.711 49.4844C167.32 49.7656 166.953 49.8516 166.609 49.7422C166.266 49.6172 165.938 49.3672 165.625 48.9922C165.328 48.6172 165.055 48.1484 164.805 47.5859C164.57 47.0234 164.352 46.4297 164.148 45.8047C163.945 45.1641 163.758 44.5234 163.586 43.8828C163.43 43.2422 163.289 42.6484 163.164 42.1016Z" data-v-4611290e="" fill="black"></path> <path d="M176.594 37.7891C176.703 37.4141 176.828 37.2422 176.969 37.2734C177.125 37.3047 177.312 37.4844 177.531 37.8125C177.75 38.1406 177.992 38.5781 178.258 39.125C178.539 39.6719 178.836 40.2656 179.148 40.9062C179.461 41.5312 179.797 42.1719 180.156 42.8281C180.531 43.4844 180.914 44.0859 181.305 44.6328C181.711 45.1797 182.133 45.6328 182.57 45.9922C183.023 46.3516 183.484 46.5625 183.953 46.625L185.828 36.9219C185.859 36.6562 185.977 36.5078 186.18 36.4766C186.398 36.4297 186.609 36.4062 186.812 36.4062C187.516 36.4062 187.867 36.7344 187.867 37.3906C187.867 37.7344 187.836 38.2812 187.773 39.0312C187.711 39.7812 187.609 40.6094 187.469 41.5156C187.328 42.4062 187.156 43.3281 186.953 44.2812C186.75 45.2187 186.508 46.0781 186.227 46.8594C185.945 47.6406 185.617 48.2812 185.242 48.7812C184.883 49.2812 184.484 49.5312 184.047 49.5312C183.406 49.5312 182.773 49.3203 182.148 48.8984C181.523 48.4609 180.93 47.8984 180.367 47.2109C179.82 46.5078 179.312 45.7266 178.844 44.8672C178.391 44.0078 177.992 43.1484 177.648 42.2891C177.32 41.4141 177.062 40.5781 176.875 39.7812C176.688 38.9844 176.594 38.3203 176.594 37.7891Z" data-v-4611290e="" fill="black"></path> <path d="M190.258 41.2109C190.258 41.1172 190.258 40.9687 190.258 40.7656C190.273 40.5469 190.281 40.3203 190.281 40.0859C190.297 39.8516 190.305 39.625 190.305 39.4062C190.32 39.1875 190.328 39.0312 190.328 38.9375C190.5 38.6875 190.719 38.4844 190.984 38.3281C191.266 38.1719 191.547 38.0469 191.828 37.9531C191.875 38.7969 192.008 39.6953 192.227 40.6484C192.445 41.6016 192.68 42.5625 192.93 43.5312C193.18 44.4844 193.398 45.4297 193.586 46.3672C193.789 47.3047 193.891 48.1797 193.891 48.9922C193.891 49.6953 193.531 50.0469 192.812 50.0469C192.375 50.0469 192.008 49.8672 191.711 49.5078C191.414 49.1484 191.172 48.6953 190.984 48.1484C190.812 47.5859 190.672 46.9687 190.562 46.2969C190.453 45.6094 190.375 44.9375 190.328 44.2812C190.297 43.625 190.273 43.0234 190.258 42.4766C190.258 41.9297 190.258 41.5078 190.258 41.2109ZM190.586 32.4219C190.883 32.5469 191.133 32.75 191.336 33.0312C191.539 33.3125 191.625 33.5703 191.594 33.8047C191.578 34.0234 191.406 34.1797 191.078 34.2734C190.75 34.3516 190.203 34.2578 189.438 33.9922C189.438 33.5703 189.516 33.2031 189.672 32.8906C189.844 32.5781 190.148 32.4219 190.586 32.4219Z" data-v-4611290e="" fill="black"></path> <path d="M199.305 48.9453C199.555 48.7734 199.852 48.5547 200.195 48.2891C200.555 48.0078 200.914 47.7109 201.273 47.3984C201.633 47.0859 201.969 46.7578 202.281 46.4141C202.594 46.0703 202.836 45.7422 203.008 45.4297C203.195 45.1016 203.289 44.7969 203.289 44.5156C203.289 44.2344 203.148 44 202.867 43.8125C202.367 43.8125 201.82 43.8359 201.227 43.8828C200.633 43.9141 200.039 43.9297 199.445 43.9297C198.852 43.9141 198.273 43.8594 197.711 43.7656C197.164 43.6719 196.672 43.5 196.234 43.25C195.797 43 195.445 42.6484 195.18 42.1953C194.93 41.7266 194.805 41.1328 194.805 40.4141C194.805 39.5703 194.961 38.8125 195.273 38.1406C195.602 37.4531 196.031 36.8516 196.562 36.3359C197.094 35.8047 197.688 35.3437 198.344 34.9531C199.016 34.5469 199.688 34.2031 200.359 33.9219C200.766 34.0312 201.141 34.2266 201.484 34.5078C201.828 34.7891 202.125 35.1016 202.375 35.4453C202.266 35.7891 202.047 36.0547 201.719 36.2422C201.406 36.4297 201.039 36.5937 200.617 36.7344C200.211 36.875 199.781 37.0234 199.328 37.1797C198.875 37.3359 198.461 37.5469 198.086 37.8125C197.727 38.0625 197.422 38.3984 197.172 38.8203C196.922 39.2266 196.797 39.7656 196.797 40.4375C196.797 40.9375 196.922 41.3047 197.172 41.5391C197.422 41.7734 197.75 41.9375 198.156 42.0312C198.562 42.1094 199.023 42.1406 199.539 42.125C200.055 42.0937 200.578 42.0547 201.109 42.0078C201.656 41.9609 202.188 41.9375 202.703 41.9375C203.219 41.9219 203.68 41.9844 204.086 42.125C204.492 42.25 204.812 42.4609 205.047 42.7578C205.297 43.0547 205.422 43.4922 205.422 44.0703C205.422 44.3203 205.336 44.6406 205.164 45.0312C205.008 45.4219 204.789 45.8437 204.508 46.2969C204.242 46.7344 203.922 47.1719 203.547 47.6094C203.188 48.0469 202.805 48.4453 202.398 48.8047C202.008 49.1484 201.609 49.4375 201.203 49.6719C200.812 49.8906 200.445 50 200.102 50C199.773 50 199.555 49.8828 199.445 49.6484C199.352 49.4141 199.305 49.1797 199.305 48.9453Z" data-v-4611290e="" fill="black"></path> <path d="M207.344 41.2109C207.344 41.1172 207.344 40.9687 207.344 40.7656C207.359 40.5469 207.367 40.3203 207.367 40.0859C207.383 39.8516 207.391 39.625 207.391 39.4062C207.406 39.1875 207.414 39.0312 207.414 38.9375C207.586 38.6875 207.805 38.4844 208.07 38.3281C208.352 38.1719 208.633 38.0469 208.914 37.9531C208.961 38.7969 209.094 39.6953 209.312 40.6484C209.531 41.6016 209.766 42.5625 210.016 43.5312C210.266 44.4844 210.484 45.4297 210.672 46.3672C210.875 47.3047 210.977 48.1797 210.977 48.9922C210.977 49.6953 210.617 50.0469 209.898 50.0469C209.461 50.0469 209.094 49.8672 208.797 49.5078C208.5 49.1484 208.258 48.6953 208.07 48.1484C207.898 47.5859 207.758 46.9687 207.648 46.2969C207.539 45.6094 207.461 44.9375 207.414 44.2812C207.383 43.625 207.359 43.0234 207.344 42.4766C207.344 41.9297 207.344 41.5078 207.344 41.2109ZM207.672 32.4219C207.969 32.5469 208.219 32.75 208.422 33.0312C208.625 33.3125 208.711 33.5703 208.68 33.8047C208.664 34.0234 208.492 34.1797 208.164 34.2734C207.836 34.3516 207.289 34.2578 206.523 33.9922C206.523 33.5703 206.602 33.2031 206.758 32.8906C206.93 32.5781 207.234 32.4219 207.672 32.4219Z" data-v-4611290e="" fill="black"></path> <path d="M211.891 45.2422C211.891 44.2734 212.117 43.375 212.57 42.5469C213.023 41.7031 213.617 40.9844 214.352 40.3906C215.102 39.7812 215.938 39.3047 216.859 38.9609C217.797 38.6172 218.742 38.4453 219.695 38.4453C220.227 38.4453 220.695 38.6172 221.102 38.9609C221.523 39.3047 221.875 39.7266 222.156 40.2266C222.438 40.7109 222.648 41.2266 222.789 41.7734C222.945 42.3203 223.023 42.7969 223.023 43.2031C223.023 44.0781 222.812 44.9297 222.391 45.7578C221.969 46.5703 221.422 47.2969 220.75 47.9375C220.078 48.5625 219.32 49.0703 218.477 49.4609C217.633 49.8516 216.789 50.0469 215.945 50.0469C215.195 50.0469 214.562 49.9219 214.047 49.6719C213.531 49.4062 213.117 49.0625 212.805 48.6406C212.492 48.2031 212.258 47.6953 212.102 47.1172C211.961 46.5234 211.891 45.8984 211.891 45.2422ZM213.883 45.4766C213.883 45.8828 213.914 46.2422 213.977 46.5547C214.055 46.8516 214.18 47.1094 214.352 47.3281C214.539 47.5469 214.781 47.7187 215.078 47.8437C215.375 47.9531 215.742 48.0078 216.18 48.0078C216.758 48.0078 217.336 47.8516 217.914 47.5391C218.492 47.2109 219.008 46.8047 219.461 46.3203C219.93 45.8203 220.305 45.2734 220.586 44.6797C220.867 44.0859 221.008 43.5078 221.008 42.9453C221.008 42.6953 220.984 42.4219 220.938 42.125C220.891 41.8281 220.812 41.5547 220.703 41.3047C220.594 41.0547 220.438 40.8437 220.234 40.6719C220.031 40.5 219.773 40.4141 219.461 40.4141C219.18 40.4141 218.844 40.5078 218.453 40.6953C218.078 40.8828 217.68 41.125 217.258 41.4219C216.852 41.7187 216.445 42.0547 216.039 42.4297C215.648 42.8047 215.289 43.1797 214.961 43.5547C214.633 43.9297 214.367 44.2891 214.164 44.6328C213.977 44.9766 213.883 45.2578 213.883 45.4766Z" data-v-4611290e="" fill="black"></path> <path d="M223.938 42.1016C223.938 41.6953 224.039 41.4062 224.242 41.2344C224.445 41.0469 224.773 40.9531 225.227 40.9531H225.461C225.508 41.2031 225.562 41.4922 225.625 41.8203C225.688 42.1484 225.781 42.4844 225.906 42.8281C226.031 43.1719 226.18 43.4922 226.352 43.7891C226.523 44.0703 226.734 44.2969 226.984 44.4687C227 43.9219 227.133 43.3984 227.383 42.8984C227.648 42.3828 227.969 41.9297 228.344 41.5391C228.734 41.1328 229.156 40.7969 229.609 40.5312C230.078 40.25 230.539 40.0625 230.992 39.9687H231.508C232.258 39.9687 232.898 40.1406 233.43 40.4844C233.961 40.8125 234.398 41.25 234.742 41.7969C235.102 42.3281 235.375 42.9375 235.562 43.625C235.75 44.3125 235.891 45.0156 235.984 45.7344C236.094 46.4375 236.156 47.125 236.172 47.7969C236.203 48.4531 236.219 49.0156 236.219 49.4844H234.508C234.414 48.5469 234.297 47.6484 234.156 46.7891C234.109 46.4453 234.047 46.0859 233.969 45.7109C233.891 45.3203 233.805 44.9609 233.711 44.6328C233.617 44.2891 233.516 43.9766 233.406 43.6953C233.297 43.3984 233.172 43.1484 233.031 42.9453C232.969 42.8828 232.883 42.7969 232.773 42.6875C232.68 42.5781 232.578 42.4687 232.469 42.3594C232.359 42.25 232.258 42.1562 232.164 42.0781C232.07 42 232.016 41.9609 232 41.9609C231.531 41.8359 231.125 41.9297 230.781 42.2422C230.438 42.5391 230.133 42.9453 229.867 43.4609C229.602 43.9766 229.383 44.5625 229.211 45.2187C229.055 45.875 228.922 46.5078 228.812 47.1172C228.703 47.7109 228.625 48.2344 228.578 48.6875C228.531 49.125 228.5 49.3906 228.484 49.4844C228.094 49.7656 227.727 49.8516 227.383 49.7422C227.039 49.6172 226.711 49.3672 226.398 48.9922C226.102 48.6172 225.828 48.1484 225.578 47.5859C225.344 47.0234 225.125 46.4297 224.922 45.8047C224.719 45.1641 224.531 44.5234 224.359 43.8828C224.203 43.2422 224.062 42.6484 223.938 42.1016Z" data-v-4611290e="" fill="black"></path></svg>