<svg class="typo" data-name="Layer 1" data-v-22e69c02="" height="32" id="Layer_1" viewbox="0 0 95 42" xmlns="http://www.w3.org/2000/svg"><defs><style>.cls-1{fill:#fff}</style></defs><title>Artboard 1</title><path class="cls-1" d="M1,8a1.54,1.54,0,0,1,.15-.74A.8.8,0,0,1,1.81,7a1,1,0,0,1,.21,0h.21c.09.39.18.82.27,1.28s.21.92.34,1.39.26.93.41,1.38a6.38,6.38,0,0,0,.59,1.23,2.2,2.2,0,0,0,.5-.85,7,7,0,0,0,.22-1c.05-.34.1-.66.14-1A2,2,0,0,1,5,8.74a1.15,1.15,0,0,1,.61-.49,2.13,2.13,0,0,1,1.13,0A2.34,2.34,0,0,1,8,8.55a2.89,2.89,0,0,1,.82.74,10,10,0,0,1,.68,1,4.19,4.19,0,0,0,.85.89c.08-.16.17-.37.29-.61A6.44,6.44,0,0,1,11,9.75c.18-.28.36-.55.55-.82a6.77,6.77,0,0,1,.63-.74,3.32,3.32,0,0,1,.66-.55,1.21,1.21,0,0,1,.66-.22,2,2,0,0,1,1.35.49,4.07,4.07,0,0,1,1,1.21,7.83,7.83,0,0,1,.68,1.63A17.34,17.34,0,0,1,17,12.48a13.43,13.43,0,0,1,.2,1.53c.05.46.08.78.08,1a.56.56,0,0,1-.11.37.78.78,0,0,1-.29.21,1.42,1.42,0,0,1-.38.08l-.36,0H16l-.17,0-.21-.06L14.38,9.92s-.05-.11-.15-.21A.94.94,0,0,0,14,9.5l-.1,0h-.05l0,0a1.14,1.14,0,0,0-.76.32,4,4,0,0,0-.64.82,9.37,9.37,0,0,0-.57,1.1,12.06,12.06,0,0,0-.47,1.21c-.14.39-.27.76-.38,1.1s-.19.58-.25.76a1.32,1.32,0,0,1-.3.07,2.24,2.24,0,0,1-.31,0,1,1,0,0,1-.81-.36,3.12,3.12,0,0,1-.47-.93,10.79,10.79,0,0,1-.31-1.19,6.69,6.69,0,0,0-.3-1.21,2.55,2.55,0,0,0-.49-.91,1.09,1.09,0,0,0-.88-.38c-.13,0-.27.14-.39.42a5.3,5.3,0,0,0-.34,1.06c-.11.41-.2.87-.29,1.36s-.16.94-.23,1.37-.08.77-.11,1.06l0,.43a.41.41,0,0,1-.15.14,2,2,0,0,0-.25.13.66.66,0,0,1-.24.11.49.49,0,0,1-.17,0,1.5,1.5,0,0,1-1-.47,6,6,0,0,1-.91-1.25A15.15,15.15,0,0,1,2,12.57c-.22-.62-.4-1.23-.55-1.82s-.28-1.13-.36-1.61A7.29,7.29,0,0,1,1,8Z"></path><path class="cls-1" d="M25.58,13.56c-.48.32-.89.62-1.25.89a8.77,8.77,0,0,1-1,.64,4.22,4.22,0,0,1-1.06.4,5.89,5.89,0,0,1-1.37.13,3.38,3.38,0,0,1-2.61-.93,4,4,0,0,1-.86-2.8,6.7,6.7,0,0,1,.19-1.5,8,8,0,0,1,.55-1.53,9.32,9.32,0,0,1,.89-1.46,7.22,7.22,0,0,1,1.16-1.24,5.52,5.52,0,0,1,1.36-.83A4,4,0,0,1,23.14,5a4.4,4.4,0,0,1,2.14.68,3.33,3.33,0,0,1,1.17,1.38A6.44,6.44,0,0,1,27,9c.11.68.18,1.39.23,2.12s.14,1.47.23,2.2a7,7,0,0,0,.55,2,2.75,2.75,0,0,1-.48.87.32.32,0,0,1-.47.1,2.48,2.48,0,0,1-.62-.84C26.21,15,25.92,14.36,25.58,13.56Zm-6.53-1.63a2.62,2.62,0,0,0,.39,1.59A1.84,1.84,0,0,0,20.9,14a4.09,4.09,0,0,0,1.48-.27A4,4,0,0,0,23.63,13a3.6,3.6,0,0,0,.85-1.18,3.41,3.41,0,0,0,.33-1.51c0-.23,0-.55,0-1a7.13,7.13,0,0,0-.08-1.23,2.78,2.78,0,0,0-.36-1,.87.87,0,0,0-.8-.45,3.45,3.45,0,0,0-1.82.51A5.27,5.27,0,0,0,20.33,8.4a6,6,0,0,0-.94,1.73A5.07,5.07,0,0,0,19.05,11.93Z"></path><path class="cls-1" d="M32.3,15.62c-.21.18-.42.1-.65-.25A7.81,7.81,0,0,1,31,13.84c-.23-.7-.46-1.52-.68-2.48s-.43-2-.63-3-.4-2.16-.59-3.26-.33-2.16-.47-3.13c0-.18,0-.35,0-.53a2,2,0,0,1,.06-.51A1.18,1.18,0,0,1,28.9.44a1.27,1.27,0,0,1,.57-.28.21.21,0,0,1,.15,0,1,1,0,0,1,.27.11,1.26,1.26,0,0,1,.23.13,1.16,1.16,0,0,1,.15.13,18.44,18.44,0,0,0,.81,6.9s.14-.16.31-.38.37-.48.62-.77.54-.63.86-1a10.15,10.15,0,0,1,1-.95A6.62,6.62,0,0,1,35,3.68a2.05,2.05,0,0,1,1-.3,1.17,1.17,0,0,1,.55.13.51.51,0,0,1,.29.51.74.74,0,0,1,0,.12.51.51,0,0,0,0,.09l-.93.82q-.6.54-1.29,1.23c-.45.45-.89.93-1.31,1.42a6.85,6.85,0,0,0-.94,1.4.34.34,0,0,0,0,.21s0,.11,0,.19l.66.23c.3.1.64.22,1,.36l1.18.41q.63.21,1.17.42l1,.38.68.23a3.85,3.85,0,0,0,.44.15.57.57,0,0,1,.26.11.33.33,0,0,1,.14.17,1.46,1.46,0,0,1,0,.34.81.81,0,0,1-.26.72,1.36,1.36,0,0,1-.76.18A10.52,10.52,0,0,1,35,12.59a27,27,0,0,1-2.84-1.27,2.37,2.37,0,0,0,0,.83c.08.32.17.63.27.95s.2.63.28.93a3,3,0,0,1,.17.81,1,1,0,0,1-.07.57A.54.54,0,0,1,32.3,15.62Z"></path><path class="cls-1" d="M39,10.73a8.38,8.38,0,0,1,.25-2A5.73,5.73,0,0,1,40,6.85a4.37,4.37,0,0,1,1.41-1.33A4.08,4.08,0,0,1,43.54,5a2.79,2.79,0,0,1,1.23.26,2.71,2.71,0,0,1,.89.67,2.58,2.58,0,0,1,.53,1,3.44,3.44,0,0,1,.19,1.16A4.15,4.15,0,0,1,45.93,10a5.26,5.26,0,0,1-1.2,1.62,5.19,5.19,0,0,1-1.7,1,3.68,3.68,0,0,1-2,.15,1.24,1.24,0,0,0,.36.89,2.46,2.46,0,0,0,.85.49,4.44,4.44,0,0,0,1,.23c.36,0,.67,0,1,0a4.3,4.3,0,0,0,.82-.08c.25-.05.5-.1.75-.17l.76-.17a4.53,4.53,0,0,1,.84-.07h.34a1.19,1.19,0,0,1,.32.1.49.49,0,0,1,.24.21.53.53,0,0,1,.1.34.8.8,0,0,1-.27.61,2.3,2.3,0,0,1-.68.39,3.72,3.72,0,0,1-.89.27l-1,.13a8.45,8.45,0,0,1-.85,0l-.57,0A6,6,0,0,1,42,15.66a5,5,0,0,1-1.63-1.08,4.87,4.87,0,0,1-1-1.67A6.56,6.56,0,0,1,39,10.73ZM41,9.5a2.16,2.16,0,0,0,.17,1c.13.2.42.3.89.3a3,3,0,0,0,1-.17,3.31,3.31,0,0,0,.85-.51,2.5,2.5,0,0,0,.62-.76,1.94,1.94,0,0,0,.23-.95,4.15,4.15,0,0,0,0-.59,1.39,1.39,0,0,0-.19-.54,1.24,1.24,0,0,0-.4-.42,1,1,0,0,0-.61-.17,2.17,2.17,0,0,0-1,.26,2.62,2.62,0,0,0-.78.67,2.75,2.75,0,0,0-.49.91A3.09,3.09,0,0,0,41,9.5Z"></path><path class="cls-1" d="M58,8.89V8.53c0-.17,0-.36,0-.55s0-.37,0-.55,0-.3,0-.37a1.59,1.59,0,0,1,.53-.5,5,5,0,0,1,.68-.3,14,14,0,0,0,.32,2.18c.18.77.37,1.55.57,2.33s.38,1.53.53,2.29a9.77,9.77,0,0,1,.25,2.13A.76.76,0,0,1,60,16a1.11,1.11,0,0,1-.89-.44,3.37,3.37,0,0,1-.59-1.1A11.32,11.32,0,0,1,58.2,13c-.09-.56-.15-1.1-.19-1.63s0-1-.06-1.46Zm.27-7.1a1.35,1.35,0,0,1,.6.49.85.85,0,0,1,.21.63c0,.17-.15.3-.41.37a2.68,2.68,0,0,1-1.33-.22,1.91,1.91,0,0,1,.19-.89A.75.75,0,0,1,58.22,1.79Z"></path><path class="cls-1" d="M60.63,6.45a.3.3,0,0,1,0-.1.18.18,0,0,1,0-.09A3.26,3.26,0,0,1,60.89,6c.11-.1.17-.15.19-.15h3.81c0-.14,0-.36,0-.66s-.08-.64-.12-1,0-.74,0-1.13A4.73,4.73,0,0,1,64.86,2a1.88,1.88,0,0,1,.45-.8A1.21,1.21,0,0,1,66.2.86a14,14,0,0,0,.27,3.07,5.07,5.07,0,0,0,.7,1.78,2.11,2.11,0,0,0,1,.82,3.51,3.51,0,0,0,1.16.17,6.49,6.49,0,0,0,1.17-.19,8.33,8.33,0,0,1,1-.21,1.16,1.16,0,0,1,.72.09c.17.09.26.31.26.67a.7.7,0,0,1-.19.56,1.25,1.25,0,0,1-.68.27L71.13,8,70.35,8l-.93.1-.93.07-.79.06h-.53c0,.06,0,.17,0,.32s0,.25,0,.3a5.29,5.29,0,0,0,.26,1.63q.27.78.57,1.56c.22.52.41,1,.59,1.55a4.9,4.9,0,0,1,.27,1.61,1.87,1.87,0,0,1,0,.32.62.62,0,0,1-.12.29.5.5,0,0,1-.24.17A.62.62,0,0,1,68,16a1.72,1.72,0,0,1-1.08-.81,5.05,5.05,0,0,1-.51-1.48,14.91,14.91,0,0,1-.23-1.84c0-.65-.1-1.25-.19-1.8a4.86,4.86,0,0,0-.38-1.44,1.17,1.17,0,0,0-.85-.74l-3.66-.83S61,7,60.86,6.9a1.16,1.16,0,0,1-.19-.24.16.16,0,0,1,0-.1A.27.27,0,0,1,60.63,6.45Z"></path><path class="cls-1" d="M81.6,8.89V8.53c0-.17,0-.36,0-.55s0-.37,0-.55,0-.3,0-.37a1.5,1.5,0,0,1,.53-.5,4.54,4.54,0,0,1,.68-.3,12.91,12.91,0,0,0,.32,2.18c.18.77.37,1.55.57,2.33s.38,1.53.53,2.29a10.42,10.42,0,0,1,.25,2.13.77.77,0,0,1-.88.85,1.12,1.12,0,0,1-.89-.44,3.36,3.36,0,0,1-.58-1.1A11.27,11.27,0,0,1,81.84,13c-.08-.56-.15-1.1-.18-1.63s0-1-.06-1.46Zm.26-7.1a1.38,1.38,0,0,1,.61.49,1,1,0,0,1,.21.63c0,.17-.15.3-.42.37a2.64,2.64,0,0,1-1.32-.22,2,2,0,0,1,.18-.89A.76.76,0,0,1,81.86,1.79Z"></path><path class="cls-1" d="M84.69,9.61a.87.87,0,0,1,.25-.7,1.15,1.15,0,0,1,.79-.22h.19c0,.2.09.43.14.7a5.46,5.46,0,0,0,.22.81,7,7,0,0,0,.36.78,1.72,1.72,0,0,0,.52.55,3,3,0,0,1,.32-1.27,4.2,4.2,0,0,1,.78-1.1,4.65,4.65,0,0,1,1-.82,3.87,3.87,0,0,1,1.12-.45h.41a2.8,2.8,0,0,1,1.56.42,3.25,3.25,0,0,1,1.06,1.06,4.87,4.87,0,0,1,.66,1.48,11.9,11.9,0,0,1,.34,1.7,12.18,12.18,0,0,1,.15,1.67c0,.53,0,1,0,1.36H93.24c-.08-.75-.17-1.48-.29-2.18a8,8,0,0,0-.15-.87q-.09-.46-.21-.87a6.2,6.2,0,0,0-.24-.76,2.79,2.79,0,0,0-.3-.6c-.06-.05-.12-.12-.21-.21l-.25-.27-.25-.23a.47.47,0,0,0-.13-.09,1,1,0,0,0-1,.23,3.19,3.19,0,0,0-.74,1A6.76,6.76,0,0,0,89,12.13c-.13.53-.24,1-.33,1.54s-.15.9-.19,1.27-.06.57-.07.64a1,1,0,0,1-.89.21,1.9,1.9,0,0,1-.8-.6A5.52,5.52,0,0,1,86,14.05c-.19-.46-.37-.94-.53-1.44s-.32-1-.46-1.56S84.79,10.06,84.69,9.61Z"></path><path class="cls-1" d="M1.56,29.66v-.59c0-.29,0-.6,0-.91v-.87c0-.27,0-.47,0-.58a5.31,5.31,0,0,1,.45-.64,1.42,1.42,0,0,1,.55-.44.94.94,0,0,1,.64-.06,1.37,1.37,0,0,1,.72.56v.58c0,.09-.05.32-.11.67s-.12.7-.19,1.11-.15.79-.22,1.14a4.93,4.93,0,0,0-.09.64,10.7,10.7,0,0,0,.11,1.33c.08.52.18,1.07.31,1.64s.32,1.15.53,1.73a8.32,8.32,0,0,0,.78,1.55,5.12,5.12,0,0,0,1,1.12,2,2,0,0,0,1.28.44,2.69,2.69,0,0,0,1.56-.47,4.47,4.47,0,0,0,1.19-1.22,7.42,7.42,0,0,0,.81-1.7,13.3,13.3,0,0,0,.52-1.89,16.8,16.8,0,0,0,.28-1.86q.09-.9.09-1.56a7,7,0,0,0-.11-1.25,11.57,11.57,0,0,0-.23-1.2c-.09-.39-.17-.77-.25-1.14a9.17,9.17,0,0,1-.08-1.16.79.79,0,0,1,.36-.75,1.7,1.7,0,0,1,.86-.23,1.29,1.29,0,0,1,.95.36,2.2,2.2,0,0,1,.55.87,4,4,0,0,1,.28,1.22,9.89,9.89,0,0,1,.08,1.33c0,.45,0,.87,0,1.28s0,.71,0,.95A19.42,19.42,0,0,1,14,31.8a15.46,15.46,0,0,1-.5,2.47,17.78,17.78,0,0,1-.86,2.48,9.75,9.75,0,0,1-1.25,2.19,6,6,0,0,1-1.7,1.53,4,4,0,0,1-2.14.59,4.11,4.11,0,0,1-2.2-.59,5.76,5.76,0,0,1-1.61-1.58,11.16,11.16,0,0,1-1.08-2.25A18.1,18.1,0,0,1,2,34.13c-.15-.83-.26-1.64-.33-2.42S1.56,30.23,1.56,29.66Z"></path><path class="cls-1" d="M20.38,40.44c-.29.26-.61.14-.94-.36a10.43,10.43,0,0,1-1-2.25c-.34-1-.67-2.23-1-3.64s-.63-2.9-.92-4.48-.59-3.17-.86-4.78-.5-3.16-.7-4.59c0-.25,0-.51,0-.77a2.86,2.86,0,0,1,.09-.75,1.5,1.5,0,0,1,.36-.64,1.66,1.66,0,0,1,.83-.42s.11,0,.22,0a2.2,2.2,0,0,1,.39.17,1.6,1.6,0,0,1,.34.2.9.9,0,0,1,.22.19A27.21,27.21,0,0,0,18.6,28.49a6.81,6.81,0,0,0,.45-.56c.24-.33.55-.71.92-1.14s.78-.91,1.25-1.41A16.25,16.25,0,0,1,22.72,24a9.57,9.57,0,0,1,1.56-1.06,3,3,0,0,1,1.5-.44,1.74,1.74,0,0,1,.8.19.75.75,0,0,1,.42.75.75.75,0,0,1,0,.17.39.39,0,0,0,0,.14l-1.36,1.19c-.59.54-1.22,1.14-1.89,1.81s-1.3,1.36-1.92,2.08a10.51,10.51,0,0,0-1.39,2.06.5.5,0,0,0-.05.31,1.46,1.46,0,0,1,.05.27l1,.34c.44.15.93.32,1.47.53s1.11.39,1.72.61,1.19.41,1.73.61l1.44.56,1,.33a4.46,4.46,0,0,0,.64.22.88.88,0,0,1,.39.17.42.42,0,0,1,.2.25,2,2,0,0,1,.05.5,1.18,1.18,0,0,1-.39,1.06,2.12,2.12,0,0,1-1.11.25A15.37,15.37,0,0,1,24.3,36a39.74,39.74,0,0,1-4.17-1.87,3.77,3.77,0,0,0,.06,1.23c.11.46.24.92.39,1.39s.29.91.42,1.36a5,5,0,0,1,.25,1.19,1.43,1.43,0,0,1-.12.84Q21,40.44,20.38,40.44Z"></path><path class="cls-1" d="M30.23,29.32a4.32,4.32,0,0,1,0-.5,1.91,1.91,0,0,1,.11-.47.86.86,0,0,1,.25-.36.92.92,0,0,1,.53-.14c.19,0,.39.15.61.45a6.09,6.09,0,0,1,.73,1.08,14.49,14.49,0,0,1,.69,1.42c.24.52.44,1,.61,1.44s.34.8.45,1.11a4,4,0,0,0,.19.51c.24-.65.51-1.36.81-2.12a11.32,11.32,0,0,1,1.08-2.11A6.94,6.94,0,0,1,37.88,28a3.7,3.7,0,0,1,2.22-.67,3.43,3.43,0,0,1,1.25.23,2.73,2.73,0,0,1,1.06.61,3,3,0,0,1,.75.94,2.77,2.77,0,0,1,.28,1.28.88.88,0,0,1-.5.86,2.28,2.28,0,0,1-1.09.25h-.27l-1.2-1.19a.1.1,0,0,1-.08,0h-.11a.12.12,0,0,0-.09,0,2.07,2.07,0,0,0-1.53.56,3.41,3.41,0,0,0-.8,1.33,6.44,6.44,0,0,0-.36,1.67c0,.58-.06,1.1-.06,1.59a6.46,6.46,0,0,0,.11,1.14c.08.37.16.74.25,1.11s.18.72.25,1.11a5.53,5.53,0,0,1,.11,1.17c0,.78-.41,1.17-1.25,1.17a2.17,2.17,0,0,1-1.44-.73,12.6,12.6,0,0,1-1.51-1.89,25.28,25.28,0,0,1-1.38-2.5q-.68-1.39-1.17-2.7c-.34-.87-.6-1.65-.81-2.36A7.15,7.15,0,0,1,30.23,29.32Z"></path><path class="cls-1" d="M55.54,37.41c-.71.49-1.32.92-1.84,1.31a12.53,12.53,0,0,1-1.47,1,6.19,6.19,0,0,1-1.56.58,8.63,8.63,0,0,1-2,.19,4.94,4.94,0,0,1-3.83-1.36A5.93,5.93,0,0,1,43.58,35a9.54,9.54,0,0,1,.28-2.2,12.14,12.14,0,0,1,.81-2.25A13.32,13.32,0,0,1,46,28.38a9.72,9.72,0,0,1,1.69-1.81,8.2,8.2,0,0,1,2-1.22A5.61,5.61,0,0,1,52,24.88a6.44,6.44,0,0,1,3.14,1,4.94,4.94,0,0,1,1.73,2,9.2,9.2,0,0,1,.8,2.75c.15,1,.26,2,.34,3.11s.2,2.15.33,3.23a10.17,10.17,0,0,0,.81,3,4.34,4.34,0,0,1-.7,1.28.46.46,0,0,1-.69.14,3.57,3.57,0,0,1-.92-1.22C56.46,39.52,56,38.6,55.54,37.41ZM46,35a3.8,3.8,0,0,0,.58,2.34,2.69,2.69,0,0,0,2.14.72,6.05,6.05,0,0,0,2.17-.39,6.15,6.15,0,0,0,1.84-1.11,5.85,5.85,0,0,0,1.25-1.72,5.24,5.24,0,0,0,.47-2.23c0-.33,0-.79,0-1.39a9.79,9.79,0,0,0-.11-1.8,4.19,4.19,0,0,0-.53-1.53,1.26,1.26,0,0,0-1.17-.67A5,5,0,0,0,50,28a7.48,7.48,0,0,0-2.11,1.86,9.17,9.17,0,0,0-1.39,2.53A7.5,7.5,0,0,0,46,35Z"></path><path class="cls-1" d="M61.16,30.58v-.53q0-.39,0-.81t0-.81c0-.26,0-.44,0-.55a2.31,2.31,0,0,1,.77-.72,5.59,5.59,0,0,1,1-.45,18.47,18.47,0,0,0,.47,3.2c.26,1.13.54,2.27.83,3.42s.56,2.25.78,3.36a14.79,14.79,0,0,1,.36,3.11,1.12,1.12,0,0,1-1.28,1.26,1.63,1.63,0,0,1-1.3-.64A5.18,5.18,0,0,1,62,38.8a17.3,17.3,0,0,1-.5-2.19c-.13-.82-.22-1.61-.27-2.39s-.07-1.5-.09-2.14Zm.39-10.43a2.13,2.13,0,0,1,.89.72,1.36,1.36,0,0,1,.31.92c0,.26-.23.45-.61.56a4,4,0,0,1-2-.34,2.8,2.8,0,0,1,.28-1.3A1.12,1.12,0,0,1,61.55,20.15Z"></path><path class="cls-1" d="M65.7,31.63a1.3,1.3,0,0,1,.36-1,1.7,1.7,0,0,1,1.17-.33h.28c0,.3.12.64.19,1A7.92,7.92,0,0,0,68,32.49a6.62,6.62,0,0,0,.53,1.14,2.44,2.44,0,0,0,.75.81,4.2,4.2,0,0,1,.47-1.86,6.81,6.81,0,0,1,2.64-2.81,5.36,5.36,0,0,1,1.64-.67h.61a4.17,4.17,0,0,1,2.28.61,4.84,4.84,0,0,1,1.56,1.56,7.28,7.28,0,0,1,1,2.17,18.75,18.75,0,0,1,.5,2.5,18.89,18.89,0,0,1,.22,2.45c0,.78.06,1.44.06,2h-2c-.11-1.11-.25-2.18-.42-3.2,0-.41-.13-.83-.22-1.28a12.66,12.66,0,0,0-.31-1.28q-.17-.6-.36-1.11a4.34,4.34,0,0,0-.44-.89l-.31-.3q-.17-.19-.36-.39l-.36-.34a.77.77,0,0,0-.2-.14,1.48,1.48,0,0,0-1.44.34,4.6,4.6,0,0,0-1.08,1.44A9.87,9.87,0,0,0,72,35.33q-.28,1.17-.48,2.25c-.13.7-.22,1.33-.27,1.86s-.1.84-.12,1a1.43,1.43,0,0,1-1.3.3,2.69,2.69,0,0,1-1.17-.89,7.57,7.57,0,0,1-1-1.66c-.28-.67-.54-1.37-.78-2.12s-.46-1.52-.67-2.28S65.85,32.28,65.7,31.63Z"></path><path class="cls-1" d="M80.94,33.27a12.32,12.32,0,0,1,.37-3,8.59,8.59,0,0,1,1.14-2.7,6.45,6.45,0,0,1,2-1.94,6,6,0,0,1,3.09-.75,4,4,0,0,1,1.81.39,3.82,3.82,0,0,1,1.3,1,4,4,0,0,1,.78,1.44,5.09,5.09,0,0,1,.28,1.7,6,6,0,0,1-.67,2.75,7.76,7.76,0,0,1-1.75,2.36A7.46,7.46,0,0,1,86.84,36a5.48,5.48,0,0,1-2.89.23,1.83,1.83,0,0,0,.52,1.3,3.66,3.66,0,0,0,1.26.73,7.42,7.42,0,0,0,1.5.33c.52,0,1,0,1.39,0a5.66,5.66,0,0,0,1.19-.11c.37-.07.74-.15,1.11-.25L92,38.05a6.83,6.83,0,0,1,1.22-.11,4.19,4.19,0,0,1,.5,0,1.28,1.28,0,0,1,.47.14.7.7,0,0,1,.36.3.81.81,0,0,1,.14.51,1.15,1.15,0,0,1-.39.88,3.52,3.52,0,0,1-1,.59,6.62,6.62,0,0,1-1.3.39c-.49.07-1,.14-1.42.19s-.86.06-1.25.06l-.84,0a8.68,8.68,0,0,1-3.19-.56A7,7,0,0,1,83,38.92a7.37,7.37,0,0,1-1.51-2.45A9.85,9.85,0,0,1,80.94,33.27Zm3-1.81a3,3,0,0,0,.25,1.42c.19.3.62.45,1.31.45a4.38,4.38,0,0,0,1.42-.25,4.78,4.78,0,0,0,1.25-.75A3.49,3.49,0,0,0,89,31.21a2.86,2.86,0,0,0,.34-1.39,4.41,4.41,0,0,0-.09-.86,2,2,0,0,0-.27-.8,1.76,1.76,0,0,0-.59-.62,1.49,1.49,0,0,0-.89-.25,3.11,3.11,0,0,0-1.53.39,3.68,3.68,0,0,0-1.14,1,4.6,4.6,0,0,0-1,2.8Z"></path></svg>