<svg data-v-8a73b982="" data-v-faa4a7f4="" fill="none" height="66" viewbox="0 0 135 66" width="135" xmlns="http://www.w3.org/2000/svg"><path d="M0 49.7309V33.5485H9.02965C14.1078 33.5485 18.5666 33.82 19.2186 34.1689C20.2984 34.7468 20.3779 35.5243 20.3779 45.5137C20.3779 58.4865 20.568 58.1218 13.8064 58.1218C8.48265 58.1218 8.39089 58.2039 8.39089 62.9656V65.9134H4.19545H0V49.7309ZM11.3876 45.8993C11.3876 39.3536 11.2234 37.8091 10.4978 37.5307C8.97097 36.9448 8.39089 39.2069 8.39089 45.7467C8.39089 52.8321 8.64001 53.9264 10.2531 53.9264C11.3098 53.9264 11.3876 53.3756 11.3876 45.8993ZM23.9951 64.7541C23.6147 64.0434 23.3746 57.7813 23.3746 48.5716V33.5485H27.8698H32.3649V46.6196C32.3649 56.6388 32.5536 59.9488 33.173 60.7959C35.0317 63.3378 35.3616 61.3029 35.3616 47.2981V33.5485H39.8568H44.3519V49.0117C44.3519 60.2395 44.1549 64.6719 43.6327 65.1941C43.1361 65.6907 40.0812 65.9134 33.7645 65.9134C25.3326 65.9134 24.5669 65.8225 23.9951 64.7541ZM47.3486 50.4501C47.3486 39.2223 47.5456 34.7899 48.0678 34.2677C49.09 33.2456 77.3728 33.2456 78.3949 34.2677C78.9172 34.7899 79.1142 39.2223 79.1142 50.4501V65.9134H74.619H70.1239V51.7847C70.1239 38.6516 70.05 37.6702 69.075 37.8577C68.1176 38.0418 68.0122 39.2732 67.8653 51.9864L67.7044 65.9134H63.2203H58.7363V52.2017C58.7363 41.5559 58.5589 38.3428 57.9428 37.8316C56.0506 36.2611 55.7395 38.2963 55.7395 52.2482V65.9134H51.5441H47.3486V50.4501ZM82.7103 50.3514C82.7103 35.5791 82.7691 34.7579 83.8695 34.1689C85.5458 33.2718 101.458 33.3568 102.369 34.2677C102.891 34.7899 103.088 39.2223 103.088 50.4501V65.9134H98.6204H94.1527L93.9754 61.8677C93.8389 58.75 93.592 57.8221 92.8992 57.8221C92.2064 57.8221 91.9595 58.75 91.8229 61.8677L91.6457 65.9134H87.178H82.7103V50.3514ZM93.7982 45.7852C93.7982 39.3033 93.6519 38.0436 92.8992 38.0436C92.1597 38.0436 91.97 39.3139 91.8303 45.2009C91.6502 52.7892 91.8475 54.177 93.0493 53.7764C93.5967 53.594 93.7982 51.444 93.7982 45.7852Z" data-v-8a73b982="" fill="white"></path> <path d="M121.35 51.8655C120.971 51.4088 120.308 49.8199 120.176 48.1549C119.945 45.23 120.547 45.4431 116.963 41.8444C114.073 38.9425 112.194 37.0361 110.894 33.2135C108.848 27.1937 106.171 25.6157 102.892 25.6157C99.856 25.6157 95.0219 24.642 92.436 23.5095C91.2104 22.9728 88.8319 21.2934 87.1505 19.7775L84.0933 17.0214L82.689 18.126C80.8246 19.5926 78.1995 19.5193 74.245 17.8903C70.564 16.3739 69.8693 16.4671 69.8693 17.5331C69.8693 18.7897 68.8934 18.8467 67.5006 17.934C64.5695 16.0135 67.0448 12.8873 71.9714 13.1325C74.9047 13.2771 75.0431 13.3027 75.0431 12.1044C75.0431 10.6875 74.1689 10.1852 71.7032 10.1852C70.6447 10.1852 69.7221 9.83351 68.801 8.95104C68.2359 8.61064 67.7312 8.34549 67.4083 7.5698C67.6773 6.58515 67.9536 5.95837 68.4781 5.48488C68.9882 4.49014 69.5936 3.41662 70.6695 2.73733C71.2889 2.3463 71.8923 1.12842 72.3642 0.648113C72.7816 0.223221 72.764 0.0901985 73.4826 0.683415C74.2213 1.29319 74.5085 1.2965 75.223 0.703498C75.9433 0.105682 76.1754 0.125539 76.6898 0.828989C77.0259 1.28861 78.2419 2.53271 79.9173 2.92657C84.5867 4.02424 88.7146 6.49006 96.234 12.6929C105.814 20.5952 106.768 20.2546 111.317 20.7111C116.656 21.2469 118.664 19.2624 122.493 10.8166C125.007 5.27142 126.636 3.1449 129.675 1.22638C132.257 -0.403273 134.51 -0.4641 134.689 1.37751C134.861 3.14371 134.842 3.98797 131.037 6.28415C126.806 8.83776 125.552 10.1401 122.891 15.652C121.521 18.4904 119.857 21.0255 118.647 22.1184L116.658 23.916L117.979 26.5872C118.958 28.5646 119.367 30.4093 119.552 33.6891C119.896 39.7762 119.487 39.2049 121.543 41.1554C122.498 42.0624 122.873 41.3369 123.262 43.1637C123.631 44.8972 123.726 45.7607 124.531 47.9408C125.034 49.3048 124.573 48.5175 124.383 50.4448C124.238 51.9114 124.583 51.3631 123.942 52.892C123.662 53.5587 121.729 52.3222 121.35 51.8655Z" data-v-8a73b982="" fill="white"></path></svg>