<svg data-v-faa4a7f4="" height="72px" version="1.1" viewbox="0 0 404 72" width="404px" xmlns="http://www.w3.org/2000/svg" xmlns:xlink="http://www.w3.org/1999/xlink"><title>mc_hrz_solid_rev</title> <desc>Created with Sketch.</desc> <g fill="none" fill-rule="evenodd" id="Page-1" stroke="none" stroke-width="1"><path d="M58.249,7.71 C57.785,8.075 57.331,8.451 56.887,8.838 C49.301,15.438 44.499,25.155 44.499,36 C44.499,46.844 49.301,56.561 56.887,63.162 C57.331,63.548 57.785,63.924 58.249,64.289 C58.713,63.924 59.167,63.548 59.612,63.162 C67.198,56.561 71.999,46.844 71.999,36 C71.999,25.155 67.198,15.438 59.612,8.838 C59.167,8.451 58.713,8.075 58.249,7.71 L58.249,7.71 Z M80.498,0 C73.128,0 66.276,2.216 60.569,6.017 C60.861,6.256 61.157,6.491 61.439,6.737 C69.921,14.116 74.784,24.782 74.784,36 C74.784,47.218 69.921,57.884 61.44,65.262 C61.159,65.507 60.861,65.743 60.569,65.983 C66.276,69.783 73.128,71.999 80.498,71.999 C100.38,71.999 116.498,55.882 116.498,36 C116.498,16.117 100.38,0 80.498,0 Z M55.059,65.262 C55.34,65.507 55.637,65.743 55.929,65.983 C50.223,69.784 43.371,72 36,72 C16.117,72 0,55.882 0,36 C0,16.118 16.117,0 36,0 C43.371,0 50.223,2.216 55.929,6.016 C55.637,6.256 55.342,6.491 55.059,6.736 C46.578,14.116 41.714,24.782 41.714,36 C41.714,47.218 46.578,57.884 55.059,65.262 Z M188.397,36.155 C188.397,31.948 191.152,28.493 195.659,28.493 C199.967,28.493 202.872,31.798 202.872,36.155 C202.872,40.513 199.967,43.819 195.659,43.819 C191.152,43.819 188.397,40.363 188.397,36.155 Z M207.781,36.155 L207.781,24.185 L202.571,24.185 L202.571,27.09 C200.918,24.936 198.414,23.584 195.008,23.584 C188.297,23.584 183.038,28.843 183.038,36.155 C183.038,43.468 188.297,48.728 195.008,48.728 C198.414,48.728 200.918,47.375 202.571,45.221 L202.571,48.126 L207.781,48.126 L207.781,36.155 Z M383.686,36.155 C383.686,31.948 386.44,28.493 390.948,28.493 C395.255,28.493 398.16,31.798 398.16,36.155 C398.16,40.513 395.255,43.819 390.948,43.819 C386.44,43.819 383.686,40.363 383.686,36.155 Z M403.069,36.155 L403.069,14.568 L397.86,14.568 L397.86,27.09 C396.207,24.936 393.703,23.584 390.297,23.584 C383.585,23.584 378.326,28.843 378.326,36.155 C378.326,43.468 383.585,48.728 390.297,48.728 C393.703,48.728 396.207,47.375 397.86,45.221 L397.86,48.126 L403.069,48.126 L403.069,36.155 Z M272.392,28.242 C275.748,28.242 277.902,30.345 278.453,34.052 L266.032,34.052 C266.582,30.596 268.686,28.242 272.392,28.242 Z M272.493,23.584 C265.481,23.584 260.572,28.692 260.572,36.155 C260.572,43.769 265.681,48.728 272.843,48.728 C276.45,48.728 279.755,47.826 282.66,45.372 L280.106,41.515 C278.102,43.117 275.548,44.019 273.144,44.019 C269.788,44.019 266.733,42.467 265.981,38.159 L283.762,38.159 C283.812,37.508 283.862,36.857 283.862,36.155 C283.812,28.692 279.204,23.584 272.493,23.584 Z M335.351,36.155 C335.351,31.948 338.106,28.493 342.614,28.493 C346.922,28.493 349.827,31.798 349.827,36.155 C349.827,40.513 346.922,43.819 342.614,43.819 C338.106,43.819 335.351,40.363 335.351,36.155 Z M354.735,36.155 L354.735,24.185 L349.526,24.185 L349.526,27.09 C347.873,24.936 345.369,23.584 341.963,23.584 C335.252,23.584 329.993,28.843 329.993,36.155 C329.993,43.468 335.252,48.728 341.963,48.728 C345.369,48.728 347.873,47.375 349.526,45.221 L349.526,48.126 L354.735,48.126 L354.735,36.155 Z M305.95,36.155 C305.95,43.418 311.01,48.728 318.723,48.728 C322.329,48.728 324.733,47.926 327.338,45.872 L324.834,41.665 C322.88,43.068 320.826,43.819 318.572,43.819 C314.415,43.769 311.36,40.763 311.36,36.155 C311.36,31.548 314.415,28.542 318.572,28.493 C320.826,28.493 322.88,29.243 324.834,30.646 L327.338,26.439 C324.733,24.385 322.329,23.584 318.723,23.584 C311.01,23.584 305.95,28.893 305.95,36.155 Z M373.067,23.584 C370.062,23.584 368.108,24.986 366.756,27.09 L366.756,24.185 L361.597,24.185 L361.597,48.126 L366.806,48.126 L366.806,34.703 C366.806,30.746 368.509,28.542 371.915,28.542 C372.967,28.542 374.069,28.692 375.171,29.143 L376.774,24.235 C375.621,23.784 374.119,23.584 373.067,23.584 Z M233.525,26.088 C231.02,24.435 227.565,23.584 223.758,23.584 C217.697,23.584 213.791,26.489 213.791,31.247 C213.791,35.154 216.696,37.558 222.055,38.309 L224.509,38.66 C227.364,39.06 228.717,39.812 228.717,41.164 C228.717,43.018 226.813,44.069 223.257,44.069 C219.651,44.069 217.046,42.917 215.293,41.565 L212.839,45.622 C215.694,47.726 219.301,48.728 223.207,48.728 C230.119,48.728 234.126,45.471 234.126,40.914 C234.126,36.706 230.971,34.503 225.761,33.751 L223.308,33.401 C221.053,33.1 219.25,32.65 219.25,31.047 C219.25,29.294 220.953,28.242 223.808,28.242 C226.863,28.242 229.819,29.394 231.271,30.296 L233.525,26.088 Z M300.692,23.584 C297.687,23.584 295.733,24.986 294.381,27.09 L294.381,24.185 L289.222,24.185 L289.222,48.126 L294.43,48.126 L294.43,34.703 C294.43,30.746 296.134,28.542 299.54,28.542 C300.591,28.542 301.693,28.692 302.795,29.143 L304.398,24.235 C303.246,23.784 301.743,23.584 300.692,23.584 Z M256.264,24.185 L247.75,24.185 L247.75,16.922 L242.491,16.922 L242.491,24.185 L237.632,24.185 L237.632,28.943 L242.491,28.943 L242.491,39.862 C242.491,45.422 244.644,48.728 250.805,48.728 C253.059,48.728 255.663,48.026 257.316,46.874 L255.814,42.416 C254.261,43.318 252.558,43.769 251.206,43.769 C248.601,43.769 247.75,42.166 247.75,39.762 L247.75,28.943 L256.264,28.943 L256.264,24.185 Z M178.429,48.126 L178.429,33.1 C178.429,27.44 174.823,23.634 169.013,23.584 C165.958,23.534 162.803,24.485 160.599,27.841 C158.946,25.187 156.341,23.584 152.685,23.584 C150.13,23.584 147.626,24.335 145.673,27.14 L145.673,24.185 L140.464,24.185 L140.464,48.126 L145.723,48.126 L145.723,34.853 C145.723,30.696 148.027,28.493 151.583,28.493 C155.039,28.493 156.792,30.746 156.792,34.803 L156.792,48.126 L162.051,48.126 L162.051,34.853 C162.051,30.696 164.455,28.493 167.911,28.493 C171.467,28.493 173.17,30.746 173.17,34.803 L173.17,48.126 L178.429,48.126 Z" fill="#FFFFFE" id="mc_hrz_solid_rev"></path></g></svg>