<svg data-v-faa4a7f4="" fill="none" height="56" viewbox="0 0 171 56" width="171" xmlns="http://www.w3.org/2000/svg"><path d="M73.1257 29.47C73.1257 37.5268 66.7947 43.4637 59.0252 43.4637C51.2557 43.4637 44.9248 37.5268 44.9248 29.47C44.9248 21.3565 51.2557 15.4763 59.0252 15.4763C66.7947 15.4763 73.1257 21.3565 73.1257 29.47ZM66.9532 29.47C66.9532 24.4353 63.2839 20.9905 59.0252 20.9905C54.7666 20.9905 51.0973 24.4353 51.0973 29.47C51.0973 34.4543 54.7666 37.9495 59.0252 37.9495C63.2839 37.9495 66.9532 34.448 66.9532 29.47Z" fill="white"></path> <path d="M103.545 29.47C103.545 37.5268 97.2137 43.4637 89.4442 43.4637C81.6747 43.4637 75.3438 37.5268 75.3438 29.47C75.3438 21.3628 81.6747 15.4763 89.4442 15.4763C97.2137 15.4763 103.545 21.3565 103.545 29.47ZM97.3721 29.47C97.3721 24.4353 93.7028 20.9905 89.4442 20.9905C85.1855 20.9905 81.5163 24.4353 81.5163 29.47C81.5163 34.4543 85.1855 37.9495 89.4442 37.9495C93.7028 37.9495 97.3721 34.448 97.3721 29.47Z" fill="white"></path> <path d="M132.696 16.3217V41.4448C132.696 51.7792 126.574 56 119.337 56C112.524 56 108.424 51.4637 106.878 47.754L112.252 45.5268C113.208 47.8044 115.553 50.4921 119.33 50.4921C123.963 50.4921 126.834 47.6467 126.834 42.2902V40.2776H126.618C125.237 41.9748 122.575 43.4574 119.216 43.4574C112.188 43.4574 105.75 37.3628 105.75 29.5205C105.75 21.6214 112.188 15.4763 119.216 15.4763C122.569 15.4763 125.23 16.959 126.618 18.6057H126.834V16.3281H132.696V16.3217ZM127.271 29.5205C127.271 24.593 123.969 20.9905 119.768 20.9905C115.509 20.9905 111.941 24.593 111.941 29.5205C111.941 34.3975 115.509 37.9495 119.768 37.9495C123.969 37.9495 127.271 34.3975 127.271 29.5205Z" fill="white"></path> <path d="M142.361 1.59619V42.6057H136.34V1.59619H142.361Z" fill="white"></path> <path d="M165.821 34.0757L170.612 37.2555C169.066 39.5331 165.34 43.4574 158.901 43.4574C150.916 43.4574 144.953 37.3123 144.953 29.4637C144.953 21.1419 150.967 15.47 158.21 15.47C165.504 15.47 169.072 21.2492 170.238 24.3722L170.878 25.9621L152.088 33.7097C153.527 36.5173 155.764 37.9495 158.901 37.9495C162.044 37.9495 164.224 36.4101 165.821 34.0757ZM151.074 29.041L163.635 23.8485C162.944 22.1009 160.866 20.8832 158.419 20.8832C155.282 20.8832 150.916 23.6403 151.074 29.041V29.041Z" fill="white"></path> <path d="M22.1361 25.8297V19.8928H42.2316C42.428 20.9275 42.5294 22.1514 42.5294 23.4764C42.5294 27.9306 41.3063 33.4385 37.3646 37.3628C33.5305 41.3376 28.6318 43.4575 22.1424 43.4575C10.1143 43.4575 0 33.7035 0 21.7287C0 9.75395 10.1143 0 22.1424 0C28.7966 0 33.5368 2.59937 37.0984 5.98739L32.8904 10.1767C30.3365 7.79181 26.8764 5.93691 22.1361 5.93691C13.3526 5.93691 6.48303 12.9842 6.48303 21.7287C6.48303 30.4732 13.3526 37.5205 22.1361 37.5205C27.8333 37.5205 31.078 35.2429 33.1566 33.1735C34.8423 31.4953 35.9513 29.0978 36.3886 25.8234L22.1361 25.8297V25.8297Z" fill="white"></path></svg>