<svg data-v-5f725a8d="" height="30px" version="1.1" viewbox="0 0 225 30" width="225px" xmlns="http://www.w3.org/2000/svg" xmlns:xlink="http://www.w3.org/1999/xlink"><title>Logo</title> <desc>Created with Sketch.</desc> <defs><polygon id="path-1" points="0 29.61 225 29.61 225 0 0 0"></polygon></defs> <g fill="none" fill-rule="evenodd" id="Aim_Landing_1366" stroke="none" stroke-width="1"><g id="AIM_Landing_page_1366" transform="translate(-97.000000, -30.000000)"><g id="1st-screen" transform="translate(97.000000, 30.000000)"><g id="Header"><g id="Logo"><path d="M119.744875,16.628625 C118.173625,17.806125 118.342375,20.219875 120.026125,21.173625 C120.978625,21.678625 121.933625,21.847375 122.999875,21.847375 L129.171125,21.847375 L129.396125,21.847375 L129.396125,15.731125 L129.059875,15.731125 L122.943625,15.731125 C121.821125,15.731125 120.698625,15.954875 119.744875,16.628625 Z M129.452375,13.429875 C129.452375,11.466125 129.452375,9.502375 129.508625,7.426125 L129.171125,7.426125 C127.039875,7.426125 124.963625,7.426125 122.831125,7.482375 C121.877375,7.482375 120.978625,7.706125 120.193625,8.379875 C119.071125,9.333625 118.958625,11.691125 120.586125,12.643625 C121.372375,13.149875 122.213625,13.373625 123.111125,13.373625 C125.187375,13.429875 127.208625,13.429875 129.283625,13.429875 L129.452375,13.429875 Z M115.984875,18.479875 C116.153625,16.572375 117.218625,15.394875 119.014875,14.608625 C119.183625,14.552375 119.296125,14.439875 119.463625,14.327375 C119.296125,14.271125 119.183625,14.103625 119.014875,14.048625 C117.331125,13.262375 116.602375,11.914875 116.602375,10.119875 C116.658625,7.931125 117.837375,6.247375 120.026125,5.573625 C120.754875,5.351125 121.541125,5.294875 122.324875,5.126125 C122.381125,5.126125 122.493625,5.069875 122.549875,5.069875 L132.089875,5.069875 C132.146125,5.182375 132.146125,5.294875 132.146125,5.406125 L132.146125,23.867375 L132.146125,24.259875 L131.808625,24.259875 L123.054875,24.259875 C121.484875,24.259875 119.969875,24.036125 118.567375,23.306125 C116.771125,22.408625 115.759875,20.501125 115.984875,18.479875 Z" fill="#FFFFFF" id="Fill-1"></path> <path d="M98.702375,5.06975 C98.702375,5.18225 98.758625,5.351 98.758625,5.461 L98.758625,15.8985 C98.758625,16.741 98.814875,17.5835 99.039875,18.3685 C99.544875,20.051 100.498625,21.22975 102.181125,21.791 C103.247375,22.12725 104.257375,22.1835 105.379875,22.016 C106.894875,21.791 108.073625,21.11725 108.914875,19.82725 C109.644875,18.70475 109.869875,17.471 109.869875,16.1235 L109.869875,5.0135 L112.506125,5.0135 L112.506125,16.011 C112.506125,17.07725 112.393625,18.19975 112.057375,19.211 C111.384875,21.34225 110.092375,22.9685 108.073625,23.86725 C106.109875,24.76475 104.033625,24.821 101.957375,24.37225 C99.823625,23.86725 98.197375,22.6335 97.131125,20.6685 C96.401125,19.266 96.122375,17.751 96.122375,16.1235 L96.122375,5.0135 C96.962375,5.06975 97.861125,5.06975 98.702375,5.06975" fill="#FFFFFF" id="Fill-3"></path> <path d="M143.9295,12.588125 C144.49075,13.149375 144.99575,13.710625 145.61325,14.328125 C145.72575,14.215625 145.78075,14.104375 145.89325,13.991875 C148.587,11.129375 151.28075,8.324375 153.97325,5.461875 C154.31075,5.125625 154.59075,5.125625 154.9845,5.181875 L154.9845,24.204375 L152.402,24.204375 L152.402,10.904375 L152.122,11.185625 C150.157,13.318125 148.13825,15.394375 146.1745,17.526875 C145.89325,17.863125 145.38825,17.863125 145.107,17.526875 C143.537,15.898125 142.022,14.215625 140.45075,12.588125 C139.9445,12.028125 139.44075,11.466875 138.82325,10.848125 L138.82325,24.204375 L136.242,24.204375 L136.242,5.125625 C136.522,5.238125 136.91575,5.181875 137.08325,5.350625 C139.32825,7.763125 141.62825,10.175625 143.9295,12.588125" fill="#FFFFFF" id="Fill-5"></path> <path d="M170.13425,18.76125 C170.24675,18.5925 170.303,18.42375 170.35925,18.25625 C171.53675,15.675 172.71425,13.15 173.89425,10.56875 C173.9505,10.45625 174.063,10.28875 174.17425,10.28875 C174.2855,10.28875 174.398,10.45625 174.45425,10.56875 C175.07175,11.86 175.633,13.15 176.2505,14.44 C176.92425,15.89875 177.54175,17.3025 178.21425,18.76125 L170.13425,18.76125 Z M164.57925,23.92375 L164.4105,24.26 L167.27175,24.26 C167.328,24.26 167.4405,24.14875 167.49675,24.03625 C167.9455,23.1375 168.39425,22.29625 168.788,21.3975 C168.9005,21.23 169.01175,21.1175 169.17925,21.1175 L179.05675,21.1175 C179.2805,21.1175 179.393,21.17375 179.50425,21.3975 C179.953,22.29625 180.34675,23.1375 180.7955,24.03625 C180.908,24.20375 181.0205,24.31625 181.188,24.31625 L183.8255,24.31625 C183.76925,24.14875 183.713,24.03625 183.65675,23.98 C180.628,17.8625 177.598,11.7475 174.5105,5.63 C174.45425,5.46125 174.398,5.295 174.11925,5.295 C173.89425,5.295 173.78175,5.35 173.66925,5.57375 C172.15425,8.605 170.63925,11.635 169.17925,14.665 C167.66425,17.63875 166.09425,20.78125 164.57925,23.92375 Z" fill="#FFFFFF" id="Fill-7"></path> <mask fill="white" id="mask-2"><use xlink:href="#path-1"></use></mask> <g id="Clip-10"></g> <polygon fill="#FFFFFF" id="Fill-9" mask="url(#mask-2)" points="159.47375 24.203875 161.99875 24.203875 161.99875 5.181375 159.47375 5.181375"></polygon> <path d="M0,7.481875 L0,5.069375 L14.19625,5.069375 C14.19625,5.125625 14.2525,5.125625 14.2525,5.181875 L14.2525,6.135625 L14.2525,23.979375 C14.2525,24.091875 14.19625,24.148125 14.19625,24.260625 L0,24.260625 L0,21.846875 L11.55875,21.846875 L11.55875,15.954375 L1.515,15.954375 L1.515,13.654375 L11.55875,13.654375 L11.55875,7.481875 L0,7.481875 Z" fill="#FFFFFF" id="Fill-11" mask="url(#mask-2)"></path> <path d="M19.246875,9.221375 C18.741875,8.548875 18.235625,7.875125 17.731875,7.201375 C17.900625,7.090125 18.013125,6.921375 18.125625,6.808875 C18.460625,6.585125 18.741875,6.303875 19.078125,6.135125 C21.604375,4.676375 24.296875,4.452625 27.045625,5.070125 C29.234375,5.573875 31.030625,6.696375 32.376875,8.436375 C34.284375,10.905125 34.790625,13.767625 34.284375,16.797625 C34.004375,18.592625 33.219375,20.163875 31.984375,21.566375 C30.469375,23.250125 28.616875,24.260125 26.373125,24.652625 C25.924375,24.708875 25.474375,24.765125 24.970625,24.820125 L23.510625,24.820125 C23.454375,24.820125 23.398125,24.765125 23.343125,24.765125 C22.108125,24.652625 20.930625,24.372625 19.864375,23.867625 C19.078125,23.473875 18.348125,23.025125 17.731875,22.408875 C18.235625,21.735125 18.741875,21.062625 19.246875,20.388875 C22.389375,23.081375 26.876875,23.025125 29.684375,20.220125 C32.376875,17.527625 32.545625,12.587625 29.795625,9.558875 C27.439375,6.921375 22.725625,6.191375 19.246875,9.221375" fill="#FFFFFF" id="Fill-12" mask="url(#mask-2)"></path> <path d="M40.961875,18.817375 C41.074375,18.704875 41.186875,18.648625 41.243125,18.536125 C45.564375,14.158625 49.940625,9.838625 54.261875,5.461125 C54.596875,5.126125 54.934375,5.069875 55.326875,5.182375 L55.326875,24.372375 L52.690625,24.372375 L52.690625,10.679875 C52.634375,10.624875 52.634375,10.624875 52.578125,10.568625 C52.521875,10.679875 52.465625,10.792375 52.409375,10.848625 C48.031875,15.282375 43.711875,19.658625 39.390625,24.036125 C39.054375,24.372375 38.718125,24.428625 38.325625,24.372375 L38.325625,5.182375 L40.961875,5.182375 L40.961875,18.817375 Z" fill="#FFFFFF" id="Fill-13" mask="url(#mask-2)"></path> <path d="M63.743875,18.817375 C63.856375,18.592375 63.912625,18.424875 64.025125,18.256125 C65.202625,15.674875 66.381375,13.093625 67.560125,10.512375 C67.616375,10.401125 67.728875,10.288625 67.840125,10.288625 C67.952625,10.288625 68.065125,10.401125 68.121375,10.512375 C69.355125,13.262375 70.645125,16.011125 71.881375,18.761125 C69.186375,18.817375 66.493875,18.817375 63.743875,18.817375 M59.255125,21.791125 C58.862625,22.633625 58.412625,23.474875 58.021375,24.316125 L61.051375,24.316125 C61.051375,24.259875 61.107625,24.148625 61.107625,24.092375 C61.555125,23.193625 62.003875,22.352375 62.453875,21.453625 C62.566375,21.286125 62.677625,21.229875 62.846375,21.229875 L72.833875,21.229875 C73.058875,21.229875 73.171375,21.286125 73.227625,21.509875 C73.675125,22.464875 74.181375,23.418625 74.686375,24.372375 L77.603875,24.372375 C77.378875,23.923625 77.210125,23.531125 76.987625,23.081125 C74.068875,17.133625 71.151375,11.241125 68.290125,5.406125 C68.233875,5.294875 68.233875,5.238625 68.177625,5.126125 L67.616375,5.126125 C64.811375,10.679875 62.060125,16.236125 59.255125,21.791125" fill="#FFFFFF" id="Fill-14" mask="url(#mask-2)"></path> <path d="M88.77075,21.454125 L88.77075,5.574125 L88.77075,5.125375 L91.35075,5.125375 C91.35075,5.181625 91.407,5.181625 91.407,5.237875 L91.407,6.191625 L91.407,24.035375 C91.407,24.147875 91.35075,24.204125 91.35075,24.316625 L79.23075,24.316625 L79.23075,21.902875 L88.77075,21.902875 L88.77075,21.454125 Z" fill="#FFFFFF" id="Fill-15" mask="url(#mask-2)"></path> <polygon fill="#FFFFFF" id="Fill-16" mask="url(#mask-2)" points="225 10.81075 221.065 3.99325 214.14625 7.987 214.14625 0.000749999999 206.275 0.000749999999 206.275 7.987 199.35625 3.99325 195.42125 10.81075 202.3375 14.8045 195.42125 18.7995 199.35625 25.617 206.275 21.622 206.275 29.6095 214.14625 29.6095 214.14625 21.622 221.065 25.617 225 18.7995 218.0825 14.8045"></polygon></g></g></g></g></g></svg>