<svg data-v-faa4a7f4="" fill="none" height="57" viewbox="0 0 272 57" width="272" xmlns="http://www.w3.org/2000/svg"><path d="M70.3002 18.5C70.4002 20.5 70.5002 25.7 70.5002 27.6C70.5002 29.3 70.5002 35.1 70.2002 37.6V37.8H79.3002C83.8002 37.8 88.5002 36.4 88.5002 32.5C88.5002 30 86.7002 28.2 83.4002 27.2C85.9002 26.5 87.5002 24.8 87.5002 22.9C87.5002 19.7 83.8002 18.5 80.3002 18.4H70.3002V18.5ZM77.3002 20.5C81.1002 20.5 82.5002 21.3 82.5002 23.4C82.5002 24 82.3002 24.5 82.0002 24.9C81.3002 25.8 79.9002 26.2 78.1002 26.1H78.0002L76.9002 28.9H78.0002C80.1002 28.8 81.9002 29.5 82.8002 30.6C83.2002 31.1 83.4002 31.7 83.4002 32.4C83.4002 34.5 81.5002 35.7 77.8002 35.7C77.2002 35.7 76.1002 35.7 75.5002 35.7C75.4002 32.8 75.3002 28.9 75.3002 27.8C75.3002 26.4 75.4002 23.4 75.5002 20.8C75.9002 20.6 76.6002 20.5 77.3002 20.5Z" fill="white"></path> <path d="M109.3 18.4H104.9L105.1 23.3C105.2 25.7 105.3 28.2 105.4 30.7C105.1 29.9 104.8 29.5 103.5 27.6C103.5 27.5 98.9002 20.5 97.3002 18.5H92.2002V18.7C92.4002 20.7 92.4002 25.9 92.4002 27.8C92.4002 29.5 92.4002 35.3 92.2002 37.8V38H96.8002V37.8C96.5002 33 96.5002 28.2 96.5002 23.6C96.7002 24.2 96.9002 24.6 97.6002 25.7C97.7002 25.8 105.5 37.3 105.9 37.9V38H109.6V37.8C109.3 35.3 109.3 29.5 109.3 27.8C109.3 25.9 109.4 20.8 109.5 18.7L109.6 18.5H109.3V18.4Z" fill="white"></path> <path d="M114.6 18.5C114.8 20.5 114.8 25.7 114.8 27.6C114.8 29.3 114.8 35.1 114.5 37.6V37.8H119.9V37.6C119.7 35.8 119.6 32.4001 119.6 29.7001C119.9 29.7001 120.6 29.8 120.6 29.8H121.4C128.5 29.8 132 27.9001 132 23.9001C132 19.4001 127.1 18.3 123.1 18.3H114.5V18.5H114.6ZM121.3 20.7001C123.8 20.7001 125.6 21.2001 126.5 22.2001C126.9 22.7001 127.1 23.3 127.1 24C127.1 26.8 123.9 27.4001 121.3 27.4001L120.2 27.3C120.2 27.3 119.9 27.3 119.8 27.3C119.8 26.6 119.8 25.8 119.8 24.8C119.8 23.6 119.8 22.1 119.9 20.8C120.1 20.8 120.7 20.7001 121.3 20.7001Z" fill="white"></path> <path d="M142.5 18.5C142.7 20.5 142.8 25.7 142.8 27.6C142.8 29.3 142.8 35.1 142.5 37.6V37.8H147.9V37.6C147.7 35.8 147.6 32.4001 147.6 29.7001C147.9 29.7001 148.6 29.8 148.6 29.8H149.4C156.5 29.8 160 27.9001 160 23.9001C160 19.4001 155.1 18.3 151 18.3H142.5V18.5ZM149.1 20.7001C151.6 20.7001 153.4 21.2001 154.3 22.2001C154.7 22.7001 154.9 23.3 154.9 24C154.9 26.8 151.7 27.4001 149.1 27.4001L148 27.3C148 27.3 147.7 27.3 147.6 27.3C147.6 26.6 147.6 25.8 147.6 24.8C147.6 23.6 147.6 22.1 147.7 20.8C147.9 20.8 148.5 20.7001 149.1 20.7001Z" fill="white"></path> <path d="M167.2 18.4001L167.1 18.5C166.1 21.3 159.6 35.5001 158.6 37.7001L158.5 37.9001H163.1V37.8C163.5 36.5 164.1 35 164.6 33.3C164.8 33.3 168.5 33.2001 168.5 33.2001H171.7C171.7 33.2001 172.2 33.2001 172.4 33.2001C173.2 35.3001 173.9 36.9001 174.1 37.7001L174.2 37.8H179.6L170.9 18.3H170.8H167.2V18.4001ZM168.5 24.1C168.9 25 170 27.6001 171.3 30.7001C171.1 30.7001 170.9 30.7001 170.9 30.7001H168.5C168.5 30.7001 166 30.7001 165.6 30.7001C166.7 28.2001 167.7 26 168.5 24.1Z" fill="white"></path> <path d="M181.7 18.5C181.9 20.5 181.9 25.7 181.9 27.6C181.9 29.3 181.9 35.1 181.6 37.6V37.8H187.1V37.6C186.8 35.1 186.8 29.3 186.8 27.6C186.8 26.2 186.8 23.2 187 20.8C187.4 20.8 188 20.7 188.5 20.7C191 20.7 192.8 21.2 193.6 22.2C194 22.7 194.2 23.3 194.2 24C194.2 26.3 192.1 27.4 190.1 27.5C189.4 27.5 189 27.4 189 27.4L188.6 27.3L188.8 27.7C190.7 30.5 193.6 35.4 194.8 37.7V37.8H200.6L200.5 37.5C200.3 37.2 196.5 31.6 194.9 29.2L194.8 29.1C197.8 28.2 199.2 26.5 199.2 24C199.2 19.5 194.3 18.4 190.2 18.4H181.7V18.5Z" fill="white"></path> <path d="M208.4 18.4H203.2V18.6C203.3 20.6 203.4 25.8 203.4 27.7C203.4 29.4 203.4 35.2 203.1 37.7V37.9H208.5V37.7C208.3 35.2 208.2 29.4 208.2 27.7C208.2 25.8 208.3 20.7 208.5 18.6V18.4H208.4Z" fill="white"></path> <path d="M213.5 18.5C213.7 20.5 213.8 25.7 213.8 27.6C213.8 29.3 213.8 35.1 213.5 37.6V37.8H222.6C227 37.8 231.8 36.4 231.8 32.5C231.8 30 230 28.2 226.6 27.2C229.1 26.5 230.8 24.8 230.8 22.9C230.8 19.7 227.1 18.5 223.6 18.4H213.6L213.5 18.5ZM220.5 20.5C224.3 20.5 225.7 21.3 225.7 23.4C225.7 24 225.5 24.5 225.2 24.9C224.5 25.8 223 26.2 221.3 26.1H221.2L220.2 28.9H221.2C223.3 28.8 225.1 29.5 226 30.6C226.5 31.1 226.7 31.7 226.7 32.4C226.7 34.5 224.8 35.7 221 35.7C220.4 35.7 219.4 35.7 218.7 35.7C218.5 32.8 218.5 28.9 218.5 27.8C218.5 26.4 218.6 23.4 218.7 20.8C219.1 20.6 219.8 20.5 220.5 20.5Z" fill="white"></path> <path d="M245 18.4001H241.4V18.5C240.3 21.5 233.4 36.4 232.9 37.6L232.8 37.9001H237.4V37.8C237.8 36.5 238.3 35 238.9 33.3C239 33.3 242.7 33.2001 242.7 33.2001H245.9C245.9 33.2001 246.5 33.2001 246.6 33.2001C247.4 35.3001 248.1 36.9001 248.3 37.7001L248.4 37.8H253.8L245.2 18.3H245V18.4001ZM242.7 24.1C243.1 25 244.2 27.6001 245.5 30.7001C245.3 30.7001 245.1 30.7001 245.1 30.7001H242.7C242.7 30.7001 240.2 30.6 239.8 30.6C240.9 28.2 241.9 26 242.7 24.1Z" fill="white"></path> <path d="M255.3 23.4C255.3 26.8 258.7 28.2 261.8 29.5C264.2 30.4 266.6 31.4 266.6 33.1C266.6 33.6 266.5 34 266.2 34.3C265.6 35 264.5 35.3 262.7 35.2C260.9 35.1 258.8 34.6 256.5 33.5L255.6 33.1V33.9V37.4L256.2 37.6L256.6 37.7C257.7 38 259.9 38.5 262.1 38.5C267.8 38.5 271.2 36.2 271.2 32.4C271.2 28.9 267.7 27.5 264.6 26.2C262.3 25.3 259.9 24.3 259.9 22.8C259.9 22.4 259.9 21.1 262.9 21.1C265.1 21.1 267.2 22 268.4 22.5L269.5 23V22.3V18.8L268.4 18.6C267.3 18.4 265.4 18 263.5 18C258.6 17.7 255.3 20 255.3 23.4Z" fill="white"></path> <path clip-rule="evenodd" d="M56.1 0H0V56.1H56.1V0ZM43.8002 14.8C42.2618 15.6791 41.2064 16.2104 40.184 16.7252C38.8802 17.3816 37.63 18.011 35.5002 19.3C37.7002 16.9 38.5002 15.9 39.8002 13.9C36.3002 14.1 31.3002 14.5 27.7002 15.3C30.8002 13.6 37.1002 11.8 40.3002 11.3C39.5002 10.3 33.4002 6.90005 31.8002 6.30005C36.7002 6.70005 42.6002 8.50005 45.5002 10.3C46.3387 9.99513 47.2354 9.92265 48.5445 9.81683L48.5446 9.81682C48.9528 9.78382 49.4011 9.74759 49.9002 9.70005C49.8316 9.82356 49.7705 9.94142 49.711 10.0562C49.337 10.7779 49.0257 11.3785 47.3002 12.5C47.9002 14 46.5002 22.5 45.4002 24.7001C45.4002 21.2001 45.1002 16.7 43.8002 14.8ZM13.4002 42C15.0002 43.5 16.4002 44.4 18.4002 45.1C16.3002 45.1 14.8002 44.8 13.0002 44.2C12.9002 45.5 13.0002 46.5 13.3002 47.7C11.8002 46.3 10.9002 45 10.0002 43.1C8.40019 42.3 7.2002 41.6 5.7002 40.7C6.7002 40.3 7.60019 40 8.90019 39.6C8.50019 37.3 8.60019 35.3 8.90019 32.5C9.40019 35.2 10.0002 37.1 11.1002 39.1C12.5002 38.8 13.7002 38.6 15.3002 38.4C14.4002 39.7 13.9002 40.7 13.4002 42ZM23.6004 17C23.0004 17.8 22.3004 19.3 22.1004 20C27.2004 20.7 31.3004 23.3 31.3004 23.3C26.8004 22.5 24.5004 22.6 22.8004 22.8C21.1004 23 20.8004 23.2 20.8004 23.2C19.6004 25.9 18.9004 30.4 18.9004 30.4C18.1004 28.4 16.9004 24.5 16.9004 24.5C14.6004 25.7 9.40039 30.6 9.40039 30.6C12.3004 24.9 15.2004 22.3 15.2004 22.3C14.2004 21.3 11.6004 20.8 9.70039 20.7C10.7004 20.3 13.2004 19.8 15.2004 19.7C17.2004 19.6 18.3004 19.8 18.3004 19.8C20.0004 18.3 22.7004 17.1 23.6004 17ZM26.4001 44.9001C27.4001 43.8001 28.2001 42.8 29.1001 41.6C29.1001 42.5 29.1001 43.1 29.2001 43.8C30.8001 43 32.1001 42.3 33.5001 41.3C32.2001 42.7001 31.0001 43.8 29.4001 45.1C29.5001 45.8 29.6001 46.2001 29.8001 46.7001C29.2001 46.8 28.4001 46.8 27.5001 46.8C25.8001 47.8 23.5001 48.6 21.7001 49C22.7001 48.4001 23.6001 47.7001 24.7001 46.7001C23.6001 46.4001 22.6001 46.1 21.6001 45.6C23.3001 45.6 24.7001 45.4001 26.4001 44.9001Z" fill="white" fill-rule="evenodd"></path></svg>