<svg data-v-6152f1a2="" data-v-a0f7a4fc="" fill="none" height="52" viewbox="0 0 476 52" width="476" xmlns="http://www.w3.org/2000/svg"><path d="M3 9.24174C29.4843 6.85392 56.2458 7.52494 83.4018 6.31902C109.767 5.14824 135.826 5.41583 162.339 4.88243C198.254 4.15988 234.216 4.58536 270.121 3.89168C294.643 3.41791 319.26 3 343.838 3C376.134 3 408.287 3.23813 440.54 3.44584C458.391 3.5608 460.748 4.85576 468.561 8.64729C485.503 16.8686 450.254 19.7467 424.972 21.7005C395.944 23.9438 365.213 24.5813 335.23 25.2919C304.108 26.0296 272.589 26.6295 241.367 26.6295C218.175 26.6295 192.196 26.5927 169.481 27.967C153.19 28.9526 129.699 29.5682 118.383 33.4161C91.5897 42.5267 150.28 47.1553 171.954 48.0049C205.531 49.3212 237.807 48.9704 271.495 48.9214C298.159 48.8826 324.661 48.0638 351.347 48.0297C356.171 48.0236 376.347 47.5839 382.116 47.5839" data-v-6152f1a2="" opacity=".6" stroke="white" stroke-linecap="round" stroke-linejoin="round" stroke-width="7.5"></path></svg>