<svg data-bbox="19.204 14 361.592 442" data-type="ugc" height="470" preserveaspectratio="xMidYMid meet" role="img" viewbox="0 0 400 470" width="400" xmlns="http://www.w3.org/2000/svg">
<g>
<path d="M257.656 274.331c36.32 49.262 96.23 130.418 121.278 163.74 4.085 5.445 1.426 17.79-7.75 17.865-13.351.12-277.027.042-286.097 0-10.915-.035-13.076-13.038-9.366-17.865 25.631-33.403 85.633-113.933 122.243-163.18" fill="none" stroke="#000000" stroke-linecap="round" stroke-miterlimit="10" stroke-width="8"></path>
<path d="M257.684 274.321V144.123s-.417-6.953 4.79-8.36c2.398-.648 9.028-.687 9.028-.687l5.078.03c6.656-.03 10.428-5.31 10.428-10.98 0-5.673-4.666-10.27-10.428-10.27h-97.473c-5.757 0-10.422 4.597-10.422 10.27 0 5.67 3.772 10.95 10.422 10.98l5.078-.03s6.64.039 9.033.687c5.208 1.406 4.786 8.36 4.786 8.36V274.91" fill="none" stroke="#000000" stroke-linecap="round" stroke-miterlimit="10" stroke-width="8"></path>
<path d="M134.384 251.154v-78.638s-.3-5.138 3.398-6.175c1.702-.477 6.417-.506 6.417-.506l3.6.019c4.723-.019 7.408-3.922 7.408-8.112 0-4.187-3.324-7.58-7.408-7.58H78.592c-4.088 0-7.407 3.393-7.407 7.58 0 4.19 2.688 8.093 7.407 8.112l3.599-.019s4.717.03 6.42.506c3.697 1.037 3.391 6.175 3.391 6.175v78.638" fill="none" stroke="#000000" stroke-linecap="round" stroke-miterlimit="10" stroke-width="8"></path>
<path d="M82.297 429.478c-36.752-12.737-63.093-47.229-63.093-87.776 0-44.038 31.068-80.93 72.794-90.57" fill="none" stroke="#000000" stroke-linecap="round" stroke-miterlimit="10" stroke-width="8"></path>
<path d="M134.425 250.94c22.417 4.956 41.82 17.768 55.078 35.344" fill="none" stroke="#000000" stroke-linecap="round" stroke-miterlimit="10" stroke-width="8"></path>
<path d="M125.832 80.998c0 5.34-4.332 9.67-9.672 9.67-5.342 0-9.672-4.33-9.672-9.67 0-5.348 4.33-9.677 9.672-9.677 5.34 0 9.672 4.33 9.672 9.677z" fill="none" stroke="#000000" stroke-linecap="round" stroke-miterlimit="10" stroke-width="8"></path>
<path d="M248.08 26.133c0 6.698-5.433 12.135-12.132 12.135-6.698 0-12.133-5.437-12.133-12.135 0-6.7 5.435-12.133 12.133-12.133 6.7 0 12.132 5.434 12.132 12.133z" fill="none" stroke="#000000" stroke-linecap="round" stroke-miterlimit="10" stroke-width="8"></path>
<path d="M255.816 77.293c0 6.701-5.431 12.136-12.129 12.136-6.7 0-12.135-5.435-12.135-12.136s5.435-12.132 12.136-12.132c6.697 0 12.128 5.43 12.128 12.132z" fill="none" stroke="#000000" stroke-linecap="round" stroke-miterlimit="10" stroke-width="8"></path>
<path d="M211.094 62.769c0 6.697-5.432 12.128-12.133 12.128-6.699 0-12.132-5.431-12.132-12.128 0-6.7 5.433-12.14 12.133-12.14 6.7 0 12.132 5.44 12.132 12.14z" fill="none" stroke="#000000" stroke-linecap="round" stroke-miterlimit="10" stroke-width="8"></path>
<path d="M131.32 118.935c0 5.343-4.332 9.673-9.67 9.673-5.341 0-9.674-4.33-9.674-9.673s4.333-9.673 9.675-9.673c5.337 0 9.669 4.33 9.669 9.673z" fill="none" stroke="#000000" stroke-linecap="round" stroke-miterlimit="10" stroke-width="8"></path>
<path d="M99.103 109.113c0 5.338-4.332 9.673-9.667 9.673-5.349 0-9.678-4.335-9.678-9.673 0-5.343 4.33-9.673 9.678-9.673 5.335 0 9.666 4.33 9.666 9.673z" fill="none" stroke="#000000" stroke-linecap="round" stroke-miterlimit="10" stroke-width="8"></path>
</g>
</svg>