<svg data-bbox="18.932 18.5 472.136 383" data-type="ugc" height="420" preserveaspectratio="xMidYMid meet" role="img" viewbox="0 0 510 420" width="510" xmlns="http://www.w3.org/2000/svg">
<g>
<path d="M258.643 206.035c0-28.875-23.46-52.29-52.39-52.29-28.933 0-52.388 23.415-52.388 52.29 0 28.88 23.455 52.294 52.388 52.294 28.93 0 52.39-23.415 52.39-52.294z" fill="none" stroke="#000000" stroke-miterlimit="10" stroke-width="17"></path>
<path d="M326.342 205.844c0-66.08-53.68-119.652-119.886-119.652-66.2 0-119.874 53.572-119.874 119.652 0 66.082 53.674 119.658 119.874 119.658 66.205 0 119.886-53.576 119.886-119.658z" fill="none" stroke="#000000" stroke-miterlimit="10" stroke-width="17"></path>
<path d="M393.782 205.567c0-103.304-83.927-187.067-187.438-187.067-103.495 0-187.412 83.763-187.412 187.067 0 103.314 83.917 187.084 187.412 187.084 103.512 0 187.438-83.77 187.438-187.084z" fill="none" stroke="#000000" stroke-miterlimit="10" stroke-width="17"></path>
<path d="M93.552 354.978l-48.186 45.666" fill="none" stroke="#000000" stroke-linecap="round" stroke-miterlimit="10" stroke-width="17"></path>
<path d="M320.795 354.978l47.362 46.522" fill="none" stroke="#000000" stroke-linecap="round" stroke-miterlimit="10" stroke-width="17"></path>
<path d="M206.464 205.578h244.709" fill="none" stroke="#000000" stroke-linecap="round" stroke-miterlimit="10" stroke-width="17"></path>
<path d="M451.173 205.578s18.755-16.884 24.311-20.52c5.01-3.283 15.584-6.53 15.584-6.53" fill="none" stroke="#000000" stroke-linecap="round" stroke-miterlimit="10" stroke-width="17"></path>
<path d="M451.173 205.578s18.755 20.86 24.311 24.496c5.01 3.278 15.584 6.53 15.584 6.53" fill="none" stroke="#000000" stroke-linecap="round" stroke-miterlimit="10" stroke-width="17"></path>
<path d="M491.068 178.528v58.077" fill="none" stroke="#000000" stroke-linecap="round" stroke-miterlimit="10" stroke-width="17"></path>
</g>
</svg>