<svg data-bbox="68 10 64 180" data-type="color" height="200" preserveaspectratio="xMidYMid meet" role="img" viewbox="68 10 64 180" width="200" xmlns="http://www.w3.org/2000/svg">
<g>
<path d="M93.67 187.813s-4.865-9.05 1.824-49.476 7.905-65.164 4.256-80.249c-3.648-15.084-8.513-25.342-8.513-25.342s3.659-.487 1.835-.487c-1.824 0 17.624 24.02 12.759 63.842-4.865 39.823-9.729 71.801-6.689 82.661 3.04 10.861 4.256 12.068 3.04 10.861-1.215-1.207-8.512-1.81-8.512-1.81z" data-color="1" fill="#194362"></path>
<path d="M91.238 32.746s-2.125-5.397 1.174-12.925C95.712 12.291 99.01 10 99.01 10s0 9.493-2.639 15.385-5.133 7.361-5.133 7.361z" data-color="2" fill="#1E273D"></path>
<path d="M102.639 57.464s-.66-10.148 1.979-16.695c2.639-6.546 5.278-8.183 5.278-8.183s1.979 6.22-.66 13.422c-2.638 7.201-6.597 11.456-6.597 11.456z" data-color="2" fill="#1E273D"></path>
<path d="M102.969 75.141s-7.258.327-14.845-5.892c-7.588-6.22-9.897-15.713-9.897-15.713s9.897 3.273 15.835 9.166c5.938 5.892 8.907 12.439 8.907 12.439z" data-color="2" fill="#1E273D"></path>
<path d="M93.072 33.568s-.66-4.91-8.577-5.891c-7.918-.982-15.835 2.619-15.835 2.619s2.31 4.255 11.546 5.237c9.237.981 12.866-1.965 12.866-1.965z" data-color="2" fill="#1E273D"></path>
<path d="M102.639 116.059s2.969-9.82 13.196-15.713C126.061 94.454 132 93.799 132 93.799s-4.619 8.838-13.856 15.713c-9.237 6.873-15.505 6.547-15.505 6.547z" data-color="2" fill="#1E273D"></path>
<path d="M95.382 145.519s-7.588 1.964-16.165-12.111C70.639 119.332 68 104.929 68 104.929s14.515 8.183 20.454 20.295c5.938 12.111 6.928 20.295 6.928 20.295z" data-color="2" fill="#1E273D"></path>
<path d="M90.471 29.578s-4.767-1.598-7.519-4.197c-2.752-2.598-8.19-3.197-8.19-3.197s1.477-.732 3.558-.732c2.081 0 3.558.4 3.558.4s-.738-.799-1.41-3.531c-.672-2.731-1.477-5.063-1.477-5.063s3.692 2.798 5.303 5.063c1.611 2.265 1.88 3.397 1.88 3.397s.537-2.664 2.014-5.395c1.477-2.731 2.081-5.129 2.081-5.129s-.537 4.662-.402 8.259c.134 3.597.537 5.796.537 7.794 0 1.998.067 2.331.067 2.331z" data-color="3" fill="#CA1E51"></path>
<path d="M105.731 99.225s2.297-5.9 3.919-8.448c1.622-2.548 2.027-5.9 2.027-5.9s.675 2.548.135 5.229c-.54 2.682-.811 3.353-.811 3.353s.27-1.609 3.648-2.816c3.379-1.207 6.892-2.815 6.892-2.815s-3.108 3.62-5.405 5.497c-2.297 1.877-3.109 2.28-3.109 2.28s1.622-.402 3.514 0c1.892.402 3.108.671 3.108.671s-3.919.67-7.973 2.548c-4.053 1.877-5.945.401-5.945.401z" data-color="3" fill="#CA1E51"></path>
<path d="M97.083 127.384s-4.325.268-7.568-5.498c-3.243-5.766-7.432-10.324-7.432-10.324s2.028-.134 4.73 2.011c2.702 2.145 3.514 3.755 3.514 3.755s-1.621-2.012-2.297-6.303c-.676-4.291-1.081-6.57-1.081-6.57s2.297 3.084 4.325 5.632c2.027 2.548 2.567 4.291 2.567 4.291s-.27-1.474.135-4.693c.405-3.218.946-6.034.946-6.034s-.406 5.899.675 9.922c1.081 4.023 1.486 6.839 1.622 9.654.134 2.816-.136 4.157-.136 4.157z" data-color="4" fill="#D95F43"></path>
<path d="M95.382 145.519s-7.989-14.102-14.642-22.685c-6.653-8.582-11.477-16.505-11.477-16.505s5.988 19.311 12.475 27.563c6.487 8.253 13.644 11.627 13.644 11.627z" data-color="5" fill="#308E96"></path>
<path d="M103.528 115.571s8.65-5.941 15.303-10.727C125.484 100.057 132 93.799 132 93.799s-6.682 10.88-14.666 15.996c-7.984 5.117-13.806 5.776-13.806 5.776z" data-color="5" fill="#308E96"></path>
<path d="M102.53 74.64s-5.822-3.631-13.64-10.233c-7.818-6.602-10.663-10.871-10.663-10.871s4.509 11.695 11.495 15.987 12.808 5.117 12.808 5.117z" data-color="5" fill="#308E96"></path>
<path d="M102.696 56.484s2.994-7.923 4.325-12.874c1.331-4.952 2.876-11.024 2.876-11.024s1.616 5.908-.88 12.675c-2.495 6.768-6.321 11.223-6.321 11.223z" data-color="5" fill="#308E96"></path>
</g>
</svg>