<svg data-bbox="11.272 13.774 378.316 395" data-type="ugc" height="420" preserveaspectratio="xMidYMid meet" role="img" viewbox="0 0 400 420" width="400" xmlns="http://www.w3.org/2000/svg">
<g>
<path d="M121.189 395.553c0 6.637-5.382 12.02-12.024 12.02h-82.37c-6.64 0-12.024-5.383-12.024-12.02v-87.727c0-6.635 5.384-12.019 12.024-12.019h82.37c6.642 0 12.024 5.384 12.024 12.02v87.726z"></path>
<path d="M124.305 403.966a4.811 4.811 0 0 1-4.81 4.808H16.08a4.806 4.806 0 0 1-4.808-4.808V300.614a4.806 4.806 0 0 1 4.808-4.806h103.414a4.81 4.81 0 0 1 4.81 4.806v103.352z"></path>
<path d="M67.79 211.935l4.836 12.79h13.05l-10.442 8.203 3.225 12.987-10.67-7.129-10.672 7.129 3.224-12.987-10.441-8.203h13.05l4.84-12.79z" stroke="#000000" stroke-miterlimit="10" stroke-width="2.404"></path>
<path d="M108.071 231.514c0 22.235-18.035 40.26-40.283 40.26s-40.283-18.025-40.283-40.26 18.035-40.26 40.283-40.26 40.283 18.025 40.283 40.26z" fill="none" stroke="#000000" stroke-miterlimit="10" stroke-width="10"></path>
<path d="M389.588 403.966a4.81 4.81 0 0 1-4.81 4.808H281.363a4.81 4.81 0 0 1-4.81-4.808V300.614a4.81 4.81 0 0 1 4.81-4.806h103.413a4.809 4.809 0 0 1 4.81 4.806v103.352z"></path>
<path d="M333.072 211.935l4.84 12.79h13.046l-10.439 8.203 3.225 12.987-10.672-7.129-10.673 7.129 3.227-12.987-10.44-8.203h13.048l4.838-12.79z" stroke="#000000" stroke-miterlimit="10" stroke-width="2.404"></path>
<path d="M373.354 231.514c0 22.235-18.035 40.26-40.283 40.26s-40.283-18.025-40.283-40.26 18.035-40.26 40.283-40.26 40.283 18.025 40.283 40.26z" fill="none" stroke="#000000" stroke-miterlimit="10" stroke-width="10"></path>
<path d="M256.945 399.312c0 5.223-2.154 9.462-4.808 9.462H148.725c-2.66 0-4.81-4.239-4.81-9.462V195.91c0-5.226 2.15-9.46 4.81-9.46h103.412c2.654 0 4.808 4.234 4.808 9.46v203.402z"></path>
<path d="M201.332 48.195l11.667 30.848h31.472l-25.177 19.778 7.78 31.325-25.742-17.194-25.74 17.194 7.778-31.325-25.177-19.778h31.467l11.672-30.848z" stroke="#000000" stroke-miterlimit="10" stroke-width="2.404"></path>
<path d="M273.982 73.145c1 4.885 1.528 9.944 1.528 15.123 0 5.181-.528 10.239-1.528 15.123" fill="none" stroke="#000000" stroke-linecap="round" stroke-miterlimit="10" stroke-width="10"></path>
<path d="M126.874 103.391a75.373 75.373 0 0 1-1.527-15.123c0-5.18.527-10.238 1.527-15.123" fill="none" stroke="#000000" stroke-linecap="round" stroke-miterlimit="10" stroke-width="10"></path>
<path d="M266.45 124.035a74.044 74.044 0 0 1-3.762 6.187 75.596 75.596 0 0 1-9.165 11.106 76.533 76.533 0 0 1-5.332 4.843 75.66 75.66 0 0 1-11.973 8.079 74.336 74.336 0 0 1-20.657 7.532c-2.444.5-4.928.88-7.455 1.136a75.999 75.999 0 0 1-22.81-1.137 74.478 74.478 0 0 1-20.652-7.531 75.528 75.528 0 0 1-11.973-8.079 74.022 74.022 0 0 1-5.332-4.844 75.556 75.556 0 0 1-4.848-5.328 77.296 77.296 0 0 1-4.322-5.777 75.009 75.009 0 0 1-3.756-6.187" fill="none" stroke="#000000" stroke-linecap="round" stroke-miterlimit="10" stroke-width="10"></path>
<path d="M200.431 13.774v14.102" fill="none" stroke="#000000" stroke-linecap="round" stroke-miterlimit="10" stroke-width="10"></path>
<path d="M251.767 34.034L241.53 44.26" fill="none" stroke="#000000" stroke-linecap="round" stroke-miterlimit="10" stroke-width="10"></path>
<path d="M149.274 34.032l10.232 10.228" fill="none" stroke="#000000" stroke-linecap="round" stroke-miterlimit="10" stroke-width="10"></path>
</g>
</svg>