<svg data-bbox="28.5 28 143 144" data-type="color" height="200" preserveaspectratio="xMidYMid meet" role="img" viewbox="28.5 28 143 144" width="200" xmlns="http://www.w3.org/2000/svg">
<g>
<path d="M171.5 108.6V91.3l-16.1-5.8c-1.4-5.3-3.5-10.2-6.2-14.8l7.4-15.5L144.5 43 129 50.4c-4.6-2.7-9.4-4.8-14.7-6.2L108.5 28H91.3l-5.8 16.2c-5.3 1.4-10.1 3.5-14.7 6.2L55.4 43l-12 12.2 7.4 15.5c-2.7 4.6-4.8 9.6-6.2 14.8l-16.1 5.8v17.3l16.1 5.8c1.4 5.3 3.5 10.2 6.2 14.8l-7.4 15.6L55.5 157l15.5-7.4c4.6 2.7 9.5 4.8 14.7 6.2l5.8 16.2h17.2l5.8-16.2c5.3-1.4 10.1-3.5 14.7-6.2l15.4 7.4 12.1-12.2-7.4-15.5c2.7-4.6 4.8-9.5 6.2-14.8l16-5.9zM100 128.8c-15.8 0-28.6-12.9-28.6-28.8S84.2 71.2 100 71.2s28.6 12.9 28.6 28.8-12.7 28.8-28.6 28.8z" data-color="1" fill="#736357"></path>
</g>
</svg>