<svg data-bbox="15.046 22 169.944 156" data-type="color" height="200" preserveaspectratio="xMidYMid meet" role="img" viewbox="15.046 22 169.944 156" width="200" xmlns="http://www.w3.org/2000/svg">
<g>
<path d="M169.8 135.4l-53.4-72.7V39H83.6l-.1 23.5L30 135.7S-7 178 35.4 178h129.4c42.3.1 5-42.6 5-42.6zM58.9 167.2c-10.8 0-19.7-8.9-19.7-19.7 0-10.8 8.9-19.7 19.7-19.7s19.7 8.9 19.7 19.7c0 10.8-8.9 19.7-19.7 19.7zm12.9-49.4c-5.6 0-10.1-4.5-10.1-10.1s4.5-10.1 10.1-10.1 10.1 4.5 10.1 10.1c0 5.7-4.6 10.1-10.1 10.1zm25.6 24.9c-7.7 0-13.9-6.2-13.9-13.9s6.3-13.9 13.9-13.9c7.6 0 13.9 6.3 13.9 13.9.2 7.7-6.1 13.9-13.9 13.9zm33.1-112c0 4.5-3.7 8.3-8.3 8.3H78.3c-4.5 0-8.3-3.7-8.3-8.3v-.4c0-4.5 3.7-8.3 8.3-8.3h44.1c4.5 0 8.3 3.7 8.3 8.3v.4h-.2z" data-color="1" fill="#00a99d"></path>
</g>
</svg>