<svg data-usage="social-icons-svg" style="display:none" version="1.1" xmlns="http://www.w3.org/2000/svg"><symbol id="facebook-icon" viewbox="0 0 64 64"><path d="M34.1,47V33.3h4.6l0.7-5.3h-5.3v-3.4c0-1.5,0.4-2.6,2.6-2.6l2.8,0v-4.8c-0.5-0.1-2.2-0.2-4.1-0.2 c-4.1,0-6.9,2.5-6.9,7V28H24v5.3h4.6V47H34.1z"></path></symbol><symbol id="facebook-mask" viewbox="0 0 64 64"><path d="M0,0v64h64V0H0z M39.6,22l-2.8,0c-2.2,0-2.6,1.1-2.6,2.6V28h5.3l-0.7,5.3h-4.6V47h-5.5V33.3H24V28h4.6V24 c0-4.6,2.8-7,6.9-7c2,0,3.6,0.1,4.1,0.2V22z"></path></symbol><symbol id="linkedin-icon" viewbox="0 0 64 64"><path d="M20.4,44h5.4V26.6h-5.4V44z M23.1,18c-1.7,0-3.1,1.4-3.1,3.1c0,1.7,1.4,3.1,3.1,3.1 c1.7,0,3.1-1.4,3.1-3.1C26.2,19.4,24.8,18,23.1,18z M39.5,26.2c-2.6,0-4.4,1.4-5.1,2.8h-0.1v-2.4h-5.2V44h5.4v-8.6 c0-2.3,0.4-4.5,3.2-4.5c2.8,0,2.8,2.6,2.8,4.6V44H46v-9.5C46,29.8,45,26.2,39.5,26.2z"></path></symbol><symbol id="linkedin-mask" viewbox="0 0 64 64"><path d="M0,0v64h64V0H0z M25.8,44h-5.4V26.6h5.4V44z M23.1,24.3c-1.7,0-3.1-1.4-3.1-3.1c0-1.7,1.4-3.1,3.1-3.1 c1.7,0,3.1,1.4,3.1,3.1C26.2,22.9,24.8,24.3,23.1,24.3z M46,44h-5.4v-8.4c0-2,0-4.6-2.8-4.6c-2.8,0-3.2,2.2-3.2,4.5V44h-5.4V26.6 h5.2V29h0.1c0.7-1.4,2.5-2.8,5.1-2.8c5.5,0,6.5,3.6,6.5,8.3V44z"></path></symbol><symbol id="instagram-unauth-icon" viewbox="0 0 64 64"><path d="M46.91,25.816c-0.073-1.597-0.326-2.687-0.697-3.641c-0.383-0.986-0.896-1.823-1.73-2.657c-0.834-0.834-1.67-1.347-2.657-1.73c-0.954-0.371-2.045-0.624-3.641-0.697C36.585,17.017,36.074,17,32,17s-4.585,0.017-6.184,0.09c-1.597,0.073-2.687,0.326-3.641,0.697c-0.986,0.383-1.823,0.896-2.657,1.73c-0.834,0.834-1.347,1.67-1.73,2.657c-0.371,0.954-0.624,2.045-0.697,3.641C17.017,27.415,17,27.926,17,32c0,4.074,0.017,4.585,0.09,6.184c0.073,1.597,0.326,2.687,0.697,3.641c0.383,0.986,0.896,1.823,1.73,2.657c0.834,0.834,1.67,1.347,2.657,1.73c0.954,0.371,2.045,0.624,3.641,0.697C27.415,46.983,27.926,47,32,47s4.585-0.017,6.184-0.09c1.597-0.073,2.687-0.326,3.641-0.697c0.986-0.383,1.823-0.896,2.657-1.73c0.834-0.834,1.347-1.67,1.73-2.657c0.371-0.954,0.624-2.045,0.697-3.641C46.983,36.585,47,36.074,47,32S46.983,27.415,46.91,25.816z M44.21,38.061c-0.067,1.462-0.311,2.257-0.516,2.785c-0.272,0.7-0.597,1.2-1.122,1.725c-0.525,0.525-1.025,0.85-1.725,1.122c-0.529,0.205-1.323,0.45-2.785,0.516c-1.581,0.072-2.056,0.087-6.061,0.087s-4.48-0.015-6.061-0.087c-1.462-0.067-2.257-0.311-2.785-0.516c-0.7-0.272-1.2-0.597-1.725-1.122c-0.525-0.525-0.85-1.025-1.122-1.725c-0.205-0.529-0.45-1.323-0.516-2.785c-0.072-1.582-0.087-2.056-0.087-6.061s0.015-4.48,0.087-6.061c0.067-1.462,0.311-2.257,0.516-2.785c0.272-0.7,0.597-1.2,1.122-1.725c0.525-0.525,1.025-0.85,1.725-1.122c0.529-0.205,1.323-0.45,2.785-0.516c1.582-0.072,2.056-0.087,6.061-0.087s4.48,0.015,6.061,0.087c1.462,0.067,2.257,0.311,2.785,0.516c0.7,0.272,1.2,0.597,1.725,1.122c0.525,0.525,0.85,1.025,1.122,1.725c0.205,0.529,0.45,1.323,0.516,2.785c0.072,1.582,0.087,2.056,0.087,6.061S44.282,36.48,44.21,38.061z M32,24.297c-4.254,0-7.703,3.449-7.703,7.703c0,4.254,3.449,7.703,7.703,7.703c4.254,0,7.703-3.449,7.703-7.703C39.703,27.746,36.254,24.297,32,24.297z M32,37c-2.761,0-5-2.239-5-5c0-2.761,2.239-5,5-5s5,2.239,5,5C37,34.761,34.761,37,32,37z M40.007,22.193c-0.994,0-1.8,0.806-1.8,1.8c0,0.994,0.806,1.8,1.8,1.8c0.994,0,1.8-0.806,1.8-1.8C41.807,22.999,41.001,22.193,40.007,22.193z"></path></symbol><symbol id="instagram-unauth-mask" viewbox="0 0 64 64"><path d="M43.693,23.153c-0.272-0.7-0.597-1.2-1.122-1.725c-0.525-0.525-1.025-0.85-1.725-1.122c-0.529-0.205-1.323-0.45-2.785-0.517c-1.582-0.072-2.056-0.087-6.061-0.087s-4.48,0.015-6.061,0.087c-1.462,0.067-2.257,0.311-2.785,0.517c-0.7,0.272-1.2,0.597-1.725,1.122c-0.525,0.525-0.85,1.025-1.122,1.725c-0.205,0.529-0.45,1.323-0.516,2.785c-0.072,1.582-0.087,2.056-0.087,6.061s0.015,4.48,0.087,6.061c0.067,1.462,0.311,2.257,0.516,2.785c0.272,0.7,0.597,1.2,1.122,1.725s1.025,0.85,1.725,1.122c0.529,0.205,1.323,0.45,2.785,0.516c1.581,0.072,2.056,0.087,6.061,0.087s4.48-0.015,6.061-0.087c1.462-0.067,2.257-0.311,2.785-0.516c0.7-0.272,1.2-0.597,1.725-1.122s0.85-1.025,1.122-1.725c0.205-0.529,0.45-1.323,0.516-2.785c0.072-1.582,0.087-2.056,0.087-6.061s-0.015-4.48-0.087-6.061C44.143,24.476,43.899,23.682,43.693,23.153z M32,39.703c-4.254,0-7.703-3.449-7.703-7.703s3.449-7.703,7.703-7.703s7.703,3.449,7.703,7.703S36.254,39.703,32,39.703z M40.007,25.793c-0.994,0-1.8-0.806-1.8-1.8c0-0.994,0.806-1.8,1.8-1.8c0.994,0,1.8,0.806,1.8,1.8C41.807,24.987,41.001,25.793,40.007,25.793z M0,0v64h64V0H0z M46.91,38.184c-0.073,1.597-0.326,2.687-0.697,3.641c-0.383,0.986-0.896,1.823-1.73,2.657c-0.834,0.834-1.67,1.347-2.657,1.73c-0.954,0.371-2.044,0.624-3.641,0.697C36.585,46.983,36.074,47,32,47s-4.585-0.017-6.184-0.09c-1.597-0.073-2.687-0.326-3.641-0.697c-0.986-0.383-1.823-0.896-2.657-1.73c-0.834-0.834-1.347-1.67-1.73-2.657c-0.371-0.954-0.624-2.044-0.697-3.641C17.017,36.585,17,36.074,17,32c0-4.074,0.017-4.585,0.09-6.185c0.073-1.597,0.326-2.687,0.697-3.641c0.383-0.986,0.896-1.823,1.73-2.657c0.834-0.834,1.67-1.347,2.657-1.73c0.954-0.371,2.045-0.624,3.641-0.697C27.415,17.017,27.926,17,32,17s4.585,0.017,6.184,0.09c1.597,0.073,2.687,0.326,3.641,0.697c0.986,0.383,1.823,0.896,2.657,1.73c0.834,0.834,1.347,1.67,1.73,2.657c0.371,0.954,0.624,2.044,0.697,3.641C46.983,27.415,47,27.926,47,32C47,36.074,46.983,36.585,46.91,38.184z M32,27c-2.761,0-5,2.239-5,5s2.239,5,5,5s5-2.239,5-5S34.761,27,32,27z"></path></symbol></svg>