<svg class="w-48 lg:w-54 fill-current" data-v-af510f26="" enable-background="new 0 0 418 36" id="Layer_1" version="1.1" viewbox="0 0 418 36" x="0px" xml:space="preserve" xmlns="http://www.w3.org/2000/svg" xmlns:xlink="http://www.w3.org/1999/xlink" y="0px"><g data-v-af510f26="" id="Page-1"><g data-v-af510f26="" id="dark"><g data-v-af510f26="" enable-background="new"><path d="M0.5,34.7c-0.2-0.2-0.3-0.5-0.3-0.8V2.6c0-0.4,0.1-0.6,0.3-0.8C0.7,1.5,1,1.4,1.3,1.4h19.6
                      c0.4,0,0.6,0.1,0.8,0.3C21.9,1.9,22,2.2,22,2.6v1.9c0,0.3-0.1,0.6-0.3,0.8c-0.2,0.2-0.5,0.3-0.8,0.3h-16v11.2h15.1
                      c0.4,0,0.6,0.1,0.8,0.3c0.2,0.2,0.3,0.5,0.3,0.8v1.9c0,0.3-0.1,0.6-0.3,0.8c-0.2,0.2-0.5,0.3-0.8,0.3H4.8v13
                      c0,0.3-0.1,0.6-0.3,0.8C4.3,34.9,4,35,3.7,35H1.3C1,35,0.7,34.9,0.5,34.7z" data-v-af510f26=""></path> <path d="M54.1,34.7c-0.2-0.2-0.3-0.5-0.3-0.8V2.6c0-0.4,0.1-0.6,0.3-0.8c0.2-0.2,0.5-0.3,0.8-0.3h19.8
                      c0.3,0,0.6,0.1,0.8,0.3c0.2,0.2,0.3,0.5,0.3,0.8v1.8c0,0.3-0.1,0.6-0.3,0.8c-0.2,0.2-0.5,0.3-0.8,0.3H58.4V16h15.3
                      c0.3,0,0.6,0.1,0.8,0.3c0.2,0.2,0.3,0.5,0.3,0.8v1.8c0,0.3-0.1,0.6-0.3,0.8C74.2,19.9,74,20,73.7,20H58.4v10.9h16.7
                      c0.4,0,0.6,0.1,0.8,0.3c0.2,0.2,0.3,0.5,0.3,0.8v1.9c0,0.3-0.1,0.6-0.3,0.8c-0.2,0.2-0.5,0.3-0.8,0.3H54.9
                      C54.6,35,54.3,34.9,54.1,34.7z" data-v-af510f26=""></path> <path d="M108.8,34.7c-0.2-0.2-0.3-0.5-0.3-0.8V2.6c0-0.4,0.1-0.6,0.3-0.8c0.2-0.2,0.5-0.3,0.8-0.3h10.9
                      c4.8,0,8.3,1.1,10.5,3.2c2.1,2.2,3.3,5.4,3.4,9.8c0,0.9,0,2.2,0,3.7c0,1.6,0,2.8,0,3.8c-0.1,3-0.6,5.5-1.5,7.4s-2.3,3.3-4.3,4.2
                      c-2,0.9-4.5,1.4-7.8,1.4h-11.1C109.2,35,109,34.9,108.8,34.7z M120.5,30.9c2.2,0,4-0.3,5.3-0.9c1.3-0.6,2.2-1.6,2.8-2.9
                      c0.6-1.3,0.9-3.1,1-5.4c0.1-1.9,0.1-3.1,0.1-3.6c0-0.5,0-1.7-0.1-3.6c-0.1-3.2-0.8-5.5-2.3-6.9c-1.4-1.5-3.8-2.2-7.1-2.2h-7.1
                      v25.4H120.5z" data-v-af510f26=""></path> <path d="M167.4,34.7c-0.2-0.2-0.3-0.5-0.3-0.8V2.6c0-0.4,0.1-0.6,0.3-0.8c0.2-0.2,0.5-0.3,0.8-0.3H188
                      c0.3,0,0.6,0.1,0.8,0.3c0.2,0.2,0.3,0.5,0.3,0.8v1.8c0,0.3-0.1,0.6-0.3,0.8c-0.2,0.2-0.5,0.3-0.8,0.3h-16.3V16H187
                      c0.3,0,0.6,0.1,0.8,0.3c0.2,0.2,0.3,0.5,0.3,0.8v1.8c0,0.3-0.1,0.6-0.3,0.8c-0.2,0.2-0.5,0.3-0.8,0.3h-15.3v10.9h16.7
                      c0.4,0,0.6,0.1,0.8,0.3c0.2,0.2,0.3,0.5,0.3,0.8v1.9c0,0.3-0.1,0.6-0.3,0.8c-0.2,0.2-0.5,0.3-0.8,0.3h-20.2
                      C167.9,35,167.6,34.9,167.4,34.7z" data-v-af510f26=""></path> <path d="M222.1,34.7c-0.2-0.2-0.3-0.5-0.3-0.8V2.6c0-0.4,0.1-0.6,0.3-0.8c0.2-0.2,0.5-0.3,0.8-0.3h11.7
                      c3.7,0,6.6,0.9,8.6,2.6c2.1,1.7,3.1,4.2,3.1,7.5c0,2.4-0.6,4.4-1.8,6c-1.2,1.6-2.9,2.7-5.1,3.3l7.4,12.8c0.1,0.2,0.1,0.4,0.1,0.5
                      c0,0.3-0.1,0.5-0.3,0.7c-0.2,0.2-0.4,0.3-0.7,0.3h-2.3c-0.5,0-0.9-0.1-1.1-0.3c-0.3-0.2-0.5-0.5-0.7-1l-7-12.2h-8.4v12.4
                      c0,0.3-0.1,0.6-0.3,0.8c-0.2,0.2-0.5,0.3-0.8,0.3h-2.4C222.6,35,222.3,34.9,222.1,34.7z M234.4,17.4c4.8,0,7.2-2,7.2-6
                      c0-4-2.4-6-7.2-6h-7.9v12H234.4z" data-v-af510f26=""></path> <path d="M275.9,34.7c-0.2-0.2-0.3-0.4-0.3-0.7c0-0.3,0-0.4,0-0.5l11.9-31.1c0.3-0.7,0.8-1.1,1.5-1.1h3.3
                      c0.8,0,1.3,0.4,1.5,1.1l11.9,31.1l0.1,0.5c0,0.3-0.1,0.5-0.3,0.7c-0.2,0.2-0.4,0.3-0.7,0.3h-2.4c-0.4,0-0.6-0.1-0.8-0.3
                      c-0.2-0.2-0.3-0.4-0.4-0.6l-2.6-6.8h-15.7l-2.6,6.8c-0.1,0.2-0.2,0.4-0.4,0.6c-0.2,0.2-0.5,0.3-0.8,0.3h-2.4
                      C276.3,35,276.1,34.9,275.9,34.7z M297.2,23.2l-6.5-17l-6.5,17H297.2z" data-v-af510f26=""></path> <path d="M338.3,32c-2.2-2.3-3.4-5.5-3.6-9.6c0-0.9,0-2.3,0-4.2c0-2,0-3.4,0-4.3c0.2-4,1.4-7.2,3.6-9.5
                      c2.2-2.3,5.5-3.5,9.7-3.5c2.8,0,5.3,0.5,7.2,1.5c2,1,3.5,2.3,4.5,4c1,1.6,1.6,3.4,1.7,5.2v0.1c0,0.3-0.1,0.5-0.3,0.6
                      c-0.2,0.2-0.4,0.3-0.7,0.3h-2.6c-0.6,0-1-0.4-1.2-1.1c-0.5-2.4-1.5-4.1-2.9-5.1c-1.4-1-3.3-1.5-5.7-1.5c-5.5,0-8.4,3.1-8.5,9.2
                      c0,0.9,0,2.2,0,4s0,3.2,0,4.1c0.2,6.1,3,9.2,8.5,9.2c2.4,0,4.3-0.5,5.7-1.5c1.4-1,2.4-2.7,2.9-5.1c0.1-0.4,0.2-0.7,0.4-0.9
                      c0.2-0.2,0.4-0.2,0.8-0.2h2.6c0.3,0,0.5,0.1,0.7,0.3c0.2,0.2,0.3,0.4,0.3,0.7c-0.1,1.9-0.7,3.6-1.7,5.3c-1,1.6-2.5,3-4.5,4
                      s-4.4,1.5-7.2,1.5C343.7,35.5,340.5,34.3,338.3,32z" data-v-af510f26=""></path></g> <g data-v-af510f26=""></g> <g data-v-af510f26="" enable-background="new"><path d="M401.5,34.7c-0.2-0.2-0.3-0.5-0.3-0.8V22.6L389.7,3c0-0.1,0-0.2,0-0.3c-0.1-0.1-0.1-0.2-0.1-0.3
                      c0-0.3,0.1-0.5,0.3-0.7c0.2-0.2,0.4-0.3,0.7-0.3h2.5c0.5,0,1,0.3,1.2,0.8l9.4,15.6l9.4-15.6c0.4-0.5,0.8-0.8,1.3-0.8h2.4
                      c0.3,0,0.5,0.1,0.7,0.3c0.2,0.2,0.3,0.4,0.3,0.7c0,0.2-0.1,0.4-0.2,0.6L406,22.6v11.3c0,0.3-0.1,0.6-0.3,0.8s-0.5,0.3-0.8,0.3
                      h-2.5C402,35,401.8,34.9,401.5,34.7z" data-v-af510f26=""></path></g></g></g></svg>