<svg class="w-12 fill-current" data-v-af510f26="" enable-background="new 0 0 70 70" id="Layer_1" version="1.1" viewbox="0 0 70 70" x="0px" xml:space="preserve" xmlns="http://www.w3.org/2000/svg" xmlns:xlink="http://www.w3.org/1999/xlink" y="0px"><g data-v-af510f26=""><path d="M35,62.5C19.8,62.5,7.5,50.2,7.5,35S19.8,7.5,35,7.5S62.5,19.8,62.5,35S50.2,62.5,35,62.5z M35,11.3
                  c-13.1,0-23.7,10.6-23.7,23.7S21.9,58.7,35,58.7S58.7,48.1,58.7,35S48.1,11.3,35,11.3z M45.4,42.7L37.8,35l7.7-7.7
                  c0.7-0.8,0.7-1.9,0-2.6c-0.7-0.8-1.9-0.8-2.7-0.1l-7.7,7.7l-7.7-7.7c-0.8-0.7-1.9-0.7-2.6,0c-0.8,0.7-0.8,1.9-0.1,2.7l7.7,7.7
                  l-7.7,7.7c-0.4,0.4-0.6,0.8-0.6,1.3c0,1.1,0.8,1.9,1.9,1.9c0.5,0,1-0.2,1.3-0.6l7.7-7.7l7.7,7.7c0.4,0.4,0.8,0.6,1.3,0.6
                  c0.5,0,1-0.2,1.3-0.6C46.1,44.7,46.1,43.4,45.4,42.7z" data-v-af510f26=""></path></g></svg>