<svg fill="none" height="36" viewbox="0 0 42 36" width="30" xmlns="http://www.w3.org/2000/svg"><path clip-rule="evenodd" d="M29.3826 0.129616C28.9885 -0.0286458 28.5512 -0.0424219 28.1479 0.0907246L28.1242 0.0988632L23.294 1.82324L23.2842 1.82683C22.6404 2.06396 22.0419 2.40978 21.515 2.84924C21.0723 3.21835 21.0128 3.87639 21.3819 4.31899C21.751 4.7616 22.409 4.82118 22.8516 4.45207C23.194 4.16651 23.5827 3.94158 24.0009 3.78697L28.4619 2.19437L28.5686 2.15627L29.4591 3.93786C29.6359 4.29145 29.9972 4.51482 30.3925 4.51482C31.1536 4.51482 31.8836 4.81716 32.4217 5.35533C32.9599 5.89351 33.2622 6.62342 33.2622 7.38451V13.4337C33.2622 14.6274 32.9136 15.7952 32.2593 16.7936C31.8802 17.3721 31.4081 17.8791 30.8652 18.296C30.4709 18.5987 30.0393 18.8539 29.5788 19.0544C29.1544 19.2391 28.9025 19.6813 28.9599 20.1406L29.2651 22.5822C29.317 22.9985 29.4796 23.3932 29.7358 23.7254C29.992 24.0576 30.3329 24.3152 30.7223 24.4712L38.1483 27.4426C38.4387 27.5589 38.6877 27.7594 38.863 28.0185C39.0384 28.2775 39.1321 28.5833 39.132 28.8961V33.9128H31.0448C30.4684 33.9128 30.0012 34.38 30.0012 34.9563C30.0012 35.5327 30.4684 35.9999 31.0448 35.9999H40.1756C40.7519 35.9999 41.2191 35.5327 41.2191 34.9563V28.8961C41.2191 28.1662 41.0005 27.453 40.5913 26.8486C40.1822 26.2441 39.6013 25.7761 38.9236 25.505L31.4976 22.5335C31.4545 22.5162 31.4168 22.4876 31.3884 22.4508C31.3599 22.4139 31.3418 22.3698 31.3361 22.3235L31.1227 20.6167C31.1501 20.6015 31.1774 20.5861 31.2047 20.5706C32.3294 19.9287 33.2904 19.0278 34.0049 17.9376C34.8819 16.5992 35.3492 15.0338 35.3493 13.4337V7.38451C35.3493 6.0699 34.8271 4.80914 33.8975 3.87957C33.1267 3.10879 32.1282 2.61808 31.0601 2.47292L30.3131 0.978353C30.3093 0.970689 30.3053 0.963072 30.3013 0.955504C30.1021 0.580427 29.7767 0.287878 29.3826 0.129616ZM14.0876 3.25948C11.9081 3.25948 9.81786 4.12528 8.27674 5.6664C6.73561 7.20753 5.86981 9.29774 5.86981 11.4772V12.1248C5.84224 15.158 4.99349 18.1272 3.41369 20.7168C3.24801 20.9884 3.21527 21.3207 3.32477 21.6194C3.43427 21.9181 3.67406 22.1506 3.97603 22.2507C5.92425 22.8969 7.99377 23.0499 10.0015 22.7074L9.88627 23.6283C9.8805 23.6746 9.86244 23.7184 9.83398 23.7554C9.80551 23.7923 9.76767 23.8209 9.7244 23.8382L2.29549 26.8095C1.61781 27.0807 1.03692 27.5487 0.627766 28.1531C0.218622 28.7576 -3.49473e-05 29.4708 4.18951e-09 30.2007V34.9565C4.18951e-09 35.5328 0.467201 36 1.04352 36H27.1316C27.7079 36 28.1751 35.5328 28.1751 34.9565V30.2006C28.1751 29.4707 27.9565 28.7576 27.5473 28.1531C27.1382 27.5487 26.5573 27.0807 25.8796 26.8095L18.4537 23.8381C18.4105 23.8207 18.3728 23.7922 18.3444 23.7554C18.3159 23.7184 18.2978 23.6742 18.2921 23.628L18.2794 23.527L18.1769 22.7071C20.1835 23.0492 22.2518 22.8963 24.1989 22.2508C24.5009 22.1506 24.7408 21.9182 24.8503 21.6195C24.9598 21.3208 24.9271 20.9884 24.7614 20.7168C23.1816 18.1272 22.3328 15.158 22.3053 12.1247V11.4772C22.3053 9.29774 21.4395 7.20753 19.8984 5.6664C18.3573 4.12528 16.267 3.25948 14.0876 3.25948ZM9.7525 7.14216C10.9022 5.99244 12.4616 5.34652 14.0876 5.34652C15.7135 5.34652 17.2729 5.99244 18.4226 7.14216C19.5723 8.29189 20.2183 9.85126 20.2183 11.4772L20.2182 12.1294L20.2183 12.1386C20.2443 15.0884 20.9611 17.9845 22.3031 20.5972C20.6332 20.9299 18.9001 20.8483 17.2581 20.3503C17.0136 20.2762 16.754 20.2951 16.5268 20.3975C16.4398 20.4366 16.3575 20.488 16.2827 20.5511C16.0125 20.7788 15.876 21.1278 15.9198 21.4785L16.2212 23.8871C16.2731 24.3032 16.4357 24.6979 16.6918 25.03C16.948 25.3622 17.2889 25.6198 17.6783 25.7758L25.1043 28.7472C25.3947 28.8634 25.6437 29.064 25.819 29.323C25.9944 29.5821 26.0881 29.8878 26.0881 30.2006V33.913H2.08705V30.2006C2.08702 29.8877 2.18073 29.5821 2.35609 29.323C2.53141 29.064 2.78045 28.8634 3.07083 28.7472L10.5004 25.7756C10.8898 25.6196 11.2304 25.3622 11.4866 25.03C11.7428 24.6978 11.9053 24.303 11.9573 23.8867L12.2585 21.4785C12.3024 21.1278 12.1658 20.7788 11.8956 20.551C11.6254 20.3233 11.2583 20.2478 10.9201 20.3504C9.27711 20.8489 7.54288 20.9306 5.87193 20.5974C7.21398 17.9846 7.93085 15.0885 7.95686 12.1386V11.4772C7.95686 10.0514 8.45354 8.67681 9.35108 7.58473C9.47708 7.43143 9.61097 7.28369 9.7525 7.14216Z" fill="#7DFFA9" fill-rule="evenodd"></path></svg>