<svg fill="none" height="36" viewbox="0 0 44 36" width="30" xmlns="http://www.w3.org/2000/svg"><path clip-rule="evenodd" d="M2.25 4.64062C2.25 3.32032 3.32032 2.25 4.64062 2.25H38.3906C39.7109 2.25 40.7812 3.32032 40.7812 4.64062V31.3594C40.7812 32.6797 39.7109 33.75 38.3906 33.75H4.64062C3.32032 33.75 2.25 32.6797 2.25 31.3594V4.64062ZM4.64062 0C2.07768 0 0 2.07768 0 4.64062V31.3594C0 33.9223 2.07768 36 4.64062 36H38.3906C40.9536 36 43.0312 33.9223 43.0312 31.3594V4.64062C43.0312 2.07768 40.9536 0 38.3906 0H4.64062ZM7.17188 18C7.17188 13.1848 11.0754 9.28125 15.8906 9.28125C20.7059 9.28125 24.6094 13.1848 24.6094 18C24.6094 22.8152 20.7059 26.7188 15.8906 26.7188C11.0754 26.7188 7.17188 22.8152 7.17188 18ZM15.8906 7.03125C9.83275 7.03125 4.92188 11.9421 4.92188 18C4.92188 24.0579 9.83275 28.9688 15.8906 28.9688C21.9485 28.9688 26.8594 24.0579 26.8594 18C26.8594 11.9421 21.9485 7.03125 15.8906 7.03125ZM34.1719 15.4688C34.7932 15.4688 35.2969 15.9724 35.2969 16.5938V27.8438C35.2969 28.4651 34.7932 28.9688 34.1719 28.9688C33.5506 28.9688 33.0469 28.4651 33.0469 27.8438V16.5938C33.0469 15.9724 33.5506 15.4688 34.1719 15.4688ZM35.2969 8.15625C35.2969 7.53493 34.7932 7.03125 34.1719 7.03125C33.5506 7.03125 33.0469 7.53493 33.0469 8.15625V11.25H30.6562C30.0349 11.25 29.5312 11.7537 29.5312 12.375C29.5312 12.9963 30.0349 13.5 30.6562 13.5H34.1719H37.6875C38.3088 13.5 38.8125 12.9963 38.8125 12.375C38.8125 11.7537 38.3088 11.25 37.6875 11.25H35.2969V8.15625ZM14.2031 18C14.2031 17.068 14.9586 16.3125 15.8906 16.3125C16.8226 16.3125 17.5781 17.068 17.5781 18C17.5781 18.932 16.8226 19.6875 15.8906 19.6875C14.9586 19.6875 14.2031 18.932 14.2031 18ZM15.8906 14.0625C13.716 14.0625 11.9531 15.8254 11.9531 18C11.9531 20.1746 13.716 21.9375 15.8906 21.9375C18.0652 21.9375 19.8281 20.1746 19.8281 18C19.8281 15.8254 18.0652 14.0625 15.8906 14.0625Z" fill="#7DFFA9" fill-rule="evenodd"></path></svg>