<svg fill="none" height="36" viewbox="0 0 36 36" width="30" xmlns="http://www.w3.org/2000/svg"><path clip-rule="evenodd" d="M1.00699 0C0.450846 0 0 0.450846 0 1.00699V34.993C0 35.5492 0.450846 36 1.00699 36H34.993C35.5492 36 36 35.5492 36 34.993V1.00699C36 0.450846 35.5492 0 34.993 0H1.00699ZM2.01399 33.986V2.01399H33.986V33.986H2.01399ZM6.04196 5.03497C5.48581 5.03497 5.03497 5.48581 5.03497 6.04196V18C5.03497 18.5561 5.48581 19.007 6.04196 19.007H15.4825C16.0387 19.007 16.4895 18.5561 16.4895 18V6.04196C16.4895 5.48581 16.0387 5.03497 15.4825 5.03497H6.04196ZM7.04895 16.993V7.04895H14.4755V16.993H7.04895ZM19.5105 6.04196C19.5105 5.48581 19.9613 5.03497 20.5175 5.03497H29.958C30.5142 5.03497 30.965 5.48581 30.965 6.04196V29.958C30.965 30.5142 30.5142 30.965 29.958 30.965H20.5175C19.9613 30.965 19.5105 30.5142 19.5105 29.958V6.04196ZM21.5245 28.951H28.951V7.04895H21.5245V28.951ZM6.04196 22.028C5.48581 22.028 5.03497 22.4788 5.03497 23.035V29.958C5.03497 30.5142 5.48581 30.965 6.04196 30.965H15.4825C16.0387 30.965 16.4895 30.5142 16.4895 29.958V23.035C16.4895 22.4788 16.0387 22.028 15.4825 22.028H6.04196ZM7.04895 28.951V24.042H14.4755V28.951H7.04895Z" fill="#7DFFA9" fill-rule="evenodd"></path></svg>