<svg fill="none" height="30" viewbox="0 0 184 30" width="184" xmlns="http://www.w3.org/2000/svg"><path clip-rule="evenodd" d="M75.285 28.4h3.567c.431 0 .627-.274.51-.706L70.934 1.47c-.118-.353-.353-.51-.706-.51H65.64c-.352 0-.588.157-.705.51l-8.389 26.224c-.117.432.079.706.51.706h3.567c.353 0 .588-.157.706-.51l1.215-4.037c.039-.157.157-.196.274-.196h10.27c.118 0 .236.039.275.196l1.215 4.037c.118.353.353.51.706.51zM63.76 19.815l4.038-13.328c.078-.196.235-.196.313 0l4.038 13.328c.039.196-.04.275-.196.275h-7.997c-.157 0-.235-.079-.196-.275zm36.238-6.272c-1.137-3.371-3.685-5.488-7.566-5.488-1.92 0-3.37.706-4.469 1.921-.117.157-.274.118-.274-.078v-8.31c0-.393-.235-.628-.627-.628h-3.293c-.392 0-.627.235-.627.627v26.186c0 .392.235.627.627.627h3.293c.392 0 .627-.235.627-.627v-1.02c0-.195.157-.274.275-.078 1.058 1.294 2.547 2.039 4.468 2.039 3.763 0 6.39-2.156 7.527-5.488.47-1.45.705-3.097.705-4.9 0-1.764-.196-3.372-.666-4.783zm-4.979 9.33c-.666 1.215-1.803 1.881-3.292 1.881-1.372 0-2.352-.666-3.058-1.842-.627-1.058-.901-2.666-.901-4.547 0-2 .313-3.567.98-4.665.666-1.098 1.646-1.725 2.94-1.725 1.371 0 2.43.588 3.135 1.647.745 1.136 1.137 2.744 1.137 4.782 0 1.842-.313 3.371-.94 4.469zm17.318-14.818c-4.508 0-7.722 2.235-8.193 5.331-.039.275.196.47.588.51l3.528.431c.392.04.588-.117.706-.51.392-1.136 1.607-1.842 3.489-1.842 2.469 0 3.645 1.215 3.645 3.215v.901c0 .157-.078.235-.235.235h-4.155c-5.214 0-8.154 2.43-8.154 6.468 0 4.116 2.98 5.92 6.625 5.92 2.352 0 4.273-.706 5.645-2.039.157-.117.274-.078.274.118v.98c0 .392.236.627.628.627h3.292c.392 0 .628-.235.628-.627V14.719c0-3.841-3.254-6.664-8.311-6.664zm-.901 17.052c-1.882 0-3.332-.901-3.332-2.626 0-1.96 1.764-3.019 4.508-3.019h3.253c.157 0 .235.079.235.236V21.5c0 2.156-2.195 3.606-4.664 3.606zm22.087 3.607c4.038 0 7.331-2.078 8.35-5.45.067-.235.106-.471.14-.682l.017-.101c.078-.392-.118-.627-.51-.706l-3.253-.51c-.392-.078-.706.353-.745.55 0 0 0 .078-.039.195-.432 1.686-1.96 2.784-3.96 2.784-2.077 0-3.449-1.176-3.959-2.98-.196-.744-.353-1.881-.353-3.488 0-1.53.157-2.744.392-3.49.471-1.724 1.882-2.86 3.92-2.86 2.117 0 3.646 1.254 3.999 2.782l.117.51c.079.353.314.549.706.47l3.254-.51c.392-.078.588-.274.509-.705a8.4 8.4 0 0 1-.015-.107v-.001c-.036-.265-.083-.612-.22-.99-.941-3.018-4.155-5.37-8.35-5.37-4.037 0-7.173 2.156-8.271 5.606-.392 1.137-.627 2.587-.627 4.625 0 1.804.157 3.372.627 4.704 1.137 3.49 4.234 5.724 8.271 5.724zm24.314-19.718v11.76c0 2.43-1.529 4.038-3.881 4.038s-3.645-1.608-3.645-4.038V8.996c0-.392-.235-.627-.627-.627h-3.293c-.392 0-.627.235-.627.627V22.05c0 4.43 3.292 6.624 7.016 6.624 2.196 0 3.764-.705 4.783-1.999.117-.196.274-.117.274.079v1.019c0 .392.235.627.627.627h3.254c.392 0 .627-.235.627-.627V8.996c0-.392-.235-.627-.627-.627h-3.254c-.392 0-.627.235-.627.627zm16.857 19.64c4.821 0 8.036-2.196 8.036-5.96 0-3.92-3.646-5.134-6.899-6.075-.301-.086-.597-.166-.884-.245-2.217-.606-3.938-1.076-3.938-2.5 0-1.41 1.45-2.155 3.45-2.155 2.352 0 3.724 1.097 3.724 2.391v.235c0 .157.235.235.627.235h3.018c.392 0 .627-.196.627-.47 0-3.489-3.175-5.958-7.996-5.958-4.626 0-7.801 2.273-7.801 5.997 0 3.842 3.489 5.096 6.625 6.037.512.17 1.014.319 1.489.458 1.923.567 3.411 1.005 3.411 2.325 0 1.294-1.412 2.274-3.528 2.274-2.274 0-3.803-1.137-3.803-2.43v-.275c0-.157-.235-.274-.627-.274h-3.136c-.392 0-.627.235-.627.627v.196c0 3.175 3.214 5.566 8.232 5.566zM19.868 29.2H3.732C1.664 29.2 0 27.505 0 25.4c0-2.105 1.664-3.8 3.732-3.8h16.136c2.068 0 3.732 1.695 3.732 3.8 0 2.105-1.664 3.8-3.732 3.8zM14 2H9.2v7.6H14V2zm5.868 17.6H3.732C1.664 19.6 0 17.804 0 15.573 0 13.396 1.664 11.6 3.732 11.6h16.136c2.068 0 3.732 1.796 3.732 4.027 0 2.177-1.664 3.973-3.732 3.973zM45.068 2H28.932C26.864 2 25.2 3.695 25.2 5.8c0 2.105 1.664 3.8 3.732 3.8h16.136c2.068 0 3.732-1.695 3.732-3.8 0-2.105-1.664-3.8-3.732-3.8zM34.8 21.6h4.8v7.6h-4.8v-7.6zm10.268-10H28.932c-2.068 0-3.732 1.784-3.732 4s1.664 4 3.732 4h16.136c2.068 0 3.732-1.784 3.732-4s-1.664-4-3.732-4z" fill="#663B9F" fill-rule="evenodd"></path></svg>