<svg viewbox="0 0 49.231 40" xmlns="http://www.w3.org/2000/svg">
<path d="M47.885.769a20.541,20.541,0,0,1-6.442,2.4,10.105,10.105,0,0,0-14.519-.192A9.712,9.712,0,0,0,23.942,10.1a9.483,9.483,0,0,0,.288,2.308A27.948,27.948,0,0,1,12.644,9.327a27.84,27.84,0,0,1-9.183-7.5,9.424,9.424,0,0,0-1.442,5.1,9.47,9.47,0,0,0,4.519,8.365,8.737,8.737,0,0,1-4.519-1.25v.192a9.8,9.8,0,0,0,2.26,6.346A9.987,9.987,0,0,0,10.1,24.135a12.816,12.816,0,0,1-2.692.288,9.784,9.784,0,0,1-1.923-.192,10.6,10.6,0,0,0,3.606,5.048A9.252,9.252,0,0,0,14.9,31.25,19.625,19.625,0,0,1,2.4,35.577q-1.154,0-2.4-.1A28.322,28.322,0,0,0,15.481,40a28.8,28.8,0,0,0,12.308-2.6,25.912,25.912,0,0,0,9.087-6.779,31.982,31.982,0,0,0,5.433-9.231A28.308,28.308,0,0,0,44.231,11.25V10a20.64,20.64,0,0,0,5-5.288,20.424,20.424,0,0,1-5.769,1.635A10.02,10.02,0,0,0,47.885.769Z"></path>
</svg>