<svg viewbox="0 0 743.84 285.43" xmlns="http://www.w3.org/2000/svg"><g data-name="Layer 2"><path d="M65 93.55A8.51 8.51 0 0 1 68.94 89 20.69 20.69 0 0 1 77 86.86q5.23-.51 13.55-.51h3.69q1.07 0 2.85.08c1.19.06 2.73.09 4.64.09V66.44q-3.33-.17-5.94-.26l-5-.17q-2.38-.09-4.87-.09h-5.33q-10.47 0-17.95.34a110.25 110.25 0 0 0-13.08 1.29 53.16 53.16 0 0 0-9.5 2.45 34.87 34.87 0 0 0-7.25 3.69 26.34 26.34 0 0 0-5.35 4.2 15.73 15.73 0 0 0-3.21 5.23 33.27 33.27 0 0 0-1.78 7.38q-.59 4.29-.83 10.81H0v21.79h21.63v59.37h42.08v-59.4h41.37v-21.8H63.71A26.67 26.67 0 0 1 65 93.55zm436.48-46V0H120.94v237.86h190.28V47.57zM292.75 163.73a23.15 23.15 0 0 1-9.87 12.87q-7.26 4.64-20.45 6.26a288.9 288.9 0 0 1-34.11 1.63q-10.7 0-18.31-.6a74.26 74.26 0 0 1-13.08-2.06 33.31 33.31 0 0 1-9.27-3.86 30.54 30.54 0 0 1-6.9-6h-1.9v44.27h-42.07v-115h39.7v11h2.14a26.55 26.55 0 0 1 6.66-6.26 32.93 32.93 0 0 1 9.75-4 81 81 0 0 1 14.5-2.15q8.56-.6 20.68-.6 21.63 0 34 2.06t19.49 6.86a27.09 27.09 0 0 1 5.59 4.85 19.69 19.69 0 0 1 3.57 6.61 46.3 46.3 0 0 1 1.9 9.44 126.51 126.51 0 0 1 .59 13.21q0 13.24-2.61 21.47zm-46-38.27q-3.92-2.06-10.94-2.75t-18.18-.71q-12.61 0-20.33.69t-11.77 2.92a10.82 10.82 0 0 0-5.35 6.26 36.46 36.46 0 0 0-1.31 10.9 27.32 27.32 0 0 0 1.43 9.7 10.71 10.71 0 0 0 5.58 5.75A33.2 33.2 0 0 0 197.3 161q7.25.69 18.9.69 23.77 0 30.67-3.6a9.73 9.73 0 0 0 5.11-5.66q1.3-3.77 1.31-11.84a28.31 28.31 0 0 0-1.31-9.44 10.37 10.37 0 0 0-5.23-5.68zm199.2-13.56H444a35.53 35.53 0 0 0-7.13-6.26 30.5 30.5 0 0 0-9.27-3.86 80.69 80.69 0 0 0-13.08-2q-7.61-.6-18.54-.6-15.93 0-27.46.94a94.27 94.27 0 0 0-17.91 2.88 45.46 45.46 0 0 0-11.17 4.63 22 22 0 0 0-7.25 7 29.66 29.66 0 0 0-3.92 10.37 74.12 74.12 0 0 0-1.19 14.24 104.33 104.33 0 0 0 .71 13.21 37.66 37.66 0 0 0 2.38 9.53 22.62 22.62 0 0 0 4.4 6.95 27 27 0 0 0 6.78 5.15 37.28 37.28 0 0 0 8.32 3.43A77.58 77.58 0 0 0 361 179.7q6.53.86 15 1.28t19.61.43q10.46 0 17.83-.6a70.71 70.71 0 0 0 12.72-2.06 31.74 31.74 0 0 0 9-3.86 34.68 34.68 0 0 0 7-6.18h1.66v7.2q0 4.29-.12 7a17.51 17.51 0 0 1-.71 4.55 11 11 0 0 1-1.55 3.09 14.88 14.88 0 0 1-2.38 2.49 17.13 17.13 0 0 1-4.52 2.57 31.15 31.15 0 0 1-6.66 1.63 98.6 98.6 0 0 1-9.87.86q-5.83.26-14.15.26t-13.79-.34a51.59 51.59 0 0 1-8.92-1.2 13.38 13.38 0 0 1-5.23-2.32 9.26 9.26 0 0 1-2.73-3.86l-.48-.86h-42.78a32.42 32.42 0 0 0 3.8 12.27 25.15 25.15 0 0 0 8.56 8.49 42.32 42.32 0 0 0 9 4.29 67.6 67.6 0 0 0 12 2.75q7 1 16.76 1.46t23.06.43q20 0 32.81-.94a126 126 0 0 0 22.11-3.35 44.14 44.14 0 0 0 14.74-6.52 27.31 27.31 0 0 0 9.27-10.3q1.19-2.57 1.9-4.46a20.94 20.94 0 0 0 1.07-4.2 48.87 48.87 0 0 0 .48-5.49q.12-3.17.12-8.32v-74.62h-39.7zm-3.69 37.8a10.44 10.44 0 0 1-4.64 4.91q-7.37 4-31.62 4-11.65 0-18.9-.69t-11.17-2.76a10.92 10.92 0 0 1-5.35-5.69 26.35 26.35 0 0 1-1.43-9.48 24.35 24.35 0 0 1 1.43-9.14 10.6 10.6 0 0 1 5.71-5.43 37 37 0 0 1 11.89-2.67q7.6-.69 19.73-.69 19 0 26.87 2.41 5 1.72 6.89 5.09t1.9 10.78q0 6.35-1.31 9.37zm181.26-.7a45.55 45.55 0 0 0-8.18-.69q-6.19-.17-20.06-.17-10.16 0-16.59.43a65.5 65.5 0 0 0-10.4 1.37q-4 .95-5.45 2.57a6.67 6.67 0 0 0-.12 8.24 9.34 9.34 0 0 0 4.83 2.57 50.76 50.76 0 0 0 9.28 1.37q5.82.43 14.74.43 11.64 0 19.32-.43a75.1 75.1 0 0 0 12.11-1.47q4.46-1 6.31-2.83a6.06 6.06 0 0 0 1.86-4.55q.03-4.97-7.65-6.84zm-122 88.88h-190.3v47.57h380.57V47.57H501.51zM630.95 125.3a7.81 7.81 0 0 0-4.1-4.44 24.87 24.87 0 0 0-9.07-2q-6-.44-15.91-.43-11.93 0-18.76.26a66.74 66.74 0 0 0-10.56 1.05q-3.73.79-5 2.45a10.39 10.39 0 0 0-1.74 4.47h-44q1-8.92 5.59-14.16t15-8.67q7.7-2.4 23.49-3.6T608.33 99q14.41 0 23.89.26a133 133 0 0 1 15.72 1.2 49.88 49.88 0 0 1 10.25 2.54 37.83 37.83 0 0 1 7.74 4.12 30.26 30.26 0 0 1 4.75 4.38 17.29 17.29 0 0 1 3.13 5.41 32.63 32.63 0 0 1 1.62 7.12 78.55 78.55 0 0 1 .5 9.53v48.91h-42.5v-11.19h-1.74a22.24 22.24 0 0 1-6.57 6.35 38.81 38.81 0 0 1-9.8 4.12 40 40 0 0 1-6.32 1.37q-3.6.52-9.05.77t-13.14.43q-7.69.17-18.35.17A207 207 0 0 1 544 183.3q-9.8-1.2-15.75-4.2a18.34 18.34 0 0 1-8.43-7.81 26 26 0 0 1-2.48-12q0-11 6.07-17.16t19-8.58q4-.68 8.43-1.2t10.66-.86q6.19-.34 14.63-.43t20.59-.09q7.68 0 12.77.26a68.77 68.77 0 0 1 8.81.94 24.26 24.26 0 0 1 6.32 2 42.26 42.26 0 0 1 5.33 3.18h2V133a24.38 24.38 0 0 0-1-7.7zm103-34.86a4.49 4.49 0 0 1 0-.59v-1.79a5.45 5.45 0 0 0-1.77-4.5 6.81 6.81 0 0 0-2.85-1.16 6.57 6.57 0 0 0 3.47-1.34 4.4 4.4 0 0 0 1.41-3.65 5.05 5.05 0 0 0-2.68-4.79 9.67 9.67 0 0 0-4-1h-9.73V91.6h5.26v-7.1h1.11l1.15.07a5.88 5.88 0 0 1 1.79.32 2.43 2.43 0 0 1 1.47 1.47 9.24 9.24 0 0 1 .33 2.46 14.73 14.73 0 0 0 .33 2.77h5l-.18-.56a2.86 2.86 0 0 1-.12-.59zm-6-10.29a4.88 4.88 0 0 1-2.87.74h-2v-5.82h1.28a8.78 8.78 0 0 1 3 .42 2.3 2.3 0 0 1 1.64 2.28 2.72 2.72 0 0 1-1 2.38zm10.56-11.42a17.44 17.44 0 0 0-12.8-5.3 17.74 17.74 0 0 0-12.45 4.91 17.26 17.26 0 0 0-5.65 13.19 18.1 18.1 0 1 0 30.89-12.79zm-2.26 23.45a14.82 14.82 0 0 1-21.09 0 15 15 0 0 1-.05-21.18 14.69 14.69 0 0 1 21.19 0 14.51 14.51 0 0 1 4.35 10.49 14.66 14.66 0 0 1-4.37 10.7z" data-name="Layer 1" fill="#fff"></path></g></svg>