<svg height="797.448" viewbox="0 0 1356.42 797.448" width="1356.42" xmlns="http://www.w3.org/2000/svg"><path d="M253.045 710.874v-2.078h-3.944c.015-.305.057-.55.125-.736.068-.185.193-.33.374-.434.181-.104.438-.172.771-.205.332-.033.763-.049 1.292-.049h.351c.068 0 .159.003.272.008.113.006.261.008.442.008v-1.914c-.212-.011-.4-.019-.566-.025-.167-.005-.325-.011-.476-.016-.151-.005-.306-.008-.465-.008h-.51c-.665 0-1.235.011-1.711.033-.476.022-.892.063-1.247.123-.355.06-.657.136-.907.229-.249.093-.48.21-.691.352-.212.131-.382.265-.51.401-.129.136-.231.303-.306.499-.076.197-.132.431-.17.704s-.064.616-.079 1.031h-2.063v2.078h2.063v5.661h4.012v-5.661h3.943zm32.625 8.786c.529-.131.997-.338 1.405-.622.408-.284.703-.611.884-.982.076-.164.136-.306.181-.425.045-.12.079-.254.102-.401.023-.147.038-.322.045-.524.007-.202.011-.466.011-.794v-7.117h-3.785v1.014h-.181c-.212-.24-.439-.439-.68-.597-.242-.158-.537-.281-.884-.368-.348-.087-.763-.15-1.247-.188-.484-.038-1.073-.057-1.768-.057-1.013 0-1.885.03-2.618.09-.733.06-1.303.15-1.711.27-.423.12-.778.267-1.065.442-.287.175-.518.398-.691.671-.174.273-.299.6-.374.982-.076.382-.113.834-.113 1.358 0 .491.022.911.068 1.26.045.349.121.652.227.908.106.256.245.477.419.662.174.186.389.349.646.491.227.131.491.24.793.327s.661.158 1.077.213c.415.055.891.096 1.428.122.536.027 1.16.041 1.87.041.665 0 1.231-.019 1.7-.057.468-.038.873-.104 1.213-.196.34-.093.627-.215.861-.368.234-.153.457-.349.669-.589h.159v.687c0 .273-.004.497-.011.671-.008.174-.031.319-.068.433-.038.115-.087.213-.147.295-.061.082-.136.161-.226.237-.121.098-.265.18-.431.245-.166.065-.378.117-.635.155-.257.038-.571.065-.941.082-.37.016-.82.024-1.349.024s-.967-.011-1.315-.033c-.348-.022-.631-.06-.85-.115-.219-.055-.385-.128-.499-.221-.113-.093-.201-.216-.261-.368l-.045-.082h-4.08c.06.469.181.859.363 1.17.181.311.453.581.816.81.257.164.544.3.862.409.317.109.699.196 1.145.262.445.065.978.112 1.598.139.62.027 1.352.041 2.199.041 1.269 0 2.312-.03 3.128-.09.814-.058 1.516-.165 2.106-.317zm-6.766-5.465c-.461-.044-.816-.131-1.065-.263-.249-.131-.419-.312-.51-.542-.091-.23-.136-.532-.136-.904 0-.362.045-.652.136-.871.091-.219.272-.392.544-.518s.65-.211 1.133-.255c.483-.044 1.111-.066 1.881-.066 1.209 0 2.063.077 2.561.23.317.109.536.271.657.485.121.214.181.556.181 1.027 0 .405-.042.704-.125.896-.083.192-.23.348-.442.468-.468.252-1.473.378-3.015.378-.739.001-1.34-.021-1.8-.065zm28.21-9.152h-17.72v17.72h-17.72v10.812h35.441v-28.532zm-13.293 11.574c-.596-.076-1.074-.21-1.436-.401-.362-.191-.618-.439-.769-.745-.151-.305-.226-.687-.226-1.145 0-.698.185-1.243.554-1.636.369-.393.946-.665 1.73-.818.241-.043.498-.082.769-.115s.596-.06.973-.082c.377-.022.822-.035 1.334-.041.512-.005 1.138-.008 1.877-.008.467 0 .855.008 1.164.024.309.016.577.047.803.09.226.044.418.106.577.188.158.082.321.183.486.303h.181v-.409c0-.308-.03-.553-.091-.736-.061-.182-.185-.323-.374-.423-.189-.099-.465-.163-.827-.191-.363-.028-.846-.041-1.451-.041-.725 0-1.296.008-1.711.025-.416.017-.737.05-.963.1-.227.05-.378.128-.453.234-.076.106-.128.248-.159.426h-4.012c.06-.567.23-1.017.51-1.35.279-.333.737-.608 1.371-.826.468-.153 1.182-.267 2.142-.343.96-.076 2.248-.115 3.865-.115.876 0 1.603.008 2.179.024.576.016 1.054.055 1.434.115.38.06.691.139.935.237.243.098.478.229.706.393.167.131.311.27.433.417.121.147.216.319.285.515.068.196.117.423.148.679.03.256.046.559.046.908v4.663h-3.876v-1.064h-.159c-.166.251-.365.453-.599.605-.234.153-.532.284-.894.393-.166.055-.358.098-.576.131-.219.033-.494.057-.826.074-.332.016-.731.03-1.199.041-.468.011-1.026.016-1.674.016-.889.002-1.631-.036-2.227-.112zm-33.638-5.498c-.248.142-.411.341-.491.597-.08.256-.12.603-.12 1.039 0 .382.044.69.131.924.087.235.258.417.513.548.254.131.603.219 1.047.262.443.044 1.022.065 1.735.065 1.455 0 2.393-.115 2.815-.343.232-.12.389-.3.469-.54.08-.24.12-.616.12-1.129 0-.371-.04-.671-.12-.9-.08-.229-.24-.409-.48-.54-.24-.131-.575-.218-1.004-.262-.429-.043-.986-.065-1.669-.065-.771 0-1.393.022-1.866.065-.473.045-.833.138-1.08.279zm29.21-6.076v-10.812h-35.441v28.532h17.72v-17.72h17.721zm-21.987 3.753c.756.131 1.353.349 1.789.655.204.142.374.297.513.466.138.169.247.379.327.63.08.251.138.551.175.9.036.349.054.769.054 1.26 0 .84-.08 1.522-.24 2.045-.16.524-.462.933-.906 1.227-.444.295-1.069.494-1.877.597s-1.851.155-3.131.155c-.655 0-1.215-.019-1.68-.057-.466-.038-.866-.104-1.2-.197-.335-.093-.619-.215-.851-.368-.233-.153-.444-.344-.633-.573h-.175v4.221h-3.862v-10.962h3.644v1.047h.196c.175-.24.378-.439.611-.597.232-.158.531-.286.895-.384.363-.098.807-.166 1.331-.205.524-.038 1.156-.057 1.898-.057 1.325.001 2.365.066 3.122.197zm33.62 5.907c.271-.066.463-.156.576-.27s.17-.259.17-.433c0-.316-.233-.534-.7-.655-.12-.033-.369-.054-.746-.065-.376-.011-.986-.016-1.829-.016-.618 0-1.122.014-1.513.041-.392.027-.708.071-.949.131-.241.06-.407.142-.497.245-.09.104-.135.237-.135.401 0 .153.041.281.124.384.083.104.229.186.44.245.211.06.493.104.847.131.354.027.802.041 1.344.041.708 0 1.295-.013 1.762-.041.466-.028.835-.074 1.106-.139zm7.063-8.026c0 .435.149.802.447 1.1.298.298.665.447 1.1.447.421 0 .783-.146 1.084-.437.309-.301.464-.671.464-1.111 0-.427-.151-.792-.454-1.094-.302-.302-.667-.454-1.094-.454-.407 0-.762.14-1.065.42-.321.301-.482.677-.482 1.129zm2.451-.897c.248.253.372.552.372.897 0 .354-.125.658-.374.911-.249.252-.549.378-.901.378-.353 0-.654-.125-.903-.376-.251-.251-.376-.555-.376-.914 0-.346.123-.645.37-.897.251-.258.554-.386.909-.386.351.001.652.13.903.387zm-1.132 1.758v-.607h.095l.099.006c.069.004.12.013.153.027.062.024.104.066.126.126.014.036.023.106.028.21.005.104.014.183.028.237h.428l-.016-.048c-.006-.017-.01-.034-.012-.05-.002-.017-.003-.034-.003-.05v-.153c0-.175-.05-.303-.151-.385-.055-.044-.136-.077-.244-.099.118-.013.217-.051.297-.115.081-.064.121-.168.121-.312 0-.189-.076-.326-.229-.41-.09-.049-.202-.078-.338-.088-.024-.001-.142-.002-.354-.003s-.371-.001-.478-.001v1.716h.45zm0-.916v-.498h.109c.112 0 .199.012.26.036.092.036.139.102.139.195 0 .094-.029.162-.088.204-.059.042-.141.063-.246.063h-.174z" fill="#A1EDA0"></path><path d="M559.337 508.047c-13.396 0-24.294-10.898-24.294-24.294s10.898-24.294 24.294-24.294 24.294 10.898 24.294 24.294-10.898 24.294-24.294 24.294z" fill="none" stroke="#A1EDA0" stroke-miterlimit="10"></path><circle cx="559.337" cy="483.753" fill="none" r="22.294" stroke="#A1EDA0" stroke-miterlimit="10"></circle><path d="M559.337 591.351c-13.396 0-24.294-10.898-24.294-24.294s10.898-24.295 24.294-24.295 24.294 10.898 24.294 24.295c0 13.396-10.898 24.294-24.294 24.294z" fill="none" stroke="#A1EDA0" stroke-miterlimit="10"></path><circle cx="559.337" cy="567.057" fill="none" r="22.294" stroke="#A1EDA0" stroke-miterlimit="10"></circle><circle cx="600.989" cy="525.405" fill="none" r="24.294" stroke="#A1EDA0" stroke-miterlimit="10"></circle><circle cx="600.989" cy="525.405" fill="none" r="22.294" stroke="#A1EDA0" stroke-miterlimit="10"></circle><circle cx="517.685" cy="525.405" fill="none" r="24.294" stroke="#A1EDA0" stroke-miterlimit="10"></circle><circle cx="517.685" cy="525.405" fill="none" r="22.294" stroke="#A1EDA0" stroke-miterlimit="10"></circle><path d="M284.751 578.098c-2.984 0-5.413-2.428-5.413-5.412v-28.808c0-.255-.208-.463-.463-.463h-28.807c-2.984 0-5.413-2.429-5.413-5.413v-25.874c0-2.984 2.428-5.412 5.413-5.412h28.807c.255 0 .463-.208.463-.464v-28.807c0-2.984 2.428-5.413 5.413-5.413h25.874c2.984 0 5.413 2.429 5.413 5.413v28.807c0 .256.208.464.463.464h28.807c2.984 0 5.413 2.428 5.413 5.412v25.874c0 2.984-2.428 5.413-5.413 5.413h-28.807c-.255 0-.463.208-.463.463v28.808c0 2.984-2.428 5.412-5.413 5.412h-25.874z" fill="none" stroke="#A1EDA0" stroke-miterlimit="10"></path><path d="M345.308 508.716h-28.807c-1.36 0-2.463-1.103-2.463-2.463v-28.807c0-1.885-1.528-3.413-3.413-3.413h-25.874c-1.885 0-3.413 1.528-3.413 3.413v28.807c0 1.36-1.103 2.463-2.463 2.463h-28.807c-1.885 0-3.413 1.528-3.413 3.413v25.874c0 1.885 1.528 3.413 3.413 3.413h28.807c1.36 0 2.463 1.103 2.463 2.463v28.807c0 1.885 1.528 3.413 3.413 3.413h25.874c1.885 0 3.413-1.528 3.413-3.413v-28.807c0-1.36 1.103-2.463 2.463-2.463h28.807c1.885 0 3.413-1.528 3.413-3.413v-25.874c0-1.886-1.528-3.413-3.413-3.413zM642.623 421.915H227.086c-2.342 0-4.24-1.898-4.24-4.24V39.792c0-2.342 1.898-4.24 4.24-4.24h415.538c2.341 0 4.239 1.898 4.239 4.239v377.884c0 2.341-1.898 4.24-4.24 4.24z" fill="none" stroke="#A1EDA0" stroke-miterlimit="10"></path><path d="M622.676 767.841H247.131c-16.695 0-30.229-13.534-30.229-30.229V38.754c0-5.052 4.095-9.147 9.147-9.147h417.71c5.052 0 9.147 4.095 9.147 9.147v698.857c0 16.696-13.534 30.23-30.23 30.23zM1286.344 767.841H910.798c-16.695 0-30.229-13.534-30.229-30.229V38.754c0-5.052 4.095-9.147 9.147-9.147h417.71c5.052 0 9.147 4.095 9.147 9.147v698.857c0 16.696-13.534 30.23-30.229 30.23z" fill="none" stroke="#A1EDA0" stroke-miterlimit="10"></path><circle cx="624.21" cy="681.134" fill="none" r="12.386" stroke="#A1EDA0" stroke-miterlimit="10"></circle><path d="M620.048 680.624c-1.98-.125-3.613 1.507-3.488 3.488.103 1.633 1.428 2.958 3.061 3.061 1.98.125 3.612-1.507 3.487-3.487-.102-1.633-1.427-2.958-3.06-3.062zM631.426 682.258l-4.375-7.577c-.906-1.57-2.913-2.107-4.483-1.201-1.57.906-2.107 2.913-1.201 4.483l4.375 7.577c.906 1.57 2.913 2.107 4.483 1.201 1.57-.907 2.107-2.914 1.201-4.483z" fill="#A1EDA0"></path><circle cx="624.21" cy="720.772" fill="none" r="12.386" stroke="#A1EDA0" stroke-miterlimit="10"></circle><circle cx="624.21" cy="641.498" fill="none" r="12.386" stroke="#A1EDA0" stroke-miterlimit="10"></circle><path d="M266.821 77.095h336.164V379.69H266.821z" fill="none" stroke="#A1EDA0" stroke-miterlimit="10"></path><g fill="#A1EDA0"><path d="M1285.548 215.969c0 .42.136.869.391 1.143l-1.395-.313v-2.653h-1.161v3.571l3.249.75c.039-.136.37-1.102.419-1.229-.234-.204-.43-.546-.43-.975 0-.586.342-1.123 1.063-1.123.634 0 1.034.488 1.034 1.093 0 .673-.477 1.122-1.063 1.151l.283 1.257c.995-.077 1.931-1.033 1.931-2.409 0-1.522-1.024-2.43-2.204-2.43-1.356.002-2.117.899-2.117 2.167zM1288.098 210.438l-4.715 1.655v1.351l6.344-2.344v-1.272l-6.344-2.353v1.307zM1288.026 176.255l-.727-1.195c-.468-.764-1.117-1.203-1.921-1.203-1.079 0-1.996.851-1.996 2.236 0 1.443.984 2.265 2.073 2.265.152 0 .344-.028.43-.048l.038-1.252c-.106.029-.23.049-.344.049-.584 0-1.032-.325-1.032-.985 0-.622.401-.937.851-.937.43 0 .755.21 1.07.736l.611 1.022c.669 1.109 1.558 1.453 2.647 1.463v-4.587h-1.137v2.972c-.238-.096-.41-.296-.563-.536zM1283.383 170.728l6.345 2.434v-1.307l-1.45-.528v-2.577l1.45-.528v-1.342l-6.345 2.415v1.433zm3.767.187l-2.399-.877 2.399-.877v1.754zM1284.106 182.407h1.68v21.005h-1.68zM1287.467 199.211h1.68v4.201h-1.68zM1287.467 190.809h1.68v4.201h-1.68zM1287.467 182.407h1.68v4.201h-1.68z"></path><g><path d="M1283.528 134.903c-2.254 1.225-3.817 3.676-3.817 6.464v.399c.211 3.309 2.584 6.035 5.679 6.71v4.196h-3.275v-4.625h-2.553v6.188c.12.766.539 1.011 1.11 1.042h13.131v-2.605h-5.859v-4.136c3.246-.52 5.799-3.309 5.981-6.77.029-.123.029-.277.029-.399 0-2.727-1.473-5.116-3.667-6.371v3.187c.752.856 1.203 1.959 1.203 3.184 0 .122 0 .277-.031.399-.21 2.42-2.193 4.351-4.626 4.351-2.435 0-4.42-1.931-4.628-4.351-.032-.123-.032-.277-.032-.399 0-1.316.512-2.512 1.354-3.37v-3.094z"></path><path d="M1284.369 141.767v-.215c0-.705.27-1.316.722-1.776v-1.654c-1.203.673-2.045 1.96-2.045 3.43 0 .062.031.153.031.215.091 2.022 1.772 3.645 3.758 3.645 2.012 0 3.665-1.623 3.754-3.645 0-.062.031-.153.031-.215 0-1.439-.782-2.696-1.923-3.368v1.683c.39.46.63 1.043.63 1.685v.215c-.12 1.287-1.202 2.297-2.492 2.297-1.295-.001-2.346-1.011-2.466-2.297z"></path></g><g><path d="M1286.858 123.301c3.914 0 7.096-2.961 7.096-6.578 0-.33-.022-.638-.085-.965h-2.26c.044.261.065.546.065.833 0 2.542-2.172 4.604-4.816 4.604-2.667 0-4.84-2.061-4.84-4.604 0-.287.023-.572.066-.833h-2.259c-.044.326-.087.635-.087.965 0 3.617 3.205 6.578 7.12 6.578zM1286.858 111.566c3.914 0 7.096-2.961 7.096-6.557 0-.352-.022-.658-.085-.986h-2.26c.044.264.065.548.065.833 0 2.149-1.547 3.969-3.634 4.473v-4.034h-2v4.1c-2.28-.373-4.022-2.259-4.022-4.54 0-.285.023-.57.066-.833h-2.259c-.044.328-.087.635-.087.986 0 3.597 3.205 6.558 7.12 6.558z"></path></g><g><path d="M1281.724 48.241c-.254-.371-.47-.707-.679-1.092-.075-.138-.123-.255-.199-.393-.071.002-.209.087-.286.119-.093.041-.195.077-.301.107-.225.063-.411.112-.66.154-1.187.197-1.868.118-3.039-.006-.5-.053-.979-.139-1.48-.173.026.263.431.917.566 1.121.998 1.5 2.756 3.163 4.113 4.324.784.67 1.086.829 1.984 1.396 1.061.669 2.147 1.226 3.23 1.828.354.197.776.413 1.12.579.325.157.22.252-.036.397-.192.108-.374.2-.557.292-.381.194-.73.387-1.124.574-.19.09-.377.199-.55.281-.58.274-1.094.577-1.696.854.011.105.564.971.66 1.126l1.867 3.043c.045.072.099.231.195.271.089-.109.206-.36.286-.493.308-.516.516-.913.87-1.456.903-1.383 1.626-2.313 2.739-3.483.247-.258.506-.516.769-.781l.593-.57c.056-.053.14-.134.21-.195-.037-.057-.091-.079-.16-.122-.446-.28-.823-.563-1.235-.833-.356-.234-1.004-.728-1.356-.989-.742-.548-1.259-.993-1.945-1.563-1.431-1.188-2.868-2.814-3.899-4.317zM1292.145 54.841c-.795.127-1.214.848-1.055 1.771.07.404.228.708.528.901.803.515 2.493.28 2.234-1.566-.114-.813-.774-1.255-1.707-1.106zm1.089 1.312c.066.45-.204.691-.608.714-.465.026-.819-.049-.912-.451-.102-.443.215-.701.615-.721.431-.021.844.047.905.458zM1293.804 50.29c-.273.023-.653.001-.938.001-.412 0-2.538-.019-2.764.011l.002 1.167 1.303.005.007 1.279c-.023.073-.034.053-.134.05l-1.157.004c.012.034-.005.981.001 1.139.203.038.682.01.914.01.374 0 2.593.016 2.761-.003.023-.101.024-1.065-.003-1.153l-1.478-.006c-.01-.019-.009-.008-.019-.053-.025-.111 0-1.246.007-1.274.239-.068 1.379.025 1.483-.031.056-.102.013-.953.015-1.146zM1292.474 59.05c-.062.054-.123.103-.171.18-.079.128-.064.168-.122.234-.053-.088-.069-.2-.111-.299-.286-.679-1.416-.858-1.829-.058-.203.394-.143 1.78-.143 2.382 0 .713-.053.589.255.589l3.463-.003.01-1.195-1.509-.004c-.017-.265.036-.371.18-.493.098-.083 1.209-.703 1.327-.76.004-.373.017-.991-.005-1.316l-.033-.004c-.077.004-.803.42-.893.464-.174.088-.282.165-.419.283zm-.869 1.826l-.743-.002c-.022-.149-.015-.576.004-.717.031-.221.112-.379.375-.368.433.019.395.687.364 1.087zM1291.793 46.221c-.371.506-.395 1.232-.544 1.633-.081.219-.272.304-.428.117-.107-.128-.112-.431-.04-.604.09-.217.229-.231.427-.308l-.059-1.114c-.393.009-.74.259-.893.529-.183.324-.242.8-.215 1.225.029.457.082.807.33 1.11.223.273.586.446 1.034.33.737-.191.818-1.318 1.018-1.865.173-.476.68-.346.73.113.026.237-.031.432-.141.568-.155.192-.371.181-.482.242l.064 1.12c.361.026.806-.27.975-.473.412-.497.414-1.844.098-2.39-.463-.797-1.433-.836-1.874-.233z"></path></g><path d="M1307.105 91.53V75.563h-2.705V91.53h2.705zm-12.613-13.559l-2.096-.097-11.539-.532v-.168c0-.589-.479-1.066-1.069-1.066h-1.003c-.331 0-.596.178-.789.416l-3.342-1.878v1.26l2.547 1.432c-.609.128-1.078.643-1.078 1.29v2.151h-.187c-.706 0-1.283.574-1.283 1.282v2.97c0 .707.577 1.282 1.288 1.282l.182-.002v2.153c0 .635.451 1.142 1.043 1.283l-2.513 1.412v1.26l3.326-1.869c.193.248.466.433.805.433h1.003c.59 0 1.069-.478 1.069-1.066v-.167l17.035-.785 4.122 2.316v-1.26l-2.328-1.308c1.076-.347 1.873-1.29 1.873-2.474v-7.381c0-.496-.101-.969-.283-1.399l.738-.415v-1.26l-.856.481-.463.26c-.658-.769-1.635-1.258-2.726-1.258-1.677.002-3.08 1.152-3.476 2.704zm-18.739 7.061v-2.97c0-.102.083-.185.184-.185h.187v3.339l-.187.002c-.101-.001-.184-.086-.184-.186zm1.716 3.681c-.136 0-.247-.112-.247-.248v-9.836c0-.136.111-.248.247-.248h.247v10.333h-.247zm1.343.11l-.025-10.594.974.547.023 9.5-.972.547zm15.48-9.762l.095.004c.018.316.074.622.169.911l-.092.052-5.118 2.876-7.891-4.435 12.837.592zm3.151.552l1.437-.808c.001.018.005.036.005.054 0 .507-.412.919-.919.919-.194 0-.374-.061-.523-.165zm-14.305 5.686c0-.464-.378-.841-.842-.841h-1.439v-1.825h1.439c.464 0 .842-.377.842-.839v-1.12l5.087 2.859-5.087 2.859v-1.093zm-1.099 1.083h-1.182v-.827h1.182v.827zm0-4.845h-1.182v-.827h1.182v.827zm-.635 7.09l7.942-4.463 6.739 3.787-14.681.676zm19.055-7.186v4.799c0 .846-.663 1.539-1.507 1.578l-.795.037-7.69-4.322 4.485-2.521.104-.058c.652.904 1.712 1.495 2.911 1.495.969.001 1.846-.384 2.492-1.008zm0-2.582c0 1.376-1.115 2.492-2.492 2.492-.788 0-1.49-.367-1.946-.938l.42-.236c.37.428.916.701 1.526.701 1.114 0 2.018-.903 2.018-2.018 0-.216-.035-.424-.098-.62l.418-.235c.098.267.154.554.154.854zm-2.313-.9l-1.037.583c.13-.35.464-.601.859-.601.06 0 .12.006.178.018zm1.563-.879l-.435.244c-.352-.3-.808-.482-1.307-.482-1.114 0-2.018.903-2.018 2.018 0 .108.011.214.027.318l-.435.245c-.042-.181-.066-.369-.066-.562 0-1.376 1.115-2.492 2.491-2.492.68-.001 1.294.271 1.743.711z"></path></g><g fill="#A1EDA0"><path d="M898.515 217.31l-.199-1.37c-.043-.305-.201-.39-.379-.39-.496 0-.908.327-.908 1.096 0 .696.432 1.085 1.023 1.149l-.221.948c-.97-.106-1.644-.98-1.644-2.075 0-1.518.865-2.108 1.855-2.108h2.54c.443 0 .705-.042.832-.063v.97c-.127.021-.316.052-.685.052.359.221.843.727.843 1.634 0 1.032-.716 1.696-1.517 1.696-.907 0-1.413-.665-1.54-1.539zm.728-1.76h-.232l.232 1.549c.063.421.305.738.758.738.379 0 .738-.317.738-.822 0-.812-.39-1.465-1.496-1.465zM901.413 212.028v.99h-5.069v-.969h.728c-.631-.369-.875-.97-.875-1.56 0-1.211.875-1.812 2.003-1.812h3.214v.99h-3.046c-.705 0-1.275.295-1.275 1.181 0 .779.623 1.18 1.392 1.18h2.928zM898.515 205.871l-.199-1.37c-.043-.305-.201-.39-.379-.39-.496 0-.908.327-.908 1.096 0 .696.432 1.085 1.023 1.149l-.221.948c-.97-.106-1.644-.98-1.644-2.075 0-1.518.865-2.108 1.855-2.108h2.54c.443 0 .705-.042.832-.063v.97c-.127.021-.316.052-.685.052.359.221.843.727.843 1.634 0 1.032-.716 1.696-1.517 1.696-.907 0-1.413-.664-1.54-1.539zm.728-1.759h-.232l.232 1.549c.063.421.305.738.758.738.379 0 .738-.317.738-.822 0-.812-.39-1.465-1.496-1.465zM901.413 201.579h-7.629v-.99h7.629v.99zM898.874 194.139c1.549 0 2.698 1.075 2.698 2.593 0 1.517-1.148 2.592-2.698 2.592-1.538 0-2.687-1.075-2.687-2.592-.001-1.518 1.149-2.593 2.687-2.593zm0 1.011c-1.169 0-1.802.738-1.802 1.581s.633 1.58 1.802 1.58c1.181 0 1.812-.738 1.812-1.58 0-.843-.632-1.581-1.812-1.581zM901.466 192.281c.705-.074 1.242-.612 1.242-1.381 0-1.064-.547-1.549-1.644-1.549h-.726c.463.242.832.79.832 1.549 0 1.349-1.023 2.329-2.456 2.329-1.369 0-2.466-.938-2.466-2.329 0-.78.295-1.307.801-1.56h-.707v-.98h4.69c1.285 0 2.54.632 2.54 2.54 0 1.265-.801 2.213-1.886 2.339l-.22-.958zm-2.75-2.972c-.98 0-1.623.59-1.623 1.444 0 .874.643 1.465 1.623 1.465.99 0 1.623-.569 1.623-1.465 0-.854-.643-1.444-1.623-1.444zM901.571 184.986c0 1.181-.885 1.897-2.033 1.897h-3.193v-.991h3.046c.695 0 1.306-.316 1.306-1.148 0-.801-.527-1.201-1.296-1.201h-3.056v-.991h4.13c.402 0 .76-.032.939-.052v.948c-.117.021-.4.042-.611.042.526.274.768.906.768 1.496zM899.97 176.501c.896.284 1.601 1.096 1.601 2.275 0 1.36-.99 2.55-2.708 2.55-1.591 0-2.677-1.148-2.677-2.423 0-1.56 1.076-2.434 2.656-2.434.125 0 .252.01.316.021v3.815c.906-.021 1.537-.674 1.537-1.528 0-.822-.453-1.233-1.021-1.423l.296-.853zm-1.613 1c-.726.021-1.296.496-1.296 1.391 0 .833.643 1.338 1.296 1.38v-2.771zM900.001 174.738c0-.411.328-.738.738-.738s.728.327.728.738-.318.727-.728.727-.738-.316-.738-.727zM898.874 171.986c1.16 0 1.781-.728 1.781-1.55 0-.948-.643-1.296-1.043-1.411l.379-.875c.728.243 1.58.97 1.58 2.287 0 1.476-1.158 2.561-2.698 2.561-1.58 0-2.687-1.107-2.687-2.55 0-1.349.843-2.045 1.613-2.255l.379.895c-.496.127-1.076.496-1.076 1.36.001.8.591 1.538 1.772 1.538zM898.874 162.278c1.549 0 2.698 1.075 2.698 2.593 0 1.517-1.148 2.592-2.698 2.592-1.538 0-2.687-1.075-2.687-2.592-.001-1.518 1.149-2.593 2.687-2.593zm0 1.012c-1.169 0-1.802.738-1.802 1.581s.633 1.58 1.802 1.58c1.181 0 1.812-.738 1.812-1.58 0-.843-.632-1.581-1.812-1.581z"></path><g><path d="M901.413 142.784h-7.471v-2.613c0-1.897 1.297-3.551 3.751-3.551 2.445 0 3.72 1.676 3.72 3.573v2.591zm-.916-2.561c0-1.38-.928-2.539-2.804-2.539-1.886 0-2.833 1.138-2.833 2.518v1.549h5.637v-1.528zM899.97 130.884c.896.284 1.601 1.096 1.601 2.275 0 1.36-.99 2.55-2.708 2.55-1.591 0-2.677-1.148-2.677-2.423 0-1.56 1.076-2.434 2.656-2.434.125 0 .252.01.316.021v3.815c.906-.021 1.537-.674 1.537-1.528 0-.822-.453-1.233-1.021-1.423l.296-.853zm-1.613 1c-.726.021-1.296.496-1.296 1.391 0 .833.643 1.338 1.296 1.38v-2.771zM899.78 129.162c.527-.063.949-.463.949-1.18 0-.559-.316-.864-.674-.864-.316 0-.559.232-.654.653l-.189.864c-.17.79-.707 1.265-1.423 1.265-.865 0-1.603-.812-1.603-1.802 0-1.391.906-1.823 1.359-1.929l.328.875c-.264.042-.844.252-.844 1.054 0 .505.328.843.676.843.305 0 .527-.19.611-.579l.178-.822c.201-.917.758-1.401 1.507-1.401.717 0 1.57.601 1.57 1.854 0 1.391-.896 1.981-1.476 2.065l-.315-.896zM893.71 124.335c0-.401.316-.717.717-.717.39 0 .705.317.705.717 0 .39-.316.705-.705.705-.401 0-.717-.316-.717-.705zm7.703.483h-5.069v-.98h5.069v.98zM901.466 121.562c.705-.074 1.242-.612 1.242-1.381 0-1.065-.547-1.549-1.644-1.549h-.726c.463.242.832.79.832 1.549 0 1.349-1.023 2.329-2.456 2.329-1.369 0-2.466-.938-2.466-2.329 0-.78.295-1.307.801-1.56h-.707v-.98h4.69c1.285 0 2.54.632 2.54 2.54 0 1.265-.801 2.213-1.886 2.339l-.22-.958zm-2.75-2.973c-.98 0-1.623.59-1.623 1.444 0 .874.643 1.465 1.623 1.465.99 0 1.623-.569 1.623-1.465 0-.853-.643-1.444-1.623-1.444zM901.413 115.067v.991h-5.069v-.97h.728c-.631-.369-.875-.97-.875-1.56 0-1.211.875-1.812 2.003-1.812h3.214v.99h-3.046c-.705 0-1.275.295-1.275 1.181 0 .779.623 1.18 1.392 1.18h2.928zM899.97 105.718c.896.284 1.601 1.096 1.601 2.275 0 1.36-.99 2.55-2.708 2.55-1.591 0-2.677-1.148-2.677-2.423 0-1.56 1.076-2.434 2.656-2.434.125 0 .252.01.316.021v3.815c.906-.021 1.537-.674 1.537-1.528 0-.822-.453-1.232-1.021-1.423l.296-.853zm-1.613 1c-.726.021-1.296.496-1.296 1.392 0 .832.643 1.338 1.296 1.38v-2.772zM900.645 100.868c.484.242.906.78.906 1.57 0 1.485-1.181 2.402-2.687 2.402-1.433 0-2.655-.97-2.655-2.402 0-.896.441-1.38.853-1.55h-3.278v-.98h6.691c.486 0 .855-.042.939-.052v.958c-.117.021-.379.053-.685.053h-.084zm.03 1.475c0-.906-.789-1.465-1.833-1.465-1.043 0-1.761.548-1.761 1.454 0 .906.738 1.496 1.781 1.496s1.813-.537 1.813-1.485zM893.71 95.099c0-.401.316-.717.717-.717.39 0 .705.317.705.717 0 .39-.316.705-.705.705-.401 0-.717-.316-.717-.705zm7.703.484h-5.069v-.981h5.069v.981zM901.413 91.926v.991h-5.069v-.97h.728c-.631-.369-.875-.97-.875-1.56 0-1.211.875-1.812 2.003-1.812h3.214v.99h-3.046c-.705 0-1.275.295-1.275 1.181 0 .779.623 1.18 1.392 1.18h2.928zM898.863 84.356h-4.921v-1.023h4.891c1.138 0 1.779-.621 1.779-1.664 0-1.054-.642-1.654-1.779-1.654h-4.891v-1.033h4.921c1.759 0 2.708 1.169 2.708 2.687 0 1.517-.949 2.687-2.708 2.687zM895.965 73.35c-.537.085-1.275.538-1.275 1.581 0 .843.549 1.443 1.244 1.443.537 0 .949-.327 1.084-.959l.244-1.116c.273-1.244 1.054-1.939 2.097-1.939 1.158 0 2.212.99 2.212 2.582 0 1.802-1.158 2.655-2.224 2.792l-.316-.99c.832-.074 1.603-.664 1.603-1.791 0-1.033-.539-1.538-1.191-1.538-.537 0-1.002.369-1.16 1.117l-.232 1.064c-.232 1.065-.927 1.823-2.044 1.823-1.17 0-2.224-1.085-2.224-2.466 0-1.686 1.043-2.36 1.855-2.528l.327.925zM899.327 66.625v3.309l2.087.79v1.106l-7.471-2.971v-1.191l7.471-2.971v1.117l-2.087.811zm-.96 2.94v-2.571l-3.35 1.296 3.35 1.275zM901.413 63.417v.959l-7.471-3.614v-.959l7.471 3.614zM898.863 58.958h-4.921v-1.022h4.891c1.138 0 1.779-.621 1.779-1.664 0-1.054-.642-1.654-1.779-1.654h-4.891v-1.033h4.921c1.759 0 2.708 1.169 2.708 2.687 0 1.516-.949 2.686-2.708 2.686zM898.021 49.692l1.138 1.064h2.255v1.033h-7.471v-1.033h3.847l-3.847-3.498v-1.36l3.331 3.108 4.141-3.151v1.307l-3.394 2.53zM913.713 135.735h-5.817l5.817 2.55v.948l-5.817 2.528h5.817v1.023h-7.471v-1.402l6.08-2.634-6.08-2.655v-1.38h7.471v1.022zM910.815 131.746l-.199-1.37c-.043-.305-.201-.39-.379-.39-.496 0-.908.327-.908 1.096 0 .696.432 1.085 1.023 1.149l-.221.948c-.97-.106-1.644-.98-1.644-2.075 0-1.518.865-2.108 1.855-2.108h2.54c.443 0 .705-.042.832-.063v.97c-.127.021-.316.052-.685.052.359.221.843.727.843 1.634 0 1.032-.716 1.696-1.517 1.696-.907-.001-1.413-.665-1.54-1.539zm.728-1.76h-.232l.232 1.549c.063.422.305.738.758.738.379 0 .738-.316.738-.822 0-.812-.39-1.465-1.496-1.465zM912.945 123.903c.484.242.906.78.906 1.57 0 1.485-1.181 2.402-2.687 2.402-1.433 0-2.655-.97-2.655-2.402 0-.896.441-1.38.853-1.55h-3.277v-.98h6.691c.486 0 .855-.042.939-.052v.958c-.117.021-.379.053-.685.053h-.085zm.03 1.475c0-.906-.789-1.465-1.833-1.465-1.043 0-1.761.548-1.761 1.454s.738 1.496 1.781 1.496c1.045.001 1.813-.537 1.813-1.485zM912.27 116.84c.896.284 1.601 1.096 1.601 2.275 0 1.36-.99 2.55-2.708 2.55-1.591 0-2.677-1.148-2.677-2.423 0-1.56 1.076-2.434 2.656-2.434.125 0 .252.01.316.021v3.815c.906-.021 1.538-.674 1.538-1.528 0-.822-.453-1.233-1.021-1.423l.295-.853zm-1.613 1c-.726.021-1.296.496-1.296 1.391 0 .833.643 1.338 1.296 1.381v-2.772zM906.01 112.421c0-.401.316-.717.717-.717.39 0 .705.317.705.717 0 .39-.316.705-.705.705-.401 0-.717-.316-.717-.705zm7.703.483h-5.069v-.98h5.069v.98zM913.713 109.247v.991h-5.069v-.97h.728c-.631-.369-.875-.97-.875-1.56 0-1.211.875-1.812 2.003-1.812h3.214v.99h-3.046c-.705 0-1.275.295-1.275 1.181 0 .779.623 1.18 1.392 1.18h2.928zM909.973 102.045c-2.497 0-3.888-1.854-3.888-3.709 0-1.707.928-2.908 2.371-3.287l.336.958c-1.127.285-1.759 1.107-1.759 2.329 0 1.36.99 2.655 2.939 2.655s2.95-1.296 2.95-2.655c0-1.275-.769-2.075-1.79-2.381l.336-.917c1.402.401 2.402 1.58 2.402 3.298.001 1.929-1.401 3.709-3.897 3.709zM913.713 92.884v.99h-7.629v-.99h3.151c-.537-.369-.738-.959-.738-1.538 0-1.211.875-1.812 2.003-1.812h3.214v.99h-3.046c-.705 0-1.275.295-1.275 1.181 0 .758.59 1.159 1.339 1.18h2.981zM906.01 87.465c0-.401.316-.717.717-.717.39 0 .705.317.705.717 0 .39-.316.705-.705.705-.401 0-.717-.315-.717-.705zm7.703.484h-5.069v-.98h5.069v.98zM913.713 84.292v.99h-5.069v-.969h.728c-.631-.369-.875-.97-.875-1.56 0-1.211.875-1.812 2.003-1.812h3.214v.99h-3.046c-.705 0-1.275.295-1.275 1.181 0 .779.623 1.18 1.392 1.18h2.928zM910.815 78.135l-.199-1.37c-.043-.305-.201-.39-.379-.39-.496 0-.908.327-.908 1.096 0 .696.432 1.085 1.023 1.149l-.221.948c-.97-.106-1.644-.98-1.644-2.075 0-1.518.865-2.108 1.855-2.108h2.54c.443 0 .705-.042.832-.063v.97c-.127.021-.316.052-.685.052.359.221.843.727.843 1.634 0 1.032-.716 1.696-1.517 1.696-.907 0-1.413-.664-1.54-1.539zm.728-1.759h-.232l.232 1.549c.063.422.305.738.758.738.379 0 .738-.316.738-.822 0-.812-.39-1.465-1.496-1.465z"></path></g></g><g fill="#A1EDA0"><path d="M233.559 412.994h-3.883l-.854 2.305h-1.643l3.572-9.177h1.799l3.572 9.177h-1.695l-.868-2.305zm-3.339-1.436h2.795l-1.397-3.753-1.398 3.753zM238.428 415.299h-1.501v-6.304h1.462v.842c.414-.724 1.165-1.022 1.864-1.022 1.54 0 2.278 1.112 2.278 2.497v3.987h-1.501v-3.727c0-.776-.35-1.398-1.294-1.398-.854 0-1.307.66-1.307 1.488v3.637zM245.355 411.688l1.618-.246c.362-.052.466-.232.466-.452 0-.532-.362-.958-1.19-.958-.789 0-1.229.504-1.294 1.138l-1.371-.31c.116-1.086 1.099-2.059 2.653-2.059 1.941 0 2.679 1.1 2.679 2.357v3.131c0 .57.064.944.077 1.01h-1.397c-.013-.04-.064-.298-.064-.802-.298.478-.919.996-1.942.996-1.32 0-2.136-.906-2.136-1.903-.002-1.126.827-1.746 1.901-1.902zm2.084.996v-.284l-1.644.246c-.466.076-.841.336-.841.854 0 .426.323.814.919.814.841 0 1.566-.4 1.566-1.63zM250.21 415.299v-9.371h1.501v9.371h-1.501zM259.18 412.14c0 1.942-1.384 3.353-3.274 3.353-1.877 0-3.261-1.41-3.261-3.353 0-1.927 1.384-3.339 3.261-3.339 1.889 0 3.274 1.412 3.274 3.339zm-1.515 0c0-1.306-.828-1.979-1.76-1.979-.919 0-1.76.672-1.76 1.979 0 1.308.841 2.007 1.76 2.007.932-.001 1.76-.687 1.76-2.007zM261.306 415.285c.103.776.711 1.36 1.579 1.36 1.19 0 1.786-.61 1.786-1.89v-.66c-.272.492-.906.918-1.825.918-1.682 0-2.912-1.293-2.912-3.067 0-1.682 1.178-3.067 2.912-3.067.984 0 1.592.402 1.864.92v-.804h1.449v5.708c0 1.682-.866 3.249-3.235 3.249-1.669 0-2.834-1.036-3.003-2.305l1.385-.362zm3.403-3.339c0-1.074-.685-1.773-1.618-1.773-.957 0-1.643.698-1.643 1.773 0 1.1.66 1.786 1.643 1.786.959 0 1.618-.698 1.618-1.786zM269.733 415.479c-1.501 0-2.381-1.112-2.381-2.511v-3.973h1.501v3.703c0 .776.363 1.436 1.268 1.436.867 0 1.32-.584 1.32-1.412v-3.727h1.501v5.151c0 .518.038.918.064 1.152h-1.436c-.026-.142-.051-.44-.051-.7-.311.571-1.048.881-1.786.881zM279.908 413.5c-.336 1.099-1.332 1.993-2.847 1.993-1.708 0-3.222-1.242-3.222-3.379 0-1.993 1.475-3.313 3.067-3.313 1.942 0 3.08 1.282 3.08 3.275 0 .246-.026.452-.039.478h-4.607c.039.958.79 1.644 1.721 1.644.906 0 1.372-.478 1.579-1.1l1.268.402zm-1.437-2.045c-.026-.738-.517-1.398-1.553-1.398-.945 0-1.488.724-1.54 1.398h3.093z"></path><g><path d="M284.366 409.962v2.596h-1.125v-6.642h2.464c1.274 0 2.117.861 2.117 2.022 0 1.171-.843 2.024-2.117 2.024h-1.339zm1.17-.993c.712 0 1.143-.393 1.143-1.021 0-.638-.431-1.04-1.143-1.04h-1.17v2.06h1.17zM292.64 410.272c0 1.405-1.002 2.426-2.37 2.426-1.358 0-2.361-1.021-2.361-2.426 0-1.397 1.002-2.417 2.361-2.417 1.367 0 2.37 1.02 2.37 2.417zm-1.096 0c0-.946-.6-1.435-1.274-1.435-.665 0-1.274.489-1.274 1.435s.609 1.452 1.274 1.452c.674 0 1.274-.497 1.274-1.452zM294.225 410.272c0 .917.591 1.433 1.274 1.433.712 0 1.04-.497 1.143-.844l.956.347c-.216.712-.899 1.49-2.098 1.49-1.339 0-2.361-1.04-2.361-2.426 0-1.405 1.021-2.417 2.332-2.417 1.228 0 1.902.768 2.09 1.499l-.975.355c-.103-.402-.412-.853-1.105-.853-.665 0-1.256.498-1.256 1.416zM300.58 409.925l1.911 2.632h-1.331l-1.339-1.864-.562.591v1.274h-1.077v-6.782h1.077v4.065l1.752-1.845h1.443l-1.874 1.929z"></path><path d="M306.719 411.254c-.243.797-.965 1.443-2.061 1.443-1.236 0-2.332-.899-2.332-2.445 0-1.443 1.068-2.398 2.221-2.398 1.404 0 2.229.927 2.229 2.37 0 .177-.019.327-.028.347h-3.336c.029.693.572 1.189 1.246 1.189.656 0 .993-.347 1.144-.795l.917.289zm-1.039-1.479c-.019-.534-.375-1.012-1.125-1.012-.684 0-1.077.525-1.114 1.012h2.239zM308.999 407.995h.946v.965h-.946v2.117c0 .402.178.57.581.57.15 0 .327-.028.374-.036v.899c-.065.028-.271.102-.664.102-.844 0-1.368-.506-1.368-1.358v-2.294h-.843v-.965h.234c.487 0 .703-.308.703-.712v-.684h.983v1.396z"></path></g></g><g fill="none" stroke="#A1EDA0" stroke-miterlimit="10"><path d="M1078.904 370.256c-9.359-.593-17.075 7.123-16.483 16.481.488 7.717 6.75 13.978 14.467 14.465 9.356.591 17.07-7.122 16.48-16.478-.486-7.717-6.747-13.98-14.464-14.468zM1132.672 377.975l-20.674-35.808c-4.282-7.418-13.767-9.959-21.184-5.676h0c-7.417 4.282-9.959 13.767-5.676 21.184l20.674 35.807c4.282 7.418 13.767 9.959 21.184 5.676h0c7.417-4.282 9.958-13.766 5.676-21.183z"></path></g><circle cx="935.338" cy="391.173" fill="none" r="9.168" stroke="#A1EDA0" stroke-miterlimit="10"></circle><circle cx="1261.803" cy="391.173" fill="none" r="9.168" stroke="#A1EDA0" stroke-miterlimit="10"></circle><circle cx="935.338" cy="727.314" fill="none" r="9.168" stroke="#A1EDA0" stroke-miterlimit="10"></circle><circle cx="1261.803" cy="727.314" fill="none" r="9.168" stroke="#A1EDA0" stroke-miterlimit="10"></circle><path d="M1295.905 412.305H901.237c-.553 0-1-.447-1-1s.447-1 1-1h394.668c.553 0 1 .447 1 1s-.448 1-1 1zM1295.905 432.006H901.237c-.553 0-1-.447-1-1s.447-1 1-1h394.668c.553 0 1 .447 1 1s-.448 1-1 1zM1295.905 451.707H901.237c-.553 0-1-.447-1-1s.447-1 1-1h394.668c.553 0 1 .447 1 1s-.448 1-1 1zM1295.905 471.409H901.237c-.553 0-1-.447-1-1s.447-1 1-1h394.668c.553 0 1 .447 1 1s-.448 1-1 1zM1295.905 491.11H901.237c-.553 0-1-.447-1-1s.447-1 1-1h394.668c.553 0 1 .447 1 1s-.448 1-1 1zM1295.905 510.811H901.237c-.553 0-1-.447-1-1s.447-1 1-1h394.668c.553 0 1 .447 1 1s-.448 1-1 1zM1295.905 530.513H901.237c-.553 0-1-.447-1-1s.447-1 1-1h394.668c.553 0 1 .447 1 1s-.448 1-1 1zM1295.905 550.214H901.237c-.553 0-1-.447-1-1s.447-1 1-1h394.668c.553 0 1 .447 1 1s-.448 1-1 1zM1295.905 569.915H901.237c-.553 0-1-.447-1-1s.447-1 1-1h394.668c.553 0 1 .447 1 1s-.448 1-1 1zM1295.905 589.616H901.237c-.553 0-1-.447-1-1s.447-1 1-1h394.668c.553 0 1 .447 1 1s-.448 1-1 1zM1295.905 609.317H901.237c-.553 0-1-.447-1-1s.447-1 1-1h394.668c.553 0 1 .447 1 1s-.448 1-1 1zM1295.905 629.018H901.237c-.553 0-1-.447-1-1s.447-1 1-1h394.668c.553 0 1 .447 1 1s-.448 1-1 1zM1295.905 648.721H901.237c-.553 0-1-.447-1-1s.447-1 1-1h394.668c.553 0 1 .447 1 1s-.448 1-1 1zM1295.905 668.422H901.237c-.553 0-1-.447-1-1s.447-1 1-1h394.668c.553 0 1 .447 1 1s-.448 1-1 1zM1295.905 688.123H901.237c-.553 0-1-.447-1-1s.447-1 1-1h394.668c.553 0 1 .447 1 1s-.448 1-1 1zM1295.905 707.824H901.237c-.553 0-1-.447-1-1s.447-1 1-1h394.668c.553 0 1 .447 1 1s-.448 1-1 1zM763.64 767.841h-45.036c-2.46 0-4.454-1.994-4.454-4.454V34.062c0-2.46 1.994-4.454 4.454-4.454h45.036c2.46 0 4.454 1.994 4.454 4.454v729.325c0 2.459-1.994 4.454-4.454 4.454zM708.616 35.552h5.534v386.363h-5.534z" fill="none" stroke="#A1EDA0" stroke-linecap="round" stroke-miterlimit="10"></path><g fill="#A1EDA0"><circle cx="740.516" cy="61.259" r="3.881"></circle><circle cx="740.516" cy="75.182" r="3.881"></circle><circle cx="740.516" cy="89.105" r="3.881"></circle><circle cx="740.516" cy="103.029" r="3.881"></circle><circle cx="740.516" cy="116.952" r="3.881"></circle><circle cx="740.516" cy="130.875" r="3.881"></circle><circle cx="740.516" cy="144.798" r="3.881"></circle><circle cx="740.516" cy="158.722" r="3.881"></circle></g><path d="M735.52 193.251h4.683v60.142h-4.683c-1.392 0-2.52-1.128-2.52-2.52V195.77c.001-1.39 1.129-2.519 2.52-2.519z" fill="none" stroke="#A1EDA0" stroke-linecap="round" stroke-miterlimit="10"></path><path d="M740.203 193.251h4.683c1.392 0 2.52 1.128 2.52 2.52v55.103c0 1.392-1.128 2.52-2.52 2.52h-4.683v-60.143z" fill="#A1EDA0" stroke="#A1EDA0" stroke-linecap="round" stroke-miterlimit="10"></path><path d="M823.09 707.824c-.553 0-1-.447-1-1s.447-1 1-1h.949v-17.701h-.949c-.553 0-1-.447-1-1s.447-1 1-1h.949v-17.701h-.949c-.553 0-1-.447-1-1s.447-1 1-1h.949v-17.701h-.949c-.553 0-1-.447-1-1s.447-1 1-1h.949v-17.702h-.949c-.553 0-1-.447-1-1s.447-1 1-1h.949v-17.701h-.949c-.553 0-1-.447-1-1s.447-1 1-1h.949v-17.701h-.949c-.553 0-1-.447-1-1s.447-1 1-1h.949v-17.701h-.949c-.553 0-1-.447-1-1s.447-1 1-1h.949v-17.701h-.949c-.553 0-1-.447-1-1s.447-1 1-1h.949v-17.701h-.949c-.553 0-1-.447-1-1s.447-1 1-1h.949v-17.701h-.949c-.553 0-1-.447-1-1s.447-1 1-1h.949V491.11h-.949c-.553 0-1-.447-1-1s.447-1 1-1h.949v-17.701h-.949c-.553 0-1-.447-1-1s.447-1 1-1h.949v-17.702h-.949c-.553 0-1-.447-1-1s.447-1 1-1h.949v-17.701h-.949c-.553 0-1-.447-1-1s.447-1 1-1h.949v-17.701h-.949c-.553 0-1-.447-1-1s.447-1 1-1h.949v-71.44c0-1.364-1.105-2.469-2.469-2.469h-36.65c-4.864 0-8.807-3.943-8.807-8.807v-24.347h-8.017V762.82h33.298c12.507 0 22.646-10.139 22.646-22.646v-32.35h-.95zM40.796 707.824c.553 0 1-.447 1-1s-.447-1-1-1h-.949v-17.701h.949c.553 0 1-.447 1-1s-.447-1-1-1h-.949v-17.701h.949c.553 0 1-.447 1-1s-.447-1-1-1h-.949v-17.701h.949c.553 0 1-.447 1-1s-.447-1-1-1h-.949v-17.702h.949c.553 0 1-.447 1-1s-.447-1-1-1h-.949v-17.701h.949c.553 0 1-.447 1-1s-.447-1-1-1h-.949v-17.701h.949c.553 0 1-.447 1-1s-.447-1-1-1h-.949v-17.701h.949c.553 0 1-.447 1-1s-.447-1-1-1h-.949v-17.701h.949c.553 0 1-.447 1-1s-.447-1-1-1h-.949v-17.701h.949c.553 0 1-.447 1-1s-.447-1-1-1h-.949v-17.701h.949c.553 0 1-.447 1-1s-.447-1-1-1h-.949V491.11h.949c.553 0 1-.447 1-1s-.447-1-1-1h-.949v-17.701h.949c.553 0 1-.447 1-1s-.447-1-1-1h-.949v-17.702h.949c.553 0 1-.447 1-1s-.447-1-1-1h-.949v-17.701h.949c.553 0 1-.447 1-1s-.447-1-1-1h-.949v-17.701h.949c.553 0 1-.447 1-1s-.447-1-1-1h-.949v-71.44c0-1.364 1.105-2.469 2.469-2.469h36.65c4.864 0 8.807-3.943 8.807-8.807v-24.347h8.017V762.82H62.493c-12.507 0-22.646-10.139-22.646-22.646v-32.35h.949z" fill="none" stroke="#A1EDA0" stroke-linecap="round" stroke-miterlimit="10"></path><path d="M785.069 331.878c-3.45 0-6.247-2.797-6.247-6.247v-22.39h-2.71v24.347c0 4.864 3.943 8.807 8.807 8.807h37.091v-4.517h-36.941z" fill="none" stroke="#A1EDA0" stroke-linecap="round" stroke-miterlimit="10"></path><path d="M785.069 331.878h36.228c1.514 0 2.741-1.227 2.741-2.741v-19.15c0-6.582-5.336-11.919-11.919-11.919h-30.556c-1.514 0-2.741 1.227-2.741 2.741v24.821c0 3.451 2.797 6.248 6.247 6.248z" fill="none" stroke="#A1EDA0" stroke-linecap="round" stroke-miterlimit="10"></path><g fill="none" stroke="#A1EDA0" stroke-linecap="round" stroke-miterlimit="10"><path d="M937.584 331.878c3.45 0 6.247-2.797 6.247-6.247v-22.39h2.71v24.347c0 4.864-3.943 8.807-8.807 8.807h-49.559v-4.517h49.409z"></path><path d="M937.584 331.878h-48.696c-1.514 0-2.741-1.227-2.741-2.741v-19.15c0-6.582 5.336-11.919 11.919-11.919h43.025c1.514 0 2.741 1.227 2.741 2.741v24.821c-.001 3.451-2.798 6.248-6.248 6.248z"></path><path d="M1308.526 336.396h-49.118c-4.864 0-8.807-3.943-8.807-8.807v-24.347h-304.06v24.347c0 4.864-3.943 8.807-8.807 8.807h-49.118c-1.364 0-2.469 1.106-2.469 2.469v398.909c0 13.833 11.213 25.046 25.046 25.046h374.758c13.833 0 25.046-11.214 25.046-25.046V338.865c-.001-1.364-1.107-2.469-2.471-2.469z"></path><path d="M1259.558 331.878c-3.45 0-6.247-2.797-6.247-6.247v-22.39h-2.71v24.347c0 4.864 3.943 8.807 8.807 8.807h49.559v-4.517h-49.409z"></path><path d="M1259.558 331.878h48.696c1.514 0 2.741-1.227 2.741-2.741v-19.15c0-6.582-5.336-11.919-11.919-11.919h-43.025c-1.514 0-2.741 1.227-2.741 2.741v24.821c.001 3.451 2.798 6.248 6.248 6.248z"></path></g><path d="M941.883 298.069V35.908c0-3.48-2.821-6.3-6.3-6.3M948.541 303.241V35.908c0-3.48-2.821-6.3-6.3-6.3M1255.258 298.069V35.908c0-3.48 2.821-6.3 6.3-6.3M1248.601 303.241V35.908c0-3.48 2.821-6.3 6.3-6.3M1094.831 263.99l-12.347-21.385c-1.662-2.879.416-6.478 3.74-6.478h24.693c3.324 0 5.402 3.599 3.74 6.478l-12.347 21.385c-1.661 2.879-5.817 2.879-7.479 0zM708.662 547.634h5.431v-44.733h-7.449c-1.006 0-1.822.816-1.822 1.822v39.071c0 2.121 1.719 3.84 3.84 3.84z" fill="none" stroke="#A1EDA0" stroke-miterlimit="10"></path><path d="M714.093 502.901v-41.717h-7.402c-1.032 0-1.868.836-1.868 1.868v122.361c0 2.174 1.763 3.937 3.937 3.937h5.333v-41.717M159.005 573.986v11.428c0 2.174-1.763 3.937-3.937 3.937h-5.333M149.735 461.184h7.402c1.032 0 1.868.836 1.868 1.868v12.065M714.151 653.884h-1.233c-.873 0-1.58-.707-1.58-1.58v-21.613c0-.873.707-1.58 1.58-1.58h1.233v24.773zM714.151 693.521h-1.233c-.873 0-1.58-.707-1.58-1.58v-21.613c0-.873.707-1.58 1.58-1.58h1.233v24.773zM714.151 733.157h-1.233c-.873 0-1.58-.707-1.58-1.58v-21.613c0-.873.707-1.58 1.58-1.58h1.233v24.773z" fill="none" stroke="#A1EDA0" stroke-miterlimit="10"></path><path d="M100.245 767.841h45.036c2.46 0 4.454-1.994 4.454-4.454V34.062c0-2.46-1.994-4.454-4.454-4.454h-45.036c-2.46 0-4.454 1.994-4.454 4.454v729.325c0 2.459 1.994 4.454 4.454 4.454zM155.2691 421.9146h-5.534l-2e-8-386.363h5.534z" fill="none" stroke="#A1EDA0" stroke-linecap="round" stroke-miterlimit="10"></path><g fill="#A1EDA0"><circle cx="123.37" cy="61.259" r="3.881"></circle><circle cx="123.37" cy="75.182" r="3.881"></circle><circle cx="123.37" cy="89.105" r="3.881"></circle><circle cx="123.37" cy="103.029" r="3.881"></circle><circle cx="123.37" cy="116.952" r="3.881"></circle><circle cx="123.37" cy="130.875" r="3.881"></circle><circle cx="123.37" cy="144.798" r="3.881"></circle><circle cx="123.37" cy="158.722" r="3.881"></circle></g><path d="M78.816 331.878c3.45 0 6.247-2.797 6.247-6.247v-22.39h2.71v24.347c0 4.864-3.943 8.807-8.807 8.807H41.875v-4.517h36.941z" fill="none" stroke="#A1EDA0" stroke-linecap="round" stroke-miterlimit="10"></path><path d="M78.816 331.878H42.588c-1.514 0-2.741-1.227-2.741-2.741v-19.15c0-6.582 5.336-11.919 11.919-11.919h30.556c1.514 0 2.741 1.227 2.741 2.741v24.821c0 3.451-2.797 6.248-6.247 6.248z" fill="none" stroke="#A1EDA0" stroke-linecap="round" stroke-miterlimit="10"></path><path d="M149.735 653.884h1.233c.873 0 1.58-.707 1.58-1.58v-21.613c0-.873-.707-1.58-1.58-1.58h-1.233v24.773zM149.735 693.521h1.233c.873 0 1.58-.707 1.58-1.58v-21.613c0-.873-.707-1.58-1.58-1.58h-1.233v24.773zM149.735 733.157h1.233c.873 0 1.58-.707 1.58-1.58v-21.613c0-.873-.707-1.58-1.58-1.58h-1.233v24.773zM149.735 474.033h7.334c1.332 0 2.379 1.141 2.265 2.468l-2.718 31.514h-6.88M149.735 575.072h7.334c1.332 0 2.379-1.141 2.265-2.468l-2.718-31.514h-6.88M157.504 541.089h-7.769v-33.074h7.769c1.533 0 2.776 1.243 2.776 2.776v27.522c-.001 1.533-1.243 2.776-2.776 2.776z" fill="none" stroke="#A1EDA0" stroke-miterlimit="10"></path><path d="M123.431 296.229h0c-6.391 0-11.572-5.181-11.572-11.572v-28.523c0-6.391 5.181-11.572 11.572-11.572h0c6.391 0 11.572 5.181 11.572 11.572v28.523c0 6.391-5.181 11.572-11.572 11.572z" fill="#A1EDA0" stroke="#A1EDA0" stroke-miterlimit="10"></path><path d="M123.431 233.421h0c-6.391 0-11.572-5.181-11.572-11.572v-28.523c0-6.391 5.181-11.572 11.572-11.572h0c6.391 0 11.572 5.181 11.572 11.572v28.523c0 6.391-5.181 11.572-11.572 11.572zM135.003 207.587h-23.144M117.94 195.076h10.981M117.94 219.532h10.981M123.431 189.586v10.981" fill="none" stroke="#A1EDA0" stroke-miterlimit="10"></path></svg>