<svg data-name="Gruppe 2" id="Gruppe_2" viewbox="0 0 40 40" xmlns="http://www.w3.org/2000/svg"><path d="M28.964 0H11.036A11.036 11.036 0 0 0 0 11.036v17.928A11.036 11.036 0 0 0 11.036 40h17.928A11.036 11.036 0 0 0 40 28.964V11.036A11.036 11.036 0 0 0 28.964 0zm7.486 28.964a7.494 7.494 0 0 1-7.485 7.485H11.036a7.494 7.494 0 0 1-7.486-7.485V11.036a7.513 7.513 0 0 1 7.486-7.486h17.928a7.494 7.494 0 0 1 7.485 7.485zm0 0" data-name="Pfad 1" id="Pfad_1"></path><path d="M43.025 32.8a10.311 10.311 0 1 0 10.326 10.3 10.329 10.329 0 0 0-10.326-10.3zm0 17.071A6.76 6.76 0 1 1 49.8 43.1a6.768 6.768 0 0 1-6.775 6.775zm0 0" data-name="Pfad 2" id="Pfad_2" transform="translate(-23.025 -23.096)"></path><path d="M97.7 22.6a2.527 2.527 0 0 0-1.834.769A2.65 2.65 0 0 0 95.1 25.2a2.527 2.527 0 0 0 .769 1.834 2.65 2.65 0 0 0 1.834.769 2.527 2.527 0 0 0 1.834-.769 2.65 2.65 0 0 0 .769-1.834 2.527 2.527 0 0 0-.769-1.834A2.479 2.479 0 0 0 97.7 22.6zm0 0" data-name="Pfad 3" id="Pfad_3" transform="translate(-66.964 -15.914)"></path></svg>