<svg viewbox="0 0 722.69 168.23" xmlns="http://www.w3.org/2000/svg"><g data-name="Layer 2" id="Layer_2"><g data-name="Layer 1" id="Layer_1-2"><path class="cls-1" d="M173.33 0v117.83h-46.8V75.6H46.09v42.23H0V0h46.09v48.12h80.44V0h46.8M321.72 29.34h-129.1L192.83 0h142.51a30 30 0 0 1 21.92 9.06A29.91 29.91 0 0 1 366.32 31v55.83a30.88 30.88 0 0 1-31 31H192.83l-.21-69.71h44.64l.18 40.42h84.28v-59.2M594.62 9.06A29.72 29.72 0 0 1 603.67 31v86.91H559V29.37h-42.44v88.52h-44.39V29.37h-42.6v88.52H385V0h187.86a29.54 29.54 0 0 1 21.76 9.06M668.65 75.6v42.23h-46.12V0h46.12v48.12l-.21 15.86.21 11.62M2.94 147.01h3.61v8.24h9.43v-8.24h3.58v20.71h-3.58v-9.32H6.55v9.32H2.94v-20.71M26 167.72h3.62v-20.71H26v20.71M54.16 167.72h-2.35l-.53-2.43a7.49 7.49 0 0 1-6.22 2.94c-6.21 0-9.92-4.94-9.92-10.85s3.71-10.85 9.92-10.85c4.49 0 8.26 2.38 8.84 7.06h-3.51c-.34-2.7-2.72-4.1-5.32-4.1-4.42 0-6.3 3.9-6.3 7.88s1.88 7.9 6.3 7.9c3.65.06 5.75-2.18 5.78-5.69h-5.5v-2.75h8.81v10.88M60.03 147.01h3.65v8.24h9.43v-8.24h3.62v20.71h-3.62v-9.32h-9.43v9.32h-3.65v-20.71M93.24 147h8.59c6.36 0 9.09 4.64 9.09 10.37s-2.73 10.34-9.09 10.34h-8.59V147m3.59 17.76h3.55c5.72 0 6.92-3.25 6.92-7.39s-1.2-7.4-6.92-7.4h-3.56v14.79M116.17 147.01h14.93v3.14h-11.28v5.42h10.45v2.96h-10.45v6.07h11.5v3.12h-15.15v-20.71M136.48 147.01h14.28v3.14h-10.63v5.42h9.37v2.96h-9.37v9.19h-3.65v-20.71M155.71 167.72h3.65v-20.71h-3.65v20.71M165.7 147.01h3.83l9.45 15.27h.07v-15.27h3.43v20.71h-3.86l-9.43-15.23h-.06v15.23h-3.43v-20.71M188.79 167.72h3.64v-20.71h-3.64v20.71M196.95 147.01h16.75v3.14h-6.61v17.57h-3.62v-17.57h-6.52v-3.14M218.16 167.72h3.58v-20.71h-3.58v20.71M247 157.38c0 5.91-3.74 10.85-9.95 10.85s-9.87-4.94-9.87-10.85 3.68-10.85 9.87-10.85 9.95 4.95 9.95 10.85m-16.23 0c0 4 1.86 7.9 6.28 7.9s6.3-3.93 6.3-7.9-1.82-7.88-6.3-7.88-6.28 3.9-6.28 7.88M252.12 147.01h3.87l9.45 15.27h.07v-15.27h3.41v20.71h-3.78l-9.45-15.23h-.07v15.23h-3.5v-20.71M285.36 147.01h5.03l5.79 16.23h.03l5.56-16.23h5.08v20.71h-3.5v-16h-.06l-5.72 16h-3l-5.78-16h-.03v16h-3.4v-20.71M312.94 147h3.64v12.1c0 2.77.23 6 5 6s4.82-3.24 4.82-6V147h3.6v13.28c0 5.29-3.42 7.94-8.47 7.94-5.22 0-8.59-2.66-8.59-7.94V147M336.18 147.01h3.62v17.59h10.53v3.12h-14.15v-20.71M350.21 147.01h16.76v3.14h-6.52v17.57h-3.65v-17.57h-6.59v-3.14M371.45 167.72h3.66v-20.71h-3.66v20.71M381.47 147.01h5.1l5.69 16.23h.09l5.57-16.23h5.06v20.71h-3.45v-16h-.1l-5.72 16h-2.97l-5.78-16h-.03v16h-3.46v-20.71M409.36 147.01h14.89v3.14h-11.28v5.42h10.48v2.96h-10.48v6.07h11.53v3.12h-15.14v-20.71M429.66 147h8.56c6.37 0 9.18 4.64 9.18 10.37s-2.81 10.34-9.18 10.34h-8.56V147m3.65 17.76h3.52c5.75 0 7-3.25 7-7.39s-1.21-7.4-7-7.4h-3.52v14.79M452.63 167.72h3.65v-20.71h-3.65v20.71M468.27 147h3.9l7.94 20.71h-3.86l-1.95-5.46h-8.25l-2 5.46h-3.72l7.94-20.71M467 159.48h6.31l-3.09-8.89h-.09l-3.13 8.89M494.18 167.72h3.65v-20.71h-3.65v20.71M504.17 147.01h3.79l9.47 15.27h.03v-15.27h3.49v20.71h-3.83l-9.43-15.23h-.06v15.23h-3.46v-20.71M525.31 147.01h16.79v3.14h-6.62v17.57h-3.65v-17.57h-6.52v-3.14M546.48 147.01h14.9v3.14h-11.25v5.42h10.48v2.96h-10.48v6.07h11.5v3.12h-15.15v-20.71M566.82 147h9.87c4.54 0 6.87 2.1 6.87 5.61 0 4-2.75 5-3.43 5.23v.06c1.27.17 3.09 1.09 3.09 4.37 0 2.39.34 4.6 1.14 5.44h-3.86a5.45 5.45 0 0 1-.59-3c0-3.8-.8-5.47-4.14-5.47h-5.29v8.52h-3.65V147m3.65 9.43h5.94c2.29 0 3.52-1.11 3.52-3.31 0-2.63-1.7-3.15-3.62-3.15h-5.84v6.46M589.3 147.01h14.28v3.14h-10.69v5.42h9.39v2.96h-9.39v9.19h-3.59v-20.71M612.49 147h3.83l8 20.71h-3.9l-1.95-5.46h-8.27l-2 5.46h-3.7l7.99-20.71m-1.3 12.47h6.34l-3.12-8.89h-.13l-3.09 8.89M642.32 153.59a5 5 0 0 0-5.19-4.1c-4.42 0-6.31 3.9-6.31 7.88s1.88 7.9 6.31 7.9c3.24 0 5-2.43 5.29-5.44H646c-.34 5-3.83 8.4-8.84 8.4-6.21 0-9.89-4.94-9.89-10.85s3.68-10.85 9.89-10.85c4.7 0 8.38 2.6 8.84 7.06h-3.64M651.31 147.01h14.9v3.14h-11.28v5.42h10.45v2.96h-10.45v6.07h11.5v3.12h-15.12v-20.71M692 3.29h-5.16V.45h13.47v2.84h-5.22v14.07H692V3.29M704.36.45h4.76l4.45 11.41L717.9.45h4.8v16.91h-3.06V4.44h-.07l-4.75 12.92h-2.54l-4.77-12.92h-.13v12.92h-3V.45M81.21 158.88h7.36v-1.92h-7.36v1.92"></path></g></g></svg>