<svg data-name="Layer 1" viewbox="0 0 297 62.48" xmlns="http://www.w3.org/2000/svg"><path class="logo-icon" d="M15.44 33.51A14.5 14.5 0 1 0 29 47a14.5 14.5 0 0 0-13.56-13.49zM65.71 40.73L46.38 7.25a14.5 14.5 0 0 0-19.8-5.3 14.5 14.5 0 0 0-5.31 19.81L40.6 55.23a14.5 14.5 0 0 0 19.81 5.31 14.5 14.5 0 0 0 5.3-19.81z"></path><path class="logo-type" d="M107 40.94H90.24l-4 10.55h-5.59l15-37.77h6l15 37.77H111zM92.1 36.1h13l-6.55-16.94zM125.4 51.49h-5V25.87h4.9v3.68a8.78 8.78 0 0 1 7.88-4.42c6.13 0 9.16 4.42 9.16 10.12v16.24h-5V36.1c0-3.57-1.49-6.45-6-6.45-3.94 0-6 3.14-6 7zM155.06 36.84l6.93-1c1.55-.21 2-1 2-1.92 0-2.5-1.65-4.58-5.54-4.58a5.44 5.44 0 0 0-5.81 5.17l-4.79-1.12c.53-4.9 5-8.31 10.49-8.31 7.67 0 10.65 4.37 10.65 9.38v12.82a24 24 0 0 0 .32 4.21h-4.9a18.7 18.7 0 0 1-.27-3.46 9.34 9.34 0 0 1-8.26 4.26c-5.22 0-8.58-3.62-8.58-7.67-.02-4.62 3.33-7.14 7.76-7.78zm8.9 3.68v-1.17l-7.83 1.17c-2.13.32-3.73 1.54-3.73 3.84a3.89 3.89 0 0 0 4.16 3.73c4.09-.01 7.44-1.98 7.44-7.57zM175.19 51.49V12.92h5v38.57zM211.35 38.65c0 7.83-5.43 13.64-13.1 13.64s-13.1-5.81-13.1-13.64 5.43-13.58 13.1-13.58 13.1 5.81 13.1 13.58zm-5.11 0c0-5.91-3.73-9.11-8-9.11s-8 3.2-8 9.11 3.73 9.16 8 9.16 7.99-3.19 7.99-9.16zM219.6 51.76a6.81 6.81 0 0 0 7 6.29c5.38 0 7.83-2.77 7.83-8.31v-3.68c-1.23 2.34-4 4.21-7.83 4.21-6.82 0-11.77-5.17-11.77-12.41 0-6.93 4.74-12.47 11.77-12.47 3.94 0 6.61 1.49 7.88 4v-3.52h5v23.7c0 6.5-3.2 12.84-12.84 12.84-6.39 0-11.19-4-11.83-9.54zm15-13.9c0-5-3-8.2-7.3-8.2s-7.4 3.25-7.4 8.2 2.88 8.2 7.4 8.2c4.34 0 7.33-3.25 7.33-8.21zM255.23 52.29c-6 0-9.59-4.47-9.59-10.28V25.87h5v15.4c0 3.52 1.6 6.61 5.81 6.61 4 0 6.07-2.66 6.07-6.55V25.87h5v20.88a43.22 43.22 0 0 0 .27 4.74H263a22.62 22.62 0 0 1-.21-3.09c-1.39 2.66-4.58 3.89-7.56 3.89zM296.84 44.19a11.61 11.61 0 0 1-11.51 8.1c-6.87 0-12.89-5-12.89-13.69 0-8 5.81-13.53 12.25-13.53 7.88 0 12.31 5.43 12.31 13.42a11.23 11.23 0 0 1-.11 1.6h-19.28a7.61 7.61 0 0 0 7.72 7.78 7 7 0 0 0 7.19-5.17zM291.78 36c-.11-3.68-2.5-6.55-7-6.55a6.89 6.89 0 0 0-7 6.55z"></path></svg>