<svg height="560" id="svg2" inkscape:version="0.91 r13725" sodipodi:docname="coaching session.svg" version="1.1" viewbox="0 0 720 560" width="720" xmlns="http://www.w3.org/2000/svg" xmlns:cc="http://creativecommons.org/ns#" xmlns:dc="http://purl.org/dc/elements/1.1/" xmlns:inkscape="http://www.inkscape.org/namespaces/inkscape" xmlns:rdf="http://www.w3.org/1999/02/22-rdf-syntax-ns#" xmlns:sodipodi="http://sodipodi.sourceforge.net/DTD/sodipodi-0.dtd" xmlns:svg="http://www.w3.org/2000/svg">
<metadata id="metadata105">
<rdf:rdf>
<cc:work rdf:about="">
<dc:format>image/svg+xml</dc:format>
<dc:type rdf:resource="http://purl.org/dc/dcmitype/StillImage"></dc:type>
<dc:title>Scene/Home</dc:title>
</cc:work>
</rdf:rdf>
</metadata>
<defs id="defs103"></defs>
<sodipodi:namedview bordercolor="#666666" borderopacity="1" gridtolerance="10" guidetolerance="10" id="namedview101" inkscape:current-layer="layer9" inkscape:cx="340.48127" inkscape:cy="276.83991" inkscape:pageopacity="0" inkscape:pageshadow="2" inkscape:window-height="758" inkscape:window-maximized="0" inkscape:window-width="1196" inkscape:window-x="49" inkscape:window-y="0" inkscape:zoom="0.77634523" objecttolerance="10" pagecolor="#ffffff" showgrid="false"></sodipodi:namedview>
<!-- Generator: Sketch 52.4 (67378) - http://www.bohemiancoding.com/sketch -->
<title id="title4">Scene/Home</title>
<desc id="desc6">Created with Sketch.</desc>
<g id="layer9" inkscape:groupmode="layer" inkscape:label="Layer 3" style="opacity:1">
<g id="Scene/Home" style="fill:none;fill-rule:evenodd;stroke:none;stroke-width:1" transform="translate(-0.8249542,-75.675045)">
<g id="Clock" transform="translate(505,85)">
<circle cx="53" cy="53" id="Clock-Frame" r="53" style="fill:#f2f2f2"></circle>
<circle cx="53" cy="11" id="Time" r="3" style="fill:#000000;fill-opacity:0.1"></circle>
<circle cx="11" cy="53" id="circle12" r="3" style="fill:#000000;fill-opacity:0.1"></circle>
<circle cx="95" cy="53" id="circle14" r="3" style="fill:#000000;fill-opacity:0.1"></circle>
<circle cx="53" cy="95" id="circle16" r="3" style="fill:#000000;fill-opacity:0.1"></circle>
<polygon id="Hand" points="51,52 53,17 55,52 " style="fill:#afb9c5"></polygon>
<polygon id="polygon19" points="60.213203,74.213203 62.213203,50.213203 64.213203,74.213203 " style="fill:#afb9c5" transform="matrix(-0.70710678,0.70710678,-0.70710678,-0.70710678,150.19596,62.213203)"></polygon>
<circle cx="53" cy="53" id="circle21" r="4" style="fill:#c5cfd6"></circle>
</g>
<g id="Background-Shape-2" style="opacity:0.34588916" transform="translate(29,244)">
<path d="M 0.20634055,172.38486 C 7.1011245,95.336156 377.03564,-53.375955 445.71269,19.603052 514.38974,92.58206 448.36528,229.54457 304.44354,264.61718 160.5218,299.68979 -6.6884434,249.43356 0.20634055,172.38486 Z" id="Background-Shape" inkscape:connector-curvature="0" style="fill:#f2f2f2" transform="matrix(-1,0,0,1,473,0)"></path>
<path d="M 244.14437,222.44768 C 250.32043,156.99179 581.6922,30.655038 643.21021,92.65356 704.72822,154.65208 689.15682,285.05879 560.23778,314.85435 431.31875,344.6499 237.96831,287.90357 244.14437,222.44768 Z" id="path25" inkscape:connector-curvature="0" style="fill:#dde3e9"></path>
</g>
<g id="Hanging-Lamp" transform="translate(25,0)">
<g id="Light" transform="translate(0,152.67347)">
<ellipse cx="49.5" cy="34.5" id="Hanging-Lamp-Light" rx="42.5" ry="22.5" style="fill:#f2f2f2"></ellipse>
<path d="M 99,50 C 99,22.385762 76.838095,0 49.5,0 22.161905,0 0,22.385762 0,50" id="path30" inkscape:connector-curvature="0" style="fill:#dde3e9"></path>
</g>
<rect height="160" id="Wire" style="fill:#dde3e9" width="5" x="47" y="0"></rect>
</g>
<g id="g33" style="opacity:0.7" transform="translate(115,0)">
<g id="g35" transform="translate(0,113)">
<ellipse cx="37" cy="27.842106" id="ellipse37" rx="31.767677" ry="18.157894" style="fill:#f2f2f2"></ellipse>
<path d="M 74,40.350877 C 74,18.065703 57.434536,0 37,0 16.565464,0 0,18.065703 0,40.350877" id="path39" inkscape:connector-curvature="0" style="fill:#dde3e9"></path>
</g>
<rect height="136" id="rect41" style="fill:#dde3e9" width="5" x="35" y="0"></rect>
</g>
<g id="Lamp" transform="translate(524,198)">
<path d="M 60,36.23565 78.567634,17.655688 C 81.691184,14.53085 86.756504,14.529805 89.881342,17.653355 89.88212,17.654133 89.882898,17.65491 89.883676,17.655688 L 139.31604,67.113117 C 142.3152,70.113509 144,74.182171 144,78.424491 L 144,406" id="Body" inkscape:connector-curvature="0" style="stroke:#cbcbcb;stroke-width:8"></path>
<rect height="7" id="Lamp-Base" rx="3" style="fill:#afb9c5" width="59" x="114" y="405"></rect>
<g id="Lamp-Top" transform="matrix(0.70710678,0.70710678,-0.70710678,0.70710678,48.790368,0.99999988)">
<path d="M 33.030312,1.3839016 33.030312,1.3839016 C 51.255709,1.3839016 66.030312,16.158505 66.030312,34.383902 L 66.030312,62.383902 0.03031192,62.383902 0.03031192,34.383902 C 0.03031192,16.158505 14.804915,1.3839016 33.030312,1.3839016 Z" id="path47" inkscape:connector-curvature="0" style="fill:#c5cfd6"></path>
<ellipse cx="33.208927" cy="61.4454" id="ellipse49" rx="33" ry="6.5" style="fill:#f2f2f2"></ellipse>
</g>
</g>
<g id="Big-Leaf-Plant" transform="translate(16,371)">
<g id="Big-Ass-Leaf" transform="translate(22,0)">
<path d="M 25.257954,1.1730931 C 28.122531,0.82312144 31.179904,0.94665999 33.843877,2.0773661 39.508542,4.4820083 41.118732,11.174144 41.041052,16.613518 40.957307,22.468041 39.714051,28.86266 44.165116,33.579791 46.211182,35.748455 48.756329,37.408115 50.765429,39.6166 52.912185,41.976664 54.596629,44.677047 55.843834,47.576829 58.133851,52.903179 59.257831,59.166897 57.163736,64.754274 55.319922,69.673631 50.681094,74.113772 51.683432,79.707557 52.728959,85.542916 58.61221,90.004098 62.290444,94.350525 66.453166,99.269318 70.285902,105.55599 70.915534,112.00647 71.519288,118.18832 68.828407,124.44038 64.698769,129.11336 56.447741,138.45074 44.045166,143.02823 31.539564,142.99987 26.230026,142.98757 20.218551,142.74777 15.636562,139.89451 14.220432,139.01259 13.473333,138.02316 12.631483,136.64771 11.876675,135.41432 10.879579,134.61206 9.7254599,133.73932 7.1898648,131.82239 5.3587154,129.23884 4.1901218,126.34683 -0.34777979,115.11402 3.2791668,101.21766 9.6312018,91.242846 11.136354,88.879607 12.368645,86.605463 11.637436,83.788622 10.874398,80.848181 8.9990145,78.196063 7.3402592,75.668504 5.7011454,73.170487 3.8298786,70.787414 2.5487576,68.08651 1.2069929,65.257121 0.82916271,62.294276 1.0662375,59.197745 1.5118033,53.381115 4.0227324,48.01348 7.5776615,43.335625 11.001716,38.829827 15.022128,34.518476 15.031136,28.614524 15.041029,22.357138 10.857732,16.790807 12.639878,10.428979 13.377803,7.7946614 14.859954,5.0918356 17.24855,3.512523 19.539258,1.9978462 22.563854,1.5022372 25.257954,1.1730931 Z" id="leaf" inkscape:connector-curvature="0" style="fill:#dde3e9"></path>
<path d="M 23.38616,11.176431 C 23.439878,10.33604 24.436749,9.8320052 25.221508,10.051301 26.254466,10.340097 26.234601,11.305272 26.207329,12.165166 26.12373,14.808278 26.506296,17.376952 27.141656,19.94152 28.462182,25.273543 30.902693,30.186125 32.83619,35.307956 34.768001,40.425499 35.674834,45.709207 34.541552,51.124298 33.473206,56.229973 31.794801,61.203316 30.701451,66.315436 29.737752,70.821113 28.712331,75.572602 30.179921,80.066806 31.592103,84.392804 34.714245,87.915857 36.962458,91.825294 41.616517,99.918077 43.681267,108.89605 43.957436,118.13518 44.085423,122.42548 43.970168,126.75523 42.974868,130.96308 42.402007,133.38597 41.632178,136.66039 39.555924,138.33316 38.59851,139.10456 36.961028,139.3713 36.15522,138.22895 35.398683,137.1575 36.062371,135.4988 36.302546,134.35682 37.342675,129.41333 37.551926,124.36129 37.302904,119.3417 37.061891,114.47956 36.487429,109.62555 34.957182,104.98201 33.536907,100.67274 31.379247,96.802175 28.839811,93.032478 26.252144,89.190894 23.562037,85.341113 22.492822,80.789231 21.406468,76.166134 22.289022,71.461985 23.469117,66.927179 24.717096,62.130634 26.351754,57.471688 28.041698,52.805102 29.688607,48.257863 30.272355,43.955366 29.363193,39.196151 27.567185,29.79353 22.759802,20.968117 23.38616,11.176431 Z" id="middle-thing" inkscape:connector-curvature="0" style="fill:#c5cfd6"></path>
</g>
<g id="g55" transform="translate(32,11)">
<path d="M 90.892332,1.5822735 C 94.437181,2.6586048 97.957883,4.3952189 100.48481,7.1182797 105.85791,12.908958 104.20929,21.660909 101.24314,28.053245 98.050436,34.933391 93.212267,41.849065 95.939634,49.743211 97.193196,53.37234 99.301171,56.65914 100.49033,60.31613 101.76082,64.223994 102.30919,68.293823 102.23932,72.372005 102.10998,79.862404 100.11754,87.854761 94.708098,93.373143 89.945301,98.23171 82.15752,101.06951 80.376503,108.20631 78.518455,115.65126 83.060921,123.98777 85.077774,131.04147 87.360351,139.02411 88.532881,148.45276 85.861899,156.40882 83.302551,164.03373 76.841813,170.02772 69.528194,173.40577 54.915164,180.15603 37.948672,179.1174 23.295818,172.57816 17.074752,169.80147 10.150631,166.39058 6.284529,160.63259 5.0896965,158.85291 4.7363994,157.29412 4.4760051,155.22952 4.2426077,153.37822 3.4971574,151.91073 2.6047871,150.27821 0.6439959,146.69213 -0.13819652,142.68415 0.01976625,138.65605 0.6344858,123.01112 12.233624,108.46374 24.956247,99.971732 27.97076,97.959918 30.618144,95.911522 31.249382,92.19986 31.908618,88.325468 31.110785,84.213388 30.501199,80.361309 29.899036,76.554385 28.963825,72.762625 28.888791,68.901998 28.810539,64.857873 29.933429,61.157378 31.848202,57.618672 35.445256,50.971566 41.227457,45.929903 47.869576,42.247103 54.267249,38.699698 61.261614,35.69249 64.392784,28.715007 67.711803,21.320006 65.747355,12.560873 71.200258,5.9643208 73.458172,3.232793 76.6252,0.8074086 80.261553,0.18227321 83.74893,-0.41734572 87.558444,0.56999666 90.892332,1.5822735 Z" id="path57" inkscape:connector-curvature="0" style="fill:#dde3e9"></path>
<path d="M 83.651254,13.810881 C 84.154201,12.843816 85.583828,12.76941 86.386602,13.440423 87.4432,14.32383 86.914484,15.456412 86.432246,16.460436 84.950227,19.546685 84.052284,22.789113 83.452084,26.159176 82.203669,33.165673 82.484533,40.262471 82.062952,47.341327 81.641646,54.414221 79.934799,61.146673 75.77362,66.965428 71.850419,72.451797 67.283177,77.461703 63.327365,82.942599 59.840764,87.773278 56.153251,92.862705 55.515586,98.954108 54.901227,104.81727 56.70686,110.62581 57.288241,116.43385 58.491873,128.45694 56.204204,140.17118 51.688361,151.25723 49.591077,156.40503 47.188707,161.47206 43.821136,165.93348 41.882354,168.5025 39.267284,171.9767 35.963429,172.86943 34.439914,173.28114 32.385494,172.73877 32.041538,170.9636 31.718054,169.29823 33.362815,167.6818 34.241742,166.4553 38.047005,161.14622 40.93757,155.27308 43.275276,149.19819 45.539883,143.31395 47.410332,137.26457 48.052942,130.96348 48.64908,125.11588 48.153223,119.40132 47.158127,113.60612 46.144282,107.70051 45.014946,101.7315 46.148642,95.780591 47.299595,89.736367 50.795257,84.628119 54.550148,79.876365 58.521495,74.85023 62.872925,70.189714 67.293003,65.54913 71.600255,61.027322 74.536166,56.238113 75.965598,50.125564 78.789908,38.049307 77.79069,25.078248 83.651254,13.810881 Z" id="path59" inkscape:connector-curvature="0" style="fill:#c5cfd6"></path>
</g>
<g id="g61" transform="translate(0,57)">
<path d="M 13.305977,0 C 19.200266,0 24.382332,3.1243612 27.953089,7.5579337 32.133,12.74806 32.977213,19.086236 34.674537,25.271943 35.519121,28.350309 36.971745,31.406222 39.517361,33.497701 41.832736,35.399769 44.772095,35.7804 47.543501,36.709705 53.082235,38.566865 57.554672,43.040638 59.320957,48.499487 61.475795,55.158176 59.193417,61.873361 59.586419,68.621504 59.947165,74.818799 66.057606,78.685228 70.973839,81.656033 75.821483,84.585551 80.188625,87.327833 81.648665,93.034763 83.196945,99.087556 83.716375,105.84367 81.571918,111.82294 78.001532,121.77874 67.552497,126.1627 57.456051,126.84247 48.293171,127.45923 36.771907,126.49081 29.890664,119.83973 25.77304,115.85958 24.281857,110.29317 24.466864,104.75501 24.581799,101.31122 25.263991,97.899307 26.146021,94.571411 26.771117,92.212658 27.615701,89.864045 27.856322,87.426703 28.495877,80.942214 22.502596,79.696743 17.400984,77.91636 10.918304,75.65358 6.3798712,71.37972 3.2239905,65.425434 0.28500238,59.881477 -0.94813429,53.658106 0.81370139,47.554248 1.7135278,44.437492 3.3455987,41.60974 5.559016,39.204631 6.5333645,38.146035 7.9066472,37.263086 8.786082,36.150891 9.6069373,35.112214 9.4282325,33.766424 9.1453452,32.549926 7.8373157,26.930639 3.7619584,22.277597 2.3045139,16.668451 0.98869854,11.605443 1.766546,5.304207 6.395443,2.0378788 8.3953045,0.62653818 10.861578,0.01557291 13.305977,0 Z" id="path63" inkscape:connector-curvature="0" style="fill:#c5cfd6"></path>
<path d="M 21.337691,14.641377 C 27.585007,21.296023 29.283103,30.324974 29.781461,39.076151 30.060615,43.983387 29.770059,49.159343 31.211804,53.919181 32.445379,57.993092 35.337327,61.107285 38.318282,64.05054 44.318809,69.975439 51.010785,75.998844 52.765889,84.57365 53.795707,89.60583 53.10058,94.803516 54.523567,99.780286 55.817459,104.304 58.095563,108.7484 60.866509,112.56843 63.097535,115.6446 66.004195,117.99971 68.443025,120.86728 69.187068,121.74261 70.252929,123.03117 69.945823,124.26685 69.58649,125.71403 67.743116,126.17216 66.435248,125.94473 63.385884,125.41489 60.819063,122.50314 58.825263,120.38633 55.909775,117.29097 53.432328,113.96165 51.418667,110.22709 49.183227,106.07966 47.383252,101.67872 46.614199,97.025716 45.81609,92.198517 46.213306,87.167785 44.390896,82.535065 41.324246,74.739985 33.88602,70.139859 28.508165,64.064302 21.807729,56.49376 22.80702,47.071505 23.49332,37.758984 23.870307,32.641335 24.245087,26.862023 21.659141,22.189466 20.671988,20.405839 18.47112,18.742812 18.046688,16.715453 17.657932,14.857947 19.779724,12.980884 21.337691,14.641377 Z" id="path65" inkscape:connector-curvature="0" style="fill:#afb9c5"></path>
</g>
<path d="M 28,181 C 28.00038,219.05849 34.211229,239 67.000093,239 99.788957,239 105.99981,219.05849 106,181 L 28,181 Z" id="Base" inkscape:connector-curvature="0" style="fill:#89c5cc"></path>
</g>
<g id="Table" transform="translate(135,353)">
<g id="g69" transform="translate(23,0)">
<rect height="9" id="rect71" rx="2" style="fill:#afb9c5" width="38" x="21" y="144"></rect>
<path d="M 31,115 C 35.293146,101.08547 37.698763,86.418803 38.216851,71 L 41,71 42.783149,71 C 43.301237,86.418803 45.706854,101.08547 50,115 L 56.5,115 C 65.060414,115 72,121.93959 72,130.5 72,139.06041 65.060414,146 56.5,146 L 23.5,146 C 14.939586,146 8,139.06041 8,130.5 8,121.93959 14.939586,115 23.5,115 L 31,115 Z" id="Lamp-Body" inkscape:connector-curvature="0" style="fill:#dde3e9"></path>
<path d="M 4.6222222,1.678615 C 16.081481,0.55953835 27.540741,0 39,0 50.459259,0 61.918518,0.55953835 73.377778,1.678615 L 78,81.13306 C 65,82.377687 52,83 39,83 26,83 13,82.377687 0,81.13306 L 4.6222222,1.678615 Z" id="Shade-2" inkscape:connector-curvature="0" style="fill:#c5cfd6"></path>
</g>
<path d="M 21,153 104,153 125,153 125,257 104,257 104,175 21,175 21,257 0,257 0,153 21,153 Z" id="path75" inkscape:connector-curvature="0" style="fill:#f2f2f2"></path>
</g>
<g id="Plant" transform="translate(537,328)">
<g id="Succulents" transform="translate(13,0)">
<path d="M 3.3809241,0.20818701 C 12.213925,21.197225 27.229201,35.780534 35.181895,57.604883 39.897767,70.547364 41.863552,84.619506 41.982784,99.031948 42.047562,106.86025 41.911297,114.69359 41.874649,122.5219 41.839035,130.156 41.631539,137.74129 40.983504,145.32658 40.332371,152.95207 39.603299,160.48674 39.281733,168.15926 39.031397,174.13746 38.917068,181.09097 36.890634,186.54401 35.279191,190.88066 31.183482,191.51603 30.096713,186.25648 29.492809,183.33271 29.568942,180.06828 29.635526,177.06338 29.72095,173.2081 29.945221,169.35856 30.059549,165.504 30.519188,150.0362 29.923284,134.56553 30.234785,119.09163 30.53906,103.9731 32.482392,88.871087 30.33208,73.853431 28.556499,61.45191 24.045542,50.802498 18.861516,40.593177 13.873887,30.77082 8.4454601,21.187174 5.0749526,10.014391 4.1071575,6.8056033 3.3589874,3.4805112 3,0.0301404 3.1569118,-0.04272947 3.2838866,0.01649974 3.3809241,0.20818701 Z" id="Thi-Succs!" inkscape:connector-curvature="0" style="fill:#c1dee2"></path>
<path d="M 0.9735884,41.616956 C 2.7226644,42.879992 3.7000118,44.727577 4.8822263,46.55055 6.3523824,48.81696 8.0807838,50.863087 9.5505639,53.131137 12.6153,57.859626 15.307892,62.878544 18.101602,67.798602 23.405591,77.13744 27.432639,87.090773 29.427179,97.894881 31.494645,109.09156 32.052109,120.6484 32.919317,132.01204 33.839151,144.05621 34.765376,156.18817 34.887168,168.27869 34.941674,173.69551 35.234503,179.44584 34.584191,184.82451 34.179343,188.17305 32.668214,191.02688 29.261406,190.99981 22.0249,190.94238 18.62749,182.92729 17.208081,176.35367 15.118813,166.67436 14.701937,156.39286 15.032731,146.49409 15.432316,134.55821 17.503917,122.8016 18.400445,110.91166 19.349975,98.324781 18.813562,85.960234 14.486169,74.108861 12.299917,68.119796 9.7625731,62.274305 7.4842259,56.325031 6.5140206,53.791985 5.719362,51.190024 4.4089646,48.831317 2.9512133,46.207614 1.141617,43.825936 0,41 0.32440417,41.205925 0.64918424,41.41144 0.9735884,41.616956 Z" id="path80" inkscape:connector-curvature="0" style="fill:#89c5cc"></path>
<path d="M 84.334143,16.51767 C 84.556013,16.345237 84.778157,16.17284 85,16 84.36094,18.692657 83.206559,20.879894 82.324154,23.341307 81.530959,25.554127 81.128914,28.058225 80.594665,30.47695 79.340142,36.157757 77.890427,41.710516 76.705505,47.439717 74.359895,58.776752 74.803528,70.990184 76.341884,83.568152 77.794751,95.449626 80.092478,107.31271 81.187345,119.19161 82.09492,129.04307 82.485009,139.20174 81.619293,148.601 81.030985,154.98437 79.102555,162.60599 73.848138,161.96176 71.374462,161.6585 70.084067,158.68113 69.564189,155.3202 68.729111,149.92164 68.5543,144.2458 68.228796,138.87769 67.502355,126.89591 67.357649,114.95097 67.214216,103.0925 67.078414,91.904007 66.704519,80.493842 67.452117,69.58727 68.173187,59.063055 70.428488,49.579739 73.653078,40.829725 75.351454,36.219821 76.969691,31.50205 78.877916,27.10844 79.793034,25.000994 80.911033,23.138751 81.826535,21.032968 82.562698,19.339166 83.148338,17.601098 84.334143,16.51767 Z" id="path82" inkscape:connector-curvature="0" style="fill:#c1dee2"></path>
<path d="M 3.2088077,76.301822 C 4.1657216,74.695325 6.2720652,79.993409 6.5926327,80.659775 6.4570499,80.328308 6.3209279,79.997317 6.1836021,79.666614 8.0829877,82.824927 9.8206248,86.112729 10.900983,89.734152 11.97005,93.319113 12.888301,96.976538 13.89141,100.58698 15.77359,107.361 18.201666,113.94276 19.906963,120.7778 21.568582,127.43822 21.987546,133.98589 21.585298,140.8752 21.167239,148.03549 20.911474,155.30564 21.399188,162.46207 21.632116,165.88002 22.742723,169.06377 23.503919,172.35431 24.266042,175.6481 24.866294,178.98581 25.767278,182.23876 25.974095,181.815 26.000441,183.2317 25.999994,183.33925 25.99434,184.15192 25.880864,184.83338 25.619402,185.60396 24.947537,187.58554 23.69062,189.26899 21.777974,189.81555 18.321516,190.80312 15.112244,187.65903 13.9976,184.33901 12.398575,179.57528 11.517447,174.31095 10.755402,169.30406 10.056764,164.71278 9.8914411,160.09409 10.099001,155.43959 10.507866,146.26065 12.168964,137.20188 12.618303,128.02574 13.107352,118.03572 11.128041,108.64928 9.470824,98.924826 8.6725832,94.239192 7.9097436,89.597768 6.3563044,85.133667 5.7273694,83.325991 4.9073676,81.730716 4.0475942,80.061431 3.5583829,79.111708 2.5690513,77.417615 3.2088077,76.301822 Z" id="path84" inkscape:connector-curvature="0" style="fill:#c1dee2"></path>
<path d="M 31.252093,60.697048 C 30.855638,72.141819 30.172022,83.499774 28.646188,94.823946 27.088936,106.38028 25.300327,117.89694 23.801954,129.46349 22.343378,140.72245 20.814544,152.1684 21.018368,163.5845 21.168479,171.99346 19.774141,186.2187 29.113369,190.36897 38.572085,194.57188 40.601021,176.62338 41.222115,170.69908 42.412337,159.33287 42.027006,147.84685 41.449377,136.41858 40.856365,124.6894 39.866432,113.01993 38.639547,101.33357 37.276835,88.352823 36.207608,75.313546 35.349463,62.295875 34.92489,55.856963 34.820295,49.428659 34.937439,42.988176 35.048171,36.91067 34.817261,30.770311 32.656494,25 32.543277,25.082102 32.430813,25.164204 32.317589,25.245913" id="path86" inkscape:connector-curvature="0" style="fill:#69a1ac"></path>
<path d="M 80.082747,96.955225 C 78.381684,99.433295 76.666944,101.88725 75.06051,104.51219 72.186139,109.20857 69.586921,114.43159 68.804984,121.14682 67.168635,135.20036 68.481423,150.37896 68.798273,164.86268 68.863082,167.82244 68.488752,170.69288 69.65532,173.50962 70.713019,176.06386 72.690525,178.01037 74.575506,177.99996 78.610804,177.97694 77.995129,168.09535 78.001779,163.74585 78.013947,156.12258 77.159123,148.42204 77.232697,140.80589 77.306157,133.26043 77.76502,125.69415 78.858999,118.52792 79.96657,111.27455 81.588562,104.30943 83.729135,97.809562 84.026184,96.907549 86.157942,89.937497 84.143897,91.13872" id="path88" inkscape:connector-curvature="0" style="fill:#89c5cc"></path>
<path d="M 62.262195,22 C 59.609151,22 59.625416,35.225997 59.545605,36.924813 59.257379,43.055394 59.325086,49.187615 59.142769,55.319426 58.743716,68.70083 58.253504,82.199507 56.243485,95.426325 55.161312,102.54675 53.906658,109.63561 52.557063,116.70191 51.203685,123.78872 49.386952,130.86691 48.496552,138.04352 47.641708,144.94252 48.124732,151.97725 48.24199,158.91029 48.359247,165.88515 48.569932,172.87396 49.483784,179.78773 49.709221,181.49433 49.973617,183.19479 50.256548,184.89114 50.492198,186.30457 50.354893,188.05751 50.753568,189.40082 51.39281,191.55232 54.132851,192.25637 55.977954,191.92013 60.970472,191.0086 64.159496,184.73984 65.865024,180.15964 68.042986,174.31117 69.198539,167.96736 70.338962,161.80398 71.631063,154.82132 72.388319,147.73206 72.743496,140.62311 73.465574,126.17518 72.538862,111.71167 71.503971,97.310071 70.928275,89.300664 70.263312,81.326522 69.24582,73.366731 68.232489,65.440974 66.932445,57.55048 66.085922,49.60135 65.470888,43.824638 64.864931,38.040135 64.466635,32.241281 64.371316,30.858609 64.291127,22 62.262195,22" id="path90" inkscape:connector-curvature="0" style="fill:#69a1ac"></path>
<path d="M 58.940793,118.1387 C 58.508355,104.2527 52.926529,43.258908 51.656581,26.467132 51.339009,22.26417 48.281539,4.7646391 47.884912,0 46.809561,1.346742 46.901454,22.309445 46.913278,27.126194 46.925779,31.890833 46.334893,36.576453 46.030835,41.315465 45.721034,46.151007 38.572296,108.60088 37.644582,113.24721 35.798951,122.49073 34.563801,131.97644 33.611086,141.42756 32.683034,150.63948 31.240111,160.35797 32.482018,169.61816 32.767495,171.74997 33.219189,173.84761 33.954672,175.806 34.749276,177.922 35.293877,179.87869 35.931723,182.09293 36.958087,185.65947 38.814867,188.78948 41.667943,190.2618 47.51734,193.28076 50.658257,186.44667 52.250507,180.49674 54.793444,170.9948 56.425559,161.33781 57.190771,151.35877 58.037403,140.3183 59.287081,129.2552 58.940793,118.1387" id="path92" inkscape:connector-curvature="0" style="fill:#89c5cc"></path>
</g>
<g id="Planter" transform="translate(0,159)">
<rect height="91" id="Vase" rx="2" style="fill:#ffffff" width="91" x="10" y="0"></rect>
<rect height="113" id="Leg" rx="2" style="fill:#c5cfd6" width="10" x="0" y="10"></rect>
<rect height="113" id="rect97" rx="2" style="fill:#c5cfd6" width="10" x="50" y="10"></rect>
<rect height="113" id="rect99" rx="2" style="fill:#c5cfd6" width="10" x="101" y="10"></rect>
</g>
</g>
</g>
</g>
<g id="layer3" inkscape:groupmode="layer" inkscape:label="head left" transform="translate(0,-120)">
<g id="Head/Front/Chongo" style="fill:none;fill-rule:evenodd;stroke:none;stroke-width:1" transform="matrix(0.9010321,0,0,0.9010321,201.31581,306.85079)">
<g id="Head" style="fill:#b28b67" transform="translate(54,31)">
<path d="M 8.2622739,34.490127 C 3.6543643,29.081376 0.53563479,22.452877 1.0567763,15.025454 2.5583302,-6.3750206 32.348531,-1.6671889 38.143341,9.1339329 43.938152,19.935055 43.249578,47.332996 35.760301,49.263458 32.773588,50.033323 26.411001,48.147461 19.935372,44.244306 L 24,73 0,73 8.2622739,34.490127 Z" id="path4706" inkscape:connector-curvature="0"></path>
</g>
<path d="M 82.663495,28.369976 C 79.384053,27.369976 74.623457,27.030844 72.620815,27.260264 73.760009,24.530844 74.212058,21.489941 73.843529,18.529086 73.485334,15.652066 72.19977,13.202367 71.010817,10.635379 70.462769,9.4521652 69.84169,8.2754004 68.915698,7.3703766 67.972405,6.4483438 66.778322,5.839728 65.526212,5.5493658 64.244858,5.2521517 62.905017,5.2768994 61.621673,5.546625 61.053952,5.6659299 60.544564,5.9254984 59.98779,6.0697928 59.417619,6.217634 59.141031,5.8607675 58.727182,5.5021275 57.729842,4.6379737 56.267746,4.2113783 55.005989,4.0587004 53.590361,3.8874819 52.121451,4.1010214 50.771352,4.5663908 49.457233,5.0194267 48.194788,5.755086 47.244681,6.8268141 46.821646,7.3038722 46.437654,7.8468704 46.188089,8.4463771 46.085737,8.692403 46.068818,8.8381484 45.823311,8.9282719 45.596253,9.0117047 45.330689,9.014123 45.096358,9.0935252 42.830526,9.8609454 40.893261,11.611663 39.838429,13.859511 39.223015,15.170897 38.931499,17.479784 39.011344,20.067666 39.091189,22.655549 41.427911,29.408073 43.613439,31.871073 45.564254,34.069507 48.431721,35.520269 51.199057,36.155326 49.36223,38.254849 48.139516,40.878426 47.235342,43.546662 46.253236,46.445044 45.645401,49.456604 45.420946,52.525076 45.207744,55.440467 45.187993,58.523529 45.871463,61.376688 46.510839,64.044843 47.878162,66.233684 50.16076,67.622295 51.206329,68.2584 52.331284,68.736264 53.462746,69.173016 54.577825,69.6034 55.696273,70.021854 56.864328,70.263366 59.074965,70.720271 61.622132,70.641836 63.32499,68.882251 63.93872,68.24792 64.613693,67.450835 65.061455,66.675918 65.222447,66.397244 65.319517,66.214982 65.123923,65.942596 64.889592,65.616362 64.510576,65.366386 64.209567,65.111171 62.493006,63.656055 61.430442,61.713482 61.162581,59.404934 60.890816,57.062609 61.52001,54.03928 63.797326,53.017047 66.60845,51.755157 69.704277,53.203582 72.202832,54.553742 73.264707,50.805958 75.44503,47.431485 78.863376,45.712367 82.6452,43.810504 86.984792,43.587935 90.871188,41.95612 91.883915,41.530895 92.915398,41.048194 93.66103,40.181783 93.972603,39.819676 94.338146,39.349954 94.462546,38.871042 94.625988,38.241951 94.220254,37.714511 93.906844,37.224071 92.245019,34.623629 85.942937,29.369976 82.663495,28.369976 Z" id="hair" inkscape:connector-curvature="0" style="fill:#191847"></path>
</g>
</g>
<g id="layer4" inkscape:groupmode="layer" inkscape:label="head right" transform="translate(0,-120)">
<g id="Head/Front/Rad" style="fill:none;fill-rule:evenodd;stroke:none;stroke-width:1" transform="matrix(-0.85738217,0,0,0.85738217,555.11466,330.40509)">
<g id="Head-3" style="fill:#b28b67" transform="translate(54,31)">
<path d="M 8.2622739,34.490127 C 3.6543643,29.081376 0.53563479,22.452877 1.0567763,15.025454 2.5583302,-6.3750206 32.348531,-1.6671889 38.143341,9.1339329 43.938152,19.935055 43.249578,47.332996 35.760301,49.263458 32.773588,50.033323 26.411001,48.147461 19.935372,44.244306 L 24,73 0,73 8.2622739,34.490127 Z" id="path4820" inkscape:connector-curvature="0"></path>
</g>
<path d="M 95.406618,38.901701 C 96.181796,38.133517 96.604637,37.037064 96.970412,35.995937 97.350269,34.914409 97.719358,33.821738 97.971553,32.69603 98.475483,30.446804 98.480269,27.860154 96.875701,26.113631 95.588861,24.713089 93.658004,24.084909 91.875978,23.948387 90.688728,23.85734 89.469356,24.023614 88.331256,24.397755 87.202085,24.768911 86.22874,25.508636 85.134085,25.967755 85.092297,23.543897 84.677096,21.007697 83.447415,18.938078 82.264122,16.946771 80.377537,15.829322 78.229,15.533691 76.023766,15.230298 73.846143,15.746334 71.871934,16.813931 71.377668,17.081302 70.888005,17.361411 70.419419,17.678436 70.027044,17.943917 69.619114,18.263629 69.15872,18.371592 68.645493,18.492094 68.391089,18.195666 68.057529,17.821227 67.666442,17.382207 67.225837,16.995528 66.759552,16.652732 64.697811,15.13726 61.992696,14.514156 59.604114,15.422543 58.503567,15.841064 57.433395,16.551833 56.68675,17.531267 56.021194,18.40433 55.546441,19.78925 54.627862,20.397528 54.238064,20.655745 53.962766,20.313644 53.607852,20.060801 53.074745,19.680888 52.566305,19.26167 52.026755,18.892106 51.268881,18.372886 50.448326,17.984515 49.569601,17.781225 48.283222,17.483604 46.505522,17.553357 46.137722,19.238187 45.999659,19.871043 46.105507,20.547881 46.150148,21.185513 46.211356,22.061063 46.275233,22.936315 46.35126,23.810572 46.40897,24.474374 46.481959,25.115489 46.607228,25.767351 46.674051,26.114825 46.88317,26.762607 46.734154,27.110578 46.547953,27.545517 45.688557,27.298246 45.321401,27.313371 44.596202,27.343322 43.867966,27.47049 43.19744,27.780351 42.677771,28.020557 42.131409,28.373802 41.912073,28.969443 41.777231,29.335326 41.81276,29.711159 41.876453,30.087589 41.952848,30.539344 41.8655,30.778954 41.808434,31.234789 40.834445,30.755172 37.459264,29.689566 37.034582,31.435094 36.893206,32.016307 37.215169,32.673044 37.460829,33.163209 37.891678,34.022938 38.456539,34.808734 39.034011,35.558112 40.238565,37.121445 41.67663,38.469847 43.223856,39.623018 41.411088,40.428914 40.9379,42.806005 42.507401,44.222269 43.200385,44.847563 44.132126,44.986771 45.00625,44.94677 45.326188,44.932142 45.78741,44.809153 46.039145,44.864877 46.174631,44.894828 46.319689,45.009657 46.507363,45.022494 47.741002,45.106974 49.133598,44.80975 50.339532,44.53601 52.488345,44.048234 54.522658,43.030191 56.183924,41.479694 56.610079,41.08197 56.96214,40.853007 57.535745,40.858878 58.038387,40.863953 58.531548,41.001768 59.033729,41.014505 60.362448,41.048436 61.560467,40.398863 62.79429,39.966511 62.869857,41.633331 63.344517,43.469111 64.026365,44.968661 64.58239,46.191486 65.7435,46.369203 66.884453,46.47647 70.532999,46.819765 74.19443,46.436668 77.847578,46.441743 74.311232,47.241072 70.65698,47.570535 67.152019,48.511162 65.5677,48.93625 66.777501,50.004046 67.45493,50.744268 68.570387,51.963213 69.399778,53.47351 69.97504,55.064605 71.70497,52.809608 74.762698,51.323789 77.471679,52.016548 80.464885,52.781846 82.572555,56.829637 80.658541,59.73968 79.547318,61.428988 77.540618,62.081148 75.870884,62.806942 77.173462,64.161215 77.488522,66.161378 78.272536,67.846208 78.659205,68.67708 79.201976,69.616513 80.066711,69.906075 80.386649,70.013242 80.761813,70.022397 81.014192,70.283201 81.326858,70.606097 81.40132,70.967104 81.800599,71.244625 83.393846,72.352322 85.88257,72.266946 87.294771,70.821427 88.571854,69.514122 88.239582,67.445399 87.172999,66.119984 88.870806,65.412299 91.963971,64.502121 91.28921,61.857061 94.96813,61.612775 103.90044,55.646216 98.962754,51.286276 101.67256,49.754784 104.16212,46.011978 102.42151,42.712669 101.08119,40.17209 97.964098,39.036432 95.406618,38.901701" id="hair-5" inkscape:connector-curvature="0" style="fill:#191847" transform="matrix(-1,0,0,1,140,0)"></path>
</g>
</g>
<g id="layer7" inkscape:groupmode="layer" inkscape:label="legs left" transform="translate(0,-120)">
<g id="Bottom/Sitting/Baggy-Pants" style="fill:none;fill-rule:evenodd;stroke:none;stroke-width:1" transform="matrix(0.86371205,0,0,0.86371205,115.36861,513.29452)">
<g id="Objects/Seat/Cube-2" style="fill:#c5cfd6" transform="translate(10,42)">
<path d="M 59,0 174,0 C 182.83656,0 190,7.163444 190,16 L 190,108 C 190,116.83656 182.83656,124 174,124 L 59,124 C 50.163444,124 43,116.83656 43,108 L 43,16 C 43,7.163444 50.163444,0 59,0 Z M 75,28 C 72.790861,28 71,29.790861 71,32 L 71,92 C 71,94.209139 72.790861,96 75,96 L 158,96 C 160.20914,96 162,94.209139 162,92 L 162,32 C 162,29.790861 160.20914,28 158,28 L 75,28 Z" id="Seat" inkscape:connector-curvature="0"></path>
</g>
<path d="M 299.15896,161 C 279.4431,136.92417 266.10287,119.07544 259.13828,107.45378 247.21322,87.554684 237.45312,69.848165 234.37308,63.084354 227.02832,46.95518 251.2819,39.402618 256.77103,46.9258 265.07905,58.312435 282.82204,94.142967 310,154.4174 L 299.15896,161 Z" id="LegLower" inkscape:connector-curvature="0" style="fill:#b28b67"></path>
<path d="M 258.75757,154 222.0652,61.636777 C 214.21743,44.799577 252.11576,33.732076 257.88327,41.567772 270.97732,59.357226 302.09885,129.53404 306,134.83411 L 258.75757,154 Z" id="path5066" inkscape:connector-curvature="0" style="fill:#2f3676"></path>
<g id="Lower-Leg" style="fill:#b28b67" transform="matrix(0.77714596,0.62932039,-0.62932039,0.77714596,244.11252,25.238464)">
<path d="M 4.8104618,137.95503 C 3.8038254,125.35442 1.9336196,81.733713 3.8048365,61.543304 4.3425492,55.74139 4.9090656,50.13187 5.4799779,44.869643 7.1769312,29.228442 36.179028,29.72287 33.875898,44.582795 28.140194,81.589882 18.0447,133.45317 17.321118,137.93445 16.306988,144.21516 5.4431014,145.87413 4.8104618,137.95503 Z" id="path5069" inkscape:connector-curvature="0"></path>
</g>
<g id="Accessories/Shoe/Flat-Sneaker" style="fill:#e4e4e4" transform="matrix(0.8660254,0.5,-0.5,0.8660254,173.08623,107.42949)">
<path d="M 2.6781318,25.401924 C 1.5593773,28.388411 1,30.622993 1,32.105671 1,33.908957 1.3004142,36.5404 1.9012426,40 3.9931812,40 22.793785,40 58.303055,40 59.768738,35.154507 58.922661,32.538582 55.764823,32.152223 52.606985,31.765865 49.983716,31.417014 47.895014,31.105671 L 21.679993,19.418883 C 21.175563,19.194006 20.584344,19.420628 20.359467,19.925057 20.35562,19.933687 20.351895,19.94237 20.348295,19.951105 L 18.663213,24.038695 C 15.739881,25.402652 13.364371,26.084631 11.536681,26.084631 10.051727,26.084631 8.0009925,25.484905 5.3844779,24.285455 L 5.3844834,24.285443 C 4.3803827,23.825148 3.1932553,24.265989 2.7329601,25.27009 2.7131207,25.313368 2.694833,25.357341 2.6781318,25.401924 Z" id="shoe" inkscape:connector-curvature="0"></path>
</g>
<g id="g5073" style="fill:#e4e4e4" transform="translate(288,132)">
<path d="M 2.6781318,25.401924 C 1.5593773,28.388411 1,30.622993 1,32.105671 1,33.908957 1.3004142,36.5404 1.9012426,40 3.9931812,40 22.793785,40 58.303055,40 59.768738,35.154507 58.922661,32.538582 55.764823,32.152223 52.606985,31.765865 49.983716,31.417014 47.895014,31.105671 L 21.679993,19.418883 C 21.175563,19.194006 20.584344,19.420628 20.359467,19.925057 20.35562,19.933687 20.351895,19.94237 20.348295,19.951105 L 18.663213,24.038695 C 15.739881,25.402652 13.364371,26.084631 11.536681,26.084631 10.051727,26.084631 8.0009925,25.484905 5.3844779,24.285455 L 5.3844834,24.285443 C 4.3803827,23.825148 3.1932553,24.265989 2.7329601,25.27009 2.7131207,25.313368 2.694833,25.357341 2.6781318,25.401924 Z" id="path5075" inkscape:connector-curvature="0"></path>
</g>
<path d="M 208.86209,66.250052 C 178.36527,61.281735 157.93809,57.884419 147.58054,56.058104 118.05745,50.852387 109.44827,34.965331 114.53848,0.30222866 L 168.93427,0.30222866 C 176.13268,2.3809936 206.21042,15.237481 259.16751,38.871689 268.69553,43.601533 266.9211,57.547498 265.17955,62.142077 265.10852,62.329461 249.0461,89.853015 216.99228,144.71274 L 172.49423,116.36549 208.94566,69.590388 C 209.90831,67.651487 209.88045,66.538042 208.86209,66.250052 Z" id="Leg-and-Butt" inkscape:connector-curvature="0" style="fill:#5c63ab"></path>
</g>
</g>
<g id="layer5" inkscape:groupmode="layer" inkscape:label="body left" transform="translate(0,-120)">
<g id="Body/Jacket-2" style="fill:none;fill-rule:evenodd;stroke:none;stroke-width:1" transform="matrix(0.91660298,0,0,0.91660298,142.76769,395.17171)">
<path d="M 198,77.617088 234.23457,61.704174 C 240.58202,55.379022 246.71139,50.571614 252.62267,47.28195 254.39026,46.719209 257.4101,46.549199 254.18817,51.255168 250.96623,55.961138 247.78889,61.056014 249.07629,62.705296 250.36369,64.354579 254.09301,62.53422 255.56634,65.216277 256.54857,67.004314 250.26229,69.14318 236.70749,71.632876 L 209.56994,92.439287 198,77.617088 Z M 51.508283,82 72,86.065845 C 51.392082,124.47106 40.340426,144.82584 38.845032,147.1302 35.480394,152.31501 38.619669,161.81724 39.779304,166.82118 32.504404,168.51462 35.373401,157.56501 26.167156,159.85118 17.764122,161.9379 10.639363,167.29317 2.8038784,160.07074 1.8405516,159.18278 1.1353508,156.40729 4.4198199,154.98375 12.60263,151.43719 24.692043,144.79634 26.652342,142.2181 29.325561,138.7022 37.610874,118.6295 51.508283,82 Z" id="Skin" inkscape:connector-curvature="0" style="fill:#b28b67"></path>
<path d="M 123.28025,9.8771803 131.7652,7.6460096 C 152.12013,24.205075 163.60237,67.261672 176.61267,71.955646 188.91338,76.393609 205.20859,69.63201 224.50316,60.739032 L 231.79605,73.835343 C 215.40983,95.000024 178.29861,114.91655 161.84294,106.83981 135.53374,93.926787 125.0468,40.501408 123.28025,9.8771803 Z" id="Coat-Back" inkscape:connector-curvature="0" style="fill:#db2721" transform="matrix(0.9961947,0.08715574,-0.08715574,0.9961947,5.7447184,-15.252146)"></path>
<path d="M 90,114 C 124.67176,114 150.17557,114 166.51145,114 170.00763,114 169.34884,108.95164 168.84345,106.40421 163.01059,77.003766 140.2413,45.311515 140.2413,3.4607303 L 118.1718,0 C 99.917485,29.358407 93.604826,65.50455 90,114 Z" id="Shirt" inkscape:connector-curvature="0" style="fill:#dde3e9"></path>
<path d="M 82.368755,84.23317 C 66.771381,112.36783 53.660945,132.62344 43.037445,145 L 27,141.85882 C 37.330593,77.790672 67.246611,30.504399 116.74805,0 L 117,0 125.4864,0 C 145.29892,67.536948 150.76088,112.53695 141.87228,135 L 73,135 C 74.089628,118.56345 77.583396,101.1812 82.368756,84.233166 Z" id="Coat-Front" inkscape:connector-curvature="0" style="fill:#ff4133"></path>
</g>
</g>
<g id="layer8" inkscape:groupmode="layer" inkscape:label="legs right" transform="translate(0,-120)">
<g id="Bottom/Sitting/Skinny-Jeans-1" style="fill:none;fill-rule:evenodd;stroke:none;stroke-width:1" transform="matrix(-0.85661125,0,0,0.85661125,627.3301,512.49948)">
<g id="Objects/Seat/Cube" transform="translate(10,42)">
<g id="Seat-2" transform="translate(55,0)">
<polygon id="Seat-Stuff" points="27.622642,0 104.87719,0 115,124 0,124 " style="fill:#c5cfd6"></polygon>
<polygon id="polygon5276" points="27.622642,0 51.382801,0 65.603774,124 0,124 " style="fill:#000000;fill-opacity:0.1"></polygon>
</g>
</g>
<path d="M 257.95329,20.756126 C 266.19009,15.810147 280.00949,22.164715 280,29.238415 279.97161,50.402911 260.65668,150.1511 259.64822,156.45671 258.63977,162.76232 247.83665,164.42787 247.20755,156.47737 246.20654,143.82679 244.3468,100.03312 246.20755,79.762652 246.97563,71.395428 247.80281,63.426764 248.61715,56.317595 238.4819,74.620603 222.80723,100.826 201.59313,134.93378 L 190.07657,129.67217 C 199.12017,99.876099 206.53578,78.840862 212.3234,66.566464 222.23323,45.549715 231.52531,27.551672 235.43604,21.212007 241.58763,11.23971 252.29546,14.719193 257.95329,20.756126 Z" id="Skin-0" inkscape:connector-curvature="0" style="fill:#b28b67"></path>
<path d="M 208.81922,123.34011 213.93692,21.829935 C 217.62536,4.2773996 248.84365,12.423535 248.83081,21.829935 248.80167,43.185375 235.97352,116.95676 235.96484,123.31926 L 208.81922,123.34011 Z" id="LegLower-5" inkscape:connector-curvature="0" style="fill:#1f28cf" transform="matrix(0.93969262,0.34202014,-0.34202014,0.93969262,36.858709,-74.196865)"></path>
<g id="Accessories/Shoe/Flat-Sneaker-2" style="fill:#e4e4e4" transform="matrix(0.8660254,0.5,-0.5,0.8660254,199.08623,100.42949)">
<path d="M 2.6781318,25.401924 C 1.5593773,28.388411 1,30.622993 1,32.105671 1,33.908957 1.3004142,36.5404 1.9012426,40 3.9931812,40 22.793785,40 58.303055,40 59.768738,35.154507 58.922661,32.538582 55.764823,32.152223 52.606985,31.765865 49.983716,31.417014 47.895014,31.105671 L 21.679993,19.418883 C 21.175563,19.194006 20.584344,19.420628 20.359467,19.925057 20.35562,19.933687 20.351895,19.94237 20.348295,19.951105 L 18.663213,24.038695 C 15.739881,25.402652 13.364371,26.084631 11.536681,26.084631 10.051727,26.084631 8.0009925,25.484905 5.3844779,24.285455 L 5.3844834,24.285443 C 4.3803827,23.825148 3.1932553,24.265989 2.7329601,25.27009 2.7131207,25.313368 2.694833,25.357341 2.6781318,25.401924 Z" id="shoe-9" inkscape:connector-curvature="0"></path>
</g>
<g id="g5282" style="fill:#e4e4e4" transform="translate(242,126)">
<path d="M 2.6781318,25.401924 C 1.5593773,28.388411 1,30.622993 1,32.105671 1,33.908957 1.3004142,36.5404 1.9012426,40 3.9931812,40 22.793785,40 58.303055,40 59.768738,35.154507 58.922661,32.538582 55.764823,32.152223 52.606985,31.765865 49.983716,31.417014 47.895014,31.105671 L 21.679993,19.418883 C 21.175563,19.194006 20.584344,19.420628 20.359467,19.925057 20.35562,19.933687 20.351895,19.94237 20.348295,19.951105 L 18.663213,24.038695 C 15.739881,25.402652 13.364371,26.084631 11.536681,26.084631 10.051727,26.084631 8.0009925,25.484905 5.3844779,24.285455 L 5.3844834,24.285443 C 4.3803827,23.825148 3.1932553,24.265989 2.7329601,25.27009 2.7131207,25.313368 2.694833,25.357341 2.6781318,25.401924 Z" id="path5284" inkscape:connector-curvature="0"></path>
</g>
<path d="M 282.77037,36.433028 C 282.77037,63 270.1536,124.97029 270.14562,130.82011 L 243,130.84096 C 246.97328,75.545481 248.38217,47.599893 247.22668,47.004198 245.49345,46.110656 176.17584,53.925031 155.38636,53.925031 125.40783,53.925031 113.00631,35.020397 112,0 L 171.38636,0 C 183.47795,1.2938669 246.54882,14.015257 269.9721,18.388413 280,20.260636 282.77037,29.114511 282.77037,36.433028 Z" id="Leg-and-Butt-7" inkscape:connector-curvature="0" style="fill:#2b44ff"></path>
</g>
</g>
<g id="layer6" inkscape:groupmode="layer" inkscape:label="body right" style="display:inline" transform="translate(0,-120)">
<g id="Body/Long-Sleeve" style="fill:none;fill-rule:evenodd;stroke:none;stroke-width:1" transform="matrix(-0.87732912,0,0,0.87732912,613.39714,415.74415)">
<path d="M 192,65.31079 231.48288,59.925165 C 239.38105,55.532026 246.64699,52.557949 253.28069,51.002931 255.14749,50.948426 258.1172,51.627054 253.69315,55.315197 249.26911,59.00334 244.7803,63.083197 245.56853,65.051494 246.35676,67.019792 250.47106,66.287453 251.15264,69.314863 251.60702,71.333135 244.92976,71.661084 231.12084,70.29871 L 199.08387,83 192,65.31079 Z M 67.969792,74.449683 89.867184,74.531863 C 65.856099,128.56567 53.336347,156.85691 52.307928,159.4056 49.993985,165.14013 54.8906,173.87373 56.984587,178.5671 50.164541,181.61887 50.891224,170.31693 42.287919,174.31949 34.435221,177.97285 28.461693,184.59248 19.389035,178.99437 18.273605,178.30612 17.051276,175.71471 20.004578,173.68967 27.362332,168.64455 37.965302,159.81467 39.39793,156.90825 41.351574,152.94483 50.875528,125.45864 67.969792,74.449683 Z" id="Skin-2" inkscape:connector-curvature="0" style="fill:#997659"></path>
<path d="M 123.47357,9.6692732 140.65281,9.3128071 C 148.18865,47.000641 173.20375,69.033691 223.79046,56.407946 L 234.89335,104.81913 C 187.48907,115.21041 143.7605,99.693528 130.59578,48.474648 127.18785,35.215699 124.20138,21.368178 123.47357,9.6692732 Z" id="Clothes-Back" inkscape:connector-curvature="0" style="fill:#afb9c5" transform="matrix(0.9961947,0.08715574,-0.08715574,0.9961947,5.7884302,-15.393909)"></path>
<path d="M 119.49082,0.01593955 145.4676,5.9652766 C 145.4676,50.644425 159.70002,79.150459 167,112 L 96.843654,112 C 95.855379,123.3509 95.248489,135.01756 94.93224,147 L 42.401636,147 C 54.305365,83.663963 79.430111,34.663963 117.77587,0 L 119.47715,0 119.49082,0.01593955 Z" id="Clothes" inkscape:connector-curvature="0" style="fill:#c5cfd6"></path>
<path d="M 107.91245,48.259249 C 106.10446,76.100529 107.16779,97.347446 111.10245,112 L 96.843654,112 C 98.801423,89.513902 102.25588,68.266989 107.91245,48.25926 Z" id="Shade" inkscape:connector-curvature="0" style="fill:#000000;fill-opacity:0.1"></path>
</g>
</g>
</svg>