<svg height="32" id="svg4227" inkscape:version="0.91 r13725" sodipodi:docname="logo-nestor-transparent.svg" version="1.1" viewbox="0 0 744.09449 1052.3622" width="32" xmlns="http://www.w3.org/2000/svg" xmlns:cc="http://creativecommons.org/ns#" xmlns:dc="http://purl.org/dc/elements/1.1/" xmlns:inkscape="http://www.inkscape.org/namespaces/inkscape" xmlns:rdf="http://www.w3.org/1999/02/22-rdf-syntax-ns#" xmlns:sodipodi="http://sodipodi.sourceforge.net/DTD/sodipodi-0.dtd" xmlns:svg="http://www.w3.org/2000/svg">
<defs id="defs4229"></defs>
<sodipodi:namedview bordercolor="#666666" borderopacity="1.0" id="base" inkscape:current-layer="g5048" inkscape:cx="35.964729" inkscape:cy="104.18009" inkscape:document-units="px" inkscape:pageopacity="0.0" inkscape:pageshadow="2" inkscape:window-height="756" inkscape:window-maximized="0" inkscape:window-width="1242" inkscape:window-x="52" inkscape:window-y="16" inkscape:zoom="2.0708955" pagecolor="#ffffff" showgrid="false"></sodipodi:namedview>
<metadata id="metadata4232">
<rdf:rdf>
<cc:work rdf:about="">
<dc:format>image/svg+xml</dc:format>
<dc:type rdf:resource="http://purl.org/dc/dcmitype/StillImage"></dc:type>
</cc:work>
</rdf:rdf>
</metadata>
<g id="layer1" inkscape:groupmode="layer" inkscape:label="Layer 1">
<g id="g5048" transform="matrix(3.572745,0,0,3.572745,-953.22078,-859.76987)">
<path d="M 386.55364,506.45951 C 383.52673,502.49103 326.97386,404.47272 325.58676,400.79079 L 324.64494,398.29079 333.3104,349.31476 C 338.0764,322.37794 342.06592,300.24869 342.17599,300.13861 342.28606,300.02854 347.57459,309.01775 353.92827,320.11464 360.28196,331.21151 374.81269,356.52748 386.21878,376.37234 L 406.95713,412.45389 398.42202,460.77413 C 393.72771,487.35025 389.71797,509.2633 389.51148,509.46978 389.30499,509.67628 387.97397,508.32165 386.55364,506.45951 Z" id="path5058" inkscape:connector-curvature="0" sodipodi:nodetypes="sscscsscscs" style="fill:#ffffff;fill-opacity:0.39215687"></path>
<path d="M 419.58231,417.15625 C 428.56883,366.20726 435.7337,324.33401 435.50426,324.10456 435.27483,323.87513 431.99786,323.19677 428.22213,322.59711 424.44639,321.99743 421.00244,321.19348 420.5689,320.81055 L 419.78065,320.11428 449.83708,287.41205 479.89352,254.70981 481.72526,259.00029 C 491.4415,281.75863 514.00574,336.97552 513.71035,337.27091 513.50242,337.47884 509.99348,337.01278 505.91271,336.23523 501.83193,335.45767 498.41293,334.92709 498.31494,335.05614 498.21694,335.1852 491.22894,374.55328 482.78603,422.54079 L 467.4353,509.79079 435.33925,509.79079 403.2432,509.79079 Z" id="path5056" inkscape:connector-curvature="0" sodipodi:nodetypes="scsccccssssscccs" style="fill:#ffffff;fill-opacity:0.58823532;stroke:none"></path>
<path d="M 226.8204,507.54079 C 226.80018,506.30328 234.98598,458.60329 245.01106,401.54079 L 263.23847,297.79079 296.1152,297.79079 328.99193,297.79079 328.50088,299.54079 C 328.23081,300.50328 319.78195,348.20329 309.72564,405.54079 L 291.44144,509.79079 259.14929,509.79079 226.85715,509.79079 226.8204,507.54079 Z" id="path5050" inkscape:connector-curvature="0" style="fill:#ffffff;fill-opacity:0.78431374"></path>
</g>
</g>
</svg>