<svg height="24" style="width:16px;height:16px" viewbox="0 0 19 24" width="19" xmlns="http://www.w3.org/2000/svg"><title>Fill 379</title><path d="M10.137.5C3.86.5.696 5 .696 8.752c0 2.272.86 4.294 2.705 5.047.302.124.574.004.66-.33.062-.232.207-.817.27-1.061.089-.331.056-.446-.19-.736-.531-.626-.871-1.44-.871-2.59 0-3.339 2.498-6.328 6.505-6.328 3.548 0 5.497 2.168 5.497 5.062 0 3.809-1.687 7.025-4.19 7.025-1.381 0-2.416-1.142-2.085-2.545.398-1.674 1.167-3.48 1.167-4.688 0-1.081-.58-1.983-1.782-1.983-1.413 0-2.548 1.461-2.548 3.419 0 1.248.422 2.091.422 2.091s-1.445 6.126-1.7 7.199c-.504 2.137-.075 4.756-.04 5.02.022.157.225.194.315.077.13-.17 1.813-2.249 2.385-4.325.162-.588.929-3.631.929-3.631.459.876 1.8 1.646 3.227 1.646 4.247 0 7.128-3.871 7.128-9.053C18.5 4.15 15.182.5 10.137.5" fill="#818181" fill-rule="evenodd"></path></svg>