<svg fill="none" height="70" viewbox="0 0 43 70" width="43">
<path d="M12 12C13.6542 12 15 10.6542 15 9C15 7.34583 13.6542 6 12 6C10.3458 6 9 7.34583 9 9C9 10.6542 10.3458 12 12 12ZM12 8C12.5516 8 13 8.44844 13 9C13 9.55156 12.5516 10 12 10C11.4484 10 11 9.55156 11 9C11 8.44844 11.4484 8 12 8Z" fill="black"></path>
<path d="M35 13C35 13.5521 34.5521 14 34 14C33.4479 14 33 13.5521 33 13C33 12.4479 33.4479 12 34 12C34.5521 12 35 12.4479 35 13Z" fill="black"></path>
<path d="M16 1C16 1.55208 15.5521 2 15 2C14.4479 2 14 1.55208 14 1C14 0.447917 14.4479 0 15 0C15.5521 0 16 0.447917 16 1Z" fill="black"></path>
<path d="M2 15C2 15.5521 1.55208 16 1 16C0.447917 16 0 15.5521 0 15C0 14.4479 0.447917 14 1 14C1.55208 14 2 14.4479 2 15Z" fill="black"></path>
<path d="M43 17C43 17.5521 42.5521 18 42 18C41.4479 18 41 17.5521 41 17C41 16.4479 41.4479 16 42 16C42.5521 16 43 16.4479 43 17Z" fill="black"></path>
<path d="M28.9096 34.6921V29.8444C30.2453 29.5441 31.3368 28.3425 31.2938 26.6924C31.2185 25.062 29.8489 23.7549 28.1826 23.7549H17.7606C17.2453 23.7549 16.7502 23.8829 16.3098 24.1237C15.0495 22.1851 17.7585 20.3899 19.0485 22.1053C19.4247 22.6122 20.009 22.9151 20.6134 22.9151H20.6325C21.1568 22.9151 21.6699 22.6861 22.0424 22.2873C23.402 20.8486 25.2359 20.0553 27.2057 20.0553H27.2089C31.0964 20.0553 34.2252 23.126 34.3323 27.0451V34.6552C34.3323 34.9972 34.4974 35.3034 34.7601 35.4939C35.3294 35.9034 35.7237 36.4804 35.8988 37.1628C36.0145 37.6178 36.4205 37.9357 36.8848 37.9357C36.9708 37.9357 37.0562 37.9244 37.139 37.9025C37.6839 37.7617 38.0124 37.1997 37.8723 36.6516V36.65C37.6266 35.6839 37.1077 34.8249 36.3701 34.1617V27.0012C36.2369 22.0133 32.1981 18 27.2057 18H27.2046C24.6575 18 22.3125 19.0528 20.6282 20.8063C19.9108 19.8862 18.7826 19.3156 17.5048 19.3745C17.5038 19.3745 17.5038 19.3745 17.5038 19.3756C16.5512 19.428 15.664 19.8391 15.0039 20.5349C14.3427 21.2313 13.9728 22.1449 13.9606 23.1084V23.1153C13.9606 23.1153 13.8359 24.3293 14.9221 25.6931C14.7799 26.0527 14.704 26.4392 14.704 26.8379C14.704 28.3147 15.7261 29.5377 17.0899 29.8444L17.0845 34.6943C9.85653 37.2302 5.00053 44.122 5 51.844C5 61.8573 13.0696 70 22.9997 70H23.0586C32.9511 69.9684 41 61.8236 41 51.8445C41 44.1242 36.1339 37.2276 28.9096 34.6921ZM23.0517 67.9447C23.0342 67.9447 23.0178 67.9447 23.0003 67.9447C14.1994 67.9441 7.03771 60.7242 7.03824 51.844C7.03824 44.9961 11.3445 38.8841 17.7542 36.635C18.5762 36.3465 19.1286 35.5662 19.1286 34.6926V29.9209H20.9381C20.9477 29.9209 20.9567 29.9226 20.9636 29.9209C21.5251 29.9193 21.9814 29.459 21.9814 28.8933C21.9814 28.3259 21.5251 27.8656 20.9626 27.8656H17.7606C17.1997 27.864 16.7428 27.4037 16.7417 26.8379C16.7428 26.2722 17.1997 25.8119 17.7606 25.8103H28.1826C28.743 25.8103 29.2588 26.2449 29.2588 26.8379C29.2572 27.4037 28.8008 27.864 28.2399 27.8656H25.039C24.4781 27.8656 24.0202 28.3259 24.0202 28.8933C24.0202 29.4606 24.4781 29.9209 25.039 29.9209H25.0406H26.8719V34.6921C26.8719 35.5662 27.4248 36.3471 28.2484 36.6361C34.6385 38.8788 38.9623 44.9897 38.9623 51.8445C38.9623 60.6943 31.825 67.9168 23.0517 67.9447Z" fill="black"></path>
<path d="M10.9741 23.9317C11.5544 23.8478 11.9507 23.351 11.8586 22.8212C11.7666 22.292 11.2218 21.9301 10.641 22.0145C8.51595 22.3213 6.51343 20.9945 6.177 19.0571C5.84057 17.1186 7.29548 15.2924 9.42049 14.9856C11.5455 14.6793 13.548 16.0056 13.8844 17.9431C13.9764 18.4728 14.5213 18.8347 15.1021 18.7498C15.683 18.6664 16.0787 18.169 15.9867 17.6398C15.4668 14.6444 12.3708 12.5933 9.08738 13.0684C5.80344 13.5425 3.55483 16.365 4.07472 19.3604C4.59572 22.3598 7.6951 24.4059 10.9741 23.9317Z" fill="black"></path>
<path d="M22.5 16C26.6356 16 30 12.8599 30 9C30 5.1401 26.6356 2 22.5 2C18.3644 2 15 5.1401 15 9C15 12.8599 18.3644 16 22.5 16ZM22.5 4C25.4537 4 27.8571 6.24271 27.8571 9C27.8571 11.7573 25.4542 14 22.5 14C19.5458 14 17.1429 11.7573 17.1429 9C17.1429 6.24271 19.5458 4 22.5 4Z" fill="black"></path>
<path d="M25.08 48.5425C24.6617 48.9168 24.6318 49.5534 25.0128 49.9644C25.3938 50.3755 26.0421 50.4049 26.4604 50.0305C28.0602 48.598 29.2341 48.0134 30.5115 48.0134C32.942 48.0134 34.9227 49.9429 34.9505 52.325C34.9307 54.9324 32.8449 56.7382 30.5115 56.7382C25.0299 56.7382 22.2797 46 15.4855 46C13.7806 46 12.1702 46.6449 10.9515 47.8157C9.69224 49.0254 8.9308 50.7032 9.00497 52.6925C9.24989 60.1086 15.4695 66.0235 23.0438 65.9999C30.7287 65.9758 37 59.815 37 52.2416C37 49.0233 34.2066 46 30.5115 46C28.2277 46 26.4839 47.2851 25.08 48.5425ZM22.9985 63.9865C16.3307 63.986 11.1276 58.7658 11.046 52.3847C11.1313 49.7379 13.2273 48.0134 15.4855 48.0134C20.981 48.0134 23.7066 58.7516 30.5115 58.7516C31.5275 58.7516 32.489 58.5209 33.3459 58.1104C31.3001 61.5767 27.4844 63.9713 22.9985 63.9865Z" fill="black"></path>
<path d="M16 53C16 53.5521 15.5521 54 15 54C14.4474 54 14 53.5521 14 53C14 52.4479 14.4474 52 15 52C15.5521 52 16 52.4479 16 53Z" fill="black"></path>
<path d="M22 56C22 56.5521 21.5521 57 21 57C20.4474 57 20 56.5521 20 56C20 55.4479 20.4474 55 21 55C21.5521 55 22 55.4479 22 56Z" fill="black"></path>
<path d="M17 58C17 58.5521 16.5521 59 16 59C15.4474 59 15 58.5521 15 58C15 57.4479 15.4474 57 16 57C16.5521 57 17 57.4479 17 58Z" fill="black"></path>
</svg>