<svg fill="none" height="19" viewbox="0 0 19 19" width="19">
<path clip-rule="evenodd" d="M19 1.04754V17.9482C19 18.5292 18.5292 18.9958 17.9525 18.9958H13.1092V11.6417H15.5775L15.9464 8.77478H13.1049V6.94263C13.1049 6.11138 13.3339 5.54732 14.5257 5.54732H16.044V2.98147C15.781 2.94754 14.8819 2.86696 13.8301 2.86696C11.6417 2.86696 10.1404 4.2029 10.1404 6.65848V8.77478H7.66362V11.6417H10.1404V19H1.04754C0.470759 19 0 18.5292 0 17.9525V1.04754C0 0.470759 0.470759 0 1.04754 0H17.9482C18.5292 0 19 0.470759 19 1.04754Z" fill="#454545" fill-rule="evenodd"></path>
</svg>