<svg fill="none" height="106" viewbox="0 0 112 106" width="112">
<polygon fill="#CFC172" points="112 69.4134 111.988 73.5859 56.1768 106 0 73.5864 0.0118125 69.4141 55.8232 37"></polygon>
<polygon fill="#000000" opacity="0.2" points="112 69 111.988 73.2196 56 106 56.0116 101.781"></polygon>
<polygon fill="#000000" opacity="0.1" points="56 101.781 55.9884 106 0 73.2195 0.0117729 69"></polygon>
<polygon fill="#E9D464" points="112 50.4135 111.988 54.5858 56.1768 87 0 54.5862 0.0118125 50.414 55.8232 18"></polygon>
<polygon fill="#000000" opacity="0.2" points="112 51 111.988 55.1054 56 87 56.0116 82.8946"></polygon>
<polygon fill="#000000" opacity="0.1" points="56 82.8946 55.9884 87 0 55.1054 0.0117729 51"></polygon>
<polygon fill="#FFEC87" points="112 32.4134 111.988 36.5857 56.1768 69 0 36.5866 0.0118125 32.4139 55.8232 0"></polygon>
<polygon fill="#000000" opacity="0.2" points="112 32 111.988 36.2194 56 69 56.0116 64.7806"></polygon>
<polygon fill="#000000" opacity="0.1" points="56 64.7805 55.9884 69 0 36.2199 0.0117729 32"></polygon>
</svg>