<svg fill="none" height="19" viewbox="0 0 19 19" width="19">
<path clip-rule="evenodd" d="M16.9718 9.13776C17.7818 8.87477 18.6597 9.30318 18.9227 10.1091C19.1856 10.9151 18.7573 11.7931 17.9515 12.0476L16.0261 12.6881L16.6919 14.6817C16.9506 15.4919 16.5265 16.3657 15.7165 16.6287C14.8131 16.8875 14.0158 16.3742 13.7656 15.6574L13.0998 13.6637L9.13021 14.9914L9.79604 16.985C10.0547 17.7952 9.63064 18.669 8.82061 18.932C7.91728 19.1907 7.11997 18.6775 6.86975 17.9606L6.20391 15.967C5.80795 16.0987 5.48367 16.2081 5.21587 16.2985C4.17283 16.6504 3.98633 16.7134 3.75686 16.6796C3.14191 16.6542 2.54393 16.2512 2.33188 15.6361C2.07318 14.8302 2.50152 13.9522 3.30731 13.6892L5.23272 13.0487L3.9477 9.23107C3.55174 9.36279 3.22747 9.47221 2.95967 9.56257C1.91662 9.91451 1.73011 9.97744 1.50064 9.94369C0.885699 9.91824 0.287717 9.51527 0.0756672 8.90022C-0.183034 8.09004 0.241066 7.21623 1.0511 6.95324L2.97227 6.31698L2.30643 4.32335C2.04773 3.51317 2.47183 2.63937 3.28186 2.37638C4.0919 2.11339 4.96978 2.5418 5.23272 3.34774L5.89856 5.34137L9.85966 4.01794L9.19382 2.02431C8.93512 1.21413 9.35922 0.340327 10.1693 0.0773372C10.9793 -0.185653 11.8572 0.242766 12.1201 1.0487L12.7859 3.04233L14.7114 2.40183C15.5214 2.13884 16.3993 2.56726 16.6622 3.37319C16.9209 4.18337 16.4968 5.05717 15.6868 5.32016L13.7614 5.96067L15.0464 9.77826L16.9718 9.13776ZM6.86127 8.28516L8.14629 12.1112L12.1116 10.7836L10.8266 6.95749L6.86127 8.28516Z" fill="#454545" fill-rule="evenodd"></path>
</svg>