<svg fill="none" height="57" viewbox="0 0 62 57" width="62">
<path d="M14.8 19H9.2C6.8844 19 5 20.8267 5 23.0714V36.6429C5 37.392 5.6258 38 6.4 38C7.1742 38 7.8 37.392 7.8 36.6429V32.5714H16.2V36.6429C16.2 37.392 16.8258 38 17.6 38C18.3742 38 19 37.392 19 36.6429V23.0714C19 20.8267 17.1156 19 14.8 19ZM16.2 29.8571H7.8V23.0714C7.8 22.3236 8.4272 21.7143 9.2 21.7143H14.8C15.5728 21.7143 16.2 22.3236 16.2 23.0714V29.8571Z" fill="black"></path>
<path d="M32.5 19H27.3C26.5811 19 26 19.608 26 20.3571V36.6429C26 37.392 26.5811 38 27.3 38C28.0189 38 28.6 37.392 28.6 36.6429V32.5714H32.5C36.0841 32.5714 39 29.5274 39 25.7857C39 22.0441 36.0841 19 32.5 19ZM32.5 29.8571H28.6V21.7143H32.5C34.6502 21.7143 36.4 23.541 36.4 25.7857C36.4 28.0304 34.6502 29.8571 32.5 29.8571Z" fill="black"></path>
<path d="M55.6 35.2857H51.4V21.7143H55.6C56.3742 21.7143 57 21.1063 57 20.3571C57 19.608 56.3742 19 55.6 19H44.4C43.6258 19 43 19.608 43 20.3571C43 21.1063 43.6258 21.7143 44.4 21.7143H48.6V35.2857H44.4C43.6258 35.2857 43 35.8937 43 36.6429C43 37.392 43.6258 38 44.4 38H55.6C56.3742 38 57 37.392 57 36.6429C57 35.8937 56.3742 35.2857 55.6 35.2857Z" fill="black"></path>
<path d="M57.9565 5.45476H36.9493L31.9529 0.399877C31.4259 -0.133292 30.5741 -0.133292 30.0471 0.399877L25.0507 5.45476H4.04348C1.81417 5.45476 0 7.29017 0 9.54558V13.6364C0 14.3891 0.602478 15 1.34783 15C2.09317 15 2.69565 14.3891 2.69565 13.6364V9.54558C2.69565 8.79423 3.29948 8.18197 4.04348 8.18197H25.6087C25.9672 8.18197 26.3096 8.03879 26.5616 7.78244L31 3.29208L35.4384 7.78244C35.6904 8.03879 36.0328 8.18197 36.3913 8.18197H57.9565C58.7005 8.18197 59.3043 8.79423 59.3043 9.54558V13.6364C59.3043 14.3891 59.9068 15 60.6522 15C61.3975 15 62 14.3891 62 13.6364V9.54558C62 7.29017 60.1858 5.45476 57.9565 5.45476Z" fill="black"></path>
<path d="M60.6522 42C59.9068 42 59.3043 42.6109 59.3043 43.3636V47.4545C59.3043 48.2059 58.7005 48.8182 57.9565 48.8182H36.3913C36.0328 48.8182 35.6904 48.9614 35.4384 49.2177L31 53.7082L26.5616 49.2177C26.3096 48.9614 25.9672 48.8182 25.6087 48.8182H4.04348C3.29948 48.8182 2.69565 48.2059 2.69565 47.4545V43.3636C2.69565 42.6109 2.09317 42 1.34783 42C0.602478 42 0 42.6109 0 43.3636V47.4545C0 49.71 1.81417 51.5455 4.04348 51.5455H25.0507L30.0471 56.6005C30.3099 56.8664 30.655 57 31 57C31.345 57 31.6901 56.8664 31.9529 56.6005L36.9493 51.5455H57.9565C60.1858 51.5455 62 49.71 62 47.4545V43.3636C62 42.6109 61.3975 42 60.6522 42Z" fill="black"></path>
</svg>