<svg fill="none" height="19" viewbox="0 0 19 19" width="19">
<path clip-rule="evenodd" d="M2.28119 4.5846C1.02187 4.5846 0 3.54129 0 2.2817C0 1.0221 1.02187 0 2.28119 0C3.5405 0 4.56237 1.0221 4.56237 2.2817C4.56237 3.54129 3.5405 4.5846 2.28119 4.5846ZM4.25285 19H0.313769V6.31496H4.25285V19ZM15.0652 19H18.9958H19V12.0319C19 8.6221 18.2665 5.99687 14.2807 5.99687C12.3642 5.99687 11.0794 7.04866 10.5537 8.04531H10.4985V6.31496H6.7206V19H10.6554V12.719C10.6554 11.065 10.9692 9.46607 13.0172 9.46607C15.0355 9.46607 15.0652 11.3533 15.0652 12.825V19Z" fill="#454545" fill-rule="evenodd"></path>
</svg>