<svg fill="none" height="47" viewbox="0 0 43 47" width="43">
<path d="M8.64817 9.24834C15.5061 3.02 25.7693 2.92476 32.7221 8.61027L27.2111 8.81979C26.4997 8.84836 25.9495 9.43881 25.978 10.1531C26.0064 10.8483 26.5756 11.3911 27.2585 11.3911C27.2775 11.3911 27.287 11.3911 27.3059 11.3911L35.7669 11.0768C36.4593 11.0483 37 10.4864 37 9.79118V9.69594C37 9.6769 37 9.66737 37 9.64833V9.6388L36.687 1.23911C36.6585 0.52485 36.0609 -0.0275102 35.359 0.00106014C34.6476 0.0296305 34.0975 0.620085 34.1259 1.33434L34.3251 6.60082C30.8819 3.77235 26.642 2.13432 22.1079 1.90575C16.4926 1.62005 11.0954 3.55331 6.93131 7.34365C1.20213 12.553 -1.22613 20.4765 0.595069 28.0191C0.73735 28.6095 1.25905 29 1.83766 29C1.94199 29 2.03685 28.9905 2.14119 28.9619C2.82414 28.7905 3.25098 28.0953 3.08024 27.4096C1.4867 20.7813 3.61142 13.8196 8.64817 9.24834Z" fill="black"></path>
<path d="M42.391 18.9807C42.2162 18.2949 41.5076 17.8664 40.8086 18.0378C40.1096 18.2092 39.6728 18.9045 39.8475 19.5902C41.4881 26.2188 39.3039 33.1808 34.149 37.7523C30.5279 40.9618 25.9846 42.5428 21.4607 42.5428C17.1407 42.5428 12.8304 41.1047 9.35497 38.2666L15.0632 37.7618C15.7816 37.6951 16.3155 37.0761 16.2476 36.3618C16.1796 35.6475 15.5486 35.1332 14.8205 35.1999L6.1902 35.9618C5.47181 36.0285 4.93788 36.6475 5.00583 37.3618L5.78246 45.8286C5.84071 46.4952 6.41348 47 7.08332 47C7.12215 47 7.16099 47 7.19982 46.9905C7.9182 46.9238 8.45214 46.3048 8.38418 45.5905L7.9182 40.438C11.4422 43.2381 15.7622 44.8666 20.3734 45.0952C20.7423 45.1143 21.1112 45.1238 21.4704 45.1238C26.8195 45.1238 31.9064 43.2 35.9061 39.6571C41.7697 34.4475 44.2549 26.5331 42.391 18.9807Z" fill="black"></path>
</svg>