<svg fill="none" height="19" viewbox="0 0 23 19" width="23">
<path clip-rule="evenodd" d="M20.2433 4.52581C20.2576 4.72443 20.2576 4.92309 20.2576 5.1217C20.2576 11.1798 15.6049 18.1601 7.10091 18.1601C4.48101 18.1601 2.04725 17.4081 0 16.1029C0.372239 16.1454 0.730111 16.1596 1.11667 16.1596C3.27841 16.1596 5.26841 15.4361 6.85753 14.2018C4.8246 14.1592 3.12095 12.8397 2.53397 11.0237C2.82032 11.0663 3.10663 11.0946 3.4073 11.0946C3.82246 11.0946 4.23767 11.0379 4.62418 10.9386C2.50537 10.5129 0.916209 8.66858 0.916209 6.44114V6.38441C1.53179 6.72491 2.24767 6.93772 3.00638 6.96607C1.76085 6.14317 0.944852 4.73862 0.944852 3.1496C0.944852 2.29837 1.17387 1.51805 1.57475 0.837044C3.85106 3.6178 7.27269 5.43378 11.1094 5.63244C11.0379 5.29193 10.9949 4.93728 10.9949 4.58258C10.9949 2.05717 13.0565 0 15.6191 0C16.9505 0 18.1531 0.553313 18.9977 1.44713C20.0428 1.24851 21.0449 0.86543 21.9326 0.340504C21.589 1.40459 20.8588 2.29841 19.8997 2.86587C20.8302 2.76661 21.7322 2.51118 22.5625 2.15652C21.9327 3.06449 21.1452 3.87315 20.2433 4.52581Z" fill="#454545" fill-rule="evenodd"></path>
</svg>