<svg fill="none" height="61" viewbox="0 0 61 61" width="61">
<path d="M59.033 0C58.352 0 57.804 0.551 57.804 1.23V7.327L48.592 12.138C47.313 10.482 45.315 9.409 43.067 9.409C39.21 9.409 36.073 12.551 36.073 16.412C36.073 18.821 37.294 20.95 39.147 22.211L36.089 29.106C35.552 28.974 34.994 28.896 34.418 28.896C30.562 28.896 27.425 32.039 27.425 35.902C27.425 36.478 27.503 37.037 27.635 37.574L20.751 40.638C19.492 38.781 17.367 37.558 14.961 37.558C11.107 37.558 7.97099 40.7 7.97099 44.562C7.97099 46.911 9.13399 48.986 10.909 50.257L7.31899 57.849H1.27899C0.599988 57.849 0.0499878 58.398 0.0499878 59.079C0.0499878 59.76 0.599988 60.309 1.27899 60.309H55.654C58.195 60.309 60.26 58.24 60.26 55.694V1.23C60.261 0.551 59.712 0 59.033 0ZM43.066 11.871C44.802 11.871 46.295 12.863 47.057 14.301C47.062 14.309 47.06 14.318 47.064 14.325C47.072 14.339 47.084 14.348 47.089 14.361C47.405 14.98 47.601 15.67 47.601 16.412C47.601 18.917 45.568 20.955 43.066 20.955C40.566 20.955 38.531 18.917 38.531 16.412C38.531 13.907 40.566 11.871 43.066 11.871ZM34.418 31.357C36.919 31.357 38.954 33.396 38.954 35.9C38.954 38.406 36.919 40.441 34.418 40.441C31.917 40.441 29.882 38.406 29.882 35.9C29.882 33.396 31.917 31.357 34.418 31.357ZM14.961 40.02C17.462 40.02 19.497 42.059 19.497 44.563C19.497 47.069 17.462 49.104 14.961 49.104C14.271 49.104 13.623 48.938 13.037 48.66C13.033 48.659 13.031 48.655 13.027 48.653C13.025 48.651 13.022 48.651 13.02 48.651C11.493 47.921 10.427 46.371 10.427 44.563C10.428 42.059 12.461 40.02 14.961 40.02ZM55.654 57.85H10.038L13.129 51.315C13.714 51.473 14.326 51.567 14.961 51.567C18.818 51.567 21.955 48.424 21.955 44.563C21.955 43.985 21.877 43.427 21.745 42.889L28.629 39.827C29.889 41.682 32.013 42.905 34.418 42.905C38.274 42.905 41.411 39.762 41.411 35.903C41.411 33.493 40.19 31.365 38.337 30.103L41.396 23.208C41.932 23.34 42.49 23.418 43.066 23.418C46.922 23.418 50.059 20.276 50.059 16.413C50.059 15.684 49.947 14.979 49.74 14.317L57.804 10.104V55.696C57.804 56.883 56.839 57.85 55.654 57.85Z" fill="black"></path>
</svg>