<svg height="90px" viewbox="0 0 501 90" width="501px"><g fill="none" fill-rule="evenodd" stroke="none" stroke-width="1"><path d="M56.4189046,87.5729775 L38.3482902,87.5729775 L20.4166806,22.9357798 L19.8606617,22.9357798 L19.8606617,87.5729775 L0.4,87.5729775 L0.4,0 L33.2051154,0 L48.63464,58.5209897 L49.0516542,58.5209897 L63.7861551,0 L95.8962469,0 L95.8962469,87.5729775 L74.7675285,87.5729775 L74.7675285,22.9357798 L74.2115096,22.9357798 L56.4189046,87.5729775 Z M109.51871,25.8548791 L129.535391,25.8548791 L129.535391,87.5729775 L109.51871,87.5729775 L109.51871,25.8548791 Z M109.379705,18.3486239 L109.379705,0 L129.8134,0 L129.8134,18.3486239 L109.379705,18.3486239 Z M187.361357,57.4089519 L187.361357,56.0189046 C187.361357,46.1495691 181.662163,39.8943564 173.460884,39.8943564 C163.869558,39.8943564 159.421407,46.705588 159.421407,56.7139283 C159.421407,66.8612733 163.869558,73.6725049 173.460884,73.6725049 C181.662163,73.6725049 187.361357,67.4172922 187.361357,57.4089519 Z M187.361357,87.5729775 L187.361357,76.5916041 C184.442257,83.8198499 177.214012,89.2410342 166.649652,89.2410342 C148.440033,89.2410342 139.126717,74.9235474 139.126717,56.7139283 C139.126717,38.6433139 148.440033,24.1868224 166.649652,24.1868224 C177.214012,24.1868224 184.442257,29.6080067 187.361357,36.9752572 L187.361357,0 L207.517042,0 L207.517042,87.5729775 L187.361357,87.5729775 Z M265.204003,57.4089519 L265.204003,56.0189046 C265.204003,46.1495691 259.50481,39.8943564 251.303531,39.8943564 C241.712205,39.8943564 237.264053,46.705588 237.264053,56.7139283 C237.264053,66.8612733 241.712205,73.6725049 251.303531,73.6725049 C259.50481,73.6725049 265.204003,67.4172922 265.204003,57.4089519 Z M265.204003,87.5729775 L265.204003,76.5916041 C262.284904,83.8198499 255.056658,89.2410342 244.492299,89.2410342 C226.28268,89.2410342 216.969363,74.9235474 216.969363,56.7139283 C216.969363,38.6433139 226.28268,24.1868224 244.492299,24.1868224 C255.056658,24.1868224 262.284904,29.6080067 265.204003,36.9752572 L265.204003,0 L285.359689,0 L285.359689,87.5729775 L265.204003,87.5729775 Z M342.490631,65.7492355 L358.615179,67.2782875 C355.418071,81.3177648 344.436697,89.2410342 328.312149,89.2410342 C308.712483,89.2410342 294.81201,77.2866277 294.81201,57.6869614 C294.81201,38.2262997 308.990492,24.1868224 327.895135,24.1868224 C348.32883,24.1868224 359.032193,38.2262997 359.032193,55.0458716 L359.032193,61.1620795 L314.550681,61.1620795 C315.1067,69.3633584 321.222908,74.089519 329.007173,74.089519 C335.957409,74.089519 340.266555,71.4484292 342.490631,65.7492355 Z M314.828691,50.4587156 L339.710537,50.4587156 C339.293522,44.3425076 335.40139,38.7823186 327.75613,38.7823186 C319.693856,38.7823186 315.940728,43.9254935 314.828691,50.4587156 Z M364.592383,67.4172922 L382.106978,67.000278 C382.941006,72.9774812 387.667167,76.3135947 395.173422,76.3135947 C400.594607,76.3135947 404.208729,74.3675285 404.208729,71.0314151 C404.208729,67.9733111 402.262663,66.3052544 397.258493,65.471226 L387.806172,63.942174 C373.62769,61.7180984 365.98243,56.852933 365.98243,44.6205171 C365.98243,32.6661106 376.407784,24.1868224 392.949347,24.1868224 C410.463942,24.1868224 420.889297,31.971087 422.140339,45.176536 L405.598777,45.7325549 C404.625744,40.3113706 400.316597,37.2532666 392.671337,37.2532666 C387.667167,37.2532666 384.609063,39.3383375 384.609063,42.6744509 C384.609063,45.176536 386.555129,46.705588 389.613233,47.1226022 L401.56764,49.2076731 C415.051098,51.292744 422.835363,57.2699472 422.835363,69.0853489 C422.835363,82.0127884 411.853989,89.2410342 395.034418,89.2410342 C378.35385,89.2410342 365.70442,82.4298026 364.592383,67.4172922 Z M452.304365,67.4172922 L452.304365,87.5729775 L432.287684,87.5729775 L432.287684,0 L452.304365,0 L452.304365,48.6516542 L475.657159,25.8548791 L499.426967,25.8548791 L473.433083,50.3197109 L500.4,87.5729775 L477.74223,87.5729775 L458.420573,61.440089 L452.304365,67.4172922 Z" fill="#4263EB"></path></g></svg>