<svg height="30.3" viewbox="0 0 166 30.3" width="166"><path d="M7.6 0h7.6v15.1H7.6C3.4 15.1 0 11.7 0 7.6 0 3.4 3.4 0 7.6 0z" fill="#2CD280"></path><path d="M15.2 0c8.4 0 15.2 6.8 15.2 15.1H15.2V0z" fill="#03A6A5"></path><path d="M15.2 15.1h15.2v7.5c0 4.2-3.4 7.6-7.6 7.6-4.2 0-7.6-3.4-7.6-7.6v-7.5z" fill="#57BEFF"></path><path d="M38.5 0C42.7 0 46 3.3 46 7.4c0 4.1-3.3 7.4-7.4 7.4h-.1c-4.1 0-7.4-3.3-7.4-7.4 0-4.1 3.3-7.4 7.4-7.4z" fill="#5B63FE"></path><path d="M63.7 23.2v2.2c-3.4.4-5.7-1.6-5.7-5.2v-6.8h-2v-2.2h2V8h2.4v3.1h3.3v2.2h-3.3v6.8c0 2.6 1.5 3.2 3.3 3.1zm2.2-6.3c0-4.3 3.1-6.5 7-6.1V13c-2.8-.2-4.6 1.1-4.6 3.8v8.6h-2.4v-8.5zm21.5-5.8v14.3h-2.3v-1.6c-1 1.2-2.5 1.9-4.2 1.9-3.6 0-5.6-2.5-5.6-6v-8.6h2.4v8.7c0 2.3 1.3 3.8 3.6 3.8 2.1 0 3.8-1.6 3.8-3.7v-8.8h2.3zm14.5 9.8h2.5c-1 3.1-3.5 4.8-6.9 4.8-4.2 0-7.5-3.3-7.5-7.5 0-4.1 3.3-7.5 7.3-7.5 3.8 0 7.4 3.1 7.4 8.1H92.6c.3 3 2.6 4.7 5 4.7 2.1.1 3.5-.9 4.3-2.6zm-9.2-4.2h9.4c-.6-2.3-2.6-3.9-4.7-3.9-1.9.1-4.1 1.5-4.7 3.9zm24.1-5.6l3.1 10.7 3.1-10.7h2.5l-4.4 14.3h-2.5l-3.1-10.9-3.1 10.9H110l-4.4-14.3h2.5l3.1 10.7 3.1-10.7h2.5zm16.9-.4c4.2 0 7.3 3.4 7.3 7.6 0 4.1-3.2 7.4-7.3 7.4s-7.3-3.3-7.3-7.4c-.1-4.2 3.1-7.6 7.3-7.6zm0 12.8c2.7 0 4.9-2.4 4.9-5.3 0-3-2.2-5.4-4.9-5.4s-4.9 2.4-4.9 5.4c0 3 2.2 5.3 4.9 5.3zm9.9-6.6c0-4.3 3.1-6.5 7-6.1V13c-2.8-.2-4.6 1.1-4.6 3.8v8.6h-2.4v-8.5zm16.3-.5l6.1 8.9h-2.9l-5-7.3-2.8 2.7v4.6h-2.4V4.7h2.4v12.8l6.6-6.4h3.5l-5.5 5.3z" fill="#2E3280"></path></svg>