<svg fill="currentColor" height="18" viewbox="0 0 128 18" width="128"><path clip-rule="evenodd" d="M40.082 0.00287451C41.9505 0.00780704 43.8218 0.00451868 45.6909 0.00397063C45.8134 0.0220566 45.9311 -0.0245285 45.9717 0.126188C46.0151 0.364046 45.9866 0.618894 45.9921 0.86004C45.9904 6.30501 45.9921 11.75 45.9915 17.1944C45.991 17.3473 45.9888 17.4997 45.986 17.652C44.5571 17.6729 43.1272 17.6488 41.6983 17.6652C41.7071 13.7077 41.6977 9.75012 41.7032 5.79258C41.7098 5.4473 41.7109 5.10695 41.6362 4.76716C41.3641 5.16998 41.3026 5.59528 41.1685 6.04907C40.5865 8.16896 39.9941 10.2867 39.4104 12.4055C39.0856 13.5378 38.7922 14.6788 38.4679 15.8117C38.28 16.4227 38.142 17.0475 37.9464 17.6564C36.9731 17.6646 35.9998 17.6559 35.0265 17.6614C34.8424 17.6619 34.6561 17.6701 34.4726 17.6548C34.4072 17.6482 34.3071 17.6323 34.2797 17.5627C34.195 17.3928 34.1522 17.1993 34.1011 17.0168C33.912 16.277 33.6724 15.5513 33.4927 14.8093C33.1948 13.712 32.8689 12.6219 32.5738 11.5242C32.3271 10.6769 32.1067 9.82246 31.8517 8.97735C31.6632 8.20349 31.423 7.44936 31.2224 6.68098C31.046 6.04852 30.8603 5.41825 30.6921 4.78415C30.6415 4.78086 30.5904 4.77757 30.5399 4.77373C30.4684 5.22972 30.5019 5.6583 30.4964 6.12141C30.4937 9.98249 30.5014 13.8436 30.4926 17.7047C29.2061 17.6975 27.9201 17.6992 26.6335 17.7036C26.5698 17.3084 26.5956 16.9341 26.5923 16.5345C26.5929 11.1082 26.5923 5.68132 26.5923 0.254982C26.5984 0.163456 26.5978 0.0872757 26.672 0.0209605C26.9248 -0.0130192 27.1869 0.00780704 27.4419 0.00506674C29.0906 0.00616286 30.7393 0.0056148 32.3881 0.00506674C32.642 0.00780704 32.9008 -0.0119231 33.1531 0.0176721C33.2366 0.0182202 33.2646 0.10865 33.2921 0.171677C33.3927 0.45612 33.4388 0.765226 33.5213 1.05679C33.8131 2.11071 34.0868 3.16628 34.3588 4.22513C34.6902 5.38537 34.976 6.55876 35.2925 7.72339C35.5338 8.58768 35.7454 9.45965 35.9822 10.325C36.08 10.729 36.2136 11.1186 36.2806 11.5275C36.3537 11.528 36.4268 11.5308 36.4999 11.5362C36.5873 11.294 36.656 11.0523 36.7093 10.8007C36.9214 9.94194 37.1402 9.07984 37.3594 8.22267C37.5254 7.63461 37.6474 7.03667 37.8178 6.4497C38.3003 4.51998 38.7927 2.59903 39.2736 0.668767C39.3209 0.461052 39.367 0.222098 39.478 0.0379503C39.6654 -0.0212401 39.8869 0.00780704 40.082 0.00287451Z" fill="#4263EB" fill-rule="evenodd"></path><path clip-rule="evenodd" d="M49.0791 0.00110191C48.9613 0.00372648 48.8411 0.00640177 48.7282 0.0430508C48.6865 0.185546 48.6837 0.326398 48.6826 0.473826C48.6881 1.37045 48.6876 2.26708 48.6826 3.16315L48.6827 3.16607C48.6854 3.32172 48.6879 3.46715 48.7486 3.61366C48.8761 3.66408 49.0085 3.67011 49.1443 3.66189C49.545 3.62652 49.9495 3.63021 50.3533 3.6339C50.5564 3.63575 50.7594 3.6376 50.9617 3.63449C51.2514 3.62945 51.5411 3.63285 51.8309 3.63626C52.1722 3.64026 52.5135 3.64427 52.8544 3.63449C52.8622 3.07796 52.8613 2.52143 52.8604 1.9649C52.8596 1.46697 52.8588 0.969025 52.8643 0.471085C52.8628 0.443293 52.8626 0.41353 52.8624 0.382832C52.8614 0.25493 52.8604 0.110815 52.7665 0.0255129C52.5994 -0.0035867 52.425 -0.00108336 52.2527 0.00139074C52.1881 0.00231822 52.1238 0.0032416 52.0603 0.00249442C51.0705 0.00468666 50.0802 0.00578278 49.0904 0.000850245C49.0866 0.000934814 49.0829 0.00101834 49.0791 0.00110191ZM52.0617 5.20254C51.0885 5.20637 50.1174 5.20528 49.1441 5.20254C49.1194 5.20445 49.0946 5.20537 49.0701 5.20628C48.9397 5.21111 48.8164 5.21568 48.7632 5.36696C48.7228 5.55342 48.7279 5.75263 48.733 5.94923C48.7355 6.04386 48.7379 6.13789 48.7352 6.2296C48.735 7.45697 48.7352 8.68757 48.7354 9.9191C48.7358 12.3836 48.7361 14.8518 48.7336 17.3053C48.7352 17.4188 48.75 17.5366 48.7995 17.6408C48.8775 17.6566 48.9567 17.6616 49.0364 17.6621C49.9408 17.6573 50.8453 17.6581 51.7497 17.6588C52.0829 17.6591 52.4161 17.6594 52.7493 17.6594C52.7494 17.2465 52.7495 16.8336 52.7496 16.4207C52.7506 12.7022 52.7517 8.9834 52.7487 5.26502C52.5179 5.22008 52.297 5.20035 52.0617 5.20254Z" fill="#4263EB" fill-rule="evenodd"></path><path clip-rule="evenodd" d="M67.7872 0.00344135C66.8337 0.00563359 65.8797 0.00563359 64.9256 0.00124912C64.9033 0.00305643 64.8792 0.0036997 64.8543 0.0043641C64.7584 0.00692332 64.6507 0.00979603 64.5887 0.0807178C64.5223 0.165016 64.5181 0.266094 64.514 0.368037C64.5133 0.384067 64.5127 0.400119 64.5118 0.41613C64.5151 1.70186 64.5146 2.98914 64.5142 4.27636C64.5139 5.15703 64.5137 6.03767 64.5145 6.91776C64.431 6.91557 64.348 6.91338 64.2645 6.91064C64.0051 6.42835 63.5957 6.01949 63.1637 5.68847C62.5998 5.29934 61.9035 4.97818 61.2105 4.94639C61.0503 4.94335 60.8926 4.93056 60.7355 4.91781C60.4677 4.8961 60.2016 4.87452 59.9273 4.90145C59.8011 4.91672 59.6767 4.92513 59.5532 4.93346C59.2867 4.95146 59.0248 4.96914 58.76 5.05491C58.1599 5.23303 57.4834 5.4676 57.0124 5.89234C56.432 6.3982 55.9308 6.97695 55.5984 7.67628C55.2071 8.52358 54.8922 9.40321 54.8174 10.3398C54.7751 10.7821 54.781 11.2294 54.7867 11.6748C54.7883 11.7969 54.7899 11.9188 54.7905 12.0405C54.8509 12.8111 54.9416 13.5992 55.2192 14.3242C55.5874 15.3376 56.1463 16.2583 56.9778 16.9588C57.5592 17.4548 58.3396 17.7332 59.0837 17.8642C59.1302 17.8741 59.1765 17.8844 59.2226 17.8947C59.4734 17.9506 59.7199 18.0055 59.9817 17.999C60.0747 17.9977 60.1693 17.9983 60.2647 17.9989C60.5873 18.001 60.9188 18.0031 61.2237 17.9338C61.3222 17.9126 61.4194 17.8941 61.5157 17.8758C61.8239 17.8171 62.1222 17.7602 62.4196 17.6258C62.9395 17.3928 63.428 17.0415 63.8221 16.6321C63.9169 16.5322 63.9913 16.4251 64.0647 16.3197C64.1864 16.1446 64.3051 15.9739 64.5085 15.8484C64.5178 16.1135 64.516 16.3802 64.5142 16.647C64.512 16.9819 64.5098 17.3171 64.5294 17.6499C65.194 17.6626 65.8592 17.6607 66.5243 17.6589C67.0372 17.6575 67.55 17.6561 68.0626 17.6614C68.0884 17.6615 68.1145 17.6617 68.1406 17.6619C68.2792 17.6632 68.4206 17.6645 68.5561 17.6433C68.6525 17.499 68.6468 17.2917 68.6417 17.1025C68.6399 17.0372 68.6382 16.9742 68.6407 16.9166C68.6378 13.3847 68.6383 9.85261 68.6387 6.3206C68.639 4.55482 68.6392 2.78907 68.6391 1.02338C68.6364 0.932683 68.6387 0.839891 68.641 0.746551C68.6459 0.549418 68.6508 0.34984 68.6094 0.162379C68.5896 0.0659202 68.5352 0.0357769 68.4434 0.0171428C68.2875 -0.00348222 68.1276 -0.00085631 67.9686 0.00175369C67.9079 0.0027501 67.8473 0.0037442 67.7872 0.00344135ZM62.0195 8.03706C61.9978 8.03285 61.9761 8.02865 61.9546 8.02444C61.6365 7.97066 61.3587 8.03871 61.0627 8.11121C61.0057 8.12515 60.9482 8.13925 60.8895 8.15268C60.5086 8.2464 60.1542 8.41959 59.8712 8.69307C59.4661 9.07233 59.2271 9.55407 59.0441 10.0692C58.9069 10.4526 58.9088 10.8772 58.9107 11.2873C58.9111 11.375 58.9115 11.4621 58.9105 11.5479C58.9072 12.0225 58.9083 12.4747 59.0875 12.9235C59.3095 13.5664 59.6903 14.1326 60.2778 14.4932C60.5686 14.6538 60.9076 14.7941 61.244 14.8045C61.5199 14.8171 61.7968 14.8154 62.0733 14.8083C62.5943 14.805 63.1032 14.5617 63.4785 14.2098C63.6555 14.0443 63.8374 13.8728 63.9786 13.6749C64.3902 13.0381 64.5568 12.2999 64.5117 11.5463C64.5121 11.5101 64.5125 11.474 64.5129 11.4382C64.5183 10.9784 64.5233 10.5447 64.3908 10.0917C64.2682 9.71575 64.1078 9.36225 63.8506 9.05808C63.562 8.7287 63.251 8.43932 62.8438 8.26339C62.5864 8.14699 62.2973 8.09093 62.0195 8.03706Z" fill="#4263EB" fill-rule="evenodd"></path><path clip-rule="evenodd" d="M83.2292 0.0039845C82.4037 0.00506552 81.5779 0.00614696 80.7525 0.000827205C80.7303 0.00184858 80.7076 0.00230364 80.6847 0.00276272C80.5723 0.00501337 80.4552 0.00736078 80.3634 0.0770075C80.309 0.234849 80.3052 0.417901 80.3019 0.583415C80.3059 2.1078 80.3049 3.63265 80.3038 5.15711C80.3037 5.29554 80.3036 5.43398 80.3035 5.5724C80.3011 5.73893 80.3074 5.90427 80.3137 6.0693C80.3246 6.35399 80.3354 6.63775 80.3013 6.92502C80.2644 6.92237 80.2275 6.91984 80.1906 6.91733C80.1512 6.91464 80.1119 6.91195 80.0727 6.90912C79.8056 6.44766 79.4281 6.04812 79.0066 5.72312C78.3641 5.27864 77.6359 4.9372 76.838 4.94049C76.7888 4.93692 76.7398 4.93322 76.6909 4.92953C76.2669 4.89749 75.8534 4.86625 75.4261 4.93063C74.7331 4.93939 74.089 5.14821 73.4653 5.43539C72.9267 5.68037 72.481 6.13745 72.0914 6.57316C71.8325 6.85706 71.6264 7.17657 71.4555 7.51966C71.0296 8.35764 70.7152 9.28551 70.635 10.2249C70.6276 10.2804 70.6196 10.3357 70.6117 10.3908C70.5799 10.6103 70.5485 10.8277 70.5564 11.0525C70.5589 11.1818 70.5577 11.31 70.5566 11.4373C70.5536 11.7529 70.5507 12.0629 70.6048 12.3694C70.6256 12.505 70.6387 12.6392 70.6517 12.7726C70.6744 13.0051 70.6969 13.2355 70.7598 13.4667C71.0027 14.4088 71.372 15.3536 71.9809 16.1231C72.376 16.6339 72.8767 17.1222 73.4631 17.4083C73.856 17.5996 74.2759 17.7525 74.7067 17.8325C74.8097 17.8511 74.9102 17.8733 75.01 17.8954C75.2542 17.9494 75.4938 18.0025 75.7537 17.9986C75.8464 17.9976 75.9409 17.9983 76.036 17.999C76.3767 18.0016 76.7276 18.0043 77.0507 17.9306C77.1369 17.912 77.224 17.8953 77.3113 17.8786C77.5011 17.8422 77.6917 17.8057 77.875 17.7486C78.5098 17.5415 79.0819 17.1737 79.5462 16.6969C79.6591 16.5817 79.7566 16.4558 79.8539 16.3299C79.9835 16.1624 80.1129 15.9952 80.2783 15.854C80.3343 16.1627 80.3244 16.4703 80.3144 16.7785C80.3051 17.0657 80.2958 17.3535 80.3398 17.6434C80.5864 17.6609 80.8321 17.6605 81.0784 17.66C81.1176 17.6599 81.1568 17.6599 81.196 17.6599C82.0572 17.6582 82.9178 17.6582 83.779 17.6599C83.9928 17.661 84.206 17.6566 84.4198 17.6412C84.4583 17.2939 84.456 16.9491 84.4536 16.6023C84.4529 16.4883 84.4521 16.3741 84.4528 16.2596C84.453 14.082 84.4529 11.9044 84.4529 9.72691C84.4528 6.82567 84.4527 3.9245 84.4533 1.02351C84.4521 0.944734 84.4535 0.86459 84.455 0.783961C84.4587 0.57625 84.4625 0.365323 84.4209 0.166341C84.4094 0.0731711 84.3566 0.0369992 84.2692 0.0183651C84.1069 -0.0037826 83.9403 -0.000920995 83.7746 0.00192454C83.7025 0.00316305 83.6305 0.00439852 83.5592 0.0035675C83.4492 0.00369639 83.3392 0.00384044 83.2292 0.0039845ZM79.4672 8.88554C79.1853 8.60657 78.8473 8.33912 78.4736 8.19663C77.968 8.03111 77.4657 7.92753 76.9392 8.07386C76.488 8.15059 76.0923 8.32652 75.7499 8.63233C75.3059 9.01324 75.0531 9.51033 74.8552 10.0502C74.6997 10.5385 74.6695 11.0383 74.6799 11.5464C74.6651 12.2852 74.8432 13.0201 75.2312 13.6526C75.4411 13.9633 75.7126 14.2532 76.0264 14.4609C76.3534 14.6539 76.7419 14.8079 77.1266 14.8084C77.1865 14.8091 77.247 14.8103 77.3077 14.8115C77.6069 14.8174 77.9139 14.8234 78.2049 14.7651C78.6698 14.6413 79.104 14.4187 79.4381 14.068C79.8036 13.7227 80.0245 13.2585 80.1883 12.791C80.3127 12.4241 80.3084 12.0655 80.304 11.6897C80.3034 11.6422 80.3029 11.5944 80.3026 11.5464C80.3012 11.4362 80.303 11.3282 80.3048 11.2218C80.3109 10.8569 80.3167 10.509 80.1938 10.145C80.0355 9.69776 79.8135 9.21931 79.4672 8.88554Z" fill="#4263EB" fill-rule="evenodd"></path><path clip-rule="evenodd" d="M93.6204 4.90554C93.2731 4.86827 92.9203 4.86937 92.573 4.90499C92.447 4.91914 92.3225 4.9247 92.1987 4.93022C91.9773 4.94009 91.758 4.94988 91.5359 5.00857C90.8094 5.18505 90.0372 5.43168 89.4184 5.85916C89.3523 5.90374 89.2865 5.94725 89.2212 5.99045C88.901 6.20219 88.5925 6.40615 88.3182 6.68838C87.9319 7.05667 87.6098 7.47923 87.3163 7.92316C86.9465 8.49862 86.7409 9.12176 86.5678 9.77834C86.4578 10.1596 86.4251 10.5745 86.3938 10.971L86.392 10.9939C86.391 11.0594 86.3899 11.1245 86.3889 11.1895C86.3769 11.9128 86.3654 12.6059 86.5354 13.3221C86.6827 13.9622 86.9432 14.5772 87.2641 15.1488C87.5631 15.6075 87.917 16.0597 88.3556 16.3934C88.8639 16.7886 89.3706 17.1525 89.9702 17.4008C90.4516 17.5948 90.955 17.7625 91.4722 17.825C91.6192 17.8429 91.7621 17.87 91.9041 17.8969C92.1601 17.9454 92.4132 17.9933 92.6829 17.9866C92.832 17.9834 92.9826 17.9852 93.1335 17.987C93.4647 17.9909 93.7977 17.9948 94.1216 17.9455C94.3169 17.9043 94.5091 17.8743 94.6994 17.8446C95.0705 17.7867 95.4348 17.7299 95.8028 17.5926C96.3952 17.3695 96.9552 17.0544 97.463 16.6773C97.8867 16.36 98.1978 15.9621 98.5 15.5335C98.8969 14.9908 99.0985 14.2691 99.2779 13.6273L99.2815 13.6142C98.9391 13.538 98.5957 13.4728 98.2467 13.4366C98.0948 13.4234 97.9436 13.4206 97.7924 13.4179C97.5749 13.4139 97.3578 13.41 97.1399 13.3747C97.0719 13.3638 97.0007 13.3503 96.9276 13.3366C96.6386 13.2821 96.3196 13.2221 96.049 13.2859C95.9559 13.3631 95.891 13.48 95.8298 13.5903C95.8119 13.6226 95.7943 13.6543 95.7764 13.6844C95.578 14.0444 95.2829 14.3481 94.9174 14.5404C94.6177 14.6986 94.2733 14.7959 93.9457 14.8884C93.9327 14.8921 93.9197 14.8957 93.9068 14.8994C93.6496 14.9723 93.3885 14.9783 93.1231 14.9679C92.8493 14.9582 92.5691 14.8662 92.3052 14.7795C92.2729 14.7689 92.2409 14.7584 92.2091 14.7481C91.8464 14.6111 91.4925 14.4199 91.1968 14.1683C90.805 13.8071 90.5165 13.3259 90.3967 12.8064C90.3582 12.6474 90.3708 12.4912 90.3884 12.3307C90.6039 12.306 90.8187 12.2841 91.0358 12.2846C92.475 12.2864 93.9142 12.2862 95.3534 12.2861C96.5527 12.2859 97.752 12.2858 98.9512 12.2868C99.1029 12.2868 99.2546 12.283 99.4063 12.2775C99.4037 12.0244 99.4047 11.7712 99.4057 11.518C99.4066 11.2859 99.4076 11.0538 99.4057 10.8218C99.3964 10.5915 99.3627 10.3626 99.3291 10.1336C99.3094 9.99973 99.2897 9.86585 99.2749 9.73175C99.1628 9.00557 98.8507 8.28707 98.4962 7.64693C98.0928 6.90048 97.4509 6.26692 96.7645 5.77531C96.1495 5.38235 95.4241 5.13846 94.7108 4.99652C94.4903 4.9477 94.2715 4.93993 94.0516 4.93213C93.9086 4.92705 93.7651 4.92195 93.6204 4.90554ZM95.007 8.84449C94.7399 8.41426 94.3376 8.10132 93.86 7.93416C93.4022 7.74947 92.8895 7.72097 92.4136 7.85305C92.0695 7.95389 91.748 8.05693 91.4683 8.29204C90.9248 8.74091 90.6005 9.36898 90.4241 10.042C90.5862 10.1017 90.7473 10.1483 90.922 10.1467C92.2976 10.1428 93.6743 10.1417 95.0504 10.1472C95.0765 10.1452 95.1025 10.1446 95.1283 10.1439C95.229 10.1414 95.3252 10.1391 95.4005 10.0557C95.4604 9.62986 95.2257 9.1947 95.007 8.84449Z" fill="#4263EB" fill-rule="evenodd"></path><path clip-rule="evenodd" d="M105.299 4.91281C105.61 4.9161 105.907 4.85417 106.215 4.88815C106.652 4.92761 107.104 4.89527 107.541 4.92158C107.821 4.93802 108.084 5.00927 108.359 5.05147C108.914 5.13039 109.458 5.35016 109.947 5.61652C110.307 5.81711 110.644 6.02208 110.931 6.32078C111.2 6.60248 111.442 6.91378 111.641 7.24809C111.959 7.78519 112.094 8.42533 112.143 9.04134C111.874 9.0819 111.598 9.12849 111.326 9.13397C110.49 9.14548 109.654 9.14219 108.818 9.14712C108.703 8.7717 108.566 8.42423 108.277 8.14582C107.847 7.73587 107.264 7.57857 106.696 7.46567C106.187 7.36976 105.674 7.46184 105.205 7.6701C104.947 7.79122 104.719 7.97318 104.595 8.23405C104.48 8.50699 104.522 8.83637 104.73 9.05505C104.979 9.34935 105.334 9.41951 105.692 9.50446C106.027 9.5894 106.371 9.57844 106.707 9.65517C107.09 9.74341 107.479 9.78616 107.863 9.86234C108.97 10.0279 110.091 10.3375 111.001 11.0122C111.522 11.3832 111.871 11.9159 112.1 12.504C112.232 12.8443 112.226 13.1688 112.298 13.5239C112.347 13.7618 112.354 13.9985 112.308 14.2375C112.251 14.5351 112.218 14.8524 112.115 15.1369C111.968 15.5413 111.799 15.9211 111.508 16.2456C111.028 16.8123 110.407 17.1636 109.732 17.4524C109.51 17.5407 109.281 17.5993 109.048 17.6464C109.189 17.6382 109.331 17.6316 109.472 17.6278C108.838 17.7418 108.202 17.8443 107.566 17.9473C107.118 17.9868 106.664 17.955 106.215 17.967C105.759 17.9829 105.342 17.8563 104.894 17.8065C103.926 17.6903 102.994 17.3209 102.177 16.7964C101.782 16.5432 101.508 16.2017 101.225 15.8356C100.874 15.3846 100.663 14.8223 100.602 14.2567C100.576 14.0364 100.533 13.8188 100.507 13.5985C101.35 13.5453 102.199 13.593 103.043 13.5623C103.364 13.5343 103.684 13.5015 104.006 13.4987C104.117 13.7782 104.205 14.0939 104.371 14.3422C104.533 14.5943 104.757 14.7998 105.019 14.945C105.397 15.1511 105.775 15.3188 106.215 15.3232C106.752 15.3254 107.312 15.3862 107.809 15.1544C108.1 15.0371 108.418 14.8354 108.489 14.5082C108.527 14.249 108.528 13.9284 108.347 13.7179C108.189 13.5245 107.916 13.4094 107.69 13.3129C107.439 13.205 107.204 13.1507 106.93 13.1392C106.614 13.1282 106.323 13.029 106.015 12.9786C105.249 12.8942 104.472 12.7665 103.732 12.55C103.088 12.3483 102.48 12.0792 101.931 11.6835C101.403 11.3092 101.061 10.6806 100.903 10.0651C100.766 9.61023 100.82 9.15699 100.809 8.66647C100.8 8.29215 100.905 7.94961 101.027 7.6005C101.114 7.35825 101.223 7.12588 101.38 6.91926C101.608 6.61673 101.842 6.3131 102.145 6.08127C102.812 5.56007 103.611 5.18739 104.442 5.01913C104.726 4.9446 105.005 4.91281 105.299 4.91281Z" fill="#4263EB" fill-rule="evenodd"></path><path clip-rule="evenodd" d="M114.881 0.000927991C116.006 0.0118892 117.132 -0.0105813 118.257 0.0129853C118.262 2.83385 118.258 5.65526 118.259 8.47612C118.263 8.88004 118.234 9.25382 118.303 9.65226C118.618 9.53388 118.823 9.30479 119.048 9.06803C119.799 8.31938 120.562 7.58059 121.312 6.8303C121.647 6.48831 122.018 6.18523 122.351 5.8405C122.535 5.66238 122.709 5.45303 122.923 5.30998C123.088 5.20311 123.262 5.20311 123.452 5.20092C124.424 5.20695 125.396 5.20311 126.368 5.20421C126.834 5.20695 127.296 5.19051 127.762 5.22942C127.634 5.43823 127.471 5.61525 127.292 5.78077C126.662 6.35623 126.05 6.95197 125.414 7.52085C124.546 8.31938 123.7 9.14092 122.838 9.94657C122.765 10.0282 122.65 10.1335 122.715 10.2518C122.831 10.4968 123.033 10.7056 123.188 10.9287C123.657 11.5897 124.142 12.2407 124.616 12.899C124.95 13.3851 125.319 13.8449 125.66 14.3256C125.989 14.7991 126.347 15.2518 126.675 15.727C127.113 16.3523 127.611 16.9464 127.998 17.6041C127.811 17.6534 127.607 17.6589 127.413 17.6605C126.388 17.6556 125.361 17.6583 124.335 17.6583C124.079 17.6556 123.82 17.6731 123.564 17.6506C123.438 17.6474 123.366 17.5449 123.288 17.4599C123.091 17.2155 122.923 16.9491 122.733 16.6992C121.83 15.4968 120.944 14.2861 120.038 13.0864C119.895 12.9077 119.743 12.5614 119.505 12.5082C119.304 12.5948 119.141 12.8003 118.985 12.951C118.78 13.1653 118.54 13.3533 118.354 13.584C118.24 13.7216 118.262 13.897 118.256 14.0647C118.266 15.2573 118.252 16.4504 118.263 17.643C118.016 17.66 117.768 17.6589 117.52 17.6589C116.438 17.6578 115.357 17.6572 114.275 17.6594C114.26 17.5043 114.249 17.3487 114.247 17.1919C114.247 11.5814 114.249 5.97039 114.246 0.359359C114.25 0.242622 114.265 0.131366 114.322 0.0272349C114.502 -0.0105813 114.698 0.00257217 114.881 0.000927991Z" fill="#4263EB" fill-rule="evenodd"></path><path clip-rule="evenodd" d="M17.7155 0H4.83159V3.20482H4.83154V12.8678H4.83159V12.8678H17.7155V0ZM4.83159 12.8678H12.884V3.20482H4.83159V12.8678Z" fill="#4263EB" fill-rule="evenodd"></path><path clip-rule="evenodd" d="M12.8839 4.81543H0V17.6833H12.8839V14.4784H4.8315V4.81548H12.8839V4.81543Z" fill="#4263EB" fill-rule="evenodd"></path></svg>