<svg height="80px" viewbox="0 0 725 725" width="80px"><g fill="none" fill-rule="evenodd" stroke="none" stroke-width="1"><g fill-rule="nonzero"><g><path d="M198.123123,230.483781 L198.123123,329.545579 L198.123123,1.98951966e-13 L725,1.98951966e-13 L725,527.669173 L198.123123,527.669173 L198.123123,329.545579 L198.123123,527.669173 L527.421171,527.669173 L527.421171,131.421984 L198.123123,131.421984 L198.123123,230.483781 L198.123123,329.545579 L198.123123,1.98951966e-13 L725,1.98951966e-13 L725,527.669173 L198.123123,527.669173 L198.123123,329.545579 L198.123123,527.669173 L527.421171,527.669173 L527.421171,131.421984 L198.123123,131.421984 L198.123123,230.483781 Z" fill="#4263EB"></path><path d="M526.876877,395.454421 L526.876877,197.330827 L197.578829,197.330827 L197.578829,593.578016 L526.876877,593.578016 L526.876877,395.454421 L526.876877,725 L-1.42108547e-13,725 L-1.42108547e-13,197.330827 L526.876877,197.330827 L526.876877,395.454421 Z" fill="#4263EB"></path></g></g></g></svg>