<svg height="29.333333333333332px" viewbox="0 0 676 176" width="110px"><defs><lineargradient id="midtype-logo-combined_svg__a" x1="75.448%" x2="24.624%" y1="5.095%" y2="93.82%"><stop offset="0%" stop-color="#5F49D7"></stop><stop offset="100%" stop-color="#3123AE"></stop></lineargradient></defs><g fill="none" fill-rule="evenodd"><path d="M0 0h676v176H0z"></path><text fill="#3123AE" font-family="neue-haas-grotesk-display, NHaasGroteskDSPro-65Md, Neue Haas Grotesk Display Pro" font-size="127.059" font-weight="500" transform="translate(182)"><tspan font-weight="600" x="21.304" y="130.706">Midtype</tspan></text><g transform="translate(1)"><circle class="circle__holes" cx="88.529" cy="88.529" fill="#FFF" r="76.765"></circle><path class="circle__shape" d="M88.53 172.353c-46.295 0-83.824-37.53-83.824-83.824S42.235 4.706 88.529 4.706c46.295 0 83.824 37.529 83.824 83.823 0 46.295-37.53 83.824-83.824 83.824zM74.758 43.029l-45.347 78.543 7.574 4.373 45.346-78.543-7.573-4.373zM92.43 53.232l-32.39 56.102 7.573 4.373 32.39-56.102-7.573-4.373zm16.41 9.474L63.494 141.25l7.574 4.373 45.346-78.543-7.573-4.373zm30.628-12.237L94.122 129.01l7.574 4.373 45.347-78.543-7.574-4.372z" fill="url(#midtype-logo-combined_svg__a)"></path></g></g></svg>