<svg class="container__serverless" height="250px" viewbox="0 0 346 288" width="100%"><defs><lineargradient id="serverless-illustration_svg__a" x1="50%" x2="50%" y1="100%" y2="0%"><stop offset="0%" stop-color="gray" stop-opacity="0.25"></stop><stop offset="54%" stop-color="gray" stop-opacity="0.12"></stop><stop offset="100%" stop-color="gray" stop-opacity="0.1"></stop></lineargradient><lineargradient id="serverless-illustration_svg__b" x1="50%" x2="50%" y1="100%" y2="0%"><stop offset="0%" stop-color="gray" stop-opacity="0.25"></stop><stop offset="54%" stop-color="gray" stop-opacity="0.12"></stop><stop offset="100%" stop-color="gray" stop-opacity="0.1"></stop></lineargradient><lineargradient id="serverless-illustration_svg__c" x1="50%" x2="50%" y1="100%" y2=".003%"><stop offset="0%" stop-color="gray" stop-opacity="0.25"></stop><stop offset="54%" stop-color="gray" stop-opacity="0.12"></stop><stop offset="100%" stop-color="gray" stop-opacity="0.1"></stop></lineargradient><lineargradient id="serverless-illustration_svg__d" x1="50%" x2="50%" y1="100.013%" y2="-.017%"><stop offset="0%" stop-color="gray" stop-opacity="0.25"></stop><stop offset="54%" stop-color="gray" stop-opacity="0.12"></stop><stop offset="100%" stop-color="gray" stop-opacity="0.1"></stop></lineargradient><lineargradient id="serverless-illustration_svg__e" x1="50%" x2="50%" y1="100.004%" y2="0%"><stop offset="0%" stop-color="gray" stop-opacity="0.25"></stop><stop offset="54%" stop-color="gray" stop-opacity="0.12"></stop><stop offset="100%" stop-color="gray" stop-opacity="0.1"></stop></lineargradient></defs><g fill="none" fill-rule="evenodd"><path d="M0 0h164.21v183.234H0z" fill="url(#serverless-illustration_svg__a)" fill-rule="nonzero" opacity="0.8" transform="translate(181.79)"></path><path d="M184.503 122.338h158.78v56.905h-158.78z" fill="#FFF" fill-rule="nonzero"></path><path d="M197.536 135.835h6.153v29.16h-6.153z" fill="#64FFDA" fill-rule="nonzero"></path><path d="M209.682 135.835h6.153v29.16h-6.153z" fill="#64FFDA" fill-rule="nonzero" opacity="0.7"></path><path d="M221.832 135.835h6.153v29.16h-6.153z" fill="#64FFDA" fill-rule="nonzero" opacity="0.6"></path><path d="M233.978 135.835h6.153v29.16h-6.153zM246.123 135.835h6.153v29.16h-6.153z" fill="#64FFDA" fill-rule="nonzero" opacity="0.5"></path><path d="M258.27 135.835h6.153v29.16h-6.153z" fill="#64FFDA" fill-rule="nonzero" opacity="0.4"></path><path d="M270.42 135.835h6.153v29.16h-6.153z" fill="#64FFDA" fill-rule="nonzero" opacity="0.3"></path><ellipse cx="320.805" cy="150.227" fill="#6C63FF" fill-rule="nonzero" rx="14.847" ry="14.843"></ellipse><path d="M184.503 63.216h158.78v56.905h-158.78z" fill="#FFF" fill-rule="nonzero"></path><path d="M197.536 76.713h6.153v29.16h-6.153z" fill="#64FFDA" fill-rule="nonzero"></path><path d="M209.682 76.713h6.153v29.16h-6.153z" fill="#64FFDA" fill-rule="nonzero" opacity="0.7"></path><path d="M221.832 76.713h6.153v29.16h-6.153z" fill="#64FFDA" fill-rule="nonzero" opacity="0.6"></path><path d="M233.978 76.713h6.153v29.16h-6.153zM246.123 76.713h6.153v29.16h-6.153z" fill="#64FFDA" fill-rule="nonzero" opacity="0.5"></path><path d="M258.27 76.713h6.153v29.16h-6.153z" fill="#64FFDA" fill-rule="nonzero" opacity="0.4"></path><path d="M270.42 76.713h6.153v29.16h-6.153z" fill="#64FFDA" fill-rule="nonzero" opacity="0.3"></path><ellipse cx="320.805" cy="91.109" fill="#6C63FF" fill-rule="nonzero" rx="14.847" ry="14.843"></ellipse><path d="M184.503 4.094h158.78v56.905h-158.78z" fill="#FFF" fill-rule="nonzero"></path><path d="M197.536 17.596h6.153v29.16h-6.153z" fill="#64FFDA" fill-rule="nonzero"></path><path d="M209.682 17.596h6.153v29.16h-6.153z" fill="#64FFDA" fill-rule="nonzero" opacity="0.7"></path><path d="M221.832 17.596h6.153v29.16h-6.153z" fill="#64FFDA" fill-rule="nonzero" opacity="0.6"></path><path d="M233.978 17.596h6.153v29.16h-6.153zM246.123 17.596h6.153v29.16h-6.153z" fill="#64FFDA" fill-rule="nonzero" opacity="0.5"></path><path d="M258.27 17.596h6.153v29.16h-6.153z" fill="#64FFDA" fill-rule="nonzero" opacity="0.4"></path><path d="M270.42 17.596h6.153v29.16h-6.153z" fill="#64FFDA" fill-rule="nonzero" opacity="0.3"></path><ellipse cx="320.805" cy="31.988" fill="url(#serverless-illustration_svg__b)" fill-rule="nonzero" rx="16.005" ry="16.002"></ellipse><ellipse cx="320.805" cy="91.505" fill="url(#serverless-illustration_svg__b)" fill-rule="nonzero" rx="16.005" ry="16.002"></ellipse><ellipse cx="320.805" cy="150.623" fill="url(#serverless-illustration_svg__b)" fill-rule="nonzero" rx="16.005" ry="16.002"></ellipse><ellipse cx="320.805" cy="31.988" fill="#6C63FF" fill-rule="nonzero" rx="14.847" ry="14.843"></ellipse><path d="M219.798 146.744H.028V6.467A6.31 6.31 0 0 1 6.341.156h207.14a6.312 6.312 0 0 1 6.313 6.311l.004 140.277z" fill="url(#serverless-illustration_svg__c)" fill-rule="nonzero" opacity="0.8" transform="translate(13.185 131.018)"></path><path d="M22.554 133.754H223.64a6.312 6.312 0 0 1 6.313 6.311v137.697H16.241V140.065a6.312 6.312 0 0 1 6.313-6.31z" fill="#FFF" fill-rule="nonzero"></path><path d="M23.121 142.131h199.953v131.118H23.121z" fill="#F5F5F5" fill-rule="nonzero"></path><path d="M23.888 148.498h199.106v117.964H23.888z" fill="#E0E0E0" fill-rule="nonzero" opacity="0.8"></path><path d="M23.888 142.23h199.106v6.267H23.888z" fill="#F5F5F5" fill-rule="nonzero"></path><ellipse cx="28.155" cy="145.266" fill="#FF5252" fill-rule="nonzero" rx="1.518" ry="1.518"></ellipse><ellipse cx="32.335" cy="145.266" fill="#FF0" fill-rule="nonzero" rx="1.518" ry="1.518"></ellipse><ellipse cx="36.518" cy="145.266" fill="#69F0AE" fill-rule="nonzero" rx="1.518" ry="1.518"></ellipse><path d="M239.132 23.551c-12.234.927-222.327.556-229.67 0C-.165 18.914 0 .923 0 .923L96.349.28l.323 5.476h41.249l1.598-4.833h106.788s2.122 16.509-7.175 22.628z" fill="url(#serverless-illustration_svg__d)" fill-rule="nonzero" opacity="0.8" transform="translate(0 263.634)"></path><path d="M244.741 266.007H140.038a3.195 3.195 0 0 1-2.441 5.316H97.643a3.196 3.196 0 0 1-2.441-5.316H1.45s-.16 15.626 9.346 19.652c7.251.484 214.775.8 226.857 0 9.186-5.316 7.088-19.652 7.088-19.652z" fill="#F5F5F5" fill-rule="nonzero"></path><ellipse cx="23.201" cy="269.386" fill="#E0E0E0" fill-rule="nonzero" rx="1.291" ry="1.29"></ellipse><ellipse cx="27.069" cy="269.386" fill="#E0E0E0" fill-rule="nonzero" rx="1.291" ry="1.29"></ellipse><ellipse cx="30.936" cy="269.386" fill="#E0E0E0" fill-rule="nonzero" rx="1.291" ry="1.29"></ellipse><path d="M38.975.148L.195 24.007s0 49.211 38.78 76.05c38.78-26.843 38.78-76.05 38.78-76.05L38.974.147z" fill="url(#serverless-illustration_svg__e)" fill-rule="nonzero" opacity="0.7" transform="translate(77.91 152.988)"></path><path d="M116.885 155.951l-36.578 22.517s0 46.44 36.598 71.768c36.598-25.328 36.598-71.768 36.598-71.768l-36.618-22.517z" fill="#6C63FF" fill-rule="nonzero"></path><path d="M117.508 155.951l-.627.4v93.47l.627.44c36.598-25.33 36.598-71.769 36.598-71.769l-36.598-22.54z" fill="#000" fill-rule="nonzero" opacity="0.05"></path><path d="M116.885 161.392l-32.363 19.916s0 41.08 32.363 63.488c32.362-22.409 32.362-63.488 32.362-63.488l-32.362-19.916z" fill="#6C63FF" fill-rule="nonzero"></path><path d="M116.885 161.548v83.388c32.362-22.41 32.362-63.488 32.362-63.488l-32.362-19.9z" fill="#000" fill-rule="nonzero" opacity="0.08"></path><path d="M95.49 122.382V39.697h68.32" stroke="#3AD29F" stroke-dasharray="4.8" stroke-width="0.8"></path><path d="M74.314 97.217V14.532h68.321M286.07 190.687v64.71h-35.96" stroke="#3AD29F" stroke-dasharray="4.8" stroke-width="0.8"></path><path d="M307.644 205.067v64.71h-35.958" stroke="#3AD29F" stroke-dasharray="4.8" stroke-width="0.8"></path></g></svg>