<svg data-bbox="7 5.999 16 18.001" data-type="shape" height="30" preserveaspectratio="xMidYMid meet" role="img" viewbox="0 0 30 30" width="30" xmlns="http://www.w3.org/2000/svg">
<g>
<defs>
<filter height="200%" id="4e358e3c-c4cc-411c-8da6-747bbbb99bfa" width="200%" x="-50%" y="-50%">
<feoffset in="SourceAlpha" result="out-offset"></feoffset>
<fegaussianblur in="out-offset" result="out-blur" stddeviation="2"></fegaussianblur>
<fecolormatrix in="out-blur" result="out-matrix" values="0 0 0 0 0 0 0 0 0 0 0 0 0 0 0 0 0 0 0.4 0"></fecolormatrix>
<femerge>
<femergenode in="out-matrix"></femergenode>
<femergenode in="SourceGraphic"></femergenode>
</femerge>
</filter>
</defs>
<path d="M23 6.616a.625.625 0 0 0-.727-.609l-10.241 1.54a.62.62 0 0 0-.535.609l-.006 10.016c0 .892-.276 1.319-1.971 1.319C7.646 19.49 7 20.631 7 21.748 7 22.655 7.507 24 9.516 24c2.249 0 3.236-1.44 3.236-2.713l.006-9.719 8.98-1.454v6.87c-.045.763-.401 1.13-1.973 1.13-1.874 0-2.52 1.141-2.52 2.258 0 .907.507 2.252 2.516 2.252 2.249 0 3.236-1.44 3.236-2.713L23 6.616z" filter="url(#4e358e3c-c4cc-411c-8da6-747bbbb99bfa)"></path>
</g>
</svg>