<svg _ngcontent-sc4="" class="menu-logo__logo" viewbox="0 0 680 129"><g _ngcontent-sc4="" class="ng-tns-c4-0" fill="none" fill-rule="evenodd" id="logo/full/white" stroke="none" stroke-width="1"><g _ngcontent-sc4="" class="ng-tns-c4-0" fill="#FFFFFF" fill-rule="nonzero" id="final-logo-cmyk"><path _ngcontent-sc4="" class="ng-tns-c4-0" d="M189.73,52.8 C183.2,36.57 174.6,19.57 156.94,13.37 C152.06,11.66 147.52,12.01 142.53,11.47 C138.9,11.07 135.22,9.31 131.8,8.1 C119.64,3.79 107.38,-0.51 94.29,0.83 C69.85,3.33 46.23,18.92 27.38,33.76 C21.83,38.13 16.5,42.76 11.43,47.67 C7.58,51.4 2.81,55.58 1.11,60.87 C-1.38,68.62 0.88,78.41 2.58,86.1 C4.34,94.05 6.09,101.12 12.75,106.27 C19.7,111.64 28.25,114.18 36.54,112.7 C38.02,114.21 40.08,115.15 42.35,115.15 C46.85,115.15 50.49,111.5 50.49,107.01 C50.49,102.51 46.84,98.87 42.35,98.87 C38.29,98.87 34.93,101.85 34.32,105.74 C26.67,106.68 17.92,103.55 13.57,97.29 C10.97,93.55 10.06,86.84 9.13,82.3 C7.97,76.59 6.11,68.92 7.94,63.16 C9.31,58.87 14.08,55.13 17.21,52.13 C21.15,48.36 25.24,44.74 29.46,41.29 C46.03,27.78 66.46,14.14 87.54,9.25 C99.32,6.51 110,8.47 121.31,12.14 C128.07,14.34 135.33,18.29 142.52,18.71 C151.59,19.24 158.8,20.66 165.8,26.96 C171.48,32.08 175.64,38.65 178.91,45.51 C182.34,52.7 185.7,60.59 187.7,68.3 C188.72,72.21 189.44,76.71 187.87,80.58 C185.66,86.01 179.96,88.59 174.74,90.29 C166.13,93.1 157.84,94.74 150.56,100.5 C146.66,103.58 143.57,107.83 138.96,109.85 C135.37,111.42 131.44,112.22 127.69,113.31 C121.21,115.2 114.74,117.11 108.18,118.7 C101.86,120.23 94.71,122.28 88.15,121.64 C83.45,121.18 78.78,117.79 74.59,115.75 C71.12,114.06 62.62,111.81 62.46,107.34 C62.23,100.94 68.48,92.94 71.86,87.92 C73.44,85.58 75.03,83.1 76.92,80.99 C80.16,77.38 84.47,77.28 89.01,76.92 C101.27,75.95 112.84,72.59 123.71,66.82 C124.17,66.58 124.51,66.28 124.79,65.95 C125.82,66.41 126.96,66.68 128.16,66.68 C132.7,66.68 136.4,62.98 136.4,58.44 C136.4,53.9 132.7,50.2 128.16,50.2 C123.62,50.2 119.92,53.9 119.92,58.44 C119.92,59.16 120.02,59.86 120.2,60.53 C120.16,60.55 120.11,60.56 120.07,60.58 C113.74,63.94 107.1,66.51 100.1,68.08 C93.89,69.48 87.53,69.28 81.33,70.53 C73.96,72.02 70.26,77.52 66.27,83.32 C61.99,89.55 57.31,96.64 55.69,104.14 C53.54,114.04 61.23,117.25 69.05,121.06 C77.83,125.34 84.48,129.66 94.37,128.6 C103.2,127.65 111.88,125.35 120.41,122.96 C128.01,120.83 136.76,119.28 143.74,115.61 C148.51,113.1 151.75,108.55 156.04,105.37 C161.29,101.48 167.28,100.01 173.44,98.23 C182.64,95.57 192.53,91.29 195.26,81.17 C197.86,71.51 193.26,61.56 189.73,52.8 Z M128.16,54.12 C130.53,54.12 132.46,56.05 132.46,58.42 C132.46,60.79 130.53,62.72 128.16,62.72 C125.79,62.72 123.86,60.79 123.86,58.42 C123.86,56.05 125.79,54.12 128.16,54.12 Z" id="Shape"></path><g _ngcontent-sc4="" class="ng-tns-c4-0" id="Group" transform="translate(220.000000, 43.000000)"><path _ngcontent-sc4="" class="ng-tns-c4-0" d="M22.08,47.84 L0.35,47.84 L0.35,0.08 L20.89,0.08 C31.24,0.08 38,4.22 38,12.98 C38,18.31 34.9,21.97 30.28,23.57 L30.28,23.97 C35.69,25.4 39.59,28.91 39.59,34.8 C39.59,43.94 32.19,47.84 22.08,47.84 Z M20.88,4.3 L4.88,4.3 L4.88,21.65 L21.44,21.65 C28.68,21.49 33.3,18.63 33.3,13.13 C33.3,6.69 28.21,4.3 20.88,4.3 Z M4.88,25.95 L4.88,43.62 L22.15,43.62 C29.23,43.62 34.97,40.99 34.97,34.55 C34.97,28.9 29.64,26.19 22.95,25.95 L4.88,25.95 L4.88,25.95 Z" id="Shape"></path><path _ngcontent-sc4="" class="ng-tns-c4-0" d="M65.06,0.08 L84.09,0.08 C96.03,0.08 103.03,5.49 103.03,15.84 C103.03,23.96 98.33,28.89 91.25,30.73 L91.25,31.05 L104.15,46.73 L104.15,47.84 L99.29,47.84 L85.84,31.6 L69.6,31.6 L69.6,47.84 L65.06,47.84 L65.06,0.08 Z M84.09,4.3 L69.6,4.3 L69.6,27.38 L84.88,27.38 C92.6,27.38 98.41,23.88 98.41,16 C98.41,7.96 92.68,4.3 84.09,4.3 Z" id="Shape"></path><path _ngcontent-sc4="" class="ng-tns-c4-0" d="M146.41,0.08 L147.52,0.08 L170.84,47.84 L165.67,47.84 L161.13,38.77 L132.87,38.77 L128.33,47.84 L123.24,47.84 L146.41,0.08 Z M147.29,9.32 L146.65,9.32 L135.51,33.6 L135.03,34.48 L158.99,34.48 L158.51,33.6 L147.29,9.32 Z" id="Shape"></path><polygon _ngcontent-sc4="" class="ng-tns-c4-0" id="Path" points="198.71 47.84 194.17 47.84 194.17 0.08 198.71 0.08"></polygon><polygon _ngcontent-sc4="" class="ng-tns-c4-0" id="Path" points="270.03 47.84 268.6 47.84 233.42 9.79 233.42 47.84 228.88 47.84 228.88 0.08 230.31 0.08 265.49 38.05 265.49 0.08 270.03 0.08"></polygon></g><path _ngcontent-sc4="" class="ng-tns-c4-0" d="M523.99,67.36 L547.95,43.08 L557.5,43.08 L557.5,44.04 L538.63,63.22 L557.5,89.81 L557.5,90.84 L548.19,90.84 L532.99,68.95 L524,78.18 L524,90.84 L516.12,90.84 L516.12,43.08 L524,43.08 L524,67.36 L523.99,67.36 Z M605.83,70.54 L588.54,70.54 L588.54,83.83 L616.88,83.83 L616.88,90.83 L580.66,90.83 L580.66,43.07 L616.88,43.07 L616.88,50.07 L588.54,50.07 L588.54,63.84 L605.83,63.84 L605.83,70.54 Z M670.93,43.08 L680,43.08 L661.77,72.61 L661.77,90.84 L653.89,90.84 L653.89,72.61 L635.74,43.08 L644.89,43.08 L656.19,61.79 L657.46,64.58 L658.34,64.58 L659.69,61.79 L670.93,43.08 Z" id="Shape"></path></g></g></svg>