<svg data-bbox="34.5 44 131 112" data-type="color" height="200" preserveaspectratio="xMidYMid meet" role="img" viewbox="34.5 44 131 112" width="200" xmlns="http://www.w3.org/2000/svg">
<g>
<path d="M130.522 91.747c0 2.828-2.282 5.122-5.105 5.122a5.11 5.11 0 0 1-5.108-5.122c0-2.84 2.28-5.135 5.108-5.135 2.823 0 5.105 2.296 5.105 5.135z" data-color="1" fill="#2F54DD"></path>
<path d="M152.267 83.564c-2.803-4.865-6.69-9.817-10.958-13.963 2.683-4.835 5.609-12.685 2.456-20.504L141.706 44l-4.37 3.314c-13.411 10.17-21.904 11.544-28.444 11.544-4.181 0-8.444-.66-12.957-1.354-5.455-.844-11.639-1.797-18.946-1.797-25.229 0-40.652 19.79-42.087 34.08-.646 6.491-2.585 25.919 14.978 42.849V156h90.561v-23.865c5.079-3.697 9.126-8.667 12.065-14.825H165.5V83.564h-13.233zm4.825 25.304h-10.148l-1.065 2.627c-2.65 6.534-6.648 11.522-11.878 14.827l-1.965 1.242v19.996H99.281v-6.975h-8.408v6.975H58.288v-18.64l-1.391-1.258c-14.244-12.875-14.601-27.304-13.629-37.033.896-8.944 12.038-26.476 33.721-26.476 6.665 0 12.261.862 17.672 1.694 4.838.747 9.406 1.452 14.231 1.452 9.42 0 17.984-2.782 27.711-9.143-.566 4.151-2.875 7.944-4.154 9.774l-2.188 3.139 2.899 2.491c5.121 4.399 10.048 10.584 12.863 16.138l1.168 2.309h9.901v16.861z" data-color="1" fill="#2F54DD"></path>
</g>
</svg>