<svg data-bbox="16.5 15.5 167.001 169.15" data-type="color" height="200" preserveaspectratio="xMidYMid meet" role="img" viewbox="16.5 15.5 167.001 169.15" width="200" xmlns="http://www.w3.org/2000/svg">
<g>
<path d="M168.3 15.5H30.8c-8 0-14.3 6.6-14.3 14.6v106.1c0 8 6.3 13.6 14.3 13.6h33.3c8 0 17.5 6.4 21.1 13.6l7.8 15.8c3.6 7.2 9.5 7.3 13 .1l7.8-16c3.6-7.2 13.1-13.4 21.1-13.4h33.3c8 0 15.3-5.6 15.3-13.6V30.1c.1-8-7.2-14.6-15.2-14.6zM125.6 65c4.3 0 7.8 3.5 7.8 7.8s-3.5 7.8-7.8 7.8-7.8-3.5-7.8-7.8 3.5-7.8 7.8-7.8zm-52.1 0c4.3 0 7.8 3.5 7.8 7.8s-3.5 7.8-7.8 7.8-7.8-3.5-7.8-7.8 3.5-7.8 7.8-7.8zm70.4 35.4c-13 10.2-27.4 15.3-42.9 15.3-6 0-12.2-.8-18.3-2.3-16.4-4.3-27.4-12.6-27.9-13-2.1-1.6-2.4-4.5-.9-6.6.9-1.2 2.2-1.9 3.7-1.9 1 0 2 .3 2.8.9.1.1 10.2 7.6 24.7 11.4 5.5 1.4 10.8 2.1 16 2.1 13.1 0 26.1-3.8 36.9-13.3 1.3-1.2 4.6-2.4 7.1 1 2.5 3.5-1.2 6.4-1.2 6.4z" data-color="1" fill="#f7ae0d"></path>
</g>
</svg>