<svg data-bbox="18.975 17 162.019 166.029" data-type="color" height="200" preserveaspectratio="xMidYMid meet" role="img" viewbox="18.975 17 162.019 166.029" width="200" xmlns="http://www.w3.org/2000/svg">
<g>
<path d="M173.8 57c-14.5-27-52.6-40-79-40S45.1 32.6 36.5 44.5 23.2 70.6 20.3 85c-3.2 16.9-2.2 57.2 21.4 77.8C67 185 94.5 185 116.9 181c32.7-5.8 54.5-38.3 61.6-70.6 3.8-17.9 4-37.4-4.7-53.4zm-28.9 35.8L113 104.4c-.4 1.4-1 2.7-1.9 4-2.3 3.1-6.1 5.1-10.1 5.1-1.4 0-2.9-.3-4.3-.8-4.5-1.6-8-5.6-8.9-10.1-.9-3.9.4-7.9 3.4-10.8 1.8-1.8 4.3-3 6.7-3.5l21.7-49.6c1-2.3 3-3.8 5.4-3.8 2.3 0 4.7 1.3 6 3.4 1.3 1.9 1.6 4.4.5 6.6L110.9 92c.1.1.4.1.5.3l28.9-10.5c.6-.3 1.4-.4 2.1-.4 3 0 5.6 2.2 6.1 5.2.3 2.9-1 5.2-3.6 6.2z" data-color="1" fill="#C45F66"></path>
</g>
</svg>