<svg data-bbox="26.001 36.501 148 126.999" data-type="color" height="200" preserveaspectratio="xMidYMid meet" role="img" viewbox="26.001 36.501 148 126.999" width="200" xmlns="http://www.w3.org/2000/svg">
<g>
<path d="M173.989 102.39l-.05-.944-1.099-1.057-25.776-42.482-3.907.056v-.056h-39.852V52.07l.173-.056c2.908-1.223 4.956-4.115 4.956-7.451 0-4.448-3.634-8.062-8.116-8.062-4.488 0-8.121 3.614-8.121 8.062 0 3.337 2.043 6.228 4.956 7.451l.296.111v5.782H55.7l-3.628.056-25.078 42.705-.854.779-.039.723-.1.167.089.054v.167c0 15.903 12.977 28.86 28.974 28.86 15.991 0 28.974-12.956 28.974-28.86l-.005-.167-.056-.944-1.1-1.057-22.243-36.644H97.45l.005 80.181H64.792c-2.707 0-4.873 2.224-4.873 4.838v9.897c0 2.669 2.166 4.838 4.873 4.838h71.131c2.69 0 4.878-2.169 4.878-4.838v-9.897c0-2.67-2.188-4.838-4.878-4.838h-32.618V63.746h35.331l-21.667 36.865-.865.834-.039.723-.1.167.089.054v.167c0 15.903 12.977 28.86 28.968 28.86 15.997 0 28.979-12.956 28.979-28.86l-.012-.166zM75 98.666H34.93l19.708-33.529L75 98.666zm49.894 0l19.708-33.529 20.356 33.529h-40.064z" data-color="1" fill="#106f9a"></path>
</g>
</svg>