<svg class="css-1py9dd6 e12e31bw0" height="111" viewbox="0 0 600 111" xmlns="http://www.w3.org/2000/svg"><g fill="none" fill-rule="evenodd"><path d="m93.9903509 80.9032677c-6.2964913-.8416771-13.3385965-1.665-20.5701755-1.3416142l-1.6692982-14.8171889h-17.0587719l-2.1228071-19.3987796h17.0596492l-1.7464913-15.9569055c7.0649123-.4064173 14.0947369.164315 20.5631579.8373071l1.654386 15.1195984h17.059649l2.122807 19.3987796h-17.059649z" fill="#fff" stroke="#fff"></path><path d="m93.9903509 80.9032677c-6.2964913-.8416771-13.3385965-1.665-20.5701755-1.3416142l-1.6692982-14.8171889h-17.0587719l-2.1228071-19.3987796h17.0596492l-1.7464913-15.9569055c7.0649123-.4064173 14.0947369.164315 20.5631579.8373071l1.654386 15.1195984h17.059649l2.122807 19.3987796h-17.059649zm68.5877191 15.4429843-26.950877-40.0316693 13.959649-46.88307876c.354386-1.1877874-.751754-2.29516536-1.945614-1.95080315-27.178947 7.82506301-45.872807 3.63240941-64.7008771-2.60718898-17.2745614-5.72480315-48.2780702-7.2980315-70.4561404 3.17966929-.7368421.34873229-1.1649123 1.13447244-1.0789473 1.94381103l1.3114035 12.43811807c-3.69385968.9622914-7.3412281 2.0661733-10.92105266 3.3186378-.51929825.1817953-.84561404.6983386-.78947369 1.2454725l.82368421 7.991126c.05526316.5392677.60526316.8775118 1.11578948.6887244 3.53157894-1.3040315 7.14210526-2.4498662 10.80438596-3.4471181l5.3078947 50.3144645c-3.7052631.9640394-7.3631579 2.0705433-10.95438593 3.3238819-.58333333.2045197-.94912281.7848662-.88596491 1.3984252l.80350877 7.7935984c.05964912.5812205.65263158.9456851 1.20263158.7420394 3.55263159-1.3110236 7.18333329-2.4612283 10.86754389-3.4619764l1.6815789 15.9472912c.1429825 1.352103 1.6061404 2.130851 2.8157895 1.500685 22.354386-11.6462596 53.3491228-8.891362 68.3622807-3.47159 20.5657898 7.423015 46.2263158 6.595322 68.8526318-6.6617484 1.164912-.6826063 1.52807-2.1929055.774561-3.3107716z" fill="#ff3c00"></path><path d="m202.946491 84.2594882c8.786842 0 12.516667-6.2763071 12.516667-14.7822284 0-7.8442913-2.984211-14.0384409-12.019298-14.0384409h-5.221053v28.4090079c1.409649.2464724 3.066667.4116614 4.723684.4116614zm-4.723684-56.7341102v26.0133307h4.972807c7.957018-.0830315 10.692105-6.8540315 10.692105-13.2133701 0-7.101378-2.735087-13.1312126-11.10614-13.1312126-1.740351 0-3.149123.165189-4.558772.331252zm17.073684 26.7571181c11.023684 1.9822677 15.5 8.0103543 15.5 15.5251417 0 9.6622441-6.714035 16.1037402-22.959649 16.1037402h-27.765789v-.164315c2.404386-5.8637717 3.315789-9.2488347 3.315789-17.260063v-25.6016693c0-8.0933858-.911403-11.3962913-3.315789-17.259189v-.166063c4.061403 0 24.53421-.0821574 26.771052-.0821574 16.245614-.0830315 21.135965 6.1932756 21.135965 13.8741259 0 6.1111182-2.900877 12.3874252-12.681579 15.0304489zm35.803509-.330378c3.481579-3.552 7.542982-10.0747795 14.671053-9.5800866l-1.492983 13.874126h-.414035c-2.07193-2.8073386-6.547368-4.8717638-8.619298-4.8717638-1.242983 0-2.652632.9911339-3.813158 2.3939291v15.6090473c0 6.8540315.663158 10.323 1.989474 14.3696929v.164315h-17.322807v-.164315c1.326315-4.0466929 1.989473-7.3504724 1.989473-14.3696929v-9.3327402c0-6.1111181-1.160526-9.6622441-4.143859-13.1303386v-.1651889l17.15614-4.7904804zm105.220175-8.2585748v.165189c-2.817543 3.1385905-4.724561 5.5325197-7.707894 12.4695827l-11.852632 28.1607874h-3.232456l-11.437719-28.2429449c-2.900878-7.1844095-4.309649-9.9926221-6.548246-12.3874252v-.165189h20.638597v.165189c-1.492106 1.8992362-2.072807 7.1852834 0 12.3052677l5.055263 13.1303386 5.222807-12.3874252c2.651754-6.1941496.82807-11.3141339-.498246-13.0481811v-.165189zm24.61579 14.3696929v-3.1385905c0-7.7621339-2.07193-11.0659134-5.305263-11.0659134-4.308772 0-6.464035 6.8540315-6.464035 14.3688189zm-4.807018-15.6912047c11.603509 0 17.902632 9.1666772 17.736842 17.5904409l-24.699122-.0830315c.414912 12.1400788 6.215789 15.9385512 13.510526 15.9385512 5.718421 0 9.2-2.3108976 10.691228-3.9636614l.414912.2473465c-2.238596 7.7638819-8.537719 13.0490551-17.985965 13.0490551-12.515789 0-20.14035-9.0853937-20.14035-20.646 0-12.9660236 8.950877-22.1327008 20.471929-22.1327008zm73.914035 40.8785905c10.028948 0 15.582457-8.1755433 22.792983-20.8103149l.828947.2473464-1.657894 16.2680552c-2.155264 1.4867007-10.111404 6.1950236-22.046492 6.1950236-19.31228 0-33.983333-12.8008347-33.983333-30.7207795 0-17.9208189 14.588596-32.2083544 34.646491-32.2083544 9.364912 0 15.913158 1.6527638 21.052632 3.0555591l1.657017 15.1956378-.82807.2482204c-8.951754-12.0579212-14.007895-16.6001811-22.295614-16.6001811-13.592982 0-18.235088 12.3882993-18.235088 30.3091182 0 18.0029763 6.381579 28.8206692 18.068421 28.8206692zm95.520176-31.2985039c3.480702-3.552 7.542982-10.0747795 14.670175-9.5800866l-1.492982 13.874126h-.413158c-2.072807-2.8073386-6.548246-4.8717638-8.619298-4.8717638-1.24386 0-2.653509.9911339-3.814035 2.3939291v15.6090473c0 6.8540315.664035 10.323 1.989473 14.3696929v.164315h-17.322807v-.164315c1.326316-4.0466929 1.989474-7.3504724 1.989474-14.3696929v-9.3327402c0-6.1111181-1.160526-9.6622441-4.144737-13.1303386v-.1651889l17.157895-4.7904804zm36.964035-8.0933858c-4.309649 0-6.464912 6.8540315-6.464912 14.3688189l11.769298-.164315v-3.1385905c0-7.7621339-2.07193-11.0659134-5.304386-11.0659134zm7.045614 31.9592598c5.717544 0 9.199123-2.3108976 10.690351-3.9636614l.415789.2473465c-2.238596 7.7638819-8.536842 13.0490551-17.985965 13.0490551-12.514912 0-20.141228-9.0853937-20.141228-20.646 0-12.9660236 8.951755-22.1327008 20.472807-22.1327008 11.604386 0 17.902632 9.1666772 17.736843 17.5904409l-24.699123-.0830315c.414035 12.1400788 6.215789 15.9385512 13.510526 15.9385512zm-80.62193-10.4444882v-13.0079763c-.23421-1.7812441-.645614-3.2793071-1.203509-4.4985591-.223684-.4868268-.471052-.9299528-.74035-1.3285039-.269299-.3976772-.55965-.7516536-.869299-1.0601811-.310526-.3094016-.641228-.5733544-.988596-.7944804-.869298-.5506299-1.850877-.8250708-2.913158-.8250708-1.578947 0-3.02193.5646142-4.258772 1.7165669-.988597.9212126-1.846491 2.218252-2.537719 3.9033543-1.208772 2.9480552-1.906141 7.0830237-1.906141 12.4660867 0 11.3141338 3.149123 16.4341181 8.702632 16.4341181.68421 0 1.357017-.0725433 2.005263-.2088898.098246-.0218504.190351-.053315.288597-.0769134.221929-.055063.444736-.1066299.660526-.1756771.189474-.0620552.369298-.1389686.551754-.2115119.114913-.0445748.235088-.0821574.347369-.1319763.176315-.0786615.341228-.1721811.508772-.2604567.108772-.0576851.223684-.107504.32807-.1678111.467544-.2744409.889473-.5943307 1.271052-.9430629.055264-.050693.117544-.0952678.171053-.1468347.155263-.1520787.292983-.3163937.430702-.4807087.048245-.056811.104386-.1092519.15-.166937 0-.000874.000877-.001748.000877-.001748v-9.6604961zm13.34386 0v4.046693c0 6.8557795.662281 10.323 1.988596 14.3696929v.1651889h-15.335965l.001755-6.8129527c-2.487719 4.1288504-7.045614 8.0086063-13.592105 8.0086063-9.449123 0-15.582457-8.0112284-15.582457-19.4075197 0-12.1392047 6.962281-23.3703071 22.628071-23.3703071 6.132456 0 11.437719 1.6510158 14.752631 3.551126l4.807018-3.386811h.332456zm-224.92807 0v-13.0079763c-.186842-1.4255197-.48772-2.6683701-.886842-3.7337953-.399123-1.0645512-.896492-1.9499292-1.476316-2.6570079-.290351-.3531024-.600877-.6625039-.930702-.9264567-.988596-.7944803-2.146491-1.1895354-3.420175-1.1895354h-.000878c-1.895614 0-3.592982.8128346-4.975438 2.4778346-.690351.832937-1.301755 1.8782599-1.820176 3.1420866-.345614.8425512-.649122 1.7812441-.90614 2.8187008-.644737 2.5940788-1.000877 5.8025906-1.000877 9.6473859 0 5.6575039.787719 9.7653779 2.269298 12.4599685 1.481579 2.6937165 3.657018 3.9741496 6.433333 3.9741496h.000878c.026315 0 .051754-.0043701.07807-.0043701.314912-.0026221.628947-.0166063.937719-.0498189.171053-.0174803.336842-.052441.50614-.0786614.160527-.0262205.323685-.0428268.481579-.0760394.234211-.0498189.459649-.1171181.685965-.1826693.086842-.0253464.17807-.0419527.264035-.0699212 1.544737-.499063 2.878948-1.3765749 3.760527-2.5110473zm13.343859 0v4.046693c0 6.8557795.661404 10.323 1.988597 14.3696929v.1651889h-15.335965l.001754-6.8129527c-2.487719 4.1288504-7.046491 8.0086063-13.592105 8.0086063-9.449123 0-15.582456-8.0112284-15.582456-19.4075197 0-12.1392047 6.963158-23.3703071 22.62807-23.3703071 6.133333 0 11.437719 1.6510158 14.752632 3.551126l4.807894-3.386811h.331579z" fill="#fff"></path></g></svg>