<svg xmlns="http://www.w3.org/2000/svg"><symbol id="icon-analysts" viewbox="0 0 80 93"><g fill-rule="evenodd"><path d="M39.824 91l-.145-.084L1.25 68.729V24.188l.145-.084L39.824 1.917l38.574 22.271V68.73l-.145.084L39.824 91zM1.831 68.394l37.993 21.935 37.993-21.935v-43.87L39.824 2.588 1.831 24.523v43.871z" stroke="#000" stroke-width="2"></path><path d="M39.669 90.955a.294.294 0 0 1-.206-.084.293.293 0 0 1 0-.412.3.3 0 0 1 .41 0 .296.296 0 0 1 .087.206.296.296 0 0 1-.087.206.296.296 0 0 1-.204.084zm-.841-1.16a.294.294 0 0 1 .108-.398.293.293 0 0 1 .398.108.292.292 0 0 1-.108.398.297.297 0 0 1-.145.038.297.297 0 0 1-.253-.146zm-.584-1.015a.285.285 0 0 1 .105-.395.29.29 0 0 1 .29.503.29.29 0 0 1-.395-.108zm-.587-1.015a.293.293 0 0 1 .107-.398.292.292 0 1 1 .291.506.291.291 0 0 1-.398-.108zm-.588-1.015a.292.292 0 1 1 .506-.291.294.294 0 0 1-.108.398.292.292 0 0 1-.398-.107zm-.585-1.012a.288.288 0 0 1 .105-.398.29.29 0 1 1 .29.503.29.29 0 0 1-.395-.105zm-.587-1.018a.288.288 0 0 1 .108-.395.29.29 0 0 1 .396.105.292.292 0 0 1-.105.398.288.288 0 0 1-.399-.108zm-.588-1.012a.292.292 0 0 1 .108-.398.293.293 0 0 1 .398.108.29.29 0 0 1-.108.395.3.3 0 0 1-.145.041.297.297 0 0 1-.253-.146zm-.584-1.015a.29.29 0 1 1 .503-.29.287.287 0 0 1-.108.396.289.289 0 0 1-.145.041.293.293 0 0 1-.25-.147zm-.588-1.015a.29.29 0 1 1 .504-.29.29.29 0 0 1-.105.396.271.271 0 0 1-.145.041.301.301 0 0 1-.254-.147zm-.587-1.015a.293.293 0 0 1 .108-.398.29.29 0 0 1 .395.107.289.289 0 0 1-.105.398.295.295 0 0 1-.398-.107zm-.585-1.015a.29.29 0 0 1 .105-.398.292.292 0 0 1 .398.108.29.29 0 0 1-.108.398.293.293 0 0 1-.395-.108zm-.587-1.015a.29.29 0 0 1 .108-.396.286.286 0 0 1 .395.105.29.29 0 0 1-.105.398.292.292 0 0 1-.398-.107zm-.585-1.015a.285.285 0 0 1 .105-.395.289.289 0 0 1 .398.105.292.292 0 0 1-.108.398.293.293 0 0 1-.395-.108zm-.587-1.015a.286.286 0 0 1 .105-.395.292.292 0 0 1 .398.105.292.292 0 0 1-.105.398.297.297 0 0 1-.145.038.285.285 0 0 1-.253-.146zm-.588-1.015a.291.291 0 0 1 .108-.396.286.286 0 0 1 .395.108.287.287 0 0 1-.105.396.3.3 0 0 1-.145.041.294.294 0 0 1-.253-.149zm-.584-1.012a.29.29 0 0 1 .503-.29.29.29 0 0 1-.108.396.3.3 0 0 1-.145.041.293.293 0 0 1-.25-.147zm-.588-1.015a.292.292 0 0 1 .105-.398.294.294 0 0 1 .398.108.29.29 0 0 1-.105.396.3.3 0 0 1-.145.041.297.297 0 0 1-.253-.147zm-.587-1.015a.29.29 0 1 1 .503-.29.285.285 0 0 1-.105.395.269.269 0 0 1-.145.041.295.295 0 0 1-.253-.146zm-.585-1.015a.29.29 0 0 1 .105-.398.293.293 0 0 1 .398.108.29.29 0 0 1-.108.395.271.271 0 0 1-.145.041.293.293 0 0 1-.25-.146zm-.587-1.015a.292.292 0 0 1 .105-.398.293.293 0 0 1 .398.108.292.292 0 0 1-.105.398.291.291 0 0 1-.398-.108zm-.588-1.015a.29.29 0 0 1 .108-.395.286.286 0 0 1 .396.105.289.289 0 0 1-.105.398.298.298 0 0 1-.399-.108zm-.584-1.015a.286.286 0 0 1 .105-.396.291.291 0 0 1 .29.503.287.287 0 0 1-.395-.107zm-.588-1.015a.288.288 0 0 1 .108-.396.289.289 0 0 1 .395.105.292.292 0 0 1-.105.398.287.287 0 0 1-.398-.107zm-.587-1.012a.292.292 0 0 1 .506-.293.293.293 0 0 1-.108.398.3.3 0 0 1-.145.041.295.295 0 0 1-.253-.146zm-.585-1.015a.29.29 0 1 1 .503-.29.287.287 0 0 1-.107.395.292.292 0 0 1-.145.041.292.292 0 0 1-.251-.146zm-.587-1.015a.29.29 0 1 1 .504-.29.288.288 0 0 1-.105.395.3.3 0 0 1-.145.041.295.295 0 0 1-.254-.146zm-.588-1.015a.292.292 0 0 1 .108-.398.29.29 0 0 1 .395.108.286.286 0 0 1-.105.396.3.3 0 0 1-.145.041.3.3 0 0 1-.253-.147zm-.584-1.015A.29.29 0 0 1 23.1 62a.293.293 0 0 1 .398.108.29.29 0 0 1-.108.398.287.287 0 0 1-.394-.107zm-.588-1.015a.29.29 0 1 1 .504-.291.292.292 0 0 1-.105.398.295.295 0 0 1-.399-.107zm-.587-1.015a.29.29 0 0 1 .108-.396.285.285 0 0 1 .395.105.29.29 0 0 1-.105.398.292.292 0 0 1-.398-.107zm-.585-1.015a.286.286 0 0 1 .105-.396.292.292 0 0 1 .293.503.305.305 0 0 1-.148.038.29.29 0 0 1-.25-.145zm-.587-1.015a.29.29 0 0 1 .108-.395.286.286 0 0 1 .396.105.29.29 0 0 1-.105.398.297.297 0 0 1-.145.038.29.29 0 0 1-.254-.146zm-.585-1.012a.292.292 0 0 1 .503-.293.292.292 0 0 1-.108.398.298.298 0 0 1-.145.041.291.291 0 0 1-.25-.146zm-.587-1.015a.29.29 0 1 1 .503-.29.29.29 0 0 1-.105.396.3.3 0 0 1-.145.041.294.294 0 0 1-.253-.147zm-.588-1.015a.293.293 0 0 1 .108-.398.29.29 0 0 1 .395.108.286.286 0 0 1-.105.396.3.3 0 0 1-.145.041.298.298 0 0 1-.253-.147zm-.584-1.015a.29.29 0 0 1 .105-.398.29.29 0 1 1 .29.503.3.3 0 0 1-.145.041.29.29 0 0 1-.25-.146zm-.588-1.015a.289.289 0 0 1 .105-.398.293.293 0 0 1 .293.506.293.293 0 0 1-.398-.108zm-.587-1.015a.29.29 0 0 1 .108-.396.286.286 0 0 1 .395.105.29.29 0 0 1-.105.398.292.292 0 0 1-.398-.107zm-.585-1.015a.287.287 0 0 1 .105-.396.29.29 0 0 1 .398.105.293.293 0 0 1-.108.398.288.288 0 0 1-.395-.107zm-.587-1.015a.288.288 0 0 1 .105-.395.292.292 0 0 1 .293.503.291.291 0 0 1-.398-.108zm-.588-1.015a.292.292 0 1 1 .506-.291.293.293 0 0 1-.108.398.297.297 0 0 1-.145.038.288.288 0 0 1-.253-.145zm-.584-1.012a.29.29 0 1 1 .503-.29.289.289 0 0 1-.108.396.292.292 0 0 1-.145.041.293.293 0 0 1-.25-.147zm-.588-1.015a.292.292 0 0 1 .105-.398.293.293 0 0 1 .398.108.29.29 0 0 1-.105.396.3.3 0 0 1-.145.041.298.298 0 0 1-.253-.147zm-.587-1.015a.293.293 0 0 1 .108-.398.29.29 0 0 1 .396.108.286.286 0 0 1-.105.395.3.3 0 0 1-.145.041.295.295 0 0 1-.254-.146zm-.585-1.015a.289.289 0 0 1 .105-.398.293.293 0 0 1 .398.108.287.287 0 0 1-.108.395.264.264 0 0 1-.145.041.29.29 0 0 1-.25-.146zm-.587-1.015a.29.29 0 0 1 .107-.398.292.292 0 1 1 .291.506.295.295 0 0 1-.398-.108zm-.585-1.015a.286.286 0 0 1 .105-.395.286.286 0 0 1 .396.105.29.29 0 0 1-.105.398.29.29 0 0 1-.396-.108zm-.587-1.015a.286.286 0 0 1 .105-.396.29.29 0 1 1 .29.503.287.287 0 0 1-.395-.107zm-.588-1.015a.289.289 0 0 1 .108-.396.288.288 0 0 1 .396.105.289.289 0 0 1-.105.398.295.295 0 0 1-.399-.107zm-.587-1.012a.292.292 0 0 1 .108-.398.288.288 0 0 1 .395.105.289.289 0 0 1-.105.398.3.3 0 0 1-.145.041.295.295 0 0 1-.253-.146zm-.585-1.015a.29.29 0 0 1 .503-.29.286.286 0 0 1-.108.395.289.289 0 0 1-.145.041.291.291 0 0 1-.25-.146zm-.587-1.015a.293.293 0 0 1 .108-.398.29.29 0 0 1 .396.107.287.287 0 0 1-.105.396.3.3 0 0 1-.145.041.295.295 0 0 1-.254-.146zm-.585-1.015a.289.289 0 0 1 .105-.398.293.293 0 0 1 .398.108.29.29 0 0 1-.107.395.3.3 0 0 1-.145.041.29.29 0 0 1-.251-.146zm-.587-1.015a.29.29 0 0 1 .105-.398.292.292 0 1 1 .293.505.297.297 0 0 1-.145.038.288.288 0 0 1-.253-.145zm-.588-1.015a.286.286 0 0 1 .108-.395.285.285 0 0 1 .395.105.289.289 0 0 1-.105.398.295.295 0 0 1-.398-.108zm-.584-1.015a.289.289 0 0 1 .105-.398.293.293 0 0 1 .398.107.292.292 0 0 1-.108.398.287.287 0 0 1-.395-.107zm-.588-1.015a.287.287 0 0 1 .105-.395.29.29 0 0 1 .398.105.292.292 0 0 1-.105.398.293.293 0 0 1-.398-.108zm-.587-1.015a.289.289 0 0 1 .108-.395.286.286 0 0 1 .395.105.289.289 0 0 1-.105.398.297.297 0 0 1-.145.038.289.289 0 0 1-.253-.146zm-.585-1.015a.287.287 0 0 1 .105-.395.292.292 0 0 1 .398.105.293.293 0 0 1-.108.398.3.3 0 0 1-.145.041.288.288 0 0 1-.25-.149zm-.587-1.012a.291.291 0 0 1 .503-.29.289.289 0 0 1-.105.395.3.3 0 0 1-.145.041.291.291 0 0 1-.253-.146zm-.588-1.015a.293.293 0 0 1 .107-.398.29.29 0 0 1 .29.503.298.298 0 0 1-.145.041.295.295 0 0 1-.252-.146zm-.584-1.015a.29.29 0 0 1 .105-.398.293.293 0 0 1 .398.108.29.29 0 0 1-.108.395.264.264 0 0 1-.145.041.29.29 0 0 1-.25-.146zm-.588-1.015a.292.292 0 0 1 .105-.398.293.293 0 0 1 .398.108.292.292 0 0 1-.105.398.295.295 0 0 1-.398-.108zm-.587-1.015a.293.293 0 0 1 .108-.398.29.29 0 0 1 .396.108.289.289 0 0 1-.105.398.297.297 0 0 1-.145.038.3.3 0 0 1-.254-.146zm-.341-.864a.3.3 0 0 1-.206-.084.293.293 0 0 1 0-.412.298.298 0 0 1 .41 0 .296.296 0 0 1 .087.206.294.294 0 0 1-.291.29zm74.807-.291a.29.29 0 0 1 .291-.291c.163 0 .291.128.291.291a.29.29 0 0 1-.291.291.292.292 0 0 1-.291-.291zm-1.155 0a.29.29 0 0 1 .291-.291.29.29 0 0 1 .291.291c0 .16-.131.291-.291.291a.292.292 0 0 1-.291-.291zm-1.154 0a.29.29 0 0 1 .291-.291.29.29 0 0 1 .291.291c0 .16-.131.291-.291.291a.292.292 0 0 1-.291-.291zm-1.158 0a.29.29 0 0 1 .291-.291c.163 0 .291.128.291.291a.29.29 0 0 1-.291.291.292.292 0 0 1-.291-.291zm-1.154 0a.29.29 0 0 1 .291-.291.29.29 0 0 1 .291.291c0 .16-.131.291-.291.291a.292.292 0 0 1-.291-.291zm-1.155 0a.29.29 0 0 1 .291-.291.29.29 0 0 1 .291.291c0 .16-.131.291-.291.291a.292.292 0 0 1-.291-.291zm-1.154 0a.29.29 0 0 1 .291-.291.29.29 0 0 1 .291.291.291.291 0 0 1-.582 0zm-1.158 0a.29.29 0 0 1 .291-.291c.163 0 .291.128.291.291a.29.29 0 0 1-.291.291.292.292 0 0 1-.291-.291zm-1.154 0a.29.29 0 0 1 .291-.291.29.29 0 0 1 .291.291c0 .16-.131.291-.291.291a.292.292 0 0 1-.291-.291zm-1.155 0a.29.29 0 0 1 .291-.291.29.29 0 0 1 .291.291c0 .16-.131.291-.291.291a.292.292 0 0 1-.291-.291zm-1.155 0c0-.163.128-.291.291-.291a.29.29 0 0 1 .291.291c0 .16-.131.291-.291.291a.29.29 0 0 1-.291-.291zm-1.157 0a.29.29 0 0 1 .291-.291c.163 0 .291.128.291.291a.29.29 0 0 1-.291.291.292.292 0 0 1-.291-.291zm-1.155 0a.29.29 0 0 1 .291-.291.29.29 0 0 1 .291.291c0 .16-.131.291-.291.291a.292.292 0 0 1-.291-.291zm-1.154 0a.29.29 0 0 1 .291-.291.29.29 0 0 1 .291.291c0 .16-.131.291-.291.291a.292.292 0 0 1-.291-.291zm-1.155 0c0-.163.128-.291.291-.291a.29.29 0 0 1 .291.291c0 .16-.131.291-.291.291a.29.29 0 0 1-.291-.291zm-1.157 0a.29.29 0 0 1 .291-.291.29.29 0 0 1 .291.291c0 .16-.131.291-.291.291a.292.292 0 0 1-.291-.291zm-1.155 0a.29.29 0 0 1 .291-.291.29.29 0 0 1 .291.291c0 .16-.131.291-.291.291a.292.292 0 0 1-.291-.291zm-1.154 0a.29.29 0 0 1 .291-.291.29.29 0 0 1 .291.291c0 .16-.131.291-.291.291a.292.292 0 0 1-.291-.291zm-1.158 0a.29.29 0 0 1 .291-.291c.163 0 .291.128.291.291a.29.29 0 0 1-.291.291.292.292 0 0 1-.291-.291zm-1.155 0a.29.29 0 0 1 .291-.291.29.29 0 0 1 .291.291c0 .16-.131.291-.291.291a.292.292 0 0 1-.291-.291zm-1.154 0a.29.29 0 0 1 .291-.291.29.29 0 0 1 .291.291c0 .16-.131.291-.291.291a.292.292 0 0 1-.291-.291zm-1.155 0a.29.29 0 0 1 .291-.291.29.29 0 0 1 .291.291c0 .16-.131.291-.291.291a.292.292 0 0 1-.291-.291zm-1.157 0a.29.29 0 0 1 .291-.291c.163 0 .291.128.291.291a.29.29 0 0 1-.291.291.292.292 0 0 1-.291-.291zm-1.155 0a.29.29 0 0 1 .291-.291.29.29 0 0 1 .291.291c0 .16-.131.291-.291.291a.292.292 0 0 1-.291-.291zm-1.154 0a.29.29 0 0 1 .291-.291.29.29 0 0 1 .291.291.291.291 0 0 1-.582 0zm-1.155 0c0-.163.128-.291.291-.291a.29.29 0 0 1 .291.291c0 .16-.131.291-.291.291a.29.29 0 0 1-.291-.291zm-1.157 0a.29.29 0 0 1 .291-.291c.163 0 .291.128.291.291a.291.291 0 0 1-.582 0zm-1.155 0a.29.29 0 0 1 .291-.291.29.29 0 0 1 .291.291c0 .16-.131.291-.291.291a.292.292 0 0 1-.291-.291zm-1.155 0c0-.163.128-.291.291-.291a.29.29 0 0 1 .291.291c0 .16-.131.291-.291.291a.29.29 0 0 1-.291-.291zm-1.154 0c0-.163.128-.291.291-.291.16 0 .288.128.288.291a.29.29 0 0 1-.579 0zm-1.158 0a.29.29 0 0 1 .291-.291.29.29 0 0 1 .291.291c0 .16-.131.291-.291.291a.292.292 0 0 1-.291-.291zm-1.154 0a.29.29 0 0 1 .291-.291.29.29 0 0 1 .291.291c0 .16-.131.291-.291.291a.292.292 0 0 1-.291-.291zm-1.155 0c0-.163.128-.291.291-.291a.29.29 0 0 1 .291.291c0 .16-.131.291-.291.291a.29.29 0 0 1-.291-.291zm-1.155 0c0-.163.128-.291.291-.291a.29.29 0 0 1 .291.291.29.29 0 1 1-.582 0zm-1.157 0a.29.29 0 0 1 .291-.291.29.29 0 0 1 .291.291c0 .16-.131.291-.291.291a.292.292 0 0 1-.291-.291zm-1.154 0a.29.29 0 0 1 .291-.291.29.29 0 0 1 .291.291.291.291 0 0 1-.582 0zm-1.155 0c0-.163.128-.291.291-.291a.29.29 0 0 1 .291.291c0 .16-.131.291-.291.291a.29.29 0 0 1-.291-.291zm-1.158 0a.29.29 0 0 1 .291-.291c.163 0 .291.128.291.291a.29.29 0 0 1-.291.291.292.292 0 0 1-.291-.291zm-1.154 0a.29.29 0 0 1 .291-.291.29.29 0 0 1 .291.291c0 .16-.131.291-.291.291a.292.292 0 0 1-.291-.291zm-1.155 0c0-.163.128-.291.291-.291a.29.29 0 0 1 .291.291c0 .16-.131.291-.291.291a.29.29 0 0 1-.291-.291zm-1.157 0a.29.29 0 0 1 .291-.291c.163 0 .291.128.291.291a.291.291 0 0 1-.582 0zm-1.155 0a.29.29 0 0 1 .291-.291.29.29 0 0 1 .291.291c0 .16-.131.291-.291.291a.292.292 0 0 1-.291-.291zm-1.155 0a.29.29 0 0 1 .291-.291.29.29 0 0 1 .291.291c0 .16-.131.291-.291.291a.292.292 0 0 1-.291-.291zm-1.154 0c0-.163.128-.291.291-.291a.29.29 0 0 1 .291.291c0 .16-.131.291-.291.291a.29.29 0 0 1-.291-.291zm-1.158 0a.29.29 0 0 1 .291-.291.29.29 0 0 1 .291.291c0 .16-.131.291-.291.291a.292.292 0 0 1-.291-.291zm-1.154 0a.29.29 0 0 1 .291-.291.29.29 0 0 1 .291.291c0 .16-.131.291-.291.291a.292.292 0 0 1-.291-.291zm-1.155 0a.29.29 0 0 1 .291-.291.29.29 0 0 1 .291.291c0 .16-.131.291-.291.291a.292.292 0 0 1-.291-.291zm-1.157 0a.29.29 0 0 1 .291-.291c.163 0 .291.128.291.291a.29.29 0 0 1-.291.291.292.292 0 0 1-.291-.291zm-1.155 0a.29.29 0 0 1 .291-.291.29.29 0 0 1 .291.291c0 .16-.131.291-.291.291a.292.292 0 0 1-.291-.291zm-1.154 0a.29.29 0 0 1 .291-.291.29.29 0 0 1 .291.291.291.291 0 0 1-.582 0zm-1.155 0a.29.29 0 0 1 .291-.291.29.29 0 0 1 .291.291c0 .16-.131.291-.291.291a.292.292 0 0 1-.291-.291zm-1.157 0a.29.29 0 0 1 .291-.291c.163 0 .291.128.291.291a.291.291 0 0 1-.582 0zm-1.155 0a.29.29 0 0 1 .291-.291.29.29 0 0 1 .291.291c0 .16-.131.291-.291.291a.292.292 0 0 1-.291-.291zm-1.155 0a.29.29 0 0 1 .291-.291.29.29 0 0 1 .291.291c0 .16-.131.291-.291.291a.292.292 0 0 1-.291-.291zm-1.154 0c0-.163.128-.291.291-.291a.29.29 0 0 1 .291.291c0 .16-.131.291-.291.291a.29.29 0 0 1-.291-.291zm-1.158 0a.29.29 0 0 1 .291-.291c.163 0 .291.128.291.291a.29.29 0 0 1-.291.291.292.292 0 0 1-.291-.291zm-1.154 0a.29.29 0 0 1 .291-.291.29.29 0 0 1 .291.291c0 .16-.131.291-.291.291a.292.292 0 0 1-.291-.291zm-1.155 0c0-.163.128-.291.291-.291a.29.29 0 0 1 .291.291c0 .16-.131.291-.291.291a.29.29 0 0 1-.291-.291zm-1.154 0c0-.163.128-.291.291-.291a.29.29 0 0 1 .291.291c0 .16-.131.291-.291.291a.29.29 0 0 1-.291-.291zm-1.158 0a.29.29 0 0 1 .291-.291.29.29 0 0 1 .291.291c0 .16-.131.291-.291.291a.292.292 0 0 1-.291-.291zm-1.155 0a.29.29 0 0 1 .291-.291.29.29 0 0 1 .291.291c0 .16-.131.291-.291.291a.292.292 0 0 1-.291-.291zm-1.154 0c0-.163.128-.291.291-.291a.29.29 0 0 1 .291.291c0 .16-.131.291-.291.291a.29.29 0 0 1-.291-.291zm-1.155 0c0-.163.128-.291.291-.291a.29.29 0 0 1 .291.291c0 .16-.131.291-.291.291a.29.29 0 0 1-.291-.291zm-1.157 0a.29.29 0 0 1 .291-.291.29.29 0 0 1 .291.291c0 .16-.131.291-.291.291a.292.292 0 0 1-.291-.291zm-1.155 0a.29.29 0 0 1 .291-.291.29.29 0 0 1 .291.291c0 .16-.131.291-.291.291a.292.292 0 0 1-.291-.291zm75.391.291a.286.286 0 0 1-.206-.087.282.282 0 0 1-.084-.204c0-.079.029-.154.084-.206a.298.298 0 0 1 .41 0 .286.286 0 0 1 0 .412.29.29 0 0 1-.204.085z" stroke="#000" stroke-width="2"></path><path d="M77.951 25.007a.294.294 0 0 1-.29-.291c0-.076.032-.151.084-.206a.304.304 0 0 1 .413 0 .293.293 0 0 1-.207.497zm-37.849 64.91a.291.291 0 0 1-.105-.398.29.29 0 0 1 .503.29.29.29 0 0 1-.253.145.285.285 0 0 1-.145-.037zm.579-1.001a.291.291 0 0 1-.105-.398.293.293 0 0 1 .398-.105.292.292 0 1 1-.148.543.279.279 0 0 1-.145-.04zm.582-.997a.294.294 0 0 1-.108-.398.291.291 0 0 1 .398-.105.29.29 0 0 1 .108.395.295.295 0 0 1-.253.145.282.282 0 0 1-.145-.037zm.578-1.001a.29.29 0 0 1-.105-.398.29.29 0 0 1 .398-.105.296.296 0 0 1 .105.398.292.292 0 0 1-.253.145.279.279 0 0 1-.145-.04zm.579-.997a.293.293 0 0 1-.105-.398.294.294 0 0 1 .398-.107.29.29 0 0 1 .105.398.288.288 0 0 1-.25.145.308.308 0 0 1-.148-.038zm.582-1.001a.29.29 0 0 1-.105-.398.29.29 0 0 1 .398-.105.293.293 0 0 1 .105.398.296.296 0 0 1-.253.143.286.286 0 0 1-.145-.038zm.578-1a.292.292 0 0 1-.105-.395.294.294 0 0 1 .398-.108.29.29 0 0 1 .105.398.287.287 0 0 1-.25.145.302.302 0 0 1-.148-.04zm.582-.998a.291.291 0 0 1-.105-.398.29.29 0 0 1 .398-.105.296.296 0 0 1 .105.398.296.296 0 0 1-.253.143.286.286 0 0 1-.145-.038zm.579-1a.295.295 0 0 1-.105-.398.295.295 0 0 1 .398-.105.29.29 0 0 1 .105.398.287.287 0 0 1-.25.145.3.3 0 0 1-.148-.04zm.582-.998a.295.295 0 0 1-.108-.398.291.291 0 0 1 .398-.105c.14.078.186.256.105.395a.287.287 0 0 1-.25.145.273.273 0 0 1-.145-.037zm.578-1a.293.293 0 0 1-.105-.398.293.293 0 0 1 .398-.105.293.293 0 0 1 .105.398.289.289 0 0 1-.25.143.3.3 0 0 1-.148-.038zm.582-1a.29.29 0 0 1-.108-.396.295.295 0 0 1 .398-.108.291.291 0 0 1 .105.398.288.288 0 0 1-.25.145.26.26 0 0 1-.145-.039zm.579-.998a.29.29 0 0 1-.105-.398.29.29 0 0 1 .398-.105.293.293 0 0 1 .105.398.294.294 0 0 1-.398.105zm.582-1a.291.291 0 0 1-.108-.396.294.294 0 0 1 .398-.107.29.29 0 0 1 .105.398.288.288 0 0 1-.395.105zm.578-.998a.291.291 0 0 1-.105-.398.287.287 0 0 1 .395-.105c.14.079.189.256.108.396a.292.292 0 0 1-.253.145.297.297 0 0 1-.145-.038zm.579-1a.293.293 0 0 1-.105-.398.293.293 0 0 1 .398-.105.29.29 0 0 1 .105.398.287.287 0 0 1-.25.145.307.307 0 0 1-.148-.04zm.582-1.001a.288.288 0 0 1-.105-.396.287.287 0 0 1 .395-.105.29.29 0 0 1 .108.396.292.292 0 0 1-.253.145.26.26 0 0 1-.145-.04zm.578-.998a.293.293 0 0 1-.105-.398.293.293 0 0 1 .398-.105.29.29 0 0 1 .105.398.288.288 0 0 1-.25.142.279.279 0 0 1-.148-.037zm.582-1a.291.291 0 0 1 .291-.504c.14.082.186.259.108.398a.295.295 0 0 1-.253.145.253.253 0 0 1-.146-.039zm.579-.998a.29.29 0 0 1-.105-.398.29.29 0 0 1 .398-.105c.14.078.186.259.105.396a.29.29 0 0 1-.253.145.274.274 0 0 1-.145-.038zm.581-1a.29.29 0 0 1-.105-.398.29.29 0 0 1 .396-.105.291.291 0 0 1 .105.398.287.287 0 0 1-.25.145.282.282 0 0 1-.146-.04zm.579-.997a.29.29 0 0 1-.105-.398.29.29 0 0 1 .398-.105.293.293 0 0 1 .105.396.292.292 0 0 1-.253.145.308.308 0 0 1-.145-.038zm.582-1.001a.294.294 0 0 1-.108-.398.291.291 0 0 1 .503.293.286.286 0 0 1-.395.105zm.578-1a.287.287 0 0 1-.105-.395.29.29 0 1 1 .503.291.292.292 0 0 1-.253.145.28.28 0 0 1-.145-.041zm.579-.998a.291.291 0 0 1 .293-.503.29.29 0 0 1 .105.398.285.285 0 0 1-.25.143.308.308 0 0 1-.148-.038zm.582-1a.289.289 0 0 1-.105-.396.294.294 0 0 1 .398-.108.296.296 0 0 1 .105.398.292.292 0 0 1-.253.145.26.26 0 0 1-.145-.039zm.579-.998a.291.291 0 0 1 .293-.503c.14.081.186.259.105.395a.288.288 0 0 1-.25.145.293.293 0 0 1-.148-.037zm.581-1a.29.29 0 1 1 .291-.503.295.295 0 0 1 .108.398.292.292 0 0 1-.253.145.3.3 0 0 1-.146-.04zm.579-1.001a.29.29 0 0 1-.105-.396.291.291 0 0 1 .398-.105.287.287 0 0 1 .105.395.287.287 0 0 1-.25.145.262.262 0 0 1-.148-.039zm.582-.997a.29.29 0 1 1 .29-.503.291.291 0 0 1 .105.398.287.287 0 0 1-.25.145.296.296 0 0 1-.145-.04zm.578-1.001a.288.288 0 0 1-.105-.395.294.294 0 0 1 .398-.108.292.292 0 1 1-.148.543.289.289 0 0 1-.145-.04zm.582-.997a.295.295 0 0 1-.108-.398.29.29 0 0 1 .398-.105.29.29 0 0 1 .105.398.292.292 0 0 1-.25.143.288.288 0 0 1-.145-.038zm.579-1.001a.287.287 0 0 1-.105-.395.294.294 0 0 1 .398-.108.292.292 0 1 1-.148.543.286.286 0 0 1-.145-.04zm.582-.997a.295.295 0 0 1-.108-.398.291.291 0 0 1 .398-.105.29.29 0 0 1 .105.398.293.293 0 0 1-.25.143.286.286 0 0 1-.145-.038zm.578-1.001a.29.29 0 1 1 .291-.503.295.295 0 0 1 .108.398.292.292 0 0 1-.253.145.28.28 0 0 1-.146-.04zm.582-1a.288.288 0 0 1-.108-.396.291.291 0 0 1 .398-.105.287.287 0 0 1 .105.395.287.287 0 0 1-.25.145.245.245 0 0 1-.145-.039zm.579-.998a.29.29 0 1 1 .291-.503.294.294 0 0 1 .107.398.29.29 0 0 1-.253.143.284.284 0 0 1-.145-.038zm.578-1a.29.29 0 0 1-.105-.396.294.294 0 0 1 .398-.108.291.291 0 0 1 .105.398.288.288 0 0 1-.253.145.26.26 0 0 1-.145-.039zm.582-.998a.291.291 0 0 1-.105-.398.291.291 0 0 1 .503.291.295.295 0 0 1-.253.145.286.286 0 0 1-.145-.038zm.579-1a.291.291 0 0 1-.105-.398.293.293 0 0 1 .398-.105.292.292 0 1 1-.148.543.296.296 0 0 1-.145-.04zm.581-.998a.291.291 0 0 1-.105-.398.287.287 0 0 1 .396-.105c.14.079.186.256.105.396a.288.288 0 0 1-.25.145.28.28 0 0 1-.146-.038zm.579-1a.29.29 0 0 1-.105-.398.293.293 0 0 1 .398-.105.295.295 0 0 1 .105.398.289.289 0 0 1-.398.105zm.582-1a.291.291 0 0 1-.108-.396.291.291 0 0 1 .398-.105.288.288 0 0 1 .105.396.288.288 0 0 1-.25.145.26.26 0 0 1-.145-.04zm.579-.998a.29.29 0 0 1-.105-.398.292.292 0 0 1 .398-.105.296.296 0 0 1 .105.398.289.289 0 0 1-.253.142.282.282 0 0 1-.145-.037zm.578-1a.293.293 0 0 1-.105-.396.294.294 0 0 1 .398-.108.291.291 0 0 1 .105.398.287.287 0 0 1-.25.145.272.272 0 0 1-.148-.039zm.582-.998a.29.29 0 0 1-.105-.398.291.291 0 0 1 .503.291.292.292 0 0 1-.253.145.297.297 0 0 1-.145-.038zm.579-1a.293.293 0 0 1-.105-.398.293.293 0 0 1 .398-.105.293.293 0 0 1 .105.398.287.287 0 0 1-.25.145.307.307 0 0 1-.148-.04zm.581-.998a.291.291 0 0 1-.105-.398.29.29 0 0 1 .395-.108c.14.082.186.259.108.398a.295.295 0 0 1-.253.145.285.285 0 0 1-.145-.037zm.579-1.001a.293.293 0 0 1-.105-.398.293.293 0 0 1 .398-.105.29.29 0 1 1-.145.543.282.282 0 0 1-.148-.04zm.582-.997a.29.29 0 1 1 .29-.503.288.288 0 0 1 .105.396.288.288 0 0 1-.25.145.294.294 0 0 1-.145-.038zm.579-1.001a.293.293 0 0 1-.105-.398.291.291 0 0 1 .503.293.29.29 0 0 1-.253.143.284.284 0 0 1-.145-.038zm.581-1a.29.29 0 0 1-.108-.395.294.294 0 0 1 .398-.108.291.291 0 0 1 .105.398.287.287 0 0 1-.25.145.28.28 0 0 1-.145-.04zm.579-.997a.291.291 0 0 1-.105-.398.29.29 0 0 1 .398-.105.29.29 0 0 1 .105.395.286.286 0 0 1-.253.145.293.293 0 0 1-.145-.037zm.582-1.001a.293.293 0 0 1-.107-.398.293.293 0 0 1 .398-.105.29.29 0 0 1 .105.398.287.287 0 0 1-.25.145.28.28 0 0 1-.146-.04zm.578-.997a.291.291 0 0 1-.105-.398.287.287 0 0 1 .395-.105.29.29 0 0 1 .108.395.295.295 0 0 1-.398.108zm.579-1.001a.293.293 0 0 1-.105-.398.29.29 0 0 1 .398-.105.292.292 0 1 1-.147.544.301.301 0 0 1-.146-.041zm.582-1a.287.287 0 0 1-.105-.396.29.29 0 0 1 .396-.107.29.29 0 0 1 .105.398.286.286 0 0 1-.25.145c-.05 0-.1-.011-.146-.04zm.579-.998a.29.29 0 0 1-.105-.398.29.29 0 1 1 .503.293.289.289 0 0 1-.253.142.282.282 0 0 1-.145-.037zm.581-1a.287.287 0 0 1-.105-.395.288.288 0 0 1 .396-.108.29.29 0 0 1 .105.398.287.287 0 0 1-.25.145.291.291 0 0 1-.146-.04zm.579-.998a.29.29 0 0 1-.105-.398.29.29 0 1 1 .503.29.292.292 0 0 1-.253.145.282.282 0 0 1-.145-.037zm.582-1a.293.293 0 0 1-.107-.398.293.293 0 0 1 .398-.105c.14.081.186.259.108.398a.295.295 0 0 1-.253.145c-.05 0-.1-.014-.146-.04zm.578-1.001a.287.287 0 0 1-.105-.395.291.291 0 0 1 .503.291.292.292 0 0 1-.253.145.271.271 0 0 1-.145-.041zm.582-.997a.294.294 0 0 1-.108-.398.29.29 0 0 1 .398-.105.29.29 0 0 1 .105.398.285.285 0 0 1-.25.143.288.288 0 0 1-.145-.038zm.579-1.001a.286.286 0 0 1-.105-.395.294.294 0 0 1 .398-.108.296.296 0 0 1 .105.398.292.292 0 0 1-.253.145.26.26 0 0 1-.145-.04zm.579-.997a.293.293 0 0 1-.105-.398.29.29 0 0 1 .398-.105.29.29 0 0 1 .105.398.286.286 0 0 1-.25.143.302.302 0 0 1-.148-.038zM39.669 90.955a.294.294 0 0 1-.206-.084.293.293 0 0 1 0-.412.3.3 0 0 1 .41 0 .296.296 0 0 1 .087.206.296.296 0 0 1-.087.206.296.296 0 0 1-.204.084z" stroke="#000" stroke-width="2"></path><path d="M78.464 68.78H1.696v-.581h75.742l-.039-.065L39.572 2.686l.504-.291 37.825 65.444z"></path><path d="M1.299 68.348l38.265-65.96.503.292L1.802 68.64z"></path></g></symbol><symbol id="icon-close" viewbox="0 0 26 26"><path d="M2.285 0L0 2.285l10.36 10.36L0 23.005l2.285 2.285 10.36-10.36 10.36 10.36 2.285-2.285-10.36-10.36 10.36-10.36L23.005 0l-10.36 10.36z" fill-rule="evenodd" opacity=".585"></path></symbol><symbol id="icon-data" viewbox="0 0 80 82"><g fill-rule="evenodd"><path d="M78.382 60.22l-2.083-.403a2.766 2.766 0 0 1-2.112-1.755 2.757 2.757 0 0 1 .362-2.705l1.316-1.784a1.437 1.437 0 0 0-.144-1.87l-2.835-2.82a1.452 1.452 0 0 0-1.837-.172l-1.765 1.18a2.877 2.877 0 0 1-1.591.489c-1.215 0-2.59-.835-2.835-2.417l-.333-2.172a1.456 1.456 0 0 0-1.432-1.223h-4.006a1.44 1.44 0 0 0-1.418 1.165l-.52 2.69c-.29 1.51-1.635 2.302-2.807 2.302a2.877 2.877 0 0 1-1.59-.49l-2.272-1.524a1.452 1.452 0 0 0-1.837.173l-2.835 2.82a1.437 1.437 0 0 0-.144 1.87l1.316 1.783c.593.806.723 1.784.362 2.705a2.817 2.817 0 0 1-2.112 1.755l-2.083.403c-.68.13-1.172.719-1.172 1.41v3.984c0 .705.521 1.31 1.23 1.425l2.184.33a2.84 2.84 0 0 1 2.184 1.67c.405.906.304 1.898-.246 2.718l-1.186 1.755a1.433 1.433 0 0 0 .174 1.827l2.835 2.82a1.457 1.457 0 0 0 1.88.144l1.794-1.31a2.818 2.818 0 0 1 1.677-.546c1.172 0 2.517.791 2.806 2.302l.405 2.071a1.44 1.44 0 0 0 1.418 1.166h4.007c.708 0 1.316-.518 1.432-1.223l.231-1.54c.246-1.582 1.606-2.416 2.835-2.416a2.8 2.8 0 0 1 1.678.56l1.258.921c.579.418 1.374.36 1.88-.143l2.836-2.82c.491-.49.564-1.252.173-1.827l-1.186-1.755a2.736 2.736 0 0 1-.246-2.72 2.84 2.84 0 0 1 2.184-1.668l2.184-.33a1.453 1.453 0 0 0 1.23-1.425v-3.985c-.072-.662-.564-1.266-1.244-1.395zm-1.721 4.172l-.97.143a5.729 5.729 0 0 0-4.397 3.367 5.655 5.655 0 0 0 .507 5.495l.52.763-1.113 1.107-.26-.187a5.77 5.77 0 0 0-3.385-1.107c-2.864 0-5.25 2.042-5.685 4.848l-.029.302h-1.576l-.174-.907c-.52-2.69-2.893-4.632-5.655-4.632a5.77 5.77 0 0 0-3.385 1.108l-.781.575-1.114-1.107.52-.763a5.652 5.652 0 0 0 .507-5.495 5.736 5.736 0 0 0-4.397-3.367l-.955-.143v-1.568l.912-.173c1.952-.374 3.543-1.683 4.267-3.525a5.655 5.655 0 0 0-.71-5.466l-.578-.777 1.114-1.108 1.287.863a5.713 5.713 0 0 0 3.211.993c2.763 0 5.135-1.957 5.656-4.632l.29-1.51h1.576l.144.963c.434 2.805 2.835 4.848 5.685 4.848a5.713 5.713 0 0 0 3.21-.993l.768-.518 1.113 1.108-.578.777a5.655 5.655 0 0 0-.709 5.467 5.721 5.721 0 0 0 4.267 3.524l.897.159v1.568z"></path><path d="M60.75 56.105c-3.992 0-7.232 3.223-7.232 7.193 0 3.97 3.24 7.193 7.232 7.193s7.232-3.222 7.232-7.193c0-3.97-3.24-7.193-7.232-7.193zm0 11.509c-2.387 0-4.34-1.942-4.34-4.316 0-2.373 1.953-4.316 4.34-4.316 2.387 0 4.34 1.943 4.34 4.316 0 2.374-1.953 4.316-4.34 4.316zm-24.59-8.632c-1.2 0-2.371-.028-3.514-.057a89.563 89.563 0 0 1-2.069-.115c-.419-.029-.853-.043-1.272-.072a76.93 76.93 0 0 1-2.676-.245l-.507-.043a85.833 85.833 0 0 1-2.936-.374c-.029 0-.043 0-.072-.014-4.903-.72-9.098-1.813-12.382-3.122-.014 0-.028-.014-.057-.014a32.38 32.38 0 0 1-1.722-.748c-.057-.03-.13-.058-.188-.087-.491-.23-.94-.475-1.36-.72l-.303-.172c-.376-.215-.709-.446-1.041-.661-.13-.087-.26-.173-.377-.26a11.02 11.02 0 0 1-.766-.618c-.13-.115-.26-.23-.376-.345a9.212 9.212 0 0 1-.52-.561 4.338 4.338 0 0 1-.32-.403c-.13-.173-.23-.36-.332-.532-.072-.144-.144-.288-.202-.432a3.63 3.63 0 0 1-.174-.518c-.043-.216-.101-.446-.101-.676v-11.81c.043.042.087.071.13.114.318.274.636.547.998.82 5.453 4.1 16.345 7.28 32.14 7.28 15.722 0 26.6-3.165 32.067-7.237.434-.316.825-.647 1.2-.978v5.337a1.447 1.447 0 0 0 2.893 0V12.947c0-.244-.086-.46-.202-.661C70.499 6.1 58.03 0 36.16 0 14.349 0 1.88 6.07.217 12.242c-.13.216-.217.446-.217.705V66.175c0 .23.058.446.174.648C1.822 73.77 15.636 77.87 28.827 78.849h.116c.752 0 1.389-.575 1.446-1.323a1.437 1.437 0 0 0-1.33-1.54c-16.099-1.208-25.472-6.07-26.123-10.04-.014-.073-.029-.13-.043-.188V53.66c.043.043.087.072.13.115.318.273.636.546.998.82 5.453 4.085 16.345 7.265 32.14 7.265.795 0 1.446-.648 1.446-1.439s-.65-1.439-1.446-1.439zm-32.4-39.13c.435.346.897.677 1.418 1.008.101.072.232.13.333.201.42.259.868.518 1.345.777.174.086.347.187.535.273a25.29 25.29 0 0 0 1.664.777c.1.043.188.086.274.13.68.287 1.403.56 2.156.82.202.071.42.143.636.215a47.07 47.07 0 0 0 1.851.576c.232.072.449.13.695.201.839.23 1.721.46 2.632.662l.39.086c.81.173 1.65.331 2.518.49.289.057.593.1.882.143.824.13 1.663.26 2.531.374.217.029.434.058.666.087 1.07.13 2.184.244 3.326.33.29.03.579.044.868.058a84.47 84.47 0 0 0 2.806.158l1.056.043c1.23.044 2.502.072 3.819.072a110.061 110.061 0 0 0 4.889-.115c.954-.043 1.894-.1 2.806-.158.289-.014.578-.043.868-.058 1.142-.1 2.256-.2 3.326-.33.232-.03.434-.058.666-.087a62.7 62.7 0 0 0 2.531-.374c.304-.043.593-.1.882-.144a87.073 87.073 0 0 0 2.517-.489l.39-.086a53.928 53.928 0 0 0 2.633-.662c.232-.057.463-.13.694-.201a47.07 47.07 0 0 0 1.852-.576c.217-.072.434-.144.636-.215a33.688 33.688 0 0 0 2.155-.82c.102-.044.188-.087.275-.13a45.872 45.872 0 0 0 1.664-.777c.188-.086.361-.187.535-.273.477-.26.926-.504 1.345-.777.116-.072.231-.13.333-.201.506-.331.969-.662 1.417-1.007.116-.087.203-.173.304-.26.188-.158.39-.301.564-.46v11.811c0 .23-.058.46-.116.705a3.63 3.63 0 0 1-.173.518c-.058.144-.13.288-.203.432-.101.172-.202.36-.332.532-.102.13-.203.259-.319.403-.159.187-.332.374-.52.56-.116.116-.246.23-.376.346-.232.201-.492.417-.767.619-.116.086-.246.172-.376.259a14.333 14.333 0 0 1-1.345.834c-.434.244-.883.475-1.36.72-.058.028-.13.057-.188.086-.535.258-1.114.503-1.721.748-.015 0-.03.014-.058.014-3.283 1.31-7.493 2.402-12.381 3.122-.03 0-.044 0-.073.014a81.45 81.45 0 0 1-2.936.374c-.16.015-.333.029-.506.043-.883.087-1.765.173-2.676.245-.42.029-.854.043-1.273.072-.68.043-1.36.086-2.068.115-1.143-.014-2.315.014-3.515.014-1.2 0-2.372-.028-3.515-.057a89.563 89.563 0 0 1-2.069-.115c-.419-.03-.853-.043-1.272-.072a76.93 76.93 0 0 1-2.676-.245l-.507-.043a85.833 85.833 0 0 1-2.936-.374c-.029 0-.043 0-.072-.014-4.903-.72-9.098-1.813-12.382-3.122-.014 0-.028-.015-.057-.015a32.38 32.38 0 0 1-1.722-.748c-.057-.028-.13-.057-.188-.086-.491-.23-.94-.475-1.36-.72l-.303-.172c-.376-.216-.709-.446-1.041-.662-.13-.086-.26-.172-.377-.259a11.02 11.02 0 0 1-.766-.618c-.13-.115-.26-.23-.376-.345a9.212 9.212 0 0 1-.52-.561 4.338 4.338 0 0 1-.32-.403c-.13-.173-.23-.36-.332-.533-.072-.143-.144-.287-.202-.431a3.63 3.63 0 0 1-.174-.518c-.043-.216-.101-.446-.101-.676V19.119c.173.158.376.316.564.46.101.101.202.187.304.274zm32.4-16.975c19.6 0 33.269 5.683 33.269 10.79 0 5.107-13.67 10.79-33.268 10.79-19.6 0-33.268-5.683-33.268-10.79 0-5.107 13.669-10.79 33.268-10.79z"></path></g></symbol><symbol id="icon-engineers" viewbox="0 0 80 69"><g fill-rule="evenodd" stroke="#000" stroke-width="2"><path d="M39.7 1.972h.52v43.619h-.52z"></path><path d="M2.09 66.977l37.738-21.563.259.453L2.349 67.43z"></path><path d="M39.748 45.811l.259-.45 37.745 21.664-.259.45z"></path><path d="M78 67.518H2.378v-.521h74.705l-.063-.105L39.735 2.103l.45-.262 37.283 64.786z"></path><path d="M2.001 66.987L39.732 1.978l.452.262L2.453 67.25z"></path></g></symbol><symbol id="icon-facebook" viewbox="0 0 20 20"><path d="M18 0H2C.9 0 0 .9 0 2v16c0 1.1.9 2 2 2h16c1.1 0 2-.9 2-2V2c0-1.1-.9-2-2-2zm-1.6 5.4H15c-.9 0-1 .3-1 1v1.3h2.1L16 10h-1.9v7h-3.2v-7H9.7V7.6h1.2V6.1c0-2 .8-3.1 3.1-3.1h2.4v2.4z" fill-rule="evenodd" opacity=".578"></path></symbol><symbol id="icon-hydro" viewbox="0 0 11 16"><path d="M0 10c0 3.52 2.437 6 6 6 2.563 0 5-2.48 5-6C11 6.64 5.5 0 6 0c-.5 0-6 6.64-6 10z" fill-rule="evenodd"></path></symbol><symbol id="icon-investment" viewbox="0 0 80 93"><g fill-rule="evenodd"><path d="M40.367 3.228a.305.305 0 0 1-.204-.083.288.288 0 0 1 .003-.408c.103-.106.296-.106.405 0a.282.282 0 0 1 .083.204.29.29 0 0 1-.083.204.305.305 0 0 1-.204.083zm-.288 42.544a.289.289 0 0 1 .576 0 .289.289 0 0 1-.288.288.29.29 0 0 1-.288-.288zm0-1.155c0-.161.129-.288.288-.288a.289.289 0 0 1 0 .576.29.29 0 0 1-.288-.288zm0-1.159a.289.289 0 0 1 .576 0 .289.289 0 0 1-.288.288.29.29 0 0 1-.288-.288zm0-1.159c0-.158.129-.285.288-.285a.287.287 0 0 1 0 .573.287.287 0 0 1-.288-.288zm0-1.156a.289.289 0 0 1 .576 0 .289.289 0 0 1-.288.288.29.29 0 0 1-.288-.288zm0-1.158a.289.289 0 0 1 .576 0 .289.289 0 0 1-.288.288.29.29 0 0 1-.288-.288zm0-1.156c0-.161.129-.288.288-.288a.286.286 0 1 1 0 .573.287.287 0 0 1-.288-.285zm0-1.159a.289.289 0 0 1 .576 0 .289.289 0 0 1-.288.288.29.29 0 0 1-.288-.288zm0-1.159a.289.289 0 0 1 .576 0 .287.287 0 1 1-.576 0zm0-1.156c0-.161.129-.288.288-.288a.289.289 0 0 1 0 .576.289.289 0 0 1-.288-.288zm0-1.158a.289.289 0 0 1 .576 0 .289.289 0 0 1-.288.288.29.29 0 0 1-.288-.288zm0-1.156c0-.161.129-.29.288-.29a.29.29 0 0 1 .288.29.286.286 0 0 1-.288.285.287.287 0 0 1-.288-.285zm0-1.159a.289.289 0 0 1 .576 0 .289.289 0 0 1-.288.288.29.29 0 0 1-.288-.288zm0-1.159a.289.289 0 0 1 .576 0 .289.289 0 0 1-.576 0zm0-1.155c0-.161.129-.29.288-.29a.289.289 0 1 1 0 .578.29.29 0 0 1-.288-.288zm0-1.159a.289.289 0 0 1 .576 0 .289.289 0 0 1-.288.288.29.29 0 0 1-.288-.288zm0-1.159a.289.289 0 0 1 .576 0 .287.287 0 1 1-.576 0zm0-1.156c0-.161.129-.288.288-.288a.289.289 0 0 1 0 .576.29.29 0 0 1-.288-.288zm0-1.158a.289.289 0 0 1 .576 0 .289.289 0 0 1-.288.288.29.29 0 0 1-.288-.288zm0-1.159a.289.289 0 0 1 .576 0 .288.288 0 0 1-.576 0zm0-1.156c0-.161.129-.288.288-.288a.289.289 0 0 1 0 .576.29.29 0 0 1-.288-.288zm0-1.159a.289.289 0 0 1 .576 0 .289.289 0 0 1-.288.288.29.29 0 0 1-.288-.288zm0-1.156c0-.161.129-.29.288-.29a.289.289 0 1 1 0 .578.289.289 0 0 1-.288-.288zm0-1.158a.287.287 0 1 1 .576 0 .289.289 0 0 1-.288.288.29.29 0 0 1-.288-.288zm0-1.159a.289.289 0 0 1 .576 0 .287.287 0 1 1-.576 0zm0-1.159c0-.158.129-.285.288-.285.158 0 .288.126.288.285a.289.289 0 0 1-.576 0zm0-1.155a.289.289 0 0 1 .576 0 .289.289 0 0 1-.288.288.29.29 0 0 1-.288-.288zm0-1.159a.289.289 0 0 1 .576 0 .289.289 0 0 1-.288.288.29.29 0 0 1-.288-.288zm0-1.156c0-.161.129-.288.288-.288a.289.289 0 0 1 0 .576.29.29 0 0 1-.288-.288zm0-1.159a.289.289 0 0 1 .576 0 .289.289 0 0 1-.288.288.29.29 0 0 1-.288-.288zm0-1.159a.289.289 0 0 1 .576 0 .287.287 0 1 1-.576 0zm0-1.155c0-.161.129-.288.288-.288a.289.289 0 0 1 0 .576.29.29 0 0 1-.288-.288zm0-1.159a.289.289 0 0 1 .576 0 .289.289 0 0 1-.288.288.29.29 0 0 1-.288-.288zm0-1.159c0-.158.129-.285.288-.285a.287.287 0 0 1 0 .573.287.287 0 0 1-.288-.288zm0-1.156a.289.289 0 0 1 .576 0 .289.289 0 0 1-.576 0zm0-1.158a.289.289 0 0 1 .576 0 .289.289 0 0 1-.288.288.29.29 0 0 1-.288-.288zm0-1.156c0-.161.129-.288.288-.288a.289.289 0 0 1 0 .576.29.29 0 0 1-.288-.288zm.288 43.12a.29.29 0 0 1-.287-.287c0-.078.032-.15.086-.204.103-.106.296-.106.405 0a.292.292 0 0 1 0 .408.305.305 0 0 1-.204.083z"></path><path d="M2.147 69.07a.292.292 0 0 1-.204-.083.292.292 0 0 1 0-.408.301.301 0 0 1 .408 0 .293.293 0 0 1 .083.204.29.29 0 0 1-.287.287zm.756-.718a.29.29 0 0 1 .106-.394.286.286 0 0 1 .391.106.29.29 0 0 1-.106.394.286.286 0 0 1-.391-.106zm1.006-.576a.289.289 0 0 1 .106-.394.286.286 0 0 1 .391.106.292.292 0 0 1-.106.394.289.289 0 0 1-.144.037.283.283 0 0 1-.247-.143zm1.004-.575a.291.291 0 0 1 .109-.394.287.287 0 0 1 .391.106.292.292 0 0 1-.106.394.289.289 0 0 1-.144.037.289.289 0 0 1-.25-.143zm1.006-.577a.288.288 0 0 1 .106-.391.29.29 0 0 1 .394.106.292.292 0 0 1-.106.394.289.289 0 0 1-.144.037.287.287 0 0 1-.25-.146zm1.006-.573a.288.288 0 0 1 .106-.394.29.29 0 0 1 .394.106.292.292 0 0 1-.109.394.27.27 0 0 1-.141.037.284.284 0 0 1-.25-.143zm1.007-.575a.287.287 0 0 1 .106-.394.286.286 0 0 1 .391.106.29.29 0 0 1-.106.394.27.27 0 0 1-.141.037.282.282 0 0 1-.25-.143zm1.006-.575a.287.287 0 0 1 .106-.394.286.286 0 0 1 .391.106.29.29 0 0 1-.106.394.289.289 0 0 1-.144.037.282.282 0 0 1-.247-.143zm1.006-.575a.288.288 0 0 1 .106-.394.286.286 0 0 1 .391.106.292.292 0 0 1-.106.394.289.289 0 0 1-.144.037.283.283 0 0 1-.247-.143zm1.004-.575a.292.292 0 0 1 .106-.394.29.29 0 0 1 .394.106.292.292 0 0 1-.106.394.289.289 0 0 1-.144.037.285.285 0 0 1-.25-.143zm1.006-.575a.29.29 0 0 1 .106-.394.29.29 0 0 1 .394.106.292.292 0 0 1-.106.394.289.289 0 0 1-.144.037.286.286 0 0 1-.25-.143zm1.006-.575a.29.29 0 0 1 .106-.394.29.29 0 0 1 .394.106.292.292 0 0 1-.11.394.27.27 0 0 1-.141.037.284.284 0 0 1-.249-.143zm1.007-.575a.288.288 0 0 1 .106-.394.288.288 0 1 1 .285.5.278.278 0 0 1-.141.037.282.282 0 0 1-.25-.143zm1.006-.575a.287.287 0 0 1 .106-.394.288.288 0 1 1 .285.5.289.289 0 0 1-.144.037.282.282 0 0 1-.247-.143zm1.004-.575a.291.291 0 0 1 .109-.394.288.288 0 1 1 .285.5.289.289 0 0 1-.144.037.289.289 0 0 1-.25-.143zm1.006-.575a.29.29 0 0 1 .106-.394.29.29 0 0 1 .394.106.29.29 0 0 1-.106.394.289.289 0 0 1-.144.037.285.285 0 0 1-.25-.143zm1.006-.575a.29.29 0 0 1 .106-.394.29.29 0 0 1 .394.106.29.29 0 0 1-.106.394.289.289 0 0 1-.144.037.288.288 0 0 1-.25-.143zm1.007-.575a.29.29 0 0 1 .106-.394.29.29 0 0 1 .394.106.29.29 0 0 1-.109.394.27.27 0 0 1-.141.037.282.282 0 0 1-.25-.143zm1.006-.575a.288.288 0 0 1 .106-.394.288.288 0 1 1 .285.5.278.278 0 0 1-.141.037.283.283 0 0 1-.25-.143zm1.006-.575a.287.287 0 0 1 .106-.394.286.286 0 0 1 .391.106.29.29 0 0 1-.106.394.286.286 0 0 1-.391-.106zm1.003-.575a.291.291 0 0 1 .109-.394.288.288 0 1 1 .285.5.296.296 0 0 1-.394-.106zm1.007-.578a.289.289 0 0 1 .106-.391.29.29 0 0 1 .394.106.29.29 0 0 1-.106.394.289.289 0 0 1-.144.037.287.287 0 0 1-.25-.146zm1.006-.572a.292.292 0 0 1 .106-.394.29.29 0 0 1 .394.106.293.293 0 0 1-.106.394.289.289 0 0 1-.144.037.288.288 0 0 1-.25-.143zm1.006-.575a.291.291 0 0 1 .106-.394.286.286 0 0 1 .391.106.289.289 0 0 1-.106.394.288.288 0 0 1-.391-.106zm1.007-.575a.289.289 0 0 1 .106-.394.286.286 0 0 1 .391.106.289.289 0 0 1-.106.394.287.287 0 0 1-.391-.106zm1.006-.576a.29.29 0 0 1 .106-.394.286.286 0 0 1 .391.106.292.292 0 0 1-.106.394.289.289 0 0 1-.144.037.283.283 0 0 1-.247-.143zm1.006-.575a.29.29 0 0 1 .104-.394.29.29 0 0 1 .394.106.292.292 0 0 1-.106.394.289.289 0 0 1-.144.037.283.283 0 0 1-.248-.143zm1.004-.575a.29.29 0 0 1 .106-.394.29.29 0 0 1 .394.106.292.292 0 0 1-.106.394.289.289 0 0 1-.144.037.288.288 0 0 1-.25-.143zm1.006-.575a.291.291 0 0 1 .106-.394.29.29 0 0 1 .394.106.292.292 0 0 1-.109.394.27.27 0 0 1-.141.037.284.284 0 0 1-.25-.143zm1.007-.575a.288.288 0 0 1 .106-.394.286.286 0 0 1 .391.106.29.29 0 0 1-.106.394.27.27 0 0 1-.141.037.282.282 0 0 1-.25-.143zm1.006-.575a.287.287 0 0 1 .106-.394.286.286 0 0 1 .391.106.29.29 0 0 1-.106.394.278.278 0 0 1-.141.037.284.284 0 0 1-.25-.143zm1.006-.575a.288.288 0 0 1 .106-.394.286.286 0 0 1 .391.106.29.29 0 0 1-.106.394.289.289 0 0 1-.144.037.283.283 0 0 1-.247-.143zm1.004-.575a.29.29 0 0 1 .106-.394.29.29 0 0 1 .394.106.292.292 0 0 1-.106.394.289.289 0 0 1-.144.037.285.285 0 0 1-.25-.143zm1.006-.575a.29.29 0 0 1 .106-.394.29.29 0 0 1 .394.106.292.292 0 0 1-.106.394.289.289 0 0 1-.144.037.286.286 0 0 1-.25-.143zm1.006-.575a.29.29 0 0 1 .106-.394.286.286 0 0 1 .391.106.286.286 0 0 1-.103.394.289.289 0 0 1-.144.037.288.288 0 0 1-.25-.143zm1.007-.575a.288.288 0 0 1 .106-.394.288.288 0 1 1 .285.5.278.278 0 0 1-.141.037.282.282 0 0 1-.25-.143zm1.006-.575a.287.287 0 0 1 .106-.394.288.288 0 1 1 .285.5.286.286 0 0 1-.141.037.283.283 0 0 1-.25-.143zm1.006-.575a.287.287 0 0 1 .106-.394.288.288 0 1 1 .285.5.289.289 0 0 1-.144.037.283.283 0 0 1-.247-.143zm1.254-.431a.29.29 0 0 1-.287-.287c0-.078.032-.15.086-.204.103-.106.296-.106.405 0a.292.292 0 0 1 0 .408.305.305 0 0 1-.204.083z"></path><path d="M78.435 68.783a.302.302 0 0 1-.204-.083.29.29 0 0 1 0-.408.298.298 0 0 1 .405 0 .293.293 0 0 1 .086.204.29.29 0 0 1-.287.287zm-1.147-.613a.29.29 0 0 1-.106-.394.29.29 0 0 1 .394-.106.288.288 0 1 1-.144.538.29.29 0 0 1-.144-.038zm-1.001-.575a.29.29 0 0 1-.106-.394.289.289 0 0 1 .5.288.29.29 0 0 1-.394.106zm-1-.575a.288.288 0 0 1-.106-.394.288.288 0 0 1 .497.288.287.287 0 0 1-.25.144.272.272 0 0 1-.141-.038zm-1.004-.575a.29.29 0 0 1-.106-.394.29.29 0 0 1 .394-.106.29.29 0 0 1 .106.394.29.29 0 0 1-.394.106zm-1-.575a.288.288 0 0 1-.106-.394.288.288 0 0 1 .497.288.287.287 0 0 1-.25.144.277.277 0 0 1-.141-.038zm-1.004-.575a.29.29 0 0 1-.106-.394.29.29 0 0 1 .394-.106.288.288 0 1 1-.144.538.29.29 0 0 1-.144-.038zm-1-.575a.29.29 0 0 1-.106-.394.288.288 0 0 1 .497.288.285.285 0 0 1-.247.144.29.29 0 0 1-.144-.038zm-1.001-.575a.288.288 0 0 1-.106-.394.286.286 0 0 1 .391-.106.29.29 0 0 1 .106.394.29.29 0 0 1-.25.144.281.281 0 0 1-.141-.038zm-1.004-.575a.29.29 0 0 1-.106-.394.29.29 0 0 1 .394-.106.293.293 0 0 1 .106.394.292.292 0 0 1-.25.144.301.301 0 0 1-.144-.038zm-1-.575a.288.288 0 0 1-.106-.394.288.288 0 0 1 .497.288.287.287 0 0 1-.25.144.281.281 0 0 1-.141-.038zm-1.004-.575a.293.293 0 0 1-.106-.394.29.29 0 0 1 .394-.106.29.29 0 0 1 .106.394.29.29 0 0 1-.25.144.301.301 0 0 1-.144-.038zm-1-.575a.29.29 0 0 1-.106-.394.288.288 0 0 1 .497.288.285.285 0 0 1-.247.144.301.301 0 0 1-.144-.038zm-1.004-.575a.29.29 0 0 1-.104-.394.286.286 0 0 1 .391-.106.29.29 0 0 1 .106.394.287.287 0 0 1-.25.144.303.303 0 0 1-.143-.038zm-1-.575a.29.29 0 0 1-.106-.394.29.29 0 0 1 .394-.106.29.29 0 0 1 .106.394.292.292 0 0 1-.25.144.301.301 0 0 1-.144-.038zm-1.001-.575a.288.288 0 0 1-.106-.394.288.288 0 0 1 .497.288.286.286 0 0 1-.25.144.281.281 0 0 1-.141-.038zm-1.003-.575a.29.29 0 0 1-.106-.394.29.29 0 0 1 .394-.106.29.29 0 0 1 .106.394.29.29 0 0 1-.25.144.301.301 0 0 1-.144-.038zm-1.001-.575a.287.287 0 1 1 .285-.5.288.288 0 0 1 .106.394.285.285 0 0 1-.247.144.301.301 0 0 1-.144-.038zm-1-.575a.285.285 0 0 1-.106-.394.286.286 0 0 1 .391-.106.29.29 0 0 1 .106.394.287.287 0 0 1-.25.144.281.281 0 0 1-.141-.038zm-1.004-.575a.29.29 0 0 1-.106-.394.29.29 0 0 1 .394-.106.29.29 0 0 1 .106.394.292.292 0 0 1-.25.144.313.313 0 0 1-.144-.038zm-1-.575a.288.288 0 0 1-.106-.394.288.288 0 0 1 .497.288.286.286 0 0 1-.25.144.301.301 0 0 1-.141-.038zm-1.004-.575a.29.29 0 0 1-.106-.394.29.29 0 0 1 .394-.106.29.29 0 0 1 .106.394.29.29 0 0 1-.25.144.313.313 0 0 1-.144-.038zm-1.001-.576a.288.288 0 0 1-.106-.394.288.288 0 0 1 .497.288.286.286 0 0 1-.25.144.29.29 0 0 1-.141-.038zm-1-.575a.291.291 0 0 1-.109-.394.29.29 0 0 1 .394-.106.29.29 0 0 1 .106.394.287.287 0 0 1-.25.144.272.272 0 0 1-.141-.038zm-1.003-.575a.29.29 0 0 1-.106-.394.29.29 0 0 1 .394-.106.29.29 0 0 1 .106.394.293.293 0 0 1-.25.144.287.287 0 0 1-.144-.038zm-1.001-.575a.288.288 0 0 1-.106-.394.288.288 0 0 1 .497.288.286.286 0 0 1-.25.144.272.272 0 0 1-.141-.038zm-1.003-.575a.29.29 0 0 1-.106-.394.29.29 0 0 1 .394-.106.29.29 0 0 1 .106.394.29.29 0 0 1-.25.144.287.287 0 0 1-.144-.038zm-1.001-.575a.288.288 0 0 1-.106-.394.288.288 0 0 1 .497.288.285.285 0 0 1-.247.144.29.29 0 0 1-.144-.038zm-1.003-.575a.29.29 0 0 1-.106-.394.29.29 0 0 1 .394-.106.288.288 0 1 1-.144.538.287.287 0 0 1-.144-.038zm-1.001-.575a.29.29 0 0 1-.106-.394.29.29 0 0 1 .394-.106.293.293 0 0 1 .106.394.29.29 0 0 1-.394.106zm-1.001-.575a.288.288 0 0 1-.106-.394.288.288 0 0 1 .497.288.286.286 0 0 1-.25.144.281.281 0 0 1-.141-.038zm-1.003-.575a.29.29 0 0 1-.106-.394.29.29 0 0 1 .394-.106.29.29 0 0 1 .106.394.29.29 0 0 1-.25.144.301.301 0 0 1-.144-.038zm-1.001-.575a.288.288 0 0 1-.106-.394.288.288 0 0 1 .497.288.286.286 0 0 1-.247.144.301.301 0 0 1-.144-.038zm-1.003-.575a.293.293 0 0 1-.106-.394.29.29 0 0 1 .394-.106.288.288 0 1 1-.144.538.301.301 0 0 1-.144-.038zm-1.001-.575a.287.287 0 1 1 .285-.5.288.288 0 0 1 .106.394.286.286 0 0 1-.247.144.301.301 0 0 1-.144-.038zm-1-.575a.288.288 0 0 1-.106-.394.288.288 0 0 1 .497.288.286.286 0 0 1-.25.144.281.281 0 0 1-.141-.038zm-1.004-.575a.29.29 0 0 1-.106-.394.29.29 0 0 1 .394-.106.29.29 0 0 1 .106.394.29.29 0 0 1-.25.144.301.301 0 0 1-.144-.038zm-1-.575a.288.288 0 0 1-.106-.394.288.288 0 0 1 .497.288.287.287 0 0 1-.25.144.29.29 0 0 1-.141-.038zm-.86-.538a.29.29 0 0 1-.287-.287c0-.078.032-.15.086-.204.103-.106.296-.106.405 0a.292.292 0 0 1 0 .408.292.292 0 0 1-.204.083z"></path><path d="M40.212 46.644h.575v43.991h-.575z" stroke="#000" stroke-width="2"></path><path d="M40.358 46.395L78.292 24.54l.287.498-37.934 21.855z" stroke="#000" stroke-width="2"></path><path d="M2.157 25.04l.287-.5L40.51 46.39l-.286.498z" stroke="#000" stroke-width="2"></path><path d="M40.368 90.966l-.144-.083-38.365-22.15V24.267l.144-.083 38.365-22.15 38.509 22.233v44.467l-.144.083-38.365 22.149zM2.434 68.401l37.934 21.901 37.934-21.901V24.598L40.368 2.697 2.434 24.598v43.803z" stroke="#000" stroke-width="2"></path></g></symbol><symbol id="icon-linkedin" viewbox="0 0 20 20"><path d="M18 0H2C.9 0 0 .9 0 2v16c0 1.1.9 2 2 2h16c1.1 0 2-.9 2-2V2c0-1.1-.9-2-2-2zM6.1 16H3V7.4h3.1V16zM4.5 6.4C3.6 6.4 3 5.8 3 5c0-.8.6-1.4 1.6-1.4.9 0 1.5.6 1.5 1.4 0 .8-.6 1.4-1.6 1.4zM17 16h-3.1v-4.7c0-1.3-.8-1.6-1.1-1.6-.3 0-1.3.2-1.3 1.6V16H8.4V7.4h3.1v1.2c.4-.7 1.2-1.2 2.7-1.2 1.5 0 2.7 1.2 2.7 3.9V16h.1z" fill-rule="evenodd" opacity=".578"></path></symbol><symbol id="icon-modal-background" viewbox="0 0 360 360"><title>icon-modal-background</title><g fill-rule="evenodd"><path d="M0 52.702l8.38-4.838A22.957 22.957 0 0 1 7 40c0-2.762.487-5.41 1.38-7.864L0 27.298v25.404zm0-39.16C6.501 6.176 15.673 1.222 26 .198v17.149a22.977 22.977 0 0 0-13.616 7.864L0 18.06v-4.52zm0 52.916c6.501 7.366 15.673 12.32 26 13.344V62.653a22.977 22.977 0 0 1-13.616-7.864L0 61.94v4.52zm34 13.344c11.713-1.162 21.94-7.378 28.47-16.437L47.616 54.79A22.977 22.977 0 0 1 34 62.653v17.15zm32.476-23.361A39.856 39.856 0 0 0 70 40c0-5.86-1.26-11.425-3.524-16.44l-14.855 8.576A22.957 22.957 0 0 1 53 40c0 2.762-.487 5.41-1.38 7.864l14.856 8.577zM62.47 16.635C55.94 7.576 45.713 1.36 34 .198v17.149a22.977 22.977 0 0 1 13.616 7.864l14.854-8.576zM0 50.392l5.976-3.45A25.013 25.013 0 0 1 5 40c0-2.409.34-4.738.976-6.942L0 29.608v20.784zm.503-34.35C6.275 8.943 14.559 3.969 24 2.47v13.254a24.974 24.974 0 0 0-12.018 6.944L.502 16.042zm0 47.916C6.275 71.057 14.559 76.031 24 77.53V64.275a24.974 24.974 0 0 1-12.018-6.944L.502 63.958zM36 77.53c9.441-1.498 17.725-6.472 23.497-13.57l-11.48-6.628A24.974 24.974 0 0 1 36 64.275V77.53zm29.505-23.958A37.911 37.911 0 0 0 68 40c0-4.781-.883-9.356-2.495-13.57l-11.481 6.628C54.659 35.262 55 37.591 55 40s-.34 4.738-.976 6.942l11.481 6.629zm-6.008-37.53C53.725 8.944 45.441 3.97 36 2.472v13.254a24.974 24.974 0 0 1 12.018 6.944l11.48-6.627zM0 85.017l4.624-4.265a47.84 47.84 0 0 0 7.323 3.738l-1.201 10.24 2.662.865 5.048-8.991a47.914 47.914 0 0 0 8.12 1.277L28.6 98h2.8l2.024-10.12a47.914 47.914 0 0 0 8.12-1.277l5.048 8.99 2.662-.864-1.2-10.24a47.84 47.84 0 0 0 7.322-3.738l7.583 6.995 2.265-1.646-4.311-9.378a48.294 48.294 0 0 0 5.809-5.81l9.378 4.312 1.646-2.265-6.995-7.583a47.84 47.84 0 0 0 3.738-7.323l10.24 1.201.865-2.662-8.991-5.048a47.914 47.914 0 0 0 1.277-8.12L88 41.4v-2.8l-10.12-2.024a47.914 47.914 0 0 0-1.277-8.12l8.99-5.048-.864-2.662-10.24 1.2a47.84 47.84 0 0 0-3.738-7.322l6.995-7.583L76.1 4.776l-9.378 4.311a48.294 48.294 0 0 0-5.81-5.809L62.42 0H0v85.016zm0 2.669l4.841-4.466a49.832 49.832 0 0 0 4.982 2.543L8.606 96.136l5.706 1.854 5.115-9.11c1.806.389 3.65.68 5.523.868L27 100h6l2.05-10.252a49.898 49.898 0 0 0 5.523-.868l5.115 9.11 5.706-1.854-1.217-10.374a49.832 49.832 0 0 0 4.982-2.543l7.681 7.085 4.854-3.526-4.368-9.503a50.31 50.31 0 0 0 3.95-3.95l9.502 4.37 3.526-4.855-7.085-7.681a49.832 49.832 0 0 0 2.543-4.982l10.374 1.217 1.854-5.706-9.11-5.115c.389-1.806.68-3.65.868-5.523L90 43v-6l-10.252-2.05a49.898 49.898 0 0 0-.868-5.523l9.11-5.115-1.854-5.706-10.374 1.217a49.832 49.832 0 0 0-2.543-4.982l7.085-7.681-3.526-4.854-9.503 4.368a50.31 50.31 0 0 0-3.95-3.95L64.579 0H0v87.685zM30 54c7.732 0 14-6.268 14-14s-6.268-14-14-14-14 6.268-14 14 6.268 14 14 14zm0-2c6.627 0 12-5.373 12-12s-5.373-12-12-12-12 5.373-12 12 5.373 12 12 12zm0-2c5.523 0 10-4.477 10-10s-4.477-10-10-10-10 4.477-10 10 4.477 10 10 10zm0-2a8 8 0 1 0 0-16 8 8 0 0 0 0 16zM122.67 92.049L122.168 86h-2.334l-.504 6.049a27.92 27.92 0 0 0-6.322 1.108l-2.54-5.506-2.192.798 1.594 5.851a27.97 27.97 0 0 0-5.556 3.214l-4.274-4.31-1.787 1.5 3.502 4.959a28.142 28.142 0 0 0-4.127 4.914l-5.489-2.587-1.166 2.02 4.982 3.458a27.8 27.8 0 0 0-2.196 6.032l-6.039-.553-.405 2.298 5.868 1.546a28.3 28.3 0 0 0 0 6.418l-5.868 1.546.405 2.298 6.04-.553a27.8 27.8 0 0 0 2.195 6.032l-4.982 3.458 1.166 2.02 5.49-2.587a28.142 28.142 0 0 0 4.126 4.914l-3.502 4.959 1.787 1.5 4.274-4.31a27.97 27.97 0 0 0 5.556 3.214l-1.594 5.85 2.193.799 2.54-5.506c2.02.6 4.137.98 6.321 1.108l.504 6.049h2.334l.504-6.049a27.92 27.92 0 0 0 6.322-1.108l2.54 5.506 2.192-.798-1.594-5.851a27.97 27.97 0 0 0 5.556-3.214l4.274 4.31 1.787-1.5-3.502-4.959a28.142 28.142 0 0 0 4.127-4.914l5.489 2.587 1.166-2.02-4.982-3.458a27.8 27.8 0 0 0 2.196-6.032l6.039.553.405-2.298-5.868-1.546a28.3 28.3 0 0 0 0-6.418l5.868-1.546-.405-2.298-6.04.553a27.8 27.8 0 0 0-2.195-6.032l4.982-3.458-1.166-2.02-5.49 2.587a28.142 28.142 0 0 0-4.126-4.914l3.502-4.959-1.787-1.5-4.274 4.31a27.97 27.97 0 0 0-5.556-3.214l1.594-5.85-2.193-.799-2.54 5.506a27.92 27.92 0 0 0-6.321-1.108zm-15.198 1.123a30.209 30.209 0 0 0-2.953 1.687l-4.346-4.377-4.626 3.881 3.532 5.006a30.21 30.21 0 0 0-2.224 2.615l-5.522-2.599-3.02 5.23 4.974 3.456a29.656 29.656 0 0 0-1.199 3.252l-6.017-.548-1.048 5.947 5.833 1.54a30.279 30.279 0 0 0 0 3.475l-5.833 1.54 1.048 5.948 6.017-.548a29.656 29.656 0 0 0 1.2 3.252l-4.975 3.456 3.02 5.23 5.522-2.6a30.21 30.21 0 0 0 2.224 2.616l-3.532 5.006 4.626 3.881 4.346-4.377a30.209 30.209 0 0 0 2.953 1.687l-1.622 5.968 5.675 2.066 2.606-5.642c1.088.252 2.2.445 3.33.576l.52 6.204h6.038l.52-6.204a30.27 30.27 0 0 0 3.33-.576l2.606 5.642 5.675-2.066-1.622-5.968a30.209 30.209 0 0 0 2.953-1.687l4.346 4.377 4.626-3.881-3.532-5.006a30.21 30.21 0 0 0 2.224-2.615l5.522 2.599 3.02-5.23-4.974-3.456c.46-1.054.86-2.14 1.199-3.252l6.017.548 1.048-5.947-5.833-1.54a30.28 30.28 0 0 0 0-3.475l5.833-1.54-1.048-5.948-6.017.548a29.657 29.657 0 0 0-1.2-3.252l4.975-3.456-3.02-5.23-5.522 2.6a30.21 30.21 0 0 0-2.224-2.616l3.532-5.006-4.626-3.881-4.346 4.377a30.209 30.209 0 0 0-2.953-1.687l1.622-5.968-5.675-2.066-2.606 5.642a30.27 30.27 0 0 0-3.33-.576L124.02 84h-6.038l-.52 6.204a30.27 30.27 0 0 0-3.33.576l-2.606-5.642-5.675 2.066 1.622 5.968zM121 128a8 8 0 1 0 0-16 8 8 0 0 0 0 16zm0-2a6 6 0 1 0 0-12 6 6 0 0 0 0 12zm0-18a5 5 0 1 0 0-10 5 5 0 0 0 0 10zm8.485 3.515a5 5 0 1 0 7.071-7.071 5 5 0 0 0-7.07 7.07zM133 120a5 5 0 1 0 10 0 5 5 0 0 0-10 0zm-3.515 8.485a5 5 0 1 0 7.071 7.071 5 5 0 0 0-7.07-7.07zM121 132a5 5 0 1 0 0 10 5 5 0 0 0 0-10zm-8.485-3.515a5 5 0 1 0-7.071 7.071 5 5 0 0 0 7.07-7.07zM109 120a5 5 0 1 0-10 0 5 5 0 0 0 10 0zm3.515-8.485a5 5 0 1 0-7.071-7.071 5 5 0 0 0 7.07 7.07zM121 106a3 3 0 1 0 0-6 3 3 0 0 0 0 6zm9.9 4.1a3 3 0 1 0 4.242-4.242 3 3 0 0 0-4.243 4.243zm4.1 9.9a3 3 0 1 0 6 0 3 3 0 0 0-6 0zm-4.1 9.9a3 3 0 1 0 4.242 4.242 3 3 0 0 0-4.243-4.243zM121 134a3 3 0 1 0 0 6 3 3 0 0 0 0-6zm-9.9-4.1a3 3 0 1 0-4.242 4.242 3 3 0 0 0 4.243-4.243zM107 120a3 3 0 1 0-6 0 3 3 0 0 0 6 0zm4.1-9.9a3 3 0 1 0-4.242-4.242 3 3 0 0 0 4.243 4.243zM218.639 113.197a35.181 35.181 0 0 0-11.442 11.442l5.2 3.002a29.152 29.152 0 0 1 9.244-9.244l-3.002-5.2zm1.73-1.001A34.818 34.818 0 0 1 236 108.014v6.003a28.846 28.846 0 0 0-12.628 3.378l-3.002-5.2zm-14.173 14.174a34.818 34.818 0 0 0-4.182 15.63h6.003a28.846 28.846 0 0 1 3.378-12.628l-5.2-3.002zM202.014 144a34.818 34.818 0 0 0 4.182 15.63l5.2-3.002a28.846 28.846 0 0 1-3.38-12.628h-6.002zm5.183 17.361a35.181 35.181 0 0 0 11.442 11.442l3.002-5.2a29.152 29.152 0 0 1-9.244-9.244l-5.2 3.002zm13.173 12.443a34.818 34.818 0 0 0 15.63 4.182v-6.003a28.846 28.846 0 0 1-12.628-3.378l-3.002 5.2zm17.63 4.182a34.818 34.818 0 0 0 15.63-4.182l-3.002-5.2a28.846 28.846 0 0 1-12.628 3.38v6.002zm17.361-5.183a35.181 35.181 0 0 0 11.442-11.442l-5.2-3.002a29.152 29.152 0 0 1-9.244 9.244l3.002 5.2zm12.443-13.173a34.818 34.818 0 0 0 4.182-15.63h-6.003a28.846 28.846 0 0 1-3.378 12.628l5.2 3.002zm4.182-17.63a34.818 34.818 0 0 0-4.182-15.63l-5.2 3.002a28.846 28.846 0 0 1 3.38 12.628h6.002zm-5.183-17.361a35.181 35.181 0 0 0-11.442-11.442l-3.002 5.2a29.152 29.152 0 0 1 9.244 9.244l5.2-3.002zM238 108.014a34.818 34.818 0 0 1 15.63 4.182l-3.002 5.2a28.846 28.846 0 0 0-12.628-3.38v-6.002zm-20.031 8.023a33.187 33.187 0 0 0-7.932 7.932l1.74 1.004a31.177 31.177 0 0 1 7.196-7.196l-1.004-1.74zm5.193-3.004A32.792 32.792 0 0 1 234 110.135v2.008a30.802 30.802 0 0 0-9.833 2.63l-1.005-1.74zm-16.13 16.13A32.792 32.792 0 0 0 204.136 140h2.008a30.802 30.802 0 0 1 2.63-9.833l-1.74-1.005zM204.136 146c.346 3.84 1.35 7.49 2.898 10.838l1.74-1.005a30.802 30.802 0 0 1-2.63-9.833h-2.008zm5.902 16.031a33.187 33.187 0 0 0 7.932 7.932l1.004-1.74a31.177 31.177 0 0 1-7.196-7.196l-1.74 1.004zm13.125 10.936A32.792 32.792 0 0 0 234 175.865v-2.008a30.802 30.802 0 0 1-9.833-2.63l-1.005 1.74zM240 175.865c3.84-.346 7.49-1.35 10.838-2.898l-1.005-1.74a30.802 30.802 0 0 1-9.833 2.63v2.008zm16.031-5.902a33.187 33.187 0 0 0 7.932-7.932l-1.74-1.004a31.177 31.177 0 0 1-7.196 7.196l1.004 1.74zm10.936-13.125A32.792 32.792 0 0 0 269.865 146h-2.008a30.802 30.802 0 0 1-2.63 9.833l1.74 1.005zM269.865 140a32.792 32.792 0 0 0-2.898-10.838l-1.74 1.005a30.802 30.802 0 0 1 2.63 9.833h2.008zm-5.902-16.031a33.187 33.187 0 0 0-7.932-7.932l-1.004 1.74a31.177 31.177 0 0 1 7.196 7.196l1.74-1.004zm-13.125-10.936A32.792 32.792 0 0 0 240 110.135v2.008a30.802 30.802 0 0 1 9.833 2.63l1.005-1.74zm-10.319-9.88L240 99l-1-4h-4l-1 4-.52 4.153a40.06 40.06 0 0 0-2.593.311l-1.511-3.91-1.938-3.64-3.881.969-.003 4.123.499 4.136c-.828.283-1.644.592-2.447.927l-2.414-3.432-2.761-3.063-3.532 1.878.995 4.001 1.483 3.89c-.733.471-1.45.967-2.15 1.484l-3.187-2.758-3.42-2.304-2.972 2.677 1.933 3.642 2.377 3.41a40.232 40.232 0 0 0-1.763 1.988l-3.678-1.945-3.85-1.475-2.294 3.276 2.703 3.114 3.119 2.82c-.43.757-.836 1.53-1.216 2.315l-4.042-.998-4.092-.5-1.434 3.735 3.376 2.367 3.697 1.976a39.72 39.72 0 0 0-.623 2.54l-4.174.01-4.092.504-.488 3.97 3.849 1.48 4.065 1.023a40.734 40.734 0 0 0 0 2.612l-4.065 1.023-3.849 1.48.488 3.97 4.092.505 4.174.009c.18.857.389 1.704.623 2.54l-3.697 1.976-3.376 2.367 1.434 3.735 4.092-.5 4.042-.998c.38.786.786 1.558 1.216 2.314l-3.12 2.821-2.702 3.114 2.294 3.276 3.85-1.475 3.678-1.945a40.232 40.232 0 0 0 1.763 1.988l-2.377 3.41-1.933 3.642 2.972 2.677 3.42-2.304 3.187-2.758c.7.517 1.417 1.013 2.15 1.485l-1.483 3.889-.995 4 3.532 1.879 2.76-3.063 2.415-3.432c.803.335 1.619.644 2.447.927l-.499 4.136.003 4.123 3.88.968 1.939-3.64 1.51-3.91a40.06 40.06 0 0 0 2.595.312L234 187l1 4h4l1-4 .52-4.153a40.06 40.06 0 0 0 2.593-.311l1.511 3.91 1.938 3.64 3.881-.969.003-4.123-.499-4.136a39.712 39.712 0 0 0 2.447-.927l2.414 3.432 2.761 3.063 3.532-1.878-.995-4.001-1.483-3.89c.733-.471 1.45-.967 2.15-1.484l3.187 2.758 3.42 2.304 2.972-2.677-1.933-3.642-2.377-3.41a40.232 40.232 0 0 0 1.763-1.988l3.678 1.945 3.85 1.475 2.294-3.276-2.703-3.114-3.119-2.82c.43-.757.836-1.53 1.216-2.315l4.042.998 4.092.5 1.434-3.735-3.376-2.367-3.697-1.976a39.72 39.72 0 0 0 .623-2.54l4.174-.01 4.092-.504.488-3.97-3.849-1.48-4.065-1.023a40.734 40.734 0 0 0 0-2.612l4.065-1.023 3.849-1.48-.488-3.97-4.092-.505-4.174-.009a39.72 39.72 0 0 0-.623-2.54l3.697-1.976 3.376-2.367-1.434-3.735-4.092.5-4.042.998a39.886 39.886 0 0 0-1.216-2.314l3.12-2.821 2.702-3.114-2.294-3.276-3.85 1.475-3.678 1.945a40.232 40.232 0 0 0-1.763-1.988l2.377-3.41 1.933-3.642-2.972-2.677-3.42 2.304-3.187 2.758a40.095 40.095 0 0 0-2.15-1.485l1.483-3.889.995-4-3.532-1.879-2.76 3.063-2.415 3.432a39.712 39.712 0 0 0-2.447-.927l.499-4.136-.003-4.123-3.88-.968-1.939 3.64-1.51 3.91a40.06 40.06 0 0 0-2.595-.312zm-14.3 3.398a37.731 37.731 0 0 0-5.295 2.007l-3.503-4.98-1.38-1.531-.883.47.497 2 2.163 5.673a38.089 38.089 0 0 0-4.656 3.216l-4.614-3.994-1.71-1.151-.743.669.966 1.82 3.472 4.982a38.217 38.217 0 0 0-3.791 4.277l-5.368-2.84-1.925-.737-.574.819 1.352 1.557 4.52 4.088a37.892 37.892 0 0 0-2.632 5.012l-5.893-1.455-2.046-.25-.359.933 1.688 1.184 5.367 2.868a37.742 37.742 0 0 0-1.35 5.499l-6.079.013-2.046.252-.122.993 1.924.74 5.905 1.486a38.54 38.54 0 0 0 0 5.658l-5.905 1.486-1.924.74.122.993 2.046.252 6.08.013c.314 1.884.767 3.72 1.349 5.499l-5.367 2.868-1.688 1.184.359.933 2.046-.25 5.893-1.455a37.892 37.892 0 0 0 2.632 5.012l-4.52 4.088-1.352 1.557.574.82 1.925-.738 5.368-2.84a38.217 38.217 0 0 0 3.791 4.277l-3.472 4.981-.966 1.821.743.67 1.71-1.152 4.614-3.994a38.089 38.089 0 0 0 4.656 3.216l-2.163 5.673-.497 2 .882.47 1.38-1.531 3.504-4.98c1.7.795 3.469 1.468 5.295 2.007l-.727 6.029.001 2.061.97.242.97-1.82 2.193-5.676c1.83.36 3.706.588 5.619.675L236 187l.5 2h1l.5-2 .755-6.04a38.068 38.068 0 0 0 5.62-.675l2.192 5.676.97 1.82.97-.242.001-2.061-.727-6.03a37.731 37.731 0 0 0 5.295-2.006l3.503 4.98 1.38 1.531.883-.47-.497-2-2.163-5.673a38.089 38.089 0 0 0 4.656-3.216l4.614 3.994 1.71 1.151.743-.669-.966-1.82-3.472-4.982a38.217 38.217 0 0 0 3.791-4.277l5.368 2.84 1.925.737.574-.819-1.352-1.557-4.52-4.088a37.892 37.892 0 0 0 2.632-5.012l5.893 1.455 2.046.25.359-.933-1.688-1.184-5.367-2.868a37.742 37.742 0 0 0 1.35-5.499l6.079-.013 2.046-.252.122-.993-1.924-.74-5.905-1.486a38.54 38.54 0 0 0 0-5.658l5.905-1.486 1.924-.74-.122-.993-2.046-.252-6.08-.013a37.742 37.742 0 0 0-1.349-5.499l5.367-2.868 1.688-1.184-.359-.933-2.046.25-5.893 1.455a37.892 37.892 0 0 0-2.632-5.012l4.52-4.088 1.352-1.557-.574-.82-1.925.738-5.368 2.84a38.217 38.217 0 0 0-3.791-4.277l3.472-4.981.966-1.821-.743-.67-1.71 1.152-4.614 3.994a38.089 38.089 0 0 0-4.656-3.216l2.163-5.673.497-2-.882-.47-1.38 1.531-3.504 4.98a37.731 37.731 0 0 0-5.295-2.007l.727-6.029-.001-2.061-.97-.242-.97 1.82-2.193 5.676a38.068 38.068 0 0 0-5.619-.675L238 99l-.5-2h-1l-.5 2-.755 6.04c-1.913.087-3.79.315-5.62.675l-2.192-5.676-.97-1.82-.97.242-.001 2.061.727 6.03zM237 156c7.18 0 13-5.82 13-13s-5.82-13-13-13-13 5.82-13 13 5.82 13 13 13zm0-2c6.075 0 11-4.925 11-11s-4.925-11-11-11-11 4.925-11 11 4.925 11 11 11zM137.153 27c1.4 13.62 12.227 24.447 25.847 25.847V38.7A15.018 15.018 0 0 1 151.3 27h-14.147zm12.563-27c-6.896 4.688-11.665 12.27-12.563 21H151.3A15.018 15.018 0 0 1 163 9.3V0h-13.284zM169 52.847c13.62-1.4 24.447-12.227 25.847-25.847H180.7A15.018 15.018 0 0 1 169 38.7v14.147zM182.284 0c6.896 4.688 11.665 12.27 12.563 21H180.7A15.018 15.018 0 0 0 169 9.3V0h13.284zm-42.822 29c2.041 10.903 10.635 19.497 21.538 21.538V40.253A17.039 17.039 0 0 1 149.747 29h-10.285zm14.156-29c-7.263 3.755-12.604 10.71-14.156 19h10.285A17.039 17.039 0 0 1 161 7.747V0h-7.382zM171 50.538c10.903-2.041 19.497-10.635 21.538-21.538h-10.285A17.039 17.039 0 0 1 171 40.253v10.285zM178.382 0c7.263 3.755 12.604 10.71 14.156 19h-10.285A17.039 17.039 0 0 0 171 7.747V0h7.382zm-40.839 0l.736 1.03a36.15 36.15 0 0 0-1.643 2.138l-7.741-2.9-2 3.464 6.377 5.25a35.77 35.77 0 0 0-1.034 2.495l-8.221-.797-1.035 3.864 7.522 3.422a36.014 36.014 0 0 0-.35 2.675L122 22v4l8.155 1.36c.083.9.2 1.793.349 2.674l-7.522 3.422 1.035 3.864 8.22-.797c.315.847.66 1.68 1.035 2.495l-6.377 5.25 2 3.464 7.741-2.9a36.15 36.15 0 0 0 1.643 2.138l-4.806 6.728 2.829 2.829 6.728-4.806a36.15 36.15 0 0 0 2.138 1.643l-2.9 7.741 3.464 2 5.25-6.377c.816.374 1.648.72 2.495 1.034l-.797 8.221 3.864 1.035 3.422-7.522c.881.15 1.773.266 2.675.35L164 68h4l1.36-8.155c.9-.083 1.793-.2 2.674-.349l3.422 7.522 3.864-1.035-.797-8.22a35.77 35.77 0 0 0 2.495-1.035l5.25 6.377 3.464-2-2.9-7.741a36.15 36.15 0 0 0 2.138-1.643l6.728 4.806 2.829-2.829-4.806-6.728a36.15 36.15 0 0 0 1.643-2.138l7.741 2.9 2-3.464-6.377-5.25a35.77 35.77 0 0 0 1.034-2.495l8.221.797 1.035-3.864-7.522-3.422c.15-.881.266-1.773.35-2.675L210 26v-4l-8.155-1.36c-.083-.9-.2-1.793-.349-2.674l7.522-3.422-1.035-3.864-8.22.797a35.77 35.77 0 0 0-1.035-2.495l6.377-5.25-2-3.464-7.741 2.9a36.15 36.15 0 0 0-1.643-2.138l.736-1.03h-56.914zm2.425 0l.836 1.17a34.139 34.139 0 0 0-3.38 4.4l-7.63-2.859-.334.578 6.288 5.176a33.787 33.787 0 0 0-2.126 5.128l-8.105-.785-.172.644 7.414 3.372a34.025 34.025 0 0 0-.719 5.503l-8.04 1.34v.666l8.04 1.34c.091 1.879.335 3.717.719 5.503l-7.414 3.372.172.644 8.105-.785a33.787 33.787 0 0 0 2.126 5.128l-6.288 5.176.334.578 7.63-2.859a34.139 34.139 0 0 0 3.38 4.4l-4.738 6.633.471.471 6.634-4.738a34.139 34.139 0 0 0 4.399 3.38l-2.859 7.63.578.334 5.176-6.288a33.787 33.787 0 0 0 5.128 2.126l-.785 8.105.644.172 3.372-7.414c1.786.384 3.624.628 5.503.719l1.34 8.04h.666l1.34-8.04a34.025 34.025 0 0 0 5.503-.719l3.372 7.414.644-.172-.785-8.105a33.787 33.787 0 0 0 5.128-2.126l5.176 6.288.578-.334-2.859-7.63a34.139 34.139 0 0 0 4.4-3.38l6.633 4.738.471-.471-4.738-6.634a34.139 34.139 0 0 0 3.38-4.399l7.63 2.859.334-.578-6.288-5.176a33.787 33.787 0 0 0 2.126-5.128l8.105.785.172-.644-7.414-3.372c.384-1.786.628-3.624.719-5.503l8.04-1.34v-.666l-8.04-1.34a34.025 34.025 0 0 0-.719-5.503l7.414-3.372-.172-.644-8.105.785a33.787 33.787 0 0 0-2.126-5.128l6.288-5.176-.334-.578-7.63 2.859a34.139 34.139 0 0 0-3.38-4.4l.836-1.17h-52.064zM166 34c5.523 0 10-4.477 10-10s-4.477-10-10-10-10 4.477-10 10 4.477 10 10 10zm0-2a8 8 0 1 0 0-16 8 8 0 0 0 0 16zM126.49 208.15A24.107 24.107 0 0 0 126 213c0 1.661.169 3.284.49 4.85l-10.667 7.954 6 10.392 12.227-5.263a23.974 23.974 0 0 0 8.396 4.854L144 249h12l1.554-13.213a23.974 23.974 0 0 0 8.396-4.854l12.227 5.263 6-10.392-10.667-7.954c.321-1.566.49-3.189.49-4.85 0-1.661-.169-3.284-.49-4.85l10.667-7.954-6-10.392-12.227 5.263a23.974 23.974 0 0 0-8.396-4.854L156 177h-12l-1.554 13.213a23.974 23.974 0 0 0-8.396 4.854l-12.227-5.263-6 10.392 10.667 7.954zm29.246-16.395l-1.5-12.755h-8.471l-1.5 12.755a21.977 21.977 0 0 0-9.79 5.658l-11.802-5.08-4.236 7.335 10.297 7.677A22.032 22.032 0 0 0 128 213c0 1.955.255 3.85.734 5.655l-10.297 7.677 4.236 7.336 11.802-5.08a21.977 21.977 0 0 0 9.79 5.657l1.5 12.755h8.47l1.5-12.755a21.977 21.977 0 0 0 9.79-5.658l11.802 5.08 4.236-7.335-10.297-7.677c.479-1.805.734-3.7.734-5.655s-.255-3.85-.734-5.655l10.297-7.677-4.236-7.336-11.802 5.08a21.977 21.977 0 0 0-9.79-5.657zM150 225c6.627 0 12-5.373 12-12s-5.373-12-12-12-12 5.373-12 12 5.373 12 12 12zm0-2c5.523 0 10-4.477 10-10s-4.477-10-10-10-10 4.477-10 10 4.477 10 10 10zM136.115 288.141A11.954 11.954 0 0 0 131 287c-1.83 0-3.563.41-5.115 1.141l3.013 5.217a6.006 6.006 0 0 1 2.102-.377c.74 0 1.448.133 2.102.377l3.013-5.217zm1.73 1.002A11.99 11.99 0 0 1 142.96 298h-6.023a6.013 6.013 0 0 0-2.102-3.64l3.012-5.217zm-13.69 0A11.99 11.99 0 0 0 119.04 298h6.023a6.013 6.013 0 0 1 2.102-3.64l-3.012-5.217zM119.04 300a11.99 11.99 0 0 0 5.113 8.857l3.012-5.217a6.013 6.013 0 0 1-2.102-3.64h-6.023zm6.844 9.859A11.954 11.954 0 0 0 131 311c1.83 0 3.563-.41 5.115-1.141l-3.013-5.217a6.006 6.006 0 0 1-2.102.377c-.74 0-1.448-.133-2.102-.377l-3.013 5.217zm11.96-1.002A11.99 11.99 0 0 0 142.96 300h-6.023a6.013 6.013 0 0 1-2.102 3.64l3.012 5.217zm-4.672-19.62a10.036 10.036 0 0 0-4.345 0l1.051 1.822a8.089 8.089 0 0 1 2.242 0l1.052-1.822zm5.195 3.002a9.99 9.99 0 0 1 2.174 3.761h-2.103a8.01 8.01 0 0 0-1.122-1.94l1.05-1.821zm-14.736 0a9.99 9.99 0 0 0-2.174 3.761h2.103a8.01 8.01 0 0 1 1.122-1.94l-1.05-1.821zM121.458 302a9.99 9.99 0 0 0 2.174 3.761l1.051-1.82a8.01 8.01 0 0 1-1.122-1.941h-2.103zm7.37 6.763a10.036 10.036 0 0 0 4.345 0l-1.052-1.822a8.089 8.089 0 0 1-2.242 0l-1.052 1.822zm9.54-3.002a9.99 9.99 0 0 0 2.174-3.761h-2.103a8.01 8.01 0 0 1-1.122 1.94l1.05 1.821zm15.164-15.044a23.847 23.847 0 0 0-.743-1.792l2.96-3.059-1-1.732-4.133 1.035a24.1 24.1 0 0 0-1.18-1.535l2.07-3.726-1.414-1.414-3.726 2.07a24.1 24.1 0 0 0-1.535-1.18l1.035-4.133-1.732-1-3.059 2.96a23.847 23.847 0 0 0-1.792-.743l-.07-4.255-1.932-.518-2.19 3.652a24.01 24.01 0 0 0-1.92-.25L132 271h-2l-1.17 4.097a24.01 24.01 0 0 0-1.921.25l-2.19-3.652-1.932.518-.07 4.255c-.61.224-1.207.472-1.792.743l-3.059-2.96-1.732 1 1.035 4.133a24.1 24.1 0 0 0-1.535 1.18l-3.726-2.07-1.414 1.414 2.07 3.726a24.1 24.1 0 0 0-1.18 1.535l-4.133-1.035-1 1.732 2.96 3.059c-.271.585-.52 1.183-.743 1.792l-4.255.07-.518 1.932 3.652 2.19a24.01 24.01 0 0 0-.25 1.92L103 298v2l4.097 1.17c.058.649.142 1.29.25 1.921l-3.652 2.19.518 1.932 4.255.07c.224.61.472 1.207.743 1.792l-2.96 3.059 1 1.732 4.133-1.035a24.1 24.1 0 0 0 1.18 1.535l-2.07 3.726 1.414 1.414 3.726-2.07a24.1 24.1 0 0 0 1.535 1.18l-1.035 4.133 1.732 1 3.059-2.96c.585.271 1.183.52 1.792.743l.07 4.255 1.932.518 2.19-3.652a24.01 24.01 0 0 0 1.92.25L130 327h2l1.17-4.097a24.01 24.01 0 0 0 1.921-.25l2.19 3.652 1.932-.518.07-4.255c.61-.224 1.207-.472 1.792-.743l3.059 2.96 1.732-1-1.035-4.133a24.1 24.1 0 0 0 1.535-1.18l3.726 2.07 1.414-1.414-2.07-3.726a24.1 24.1 0 0 0 1.18-1.535l4.133 1.035 1-1.732-2.96-3.059c.271-.585.52-1.183.743-1.792l4.255-.07.518-1.932-3.652-2.19a24.01 24.01 0 0 0 .25-1.92L159 300v-2l-4.097-1.17a24.01 24.01 0 0 0-.25-1.921l3.652-2.19-.518-1.932-4.255-.07zM109 299c0 12.15 9.85 22 22 22s22-9.85 22-22-9.85-22-22-22-22 9.85-22 22zm18 0a4 4 0 1 0 8 0 4 4 0 0 0-8 0zm2 0a2 2 0 1 0 4 0 2 2 0 0 0-4 0zm15 0a4 4 0 1 0 8 0 4 4 0 0 0-8 0zm2 0a2 2 0 1 0 4 0 2 2 0 0 0-4 0zm-8.5 11.258a4 4 0 1 0 4 6.929 4 4 0 0 0-4-6.929zm-13 0a4 4 0 1 0-4 6.929 4 4 0 0 0 4-6.929zM118 299a4 4 0 1 0-8 0 4 4 0 0 0 8 0zm6.5-11.258a4 4 0 1 0-4-6.929 4 4 0 0 0 4 6.929zm13 0a4 4 0 1 0 4-6.929 4 4 0 0 0-4 6.929zm1 24.248a2 2 0 1 0 2 3.464 2 2 0 0 0-2-3.464zm-15 0a2 2 0 1 0-2 3.464 2 2 0 0 0 2-3.464zM116 299a2 2 0 1 0-4 0 2 2 0 0 0 4 0zm7.5-12.99a2 2 0 1 0-2-3.464 2 2 0 0 0 2 3.464zm15 0a2 2 0 1 0 2-3.464 2 2 0 0 0-2 3.464zM248.997 275.802A13.962 13.962 0 0 0 248 281c0 1.837.354 3.59.997 5.198l-33.873 19.556C211.214 298.366 209 289.941 209 281s2.214-17.366 6.124-24.754l33.873 19.556zm2.002-3.463a13.987 13.987 0 0 1 9.001-5.197v-39.105c-18.067.67-33.822 10.384-42.873 24.746L251 272.34zm0 17.322a13.987 13.987 0 0 0 9.001 5.197v39.105c-18.067-.67-33.822-10.384-42.873-24.746L251 289.66zM264 294.858c3.64-.52 6.827-2.44 9-5.197l33.873 19.556c-9.05 14.362-24.806 24.076-42.873 24.746v-39.105zm11.003-8.66c.643-1.607.997-3.361.997-5.198 0-1.837-.354-3.59-.997-5.198l33.873-19.556C312.786 263.634 315 272.059 315 281s-2.214 17.366-6.124 24.754l-33.873-19.556zm-2.002-13.859a13.987 13.987 0 0 0-9.001-5.197v-39.105c18.067.67 33.822 10.384 42.873 24.746L273 272.34zm-57.043-13.302A50.8 50.8 0 0 0 211 281a50.8 50.8 0 0 0 4.958 21.963l30.622-17.679c-.378-1.364-.58-2.8-.58-4.284s.202-2.92.58-4.284l-30.622-17.68zm4.007-6.925c8.486-12.325 22.253-20.733 38.035-21.957v35.35a15.983 15.983 0 0 0-7.416 4.285l-30.62-17.678zm0 57.776c8.486 12.325 22.253 20.733 38.035 21.957v-35.35a15.983 15.983 0 0 1-7.416-4.285l-30.62 17.678zM266 331.845c15.782-1.224 29.549-9.632 38.035-21.957l-30.619-17.678a15.983 15.983 0 0 1-7.416 4.286v35.35zm42.042-28.882A50.8 50.8 0 0 0 313 281a50.8 50.8 0 0 0-4.958-21.963l-30.622 17.679c.378 1.364.58 2.8.58 4.284s-.202 2.92-.58 4.284l30.622 17.68zm-4.007-50.85c-8.486-12.326-22.253-20.734-38.035-21.958v35.35c2.86.735 5.41 2.242 7.416 4.285l30.62-17.678zm-59.618-26.4a57.638 57.638 0 0 0-9.076 3.763l-5.186-6.3-2.31 1.333 2.865 7.647a58.236 58.236 0 0 0-7.786 5.982l-6.65-4.75-1.886 1.886 4.75 6.65a58.236 58.236 0 0 0-5.982 7.786l-7.647-2.865-1.333 2.31 6.3 5.186a57.638 57.638 0 0 0-3.763 9.076l-8.119-.787-.69 2.576 7.428 3.38a58.044 58.044 0 0 0-1.271 9.737L196 279.667v2.666l8.06 1.344c.152 3.327.583 6.58 1.272 9.738l-7.428 3.38.69 2.575 8.119-.787a57.638 57.638 0 0 0 3.763 9.076l-6.3 5.186 1.333 2.31 7.647-2.865a58.236 58.236 0 0 0 5.982 7.786l-4.75 6.65 1.886 1.886 6.65-4.75a58.236 58.236 0 0 0 7.786 5.982l-2.865 7.647 2.31 1.333 5.186-6.3a57.638 57.638 0 0 0 9.076 3.763l-.787 8.119 2.576.69 3.38-7.428a58.044 58.044 0 0 0 9.737 1.271l1.344 8.061h2.666l1.344-8.06a58.044 58.044 0 0 0 9.738-1.272l3.38 7.428 2.575-.69-.787-8.119a57.638 57.638 0 0 0 9.076-3.763l5.186 6.3 2.31-1.333-2.865-7.647a58.236 58.236 0 0 0 7.786-5.982l6.65 4.75 1.886-1.886-4.75-6.65a58.236 58.236 0 0 0 5.982-7.786l7.647 2.865 1.333-2.31-6.3-5.186a57.638 57.638 0 0 0 3.763-9.076l8.119.787.69-2.576-7.428-3.38a58.044 58.044 0 0 0 1.271-9.737l8.061-1.344v-2.666l-8.06-1.344a58.044 58.044 0 0 0-1.272-9.738l7.428-3.38-.69-2.575-8.119.787a57.638 57.638 0 0 0-3.763-9.076l6.3-5.186-1.333-2.31-7.647 2.865a58.236 58.236 0 0 0-5.982-7.786l4.75-6.65-1.886-1.886-6.65 4.75a58.236 58.236 0 0 0-7.786-5.982l2.865-7.647-2.31-1.333-5.186 6.3a57.638 57.638 0 0 0-9.076-3.763l.787-8.119-2.576-.69-3.38 7.428a58.044 58.044 0 0 0-9.737-1.271L263.333 215h-2.666l-1.344 8.06c-3.327.152-6.58.583-9.738 1.272l-3.38-7.428-2.575.69.787 8.119zm-2.118-1.404a59.62 59.62 0 0 0-6.453 2.676l-5.248-6.375-5.196 3 2.9 7.74a60.248 60.248 0 0 0-5.534 4.252l-6.73-4.807-4.243 4.243 4.807 6.73a60.248 60.248 0 0 0-4.252 5.534l-7.74-2.9-3 5.196 6.375 5.248a59.62 59.62 0 0 0-2.676 6.453l-8.215-.796-1.553 5.795 7.518 3.42a60.032 60.032 0 0 0-.903 6.923L194 278v6l8.156 1.36c.168 2.347.472 4.657.903 6.922l-7.518 3.42 1.553 5.795 8.215-.796a59.62 59.62 0 0 0 2.676 6.453l-6.375 5.248 3 5.196 7.74-2.9a60.248 60.248 0 0 0 4.252 5.534l-4.807 6.73 4.243 4.243 6.73-4.807a60.248 60.248 0 0 0 5.534 4.252l-2.9 7.74 5.196 3 5.248-6.375a59.62 59.62 0 0 0 6.453 2.676l-.796 8.215 5.795 1.553 3.42-7.518c2.265.43 4.575.735 6.923.903L259 349h6l1.36-8.156a60.032 60.032 0 0 0 6.922-.903l3.42 7.518 5.795-1.553-.796-8.215a59.62 59.62 0 0 0 6.453-2.676l5.248 6.375 5.196-3-2.9-7.74a60.248 60.248 0 0 0 5.534-4.252l6.73 4.807 4.243-4.243-4.807-6.73a60.248 60.248 0 0 0 4.252-5.534l7.74 2.9 3-5.196-6.375-5.248a59.62 59.62 0 0 0 2.676-6.453l8.215.796 1.553-5.795-7.518-3.42c.43-2.265.735-4.575.903-6.923L330 284v-6l-8.156-1.36a60.032 60.032 0 0 0-.903-6.922l7.518-3.42-1.553-5.795-8.215.796a59.62 59.62 0 0 0-2.676-6.453l6.375-5.248-3-5.196-7.74 2.9a60.248 60.248 0 0 0-4.252-5.534l4.807-6.73-4.243-4.243-6.73 4.807a60.248 60.248 0 0 0-5.534-4.252l2.9-7.74-5.196-3-5.248 6.375a59.62 59.62 0 0 0-6.453-2.676l.796-8.215-5.795-1.553-3.42 7.518a60.032 60.032 0 0 0-6.923-.903L265 213h-6l-1.36 8.156a60.032 60.032 0 0 0-6.922.903l-3.42-7.518-5.795 1.553.796 8.215zM262 290a9 9 0 1 0 0-18 9 9 0 0 0 0 18zm0-2a7 7 0 1 0 0-14 7 7 0 0 0 0 14zM0 244.514l1.76.254 6.41 3.071a36.184 36.184 0 0 1 4.798-5.711l-4.14-5.782-1.01-3.07 1.227-1.028 2.847 1.527 4.974 5.078a35.962 35.962 0 0 1 6.458-3.735l-1.91-6.84.101-3.23 1.504-.547 2.154 2.408 2.933 6.468a35.892 35.892 0 0 1 7.349-1.288L36 225l1.2-3h1.6l1.2 3 .545 7.089c2.53.176 4.99.615 7.349 1.288l2.933-6.468 2.154-2.408 1.504.547.101 3.23-1.91 6.84a35.962 35.962 0 0 1 6.458 3.735l4.974-5.078 2.847-1.527 1.226 1.028-1.009 3.07-4.14 5.782a36.184 36.184 0 0 1 4.797 5.711l6.41-3.071 3.198-.46.8 1.385-1.998 2.54-5.86 4.012a35.741 35.741 0 0 1 2.552 7.012l7.068-.693 3.163.66.278 1.576-2.746 1.703-6.885 1.767a36.419 36.419 0 0 1 0 7.46l6.885 1.767 2.746 1.703-.278 1.576-3.163.66-7.068-.693a35.741 35.741 0 0 1-2.553 7.012l5.861 4.013 1.998 2.54-.8 1.385-3.198-.46-6.41-3.072a36.184 36.184 0 0 1-4.797 5.711l4.14 5.782 1.01 3.07-1.227 1.028-2.847-1.527-4.974-5.078a35.962 35.962 0 0 1-6.458 3.735l1.91 6.84-.101 3.23-1.504.547-2.154-2.408-2.933-6.468a35.892 35.892 0 0 1-7.349 1.288L40 311l-1.2 3h-1.6l-1.2-3-.545-7.089a35.892 35.892 0 0 1-7.349-1.288l-2.933 6.468-2.154 2.408-1.504-.547-.101-3.23 1.91-6.84a35.962 35.962 0 0 1-6.458-3.735l-4.974 5.078-2.847 1.527-1.226-1.028 1.009-3.07 4.14-5.782a36.184 36.184 0 0 1-4.797-5.711l-6.41 3.071-1.761.254v-3.882l5.622-3.849a35.741 35.741 0 0 1-2.553-7.012L0 277.044v-4.752l2.19-.562a36.419 36.419 0 0 1 0-7.46L0 263.708v-4.752l3.07.3a35.741 35.741 0 0 1 2.552-7.011L0 248.395v-3.88zm0-1.876l2.76.398 4.753 2.277a38.2 38.2 0 0 1 2.852-3.396l-3.069-4.286-1.682-5.116 3.064-2.57 4.746 2.544 3.686 3.763a37.96 37.96 0 0 1 3.84-2.221l-1.416-5.07.17-5.382 3.758-1.368 3.59 4.014 2.174 4.793a37.87 37.87 0 0 1 4.37-.766L34 225l2-5h4l2 5 .404 5.252a37.87 37.87 0 0 1 4.37.766l2.174-4.793 3.59-4.014 3.758 1.368.17 5.382-1.416 5.07a37.96 37.96 0 0 1 3.84 2.221l3.686-3.763 4.746-2.545 3.064 2.571-1.682 5.116-3.069 4.286a38.2 38.2 0 0 1 2.852 3.396l4.752-2.277 5.33-.768 2 3.464-3.33 4.232-4.342 2.973a37.72 37.72 0 0 1 1.519 4.17l5.236-.513 5.271 1.101.695 3.94-4.577 2.837-5.105 1.311a38.599 38.599 0 0 1 0 4.434l5.105 1.31 4.577 2.838-.695 3.94-5.27 1.101-5.237-.513a37.72 37.72 0 0 1-1.519 4.17l4.342 2.973 3.33 4.232-2 3.464-5.33-.768-4.752-2.277a38.2 38.2 0 0 1-2.852 3.396l3.069 4.286 1.682 5.116-3.064 2.57-4.746-2.544-3.686-3.763a37.96 37.96 0 0 1-3.84 2.221l1.416 5.07-.17 5.382-3.758 1.368-3.59-4.014-2.174-4.793a37.87 37.87 0 0 1-4.37.766L42 311l-2 5h-4l-2-5-.404-5.252a37.87 37.87 0 0 1-4.37-.766l-2.174 4.793-3.59 4.014-3.758-1.368-.17-5.382 1.416-5.07a37.96 37.96 0 0 1-3.84-2.221l-3.686 3.763-4.746 2.545-3.064-2.571 1.682-5.116 3.069-4.286a38.2 38.2 0 0 1-2.852-3.396l-4.752 2.277-2.761.398v-8.174l3.103-2.125a37.72 37.72 0 0 1-1.519-4.17L0 279.048v-8.815l.064-.016a38.599 38.599 0 0 1 0-4.434L0 265.767v-8.815l1.584.155a37.72 37.72 0 0 1 1.519-4.17L0 250.812v-8.174zM38 272a4 4 0 1 0 0-8 4 4 0 0 0 0 8zm0-2a2 2 0 1 0 0-4 2 2 0 0 0 0 4zm0-26a4 4 0 1 0 0-8 4 4 0 0 0 0 8zm24 24a4 4 0 1 0 8 0 4 4 0 0 0-8 0zm-24 24a4 4 0 1 0 0 8 4 4 0 0 0 0-8zm-24-24a4 4 0 1 0-8 0 4 4 0 0 0 8 0zm24-26a2 2 0 1 0 0-4 2 2 0 0 0 0 4zm26 26a2 2 0 1 0 4 0 2 2 0 0 0-4 0zm-26 26a2 2 0 1 0 0 4 2 2 0 0 0 0-4zm-26-26a2 2 0 1 0-4 0 2 2 0 0 0 4 0zm3.373 22.627c4.686 4.687 12.284 4.687 16.97 0 4.686-4.686 4.686-12.284 0-16.97-4.686-4.686-12.284-4.686-16.97 0-4.687 4.686-4.687 12.284 0 16.97zm0-45.254c-4.687 4.686-4.687 12.284 0 16.97 4.686 4.686 12.284 4.686 16.97 0 4.686-4.686 4.686-12.284 0-16.97-4.686-4.687-12.284-4.687-16.97 0zm45.254 0c-4.686-4.687-12.284-4.687-16.97 0-4.686 4.686-4.686 12.284 0 16.97 4.686 4.686 12.284 4.686 16.97 0 4.687-4.686 4.687-12.284 0-16.97zm0 45.254c4.687-4.686 4.687-12.284 0-16.97-4.686-4.686-12.284-4.686-16.97 0-4.686 4.686-4.686 12.284 0 16.97 4.686 4.687 12.284 4.687 16.97 0zM45.071 260.93c3.905 3.905 10.237 3.905 14.142 0 3.905-3.905 3.905-10.237 0-14.142-3.905-3.905-10.237-3.905-14.142 0-3.905 3.905-3.905 10.237 0 14.142zm0 14.142c-3.905 3.905-3.905 10.237 0 14.142 3.905 3.905 10.237 3.905 14.142 0 3.905-3.905 3.905-10.237 0-14.142-3.905-3.905-10.237-3.905-14.142 0zm-14.142 0c-3.905-3.905-10.237-3.905-14.142 0-3.905 3.905-3.905 10.237 0 14.142 3.905 3.905 10.237 3.905 14.142 0 3.905-3.905 3.905-10.237 0-14.142zm0-14.142c3.905-3.905 3.905-10.237 0-14.142-3.905-3.905-10.237-3.905-14.142 0-3.905 3.905-3.905 10.237 0 14.142 3.905 3.905 10.237 3.905 14.142 0zM261.822 15.539c-1.043.362-2.059.784-3.042 1.261l-2.914-3.013-1.732 1 1.154 4.034c-.91.617-1.78 1.287-2.609 2.004l-3.6-2.16-1.414 1.415 2.16 3.6c-.717.828-1.387 1.699-2.004 2.608l-4.034-1.154-1 1.732 3.013 2.914c-.477.983-.9 1.999-1.261 3.042l-4.19-.07-.517 1.932 3.665 2.035a28.015 28.015 0 0 0-.425 3.263L239 41v2l4.072 1.018c.078 1.107.222 2.196.425 3.263l-3.665 2.035.517 1.932 4.19-.07c.362 1.043.784 2.059 1.261 3.042l-3.013 2.914 1 1.732 4.034-1.154c.617.91 1.287 1.78 2.004 2.609l-2.16 3.6 1.415 1.414 3.6-2.16c.828.717 1.699 1.387 2.608 2.004l-1.154 4.034 1.732 1 2.914-3.013c.983.477 1.999.9 3.042 1.261l-.07 4.19 1.932.517 2.035-3.665c1.067.203 2.156.347 3.263.425L270 74h2l1.018-4.072a28.015 28.015 0 0 0 3.263-.425l2.035 3.665 1.932-.517-.07-4.19a27.823 27.823 0 0 0 3.042-1.261l2.914 3.013 1.732-1-1.154-4.034c.91-.617 1.78-1.287 2.609-2.004l3.6 2.16 1.414-1.415-2.16-3.6c.717-.828 1.387-1.699 2.004-2.608l4.034 1.154 1-1.732-3.013-2.914c.477-.983.9-1.999 1.261-3.042l4.19.07.517-1.932-3.665-2.035c.203-1.067.347-2.156.425-3.263L303 43v-2l-4.072-1.018a28.015 28.015 0 0 0-.425-3.263l3.665-2.035-.517-1.932-4.19.07a27.823 27.823 0 0 0-1.261-3.042l3.013-2.914-1-1.732-4.034 1.154a28.116 28.116 0 0 0-2.004-2.609l2.16-3.6-1.415-1.414-3.6 2.16a28.115 28.115 0 0 0-2.608-2.004l1.154-4.034-1.732-1-2.914 3.013c-.983-.477-1.999-.9-3.042-1.261l.07-4.19-1.932-.517-2.035 3.665a28.015 28.015 0 0 0-3.263-.425L272 10h-2l-1.018 4.072a28.015 28.015 0 0 0-3.263.425l-2.035-3.665-1.932.517.07 4.19zM271 68c14.36 0 26-11.64 26-26s-11.64-26-26-26-26 11.64-26 26 11.64 26 26 26zm0-9c9.389 0 17-7.611 17-17s-7.611-17-17-17-17 7.611-17 17 7.611 17 17 17zm0-2c8.284 0 15-6.716 15-15 0-8.284-6.716-15-15-15-8.284 0-15 6.716-15 15 0 8.284 6.716 15 15 15zm0-8a7 7 0 1 0 0-14 7 7 0 0 0 0 14zm0-2a5 5 0 1 0 0-10 5 5 0 0 0 0 10zm0-14a2 2 0 1 0 0-4 2 2 0 0 0 0 4zm9 9a2 2 0 1 0 4 0 2 2 0 0 0-4 0zm-9 9a2 2 0 1 0 0 4 2 2 0 0 0 0-4zm-9-9a2 2 0 1 0-4 0 2 2 0 0 0 4 0zM309.933 95.785c-.284.33-.54.683-.769 1.056l-4.268-.5-.618 1.902 3.748 2.104a8.109 8.109 0 0 0 0 1.306l-3.748 2.104.618 1.902 4.268-.5c.228.373.485.726.77 1.056l-1.796 3.905 1.618 1.176 3.158-2.913c.399.167.814.303 1.243.404L315 113h2l.843-4.213a7.939 7.939 0 0 0 1.243-.404l3.158 2.913 1.618-1.176-1.795-3.905c.284-.33.54-.683.769-1.056l4.268.5.618-1.902-3.748-2.104a8.109 8.109 0 0 0 0-1.306l3.748-2.104-.618-1.902-4.268.5a8.026 8.026 0 0 0-.77-1.056l1.796-3.905-1.618-1.176-3.158 2.913a7.939 7.939 0 0 0-1.243-.404L317 89h-2l-.843 4.213a7.939 7.939 0 0 0-1.243.404l-3.158-2.913-1.618 1.176 1.795 3.905zM316 106a5 5 0 1 0 0-10 5 5 0 0 0 0 10zM75.734 179.206a10.06 10.06 0 0 0-1.528 1.528l-2.098-.6-1 1.732 1.567 1.515a9.93 9.93 0 0 0-.559 2.09L70 186v2l2.116.529c.111.725.3 1.425.559 2.09l-1.567 1.515 1 1.732 2.098-.6a10.06 10.06 0 0 0 1.528 1.528l-.6 2.098 1.732 1 1.515-1.567a9.93 9.93 0 0 0 2.09.559L81 199h2l.529-2.116a9.93 9.93 0 0 0 2.09-.559l1.515 1.567 1.732-1-.6-2.098a10.06 10.06 0 0 0 1.528-1.528l2.098.6 1-1.732-1.567-1.515a9.93 9.93 0 0 0 .559-2.09L94 188v-2l-2.116-.529a9.93 9.93 0 0 0-.559-2.09l1.567-1.515-1-1.732-2.098.6a10.06 10.06 0 0 0-1.528-1.528l.6-2.098-1.732-1-1.515 1.567a9.93 9.93 0 0 0-2.09-.559L83 175h-2l-.529 2.116a9.93 9.93 0 0 0-2.09.559l-1.515-1.567-1.732 1 .6 2.098zm2.146.935a8.04 8.04 0 0 0-2.739 2.739l-.146.253A7.964 7.964 0 0 0 74 187c0 1.403.36 2.72.995 3.867l.146.253a8.04 8.04 0 0 0 2.739 2.739l.253.146A7.964 7.964 0 0 0 82 195c1.403 0 2.72-.36 3.867-.995l.253-.146a8.04 8.04 0 0 0 2.739-2.739l.146-.253A7.964 7.964 0 0 0 90 187c0-1.403-.36-2.72-.995-3.867l-.146-.253a8.04 8.04 0 0 0-2.739-2.739l-.253-.146A7.964 7.964 0 0 0 82 179c-1.403 0-2.72.36-3.867.995l-.253.146zM82 193a6 6 0 1 0 0-12 6 6 0 0 0 0 12zm0-2a4 4 0 1 0 0-8 4 4 0 0 0 0 8zM360 139.08a24.94 24.94 0 0 0-3.558 1.912l3.558 3.8v-5.712zm0 22.678l-14.172 6.646A25.038 25.038 0 0 1 345 162c0-7.82 3.59-14.8 9.211-19.384L360 153.113v8.645zm0 23.162a25.085 25.085 0 0 1-13.32-13.893l13.32-2.559v16.452zm0-43.638c-.13.063-.26.127-.388.192l.388.414v-.606zm0 18.284l-12.73 5.97A23.177 23.177 0 0 1 347 162c0-6.328 2.556-12.06 6.691-16.218l6.309 11.44v2.344zm0 23.152a23.098 23.098 0 0 1-10.469-10.218L360 170.49v12.23zm0 7.928l-4.46 6.58-4.109-2.004 2.535-7.862a30.135 30.135 0 0 1-5.124-4.091l-7.085 4.235-2.877-3.553 5.652-6.088a29.873 29.873 0 0 1-2.826-5.867l-8.236.702-1.028-4.455 7.733-2.988a30.336 30.336 0 0 1 0-6.51l-7.733-2.988 1.028-4.455 8.236.702a29.873 29.873 0 0 1 2.826-5.867l-5.652-6.088 2.877-3.553 7.085 4.235a30.135 30.135 0 0 1 5.124-4.091l-2.535-7.862 4.109-2.004 4.46 6.58v57.292zm0 3.537l-3.792 5.594-7.19-3.507 2.602-8.071a32.15 32.15 0 0 1-3.074-2.456l-7.27 4.346-5.034-6.217 5.816-6.265a31.862 31.862 0 0 1-1.693-3.512l-8.458.72-1.8-7.795 7.951-3.073a32.497 32.497 0 0 1 0-3.894l-7.951-3.073 1.8-7.795 8.458.72a31.862 31.862 0 0 1 1.693-3.512l-5.816-6.265 5.035-6.217 7.27 4.346a32.15 32.15 0 0 1 3.073-2.456l-2.602-8.071 7.19-3.507 3.792 5.594v64.366zM34.172 168.404c.54-2.044.828-4.19.828-6.404 0-7.82-3.59-14.8-9.211-19.384l-8.672 15.726c.386.75.657 1.57.79 2.434l16.265 7.628zm-.851 2.623c-3.463 8.939-11.916 15.39-21.941 15.936l2.227-17.82c.77-.39 1.468-.9 2.07-1.506l17.644 3.39zM0 139.08A24.916 24.916 0 0 1 10 137c4.997 0 9.652 1.466 13.558 3.992l-12.278 13.11a8.058 8.058 0 0 0-2.56 0L0 144.792v-5.712zm0 22.678l2.093-.982a7.944 7.944 0 0 1 .79-2.434L0 153.113v8.645zm0 23.162a24.868 24.868 0 0 0 8.62 2.043l-2.227-17.82c-.77-.39-1.468-.9-2.07-1.506L0 168.468v16.452zm0-43.638A22.908 22.908 0 0 1 10 139c3.738 0 7.268.892 10.388 2.474l-9.871 10.54a10.164 10.164 0 0 0-1.034 0L0 141.887v-.606zm0 18.284l.34-.16c.09-.336.197-.665.32-.986L0 157.223v2.343zm0 23.152a22.835 22.835 0 0 0 6.339 1.992l-1.79-14.326c-.29-.188-.57-.391-.837-.608L0 170.489v12.23zm13.661 1.992c7.343-1.174 13.525-5.824 16.808-12.21l-14.18-2.724c-.268.217-.548.42-.837.608l-1.79 14.326zm19.069-19.174c.178-1.153.27-2.334.27-3.536 0-6.328-2.556-12.06-6.691-16.218L19.34 158.42c.123.321.23.65.32.987l13.07 6.129zM0 133.354l.193.285c2.027-.7 4.153-1.19 6.35-1.442L7.714 124h4.572l1.17 8.197c2.198.252 4.324.742 6.35 1.442l4.654-6.865 4.109 2.004-2.535 7.862a30.136 30.136 0 0 1 5.124 4.091l7.085-4.235 2.877 3.553-5.652 6.088a29.873 29.873 0 0 1 2.826 5.867l8.236-.702 1.028 4.455-7.733 2.988a30.336 30.336 0 0 1 0 6.51l7.733 2.988-1.028 4.455-8.236-.702a29.873 29.873 0 0 1-2.826 5.867l5.652 6.088-2.877 3.553-7.085-4.235a30.136 30.136 0 0 1-5.124 4.091l2.535 7.862-4.109 2.004-4.653-6.865c-2.027.7-4.153 1.19-6.35 1.442L12.286 200H7.714l-1.17-8.197a29.824 29.824 0 0 1-6.35-1.442l-.194.285v-57.292zm0-3.537l.995 1.468a31.8 31.8 0 0 1 3.802-.864L6 122h8l1.203 8.42a31.8 31.8 0 0 1 3.802.865l4.787-7.062 7.19 3.507-2.602 8.071a32.15 32.15 0 0 1 3.074 2.456l7.27-4.346 5.034 6.217-5.816 6.265a31.862 31.862 0 0 1 1.693 3.512l8.458-.72 1.8 7.795-7.951 3.073a32.496 32.496 0 0 1 0 3.894l7.951 3.073-1.8 7.795-8.458-.72a31.862 31.862 0 0 1-1.693 3.512l5.816 6.265-5.035 6.217-7.27-4.346a32.15 32.15 0 0 1-3.073 2.456l2.602 8.071-7.19 3.507-4.787-7.062a31.8 31.8 0 0 1-3.802.864L14 202H6l-1.203-8.42a31.8 31.8 0 0 1-3.802-.865L0 194.183v-64.366zM10 156a6 6 0 1 0 0 12 6 6 0 0 0 0-12zm0 2a4 4 0 1 0 0 8 4 4 0 0 0 0-8zM149.716 360A28.833 28.833 0 0 1 163 355.153V360h-13.284zm32.568 0A28.833 28.833 0 0 0 169 355.153V360h13.284zm-28.666 0a26.808 26.808 0 0 1 7.382-2.538V360h-7.382zm24.764 0a26.808 26.808 0 0 0-7.382-2.538V360h7.382zm-40.839 0l-4.07-5.698 2.829-2.829 6.728 4.806a36.15 36.15 0 0 1 2.138-1.643l-2.9-7.741 3.464-2 5.25 6.377a35.77 35.77 0 0 1 2.495-1.034l-.797-8.221 3.864-1.035 3.422 7.522a36.014 36.014 0 0 1 2.675-.35L164 340h4l1.36 8.155c.9.083 1.793.2 2.674.349l3.422-7.522 3.864 1.035-.797 8.22c.847.315 1.68.66 2.495 1.035l5.25-6.377 3.464 2-2.9 7.741a36.15 36.15 0 0 1 2.138 1.643l6.728-4.806 2.829 2.829-4.07 5.698h-56.914zm2.425 0l-3.902-5.463.471-.471 6.634 4.738a34.139 34.139 0 0 1 4.399-3.38l-2.859-7.63.578-.334 5.176 6.288a33.787 33.787 0 0 1 5.128-2.126l-.785-8.105.644-.172 3.372 7.414a34.025 34.025 0 0 1 5.503-.719l1.34-8.04h.666l1.34 8.04c1.879.091 3.717.335 5.503.719l3.372-7.414.644.172-.785 8.105a33.787 33.787 0 0 1 5.128 2.126l5.176-6.288.578.334-2.859 7.63a34.139 34.139 0 0 1 4.4 3.38l6.633-4.738.471.471-3.902 5.463h-52.064zM360 52.702l-6.476 3.739A39.856 39.856 0 0 1 350 40c0-5.86 1.26-11.425 3.524-16.44L360 27.297v25.404zm0-39.16a40.187 40.187 0 0 0-2.47 3.093L360 18.06v-4.52zm0 52.916a40.187 40.187 0 0 1-2.47-3.093L360 61.94v4.52zm0-16.066l-5.505 3.179A37.911 37.911 0 0 1 352 40c0-4.781.883-9.356 2.495-13.57L360 29.607v20.784zM357.58 0l1.507 3.278a48.294 48.294 0 0 0-5.809 5.81L343.9 4.775l-1.646 2.265 6.995 7.583a47.84 47.84 0 0 0-3.738 7.323l-10.24-1.201-.865 2.662 8.991 5.048a47.914 47.914 0 0 0-1.277 8.12L332 38.6v2.8l10.12 2.024a47.914 47.914 0 0 0 1.277 8.12l-8.99 5.048.864 2.662 10.24-1.2a47.84 47.84 0 0 0 3.738 7.322l-6.995 7.583 1.646 2.265 9.378-4.311a48.294 48.294 0 0 0 5.81 5.809l-4.312 9.378 2.265 1.646 2.959-2.73V0h-2.42zm-2.158 0l1.252 2.725a50.311 50.311 0 0 0-3.95 3.95l-9.502-4.37-3.526 4.855 7.085 7.681a49.832 49.832 0 0 0-2.543 4.982l-10.374-1.217-1.854 5.706 9.11 5.115a49.899 49.899 0 0 0-.868 5.523L330 37v6l10.252 2.05c.188 1.874.48 3.717.868 5.523l-9.11 5.115 1.854 5.706 10.374-1.217a49.832 49.832 0 0 0 2.543 4.982l-7.085 7.681 3.526 4.854 9.503-4.368a50.311 50.311 0 0 0 3.95 3.95l-4.37 9.502 4.855 3.526 2.84-2.62V0h-4.578zM0 354.984l4.624 4.265a47.84 47.84 0 0 1 7.323-3.738l-1.201-10.24 2.662-.865 5.048 8.991a47.914 47.914 0 0 1 8.12-1.277L28.6 342h2.8l2.024 10.12c2.779.196 5.492.628 8.12 1.277l5.048-8.99 2.662.864-1.2 10.24a47.84 47.84 0 0 1 7.322 3.738l7.583-6.995 2.265 1.646-2.804 6.1H0v-5.016zm0-2.669l4.841 4.466a49.832 49.832 0 0 1 4.982-2.543l-1.217-10.374 5.706-1.854 5.115 9.11c1.806-.389 3.65-.68 5.523-.868L27 340h6l2.05 10.252c1.874.188 3.717.48 5.523.868l5.115-9.11 5.706 1.854-1.217 10.374a49.832 49.832 0 0 1 4.982 2.543l7.681-7.085 4.854 3.526L64.578 360H0v-7.685zM360 244.514l-1.437-.207-.8 1.386 1.998 2.54.239.163v-3.882zm0 14.442l-4-.392-3.162.66-.278 1.576 2.746 1.703 4.694 1.205v-4.752zm0 13.336l-4.694 1.205-2.746 1.703.278 1.576 3.163.66 3.999-.392v-4.752zm0 15.312l-.24.164-1.997 2.54.8 1.385 1.437-.207v-3.882zm0 5.758l-2.57.37-2-3.464 3.33-4.232 1.24-.848v8.174zm0-14.314l-3.652.358-5.271-1.101-.695-3.94 4.577-2.837 5.041-1.295v8.815zm0-13.281l-5.041-1.295-4.577-2.837.695-3.94 5.27-1.101 3.653.358v8.815zm0-14.955l-1.24-.848-3.33-4.232 2-3.464 2.57.37v8.174zM360 354.984l-2.959-2.73-2.265 1.646 2.804 6.1H360v-5.016zm0-2.669l-2.84-2.62-4.854 3.527 3.116 6.778H360v-7.685z"></path></g></symbol><symbol id="icon-reporting" viewbox="0 0 88 85"><g fill-rule="evenodd" stroke="#191919" stroke-linecap="round" stroke-linejoin="round" stroke-width="3"><path d="M2 25.468v57.488h84.218V2l-20.14 16.988-21.85-4.245-23.304 14.601-18.912-4.401"></path><path d="M86.218 26.494l-20.14 16.988-21.85-4.246-23.304 14.602-18.912-4.402"></path></g></symbol><symbol id="icon-simulations" viewbox="0 0 116 89"><g fill-rule="evenodd" transform="translate(1 2)"><path d="M66.5 44.5v41.012M26.5 28.5l40 15.012M26.5 28.5H.5m26 0v-20m25 28v-18m-26 28l26-9m34-10l-19 16.012m19-16.012h16m-16 0v-14" stroke="#000" stroke-linecap="round" stroke-width="3"></path><circle cx="43" cy="67" r="10" stroke="#000" stroke-width="3"></circle><circle cx="103" cy="10" r="10" stroke="#000" stroke-width="3"></circle><path d="M43.024 62.48l-2.31.882v1.89l1.792-.672v5.614h-1.792V72h5.432v-1.806H44.55V62.48zM101.548 7.134V6.28h-1.722V13h1.946V8.618c.28-.406.812-.854 1.498-.854.756 0 1.302.42 1.302 1.33V13h1.946V8.842c0-1.554-.966-2.758-2.73-2.758-.966 0-1.722.448-2.24 1.05z"></path></g></symbol><symbol id="icon-solar" viewbox="0 0 17 17"><path d="M14.449 5.95v-3.4h-3.4L8.498 0l-2.55 2.55h-3.4v3.4L0 8.499l2.55 2.55v3.4h3.4l2.549 2.55 2.55-2.55h3.4v-3.4l2.55-2.55-2.55-2.55zm-5.95 6.797c-2.38 0-4.248-1.867-4.248-4.248 0-2.38 1.868-4.248 4.248-4.248S12.747 6.12 12.747 8.5s-1.867 4.248-4.248 4.248z" fill-rule="evenodd"></path></symbol><symbol id="icon-twitter" viewbox="0 0 20 20"><path d="M18 0H2C.9 0 0 .9 0 2v16c0 1.1.9 2 2 2h16c1.1 0 2-.9 2-2V2c0-1.1-.9-2-2-2zm-2.4 6.8v.4c0 3.8-2.9 8.2-8.2 8.2-1.6 0-3.1-.5-4.4-1.3h.7c1.3 0 2.6-.5 3.6-1.2-1.3 0-2.3-.9-2.7-2 .2 0 .4.1.5.1.3 0 .5 0 .8-.1-1.3-.3-2.3-1.4-2.3-2.8.4.2.8.3 1.3.4C4.1 7.8 3.6 7 3.6 6c0-.5.1-1 .4-1.4 1.4 1.7 3.5 2.9 5.9 3 0-.2-.1-.4-.1-.7 0-1.6 1.3-2.9 2.9-2.9.8 0 1.6.3 2.1.9.7-.1 1.3-.4 1.8-.7-.2.7-.7 1.2-1.3 1.6.6-.1 1.1-.2 1.7-.5-.4.6-.9 1.1-1.4 1.5z" fill-rule="evenodd" opacity=".578"></path></symbol><symbol id="icon-vision" viewbox="0 0 92 92"><g fill-rule="evenodd"><path d="M75 77H16c-1.217 0-2-.783-2-2V16c0-1.217.783-2 2-2h59c1.217 0 2 .783 2 2v59c0 1.217-.783 2-2 2zm-57-4h55V18H18v55z"></path><path d="M63 65H28c-1.166 0-2-.83-2-2V28c0-1.17.834-2 2-2h35c1.14 0 1.973.83 2 2v35c.182.963-.86 2-2 2zm-33-4h31V30H30v31zm-4-49c-1.4 0-2-.8-2-2V2c0-1.2.6-2 2-2 .4 0 1 .8 1 2v8c0 1.2-.6 2-1 2zm9 0c-1.4 0-2-.8-2-2V2c0-1.2.6-2 2-2 .4 0 1 .8 1 2v8c0 1.2-.6 2-1 2zm11 0c-1.4 0-2-.8-2-2V2c0-1.2.6-2 2-2 .4 0 1 .8 1 2v8c0 1.2-.6 2-1 2zm10 0c-1.4 0-2-.8-2-2V2c0-1.2.6-2 2-2 .4 0 1 .8 1 2v8c0 1.2-.75 2-1 2zm10 0c-1.4 0-2-.8-2-2V2c0-1.2.6-2 2-2 .4 0 1 .8 1 2v8c0 1.2-.75 2-1 2zM26 92c-1.4 0-2-.8-2-2v-8c0-1.2.6-2 2-2 .4 0 1 .8 1 2v8c0 1.2-.6 2-1 2zm9 0c-1.4 0-2-.8-2-2v-8c0-1.2.6-2 2-2 .4 0 1 .8 1 2v8c0 1.2-.6 2-1 2zm11 0c-1.4 0-2-.8-2-2v-8c0-1.2.6-2 2-2 .4 0 1 .8 1 2v8c0 1.2-.6 2-1 2zm10 0c-1.4 0-2-.8-2-2v-8c0-1.2.6-2 2-2 .4 0 1 .8 1 2v8c0 1.2-.75 2-1 2zm10 0c-1.4 0-2-.8-2-2v-8c0-1.2.6-2 2-2 .4 0 1 .8 1 2v8c0 1.2-.75 2-1 2zm24-65h-8c-1.2 0-2-.6-2-1 0-1.4.8-2 2-2h8c1.2 0 2 .6 2 2 0 .4-.8 1-2 1zm0 9h-8c-1.2 0-2-.6-2-1 0-1.4.8-2 2-2h8c1.2 0 2 .6 2 2 0 .4-.8 1-2 1zm0 11h-8c-1.2 0-2-.6-2-1 0-1.4.8-2 2-2h8c1.2 0 2 .6 2 2 0 .4-.8 1-2 1zm0 10h-8c-1.2 0-2-.6-2-1 0-1.4.8-2 2-2h8c1.2 0 2 .6 2 2 0 .25-.8 1-2 1zm0 10h-8c-1.2 0-2-.6-2-1 0-1.4.8-2 2-2h8c1.2 0 2 .6 2 2 0 .25-.8 1-2 1zM10 27H2c-1.2 0-2-.6-2-1 0-1.4.8-2 2-2h8c1.2 0 2 .6 2 2 0 .4-.8 1-2 1zm0 9H2c-1.2 0-2-.6-2-1 0-1.4.8-2 2-2h8c1.2 0 2 .6 2 2 0 .4-.8 1-2 1zm0 11H2c-1.2 0-2-.6-2-1 0-1.4.8-2 2-2h8c1.2 0 2 .6 2 2 0 .4-.8 1-2 1zm0 10H2c-1.2 0-2-.6-2-1 0-1.4.8-2 2-2h8c1.2 0 2 .6 2 2 0 .25-.8 1-2 1zm0 10H2c-1.2 0-2-.6-2-1 0-1.4.8-2 2-2h8c1.2 0 2 .6 2 2 0 .25-.8 1-2 1z"></path></g></symbol><symbol id="icon-wind" viewbox="0 0 14 14"><path d="M2 7.194v6.747H0V.55h2v.983c1.108.09 2.066.414 3.43 1.026l.168.076c2.29 1.027 3.646 1.207 6.447.408l.463-.132.15.457.73 2.233.116.354-.306.212C10.71 7.892 8.834 8.036 5.514 7.4 3.78 7.067 2.804 6.964 2 7.194z" fill-rule="evenodd"></path></symbol><symbol id="map" viewbox="0 0 20 20"><path d="M10.292 4.229a2.69 2.69 0 1 0 0 5.381 2.69 2.69 0 0 0 0-5.381zm0 4.306a1.615 1.615 0 1 1 0-3.23 1.615 1.615 0 0 1 0 3.23zm0-7.535a6.458 6.458 0 0 0-6.458 6.458c0 3.567 6.458 10.764 6.458 10.764s6.458-7.196 6.458-10.764A6.458 6.458 0 0 0 10.292 1zM4.91 7.525c0-3.009 2.41-5.449 5.382-5.449 2.971 0 5.381 2.44 5.381 5.449s-5.381 9.082-5.381 9.082S4.91 10.535 4.91 7.525z"></path></symbol><symbol id="mouse" viewbox="0 0 21 26"><path d="M10.333 0A10.312 10.312 0 0 0 0 10.333V15.5c0 5.724 4.61 10.333 10.333 10.333 5.724 0 10.334-4.61 10.334-10.333v-5.167C20.667 4.61 16.057 0 10.333 0zm0 2.583c4.352 0 7.75 3.399 7.75 7.75V15.5c0 4.351-3.398 7.75-7.75 7.75-4.351 0-7.75-3.399-7.75-7.75v-5.167c0-4.351 3.399-7.75 7.75-7.75zm0 2.584L6.458 9.042h2.584v2.583H6.458l3.875 3.875 3.875-3.875h-2.583V9.042h2.583l-3.875-3.875z" fill-rule="evenodd"></path></symbol></svg>