<svg data-v-57848518="" height="13" viewbox="0 0 15 13" width="15"><path d="M15 12.48a.43.43 0 0 1-.44.48.9.9 0 0 1-.39-.11l-.65-.33-2.88-1.48L15 3.79v8.69zM5.71 8.52V3.81l3.21 6.36-2.88-1.48zM9.49.68l.27-.43a.48.48 0 0 1 .56-.23.35.35 0 0 1 .09.04l4.53 2.31a.01.01 0 0 1 .01.01.07.07 0 0 1 .02.07l-4.51 7.5-.46.76-2.98-5.9zM5 12.48a.44.44 0 0 1-.41.52.63.63 0 0 1-.28-.08L.42 10.93a.86.86 0 0 1-.42-.69V.48A.35.35 0 0 1 .33.07a.42.42 0 0 1 .23.06L.69.2l4.29 2.19a.04.04 0 0 1 .02.02v10.07z" data-v-57848518=""></path></svg>