<svg data-v-57848518="" height="12" viewbox="0 0 15 12" width="15"><path d="M15 1.42a6.42 6.42 0 0 1-1.77.48A3.06 3.06 0 0 0 14.59.22a6.34 6.34 0 0 1-1.96.73 3.1 3.1 0 0 0-2.25-.96A3.06 3.06 0 0 0 7.3 3.03a3.17 3.17 0 0 0 .08.69A8.8 8.8 0 0 1 1.04.55a2.95 2.95 0 0 0-.42 1.53A3.01 3.01 0 0 0 1.99 4.6 3.2 3.2 0 0 1 .6 4.22v.04a3.05 3.05 0 0 0 2.47 2.97 3.12 3.12 0 0 1-.82.1 2.63 2.63 0 0 1-.57-.05 3.08 3.08 0 0 0 2.87 2.11 6.24 6.24 0 0 1-3.82 1.29 6 6 0 0 1-.74-.04A8.8 8.8 0 0 0 4.71 12a8.62 8.62 0 0 0 8.76-8.62l-.01-.4A5.86 5.86 0 0 0 15 1.42" data-v-57848518=""></path></svg>