<svg data-v-57848518="" height="13" viewbox="0 0 13 13" width="13"><path d="M8.45 7.45a7.55 7.55 0 0 1 1.4-.14 8.56 8.56 0 0 1 1.96.25 5.43 5.43 0 0 1-2.56 3.6 19.3 19.3 0 0 0-.8-3.71zm-5.14 3.46a7.98 7.98 0 0 1 4.09-3.2 17.66 17.66 0 0 1 .8 3.94 4.9 4.9 0 0 1-1.71.26 5.7 5.7 0 0 1-3.18-1zM8.09 6.4c-.13-.29-.24-.6-.38-.89a14.02 14.02 0 0 0 3.25-2.06 5.53 5.53 0 0 1 .96 3.04 8.46 8.46 0 0 0-2.07-.29 10 10 0 0 0-1.76.2zm2.16-3.8a11.71 11.71 0 0 1-3 1.91 21.57 21.57 0 0 0-2.16-3.22 5.1 5.1 0 0 1 1.4-.2 5.47 5.47 0 0 1 3.76 1.51zm-4 2.31a12.57 12.57 0 0 1-4.4.78h-.74a5.58 5.58 0 0 1 2.89-4 17.83 17.83 0 0 1 2.25 3.22zM6.49 0a6.5 6.5 0 1 0 6.52 6.49A6.48 6.48 0 0 0 6.49 0zm.56 6.69a8.74 8.74 0 0 0-4.54 3.47 5.08 5.08 0 0 1-1.42-3.4c.27 0 .51.04.76.04a14.2 14.2 0 0 0 4.86-.89 4.85 4.85 0 0 0 .34.78z" data-v-57848518=""></path></svg>