<svg data-v-57848518="" height="16" viewbox="0 0 24 24" width="16"><path d="M12,2C6.477,2,2,6.477,2,12c0,4.237,2.636,7.855,6.356,9.312c-0.087-0.791-0.167-2.005,0.035-2.868 c0.182-0.78,1.172-4.971,1.172-4.971s-0.299-0.599-0.299-1.484c0-1.391,0.806-2.428,1.809-2.428c0.853,0,1.265,0.641,1.265,1.408 c0,0.858-0.546,2.141-0.828,3.329c-0.236,0.996,0.499,1.807,1.481,1.807c1.777,0,3.143-1.874,3.143-4.579 c0-2.394-1.72-4.068-4.177-4.068c-2.845,0-4.515,2.134-4.515,4.34c0,0.859,0.331,1.781,0.744,2.282 c0.082,0.099,0.093,0.186,0.069,0.287c-0.076,0.316-0.244,0.995-0.277,1.134c-0.043,0.183-0.145,0.222-0.334,0.133 c-1.249-0.582-2.03-2.408-2.03-3.874c0-3.154,2.292-6.052,6.608-6.052c3.469,0,6.165,2.472,6.165,5.776 c0,3.447-2.173,6.22-5.189,6.22c-1.013,0-1.966-0.527-2.292-1.148c0,0-0.502,1.909-0.623,2.378 c-0.226,0.868-0.835,1.958-1.243,2.622C9.975,21.843,10.969,22,12,22c5.522,0,10-4.478,10-10S17.523,2,12,2z" data-v-57848518=""></path></svg>