<svg class="Illustration NamespacesImage" version="1.1" viewbox="0 0 843 270"><g fill="none" fill-rule="evenodd" id="Landing-v3" stroke="none" stroke-width="1"><g id="Desktop-HD" transform="translate(-299.000000, -1402.000000)"><g id="Section" transform="translate(0.000000, 982.000000)"><g id="Illustration" transform="translate(299.000000, 420.000000)"><g fill="#007BFF" fill-rule="nonzero" id="Group-4" transform="translate(162.000000, 14.000000)"><path d="M257.700785,0.0444251322 C253.112661,0.275743898 248.617273,1.41426517 244.478344,3.39319734 L64.0485587,89.6760453 C54.5886241,94.1975865 47.7175608,102.748923 45.3802256,112.909596 L0.866981574,306.722674 C-1.20966519,315.744413 0.480053902,325.216366 5.5513717,332.981667 C6.1600216,333.921279 6.81461883,334.830769 7.51281584,335.706875 L132.399118,491.113 C138.94745,499.25892 148.875969,504 159.374744,504 L359.649729,503.953809 C370.144577,503.961464 380.072396,499.227171 386.625355,491.089905 L511.465505,335.660685 C518.017341,327.510683 520.472106,316.841861 518.134415,306.676484 L473.551944,112.863406 C471.214608,102.702733 464.343545,94.1513966 454.883611,89.6298553 L274.43075,3.39319734 C269.2246,0.90385763 263.47196,-0.247626077 257.700785,0.0444251322 Z" fill-opacity="0.153190559" id="path3055"></path><path d="M322.861827,421.171809 C303.737982,429.426353 282.653155,434 260.500097,434 C237.400463,434 215.4623,429.027149 195.697757,420.093595 L174.169211,460.306013 C171.370549,465.533536 164.875362,467.519275 159.632002,464.750397 C154.427038,462.001794 152.435763,455.554154 155.184366,450.349189 C155.193803,450.331317 155.203292,450.313473 155.212831,450.295655 L176.812233,409.950887 C143.773281,389.188278 118.989486,356.496226 108.502058,317.915943 L62.9041083,327.541807 C57.1365695,328.759351 51.4713362,325.080341 50.2376987,319.316223 C49.0085032,313.572859 52.6679593,307.920484 58.4113227,306.691288 C58.4209977,306.689218 58.4306756,306.68716 58.4403564,306.685117 L104.322009,296.999363 C103.449912,290.289659 103.000097,283.44736 103.000097,276.5 C103.000097,243.137892 113.373044,212.198516 131.06972,186.731092 L94.5210337,157.774923 C89.9243258,154.133122 89.150221,147.45449 92.7920223,142.857782 C92.806728,142.839221 92.8214957,142.820709 92.8363252,142.802246 C96.5406742,138.19032 103.272907,137.432817 107.909512,141.106228 L144.428629,170.03897 C170.756042,141.350252 207.580961,122.450525 248.816372,119.426803 L248.816372,73.7347408 C248.816372,67.8061072 253.622479,63 259.551113,63 C265.479746,63 270.285853,67.8061072 270.285853,73.7347408 L270.285853,119.299051 C311.818956,121.845033 349.000507,140.487127 375.670811,169.065636 L410.961379,141.106228 C415.597984,137.432817 422.330217,138.19032 426.034566,142.802246 C429.707039,147.374486 428.977634,154.058147 424.405394,157.73062 C424.386931,157.745449 424.368419,157.760217 424.349857,157.774923 L389.170088,185.64655 C407.329648,211.317926 418.000097,242.662855 418.000097,276.5 C418.000097,283.58921 417.531725,290.569026 416.624237,297.410192 L460.559784,306.685117 C466.306555,307.898277 469.981773,313.540417 468.768613,319.287189 C468.766569,319.29687 468.764512,319.306548 468.762441,319.316223 C467.528804,325.080341 461.86357,328.759351 456.096032,327.541807 L412.389054,318.315133 C401.598608,357.598926 375.975983,390.743221 341.919167,411.35003 L362.769509,450.295655 C365.547677,455.4849 363.593115,461.943764 358.40387,464.721933 C358.386053,464.731472 358.368208,464.74096 358.350337,464.750397 C353.106977,467.519275 346.611791,465.533536 343.813129,460.306013 L322.861827,421.171809 Z M210.726734,392.021494 C225.991036,398.60707 242.819461,402.255814 260.500097,402.255814 C277.234099,402.255814 293.204704,398.987323 307.808334,393.053917 L272.112445,326.378812 C268.085797,327.436658 263.858734,328 259.500097,328 C254.819805,328 250.291225,327.350444 245.999587,326.136564 L210.726734,392.021494 Z M191.842244,381.876854 L227.135138,315.954492 C220.916525,310.576144 216.051252,303.675123 213.118903,295.831015 L139.634033,311.343891 C148.070243,340.660219 166.883899,365.582125 191.842244,381.876854 Z M135.505568,290.416421 L210.146882,274.659417 C210.711919,267.296104 212.888003,260.383783 216.32327,254.274319 L156.015393,206.494624 C142.581704,226.50512 134.744283,250.587296 134.744283,276.5 C134.744283,281.203598 135.002513,285.846883 135.505571,290.416451 Z M169.39239,189.816833 L230.599077,238.308622 C235.965905,234.442616 242.138335,231.62505 248.816372,230.155918 L248.816372,151.279753 C217.653262,154.150761 189.783233,168.391823 169.39239,189.816833 Z M270.285853,151.1193 L270.285853,230.178479 C276.896659,231.647549 283.009719,234.438583 288.333335,238.259881 L350.686968,188.859409 C329.964128,167.538302 301.746137,153.540647 270.285853,151.1193 Z M364.240014,205.397723 L302.637021,254.203491 C306.09534,260.330341 308.286092,267.267642 308.853312,274.659428 L385.448528,290.828907 C385.981898,286.126394 386.255911,281.345196 386.255911,276.5 C386.255911,250.112037 378.128364,225.622364 364.240014,205.397723 Z M381.250945,311.741785 L305.881286,295.831026 C302.839819,303.967024 297.718896,311.088441 291.165244,316.548552 L326.908327,383.311807 C352.870099,367.136354 372.505046,341.758939 381.250945,311.741785 Z M259.500097,295.825 C269.06843,295.825 276.825097,288.068333 276.825097,278.5 C276.825097,268.931667 269.06843,261.175 259.500097,261.175 C249.931763,261.175 242.175097,268.931667 242.175097,278.5 C242.175097,288.068333 249.931763,295.825 259.500097,295.825 Z" id="Okteto's-Kuebrnetes-Logo"></path></g><path d="M178,127.5 L134,100.5 L55,100.5" id="Line" stroke="#1E222B" stroke-dasharray="0,13" stroke-linecap="round" stroke-linejoin="bevel" stroke-width="6" transform="translate(116.500000, 114.000000) scale(-1, 1) translate(-116.500000, -114.000000) "></path><path d="M612.716764,126 L642.663464,40 L789.716764,40" id="Line" stroke="#1E222B" stroke-dasharray="0,13" stroke-linecap="round" stroke-linejoin="bevel" stroke-width="6" transform="translate(701.216764, 83.000000) scale(-1, 1) translate(-701.216764, -83.000000) "></path><g id="Developer" transform="translate(0.000000, 126.000000)"><path d="M18,0 L90,0 C94.9705627,0 99,4.02943725 99,9 L99,60 L9,60 L9,9 C9,4.02943725 13.0294373,0 18,0 Z M93,54 L93,9 C93,7.34314575 91.6568542,6 90,6 L18,6 C16.3431458,6 15,7.34314575 15,9 L15,54 L93,54 Z M0,70 L0,64 L108,64 L108,70 L0,70 Z" fill="#1E222B" fill-rule="nonzero" id="Combined-Shape"></path><g id="User" transform="translate(24.000000, 24.000000)"><path d="M40.6573928,37.6 C46.3389906,34.1333333 50.2128072,27.7333333 50.2128072,20.2666667 C50.2128072,9.06666667 41.4321561,0 30.5854695,0 C19.7387829,0 10.9581318,9.06666667 10.9581318,20.2666667 C10.9581318,27.7333333 14.8319485,34.1333333 20.5135462,37.6 C10.1833685,41.0666667 2.17748072,49.3333333 0.11144517,59.7333333 C-0.405063718,62.9333333 0.8862085,66.1333333 3.72700738,67.7333333 C10.9581318,71.7333333 22.8378362,72 30.5854695,72 C38.3331028,72 50.2128072,71.7333333 57.1856772,67.7333333 C60.0264761,66.1333333 61.5760028,62.9333333 60.8012394,59.7333333 C58.9934583,49.3333333 50.9875706,41.0666667 40.6573928,37.6 Z M17.7167642,20.2304737 C17.7167642,12.4804737 23.5203356,6.23047372 30.7167642,6.23047372 C37.9131928,6.23047372 43.7167642,12.4804737 43.7167642,20.2304737 C43.7167642,27.9804737 37.9131928,34.2304737 30.7167642,34.2304737 C23.5203356,34.2304737 17.7167642,27.9804737 17.7167642,20.2304737 Z M53.0591726,62.3888029 C47.0801452,65.5361714 35.6004128,65.5361714 30.5780298,65.5361714 C25.5556469,65.5361714 14.0759144,65.5361714 8.09688706,62.3888029 C7.37940378,61.9045924 6.90108159,61.1782766 7.14024268,60.2098556 C9.05353143,50.0414345 19.0982973,42.5361714 30.5780298,42.5361714 C42.0577623,42.5361714 52.1025282,50.0414345 54.0158169,60.2098556 C54.254978,60.9361714 53.7766558,61.9045924 53.0591726,62.3888029 Z" fill="#1E222B" fill-rule="nonzero" id="Shape"></path><path d="M17.7167642,20.2304737 C17.7167642,12.4804737 23.5203356,6.23047372 30.7167642,6.23047372 C37.9131928,6.23047372 43.7167642,12.4804737 43.7167642,20.2304737 C43.7167642,27.9804737 37.9131928,34.2304737 30.7167642,34.2304737 C23.5203356,34.2304737 17.7167642,27.9804737 17.7167642,20.2304737 Z" fill="#FFFFFF" id="Path"></path><path d="M53.0591726,62.3888029 C47.0801452,65.5361714 35.6004128,65.5361714 30.5780298,65.5361714 C25.5556469,65.5361714 14.0759144,65.5361714 8.09688706,62.3888029 C7.37940378,61.9045924 6.90108159,61.1782766 7.14024268,60.2098556 C9.05353143,50.0414345 19.0982973,42.5361714 30.5780298,42.5361714 C42.0577623,42.5361714 52.1025282,50.0414345 54.0158169,60.2098556 C54.254978,60.9361714 53.7766558,61.9045924 53.0591726,62.3888029 Z" fill="#FFFFFF" id="Path"></path></g></g><g id="Developer" transform="translate(735.000000, 126.000000)"><path d="M18,0 L90,0 C94.9705627,0 99,4.02943725 99,9 L99,60 L9,60 L9,9 C9,4.02943725 13.0294373,0 18,0 Z M93,54 L93,9 C93,7.34314575 91.6568542,6 90,6 L18,6 C16.3431458,6 15,7.34314575 15,9 L15,54 L93,54 Z M0,70 L0,64 L108,64 L108,70 L0,70 Z" fill="#1E222B" fill-rule="nonzero" id="Combined-Shape"></path><g id="User" transform="translate(24.000000, 24.000000)"><path d="M40.6573928,37.6 C46.3389906,34.1333333 50.2128072,27.7333333 50.2128072,20.2666667 C50.2128072,9.06666667 41.4321561,0 30.5854695,0 C19.7387829,0 10.9581318,9.06666667 10.9581318,20.2666667 C10.9581318,27.7333333 14.8319485,34.1333333 20.5135462,37.6 C10.1833685,41.0666667 2.17748072,49.3333333 0.11144517,59.7333333 C-0.405063718,62.9333333 0.8862085,66.1333333 3.72700738,67.7333333 C10.9581318,71.7333333 22.8378362,72 30.5854695,72 C38.3331028,72 50.2128072,71.7333333 57.1856772,67.7333333 C60.0264761,66.1333333 61.5760028,62.9333333 60.8012394,59.7333333 C58.9934583,49.3333333 50.9875706,41.0666667 40.6573928,37.6 Z M17.7167642,20.2304737 C17.7167642,12.4804737 23.5203356,6.23047372 30.7167642,6.23047372 C37.9131928,6.23047372 43.7167642,12.4804737 43.7167642,20.2304737 C43.7167642,27.9804737 37.9131928,34.2304737 30.7167642,34.2304737 C23.5203356,34.2304737 17.7167642,27.9804737 17.7167642,20.2304737 Z M53.0591726,62.3888029 C47.0801452,65.5361714 35.6004128,65.5361714 30.5780298,65.5361714 C25.5556469,65.5361714 14.0759144,65.5361714 8.09688706,62.3888029 C7.37940378,61.9045924 6.90108159,61.1782766 7.14024268,60.2098556 C9.05353143,50.0414345 19.0982973,42.5361714 30.5780298,42.5361714 C42.0577623,42.5361714 52.1025282,50.0414345 54.0158169,60.2098556 C54.254978,60.9361714 53.7766558,61.9045924 53.0591726,62.3888029 Z" fill="#1E222B" fill-rule="nonzero" id="Shape"></path><path d="M17.7167642,20.2304737 C17.7167642,12.4804737 23.5203356,6.23047372 30.7167642,6.23047372 C37.9131928,6.23047372 43.7167642,12.4804737 43.7167642,20.2304737 C43.7167642,27.9804737 37.9131928,34.2304737 30.7167642,34.2304737 C23.5203356,34.2304737 17.7167642,27.9804737 17.7167642,20.2304737 Z" fill="#FFFFFF" id="Path"></path><path d="M53.0591726,62.3888029 C47.0801452,65.5361714 35.6004128,65.5361714 30.5780298,65.5361714 C25.5556469,65.5361714 14.0759144,65.5361714 8.09688706,62.3888029 C7.37940378,61.9045924 6.90108159,61.1782766 7.14024268,60.2098556 C9.05353143,50.0414345 19.0982973,42.5361714 30.5780298,42.5361714 C42.0577623,42.5361714 52.1025282,50.0414345 54.0158169,60.2098556 C54.254978,60.9361714 53.7766558,61.9045924 53.0591726,62.3888029 Z" fill="#FFFFFF" id="Path"></path></g></g><g id="Namespace" transform="translate(179.000000, 65.000000)"><rect fill="#FFFFFF" height="71" id="Rectangle" rx="8" stroke="#1E222B" stroke-width="4" width="134" x="0" y="0"></rect><path d="M48.859413,23.9687253 L46.309404,24.6437276 C46.0094029,23.593724 45.2031501,22.9749718 44.2656468,22.9749718 C42.6531411,22.9749718 41.9406386,24.2499763 41.9406386,25.9374822 C41.9406386,27.6999884 42.7281414,28.8999926 44.2656468,28.8999926 C45.4094008,28.8999926 45.9531527,28.3562407 46.2531538,27.3812373 L48.859413,27.9249892 C48.2781609,30.0812468 46.6094051,31.281251 44.2656468,31.281251 C41.1156357,31.281251 39.2406291,28.9749929 39.2406291,25.9374822 C39.2406291,22.8624714 41.2093861,20.5937134 44.3031469,20.5937134 C46.6844053,20.5937134 48.4094114,21.887468 48.859413,23.9687253 Z M49.6692028,17.2187015 L52.2192117,17.2187015 L52.2192117,19.4687094 L49.6692028,19.4687094 L49.6692028,17.2187015 Z M49.6692028,20.8749644 L52.2192117,20.8749644 L52.2192117,31 L49.6692028,31 L49.6692028,20.8749644 Z M62.4415526,21.6812172 C63.5478065,22.7687211 63.5478065,24.5312273 63.5478065,26.1062328 L63.5478065,31 L60.9602974,31 L60.9602974,26.2187332 C60.9602974,25.1687295 60.8102969,24.1187258 60.285295,23.5562238 C59.9290438,23.1624724 59.3852918,22.9562217 58.6915394,22.9749718 C58.2227878,22.9937218 57.8290364,23.1249723 57.4915352,23.3687232 C57.1165339,23.6499742 56.8540329,24.0999757 56.7415325,24.6624777 C56.6477822,25.1124793 56.6290321,25.8999821 56.6290321,26.5937345 L56.6290321,31 L54.0602731,31 L54.0602731,20.8749644 L56.310281,20.8749644 L56.310281,21.9249681 C56.3477812,21.887468 56.4040314,21.8312178 56.4415315,21.7749676 C57.0977838,20.9874648 58.1290374,20.6499636 59.0477907,20.5937134 C60.2477949,20.5187131 61.4665492,20.7249639 62.4415526,21.6812172 Z M71.3513671,17.4999525 L73.9201261,17.4999525 L73.9201261,31 L71.6701182,31 L71.6701182,30.418748 C70.9576157,30.9624999 70.0576125,31.281251 68.9326086,31.281251 C66.1388487,31.281251 64.2638421,28.9749929 64.2638421,25.9374822 C64.2638421,22.8437213 66.1575988,20.5937134 69.063859,20.5937134 C69.9638622,20.5937134 70.7138648,20.8187142 71.3513671,21.2124656 L71.3513671,17.4999525 Z M69.34511,29.012493 C71.051366,29.012493 71.6701182,27.7749887 71.6701182,25.9374822 C71.6701182,24.0999757 71.0326159,22.8624714 69.4388603,22.8624714 C67.7326043,22.8624714 66.9638516,24.2499763 66.9638516,25.9374822 C66.9638516,27.6437382 67.6951042,29.012493 69.34511,29.012493 Z M82.3986891,20.8749644 L84.9486981,20.8749644 L79.229928,35.5000158 L76.8674197,35.4812658 L78.5174255,31 L78.5361755,30.9249997 L74.4486612,20.8749644 L77.0924205,20.8749644 L79.7549298,27.7562386 L82.3986891,20.8749644 Z M88.2147464,20.0499615 C88.2147464,21.8499678 87.3897435,22.8624714 85.6647374,22.5812204 L85.814738,21.5124666 C86.7147411,21.5874669 87.1084925,20.9499647 86.9772421,20.0499615 L85.6647374,20.0499615 L85.6647374,17.4999525 L88.2147464,17.4999525 L88.2147464,20.0499615 Z M96.6370856,23.593724 L94.0308264,24.0624756 C93.9370761,23.3499731 93.3183239,22.8249713 92.3995707,22.7874711 C91.5370677,22.749971 90.8433152,23.049972 90.8433152,23.5562238 C90.8433152,24.0624756 91.1995665,24.2874764 91.8183187,24.4749771 C92.3245704,24.6249776 92.8120721,24.756228 93.5433247,24.9437287 C95.6995823,25.4874806 96.7308359,26.2749834 96.7308359,27.9999894 C96.7308359,30.0999968 94.9308296,31.281251 92.6245715,31.281251 C90.0745625,31.281251 88.3683065,30.2687474 87.9745551,27.9624893 L90.5808143,27.5687379 C90.787065,28.5624914 91.5933179,29.0874933 92.6808217,29.0874933 C93.4870745,29.0874933 94.1245768,28.7687422 94.1245768,28.1124898 C94.1245768,27.587488 93.7120753,27.3249871 92.9808227,27.1187364 C92.0245694,26.8562354 91.1808164,26.6312346 90.4683139,26.4249839 C89.1370592,26.0499826 88.3120563,25.1124793 88.3120563,23.6874743 C88.3120563,21.624967 90.2245631,20.5937134 92.3245704,20.5937134 C94.4995781,20.5937134 96.3558346,21.5874669 96.6370856,23.593724 Z M28.4183396,43.6812172 C29.5245935,44.7687211 29.5245935,46.5312273 29.5245935,48.1062328 L29.5245935,53 L26.9370844,53 L26.9370844,48.2187332 C26.9370844,47.1687295 26.7870839,46.1187258 26.262082,45.5562238 C25.9058308,45.1624724 25.3620788,44.9562217 24.6683264,44.9749718 C24.1995748,44.9937218 23.8058234,45.1249723 23.4683222,45.3687232 C23.0933209,45.6499742 22.8308199,46.0999757 22.7183195,46.6624777 C22.6245692,47.1124793 22.6058191,47.8999821 22.6058191,48.5937345 L22.6058191,53 L20.0370601,53 L20.0370601,42.8749644 L22.287068,42.8749644 L22.287068,43.9249681 C22.3245682,43.887468 22.3808184,43.8312178 22.4183185,43.7749676 C23.0745708,42.9874648 24.1058244,42.6499636 25.0245777,42.5937134 C26.2245819,42.5187131 27.4433362,42.7249639 28.4183396,43.6812172 Z M39.484411,53 L37.2531531,53 L37.2531531,51.7624956 C36.3719,52.7749992 35.4906469,53.281251 33.7656409,53.281251 C31.7218837,53.281251 30.4281291,52.0062465 30.4281291,50.1124898 C30.4281291,48.6312346 31.1968818,47.7874817 32.2468855,47.31873 C33.5593901,46.737478 35.3031463,46.5499773 36.9531521,46.3062265 C36.8219016,45.2749728 35.9968987,44.9187216 35.1156456,44.9187216 C34.2343925,44.9187216 33.4281397,45.312473 33.0718884,46.1562259 L30.7843804,45.4624735 C31.4593828,43.9249681 32.940638,42.5937134 35.1906459,42.5937134 C37.3094033,42.5937134 38.7156583,43.4562164 39.2594102,45.1249723 C39.4281608,45.6499742 39.484411,46.2687263 39.484411,46.9624788 L39.484411,53 Z M36.6156509,50.0749897 C36.915652,49.5687379 36.9531521,48.8374854 36.9531521,48.3687337 C35.6031473,48.5937345 35.0031452,48.7062349 34.2156425,48.9312357 C33.4656398,49.1374864 32.9218879,49.4937377 32.9218879,50.16874 C32.9218879,50.712492 33.3718895,51.293744 34.365643,51.293744 C35.3031463,51.293744 36.2031494,50.7499921 36.6156509,50.0749897 Z M54.8067508,43.5687168 C55.6880039,44.4874701 55.7817543,45.5374738 55.7817543,46.8312283 L55.7817543,53 L53.1942452,53 L53.1942452,47.018729 C53.1942452,46.2874764 53.0629947,45.8374748 52.7067435,45.4437234 C52.3879923,45.0874722 51.9004906,44.8999715 51.4129889,44.8999715 C50.9254872,44.8999715 50.4379855,45.1062222 50.1192344,45.4624735 C49.725483,45.9124751 49.6504827,46.3624767 49.6504827,46.8687284 L49.6504827,53 L47.0629736,53 L47.0629736,47.018729 C47.0629736,46.2874764 46.9317231,45.8374748 46.5754719,45.4437234 C46.2567208,45.0874722 45.7692191,44.8999715 45.2817173,44.8999715 C44.7942156,44.8999715 44.3067139,45.1062222 43.9879628,45.4624735 C43.5942114,45.9124751 43.5192111,46.3624767 43.5192111,46.8687284 L43.5192111,53 L40.9504521,53 L40.9504521,42.8749644 L43.20046,42.8749644 L43.20046,43.9624682 C43.9129625,43.1187153 45.0004664,42.6312135 46.1254703,42.6312135 C46.9692233,42.6312135 48.037977,42.8937145 48.6754793,43.5687168 C48.8629799,43.7749676 49.0317305,43.9812183 49.1442309,44.187469 C49.8567334,43.2124656 51.0192375,42.6312135 52.2567419,42.6312135 C53.1004948,42.6312135 54.1692486,42.8937145 54.8067508,43.5687168 Z M59.2540308,48.6499847 C59.4415315,50.0562396 60.2477843,50.8999926 61.6165391,50.8999926 C62.5540424,50.8999926 63.3227951,50.4687411 63.7165465,49.6249881 L66.2665555,50.3562407 C65.5165529,52.1937472 63.6602963,53.281251 61.7665397,53.281251 C58.5977785,53.281251 56.4977711,51.0874933 56.4977711,48.0687327 C56.4977711,44.7874711 58.5415283,42.5937134 61.6165391,42.5937134 C64.9353008,42.5937134 66.6415568,45.1249723 66.3603058,48.6499847 L59.2540308,48.6499847 Z M61.6165391,44.8062212 C60.2477843,44.8062212 59.572782,45.5562238 59.3290311,46.6812278 L63.7727967,46.6812278 C63.6040461,45.4812236 63.0602942,44.8062212 61.6165391,44.8062212 Z M75.5888726,45.593724 L72.9826134,46.0624756 C72.8888631,45.3499731 72.2701109,44.8249713 71.3513577,44.7874711 C70.4888547,44.749971 69.7951022,45.049972 69.7951022,45.5562238 C69.7951022,46.0624756 70.1513535,46.2874764 70.7701057,46.4749771 C71.2763574,46.6249776 71.7638591,46.756228 72.4951117,46.9437287 C74.6513693,47.4874806 75.6826229,48.2749834 75.6826229,49.9999894 C75.6826229,52.0999968 73.8826166,53.281251 71.5763585,53.281251 C69.0263495,53.281251 67.3200935,52.2687474 66.9263421,49.9624893 L69.5326013,49.5687379 C69.738852,50.5624914 70.5451049,51.0874933 71.6326087,51.0874933 C72.4388615,51.0874933 73.0763638,50.7687422 73.0763638,50.1124898 C73.0763638,49.587488 72.6638623,49.3249871 71.9326097,49.1187364 C70.9763564,48.8562354 70.1326034,48.6312346 69.4201009,48.4249839 C68.0888462,48.0499826 67.2638433,47.1124793 67.2638433,45.6874743 C67.2638433,43.624967 69.1763501,42.5937134 71.2763574,42.5937134 C73.4513651,42.5937134 75.3076216,43.5874669 75.5888726,45.593724 Z M81.6299322,42.5937134 C84.5361924,42.5937134 86.4299491,44.8437213 86.4299491,47.9374822 C86.4299491,50.9749929 84.5549425,53.281251 81.7611827,53.281251 C80.8049293,53.281251 79.9986765,53.0562502 79.3424241,52.6437487 L79.3424241,57.5000158 L76.7736651,57.5000158 L76.7736651,42.8749644 L79.023673,42.8749644 L79.023673,43.4374664 C79.6986754,42.8937145 80.5799285,42.5937134 81.6299322,42.5937134 Z M81.3486812,51.012493 C82.998687,51.012493 83.7299396,49.6437382 83.7299396,47.9374822 C83.7299396,46.2499763 82.9611869,44.8624714 81.2549309,44.8624714 C79.6611753,44.8624714 79.023673,46.0999757 79.023673,47.9374822 C79.023673,49.7749887 79.6424252,51.012493 81.3486812,51.012493 Z M96.014766,53 L93.7835081,53 L93.7835081,51.7624956 C92.902255,52.7749992 92.0210019,53.281251 90.2959959,53.281251 C88.2522387,53.281251 86.9584841,52.0062465 86.9584841,50.1124898 C86.9584841,48.6312346 87.7272368,47.7874817 88.7772405,47.31873 C90.0897451,46.737478 91.8335013,46.5499773 93.4835071,46.3062265 C93.3522566,45.2749728 92.5272537,44.9187216 91.6460006,44.9187216 C90.7647475,44.9187216 89.9584947,45.312473 89.6022434,46.1562259 L87.3147354,45.4624735 C87.9897378,43.9249681 89.470993,42.5937134 91.7210009,42.5937134 C93.8397583,42.5937134 95.2460133,43.4562164 95.7897652,45.1249723 C95.9585158,45.6499742 96.014766,46.2687263 96.014766,46.9624788 L96.014766,53 Z M93.1460059,50.0749897 C93.446007,49.5687379 93.4835071,48.8374854 93.4835071,48.3687337 C92.1335023,48.5937345 91.5335002,48.7062349 90.7459975,48.9312357 C89.9959948,49.1374864 89.4522429,49.4937377 89.4522429,50.16874 C89.4522429,50.712492 89.9022445,51.293744 90.895998,51.293744 C91.8335013,51.293744 92.7335044,50.7499921 93.1460059,50.0749897 Z M106.537089,45.9687253 L103.98708,46.6437276 C103.687079,45.593724 102.880826,44.9749718 101.943323,44.9749718 C100.330817,44.9749718 99.6183146,46.2499763 99.6183146,47.9374822 C99.6183146,49.6999884 100.405817,50.8999926 101.943323,50.8999926 C103.087077,50.8999926 103.630829,50.3562407 103.93083,49.3812373 L106.537089,49.9249892 C105.955837,52.0812468 104.287081,53.281251 101.943323,53.281251 C98.7933117,53.281251 96.9183051,50.9749929 96.9183051,47.9374822 C96.9183051,44.8624714 98.8870621,42.5937134 101.980823,42.5937134 C104.362081,42.5937134 106.087087,43.887468 106.537089,45.9687253 Z M109.353136,48.6499847 C109.540636,50.0562396 110.346889,50.8999926 111.715644,50.8999926 C112.653147,50.8999926 113.4219,50.4687411 113.815652,49.6249881 L116.36566,50.3562407 C115.615658,52.1937472 113.759401,53.281251 111.865645,53.281251 C108.696884,53.281251 106.596876,51.0874933 106.596876,48.0687327 C106.596876,44.7874711 108.640633,42.5937134 111.715644,42.5937134 C115.034406,42.5937134 116.740662,45.1249723 116.459411,48.6499847 L109.353136,48.6499847 Z M111.715644,44.8062212 C110.346889,44.8062212 109.671887,45.5562238 109.428136,46.6812278 L113.871902,46.6812278 C113.703151,45.4812236 113.159399,44.8062212 111.715644,44.8062212 Z" fill="#1E222B" fill-rule="nonzero" id="cindy’snamespace"></path></g><g id="Namespace" transform="translate(457.000000, 5.000000)"><rect fill="#FFFFFF" height="71" id="Rectangle" rx="8" stroke="#1E222B" stroke-width="4" width="156" x="0" y="0"></rect><path d="M57.7580522,16.4999525 L57.7580522,18.7499604 L55.2080433,18.7499604 L55.2080433,16.4999525 L57.7580522,16.4999525 Z M53.6892879,32.1187575 C54.1580396,32.1187575 54.5330409,32.0437572 54.8330419,31.7625062 C55.1142929,31.5000053 55.2080433,31.1812542 55.2080433,30.562502 L55.2080433,19.8749644 L57.7580522,19.8749644 L57.7580522,31.2375044 C57.7580522,32.2312578 57.7768023,32.9812605 57.0642998,33.7125131 C56.3142972,34.5000158 55.3580438,34.5000158 54.5892911,34.5000158 L53.2392863,34.5000158 L53.2392863,32.1187575 L53.6892879,32.1187575 Z M63.9678786,30.281251 C60.9116179,30.281251 58.8491106,28.0687432 58.8491106,24.9374822 C58.8491106,21.7687211 60.9678681,19.5937134 63.9678786,19.5937134 C67.0241394,19.5937134 69.1053967,21.8062212 69.1053967,24.9374822 C69.1053967,28.0874933 67.0053893,30.281251 63.9678786,30.281251 Z M66.4053872,24.9374822 C66.4053872,23.1374759 65.5803843,21.9749718 63.9678786,21.9749718 C62.2991228,21.9749718 61.5491201,23.174976 61.5491201,24.9374822 C61.5491201,26.7562386 62.374123,27.8999926 63.9678786,27.8999926 C65.5991344,27.8999926 66.4053872,26.6812383 66.4053872,24.9374822 Z M78.5777131,20.6812172 C79.683967,21.7687211 79.683967,23.5312273 79.683967,25.1062328 L79.683967,30 L77.0964579,30 L77.0964579,25.2187332 C77.0964579,24.1687295 76.9464574,23.1187258 76.4214555,22.5562238 C76.0652043,22.1624724 75.5214523,21.9562217 74.8276999,21.9749718 C74.3589483,21.9937218 73.9651969,22.1249723 73.6276957,22.3687232 C73.2526944,22.6499742 72.9901934,23.0999757 72.877693,23.6624777 C72.7839427,24.1124793 72.7651926,24.8999821 72.7651926,25.5937345 L72.7651926,30 L70.1964336,30 L70.1964336,16.4999525 L72.4464415,16.4999525 L72.4464415,20.9249681 C72.4839417,20.887468 72.5401919,20.8312178 72.577692,20.7749676 C73.2339443,19.9874648 74.2651979,19.6499636 75.1839512,19.5937134 C76.3839554,19.5187131 77.6027097,19.7249639 78.5777131,20.6812172 Z M89.5312841,20.6812172 C90.637538,21.7687211 90.637538,23.5312273 90.637538,25.1062328 L90.637538,30 L88.0500289,30 L88.0500289,25.2187332 C88.0500289,24.1687295 87.9000284,23.1187258 87.3750265,22.5562238 C87.0187753,22.1624724 86.4750233,21.9562217 85.7812709,21.9749718 C85.3125193,21.9937218 84.9187679,22.1249723 84.5812667,22.3687232 C84.2062654,22.6499742 83.9437644,23.0999757 83.831264,23.6624777 C83.7375137,24.1124793 83.7187636,24.8999821 83.7187636,25.5937345 L83.7187636,30 L81.1500046,30 L81.1500046,19.8749644 L83.4000125,19.8749644 L83.4000125,20.9249681 C83.4375127,20.887468 83.4937629,20.8312178 83.531263,20.7749676 C84.1875153,19.9874648 85.2187689,19.6499636 86.1375222,19.5937134 C87.3375264,19.5187131 88.5562807,19.7249639 89.5312841,20.6812172 Z M94.2785859,19.0499615 C94.2785859,20.8499678 93.453583,21.8624714 91.7285769,21.5812204 L91.8785775,20.5124666 C92.7785806,20.5874669 93.172332,19.9499647 93.0410816,19.0499615 L91.7285769,19.0499615 L91.7285769,16.4999525 L94.2785859,16.4999525 L94.2785859,19.0499615 Z M102.700925,22.593724 L100.094666,23.0624756 C100.000916,22.3499731 99.3821634,21.8249713 98.4634102,21.7874711 C97.6009072,21.749971 96.9071547,22.049972 96.9071547,22.5562238 C96.9071547,23.0624756 97.263406,23.2874764 97.8821582,23.4749771 C98.3884099,23.6249776 98.8759116,23.756228 99.6071642,23.9437287 C101.763422,24.4874806 102.794675,25.2749834 102.794675,26.9999894 C102.794675,29.0999968 100.994669,30.281251 98.688411,30.281251 C96.138402,30.281251 94.432146,29.2687474 94.0383946,26.9624893 L96.6446538,26.5687379 C96.8509045,27.5624914 97.6571574,28.0874933 98.7446612,28.0874933 C99.550914,28.0874933 100.188416,27.7687422 100.188416,27.1124898 C100.188416,26.587488 99.7759148,26.3249871 99.0446622,26.1187364 C98.0884089,25.8562354 97.2446559,25.6312346 96.5321534,25.4249839 C95.2008987,25.0499826 94.3758958,24.1124793 94.3758958,22.6874743 C94.3758958,20.624967 96.2884026,19.5937134 98.3884099,19.5937134 C100.563418,19.5937134 102.419674,20.5874669 102.700925,22.593724 Z M38.9183396,42.6812172 C40.0245935,43.7687211 40.0245935,45.5312273 40.0245935,47.1062328 L40.0245935,52 L37.4370844,52 L37.4370844,47.2187332 C37.4370844,46.1687295 37.2870839,45.1187258 36.762082,44.5562238 C36.4058308,44.1624724 35.8620788,43.9562217 35.1683264,43.9749718 C34.6995748,43.9937218 34.3058234,44.1249723 33.9683222,44.3687232 C33.5933209,44.6499742 33.3308199,45.0999757 33.2183195,45.6624777 C33.1245692,46.1124793 33.1058191,46.8999821 33.1058191,47.5937345 L33.1058191,52 L30.5370601,52 L30.5370601,41.8749644 L32.787068,41.8749644 L32.787068,42.9249681 C32.8245682,42.887468 32.8808184,42.8312178 32.9183185,42.7749676 C33.5745708,41.9874648 34.6058244,41.6499636 35.5245777,41.5937134 C36.7245819,41.5187131 37.9433362,41.7249639 38.9183396,42.6812172 Z M49.984411,52 L47.7531531,52 L47.7531531,50.7624956 C46.8719,51.7749992 45.9906469,52.281251 44.2656409,52.281251 C42.2218837,52.281251 40.9281291,51.0062465 40.9281291,49.1124898 C40.9281291,47.6312346 41.6968818,46.7874817 42.7468855,46.31873 C44.0593901,45.737478 45.8031463,45.5499773 47.4531521,45.3062265 C47.3219016,44.2749728 46.4968987,43.9187216 45.6156456,43.9187216 C44.7343925,43.9187216 43.9281397,44.312473 43.5718884,45.1562259 L41.2843804,44.4624735 C41.9593828,42.9249681 43.440638,41.5937134 45.6906459,41.5937134 C47.8094033,41.5937134 49.2156583,42.4562164 49.7594102,44.1249723 C49.9281608,44.6499742 49.984411,45.2687263 49.984411,45.9624788 L49.984411,52 Z M47.1156509,49.0749897 C47.415652,48.5687379 47.4531521,47.8374854 47.4531521,47.3687337 C46.1031473,47.5937345 45.5031452,47.7062349 44.7156425,47.9312357 C43.9656398,48.1374864 43.4218879,48.4937377 43.4218879,49.16874 C43.4218879,49.712492 43.8718895,50.293744 44.865643,50.293744 C45.8031463,50.293744 46.7031494,49.7499921 47.1156509,49.0749897 Z M65.3067508,42.5687168 C66.1880039,43.4874701 66.2817543,44.5374738 66.2817543,45.8312283 L66.2817543,52 L63.6942452,52 L63.6942452,46.018729 C63.6942452,45.2874764 63.5629947,44.8374748 63.2067435,44.4437234 C62.8879923,44.0874722 62.4004906,43.8999715 61.9129889,43.8999715 C61.4254872,43.8999715 60.9379855,44.1062222 60.6192344,44.4624735 C60.225483,44.9124751 60.1504827,45.3624767 60.1504827,45.8687284 L60.1504827,52 L57.5629736,52 L57.5629736,46.018729 C57.5629736,45.2874764 57.4317231,44.8374748 57.0754719,44.4437234 C56.7567208,44.0874722 56.2692191,43.8999715 55.7817173,43.8999715 C55.2942156,43.8999715 54.8067139,44.1062222 54.4879628,44.4624735 C54.0942114,44.9124751 54.0192111,45.3624767 54.0192111,45.8687284 L54.0192111,52 L51.4504521,52 L51.4504521,41.8749644 L53.70046,41.8749644 L53.70046,42.9624682 C54.4129625,42.1187153 55.5004664,41.6312135 56.6254703,41.6312135 C57.4692233,41.6312135 58.537977,41.8937145 59.1754793,42.5687168 C59.3629799,42.7749676 59.5317305,42.9812183 59.6442309,43.187469 C60.3567334,42.2124656 61.5192375,41.6312135 62.7567419,41.6312135 C63.6004948,41.6312135 64.6692486,41.8937145 65.3067508,42.5687168 Z M69.7540308,47.6499847 C69.9415315,49.0562396 70.7477843,49.8999926 72.1165391,49.8999926 C73.0540424,49.8999926 73.8227951,49.4687411 74.2165465,48.6249881 L76.7665555,49.3562407 C76.0165529,51.1937472 74.1602963,52.281251 72.2665397,52.281251 C69.0977785,52.281251 66.9977711,50.0874933 66.9977711,47.0687327 C66.9977711,43.7874711 69.0415283,41.5937134 72.1165391,41.5937134 C75.4353008,41.5937134 77.1415568,44.1249723 76.8603058,47.6499847 L69.7540308,47.6499847 Z M72.1165391,43.8062212 C70.7477843,43.8062212 70.072782,44.5562238 69.8290311,45.6812278 L74.2727967,45.6812278 C74.1040461,44.4812236 73.5602942,43.8062212 72.1165391,43.8062212 Z M86.0888726,44.593724 L83.4826134,45.0624756 C83.3888631,44.3499731 82.7701109,43.8249713 81.8513577,43.7874711 C80.9888547,43.749971 80.2951022,44.049972 80.2951022,44.5562238 C80.2951022,45.0624756 80.6513535,45.2874764 81.2701057,45.4749771 C81.7763574,45.6249776 82.2638591,45.756228 82.9951117,45.9437287 C85.1513693,46.4874806 86.1826229,47.2749834 86.1826229,48.9999894 C86.1826229,51.0999968 84.3826166,52.281251 82.0763585,52.281251 C79.5263495,52.281251 77.8200935,51.2687474 77.4263421,48.9624893 L80.0326013,48.5687379 C80.238852,49.5624914 81.0451049,50.0874933 82.1326087,50.0874933 C82.9388615,50.0874933 83.5763638,49.7687422 83.5763638,49.1124898 C83.5763638,48.587488 83.1638623,48.3249871 82.4326097,48.1187364 C81.4763564,47.8562354 80.6326034,47.6312346 79.9201009,47.4249839 C78.5888462,47.0499826 77.7638433,46.1124793 77.7638433,44.6874743 C77.7638433,42.624967 79.6763501,41.5937134 81.7763574,41.5937134 C83.9513651,41.5937134 85.8076216,42.5874669 86.0888726,44.593724 Z M92.1299322,41.5937134 C95.0361924,41.5937134 96.9299491,43.8437213 96.9299491,46.9374822 C96.9299491,49.9749929 95.0549425,52.281251 92.2611827,52.281251 C91.3049293,52.281251 90.4986765,52.0562502 89.8424241,51.6437487 L89.8424241,56.5000158 L87.2736651,56.5000158 L87.2736651,41.8749644 L89.523673,41.8749644 L89.523673,42.4374664 C90.1986754,41.8937145 91.0799285,41.5937134 92.1299322,41.5937134 Z M91.8486812,50.012493 C93.498687,50.012493 94.2299396,48.6437382 94.2299396,46.9374822 C94.2299396,45.2499763 93.4611869,43.8624714 91.7549309,43.8624714 C90.1611753,43.8624714 89.523673,45.0999757 89.523673,46.9374822 C89.523673,48.7749887 90.1424252,50.012493 91.8486812,50.012493 Z M106.514766,52 L104.283508,52 L104.283508,50.7624956 C103.402255,51.7749992 102.521002,52.281251 100.795996,52.281251 C98.7522387,52.281251 97.4584841,51.0062465 97.4584841,49.1124898 C97.4584841,47.6312346 98.2272368,46.7874817 99.2772405,46.31873 C100.589745,45.737478 102.333501,45.5499773 103.983507,45.3062265 C103.852257,44.2749728 103.027254,43.9187216 102.146001,43.9187216 C101.264748,43.9187216 100.458495,44.312473 100.102243,45.1562259 L97.8147354,44.4624735 C98.4897378,42.9249681 99.970993,41.5937134 102.221001,41.5937134 C104.339758,41.5937134 105.746013,42.4562164 106.289765,44.1249723 C106.458516,44.6499742 106.514766,45.2687263 106.514766,45.9624788 L106.514766,52 Z M103.646006,49.0749897 C103.946007,48.5687379 103.983507,47.8374854 103.983507,47.3687337 C102.633502,47.5937345 102.0335,47.7062349 101.245997,47.9312357 C100.495995,48.1374864 99.9522429,48.4937377 99.9522429,49.16874 C99.9522429,49.712492 100.402244,50.293744 101.395998,50.293744 C102.333501,50.293744 103.233504,49.7499921 103.646006,49.0749897 Z M117.037089,44.9687253 L114.48708,45.6437276 C114.187079,44.593724 113.380826,43.9749718 112.443323,43.9749718 C110.830817,43.9749718 110.118315,45.2499763 110.118315,46.9374822 C110.118315,48.6999884 110.905817,49.8999926 112.443323,49.8999926 C113.587077,49.8999926 114.130829,49.3562407 114.43083,48.3812373 L117.037089,48.9249892 C116.455837,51.0812468 114.787081,52.281251 112.443323,52.281251 C109.293312,52.281251 107.418305,49.9749929 107.418305,46.9374822 C107.418305,43.8624714 109.387062,41.5937134 112.480823,41.5937134 C114.862081,41.5937134 116.587087,42.887468 117.037089,44.9687253 Z M119.853136,47.6499847 C120.040636,49.0562396 120.846889,49.8999926 122.215644,49.8999926 C123.153147,49.8999926 123.9219,49.4687411 124.315652,48.6249881 L126.86566,49.3562407 C126.115658,51.1937472 124.259401,52.281251 122.365645,52.281251 C119.196884,52.281251 117.096876,50.0874933 117.096876,47.0687327 C117.096876,43.7874711 119.140633,41.5937134 122.215644,41.5937134 C125.534406,41.5937134 127.240662,44.1249723 126.959411,47.6499847 L119.853136,47.6499847 Z M122.215644,43.8062212 C120.846889,43.8062212 120.171887,44.5562238 119.928136,45.6812278 L124.371902,45.6812278 C124.203151,44.4812236 123.659399,43.8062212 122.215644,43.8062212 Z" fill="#1E222B" fill-rule="nonzero" id="john’snamespace"></path></g></g></g></g></g></svg>