<svg class="HeaderImage" version="1.1" viewbox="0 0 775 394"><defs><radialgradient cx="102.719044%" cy="32.5527097%" fx="102.719044%" fy="32.5527097%" gradienttransform="translate(1.027190,0.325527),scale(0.599913,1.000000),rotate(170.647697),translate(-1.027190,-0.325527)" id="radialGradient-1" r="156.066827%"><stop offset="0%" stop-color="#00D1CA"></stop><stop offset="100%" stop-color="#00D1CA" stop-opacity="0"></stop></radialgradient><lineargradient id="linearGradient-2" x1="3.69220927%" x2="105.737261%" y1="51.6247251%" y2="51.1755166%"><stop offset="0%" stop-color="#00D1CA" stop-opacity="0"></stop><stop offset="100%" stop-color="#00D1CA"></stop></lineargradient><lineargradient id="linearGradient-3" x1="50.0075739%" x2="49.9681325%" y1="65.8334223%" y2="-8.00915109%"><stop offset="0%" stop-color="#00D1CA" stop-opacity="0"></stop><stop offset="100%" stop-color="#00D1CA"></stop></lineargradient><lineargradient id="linearGradient-4" x1="63.6803975%" x2="63.6803975%" y1="40.4132677%" y2="100%"><stop offset="0%" stop-color="#00D1CA" stop-opacity="0"></stop><stop offset="100%" stop-color="#00D1CA"></stop></lineargradient><lineargradient id="linearGradient-5" x1="0%" x2="114.348349%" y1="0%" y2="0%"><stop offset="0%" stop-color="#00D1CA" stop-opacity="0"></stop><stop offset="100%" stop-color="#00D1CA"></stop></lineargradient><lineargradient id="linearGradient-6" x1="66.9655997%" x2="0%" y1="0%" y2="0%"><stop offset="0%" stop-color="#00EAE7" stop-opacity="0.846071105"></stop><stop offset="100%" stop-color="#00D1CA" stop-opacity="0"></stop></lineargradient><path d="M399.799805,229.426384 C396.037549,231.086295 391.876473,232.00802 387.500118,232.00802 C383.062032,232.00802 378.845344,231.060109 375.041466,229.355704 L371.00348,236.907102 C370.462962,237.917918 369.207167,238.301848 368.19382,237.76609 C367.186611,237.233576 366.801794,235.985384 367.334308,234.978174 C367.335819,234.975316 367.337337,234.972461 367.338862,234.96961 L371.383015,227.40668 C364.90525,223.366936 360.053109,216.964483 358.032382,209.40511 L349.496763,211.209151 C348.380737,211.445028 347.284372,210.733044 347.045921,209.617566 C346.80818,208.505409 347.517034,207.4111 348.629192,207.173359 C348.63074,207.173028 348.632289,207.172699 348.633838,207.172372 L357.240203,205.353378 C357.081759,204.093895 357.000118,202.810491 357.000118,201.50802 C357.000118,194.947288 359.071596,188.870376 362.596187,183.895651 L355.607121,178.351879 C354.717225,177.646008 354.568044,176.352383 355.273915,175.462487 C355.276271,175.459517 355.278635,175.456553 355.281008,175.453596 C355.996885,174.561265 357.299086,174.414742 358.195362,175.125674 L365.209919,180.689667 C370.337231,175.202182 377.46712,171.609631 385.434748,171.076848 L385.434748,162.083238 C385.434748,160.937127 386.363855,160.00802 387.509967,160.00802 C388.656078,160.00802 389.585185,160.937127 389.585185,162.083238 L389.585185,171.078171 C397.539358,171.615182 404.657372,175.201736 409.779677,180.678287 L416.779888,175.125674 C417.676164,174.414742 418.978365,174.561265 419.694242,175.453596 C420.405024,176.339575 420.262998,177.634005 419.377019,178.344787 C419.374062,178.347159 419.371099,178.349523 419.368129,178.351879 L412.395056,183.882966 C415.925115,188.860044 418.000118,194.94171 418.000118,201.50802 C418.000118,202.810491 417.918476,204.093895 417.76003,205.353391 L426.366398,207.172372 C427.479101,207.407546 428.190478,208.500217 427.955303,209.612919 C427.954976,209.614469 427.954646,209.616018 427.954315,209.617566 C427.715865,210.733044 426.619499,211.445028 425.503474,211.209151 L416.967854,209.40511 C414.931788,217.021862 410.021163,223.464064 403.469433,227.498261 L407.464615,234.96961 C408.001859,235.974304 407.622916,237.224292 406.618222,237.761536 C406.61537,237.76306 406.612515,237.764578 406.609657,237.76609 C405.59631,238.301848 404.340515,237.917918 403.799997,236.907102 L399.799805,229.426384 Z M377.949847,223.916771 C380.882319,225.16815 384.110338,225.860733 387.500118,225.860733 C390.828168,225.860733 394.000294,225.193145 396.889889,223.984579 L389.800888,210.727512 C389.064196,210.91076 388.293515,211.00802 387.500118,211.00802 C386.644446,211.00802 385.815196,210.894893 385.026509,210.682779 L377.949847,223.916771 Z M374.290175,221.97003 L381.356865,208.754686 C380.186266,207.761343 379.259483,206.489434 378.678927,205.041372 L364.058929,208.131373 C365.684444,213.895881 369.379036,218.792944 374.290175,221.97003 Z M363.281249,204.076577 L378.015523,200.962423 C378.096143,199.538582 378.490325,198.198609 379.130107,197.010465 L367.421641,187.723233 C364.72554,191.642789 363.147404,196.391107 363.147404,201.50802 C363.147404,202.375548 363.192767,203.232481 363.281249,204.076577 Z M370.045852,184.52556 L381.8379,193.87909 C382.890522,193.096549 384.11067,192.526709 385.434748,192.233166 L385.434748,177.241656 C379.416253,177.7471 374.020413,180.441275 370.045852,184.52556 Z M389.585185,177.243318 L389.585185,192.237555 C390.896262,192.531158 392.104971,193.095772 393.149427,193.869511 L404.943495,184.514378 C400.97431,180.440812 395.590263,177.752515 389.585185,177.243318 Z M407.56977,187.710414 L395.86264,196.996586 C396.506834,198.188171 396.903778,199.533036 396.984712,200.962423 L411.718986,204.076577 C411.807468,203.232481 411.852831,202.375548 411.852831,201.50802 C411.852831,196.385528 410.271251,191.632433 407.56977,187.710414 Z M410.941306,208.131373 L396.321308,205.041372 C395.718425,206.545125 394.74217,207.858915 393.507233,208.868053 L400.563578,222.064051 C405.547711,218.889995 409.29967,213.953052 410.941306,208.131373 Z M387.500118,204.83302 C389.336464,204.83302 390.825118,203.344366 390.825118,201.50802 C390.825118,199.671673 389.336464,198.18302 387.500118,198.18302 C385.663771,198.18302 384.175118,199.671673 384.175118,201.50802 C384.175118,203.344366 385.663771,204.83302 387.500118,204.83302 Z" id="path-7"></path><filter filterunits="objectBoundingBox" height="242.3%" id="filter-8" width="237.0%" x="-68.5%" y="-71.2%"><feoffset dx="0" dy="0" in="SourceAlpha" result="shadowOffsetOuter1"></feoffset><fegaussianblur in="shadowOffsetOuter1" result="shadowBlurOuter1" stddeviation="18.5"></fegaussianblur><fecolormatrix in="shadowBlurOuter1" type="matrix" values="0 0 0 0 0   0 0 0 0 0   0 0 0 0 0  0 0 0 0.507457386 0"></fecolormatrix></filter></defs><g fill="none" fill-rule="evenodd" id="Landing-v3" stroke="none" stroke-width="1"><g id="Desktop-HD" transform="translate(-322.000000, -428.000000)"><g id="Group"><g id="Diagram" transform="translate(322.000000, 368.000000)"><g fill-rule="nonzero" id="Lines"><path d="M351.5,194.00802 C352.604569,194.00802 353.5,194.90345 353.5,196.00802 C353.5,197.112589 352.604569,198.00802 351.5,198.00802 L350.5,198.00802 C349.395431,198.00802 348.5,197.112589 348.5,196.00802 C348.5,194.90345 349.395431,194.00802 350.5,194.00802 L351.5,194.00802 Z M336.499211,194.00802 C337.603781,194.00802 338.499211,194.90345 338.499211,196.00802 C338.499211,197.112589 337.603781,198.00802 336.499211,198.00802 L335.499211,198.00802 C334.394642,198.00802 333.499211,197.112589 333.499211,196.00802 C333.499211,194.90345 334.394642,194.00802 335.499211,194.00802 L336.499211,194.00802 Z M321.50448,194.00802 C322.60905,194.00802 323.50448,194.90345 323.50448,196.00802 C323.50448,197.112589 322.60905,198.00802 321.50448,198.00802 L320.50448,198.00802 C319.399911,198.00802 318.50448,197.112589 318.50448,196.00802 C318.50448,194.90345 319.399911,194.00802 320.50448,194.00802 L321.50448,194.00802 Z M306.504421,194.00802 C307.608991,194.00802 308.504421,194.90345 308.504421,196.00802 C308.504421,197.112589 307.608991,198.00802 306.504421,198.00802 L305.504421,198.00802 C304.399852,198.00802 303.504421,197.112589 303.504421,196.00802 C303.504421,194.90345 304.399852,194.00802 305.504421,194.00802 L306.504421,194.00802 Z M291.501806,194.00802 C292.606375,194.00802 293.501806,194.90345 293.501806,196.00802 C293.501806,197.112589 292.606375,198.00802 291.501806,198.00802 L290.501806,198.00802 C289.397236,198.00802 288.501806,197.112589 288.501806,196.00802 C288.501806,194.90345 289.397236,194.00802 290.501806,194.00802 L291.501806,194.00802 Z M276.499383,194.00802 C277.603953,194.00802 278.499383,194.90345 278.499383,196.00802 C278.499383,197.112589 277.603953,198.00802 276.499383,198.00802 L275.499383,198.00802 C274.394814,198.00802 273.499383,197.112589 273.499383,196.00802 C273.499383,194.90345 274.394814,194.00802 275.499383,194.00802 L276.499383,194.00802 Z M261.499882,194.00802 C262.604451,194.00802 263.499882,194.90345 263.499882,196.00802 C263.499882,197.112589 262.604451,198.00802 261.499882,198.00802 L260.499882,198.00802 C259.395312,198.00802 258.499882,197.112589 258.499882,196.00802 C258.499882,194.90345 259.395312,194.00802 260.499882,194.00802 L261.499882,194.00802 Z M246.496022,194.00802 C247.600591,194.00802 248.496022,194.90345 248.496022,196.00802 C248.496022,197.112589 247.600591,198.00802 246.496022,198.00802 L245.496022,198.00802 C244.391452,198.00802 243.496022,197.112589 243.496022,196.00802 C243.496022,194.90345 244.391452,194.00802 245.496022,194.00802 L246.496022,194.00802 Z M231.500327,194.00802 C232.604897,194.00802 233.500327,194.90345 233.500327,196.00802 C233.500327,197.112589 232.604897,198.00802 231.500327,198.00802 L230.500327,198.00802 C229.395758,198.00802 228.500327,197.112589 228.500327,196.00802 C228.500327,194.90345 229.395758,194.00802 230.500327,194.00802 L231.500327,194.00802 Z M216.495196,194.00802 C217.599765,194.00802 218.495196,194.90345 218.495196,196.00802 C218.495196,197.112589 217.599765,198.00802 216.495196,198.00802 L215.495196,198.00802 C214.390626,198.00802 213.495196,197.112589 213.495196,196.00802 C213.495196,194.90345 214.390626,194.00802 215.495196,194.00802 L216.495196,194.00802 Z M201.503249,194.00802 C202.607818,194.00802 203.503249,194.90345 203.503249,196.00802 C203.503249,197.112589 202.607818,198.00802 201.503249,198.00802 L200.503249,198.00802 C199.398679,198.00802 198.503249,197.112589 198.503249,196.00802 C198.503249,194.90345 199.398679,194.00802 200.503249,194.00802 L201.503249,194.00802 Z M186.360477,194.131063 C187.462408,194.054768 188.417549,194.886211 188.493844,195.988142 C188.570139,197.090074 187.738696,198.045215 186.636765,198.12151 L185.639153,198.190582 C184.537221,198.266876 183.58208,197.435434 183.505786,196.333502 C183.429491,195.231571 184.260934,194.27643 185.362865,194.200135 L186.360477,194.131063 Z M171.150129,198.083285 C172.140097,197.59335 173.339796,197.998707 173.829731,198.988675 C174.319667,199.978644 173.91431,201.178343 172.924341,201.668278 L172.028093,202.111831 C171.038125,202.601766 169.838426,202.196409 169.348491,201.206441 C168.858556,200.216473 169.263913,199.016774 170.253881,198.526839 L171.150129,198.083285 Z M158.785132,207.738838 C159.520525,206.91466 160.784808,206.842686 161.608987,207.578079 C162.433165,208.313472 162.50514,209.577755 161.769746,210.401934 L161.103972,211.148087 C160.368579,211.972266 159.104296,212.04424 158.280118,211.308847 C157.455939,210.573453 157.383965,209.309171 158.119358,208.484992 L158.785132,207.738838 Z M149.868724,220.23373 C150.441185,219.289081 151.671046,218.987363 152.615695,219.559824 C153.560344,220.132286 153.862062,221.362146 153.289601,222.306796 L152.771335,223.162015 C152.198874,224.106664 150.969013,224.408382 150.024364,223.835921 C149.079714,223.26346 148.777996,222.033599 149.350458,221.08895 L149.868724,220.23373 Z M142.249872,233.161863 C142.827287,232.220234 144.058715,231.92498 145.000345,232.502395 C145.941974,233.07981 146.237228,234.311238 145.659813,235.252868 L145.137062,236.105353 C144.559647,237.046982 143.328219,237.342236 142.386589,236.764822 C141.44496,236.187407 141.149706,234.955978 141.727121,234.014349 L142.249872,233.161863 Z M133.613269,244.93778 C134.369831,244.13299 135.635557,244.093893 136.440348,244.850456 C137.245138,245.607018 137.284234,246.872744 136.527672,247.677535 L135.842734,248.406135 C135.086171,249.210926 133.820445,249.250022 133.015655,248.49346 C132.210864,247.736898 132.171768,246.471171 132.92833,245.666381 L133.613269,244.93778 Z M122.155428,253.130396 C123.173118,252.701002 124.346212,253.177911 124.775606,254.195602 C125.205,255.213292 124.728091,256.386386 123.7104,256.81578 L122.789054,257.204523 C121.771363,257.633917 120.598269,257.157008 120.168876,256.139318 C119.739482,255.121627 120.216391,253.948533 121.234081,253.519139 L122.155428,253.130396 Z M108.29038,255.767535 C109.394933,255.761558 110.295221,256.652105 110.301258,257.756658 C110.307235,258.861211 109.416688,259.761499 108.312135,259.767506 L107.31215,259.772975 C106.207597,259.778952 105.307309,258.888405 105.301272,257.783852 C105.295295,256.679298 106.185842,255.779011 107.290395,255.773004 L108.29038,255.767535 Z M93.2965694,255.768264 C94.4011389,255.768264 95.2965694,256.663694 95.2965694,257.768264 C95.2965694,258.872833 94.4011389,259.768264 93.2965694,259.768264 L92.2965694,259.768264 C91.1919999,259.768264 90.2965694,258.872833 90.2965694,257.768264 C90.2965694,256.663694 91.1919999,255.768264 92.2965694,255.768264 L93.2965694,255.768264 Z M78.2982309,255.768264 C79.4028004,255.768264 80.2982309,256.663694 80.2982309,257.768264 C80.2982309,258.872833 79.4028004,259.768264 78.2982309,259.768264 L77.2982309,259.768264 C76.1936614,259.768264 75.2982309,258.872833 75.2982309,257.768264 C75.2982309,256.663694 76.1936614,255.768264 77.2982309,255.768264 L78.2982309,255.768264 Z M63.2966297,255.768264 C64.4011992,255.768264 65.2966297,256.663694 65.2966297,257.768264 C65.2966297,258.872833 64.4011992,259.768264 63.2966297,259.768264 L62.2966297,259.768264 C61.1920603,259.768264 60.2966297,258.872833 60.2966297,257.768264 C60.2966297,256.663694 61.1920603,255.768264 62.2966297,255.768264 L63.2966297,255.768264 Z M48.2958281,255.768264 C49.4003976,255.768264 50.2958281,256.663694 50.2958281,257.768264 C50.2958281,258.872833 49.4003976,259.768264 48.2958281,259.768264 L47.2958281,259.768264 C46.1912586,259.768264 45.2958281,258.872833 45.2958281,257.768264 C45.2958281,256.663694 46.1912586,255.768264 47.2958281,255.768264 L48.2958281,255.768264 Z M33.3002577,255.768264 C34.4048272,255.768264 35.3002577,256.663694 35.3002577,257.768264 C35.3002577,258.872833 34.4048272,259.768264 33.3002577,259.768264 L32.3002577,259.768264 C31.1956882,259.768264 30.3002577,258.872833 30.3002577,257.768264 C30.3002577,256.663694 31.1956882,255.768264 32.3002577,255.768264 L33.3002577,255.768264 Z M18.3007051,255.768264 C19.4052746,255.768264 20.3007051,256.663694 20.3007051,257.768264 C20.3007051,258.872833 19.4052746,259.768264 18.3007051,259.768264 L17.3007051,259.768264 C16.1961356,259.768264 15.3007051,258.872833 15.3007051,257.768264 C15.3007051,256.663694 16.1961356,255.768264 17.3007051,255.768264 L18.3007051,255.768264 Z M3.30061569,255.768264 C4.40518519,255.768264 5.30061569,256.663694 5.30061569,257.768264 C5.30061569,258.872833 4.40518519,259.768264 3.30061569,259.768264 L2.30061569,259.768264 C1.19604619,259.768264 0.300615693,258.872833 0.300615693,257.768264 C0.300615693,256.663694 1.19604619,255.768264 2.30061569,255.768264 L3.30061569,255.768264 Z M353.809571,224.583713 L353.017714,225.19442 C352.143053,225.868989 350.887155,225.706782 350.212587,224.832121 C349.538018,223.95746 349.700225,222.701562 350.574886,222.026994 L351.366742,221.416287 C352.241403,220.741718 353.497301,220.903925 354.17187,221.778586 C354.846438,222.653247 354.684231,223.909145 353.809571,224.583713 Z M341.931721,233.744318 L341.139864,234.355026 C340.265204,235.029594 339.009305,234.867387 338.334737,233.992726 C337.660169,233.118066 337.822375,231.862167 338.697036,231.187599 L339.488893,230.576892 C340.363554,229.902324 341.619452,230.06453 342.29402,230.939191 C342.968588,231.813852 342.806382,233.06975 341.931721,233.744318 Z M330.053871,242.904924 L329.262015,243.515631 C328.387354,244.190199 327.131456,244.027992 326.456887,243.153331 C325.782319,242.278671 325.944526,241.022772 326.819187,240.348204 L327.611043,239.737497 C328.485704,239.062929 329.741602,239.225136 330.41617,240.099796 C331.090739,240.974457 330.928532,242.230355 330.053871,242.904924 Z M318.176022,252.065529 L317.384165,252.676236 C316.509504,253.350804 315.253606,253.188597 314.579038,252.313937 C313.904469,251.439276 314.066676,250.183378 314.941337,249.508809 L315.733194,248.898102 C316.607854,248.223534 317.863752,248.385741 318.538321,249.260402 C319.212889,250.135062 319.050682,251.390961 318.176022,252.065529 Z M306.298172,261.226134 L305.506315,261.836841 C304.631655,262.511409 303.375756,262.349203 302.701188,261.474542 C302.02662,260.599881 302.188827,259.343983 303.063487,258.669415 L303.855344,258.058708 C304.730005,257.384139 305.985903,257.546346 306.660471,258.421007 C307.33504,259.295668 307.172833,260.551566 306.298172,261.226134 Z M294.420322,270.386739 L293.628466,270.997446 C292.753805,271.672015 291.497907,271.509808 290.823338,270.635147 C290.14877,269.760486 290.310977,268.504588 291.185638,267.83002 L291.977494,267.219313 C292.852155,266.544744 294.108053,266.706951 294.782622,267.581612 C295.45719,268.456273 295.294983,269.712171 294.420322,270.386739 Z M282.542473,279.547345 L281.750616,280.158052 C280.875955,280.83262 279.620057,280.670413 278.945489,279.795752 C278.27092,278.921092 278.433127,277.665193 279.307788,276.990625 L280.099645,276.379918 C280.974305,275.70535 282.230204,275.867557 282.904772,276.742217 C283.57934,277.616878 283.417133,278.872776 282.542473,279.547345 Z M270.664623,288.70795 L269.872766,289.318657 C268.998106,289.993225 267.742207,289.831018 267.067639,288.956357 C266.393071,288.081697 266.555278,286.825799 267.429938,286.15123 L268.221795,285.540523 C269.096456,284.865955 270.352354,285.028162 271.026922,285.902822 C271.701491,286.777483 271.539284,288.033381 270.664623,288.70795 Z M258.786773,297.868555 L257.994917,298.479262 C257.120256,299.15383 255.864358,298.991623 255.189789,298.116963 C254.515221,297.242302 254.677428,295.986404 255.552089,295.311835 L256.343945,294.701128 C257.218606,294.02656 258.474504,294.188767 259.149073,295.063428 C259.823641,295.938088 259.661434,297.193987 258.786773,297.868555 Z M246.908924,307.02916 L246.117067,307.639867 C245.242406,308.314436 243.986508,308.152229 243.31194,307.277568 C242.637371,306.402907 242.799578,305.147009 243.674239,304.472441 L244.466096,303.861734 C245.340756,303.187165 246.596655,303.349372 247.271223,304.224033 C247.945791,305.098694 247.783584,306.354592 246.908924,307.02916 Z M235.031074,316.189765 L234.239217,316.800472 C233.364557,317.475041 232.108658,317.312834 231.43409,316.438173 C230.759522,315.563512 230.921729,314.307614 231.796389,313.633046 L232.588246,313.022339 C233.462907,312.34777 234.718805,312.509977 235.393373,313.384638 C236.067942,314.259299 235.905735,315.515197 235.031074,316.189765 Z M223.153224,325.350371 L222.361368,325.961078 C221.486707,326.635646 220.230809,326.473439 219.55624,325.598778 C218.881672,324.724118 219.043879,323.468219 219.91854,322.793651 L220.710396,322.182944 C221.585057,321.508376 222.840955,321.670583 223.515524,322.545243 C224.190092,323.419904 224.027885,324.675802 223.153224,325.350371 Z M211.275375,334.510976 L210.483518,335.121683 C209.608857,335.796251 208.352959,335.634044 207.678391,334.759384 C207.003822,333.884723 207.166029,332.628825 208.04069,331.954256 L208.832547,331.343549 C209.707207,330.668981 210.963106,330.831188 211.637674,331.705848 C212.312242,332.580509 212.150035,333.836407 211.275375,334.510976 Z M199.397525,343.671581 L198.605668,344.282288 C197.731008,344.956856 196.47511,344.794649 195.800541,343.919989 C195.125973,343.045328 195.28818,341.78943 196.16284,341.114861 L196.954697,340.504154 C197.829358,339.829586 199.085256,339.991793 199.759824,340.866454 C200.434393,341.741114 200.272186,342.997013 199.397525,343.671581 Z M343.780426,174.17282 L343.070937,173.468104 C342.287257,172.689696 342.282983,171.423373 343.061391,170.639693 C343.839799,169.856012 345.106122,169.851738 345.889802,170.630146 L346.599291,171.334863 C347.382972,172.113271 347.387245,173.379593 346.608837,174.163274 C345.830429,174.946954 344.564107,174.951228 343.780426,174.17282 Z M333.003631,163.842413 L332.269782,163.1631 C331.459195,162.412753 331.410361,161.147365 332.160709,160.336777 C332.911056,159.52619 334.176444,159.477356 334.987032,160.227704 L335.720881,160.907016 C336.531468,161.657364 336.580302,162.922752 335.829954,163.73334 C335.079606,164.543927 333.814218,164.592761 333.003631,163.842413 Z M321.871461,153.878855 L321.115465,153.224278 C320.280416,152.501252 320.189603,151.238182 320.912629,150.403133 C321.635655,149.568084 322.898725,149.477271 323.733774,150.200297 L324.489769,150.854874 C325.324818,151.5779 325.415631,152.840969 324.692605,153.676018 C323.96958,154.511068 322.70651,154.601881 321.871461,153.878855 Z M310.428107,144.282463 L309.652026,143.651831 C308.794789,142.955254 308.66455,141.695639 309.361127,140.838403 C310.057704,139.981167 311.317319,139.850927 312.174555,140.547504 L312.950637,141.178137 C313.807873,141.874714 313.938113,143.134329 313.241535,143.991565 C312.544958,144.848801 311.285343,144.979041 310.428107,144.282463 Z M299.103327,137.010134 L298.105958,136.937632 C297.004296,136.857549 296.176142,135.899554 296.256226,134.797892 C296.336309,133.696229 297.294303,132.868076 298.395966,132.948159 L299.393334,133.020661 C300.494997,133.100744 301.32315,134.058739 301.243067,135.160401 C301.162984,136.262064 300.204989,137.090218 299.103327,137.010134 Z M284.219207,136.485205 L283.219394,136.465889 C282.11503,136.444552 281.237064,135.531992 281.2584,134.427629 C281.279737,133.323265 282.192297,132.445298 283.29666,132.466635 L284.296474,132.485951 C285.400837,132.507288 286.278804,133.419848 286.257467,134.524211 C286.236131,135.628575 285.323571,136.506542 284.219207,136.485205 Z M269.239245,136.284791 L268.239285,136.275819 C267.13476,136.265909 266.2474,135.362481 266.25731,134.257956 C266.26722,133.153431 267.170648,132.26607 268.275173,132.27598 L269.275133,132.284952 C270.379658,132.294862 271.267019,133.198291 271.257109,134.302816 C271.247198,135.407341 270.34377,136.294701 269.239245,136.284791 Z M254.251692,136.191596 L253.2517,136.187647 C252.147139,136.183303 251.255236,135.284358 251.259558,134.179797 C251.263924,133.075236 252.162869,132.183334 253.26743,132.187662 L254.267423,132.191611 C255.371984,132.195955 256.263886,133.0949 256.259558,134.199461 C256.255198,135.304022 255.356253,136.195924 254.251692,136.191596 Z M239.254372,136.157597 L238.254372,136.156787 C237.149803,136.155892 236.255098,135.259737 236.255991,134.155168 C236.256887,133.050599 237.153042,132.155894 238.257611,132.156787 L239.257611,132.157598 C240.36218,132.158493 241.256885,133.054648 241.255991,134.159217 C241.255096,135.263786 240.358941,136.158491 239.254372,136.157597 Z M224.263978,136.162627 L223.263979,136.163993 C222.15941,136.165499 221.262758,135.271292 221.261247,134.166723 C221.259742,133.062155 222.153949,132.165503 223.258517,132.163994 L224.258516,132.162627 C225.363085,132.161121 226.259737,133.055328 226.261247,134.159897 C226.262753,135.264465 225.368546,136.161117 224.263978,136.162627 Z M209.26562,136.195856 L208.265624,136.19885 C207.16106,136.202147 206.262953,135.309401 206.259633,134.204837 C206.25634,133.100272 207.149086,132.202165 208.253651,132.198859 L209.253646,132.195856 C210.358211,132.192559 211.256318,133.085305 211.259633,134.189869 C211.262931,135.294434 210.370185,136.192541 209.26562,136.195856 Z M194.267814,136.250675 L193.267823,136.254964 C192.163263,136.259662 191.264017,135.368064 191.259273,134.263504 C191.254583,133.158945 192.146182,132.259699 193.250741,132.254982 L194.250732,132.250693 C195.355292,132.245994 196.254538,133.137593 196.259273,134.242152 C196.263972,135.346712 195.372373,136.245958 194.267814,136.250675 Z M179.269145,136.322749 L178.269159,136.328084 C177.164605,136.333917 176.264436,135.443251 176.258545,134.338697 C176.252712,133.234143 177.143379,132.333974 178.247933,132.328112 L179.247918,132.322777 C180.352472,132.316944 181.252642,133.20761 181.258532,134.312164 C181.264365,135.416718 180.373699,136.316887 179.269145,136.322749 Z M164.271391,136.408994 L163.27141,136.415203 C162.166862,136.421978 161.265924,135.532089 161.259071,134.427541 C161.252295,133.322992 162.142184,132.422054 163.246733,132.41524 L164.246714,132.409031 C165.351262,132.402256 166.2522,133.292145 166.259053,134.396693 C166.265829,135.501242 165.37594,136.40218 164.271391,136.408994 Z M149.266713,136.507209 L148.266737,136.514112 C147.162194,136.521736 146.260604,135.632508 146.252931,134.527965 C146.245355,133.423422 147.134583,132.521832 148.239126,132.514207 L149.239103,132.507305 C150.343646,132.49968 151.245236,133.388908 151.252909,134.493452 C151.260485,135.597995 150.371256,136.499585 149.266713,136.507209 Z M134.281434,136.615496 L133.281462,136.623031 C132.176924,136.631354 131.274772,135.742695 131.266449,134.638157 C131.258127,133.533619 132.146785,132.631467 133.251323,132.623144 L134.251295,132.61561 C135.355833,132.607287 136.257985,133.495945 136.266307,134.600484 C136.27463,135.705022 135.385972,136.607174 134.281434,136.615496 Z M119.290555,136.732686 L118.290588,136.740773 C117.186055,136.749707 116.283411,135.861548 116.274478,134.757014 C116.265544,133.652481 117.153704,132.749838 118.258237,132.740904 L119.258204,132.732816 C120.362738,132.723883 121.265381,133.612042 121.274314,134.716575 C121.283248,135.821109 120.395089,136.723752 119.290555,136.732686 Z M104.270058,136.857925 L103.270095,136.866503 C102.165566,136.875977 101.262488,135.988261 101.253013,134.883732 C101.243538,133.779203 102.131255,132.876125 103.235784,132.86665 L104.235747,132.858072 C105.340276,132.848597 106.243354,133.736314 106.252829,134.840843 C106.262304,135.945372 105.374587,136.84845 104.270058,136.857925 Z M89.2905361,136.989747 L88.2905767,136.998761 C87.1860521,137.008718 86.2825866,136.121395 86.27263,135.016871 C86.2626734,133.912346 87.1499962,133.008881 88.2545208,132.998924 L89.2544802,132.98991 C90.3590048,132.979953 91.2624703,133.867276 91.2724269,134.971801 C91.2823834,136.076325 90.3950607,136.979791 89.2905361,136.989747 Z M74.2712083,137.128143 L73.2712526,137.13755 C72.166732,137.147941 71.2629174,136.260974 71.2525261,135.156453 C71.2421349,134.051933 72.1291021,133.148118 73.2336227,133.137727 L74.2335784,133.12832 C75.3380991,133.117928 76.2419137,134.004895 76.2523049,135.109416 C76.2626961,136.213937 75.375729,137.117751 74.2712083,137.128143 Z M59.293453,137.271757 L58.2935006,137.28152 C57.1889838,137.292304 56.2848538,136.405658 56.2740699,135.301141 C56.263286,134.196624 57.1499317,133.292495 58.2544485,133.281711 L59.2544009,133.271948 C60.3589177,133.261164 61.2630477,134.147809 61.2738316,135.252326 C61.2846155,136.356843 60.3979698,137.260973 59.293453,137.271757 Z M44.2826511,137.42079 L43.282702,137.430877 C42.1781887,137.44202 41.2737708,136.555668 41.262628,135.451155 C41.2514853,134.346642 42.1378373,133.442224 43.2423506,133.431081 L44.2422997,133.420993 C45.346813,133.40985 46.2512309,134.296202 46.2623736,135.400716 C46.2735164,136.505229 45.3871644,137.409647 44.2826511,137.42079 Z" fill="url(#radialGradient-1)" id="Combined-Shape"></path><path d="M780.296495,302.932691 L781.296495,302.932691 C782.401064,302.932691 783.296495,302.03726 783.296495,300.932691 C783.296495,299.828121 782.401064,298.932691 781.296495,298.932691 L780.296495,298.932691 C779.191925,298.932691 778.296495,299.828121 778.296495,300.932691 C778.296495,302.03726 779.191925,302.932691 780.296495,302.932691 Z M768.562111,298.932691 L767.562111,298.932691 C766.457542,298.932691 765.562111,299.828121 765.562111,300.932691 C765.562111,302.03726 766.457542,302.932691 767.562111,302.932691 L768.562111,302.932691 C769.666681,302.932691 770.562111,302.03726 770.562111,300.932691 C770.562111,299.828121 769.666681,298.932691 768.562111,298.932691 Z M753.280497,298.932691 L752.280497,298.932691 C751.175927,298.932691 750.280497,299.828121 750.280497,300.932691 C750.280497,302.03726 751.175927,302.932691 752.280497,302.932691 L753.280497,302.932691 C754.385066,302.932691 755.280497,302.03726 755.280497,300.932691 C755.280497,299.828121 754.385066,298.932691 753.280497,298.932691 Z M738.393906,298.932691 L737.393906,298.932691 C736.289336,298.932691 735.393906,299.828121 735.393906,300.932691 C735.393906,302.03726 736.289336,302.932691 737.393906,302.932691 L738.393906,302.932691 C739.498475,302.932691 740.393906,302.03726 740.393906,300.932691 C740.393906,299.828121 739.498475,298.932691 738.393906,298.932691 Z M723.507843,298.932691 L722.507843,298.932691 C721.403273,298.932691 720.507843,299.828121 720.507843,300.932691 C720.507843,302.03726 721.403273,302.932691 722.507843,302.932691 L723.507843,302.932691 C724.612412,302.932691 725.507843,302.03726 725.507843,300.932691 C725.507843,299.828121 724.612412,298.932691 723.507843,298.932691 Z M708.55326,298.933175 L707.553269,298.937436 C706.448709,298.942123 705.557086,299.841345 705.561755,300.945905 C705.56646,302.050464 706.465682,302.942087 707.570241,302.937419 L708.570232,302.933157 C709.674792,302.92847 710.566415,302.029248 710.561755,300.924689 C710.557041,299.820129 709.657819,298.928506 708.55326,298.933175 Z M693.15267,301.461668 L692.208401,301.790842 C691.16539,302.154438 690.614615,303.294718 690.97821,304.337729 C691.341806,305.38074 692.482086,305.931515 693.525097,305.567919 L694.469366,305.238745 C695.512377,304.875149 696.063152,303.734869 695.699557,302.691858 C695.335961,301.648847 694.195681,301.098072 693.15267,301.461668 Z M679.528056,309.101528 L678.746042,309.724789 C677.882254,310.413225 677.740102,311.671551 678.428538,312.535339 C679.116974,313.399127 680.3753,313.541279 681.239088,312.852843 L682.021102,312.229581 C682.88489,311.541146 683.027041,310.28282 682.338606,309.419032 C681.65017,308.555243 680.391844,308.413092 679.528056,309.101528 Z M668.647778,320.021836 L668.007507,320.789985 C667.300282,321.638458 667.414787,322.899601 668.263261,323.606825 C669.111735,324.314049 670.372877,324.199544 671.080101,323.35107 L671.720373,322.582922 C672.427597,321.734448 672.313092,320.473306 671.464618,319.766081 C670.616145,319.058857 669.355002,319.173362 668.647778,320.021836 Z M659.444751,331.992066 L658.848992,332.795228 C658.190934,333.682378 658.376649,334.935015 659.263798,335.593073 C660.150947,336.251131 661.403585,336.065416 662.061643,335.178267 L662.657402,334.375104 C663.31546,333.487955 663.129745,332.235317 662.242596,331.577259 C661.355447,330.919201 660.102809,331.104917 659.444751,331.992066 Z M650.267296,343.683432 L649.610256,344.437287 C648.884509,345.269973 648.9712,346.533332 649.803886,347.259079 C650.636572,347.984825 651.899931,347.898134 652.625678,347.065448 L653.282718,346.311593 C654.008464,345.478907 653.921773,344.215548 653.089087,343.489801 C652.256401,342.764055 650.993042,342.850746 650.267296,343.683432 Z M639.653334,353.561661 L638.836594,354.138666 C637.934448,354.776009 637.719781,356.024011 638.357124,356.926157 C638.994466,357.828304 640.242469,358.04297 641.144615,357.405628 L641.961356,356.828622 C642.863502,356.19128 643.078168,354.943277 642.440826,354.041131 C641.803483,353.138984 640.555481,352.924318 639.653334,353.561661 Z M626.791262,359.525866 L625.820661,359.766559 C624.748564,360.032421 624.094982,361.117051 624.360844,362.189147 C624.626706,363.261244 625.711335,363.914826 626.783432,363.648964 L627.754033,363.408272 C628.82613,363.14241 629.479712,362.05778 629.213851,360.985683 C628.947989,359.913587 627.863359,359.260004 626.791262,359.525866 Z M612.341008,360.706745 L611.341025,360.712535 C610.236473,360.718894 609.346212,361.619464 609.352537,362.724015 C609.358929,363.828566 610.259499,364.718827 611.36405,364.712503 L612.364034,364.706712 C613.468585,364.700354 614.358846,363.799784 614.352522,362.695233 C614.346129,361.590682 613.445559,360.70042 612.341008,360.706745 Z M597.322283,360.8776 L596.322403,360.893118 C595.217966,360.910259 594.336539,361.819477 594.35368,362.923913 C594.370821,364.02835 595.280039,364.909777 596.384475,364.892636 L597.384355,364.877118 C598.488791,364.859977 599.370219,363.950759 599.353078,362.846323 C599.335937,361.741886 598.426719,360.860459 597.322283,360.8776 Z M582.315117,361.149089 L581.315321,361.169306 C580.210977,361.191638 579.333833,362.104989 579.356165,363.209332 C579.378496,364.313676 580.291847,365.19082 581.396191,365.168489 L582.395987,365.148271 C583.50033,365.12594 584.377474,364.212589 584.355143,363.108245 C584.332811,362.003901 583.41946,361.126757 582.315117,361.149089 Z M567.315326,361.475619 L566.315593,361.498732 C565.211318,361.524262 564.336823,362.44015 564.362354,363.544424 C564.387884,364.648699 565.303772,365.523194 566.408046,365.497664 L567.407779,365.47455 C568.512053,365.44902 569.386548,364.533132 569.361018,363.428858 C569.335488,362.324584 568.4196,361.450089 567.315326,361.475619 Z M552.310729,361.838443 L551.311045,361.86357 C550.206824,361.891324 549.334175,362.808971 549.36193,363.913192 C549.389684,365.017412 550.307331,365.890061 551.411552,365.862307 L552.411236,365.83718 C553.515457,365.809426 554.388105,364.891779 554.360351,363.787558 C554.332597,362.683337 553.41495,361.810689 552.310729,361.838443 Z M537.321109,362.226966 L536.321464,362.253595 C535.217286,362.283009 534.346017,363.201966 534.375431,364.306144 C534.404844,365.410322 535.323801,366.28159 536.427979,366.252177 L537.427625,366.225548 C538.531802,366.196135 539.403071,365.277177 539.373658,364.173 C539.344244,363.068822 538.425287,362.197553 537.321109,362.226966 Z M522.315583,362.635868 L521.31597,362.663675 C520.211827,362.694389 519.341642,363.614373 519.372357,364.718515 C519.403072,365.822657 520.323055,366.692843 521.427197,366.662128 L522.426811,366.634321 C523.530953,366.603606 524.401138,365.683623 524.370423,364.57948 C524.339709,363.475338 523.419725,362.605153 522.315583,362.635868 Z M507.324569,363.060277 L506.324983,363.089038 C505.22087,363.120807 504.351564,364.041621 504.383333,365.145733 C504.415102,366.249846 505.335915,367.119152 506.440028,367.087384 L507.439614,367.058622 C508.543727,367.026854 509.413033,366.10604 509.381264,365.001927 C509.349496,363.897815 508.428682,363.028508 507.324569,363.060277 Z M492.332622,363.497774 L491.333059,363.527329 C490.228972,363.559975 489.360398,364.481479 489.393044,365.585566 C489.425689,366.689653 490.347193,367.558227 491.45128,367.525582 L492.450844,367.496026 C493.554931,367.46338 494.423505,366.541876 494.390859,365.437789 C494.358213,364.333702 493.436709,363.465128 492.332622,363.497774 Z M477.335305,363.946412 L476.335762,363.976642 C475.231697,364.010033 474.363744,364.932123 474.397135,366.036187 C474.430526,367.140252 475.352616,368.008205 476.456681,367.974814 L477.456224,367.944584 C478.560288,367.911193 479.428241,366.989103 479.39485,365.885039 C479.361459,364.780974 478.439369,363.913021 477.335305,363.946412 Z M462.344782,364.404246 L461.345257,364.435057 C460.241212,364.469091 459.373796,365.391685 459.407829,366.49573 C459.441863,367.599775 460.364457,368.467191 461.468502,368.433158 L462.468028,368.402347 C463.572073,368.368314 464.439489,367.445719 464.405455,366.341674 C464.371422,365.237629 463.448827,364.370213 462.344782,364.404246 Z M447.345846,364.870505 L446.346336,364.901825 C445.242308,364.936421 444.375362,365.859457 444.409957,366.963484 C444.444553,368.067512 445.367589,368.934458 446.471617,368.899863 L447.471126,368.868543 C448.575154,368.833948 449.4421,367.910912 449.407505,366.806884 C449.372909,365.702856 448.449873,364.83591 447.345846,364.870505 Z M432.361906,365.343472 L431.362411,365.375242 C430.258399,365.410333 429.391868,366.333759 429.42696,367.437771 C429.462051,368.541783 430.385477,369.408314 431.489489,369.373222 L432.488984,369.341453 C433.592996,369.306361 434.459527,368.382936 434.424436,367.278924 C434.389344,366.174912 433.465918,365.308381 432.361906,365.343472 Z M417.359199,365.823412 L416.359717,365.855583 C415.255719,365.891118 414.389559,366.814892 414.425094,367.918889 C414.460629,369.022887 415.384403,369.889047 416.488401,369.853512 L417.487883,369.821341 C418.591881,369.785806 419.458041,368.862033 419.422506,367.758035 C419.386971,366.654037 418.463197,365.787877 417.359199,365.823412 Z M402.376437,366.308423 L401.376966,366.340955 C400.272981,366.376888 399.407155,367.300974 399.443088,368.404959 C399.479021,369.508944 400.403108,370.374771 401.507093,370.338837 L402.506563,370.306306 C403.610548,370.270372 404.476375,369.346286 404.440442,368.242301 C404.404508,367.138316 403.480422,366.27249 402.376437,366.308423 Z M387.376791,366.79914 L386.377331,366.831999 C385.273358,366.868293 384.407833,367.792663 384.444128,368.896636 C384.480423,370.000609 385.404792,370.866133 386.508765,370.829839 L387.508225,370.79698 C388.612199,370.760685 389.477723,369.836316 389.441428,368.732343 C389.405133,367.62837 388.480764,366.762845 387.376791,366.79914 Z" fill="url(#linearGradient-2)" id="Line" transform="translate(583.869761, 334.881815) rotate(-136.000000) translate(-583.869761, -334.881815) "></path><path d="M384.192127,239.888142 L384.192127,240.888142 C384.192127,241.992711 385.087558,242.888142 386.192127,242.888142 C387.296697,242.888142 388.192127,241.992711 388.192127,240.888142 L388.192127,239.888142 C388.192127,238.783572 387.296697,237.888142 386.192127,237.888142 C385.087558,237.888142 384.192127,238.783572 384.192127,239.888142 Z M384.192127,254.888142 L384.192127,255.888142 C384.192127,256.992711 385.087558,257.888142 386.192127,257.888142 C387.296697,257.888142 388.192127,256.992711 388.192127,255.888142 L388.192127,254.888142 C388.192127,253.783572 387.296697,252.888142 386.192127,252.888142 C385.087558,252.888142 384.192127,253.783572 384.192127,254.888142 Z M384.192127,269.888142 L384.192127,270.888142 C384.192127,271.992711 385.087558,272.888142 386.192127,272.888142 C387.296697,272.888142 388.192127,271.992711 388.192127,270.888142 L388.192127,269.888142 C388.192127,268.783572 387.296697,267.888142 386.192127,267.888142 C385.087558,267.888142 384.192127,268.783572 384.192127,269.888142 Z M384.192127,284.888142 L384.192127,285.888142 C384.192127,286.992711 385.087558,287.888142 386.192127,287.888142 C387.296697,287.888142 388.192127,286.992711 388.192127,285.888142 L388.192127,284.888142 C388.192127,283.783572 387.296697,282.888142 386.192127,282.888142 C385.087558,282.888142 384.192127,283.783572 384.192127,284.888142 Z M384.192127,299.888142 L384.192127,300.888142 C384.192127,301.992711 385.087558,302.888142 386.192127,302.888142 C387.296697,302.888142 388.192127,301.992711 388.192127,300.888142 L388.192127,299.888142 C388.192127,298.783572 387.296697,297.888142 386.192127,297.888142 C385.087558,297.888142 384.192127,298.783572 384.192127,299.888142 Z M384.192127,314.888142 L384.192127,315.888142 C384.192127,316.992711 385.087558,317.888142 386.192127,317.888142 C387.296697,317.888142 388.192127,316.992711 388.192127,315.888142 L388.192127,314.888142 C388.192127,313.783572 387.296697,312.888142 386.192127,312.888142 C385.087558,312.888142 384.192127,313.783572 384.192127,314.888142 Z M384.192127,329.888142 L384.192127,330.888142 C384.192127,331.992711 385.087558,332.888142 386.192127,332.888142 C387.296697,332.888142 388.192127,331.992711 388.192127,330.888142 L388.192127,329.888142 C388.192127,328.783572 387.296697,327.888142 386.192127,327.888142 C385.087558,327.888142 384.192127,328.783572 384.192127,329.888142 Z M384.192127,344.888142 L384.192127,345.888142 C384.192127,346.992711 385.087558,347.888142 386.192127,347.888142 C387.296697,347.888142 388.192127,346.992711 388.192127,345.888142 L388.192127,344.888142 C388.192127,343.783572 387.296697,342.888142 386.192127,342.888142 C385.087558,342.888142 384.192127,343.783572 384.192127,344.888142 Z M384.192127,359.888142 L384.192127,360.888142 C384.192127,361.992711 385.087558,362.888142 386.192127,362.888142 C387.296697,362.888142 388.192127,361.992711 388.192127,360.888142 L388.192127,359.888142 C388.192127,358.783572 387.296697,357.888142 386.192127,357.888142 C385.087558,357.888142 384.192127,358.783572 384.192127,359.888142 Z M384.192127,374.888142 L384.192127,375.888142 C384.192127,376.992711 385.087558,377.888142 386.192127,377.888142 C387.296697,377.888142 388.192127,376.992711 388.192127,375.888142 L388.192127,374.888142 C388.192127,373.783572 387.296697,372.888142 386.192127,372.888142 C385.087558,372.888142 384.192127,373.783572 384.192127,374.888142 Z M384.192127,389.888142 L384.192127,390.888142 C384.192127,391.992711 385.087558,392.888142 386.192127,392.888142 C387.296697,392.888142 388.192127,391.992711 388.192127,390.888142 L388.192127,389.888142 C388.192127,388.783572 387.296697,387.888142 386.192127,387.888142 C385.087558,387.888142 384.192127,388.783572 384.192127,389.888142 Z M384.192127,404.888142 L384.192127,405.888142 C384.192127,406.992711 385.087558,407.888142 386.192127,407.888142 C387.296697,407.888142 388.192127,406.992711 388.192127,405.888142 L388.192127,404.888142 C388.192127,403.783572 387.296697,402.888142 386.192127,402.888142 C385.087558,402.888142 384.192127,403.783572 384.192127,404.888142 Z" fill="url(#linearGradient-3)" id="Line" transform="translate(386.192127, 322.888142) scale(-1, 1) translate(-386.192127, -322.888142) "></path><path d="M388.192127,153.454719 L388.192127,152.454719 C388.192127,151.35015 387.296697,150.454719 386.192127,150.454719 C385.087558,150.454719 384.192127,151.35015 384.192127,152.454719 L384.192127,153.454719 C384.192127,154.559289 385.087558,155.454719 386.192127,155.454719 C387.296697,155.454719 388.192127,154.559289 388.192127,153.454719 Z M388.192127,138.454719 L388.192127,137.454719 C388.192127,136.35015 387.296697,135.454719 386.192127,135.454719 C385.087558,135.454719 384.192127,136.35015 384.192127,137.454719 L384.192127,138.454719 C384.192127,139.559289 385.087558,140.454719 386.192127,140.454719 C387.296697,140.454719 388.192127,139.559289 388.192127,138.454719 Z M388.192127,123.454719 L388.192127,122.454719 C388.192127,121.35015 387.296697,120.454719 386.192127,120.454719 C385.087558,120.454719 384.192127,121.35015 384.192127,122.454719 L384.192127,123.454719 C384.192127,124.559289 385.087558,125.454719 386.192127,125.454719 C387.296697,125.454719 388.192127,124.559289 388.192127,123.454719 Z M388.192127,108.454719 L388.192127,107.454719 C388.192127,106.35015 387.296697,105.454719 386.192127,105.454719 C385.087558,105.454719 384.192127,106.35015 384.192127,107.454719 L384.192127,108.454719 C384.192127,109.559289 385.087558,110.454719 386.192127,110.454719 C387.296697,110.454719 388.192127,109.559289 388.192127,108.454719 Z M388.192127,93.4547193 L388.192127,92.4547193 C388.192127,91.3501498 387.296697,90.4547193 386.192127,90.4547193 C385.087558,90.4547193 384.192127,91.3501498 384.192127,92.4547193 L384.192127,93.4547193 C384.192127,94.5592888 385.087558,95.4547193 386.192127,95.4547193 C387.296697,95.4547193 388.192127,94.5592888 388.192127,93.4547193 Z M388.192127,78.4547193 L388.192127,77.4547193 C388.192127,76.3501498 387.296697,75.4547193 386.192127,75.4547193 C385.087558,75.4547193 384.192127,76.3501498 384.192127,77.4547193 L384.192127,78.4547193 C384.192127,79.5592888 385.087558,80.4547193 386.192127,80.4547193 C387.296697,80.4547193 388.192127,79.5592888 388.192127,78.4547193 Z M388.192127,63.4547193 L388.192127,62.4547193 C388.192127,61.3501498 387.296697,60.4547193 386.192127,60.4547193 C385.087558,60.4547193 384.192127,61.3501498 384.192127,62.4547193 L384.192127,63.4547193 C384.192127,64.5592888 385.087558,65.4547193 386.192127,65.4547193 C387.296697,65.4547193 388.192127,64.5592888 388.192127,63.4547193 Z M388.192127,48.4547193 L388.192127,47.4547193 C388.192127,46.3501498 387.296697,45.4547193 386.192127,45.4547193 C385.087558,45.4547193 384.192127,46.3501498 384.192127,47.4547193 L384.192127,48.4547193 C384.192127,49.5592888 385.087558,50.4547193 386.192127,50.4547193 C387.296697,50.4547193 388.192127,49.5592888 388.192127,48.4547193 Z M388.192127,33.4547193 L388.192127,32.4547193 C388.192127,31.3501498 387.296697,30.4547193 386.192127,30.4547193 C385.087558,30.4547193 384.192127,31.3501498 384.192127,32.4547193 L384.192127,33.4547193 C384.192127,34.5592888 385.087558,35.4547193 386.192127,35.4547193 C387.296697,35.4547193 388.192127,34.5592888 388.192127,33.4547193 Z M388.192127,18.4547193 L388.192127,17.4547193 C388.192127,16.3501498 387.296697,15.4547193 386.192127,15.4547193 C385.087558,15.4547193 384.192127,16.3501498 384.192127,17.4547193 L384.192127,18.4547193 C384.192127,19.5592888 385.087558,20.4547193 386.192127,20.4547193 C387.296697,20.4547193 388.192127,19.5592888 388.192127,18.4547193 Z M388.192127,3.45471926 L388.192127,2.45471926 C388.192127,1.35014976 387.296697,0.454719261 386.192127,0.454719261 C385.087558,0.454719261 384.192127,1.35014976 384.192127,2.45471926 L384.192127,3.45471926 C384.192127,4.55928876 385.087558,5.45471926 386.192127,5.45471926 C387.296697,5.45471926 388.192127,4.55928876 388.192127,3.45471926 Z" fill="url(#linearGradient-4)" id="Line" transform="translate(386.192127, 77.954719) scale(-1, 1) translate(-386.192127, -77.954719) "></path><path d="M508.207766,170.466672 L507.437093,169.829442 C506.58583,169.125578 505.32515,169.245067 504.621285,170.09633 C503.917421,170.947593 504.036911,172.208273 504.888173,172.912138 L505.658847,173.549367 C506.51011,174.253232 507.77079,174.133742 508.474655,173.282479 C509.178519,172.431216 509.059029,171.170537 508.207766,170.466672 Z M496.647659,160.908225 L495.876985,160.270995 C495.025722,159.567131 493.765042,159.68662 493.061178,160.537883 C492.357313,161.389146 492.476803,162.649826 493.328066,163.353691 L494.098739,163.99092 C494.950002,164.694785 496.210682,164.575295 496.914547,163.724032 C497.618411,162.872769 497.498921,161.61209 496.647659,160.908225 Z M485.087551,151.349778 L484.316877,150.712548 C483.465614,150.008684 482.204934,150.128173 481.50107,150.979436 C480.797205,151.830699 480.916695,153.091379 481.767958,153.795244 L482.538632,154.432473 C483.389895,155.136338 484.650574,155.016848 485.354439,154.165585 C486.058304,153.314322 485.938814,152.053643 485.087551,151.349778 Z M473.527443,141.791331 L472.756769,141.154101 C471.905506,140.450237 470.644827,140.569726 469.940962,141.420989 C469.237097,142.272252 469.356587,143.532932 470.20785,144.236797 L470.978524,144.874026 C471.829787,145.577891 473.090467,145.458401 473.794331,144.607138 C474.498196,143.755875 474.378706,142.495196 473.527443,141.791331 Z M461.967335,132.232884 L461.196662,131.595654 C460.345399,130.89179 459.084719,131.011279 458.380854,131.862542 C457.67699,132.713805 457.79648,133.974485 458.647742,134.67835 L459.418416,135.315579 C460.269679,136.019444 461.530359,135.899954 462.234224,135.048691 C462.938088,134.197428 462.818598,132.936749 461.967335,132.232884 Z M450.407228,122.674437 L449.636554,122.037207 C448.785291,121.333343 447.524611,121.452832 446.820747,122.304095 C446.116882,123.155358 446.236372,124.416038 447.087635,125.119903 L447.858308,125.757132 C448.709571,126.460997 449.970251,126.341507 450.674116,125.490244 C451.37798,124.638981 451.25849,123.378302 450.407228,122.674437 Z M438.84712,113.11599 L438.076446,112.47876 C437.225183,111.774896 435.964503,111.894385 435.260639,112.745648 C434.556774,113.596911 434.676264,114.857591 435.527527,115.561456 L436.298201,116.198685 C437.149464,116.90255 438.410143,116.78306 439.114008,115.931797 C439.817873,115.080534 439.698383,113.819855 438.84712,113.11599 Z M427.287012,103.557543 L426.516338,102.920313 C425.665075,102.216449 424.404396,102.335939 423.700531,103.187201 C422.996666,104.038464 423.116156,105.299144 423.967419,106.003009 L424.738093,106.640238 C425.589356,107.344103 426.850036,107.224613 427.5539,106.37335 C428.257765,105.522088 428.138275,104.261408 427.287012,103.557543 Z" fill="url(#linearGradient-5)" id="Line" transform="translate(466.087593, 138.234840) scale(-1, 1) translate(-466.087593, -138.234840) "></path><path d="M739.0064,194.00803 L738.006405,194.004819 C736.901841,194.001295 736.00355,194.893856 736.000005,195.99842 C735.996481,197.102983 736.889041,198.001275 737.993605,198.004809 L738.9936,198.00802 C740.098164,198.011544 740.996455,197.118984 741.000005,196.01442 C741.003524,194.909856 740.110964,194.011565 739.0064,194.00803 Z M724.006477,193.960029 L723.006482,193.956819 C721.901918,193.953294 721.003627,194.845855 721.000082,195.950419 C720.996557,197.054983 721.889118,197.953274 722.993682,197.956809 L723.993677,197.960019 C725.098241,197.963543 725.996532,197.070983 726.000082,195.966419 C726.003601,194.861855 725.111041,193.963564 724.006477,193.960029 Z M709.006554,193.912029 L708.006559,193.908818 C706.901995,193.905294 706.003704,194.797854 706.000159,195.902418 C705.996634,197.006982 706.889195,197.905273 707.993759,197.908808 L708.993754,197.912018 C710.098317,197.915543 710.996609,197.022982 711.000159,195.918418 C711.003678,194.813855 710.111118,193.915563 709.006554,193.912029 Z M694.00663,193.864028 L693.006636,193.860817 C691.902072,193.857293 691.00378,194.749854 691.000235,195.854417 C690.996711,196.958981 691.889272,197.857273 692.993835,197.860807 L693.99383,197.864018 C695.098394,197.867542 695.996685,196.974982 696.000235,195.870418 C696.003755,194.765854 695.111194,193.867562 694.00663,193.864028 Z M679.006707,193.816027 L678.006712,193.812817 C676.902149,193.809292 676.003857,194.701853 676.000312,195.806417 C675.996788,196.910981 676.889348,197.809272 677.993912,197.812807 L678.993907,197.816017 C680.098471,197.819541 680.996762,196.926981 681.000312,195.822417 C681.003832,194.717853 680.111271,193.819562 679.006707,193.816027 Z M664.006784,193.768026 L663.006789,193.764816 C661.902225,193.761292 661.003934,194.653852 661.000389,195.758416 C660.996865,196.86298 661.889425,197.761271 662.993989,197.764806 L663.993984,197.768016 C665.098548,197.771541 665.996839,196.87898 666.000389,195.774416 C666.003908,194.669852 665.111348,193.771561 664.006784,193.768026 Z M649.006861,193.720026 L648.006866,193.716815 C646.902302,193.713291 646.004011,194.605852 646.000466,195.710415 C645.996942,196.814979 646.889502,197.713271 647.994066,197.716805 L648.994061,197.720016 C650.098625,197.72354 650.996916,196.830979 651.000466,195.726416 C651.003985,194.621852 650.111425,193.72356 649.006861,193.720026 Z M634.006938,193.672025 L633.006943,193.668815 C631.902379,193.66529 631.004088,194.557851 631.000543,195.662415 C630.997018,196.766979 631.889579,197.66527 632.994143,197.668805 L633.994138,197.672015 C635.098701,197.675539 635.996993,196.782979 636.000543,195.678415 C636.004062,194.573851 635.111502,193.67556 634.006938,193.672025 Z M619.007015,193.624024 L618.00702,193.620814 C616.902456,193.61729 616.004164,194.50985 616.000619,195.614414 C615.997095,196.718978 616.889656,197.617269 617.994219,197.620804 L618.994214,197.624014 C620.098778,197.627539 620.99707,196.734978 621.000619,195.630414 C621.004139,194.52585 620.111578,193.627559 619.007015,193.624024 Z M604.007091,193.576024 L603.007096,193.572813 C601.902533,193.569289 601.004241,194.461849 601.000696,195.566413 C600.997172,196.670977 601.889732,197.569268 602.994296,197.572803 L603.994291,197.576014 C605.098855,197.579538 605.997146,196.686977 606.000696,195.582414 C606.004216,194.47785 605.111655,193.579558 604.007091,193.576024 Z M589.007168,193.528023 L588.007173,193.524812 C586.902609,193.521288 586.004318,194.413849 586.000773,195.518413 C585.997249,196.622976 586.889809,197.521268 587.994373,197.524802 L588.994368,197.528013 C590.098932,197.531537 590.997223,196.638977 591.000773,195.534413 C591.004292,194.429849 590.111732,193.531558 589.007168,193.528023 Z M574.007245,193.480022 L573.00725,193.476812 C571.902686,193.473288 571.004395,194.365848 571.00085,195.470412 C570.997326,196.574976 571.889886,197.473267 572.99445,197.476802 L573.994445,197.480012 C575.099009,197.483536 575.9973,196.590976 576.00085,195.486412 C576.004369,194.381848 575.111809,193.483557 574.007245,193.480022 Z M559.007322,193.432022 L558.007327,193.428811 C556.902763,193.425287 556.004472,194.317847 556.000927,195.422411 C555.997402,196.526975 556.889963,197.425266 557.994527,197.428801 L558.994522,197.432012 C560.099085,197.435536 560.997377,196.542975 561.000927,195.438411 C561.004446,194.333848 560.111886,193.435556 559.007322,193.432022 Z M544.007399,193.384021 L543.007404,193.38081 C541.90284,193.377286 541.004548,194.269847 541.001003,195.374411 C540.997479,196.478974 541.89004,197.377266 542.994603,197.3808 L543.994598,197.384011 C545.099162,197.387535 545.997454,196.494975 546.001003,195.390411 C546.004523,194.285847 545.111962,193.387556 544.007399,193.384021 Z M529.007475,193.33602 L528.00748,193.33281 C526.902917,193.329286 526.004625,194.221846 526.00108,195.32641 C525.997556,196.430974 526.890116,197.329265 527.99468,197.3328 L528.994675,197.33601 C530.099239,197.339534 530.99753,196.446974 531.00108,195.34241 C531.0046,194.237846 530.112039,193.339555 529.007475,193.33602 Z M514.007552,193.28802 L513.007557,193.284809 C511.902993,193.281285 511.004702,194.173845 511.001157,195.278409 C510.997633,196.382973 511.890193,197.281264 512.994757,197.284799 L513.994752,197.28801 C515.099316,197.291534 515.997607,196.398973 516.001157,195.294409 C516.004676,194.189846 515.112116,193.291554 514.007552,193.28802 Z M499.007629,193.240019 L498.007634,193.236808 C496.90307,193.233284 496.004779,194.125845 496.001234,195.230408 C495.99771,196.334972 496.89027,197.233264 497.994834,197.236798 L498.994829,197.240009 C500.099393,197.243533 500.997684,196.350973 501.001234,195.246409 C501.004753,194.141845 500.112193,193.243554 499.007629,193.240019 Z M484.007706,193.192018 L483.007711,193.188808 C481.903147,193.185283 481.004856,194.077844 481.001311,195.182408 C480.997786,196.286972 481.890347,197.185263 482.994911,197.188798 L483.994906,197.192008 C485.099469,197.195532 485.997761,196.302972 486.001311,195.198408 C486.00483,194.093844 485.11227,193.195553 484.007706,193.192018 Z M469.007783,193.144017 L468.007788,193.140807 C466.903224,193.137283 466.004932,194.029843 466.001387,195.134407 C465.997863,196.238971 466.890424,197.137262 467.994987,197.140797 L468.994982,197.144007 C470.099546,197.147532 470.997838,196.254971 471.001387,195.150407 C471.004907,194.045843 470.112346,193.147552 469.007783,193.144017 Z M454.007859,193.096017 L453.007864,193.092806 C451.903301,193.089282 451.005009,193.981843 451.001464,195.086406 C450.99794,196.19097 451.8905,197.089262 452.995064,197.092796 L453.995059,197.096007 C455.099623,197.099531 455.997914,196.20697 456.001464,195.102407 C456.004984,193.997843 455.112423,193.099551 454.007859,193.096017 Z M439.007936,193.048016 L438.007941,193.044806 C436.903377,193.041281 436.005086,193.933842 436.001541,195.038406 C435.998017,196.14297 436.890577,197.041261 437.995141,197.044796 L438.995136,197.048006 C440.0997,197.05153 440.997991,196.15897 441.001541,195.054406 C441.00506,193.949842 440.1125,193.051551 439.007936,193.048016 Z M424.008013,193.000015 L423.008018,192.996805 C421.903454,192.993281 421.005163,193.885841 421.001618,194.990405 C420.998094,196.094969 421.890654,196.99326 422.995218,196.996795 L423.995213,197.000005 C425.099777,197.00353 425.998068,196.110969 426.001618,195.006405 C426.005137,193.901841 425.112577,193.00355 424.008013,193.000015 Z" fill="url(#linearGradient-6)" id="Line" transform="translate(581.000809, 195.502412) scale(-1, 1) translate(-581.000809, -195.502412) "></path></g><path d="M42,248.979094 L56,248.979094 C57.1045695,248.979094 58,249.874524 58,250.979094 L58,264.979094 C58,266.083663 57.1045695,266.979094 56,266.979094 L42,266.979094 C40.8954305,266.979094 40,266.083663 40,264.979094 L40,250.979094 C40,249.874524 40.8954305,248.979094 42,248.979094 Z M60,253.707116 L65,253.707116 L60,253.707116 Z M60,257.707116 L65,257.707116 L60,257.707116 Z M60,261.707116 L65,261.707116 L60,261.707116 Z M33,253.707116 L38,253.707116 L33,253.707116 Z M33,257.707116 L38,257.707116 L33,257.707116 Z M33,261.707116 L38,261.707116 L33,261.707116 Z M53.0887125,269 L53.0887125,274 L53.0887125,269 Z M49.0887125,269 L49.0887125,274 L49.0887125,269 Z M45.0887125,269 L45.0887125,274 L45.0887125,269 Z M53.0887125,242 L53.0887125,247 L53.0887125,242 Z M49.0887125,242 L49.0887125,247 L49.0887125,242 Z M45.0887125,242 L45.0887125,247 L45.0887125,242 Z" fill-rule="nonzero" id="Combined-Shape" stroke="#00D1CA" stroke-width="2"></path><g fill-rule="nonzero" id="Okteto's-Kuebrnetes-Logo"><use fill="black" fill-opacity="1" filter="url(#filter-8)" xlink:href="#path-7"></use><use fill="#007BFF" xlink:href="#path-7"></use></g><path d="M62.5726617,138.446465 C66.021186,139.610774 68.6937923,142.387205 69.2972841,145.880135 C69.5559234,146.954882 69.0386448,148.02963 68.0903006,148.567003 C65.7625467,149.910438 61.7967437,150 59.2103505,150 C56.6239572,150 52.6581543,149.910438 50.2441873,148.567003 C49.2958431,148.02963 48.8647775,146.954882 49.0372038,145.880135 C49.7269086,142.387205 52.399515,139.610774 55.8480393,138.446465 C53.9513509,137.282155 52.6581543,135.13266 52.6581543,132.624916 C52.6581543,128.8633 55.5893999,125.818182 59.2103505,125.818182 C62.831301,125.818182 65.7625467,128.8633 65.7625467,132.624916 C65.7625467,135.13266 64.4693501,137.282155 62.5726617,138.446465 Z M54.3824164,132.624916 C54.3824164,135.401347 56.5377441,137.640404 59.2103505,137.640404 C61.8829568,137.640404 64.0382845,135.401347 64.0382845,132.624916 C64.0382845,129.848485 61.8829568,127.609428 59.2103505,127.609428 C56.5377441,127.609428 54.3824164,129.848485 54.3824164,132.624916 Z M67.3143826,147.044444 C67.5730219,146.86532 67.7454482,146.507071 67.659235,146.238384 C66.9695302,142.476768 63.3485797,139.700337 59.2103505,139.700337 C55.0721213,139.700337 51.4511708,142.476768 50.7614659,146.238384 C50.6752528,146.596633 50.847679,146.86532 51.1063183,147.044444 C53.261646,148.208754 57.3998752,148.208754 59.2103505,148.208754 C61.0208257,148.208754 65.1590549,148.208754 67.3143826,147.044444 Z M76.9650458,141.147897 C77.1484958,142.173677 76.5981458,143.284939 75.5891708,143.883311 C74.4884708,144.396201 73.1125958,144.738128 71.6449957,144.909091 L71.3698207,144.909091 C71.3698207,144.909091 71.2780957,144.909091 71.2780957,144.909091 C70.7277457,144.909091 70.3608457,144.567164 70.3608457,144.054274 C70.3608457,143.626866 70.7277457,143.199457 71.1863707,143.199457 C72.4705207,143.113976 73.7546708,142.772049 74.6719208,142.34464 C74.9470958,142.173677 75.1305458,141.83175 75.0388208,141.575305 C74.3050208,138.327001 71.1863707,135.848033 67.2421956,135.420624 C66.6001206,135.335142 66.1414956,134.907734 66.1414956,134.309362 C66.1414956,133.710991 66.6001206,133.283582 67.2421956,133.1981 C67.4256456,133.1981 67.5173706,133.1981 67.5173706,133.1981 C69.6270457,132.599729 71.1863707,130.719132 71.1863707,128.58209 C71.1863707,125.932157 68.8932457,123.795115 66.0497706,123.795115 C64.5821706,123.795115 63.2062955,124.393487 62.2890455,125.333786 L62.0138705,125.590231 C61.8304205,125.761194 61.6469705,125.846676 61.3717955,125.846676 C60.8214455,125.846676 60.4545455,125.504749 60.4545455,124.991859 C60.4545455,124.735414 60.5462705,124.56445 60.7297205,124.393487 C62.0138705,122.940299 63.9400955,122 66.1414956,122 C69.9939457,122 73.1125958,124.906377 73.1125958,128.496608 C73.1125958,130.890095 71.7367207,132.941655 69.7187707,134.052917 C73.4794958,135.164179 76.2312458,137.814111 76.9650458,141.147897 Z" fill="#00D1CA" fill-rule="nonzero" id="Combined-Shape"></path><path d="M508.017254,106.877585 L497.871559,106.877585 L516.573964,84.3257352 L511.745321,99.1224152 L523.180272,99.1224152 L504.452011,120.879047 L508.017254,106.877585 Z" id="Path" stroke="#00D1CA" stroke-linejoin="round" stroke-width="2"></path><g id="Cli" stroke="#00D1CA" stroke-width="2" transform="translate(723.000000, 185.000000)"><rect fill-rule="nonzero" height="20" id="Combined-Shape" rx="4" width="28" x="0" y="0"></rect><polyline id="Path-5" points="5.5 7.5 10.5 11.0714286 5.5 14.6428571"></polyline><path d="M12.5,14.6428571 L15.5,14.6428571" id="Line-4" stroke-linecap="square"></path></g></g></g></g></g></svg>