<svg class="Illustration LiveImage" version="1.1" viewbox="0 0 900 356"><g fill="none" fill-rule="evenodd" id="Landing-v3" stroke="none" stroke-width="1"><g id="Desktop-HD" transform="translate(-267.000000, -2005.000000)"><g id="Section" transform="translate(0.000000, 1672.000000)"><g id="Image" transform="translate(267.000000, 333.000000)"><g id="Illustration"><g id="Group-5" transform="translate(14.000000, 1.000000)"><path d="M307.920551,127.579234 L311.615904,99.1028849 L320.541068,100.261096 L313.605453,153.70686 L271.532316,120.025953 L277.156851,112.999959 L299.57377,130.945427 L291.204509,110.193086 C269.247579,65.2057745 238.504483,40.5413192 194.479821,38.2340844 C165.559227,36.7184203 138.533507,47.1992516 117.925883,66.7505005 C98.1813195,85.4829311 86.018496,111.084237 84.653927,137.121763 C83.2788389,163.360009 92.3985852,190.040286 109.730444,210.57009 C127.985373,232.193281 153.817916,245.389905 183.541606,246.947657 C202.328994,247.932262 219.877763,244.566894 236.255208,236.848805 L240.09188,244.990055 C222.357476,253.347628 203.327946,256.996966 183.070582,255.935323 C150.826053,254.245459 122.689378,239.871763 102.853445,216.375853 C84.0560893,194.110149 74.1706002,165.189653 75.6662612,136.65074 C77.153497,108.27259 90.3402192,80.5160993 111.731468,60.2213947 C134.092191,39.0069125 163.509393,27.5986419 194.950844,29.2464186 C242.650758,31.7462651 276.081982,58.604834 299.364078,106.392164 L299.433105,106.533843 L307.920551,127.579234 L307.920551,127.579234 Z" fill="#1E222B" fill-rule="nonzero" id="Path-6"></path><g id="Clock" stroke="#1E222B" stroke-width="6" transform="translate(153.000000, 94.000000)"><path d="M38,27.4147601 L38,48" id="Line-5" stroke-linecap="round" stroke-linejoin="bevel"></path><path d="M60,60 L38,48" id="Line-5" stroke-linecap="round"></path><path d="M38,8 L38,6" id="Line-5" stroke-linecap="square"></path><path d="M31,1 L45,1" id="Line-5" stroke-linecap="square"></path><path d="M59.8438668,13.514984 L59.8438668,11.514984" id="Line-5" stroke-linecap="square" transform="translate(59.843867, 12.514984) rotate(-328.000000) translate(-59.843867, -12.514984) "></path><path d="M57.868412,8.15078048 L66.5919352,7.7200608" id="Line-5" stroke-linecap="square" transform="translate(61.871430, 7.956615) rotate(-328.000000) translate(-61.871430, -7.956615) "></path><path d="M15.8438668,16.514984 L15.8438668,14.514984" id="Line-5" stroke-linecap="square" transform="translate(15.843867, 15.514984) scale(-1, 1) rotate(-328.000000) translate(-15.843867, -15.514984) "></path><path d="M8.71646007,10.1507805 L17.2295045,10.1552116" id="Line-5" stroke-linecap="square" transform="translate(12.719479, 9.956615) scale(-1, 1) rotate(-328.000000) translate(-12.719479, -9.956615) "></path><circle cx="38.5" cy="48.5" id="Oval" r="38.5"></circle></g><path d="M118.049144,261.968725 L115.499135,262.643728 C115.199134,261.593724 114.392882,260.974972 113.455378,260.974972 C111.842873,260.974972 111.13037,262.249976 111.13037,263.937482 C111.13037,265.699988 111.917873,266.899993 113.455378,266.899993 C114.599132,266.899993 115.142884,266.356241 115.442885,265.381237 L118.049144,265.924989 C117.467892,268.081247 115.799137,269.281251 113.455378,269.281251 C110.305367,269.281251 108.430361,266.974993 108.430361,263.937482 C108.430361,260.862471 110.399118,258.593713 113.492878,258.593713 C115.874137,258.593713 117.599143,259.887468 118.049144,261.968725 Z M123.2277,269.281251 C120.171439,269.281251 118.108932,267.068743 118.108932,263.937482 C118.108932,260.768721 120.227689,258.593713 123.2277,258.593713 C126.28396,258.593713 128.365218,260.806221 128.365218,263.937482 C128.365218,267.087493 126.26521,269.281251 123.2277,269.281251 Z M125.665208,263.937482 C125.665208,262.137476 124.840205,260.974972 123.2277,260.974972 C121.558944,260.974972 120.808941,262.174976 120.808941,263.937482 C120.808941,265.756239 121.633944,266.899993 123.2277,266.899993 C124.858955,266.899993 125.665208,265.681238 125.665208,263.937482 Z M135.981278,255.499953 L138.550037,255.499953 L138.550037,269 L136.300029,269 L136.300029,268.418748 C135.587526,268.9625 134.687523,269.281251 133.562519,269.281251 C130.768759,269.281251 128.893753,266.974993 128.893753,263.937482 C128.893753,260.843721 130.787509,258.593713 133.69377,258.593713 C134.593773,258.593713 135.343775,258.818714 135.981278,259.212466 L135.981278,255.499953 Z M133.975021,267.012493 C135.681277,267.012493 136.300029,265.774989 136.300029,263.937482 C136.300029,262.099976 135.662526,260.862471 134.068771,260.862471 C132.362515,260.862471 131.593762,262.249976 131.593762,263.937482 C131.593762,265.643738 132.325015,267.012493 133.975021,267.012493 Z M142.397333,264.649985 C142.584834,266.05624 143.391087,266.899993 144.759842,266.899993 C145.697345,266.899993 146.466098,266.468741 146.859849,265.624988 L149.409858,266.356241 C148.659855,268.193747 146.803599,269.281251 144.909842,269.281251 C141.741081,269.281251 139.641074,267.087493 139.641074,264.068733 C139.641074,260.787471 141.684831,258.593713 144.759842,258.593713 C148.078603,258.593713 149.784859,261.124972 149.503608,264.649985 L142.397333,264.649985 Z M144.759842,260.806221 C143.391087,260.806221 142.716084,261.556224 142.472334,262.681228 L146.916099,262.681228 C146.747349,261.481224 146.203597,260.806221 144.759842,260.806221 Z" fill="#1E222B" fill-rule="nonzero" id="code"></path><circle cx="149.5" cy="243.5" fill="#1E222B" id="Oval" r="9.5"></circle><path d="M36.8660942,188.593713 C39.7723544,188.593713 41.6661111,190.843721 41.6661111,193.937482 C41.6661111,196.974993 39.7911045,199.281251 36.9973447,199.281251 C35.8723407,199.281251 34.9723375,198.9625 34.259835,198.418748 L34.259835,199 L32.0098271,199 L32.0098271,185.499953 L34.5785861,185.499953 L34.5785861,189.212466 C35.2160884,188.818714 35.966091,188.593713 36.8660942,188.593713 Z M36.5848432,197.012493 C38.234849,197.012493 38.9661016,195.643738 38.9661016,193.937482 C38.9661016,192.249976 38.1973489,190.862471 36.4910929,190.862471 C34.8973373,190.862471 34.259835,192.099976 34.259835,193.937482 C34.259835,195.774989 34.8785872,197.012493 36.5848432,197.012493 Z M49.4884218,188.874964 L52.0571808,188.874964 L52.0571808,199 L49.8071729,199 L49.8071729,197.949996 C49.7696728,197.987496 49.7134226,198.043747 49.6759224,198.099997 C49.0196701,198.8875 47.9884165,199.225001 47.0696633,199.281251 C45.8696591,199.356251 44.6509048,199.150001 43.6759013,198.193747 C42.5696475,197.106243 42.5696475,195.343737 42.5696475,193.768732 L42.5696475,188.874964 L45.1571566,188.874964 L45.1571566,193.656231 C45.1571566,194.706235 45.3071571,195.756239 45.8321589,196.318741 C46.1884102,196.712492 46.7321621,196.918743 47.4259145,196.899993 C47.8946662,196.881243 48.2884176,196.749992 48.6259188,196.506241 C49.0009201,196.22499 49.263421,195.774989 49.3759214,195.212487 C49.4696717,194.762485 49.4884218,193.974982 49.4884218,193.28123 L49.4884218,188.874964 Z M53.8982198,185.218702 L56.4482287,185.218702 L56.4482287,187.468709 L53.8982198,187.468709 L53.8982198,185.218702 Z M53.8982198,188.874964 L56.4482287,188.874964 L56.4482287,199 L53.8982198,199 L53.8982198,188.874964 Z M58.4767908,199 L58.4767908,185.218702 L61.0267997,185.218702 L61.0267997,199 L58.4767908,199 Z M69.3928841,185.499953 L71.9616431,185.499953 L71.9616431,199 L69.7116352,199 L69.7116352,198.418748 C68.9991327,198.9625 68.0991295,199.281251 66.9741256,199.281251 C64.1803657,199.281251 62.3053591,196.974993 62.3053591,193.937482 C62.3053591,190.843721 64.1991158,188.593713 67.105376,188.593713 C68.0053792,188.593713 68.7553818,188.818714 69.3928841,189.212466 L69.3928841,185.499953 Z M67.386627,197.012493 C69.092883,197.012493 69.7116352,195.774989 69.7116352,193.937482 C69.7116352,192.099976 69.0741329,190.862471 67.4803773,190.862471 C65.7741213,190.862471 65.0053686,192.249976 65.0053686,193.937482 C65.0053686,195.643738 65.7366212,197.012493 67.386627,197.012493 Z" fill="#1E222B" fill-rule="nonzero" id="build"></path><circle cx="86.5" cy="182.5" fill="#1E222B" id="Oval" r="9.5"></circle><path d="M38.6991297,80.5937134 C41.6053899,80.5937134 43.4991466,82.8437213 43.4991466,85.9374822 C43.4991466,88.9749929 41.62414,91.281251 38.8303802,91.281251 C37.8741268,91.281251 37.067874,91.0562502 36.4116216,90.6437487 L36.4116216,95.5000158 L33.8428626,95.5000158 L33.8428626,80.8749644 L36.0928705,80.8749644 L36.0928705,81.4374664 C36.7678729,80.8937145 37.649126,80.5937134 38.6991297,80.5937134 Z M38.4178787,89.012493 C40.0678845,89.012493 40.7991371,87.6437382 40.7991371,85.9374822 C40.7991371,84.2499763 40.0303844,82.8624714 38.3241284,82.8624714 C36.7303728,82.8624714 36.0928705,84.0999757 36.0928705,85.9374822 C36.0928705,87.7749887 36.7116227,89.012493 38.4178787,89.012493 Z M51.3214573,80.8749644 L53.8902163,80.8749644 L53.8902163,91 L51.6402084,91 L51.6402084,89.9499963 C51.6027083,89.9874964 51.5464581,90.0437466 51.5089579,90.0999968 C50.8527056,90.8874996 49.821452,91.2250008 48.9026988,91.281251 C47.7026946,91.3562513 46.4839403,91.1500005 45.5089368,90.1937472 C44.402683,89.1062433 44.402683,87.3437371 44.402683,85.7687316 L44.402683,80.8749644 L46.9901921,80.8749644 L46.9901921,85.6562312 C46.9901921,86.7062349 47.1401926,87.7562386 47.6651944,88.3187406 C48.0214457,88.712492 48.5651976,88.9187427 49.25895,88.8999926 C49.7277017,88.8812425 50.1214531,88.7499921 50.4589543,88.5062412 C50.8339556,88.2249902 51.0964565,87.7749887 51.2089569,87.2124867 C51.3027072,86.7624851 51.3214573,85.9749823 51.3214573,85.2812299 L51.3214573,80.8749644 Z M63.6437831,83.593724 L61.0375239,84.0624756 C60.9437736,83.3499731 60.3250214,82.8249713 59.4062682,82.7874711 C58.5437652,82.749971 57.8500127,83.049972 57.8500127,83.5562238 C57.8500127,84.0624756 58.206264,84.2874764 58.8250162,84.4749771 C59.3312679,84.6249776 59.8187696,84.756228 60.5500222,84.9437287 C62.7062798,85.4874806 63.7375334,86.2749834 63.7375334,87.9999894 C63.7375334,90.0999968 61.9375271,91.281251 59.631269,91.281251 C57.08126,91.281251 55.375004,90.2687474 54.9812526,87.9624893 L57.5875118,87.5687379 C57.7937625,88.5624914 58.6000154,89.0874933 59.6875192,89.0874933 C60.493772,89.0874933 61.1312743,88.7687422 61.1312743,88.1124898 C61.1312743,87.587488 60.7187728,87.3249871 59.9875202,87.1187364 C59.0312669,86.8562354 58.1875139,86.6312346 57.4750114,86.4249839 C56.1437567,86.0499826 55.3187538,85.1124793 55.3187538,83.6874743 C55.3187538,81.624967 57.2312606,80.5937134 59.3312679,80.5937134 C61.5062756,80.5937134 63.3625321,81.5874669 63.6437831,83.593724 Z M73.2098551,81.6812172 C74.316109,82.7687211 74.316109,84.5312273 74.316109,86.1062328 L74.316109,91 L71.7285999,91 L71.7285999,86.2187332 C71.7285999,85.1687295 71.5785994,84.1187258 71.0535975,83.5562238 C70.6973463,83.1624724 70.1535943,82.9562217 69.4598419,82.9749718 C68.9910903,82.9937218 68.5973389,83.1249723 68.2598377,83.3687232 C67.8848364,83.6499742 67.6223354,84.0999757 67.509835,84.6624777 C67.4160847,85.1124793 67.3973346,85.8999821 67.3973346,86.5937345 L67.3973346,91 L64.8285756,91 L64.8285756,77.4999525 L67.0785835,77.4999525 L67.0785835,81.9249681 C67.1160837,81.887468 67.1723339,81.8312178 67.209834,81.7749676 C67.8660863,80.9874648 68.8973399,80.6499636 69.8160932,80.5937134 C71.0160974,80.5187131 72.2348517,80.7249639 73.2098551,81.6812172 Z" fill="#1E222B" fill-rule="nonzero" id="push"></path><circle cx="91.5" cy="93.5" fill="#1E222B" id="Oval" r="9.5"></circle><path d="M257.980822,27.3624661 C258.712074,26.9124645 259.668328,26.762464 260.587081,26.8749644 L260.587081,29.2562228 C260.024579,29.0874722 259.199576,29.1437224 258.599574,29.4249734 C257.718321,29.8374748 257.212069,30.6249776 257.212069,31.8249818 L257.212069,37 L254.64331,37 L254.64331,26.8749644 L256.893318,26.8749644 L256.893318,28.5062201 C257.155819,28.0374685 257.51207,27.6624672 257.980822,27.3624661 Z M263.215639,32.6499847 C263.403139,34.0562396 264.209392,34.8999926 265.578147,34.8999926 C266.51565,34.8999926 267.284403,34.4687411 267.678155,33.6249881 L270.228163,34.3562407 C269.478161,36.1937472 267.621904,37.281251 265.728148,37.281251 C262.559387,37.281251 260.459379,35.0874933 260.459379,32.0687327 C260.459379,28.7874711 262.503136,26.5937134 265.578147,26.5937134 C268.896909,26.5937134 270.603165,29.1249723 270.321914,32.6499847 L263.215639,32.6499847 Z M265.578147,28.8062212 C264.209392,28.8062212 263.53439,29.5562238 263.290639,30.6812278 L267.734405,30.6812278 C267.565654,29.4812236 267.021902,28.8062212 265.578147,28.8062212 Z M271.262951,30.0999757 L276.887971,30.0999757 L276.887971,32.0687327 L271.262951,32.0687327 L271.262951,30.0999757 Z M284.879046,23.4999525 L287.447805,23.4999525 L287.447805,37 L285.197797,37 L285.197797,36.418748 C284.485295,36.9624999 283.585292,37.281251 282.460288,37.281251 C279.666528,37.281251 277.791521,34.9749929 277.791521,31.9374822 C277.791521,28.8437213 279.685278,26.5937134 282.591538,26.5937134 C283.491541,26.5937134 284.241544,26.8187142 284.879046,27.2124656 L284.879046,23.4999525 Z M282.872789,35.012493 C284.579045,35.012493 285.197797,33.7749887 285.197797,31.9374822 C285.197797,30.0999757 284.560295,28.8624714 282.966539,28.8624714 C281.260283,28.8624714 280.491531,30.2499763 280.491531,31.9374822 C280.491531,33.6437382 281.222783,35.012493 282.872789,35.012493 Z M291.295102,32.6499847 C291.482602,34.0562396 292.288855,34.8999926 293.65761,34.8999926 C294.595113,34.8999926 295.363866,34.4687411 295.757618,33.6249881 L298.307626,34.3562407 C297.557624,36.1937472 295.701367,37.281251 293.807611,37.281251 C290.63885,37.281251 288.538842,35.0874933 288.538842,32.0687327 C288.538842,28.7874711 290.582599,26.5937134 293.65761,26.5937134 C296.976372,26.5937134 298.682628,29.1249723 298.401377,32.6499847 L291.295102,32.6499847 Z M293.65761,28.8062212 C292.288855,28.8062212 291.613853,29.5562238 291.370102,30.6812278 L295.813868,30.6812278 C295.645117,29.4812236 295.101365,28.8062212 293.65761,28.8062212 Z M304.386182,26.5937134 C307.292442,26.5937134 309.186199,28.8437213 309.186199,31.9374822 C309.186199,34.9749929 307.311192,37.281251 304.517433,37.281251 C303.561179,37.281251 302.754926,37.0562502 302.098674,36.6437487 L302.098674,41.5000158 L299.529915,41.5000158 L299.529915,26.8749644 L301.779923,26.8749644 L301.779923,27.4374664 C302.454925,26.8937145 303.336179,26.5937134 304.386182,26.5937134 Z M304.104931,35.012493 C305.754937,35.012493 306.48619,33.6437382 306.48619,31.9374822 C306.48619,30.2499763 305.717437,28.8624714 304.011181,28.8624714 C302.417425,28.8624714 301.779923,30.0999757 301.779923,31.9374822 C301.779923,33.7749887 302.398675,35.012493 304.104931,35.012493 Z M310.464737,37 L310.464737,23.2187015 L313.014746,23.2187015 L313.014746,37 L310.464737,37 Z M319.412073,37.281251 C316.355812,37.281251 314.293305,35.0687432 314.293305,31.9374822 C314.293305,28.7687211 316.412063,26.5937134 319.412073,26.5937134 C322.468334,26.5937134 324.549591,28.8062212 324.549591,31.9374822 C324.549591,35.0874933 322.449584,37.281251 319.412073,37.281251 Z M321.849582,31.9374822 C321.849582,30.1374759 321.024579,28.9749718 319.412073,28.9749718 C317.743317,28.9749718 316.993315,30.174976 316.993315,31.9374822 C316.993315,33.7562386 317.818318,34.8999926 319.412073,34.8999926 C321.043329,34.8999926 321.849582,33.6812383 321.849582,31.9374822 Z M332.090652,26.8749644 L334.640661,26.8749644 L328.921891,41.5000158 L326.559383,41.4812658 L328.209388,37 L328.228139,36.9249997 L324.140624,26.8749644 L326.784383,26.8749644 L329.446893,33.7562386 L332.090652,26.8749644 Z" fill="#1E222B" fill-rule="nonzero" id="re-deploy"></path><circle cx="256.5" cy="56.5" fill="#1E222B" id="Oval" r="9.5"></circle><path d="M143.239755,7.5937134 C146.146015,7.5937134 148.039772,9.84372132 148.039772,12.9374822 C148.039772,15.9749929 146.164765,18.281251 143.371005,18.281251 C142.414752,18.281251 141.608499,18.0562502 140.952247,17.6437487 L140.952247,22.5000158 L138.383488,22.5000158 L138.383488,7.87496439 L140.633496,7.87496439 L140.633496,8.43746637 C141.308498,7.89371446 142.189751,7.5937134 143.239755,7.5937134 Z M142.958504,16.012493 C144.60851,16.012493 145.339762,14.6437382 145.339762,12.9374822 C145.339762,11.2499763 144.571009,9.86247138 142.864753,9.86247138 C141.270998,9.86247138 140.633496,11.0999757 140.633496,12.9374822 C140.633496,14.7749887 141.252248,16.012493 142.958504,16.012493 Z M155.862082,7.87496439 L158.430841,7.87496439 L158.430841,18 L156.180833,18 L156.180833,16.9499963 C156.143333,16.9874964 156.087083,17.0437466 156.049583,17.0999968 C155.393331,17.8874996 154.362077,18.2250008 153.443324,18.281251 C152.24332,18.3562513 151.024565,18.1500005 150.049562,17.1937472 C148.943308,16.1062433 148.943308,14.3437371 148.943308,12.7687316 L148.943308,7.87496439 L151.530817,7.87496439 L151.530817,12.6562312 C151.530817,13.7062349 151.680818,14.7562386 152.205819,15.3187406 C152.562071,15.712492 153.105823,15.9187427 153.799575,15.8999926 C154.268327,15.8812425 154.662078,15.7499921 154.999579,15.5062412 C155.374581,15.2249902 155.637081,14.7749887 155.749582,14.2124867 C155.843332,13.7624851 155.862082,12.9749823 155.862082,12.2812299 L155.862082,7.87496439 Z M160.27188,18 L160.27188,4.21870154 L162.821889,4.21870154 L162.821889,18 L160.27188,18 Z M164.850451,18 L164.850451,4.21870154 L167.40046,4.21870154 L167.40046,18 L164.850451,18 Z" fill="#1E222B" fill-rule="nonzero" id="pull"></path><circle cx="166.5" cy="36.5" fill="#1E222B" id="Oval" r="9.5"></circle></g><g fill="#00D1CA" id="Group-3" transform="translate(577.000000, 29.000000)"><path d="M14.2436804,103.466073 L21.9914827,82.1372951 L22.0555225,81.9932931 C43.6556817,33.4225406 76.1291903,5.41360031 123.712803,1.25057364 C155.077595,-1.49349008 184.875019,8.88118536 207.962495,29.3023663 C230.048988,48.8381641 244.196365,76.1175366 246.673078,104.426495 C249.163822,132.895825 240.293665,162.143703 222.284822,185.051861 C203.280968,209.225722 175.663068,224.572618 143.497156,227.38677 C123.289184,229.154739 104.143886,226.171745 86.1286103,218.438184 L89.6788197,210.167996 C106.315645,217.309818 123.971174,220.060694 142.712755,218.421018 C172.363973,215.826872 197.720224,201.736745 215.209394,179.489638 C231.814215,158.367467 239.997278,131.385169 237.707326,105.210897 C235.434891,79.2368541 222.386004,54.0756206 201.999716,36.0436767 C180.722318,17.2235336 153.347285,7.69227093 124.497205,10.2163259 C80.579882,14.0585938 50.7162911,39.7809428 30.3427713,85.5071353 L22.7028547,106.538917 L44.4798302,87.8220418 L50.3461432,94.6474627 L9.47408185,129.776183 L0.677462475,76.6050266 L9.55676818,75.1360371 L14.2436804,103.466073 L14.2436804,103.466073 Z" fill-rule="nonzero" id="Path-6"></path><path d="M250.618784,44.4687727 L248.068775,45.1437751 C247.768774,44.0937714 246.962521,43.4750193 246.025018,43.4750193 C244.412512,43.4750193 243.700009,44.7500237 243.700009,46.4375297 C243.700009,48.2000359 244.487512,49.4000401 246.025018,49.4000401 C247.168772,49.4000401 247.712524,48.8562882 248.012525,47.8812847 L250.618784,48.4250367 C250.037532,50.5812942 248.368776,51.7812985 246.025018,51.7812985 C242.875007,51.7812985 241,49.4750404 241,46.4375297 C241,43.3625189 242.968757,41.0937609 246.062518,41.0937609 C248.443776,41.0937609 250.168782,42.3875154 250.618784,44.4687727 Z M255.797339,51.7812985 C252.741078,51.7812985 250.678571,49.5687907 250.678571,46.4375297 C250.678571,43.2687685 252.797328,41.0937609 255.797339,41.0937609 C258.8536,41.0937609 260.934857,43.3062687 260.934857,46.4375297 C260.934857,49.5875407 258.83485,51.7812985 255.797339,51.7812985 Z M258.234848,46.4375297 C258.234848,44.6375233 257.409845,43.4750193 255.797339,43.4750193 C254.128583,43.4750193 253.37858,44.6750235 253.37858,46.4375297 C253.37858,48.2562861 254.203583,49.4000401 255.797339,49.4000401 C257.428595,49.4000401 258.234848,48.1812858 258.234848,46.4375297 Z M268.550917,38 L271.119676,38 L271.119676,51.5000475 L268.869668,51.5000475 L268.869668,50.9187954 C268.157166,51.4625473 267.257162,51.7812985 266.132158,51.7812985 C263.338399,51.7812985 261.463392,49.4750404 261.463392,46.4375297 C261.463392,43.3437688 263.357149,41.0937609 266.263409,41.0937609 C267.163412,41.0937609 267.913415,41.3187617 268.550917,41.7125131 L268.550917,38 Z M266.54466,49.5125405 C268.250916,49.5125405 268.869668,48.2750361 268.869668,46.4375297 C268.869668,44.6000232 268.232166,43.3625189 266.63841,43.3625189 C264.932154,43.3625189 264.163401,44.7500237 264.163401,46.4375297 C264.163401,48.1437857 264.894654,49.5125405 266.54466,49.5125405 Z M274.966973,47.1500322 C275.154473,48.5562871 275.960726,49.4000401 277.329481,49.4000401 C278.266984,49.4000401 279.035737,48.9687886 279.429488,48.1250356 L281.979497,48.8562882 C281.229495,50.6937946 279.373238,51.7812985 277.479482,51.7812985 C274.31072,51.7812985 272.210713,49.5875407 272.210713,46.5687801 C272.210713,43.2875186 274.25447,41.0937609 277.329481,41.0937609 C280.648243,41.0937609 282.354499,43.6250198 282.073248,47.1500322 L274.966973,47.1500322 Z M277.329481,43.3062687 C275.960726,43.3062687 275.285724,44.0562713 275.041973,45.1812753 L279.485739,45.1812753 C279.316988,43.981271 278.773236,43.3062687 277.329481,43.3062687 Z" fill-rule="nonzero" id="code"></path><circle cx="229.5" cy="61.5" id="Oval" r="9.5"></circle><g fill-rule="nonzero" id="Logo" transform="translate(74.000000, 95.000000)"><path d="M41.9207957,32.0264594 L36.7558058,32.0264594 L29.2308356,21.6939006 L29.1620425,25.0038978 L29.1620425,32.0264594 L25.0884873,32.0264594 L25.0884873,0 L29.1620425,0 L29.1620425,19.7257941 L36.0473615,10.1089104 L41.2721388,10.1089104 L41.2721388,10.2878291 L33.8157116,20.5554415 L41.9207957,31.8475406 L41.9207957,32.0264594 Z M52.5879869,32.384297 C50.8168671,32.384297 49.3483356,31.8326363 48.1823484,30.7292983 C47.0163612,29.6259604 46.4186172,28.0902564 46.3890985,26.1221401 L46.3890985,13.8662045 L42.5812099,13.8662045 L42.5812099,10.1089104 L46.3890985,10.1089104 L46.3890985,4.15758696 L50.4626537,4.15758696 L50.4626537,10.1089104 L55.7759866,10.1089104 L55.7759866,13.8662045 L50.4626537,13.8662045 L50.4626537,24.7802493 C50.4626537,26.2414266 50.7430768,27.2329248 51.3039314,27.7547738 C51.8647861,28.2766229 52.4994278,28.5375434 53.2078757,28.5375434 C53.532581,28.5375434 53.8499019,28.5002691 54.1598479,28.4257192 C54.4697939,28.3511694 54.7575965,28.254256 55.0232645,28.1349762 L56.3073199,31.802811 C55.244648,32.1904702 54.0048828,32.384297 52.5879869,32.384297 Z M89.6587403,32.384297 C87.8876205,32.384297 86.419089,31.8326363 85.2531017,30.7292983 C84.0871145,29.6259604 83.4893706,28.0902564 83.4598519,26.1221401 L83.4598519,13.8662045 L79.6519633,13.8662045 L79.6519633,10.1089104 L83.4598519,10.1089104 L83.4598519,4.15758696 L87.5334071,4.15758696 L87.5334071,10.1089104 L92.84674,10.1089104 L92.84674,13.8662045 L87.5334071,13.8662045 L87.5334071,24.7802493 C87.5334071,26.2414266 87.8138302,27.2329248 88.3746848,27.7547738 C88.9355394,28.2766229 89.5701812,28.5375434 90.2786291,28.5375434 C90.6033344,28.5375434 90.9206553,28.5002691 91.2306013,28.4257192 C91.5405472,28.3511694 91.8283499,28.254256 92.0940179,28.1349762 L93.3780733,31.802811 C92.3154014,32.1904702 91.0756361,32.384297 89.6587403,32.384297 Z M105.065905,32.599606 C98.7106438,32.599606 93.5586867,27.3950659 93.5586867,20.9749403 C93.5586867,14.5548147 98.7106438,9.35027458 105.065905,9.35027458 C111.421166,9.35027458 116.573123,14.5548147 116.573123,20.9749403 C116.573123,27.3950659 111.421166,32.599606 105.065905,32.599606 Z M105.065905,28.4720072 C109.164588,28.4720072 112.487227,25.115456 112.487227,20.9749402 C112.487227,16.8344245 109.164588,13.4778733 105.065905,13.4778733 C100.967222,13.4778733 97.644583,16.8344245 97.644583,20.9749402 C97.644583,25.115456 100.967222,28.4720072 105.065905,28.4720072 Z M11.5072182,32.599606 C5.15195705,32.599606 0,27.3950659 0,20.9749403 C0,14.5548147 5.15195705,9.35027458 11.5072182,9.35027458 C17.8624792,9.35027458 23.0144363,14.5548147 23.0144363,20.9749403 C23.0144363,27.3950659 17.8624792,32.599606 11.5072182,32.599606 Z M11.5072181,28.4720072 C15.605901,28.4720072 18.9285399,25.115456 18.9285399,20.9749402 C18.9285399,16.8344245 15.605901,13.4778733 11.5072181,13.4778733 C7.40853525,13.4778733 4.0858963,16.8344245 4.0858963,20.9749402 C4.0858963,25.115456 7.40853525,28.4720072 11.5072181,28.4720072 Z M68.1910242,32.7421345 C64.8889364,32.7421345 62.1678122,31.6435181 60.0275701,29.4462523 C57.887328,27.2489865 56.7966269,24.2624982 56.7966269,20.907214 C56.7966269,17.5816225 57.8361575,14.8128122 59.9152498,12.6007 C61.9943421,10.3885878 64.6543174,9.28254827 67.8952554,9.28254827 C71.2279181,9.28254827 73.5894334,10.382709 75.85233,12.4225442 C78.1152266,14.4623794 79.5779839,18.270942 79.3107494,22.1697963 L61.1076644,22.1697963 C61.1688142,24.3076766 61.9026005,25.5244118 63.3090453,26.8308942 C64.7154901,28.1373766 66.3970837,28.7906079 68.3538764,28.7906079 C71.0444665,28.7906079 73.2952678,27.4162082 74.4237385,24.8711804 L78.859767,24.8711804 C78.2608286,27.4719765 76.0666385,30.0882933 74.2677526,31.1832713 C72.4688667,32.2782493 70.4535658,32.7421345 68.1910242,32.7421345 Z M61.2994514,18.3801127 L75.0521105,18.3801127 C74.7211062,16.9010316 73.9004452,15.5438644 72.5905345,14.5123629 C71.2806239,13.4808613 70.135314,12.9626445 68.1910242,12.9626445 C66.5862135,12.9626445 64.9983966,13.5529162 63.8410813,14.5123629 C62.6837659,15.4718095 61.6697923,16.7610466 61.2994514,18.3801127 Z" id="okteto"></path></g></g><g fill-rule="nonzero" id="Cluster" transform="translate(195.000000, 104.000000)"><path d="M257.978758,5.53739621 L257.977726,5.53744832 C254.116105,5.73213907 250.333005,6.69026332 246.851133,8.35503893 L66.4203791,94.63835 C58.4702567,98.4382501 52.7011876,105.618107 50.7406642,114.140733 L6.2268213,307.956416 C4.48584862,315.519859 5.90241204,323.460601 10.167515,329.99148 C10.6783865,330.780145 11.2278766,331.5436 11.800029,332.261617 L136.685774,487.667049 C142.187606,494.511155 150.538198,498.5 159.373476,498.5 L359.65374,498.453811 C368.484762,498.460252 376.835019,494.478254 382.33727,487.645732 L507.178906,332.214662 C512.67609,325.37657 514.73421,316.431636 512.774395,307.90944 L468.191934,114.096409 C466.230981,105.571917 460.461912,98.3920601 452.512102,94.5923092 L272.058177,8.35514248 C267.677903,6.26069819 262.836325,5.29157826 257.978758,5.53739621 Z" fill="#FFFFFF" id="path3055" stroke="#007BFF" stroke-width="11"></path><path d="M322.861827,421.171809 C303.737982,429.426353 282.653155,434 260.500097,434 C237.400463,434 215.4623,429.027149 195.697757,420.093595 L174.169211,460.306013 C171.370549,465.533536 164.875362,467.519275 159.632002,464.750397 C154.427038,462.001794 152.435763,455.554154 155.184366,450.349189 C155.193803,450.331317 155.203292,450.313473 155.212831,450.295655 L176.812233,409.950887 C143.773281,389.188278 118.989486,356.496226 108.502058,317.915943 L62.9041083,327.541807 C57.1365695,328.759351 51.4713362,325.080341 50.2376987,319.316223 C49.0085032,313.572859 52.6679593,307.920484 58.4113227,306.691288 C58.4209977,306.689218 58.4306756,306.68716 58.4403564,306.685117 L104.322009,296.999363 C103.449912,290.289659 103.000097,283.44736 103.000097,276.5 C103.000097,243.137892 113.373044,212.198516 131.06972,186.731092 L94.5210337,157.774923 C89.9243258,154.133122 89.150221,147.45449 92.7920223,142.857782 C92.806728,142.839221 92.8214957,142.820709 92.8363252,142.802246 C96.5406742,138.19032 103.272907,137.432817 107.909512,141.106228 L144.428629,170.03897 C170.756042,141.350252 207.580961,122.450525 248.816372,119.426803 L248.816372,73.7347408 C248.816372,67.8061072 253.622479,63 259.551113,63 C265.479746,63 270.285853,67.8061072 270.285853,73.7347408 L270.285853,119.299051 C311.818956,121.845033 349.000507,140.487127 375.670811,169.065636 L410.961379,141.106228 C415.597984,137.432817 422.330217,138.19032 426.034566,142.802246 C429.707039,147.374486 428.977634,154.058147 424.405394,157.73062 C424.386931,157.745449 424.368419,157.760217 424.349857,157.774923 L389.170088,185.64655 C407.329648,211.317926 418.000097,242.662855 418.000097,276.5 C418.000097,283.58921 417.531725,290.569026 416.624237,297.410192 L460.559784,306.685117 C466.306555,307.898277 469.981773,313.540417 468.768613,319.287189 C468.766569,319.29687 468.764512,319.306548 468.762441,319.316223 C467.528804,325.080341 461.86357,328.759351 456.096032,327.541807 L412.389054,318.315133 C401.598608,357.598926 375.975983,390.743221 341.919167,411.35003 L362.769509,450.295655 C365.547677,455.4849 363.593115,461.943764 358.40387,464.721933 C358.386053,464.731472 358.368208,464.74096 358.350337,464.750397 C353.106977,467.519275 346.611791,465.533536 343.813129,460.306013 L322.861827,421.171809 Z M210.726734,392.021494 C225.991036,398.60707 242.819461,402.255814 260.500097,402.255814 C277.234099,402.255814 293.204704,398.987323 307.808334,393.053917 L272.112445,326.378812 C268.085797,327.436658 263.858734,328 259.500097,328 C254.819805,328 250.291225,327.350444 245.999587,326.136564 L210.726734,392.021494 Z M191.842244,381.876854 L227.135138,315.954492 C220.916525,310.576144 216.051252,303.675123 213.118903,295.831015 L139.634033,311.343891 C148.070243,340.660219 166.883899,365.582125 191.842244,381.876854 Z M135.505568,290.416421 L210.146882,274.659417 C210.711919,267.296104 212.888003,260.383783 216.32327,254.274319 L156.015393,206.494624 C142.581704,226.50512 134.744283,250.587296 134.744283,276.5 C134.744283,281.203598 135.002513,285.846883 135.505571,290.416451 Z M169.39239,189.816833 L230.599077,238.308622 C235.965905,234.442616 242.138335,231.62505 248.816372,230.155918 L248.816372,151.279753 C217.653262,154.150761 189.783233,168.391823 169.39239,189.816833 Z M270.285853,151.1193 L270.285853,230.178479 C276.896659,231.647549 283.009719,234.438583 288.333335,238.259881 L350.686968,188.859409 C329.964128,167.538302 301.746137,153.540647 270.285853,151.1193 Z M364.240014,205.397723 L302.637021,254.203491 C306.09534,260.330341 308.286092,267.267642 308.853312,274.659428 L385.448528,290.828907 C385.981898,286.126394 386.255911,281.345196 386.255911,276.5 C386.255911,250.112037 378.128364,225.622364 364.240014,205.397723 Z M381.250945,311.741785 L305.881286,295.831026 C302.839819,303.967024 297.718896,311.088441 291.165244,316.548552 L326.908327,383.311807 C352.870099,367.136354 372.505046,341.758939 381.250945,311.741785 Z M259.500097,295.825 C269.06843,295.825 276.825097,288.068333 276.825097,278.5 C276.825097,268.931667 269.06843,261.175 259.500097,261.175 C249.931763,261.175 242.175097,268.931667 242.175097,278.5 C242.175097,288.068333 249.931763,295.825 259.500097,295.825 Z" fill="#007BFF" id="Okteto's-Kuebrnetes-Logo"></path></g></g></g></g></g></g></svg>