<svg height="28" version="1.1" viewbox="0 0 249 50" width="155"><title>YCombinator</title><desc>Created with Sketch.</desc><g fill="none" fill-rule="evenodd" id="Landing-v2" stroke="none" stroke-width="1"><g fill="#FFFFFF" fill-rule="nonzero" id="Desktop-HD" transform="translate(-334.000000, -3561.000000)"><g id="Section" transform="translate(0.000000, 3480.000000)"><g id="YCombinator" transform="translate(334.000000, 81.000000)"><path d="M0,0 L50,0 L50,50 L0,50 L0,0 Z M15,12.1303273 C15.4394385,13.1151825 15.9898463,14.0456932 16.4770016,15.0072579 C18.6797426,19.1651657 20.902458,23.3130919 23.1174055,27.4654544 C23.3060534,27.7682308 23.2627753,28.1331152 23.2672141,28.4736001 C23.2561172,31.6466527 23.2716529,34.8197053 23.2594463,37.992758 C24.4190756,38.0049578 25.578705,37.9983033 26.7383344,37.9971943 C26.736115,34.7465066 26.7405537,31.49471 26.736115,28.2440223 C26.727133,28.0477609 26.7679795,27.8524185 26.8548521,27.6761779 C29.2584475,23.127877 31.7042113,18.6017576 34.0856128,14.0412569 C34.3941075,13.4013228 34.7836098,12.796879 35,12.1170184 C33.8092992,11.9207128 32.5964046,12.0393834 31.3957166,12.0027841 C29.5813683,15.5651207 27.8380403,19.1651657 25.9948399,22.7130844 C25.6985519,23.2809288 25.4255673,23.8631912 25.0893303,24.4088542 C24.6898408,23.7434115 24.3735782,23.033606 24.0206958,22.3437637 C22.3794596,19.0209865 20.7770626,15.6782459 19.1513621,12.3488143 C19.0892193,12.2268165 19.0304056,12.0704374 18.8617322,12.0970551 C17.7953171,12.063783 16.728902,11.9972387 15.6613771,12.0194201 C15.4361094,12.0260746 15.2186096,12.0815281 15,12.1303273 Z" id="Combined-Shape"></path><path d="M207.826649,13.7182103 C208.78539,13.4079974 209.769831,13.1787096 210.760978,13 C210.615714,14.8354264 210.481624,16.6719767 210.417931,18.5130229 C211.974489,18.5501136 213.532164,18.5501136 215.088722,18.6141793 C214.819192,19.3177836 214.533053,20.014836 214.230548,20.7047446 C212.919821,20.7092404 211.607977,20.6991248 210.297251,20.7092404 C210.292781,22.4075437 210.311777,24.104723 210.311777,25.8030263 C210.296133,27.1517781 210.391114,28.498282 210.369883,29.8481577 C210.40564,31.3767431 210.326304,32.9131962 210.498385,34.4361617 C210.541964,35.070075 211.108493,35.5162871 211.678374,35.6781373 C212.628176,35.8973095 213.62044,35.8197562 214.561302,35.5882205 C214.814663,36.13971 214.930496,36.7450277 214.898761,37.3517135 C214.045057,37.7990495 213.066203,37.8855944 212.124223,37.9698914 C210.7945,38.0238415 209.311692,37.8114131 208.356303,36.7852377 C207.569643,36.050168 207.631101,34.8812498 207.540591,33.8932891 C207.444493,31.7229227 207.482485,29.5480604 207.471311,27.3754461 C207.466841,25.1533775 207.478015,22.9324329 207.465724,20.7103644 C206.635485,20.6991248 205.806364,20.7069925 204.97836,20.7058685 C204.947073,19.9797905 204.951542,19.2525885 204.973891,18.5265104 C205.788486,18.5197667 206.60308,18.53775 207.417675,18.5141469 C207.541708,16.9147521 207.569643,15.3041176 207.826649,13.7182103 L207.826649,13.7182103 Z M107.129774,18.7142117 C107.997015,18.4339398 108.881209,18.2098132 109.776928,18.0432077 C110.143354,18.8867759 110.367303,19.7859216 110.439554,20.7036206 C111.050779,20.384416 111.527915,19.8730143 112.097796,19.489744 C113.398466,18.5534855 114.978489,17.9577868 116.593153,18.0274723 C116.95743,18.0521994 117.310532,18.1690912 117.636817,18.3343133 C118.192172,18.6141793 118.758701,18.901913 119.211253,19.3413813 C119.688389,19.7943371 119.987856,20.3922837 120.316376,20.9542637 C121.04493,20.6271913 121.609224,20.0438562 122.262911,19.5987681 C123.397086,18.8108723 124.689934,18.1859506 126.077762,18.0499515 C127.348262,17.9038367 128.677984,18.3320654 129.607673,19.2222416 C130.02782,19.6279911 130.474786,20.0404843 130.707208,20.5912246 C130.932926,21.1284774 131.002205,21.7151845 131.054724,22.2917758 C131.275972,25.3298392 131.124003,28.3802662 131.242449,31.4217015 C131.242449,33.4437052 131.256976,35.4645849 131.258093,37.4865887 C130.252421,37.5012001 129.247865,37.5079439 128.24331,37.4798449 C128.246663,34.4485253 128.244428,31.4183296 128.244428,28.38701 C128.235488,26.4380636 128.281302,24.4857454 128.12263,22.5412949 C128.039572,21.9149565 127.703706,21.3506804 127.194059,20.9812387 C126.607416,20.5923486 125.868806,20.6350591 125.199475,20.6732737 C124.011664,20.7856697 123.018283,21.5342269 122.122117,22.2636768 C121.697499,22.6244679 121.256121,22.9650278 120.842678,23.3381824 C120.714175,23.4404628 120.754402,23.6259161 120.739876,23.769783 C120.740993,28.3409276 120.747698,32.9131962 120.736523,37.4854647 C119.736438,37.5023241 118.735235,37.5068199 117.736267,37.4809689 C117.737384,33.92476 117.738502,30.3696751 117.73515,26.8134662 C117.727328,25.9502651 117.753028,25.084816 117.682631,24.2238628 C117.628995,23.3460502 117.718388,22.4041718 117.309415,21.5971687 C116.699307,20.7283477 115.490265,20.5462662 114.52035,20.7867936 C113.008489,21.1520806 111.704467,22.0894631 110.561352,23.1167623 C110.375861,23.2359021 110.39374,23.4674378 110.392623,23.6596349 C110.401562,28.2656223 110.38927,32.8727336 110.39821,37.4787209 C109.52104,37.505696 108.642752,37.5079439 107.7667,37.476473 C107.684011,32.7614616 107.742117,28.0419543 107.614732,23.3258189 C107.587914,22.2558091 107.589031,21.1824275 107.448237,20.1191615 C107.363313,19.6459744 107.20911,19.1885228 107.129774,18.7142117 L107.129774,18.7142117 Z M158.282749,18.5478657 C159.24596,18.4062467 160.204701,18.2387767 161.16009,18.0521994 C161.281888,20.7069925 161.239427,23.3685293 161.262892,26.0255704 C161.267362,29.8447858 161.26401,33.6640013 161.26401,37.4820928 C160.267276,37.504572 159.270543,37.504572 158.27381,37.4832168 C158.242522,32.0162762 158.26934,26.5482117 158.260401,21.0812711 C158.265988,20.2371773 158.242522,19.3919595 158.282749,18.5478657 L158.282749,18.5478657 Z M239.386888,18.7659139 C240.283054,18.511899 241.17475,18.2354048 242.084325,18.0285962 C242.563696,18.9524912 242.658676,20.0045176 242.70896,21.027321 C243.171569,20.6800175 243.557077,20.246169 243.96605,19.8392955 C245.270072,18.539998 247.154032,17.75435 249,18.0870422 L249,18.3197018 C248.595496,19.2121259 248.342961,20.1641199 247.96304,21.0655357 C247.909404,21.2318817 247.682569,21.1779317 247.555184,21.2094025 C246.749528,21.2285099 245.895824,21.2082786 245.17174,21.616276 C244.459489,22.0357269 243.832121,22.5863169 243.32242,23.239274 C242.827405,23.8675675 242.923503,24.7150332 242.887746,25.4635905 C242.840814,26.5504596 242.816231,27.6373288 242.828523,28.7241979 C242.824053,31.6442455 242.82964,34.5631692 242.825171,37.4820928 C241.826203,37.504572 240.826117,37.504572 239.827149,37.4820928 C239.811505,34.2259812 239.826032,30.9687457 239.820444,27.7126341 C239.803683,25.5006811 239.837206,23.2853563 239.723229,21.0756513 C239.700881,20.2922513 239.451698,19.5425701 239.386888,18.7659139 L239.386888,18.7659139 Z M167.123728,18.8030046 C168.009838,18.5220146 168.907121,18.1938183 169.844631,18.175835 C170.181612,19.0450764 170.401822,19.9556448 170.499436,20.8834542 C171.290565,20.3911598 171.957661,19.7224037 172.770021,19.2593322 C174.332166,18.3264456 176.282053,17.6880364 178.063211,18.3567925 C179.107993,18.7276992 180.123722,19.3245219 180.756178,20.2652763 C181.273541,20.9463959 181.393104,21.8264565 181.44674,22.6570628 C181.604296,25.6130771 181.554012,28.5747112 181.590887,31.5329735 C181.588652,33.5156386 181.628879,35.4971798 181.634466,37.4787209 C180.63438,37.5079439 179.633177,37.504572 178.633092,37.4809689 C178.631975,34.2248573 178.568282,30.9687457 178.561577,27.7115101 C178.517998,25.8996869 178.612978,24.077748 178.395083,22.2749164 C178.124669,21.4105913 177.293313,20.6878852 176.370329,20.664282 C175.688706,20.636183 174.982501,20.6103319 174.332166,20.8519833 C172.901876,21.3881121 171.613498,22.2456935 170.448035,23.2280344 C170.414512,27.9790125 170.4458,32.7322386 170.432391,37.4843407 C169.556339,37.5023241 168.680286,37.5068199 167.805351,37.4787209 C167.801999,34.7845893 167.734954,32.0915815 167.721545,29.3974498 C167.696962,26.624641 167.718193,23.8507081 167.574046,21.0812711 C167.543876,20.300119 167.289106,19.5594295 167.123728,18.8030046 Z M158.942014,10.7533907 C159.542615,10.5651533 160.190628,10.5980946 160.769105,10.8462695 C161.293268,11.1832666 161.695556,11.6798552 161.916765,12.2629509 C162.303415,13.5151361 161.287619,14.9206273 160.014801,15.0638621 C159.031413,15.1735262 157.950803,14.59723 157.645729,13.6214432 C157.241198,12.5180878 157.863639,11.1898091 158.942014,10.7533907 Z M70.2492938,13.0194095 C71.6785598,12.061527 73.3447332,11.3408771 75.0868956,11.3184966 C76.8603477,11.286045 78.6986141,11.4124944 80.3301453,12.1689531 C80.9984026,12.475565 81.6722474,12.7978432 82.2276385,13.2902128 C81.8219907,13.9918393 81.2867143,14.6039442 80.7804926,15.2317153 C80.1312326,14.8456528 79.489795,14.4304958 78.7690158,14.1854301 C77.012326,13.5643731 75.0153764,13.4312095 73.2631566,14.1384312 C71.7970135,14.696823 70.5990672,15.837106 69.8469984,17.2034314 C69.3273669,18.1657901 68.8926644,19.1874568 68.6758719,20.2650747 C68.4825466,21.316955 68.4210848,22.3878587 68.4043225,23.4554054 C68.3473306,24.8743248 68.2813989,26.2977203 68.3674454,27.7155208 C68.616645,29.6861179 69.2994297,31.6701433 70.6415318,33.1685132 C71.8171282,34.5225294 73.5537033,35.3170348 75.3215679,35.4949592 C76.2524347,35.5464342 77.2034163,35.5587435 78.1130508,35.3226299 C79.2193631,35.0798022 80.1993993,34.497911 81.2219001,34.0391121 C81.8186382,34.6321936 82.3371522,35.2991305 82.8243766,35.9839717 C82.061637,36.4139064 81.2734683,36.7969472 80.4642438,37.1309689 C78.2829089,38.016115 75.8635492,38.0351384 73.5548207,37.8124531 C71.8942348,37.4666754 70.3532201,36.6262901 69.0725798,35.5229348 C67.5952618,34.2360599 66.5135342,32.5284329 65.8620392,30.6865232 C65.4228668,29.4455282 65.2083092,28.1362729 65.0920906,26.8281366 C65.0462736,25.8557068 64.9378773,24.8799199 65.0473911,23.9063711 C65.0809157,22.0633424 65.3792848,20.2046475 66.1134738,18.5037346 C66.9974062,16.3697603 68.3238634,14.3454502 70.2492938,13.0194095 Z M224.68619,18.1218849 C225.849354,17.9592522 227.031309,17.9922977 228.183696,18.2196694 C229.900934,18.6338769 231.411629,19.658083 232.437691,21.1037503 C233.261225,22.2614289 233.797583,23.6169245 234.053471,25.0140065 C234.251117,26.3530199 234.326298,27.7074402 234.278071,29.0602619 C234.22667,31.2587273 233.553987,33.4695563 232.220912,35.2274294 C231.142608,36.6346271 229.472074,37.4787209 227.756844,37.7911818 C225.673984,38.1575927 223.413456,37.7866859 221.671407,36.5413385 C220.142785,35.4466016 219.1684,33.7336868 218.639863,31.9522105 C218.353805,31.0541666 218.303522,30.1066685 218.236477,29.1737818 C218.207424,27.602486 218.177254,26.0120828 218.493482,24.4643902 C218.925921,22.7098889 219.78633,21.0228252 221.12164,19.7898413 C222.106996,18.8723193 223.353743,18.2889302 224.68619,18.1218849 Z M224.941491,20.1370845 C223.532566,20.2979154 222.396481,21.4610256 221.940258,22.8164337 C221.37557,24.2336101 221.448253,25.7906395 221.415825,27.2917277 C221.453844,28.7100696 221.451607,30.137735 221.698728,31.5385952 C221.87093,32.4779408 222.163897,33.4312717 222.776667,34.1654996 C223.361483,34.8973966 224.212428,35.3589113 225.09692,35.5605326 C226.351533,35.8530584 227.729148,35.7062128 228.850697,35.027926 C229.607714,34.5745694 230.120965,33.7867312 230.44636,32.9581026 C230.828782,31.9756357 230.87351,30.9010989 230.951783,29.8568637 C231.00993,28.6156688 231.021111,27.3709777 230.95402,26.1297829 C230.852264,24.8314814 230.715845,23.483066 230.105311,22.3222866 C229.578641,21.4517021 228.801496,20.7326249 227.90135,20.3095698 C226.953122,19.9739227 225.922147,19.9995624 224.941491,20.1370845 Z M92.1653664,18.1241328 C92.8157013,18.0409598 93.4727407,18.0724307 94.1264279,18.0780505 C94.9007957,18.1039015 95.6952771,18.0611911 96.4417096,18.3084622 C98.1547051,18.9007891 99.6620965,20.0966823 100.578376,21.6747219 C101.358331,23.0358372 101.906981,24.5632986 101.969556,26.1447101 C102.066771,28.2689942 102.137168,30.455096 101.475659,32.5040748 C100.859964,34.4260461 99.5123631,36.1389608 97.7099744,37.057236 C95.9176424,37.9889987 93.7722077,38.1632125 91.8334945,37.6383232 C90.0903287,37.1774997 88.5773503,36.022069 87.5772648,34.5260785 C86.4654379,32.9221878 86.0899868,30.9361508 86.0218246,29.0153035 C85.977128,27.1573979 85.9413708,25.2455423 86.5559484,23.4651899 C87.1358863,21.7095647 88.2566525,20.10455 89.8277365,19.1143414 C90.5495859,18.6692533 91.3295408,18.287107 92.1653664,18.1241328 Z M92.5484376,20.1603933 C91.5431812,20.4074668 90.5938345,21.007669 90.0380921,21.9306984 C89.2475289,23.2476469 89.1334731,24.8501285 89.0440176,26.3605402 C88.9422619,27.4851909 89.0361902,28.613338 89.1312367,29.7344923 C89.2889021,31.0899004 89.5371411,32.4709482 90.1666844,33.6841724 C90.8543737,34.9568341 92.2644163,35.6083157 93.6174311,35.7062128 C94.907827,35.7936209 96.3100423,35.4311687 97.2280796,34.4323856 C97.9705604,33.5839444 98.3977105,32.473279 98.5475485,31.3439666 C98.7376415,29.9256247 98.7063321,28.4886358 98.68285,27.0609703 C98.6191129,25.5750329 98.5207118,24.0471395 97.9448419,22.6649263 C97.5953424,21.8053847 96.983845,21.0898164 96.204932,20.6289006 C95.1124565,19.9611029 93.7650327,19.8608749 92.5484376,20.1603933 Z M187.834996,20.1348969 C189.836284,19.0255486 192.029768,18.064563 194.358458,18.0814224 C195.176405,18.0870422 196.004409,18.0510754 196.817886,18.1769589 C198.849345,18.5636011 200.585806,20.4012754 200.639442,22.5210636 C200.747831,25.6737709 200.617094,28.8298501 200.649499,31.9836814 C200.672964,32.9210639 200.638325,33.8753058 200.867395,34.791333 C201.003719,35.4095109 201.575835,35.7511947 202.016096,36.1412088 C201.583657,36.7357835 201.229437,37.4056636 200.667377,37.8889663 C200.339975,38.1643364 199.935471,37.8653631 199.65947,37.6630504 C198.930916,37.1201778 198.435902,36.331158 198.033633,35.5275267 C197.387768,35.881574 196.892753,36.4458019 196.263649,36.8268242 C195.167466,37.5259273 193.874618,37.9417924 192.571713,37.9226851 C191.402898,37.9496601 190.205031,37.7540911 189.152427,37.2292019 C187.442783,36.3210423 186.492982,34.3406251 186.542148,32.4355132 C186.527621,30.6045827 187.450605,28.8219824 188.912183,27.741857 C190.662053,26.427948 192.885707,25.9952235 195.019967,25.8378691 C195.99547,25.7513242 196.976559,25.7468283 197.955414,25.7041179 C197.994523,24.7431322 197.921891,23.7810226 197.785567,22.8301526 C197.670473,22.0220255 197.2872,21.1947911 196.549707,20.7890416 C195.665833,20.3203503 194.621051,20.3091107 193.654488,20.4496057 C191.830868,20.6732737 190.11899,21.4566737 188.635064,22.5255595 C188.2395,21.9579598 187.819352,21.4038476 187.48301,20.7991572 C187.31875,20.496812 187.584695,20.2585325 187.834996,20.1348969 Z M192.835904,28.018963 C191.757965,28.3382938 190.765009,29.0445512 190.192493,30.0619813 C189.864863,30.6260548 189.868217,31.3090033 189.833553,31.9464996 C189.817898,32.652757 189.729561,33.3963084 189.999046,34.0664371 C190.265176,34.7342349 190.699035,35.3892128 191.362124,35.6747459 C192.128087,36.0092275 192.981269,36.0418598 193.798669,35.9661062 C194.777089,35.8425694 195.652635,35.2924812 196.408534,34.6619775 C197.041432,34.1142202 197.656439,33.3998047 197.700048,32.4977533 C197.825286,30.9010989 197.797331,29.295121 197.81634,27.6938049 C197.073859,27.7182792 196.340324,27.5422975 195.598962,27.6098931 C194.673097,27.7007975 193.734932,27.7567387 192.835904,28.018963 Z M137.119725,10.4378266 C137.923198,10.2453549 138.733376,9.99021793 139.567022,10.0002891 C140.028544,10.0215505 140.097828,10.5653951 140.139175,10.922363 C140.250903,12.600098 140.309042,14.280981 140.313503,15.9624364 C140.387257,17.5626374 140.3772,19.1650764 140.408489,20.7675154 C141.311419,20.0726029 142.196469,19.3217394 143.265904,18.8953922 C144.976777,18.1422906 147.029601,18.1333384 148.698009,19.0072943 C150.491576,19.9058687 151.744279,21.6403523 152.374542,23.5135945 C152.964575,25.2906009 153.106496,27.1940567 153.007039,29.0549897 C152.847239,31.2292487 152.257206,33.4292453 150.96986,35.2152038 C150.207734,36.2502989 149.206466,37.1578254 147.982817,37.5976009 C146.022745,38.3160128 143.734131,38.0586378 141.975206,36.9362591 C141.41758,36.5871244 140.948236,36.1204923 140.437544,35.7109304 C140.231926,36.3543679 140.076596,37.0134716 139.876565,37.6602661 C138.936759,37.6703373 137.988012,37.7363596 137.057145,37.5830536 C137.432621,36.0779695 137.441561,34.5191724 137.482908,32.9771605 C137.552192,27.5666909 137.477321,22.1551022 137.454971,16.7446326 C137.3354,14.6431099 137.510845,12.5180878 137.119725,10.4378266 Z M144.094945,20.4878823 C142.594329,20.7069852 141.396743,21.7838528 140.414969,22.9108344 C140.369123,23.2814447 140.397078,23.6555513 140.393723,24.0284925 C140.395959,27.0213453 140.393723,30.0130328 140.393723,33.0058856 C140.342286,33.3240511 140.616244,33.5081908 140.802982,33.7051503 C142.257752,35.1584554 144.431522,35.8530584 146.40178,35.3286098 C147.355599,35.0768746 148.170762,34.3927606 148.663886,33.5128525 C149.364994,32.266996 149.610996,30.8148563 149.761953,29.3976798 C149.82569,28.3079924 149.9554,27.2136431 149.839108,26.1227902 C149.783198,24.8547903 149.553968,23.5564888 148.926662,22.4516506 C148.415647,21.5461028 147.574765,20.8060477 146.5751,20.582283 C145.763291,20.394647 144.917936,20.4167904 144.094945,20.4878823 Z" id="Shape"></path></g></g></g></g></svg>