<svg aria-hidden="true" class="icon icon-twitter" focusable="false" role="presentation" viewbox="0 0 32 32"><path d="M31.281 6.733q-1.304 1.924-3.13 3.26 0 .13.033.408t.033.408q0 2.543-.75 5.086t-2.282 4.858-3.635 4.108-5.053 2.869-6.341 1.076q-5.282 0-9.65-2.836.913.065 1.5.065 4.401 0 7.857-2.673-2.054-.033-3.668-1.255t-2.266-3.146q.554.13 1.206.13.88 0 1.663-.261-2.184-.456-3.619-2.184t-1.435-3.977v-.065q1.239.652 2.836.717-1.271-.848-2.021-2.233t-.75-2.983q0-1.63.815-3.195 2.38 2.967 5.754 4.678t7.319 1.907q-.228-.815-.228-1.434 0-2.608 1.858-4.45t4.532-1.842q1.304 0 2.51.522t2.054 1.467q2.152-.424 4.01-1.532-.685 2.217-2.771 3.488 1.989-.261 3.619-.978z" fill="#444"></path></svg>