<svg class="bottom_shape" xmlns="http://www.w3.org/2000/svg" xmlns:xlink="http://www.w3.org/1999/xlink"><defs><lineargradient id="PSgrad_6" x1="76.604%" x2="0%" y1="0%" y2="64.279%"><stop offset="0%" stop-color="rgb(103,84,226)" stop-opacity="0.95"></stop><stop offset="100%" stop-color="rgb(25,204,230)" stop-opacity="0.95"></stop></lineargradient></defs><path d="M543.941,156.289 L227.889,41.365 C184.251,25.496 136.000,47.975 120.118,91.572 L5.084,407.325 C-10.799,450.922 11.701,499.127 55.339,514.995 L371.391,629.920 C415.029,645.788 463.280,623.310 479.162,579.713 L594.196,263.959 C610.079,220.362 587.579,172.157 543.941,156.289 Z" fill="url(#PSgrad_6)"></path><path d="M625.661,120.004 L309.609,5.078 C265.971,-10.789 217.720,11.689 201.838,55.286 L86.804,371.040 C70.921,414.636 93.421,462.842 137.059,478.709 L453.111,593.634 C496.749,609.502 545.000,587.023 560.882,543.427 L675.916,227.673 C691.799,184.077 669.299,135.871 625.661,120.004 Z" fill="url(#PSgrad_6)"></path></svg>