<svg data-bbox="2.075 2.275 195.95 195.588" preserveaspectratio="xMidYMid meet" role="img" version="1.1" viewbox="2.075 2.275 195.95 195.588" xmlns="http://www.w3.org/2000/svg"><g><path class="st0" d="M188.5,11.8c-12.7-12.7-33.4-12.7-46.2,0c-10.1,10.1-12.2,25.3-6.2,37.5L49.4,136c-12.2-6.2-27.6-4.2-37.8,6.1
	c-12.7,12.7-12.7,33.4,0,46.2s33.4,12.7,46.2,0c10.2-10.2,12.2-25.6,6-37.9l86.5-86.5c12.3,6.4,27.8,4.5,38.2-5.9
	C201.2,45.2,201.2,24.6,188.5,11.8z M43.4,173.8c-4.8,4.8-12.6,4.8-17.4,0c-4.8-4.8-4.8-12.6,0-17.4c4.8-4.8,12.6-4.8,17.4,0
	C48.3,161.2,48.3,169,43.4,173.8z M174.1,43.6c-4.8,4.8-12.6,4.8-17.4,0c-4.8-4.8-4.8-12.6,0-17.4c4.8-4.8,12.6-4.8,17.4,0
	C178.9,31,178.9,38.8,174.1,43.6z"></path></g></svg>