<svg class="just-free-checkmark" fill="none" height="60" viewbox="0 0 59 60" width="59" xmlns="http://www.w3.org/2000/svg"><path d="M29.5 0C13.2326 0 0 13.4569 0 30C0 46.5431 13.2326 60 29.5 60C45.7674 60 59 46.5431 59 30C59 13.4569 45.7674 0 29.5 0ZM45.8522 23.8884L27.0112 43.0463C26.4381 43.629 25.6433 43.9635 24.8335 43.9635V45.2608L24.8061 43.9635C23.9839 43.9559 23.1866 43.6063 22.616 43.0057L13.111 32.9899C11.9299 31.7458 11.9648 29.7593 13.1882 28.5609C13.7662 27.9933 14.5262 27.6817 15.326 27.6817C16.1706 27.6817 16.958 28.0212 17.5435 28.6395L24.871 36.3623L41.4943 19.4572C42.0748 18.8668 42.8497 18.5399 43.6719 18.5399C44.4942 18.5399 45.269 18.8668 45.8496 19.4572C47.053 20.6785 47.053 22.6675 45.8521 23.8888L45.8522 23.8884Z"></path></svg>