<svg height="22" viewbox="0 0 22 22" width="22" xmlns="http://www.w3.org/2000/svg"><g fill="#66BE00"><path d="M11 20.975c-5.5 0-9.975-4.475-9.975-9.975S5.5 1.025 11 1.025 20.975 5.5 20.975 11 16.5 20.975 11 20.975zM10.999 1.52c-5.227 0-9.48 4.252-9.48 9.48 0 5.228 4.253 9.48 9.48 9.48s9.48-4.252 9.48-9.48c0-5.228-4.253-9.48-9.48-9.48z" stroke="#7CBC00"></path><path d="M11.054 15.43a6.555 6.555 0 0 1-4.42-1.727.477.477 0 0 1 .648-.698 5.589 5.589 0 0 0 3.772 1.47 5.595 5.595 0 0 0 3.674-1.386.482.482 0 0 1 .673.04.482.482 0 0 1-.04.673 6.467 6.467 0 0 1-4.307 1.629zm5.585-5.682c.099.064.232-.01.232-.13v-.004a1.288 1.288 0 0 0-2.574 0v.005c0 .119.134.188.233.129a1.995 1.995 0 0 1 1.05-.298 1.92 1.92 0 0 1 1.059.298zm-9.174 0c.1.064.233-.01.233-.13v-.004a1.288 1.288 0 0 0-2.574 0v.005c0 .119.133.188.232.129a1.995 1.995 0 0 1 1.05-.298 1.93 1.93 0 0 1 1.06.298z"></path></g></svg>