<svg height="17" viewbox="0 0 20 17" width="20" xmlns="http://www.w3.org/2000/svg"><path d="M20 2.755a8.51 8.51 0 0 1-2.056 2.083 11.26 11.26 0 0 1-.47 3.76 11.603 11.603 0 0 1-1.465 3.099 12.25 12.25 0 0 1-2.341 2.625c-.906.76-1.997 1.368-3.275 1.82-1.277.454-2.643.68-4.099.68-2.292 0-4.39-.602-6.294-1.808.296.033.626.05.99.05 1.903 0 3.6-.574 5.089-1.72a4.042 4.042 0 0 1-2.386-.805 3.943 3.943 0 0 1-1.447-1.99c.28.042.537.063.774.063.364 0 .724-.046 1.079-.137a4.046 4.046 0 0 1-2.354-1.39 3.85 3.85 0 0 1-.933-2.563v-.05a4.12 4.12 0 0 0 1.853.511 4.05 4.05 0 0 1-1.333-1.434 3.871 3.871 0 0 1-.494-1.92c0-.732.186-1.41.558-2.033A11.583 11.583 0 0 0 5.133 4.57a11.578 11.578 0 0 0 4.715 1.24 4.4 4.4 0 0 1-.102-.922c0-1.114.4-2.064 1.2-2.85.799-.785 1.766-1.178 2.9-1.178 1.184 0 2.182.424 2.994 1.272a8.124 8.124 0 0 0 2.602-.973c-.313.956-.914 1.696-1.802 2.22A8.281 8.281 0 0 0 20 2.755z" fill="#999"></path></svg>