<svg height="22" viewbox="0 0 22 22" width="22" xmlns="http://www.w3.org/2000/svg"><g fill="#F95353"><path d="M11 20.975c-5.5 0-9.975-4.475-9.975-9.975S5.5 1.025 11 1.025 20.975 5.5 20.975 11 16.5 20.975 11 20.975zM11 1.52c-5.228 0-9.48 4.252-9.48 9.48 0 5.228 4.252 9.48 9.48 9.48 5.228 0 9.48-4.252 9.48-9.48 0-5.228-4.252-9.48-9.48-9.48z" stroke="#F95353"></path><path d="M4.317 9.97a.339.339 0 0 1-.164-.044.32.32 0 0 1-.108-.436c.534-.9 1.505-1.5 2.435-1.48a.319.319 0 0 1 .312.322.318.318 0 0 1-.317.312h-.03c-.697 0-1.44.465-1.85 1.168a.335.335 0 0 1-.278.158zm13.366 0a.315.315 0 0 1-.272-.153c-.416-.703-1.159-1.168-1.857-1.168h-.03a.315.315 0 0 1-.316-.312.316.316 0 0 1 .312-.322c.916-.02 1.9.58 2.435 1.48.09.149.04.347-.113.436a.341.341 0 0 1-.159.04zm-3.099 1.565a.093.093 0 0 0-.134.099c.12.584.694 1.03 1.387 1.03.698 0 1.272-.446 1.39-1.03.016-.075-.064-.139-.133-.1a2.55 2.55 0 0 1-1.257.322 2.585 2.585 0 0 1-1.253-.321zm-9.678 0c-.07-.035-.149.024-.134.099.114.584.693 1.03 1.391 1.03.698 0 1.273-.446 1.387-1.03.014-.075-.065-.139-.134-.1a2.55 2.55 0 0 1-1.258.322 2.6 2.6 0 0 1-1.252-.321zm9.5 5.064c.297.05.5-.297.302-.525-.861-1-2.203-1.638-3.708-1.638-1.505 0-2.847.643-3.708 1.638-.198.228.005.575.302.525A21.819 21.819 0 0 1 11 16.342c1.228.005 2.381.094 3.406.257z"></path></g></svg>