<svg height="58" viewbox="0 0 58 58" width="58" xmlns="http://www.w3.org/2000/svg"><path d="M29 13c-8.837 0-16 7.163-16 16s7.163 16 16 16 16-7.163 16-16a16 16 0 0 0-16-16zm.676 19.027l-9.611 6.839a.662.662 0 0 1-.87-.062.674.674 0 0 1-.062-.877l6.83-9.641a.665.665 0 0 1 .492-.282.65.65 0 0 1 .532.188l2.822 2.843a.673.673 0 0 1-.093 1.019l-.04-.027zm8.133-12.022l-6.006 8.728a.636.636 0 0 1-.47.267.636.636 0 0 1-.446-.19l-2.697-2.698a.636.636 0 0 1 .089-.98l8.703-6.005a.636.636 0 0 1 .89.89l-.063-.012z" fill="#999"></path></svg>