<svg height="17" viewbox="0 0 17 17" width="17" xmlns="http://www.w3.org/2000/svg"><path d="M8.362 0C3.751 0 0 3.75 0 8.362c0 4.61 3.75 8.362 8.362 8.362 4.61 0 8.362-3.752 8.362-8.362C16.724 3.751 12.972 0 8.362 0zm1.02 12.967c0 .238-.103.454-.305.641-.2.185-.467.279-.795.279-.337 0-.615-.093-.826-.277-.215-.187-.325-.404-.325-.643v-.41c0-.24.11-.456.325-.644.21-.183.489-.276.826-.276.328 0 .595.094.795.279.202.187.305.403.305.64v.411zm2.265-6.158a2.502 2.502 0 0 1-.502.678 4.335 4.335 0 0 1-.642.5 5.83 5.83 0 0 0-.611.448 2.3 2.3 0 0 0-.457.513c-.114.178-.172.4-.172.661v.258c0 .172-.084.351-.25.535a.915.915 0 0 1-.667.296l-.056.001c-.279 0-.505-.08-.674-.237-.18-.169-.272-.359-.272-.564 0-.48.067-.888.198-1.215a3.24 3.24 0 0 1 .482-.836c.188-.23.4-.431.63-.599.22-.158.422-.316.603-.466.174-.145.325-.3.446-.46a.875.875 0 0 0 .166-.547c0-.363-.098-.622-.301-.794-.206-.174-.49-.262-.846-.262-.237 0-.44.014-.604.044a1.417 1.417 0 0 0-.805.409 3.658 3.658 0 0 0-.369.442 1.02 1.02 0 0 1-.503.36c-.225.082-.475.06-.736-.064-.234-.117-.378-.27-.426-.455a1.048 1.048 0 0 1-.001-.53c.033-.154.125-.343.282-.576a2.82 2.82 0 0 1 .65-.659c.277-.21.628-.392 1.042-.542.417-.15.917-.227 1.485-.227.56 0 1.046.085 1.444.253.4.168.727.393.97.668a2.6 2.6 0 0 1 .534.94c.11.344.165.704.165 1.07 0 .37-.068.693-.203.957z" fill="#DDDAD9" fill-rule="evenodd"></path></svg>