<svg height="21" viewbox="0 0 20 21" width="20" xmlns="http://www.w3.org/2000/svg"><path d="M18.893.626c.304 0 .564.108.781.325.217.216.326.476.326.78v17.744c0 .303-.109.563-.326.78a1.067 1.067 0 0 1-.78.324h-5.092V12.85h2.591l.39-3.014h-2.98V7.914c0-.485.101-.849.305-1.091.204-.243.601-.364 1.191-.364l1.589-.013v-2.69c-.547-.077-1.32-.116-2.318-.116-1.18 0-2.124.346-2.832 1.04-.707.692-1.06 1.67-1.06 2.935v2.221H8.072v3.014h2.604v7.73h-9.57c-.304 0-.564-.109-.781-.325a1.062 1.062 0 0 1-.326-.78V1.73c0-.303.109-.563.326-.78.217-.216.477-.324.78-.324h17.787z" fill="#999"></path></svg>