<svg height="21" viewbox="0 0 20 21" width="20" xmlns="http://www.w3.org/2000/svg"><g fill="#999" transform="translate(0 .785)"><path d="M10 4.988c-2.734 0-5 2.222-5 4.989a4.979 4.979 0 0 0 5 4.988c2.773 0 5-2.26 5-4.988 0-2.728-2.266-4.989-5-4.989zm0 8.184c-1.758 0-3.203-1.442-3.203-3.195A3.215 3.215 0 0 1 10 6.78c1.758 0 3.203 1.442 3.203 3.196 0 1.753-1.445 3.195-3.203 3.195z"></path><ellipse cx="15.2" cy="4.789" rx="1.2" ry="1.197"></ellipse><path d="M18.387 1.65C17.34.562 15.847 0 14.153 0H5.847C2.339 0 0 2.333 0 5.833v8.247c0 1.73.565 3.218 1.694 4.304 1.088 1.046 2.54 1.57 4.193 1.57h8.226c1.734 0 3.185-.564 4.234-1.57C19.435 17.338 20 15.85 20 14.12V5.833c0-1.69-.565-3.138-1.613-4.184zm-.161 12.47c0 1.247-.444 2.253-1.17 2.937-.725.684-1.733 1.046-2.943 1.046H5.887c-1.21 0-2.218-.362-2.943-1.046-.726-.724-1.09-1.73-1.09-2.977V5.833c0-1.207.364-2.212 1.09-2.937.685-.683 1.733-1.045 2.943-1.045h8.307c1.21 0 2.217.362 2.943 1.086.686.724 1.089 1.73 1.089 2.896v8.287z"></path></g></svg>