<svg class="MylkIcon__Wrapper-gq58f5-0 dSEUpU" color="#FFFFFF" version="1.1" viewbox="0 0 32 32" xmlns="http://www.w3.org/2000/svg"><title>cart</title><path d="M11.048 25.257c-1.207 0-2.186 0.979-2.186 2.186s0.979 2.186 2.186 2.186 2.186-0.979 2.186-2.186c0-1.207-0.979-2.186-2.186-2.186zM7.529 27.443c0-1.944 1.576-3.519 3.519-3.519s3.519 1.576 3.519 3.519c0 1.944-1.576 3.519-3.519 3.519s-3.519-1.576-3.519-3.519z"></path><path d="M28.163 25.257c-1.207 0-2.186 0.979-2.186 2.186s0.979 2.186 2.186 2.186c1.207 0 2.186-0.979 2.186-2.186s-0.979-2.186-2.186-2.186zM24.643 27.443c0-1.944 1.576-3.519 3.519-3.519s3.519 1.576 3.519 3.519c0 1.944-1.576 3.519-3.519 3.519s-3.519-1.576-3.519-3.519z"></path><path d="M0.318 2.371h6.343l3.846 12.853-1.607 6.428c-0.050 0.199-0.005 0.41 0.121 0.572s0.32 0.256 0.525 0.256h19.818v-1.333h-18.965l1.318-5.273h18.312v-10.084h-1.333v8.751h-17.004l-4.040-13.502h-7.336v1.333z"></path></svg>