<svg class="MylkIcon__Wrapper-gq58f5-0 eABKBZ" version="1.1" viewbox="0 0 32 32" xmlns="http://www.w3.org/2000/svg"><title>add</title><path d="M16 30c-7.732 0-14-6.268-14-14s6.268-14 14-14c7.732 0 14 6.268 14 14s-6.268 14-14 14zM16 32c8.837 0 16-7.163 16-16s-7.163-16-16-16c-8.837 0-16 7.163-16 16s7.163 16 16 16z"></path><path d="M6 16c0-0.552 0.448-1 1-1h18c0.552 0 1 0.448 1 1v0c0 0.552-0.448 1-1 1h-18c-0.552 0-1-0.448-1-1v0z"></path><path d="M16 6c0.552 0 1 0.448 1 1v18c0 0.552-0.448 1-1 1v0c-0.552 0-1-0.448-1-1v-18c0-0.552 0.448-1 1-1v0z"></path></svg>