<svg class="MylkIcon__Wrapper-gq58f5-0 dSEUpU" color="#FFFFFF" version="1.1" viewbox="0 0 32 32" xmlns="http://www.w3.org/2000/svg"><title>user</title><path d="M16.016 14.667c-3.682 0-6.667-2.985-6.667-6.667s2.985-6.667 6.667-6.667c3.682 0 6.667 2.985 6.667 6.667s-2.985 6.667-6.667 6.667zM16.016 16c4.418 0 8-3.582 8-8s-3.582-8-8-8c-4.418 0-8 3.582-8 8s3.582 8 8 8z"></path><path d="M30.507 30.594l0.011 0.072c0.066 0.438 0.11 0.883 0.132 1.333h-29.301c0.022-0.45 0.067-0.895 0.132-1.333l0.011-0.072c0.427-2.744 1.687-5.229 3.529-7.211 0.076-0.081 0.152-0.162 0.23-0.242 2.678-2.752 6.503-4.474 10.748-4.474 4.247 0 8.072 1.723 10.75 4.476 0.077 0.079 0.153 0.159 0.228 0.24 1.841 1.982 3.102 4.467 3.529 7.211zM29.168 30.667c-0.076-0.453-0.178-0.897-0.303-1.333-0.615-2.144-1.81-4.069-3.419-5.606-2.405-2.297-5.737-3.728-9.446-3.728s-7.042 1.431-9.447 3.729c-1.609 1.537-2.803 3.461-3.418 5.605-0.125 0.436-0.226 0.881-0.302 1.333l26.335-0z"></path></svg>