<svg class="Banner__MylkLogo-ag04x1-2 eIkgHX" viewbox="0 0 650 300" width="120"><path d="M595.165 165.914C627.788 165.693 651.322 195.453 617.796 235.86C589.161 270.37 557.142 247.691 544.449 239.103C516.576 220.245 510.148 188.142 532.486 159.744C554.824 131.347 568.432 166.095 595.165 165.914Z" fill="#FFC0E6"></path><path d="M505.324 243.196C524.155 254.997 543.844 263.387 547.425 272.646C553.652 288.748 531.671 300.094 514.239 303.754C490.544 308.727 477.754 290.178 473.532 274.444C466.84 249.507 485.878 231.009 505.324 243.196Z" fill="#BCF7D4"></path><path d="M534.127 177.266C520.248 163.388 511.417 150.14 507.421 137.103C528.449 124.696 566.09 94.6262 566.09 65.1869C566.09 48.1542 558.73 33.2243 551.37 29.8598C544.01 26.4953 545.482 36.7991 545.482 42.8972C545.482 59.2991 540.435 81.1683 498.379 117.126C509.104 92.3131 514.781 54.4626 514.781 47.9439C514.781 41.4253 504.057 31.5421 484.29 31.5421C472.725 35.7477 443.496 106.192 425.202 139.837C423.519 142.36 421.837 145.094 420.365 147.617C405.225 171.168 388.192 192.617 387.351 191.566C385.879 190.094 395.552 150.771 409.431 116.706C431.09 63.5047 449.174 22.5 450.015 19.7664C452.748 11.1449 431.09 0.630841 423.94 0C422.678 0 421.837 0.21028 421.206 1.47196C417.632 5.88785 393.029 61.6122 368.426 128.481C369.267 125.958 369.898 124.696 369.477 124.907C363.59 133.528 349.501 153.925 326.79 172.43C343.613 131.636 361.907 85.7944 363.379 80.7477C366.113 72.9673 341.3 52.3598 337.094 62.4533C336.253 64.1355 333.519 71.9159 328.893 83.0608C321.533 93.3645 301.136 123.855 293.356 137.103C280.739 158.972 252.772 188.201 251.931 187.36C250.248 185.888 250.669 161.285 267.071 123.224C280.318 93.3645 291.253 73.1776 291.674 70.6542C291.884 64.7664 268.332 52.5701 262.655 55.9346C262.655 55.9346 243.519 89.7898 230.061 127.22C230.061 127.22 230.061 127.22 230.061 127.009C225.856 133.738 221.019 141.519 216.393 148.879C202.304 172.009 189.057 192.407 185.061 191.566C181.276 190.724 220.809 93.7851 220.178 80.958C219.547 67.9206 199.15 58.458 190.318 58.458C181.487 58.458 122.398 146.776 122.398 146.776C122.398 146.565 147.842 90 147.631 82.2197C147.001 74.8598 133.332 56.986 115.669 56.7757C103.473 56.5654 42.9117 155.187 42.9117 155.187C42.9117 155.187 70.0379 91.0514 74.0333 80.7477C78.4492 69.3926 56.7903 56.7757 51.7435 55.514C46.6968 54.2524 41.6501 54.2524 38.7061 61.1916C35.1314 69.3926 -0.826598 173.481 0.0145242 181.472C0.855646 189.673 17.4678 206.706 25.2482 206.706C33.0286 206.706 85.809 111.449 96.7436 101.986C96.7436 101.986 66.0426 177.687 69.1968 187.78C72.1407 197.874 90.4351 207.967 97.795 207.967C105.155 207.967 149.524 129.112 170.762 106.612C170.762 106.612 145.318 179.369 147.211 186.939C148.893 194.72 161.72 207.967 184.43 207.967C192.631 207.967 205.879 192.407 218.286 174.323C218.286 173.902 218.496 174.112 218.496 173.692C217.655 187.991 233.636 203.762 247.935 203.762C259.08 203.762 279.477 181.682 298.192 156.449C291.674 172.22 285.155 187.57 279.267 201.449C276.533 202.29 274.01 203.131 271.066 204.182C247.094 212.173 192.421 230.888 192.421 273.575C192.421 288.295 202.094 301.752 227.117 301.752C259.921 301.752 289.15 259.276 304.921 225.21C307.655 219.533 311.23 211.542 314.594 202.5C332.468 190.514 350.552 172.64 357.702 164.86C358.543 161.075 359.594 157.08 360.646 153.084C349.711 193.668 359.174 210.28 379.991 210.28C395.132 210.28 419.314 177.266 435.926 151.402C444.547 138.575 459.688 112.079 461.58 108.505C465.786 100.304 479.034 79.9066 479.034 79.9066C479.034 79.9066 478.613 82.4299 472.094 98.201C465.365 113.972 439.921 160.023 439.921 189.252C439.921 205.023 467.258 207.547 467.258 205.234C467.468 203.131 470.833 178.528 479.875 157.71C481.136 154.766 482.608 151.612 483.87 148.668C486.604 158.972 502.375 183.785 514.991 196.192C521.51 202.71 531.183 205.444 538.753 205.444C550.108 205.444 558.519 199.136 558.519 194.509C558.519 189.883 545.272 188.411 534.127 177.266ZM262.655 239.72C243.94 280.724 226.066 285.561 218.286 285.561C195.786 285.561 215.973 246.238 268.753 225C266.44 230.678 264.547 235.724 262.655 239.72ZM361.276 150.351C363.169 143.832 365.272 137.944 366.744 133.528C364.641 139.416 362.748 145.094 361.276 150.351Z" fill="currentColor" fill-rule="evenodd"></path><path d="M371.79 243.715C370.739 243.715 369.898 244.346 369.898 245.608V250.444C369.898 251.495 370.528 252.337 371.79 252.337H375.365C375.365 255.281 375.155 258.014 370.528 258.014C365.902 258.014 365.692 255.281 365.692 250.654V242.033C365.692 237.407 365.902 234.673 370.528 234.673C373.893 234.673 374.944 236.355 375.155 239.299C375.365 240.561 375.996 241.192 377.047 240.771L383.776 239.299C384.828 239.089 385.458 238.458 385.248 237.407C385.038 232.781 382.935 224.369 370.318 224.369C356.019 224.369 355.178 235.094 355.178 238.879V253.809C355.178 257.804 356.019 268.318 370.318 268.318C384.617 268.318 385.458 257.594 385.458 253.809V245.608C385.458 244.346 384.828 243.715 383.566 243.715H371.79Z" fill="currentColor" fill-rule="evenodd"></path><path d="M532.865 237.197C532.655 235.725 534.127 234.463 536.44 234.463C539.174 234.463 541.277 235.935 541.697 238.458C541.907 239.72 542.538 240.14 543.59 239.93L550.529 238.458C551.58 238.248 552.211 237.617 552.001 236.566C551.58 232.15 548.847 224.159 536.44 224.159C522.982 224.159 521.931 234.883 521.931 236.566C521.931 250.444 540.015 249.182 541.276 254.439C541.697 256.122 539.384 257.804 536.44 257.804C533.706 257.804 531.393 256.122 531.183 253.178C530.973 251.916 530.342 251.285 529.291 251.706L522.562 253.178C521.51 253.388 520.879 254.019 521.09 255.07C521.3 259.697 524.034 268.108 536.65 268.108C550.949 268.108 552.842 257.383 552.842 255.701C552.632 241.612 533.706 241.823 532.865 237.197Z" fill="currentColor" fill-rule="evenodd"></path><path d="M432.141 225C431.09 225 430.248 225.631 430.248 226.893V250.444C430.248 255.07 430.038 257.804 425.412 257.804C420.996 257.804 420.576 255.07 420.576 250.444V226.893C420.576 225.631 419.945 225 418.683 225H411.954C410.903 225 410.062 225.631 410.062 226.893V253.598C410.062 257.594 410.903 268.108 425.202 268.108C439.501 268.108 440.342 257.383 440.342 253.598V226.893C440.342 225.631 439.711 225 438.449 225H432.141Z" fill="currentColor" fill-rule="evenodd"></path><path d="M488.496 225C487.445 225 486.814 225.421 486.393 226.472L481.977 237.617C481.767 238.248 481.347 238.248 481.136 237.617L476.72 226.472C476.3 225.421 475.669 225 474.618 225H465.996C464.524 225 464.104 225.841 464.524 227.103L475.249 251.075C475.459 251.285 475.459 251.495 475.459 251.706V265.164C475.459 266.215 476.09 267.056 477.351 267.056H485.763C487.024 267.056 487.655 266.425 487.655 265.164V251.706C487.655 251.495 487.655 251.285 487.865 251.075L498.379 227.103C499.01 225.841 498.379 225 496.907 225H488.496Z" fill="currentColor" fill-rule="evenodd"></path></svg>