<svg class="MylkIcon__Wrapper-gq58f5-0 eABKBZ" version="1.1" viewbox="0 0 32 32" xmlns="http://www.w3.org/2000/svg"><title>notify</title><path d="M32 16c0 8.837-7.163 16-16 16s-16-7.163-16-16c0-8.837 7.163-16 16-16s16 7.163 16 16zM16 30c7.732 0 14-6.268 14-14s-6.268-14-14-14c-7.732 0-14 6.268-14 14s6.268 14 14 14z"></path><path d="M17.753 10.189l1.082 0.561c1.403 0.727 2.339 2.082 2.339 3.631v5.287l1.417 0.449c0.168 0.053 0.283 0.197 0.283 0.36 0 0.21-0.19 0.381-0.425 0.381h-11.9c-0.235 0-0.425-0.171-0.425-0.381 0-0.163 0.115-0.307 0.283-0.36l1.417-0.449v-5.287c0-1.549 0.936-2.904 2.339-3.631l1.082-0.561-0.021-1.12-0-0.021c0-0.631 0.571-1.143 1.275-1.143s1.275 0.512 1.275 1.143l-0 0.021-0.021 1.12zM23.3 18.32v-3.939c0-2.256-1.368-4.226-3.401-5.28 0-0.018 0-0.035 0-0.053 0-1.683-1.522-3.048-3.4-3.048s-3.4 1.364-3.4 3.048c0 0.018 0 0.036 0.001 0.053-2.033 1.054-3.401 3.024-3.401 5.28v3.939c-0.99 0.314-1.7 1.16-1.7 2.156 0 1.262 1.142 2.286 2.55 2.286h11.9c1.408 0 2.55-1.023 2.55-2.286 0-0.995-0.71-1.842-1.7-2.156zM19.599 24.667c0.057 0.117 0.088 0.245 0.088 0.381 0 0.526-0.476 0.952-1.063 0.952h-4.25c-0.587 0-1.063-0.426-1.063-0.952 0-0.135 0.031-0.264 0.088-0.381 0.164-0.336 0.538-0.572 0.974-0.572h4.25c0.436 0 0.81 0.235 0.974 0.572z"></path></svg>