<svg class="fade-up-slide-4" height="38px" version="1.1" viewbox="0 0 81 38" width="81px" xmlns="http://www.w3.org/2000/svg" xmlns:xlink="http://www.w3.org/1999/xlink">
<g transform="translate(-265.000000, -47.000000)">
<path d="M302.516645,58.0387997 L296.987636,52.4895846 C289.694942,45.1701385 277.763081,45.1701385 270.469382,52.4895846 C263.176688,59.8090308 263.176688,71.7855076 270.470488,79.1060646 C277.763081,86.4253088 289.694942,86.4253088 296.987636,79.1060646 L302.516645,73.5566476 L297.684899,68.7074464 L292.155891,74.2566614 C287.529803,78.8994535 279.927114,78.8986456 275.301026,74.2555506 C270.674939,69.6123546 270.675945,61.9818809 275.302133,57.3389878 C279.928321,52.6970036 287.529803,52.6970036 292.155891,57.3389878 L297.684899,62.8882029 L300.584027,65.7977236 L305.415571,70.6470259 L308.314699,73.5566476 L313.843506,79.1060646 C321.136602,86.4253088 333.068061,86.4253088 340.362263,79.1048528 C347.654755,71.7855076 347.654755,59.8090308 340.361056,52.4895846 C333.068061,45.1701385 321.136602,45.1701385 313.843506,52.4895846 L308.314699,58.0387997 L313.146444,62.8882029 L318.675352,57.3389878 C323.30154,52.6970036 330.903122,52.6970036 335.529311,57.3389878 C340.155298,61.9818809 340.156405,69.6123546 335.530518,74.2555506 C330.904229,78.8986456 323.30154,78.8994535 318.675352,74.2566614 L313.146444,68.7074464 L310.247316,65.7977236 L305.415571,60.9483204 L302.516645,58.0387997 Z" id="Fill-6-Copy-4"></path>
</g>
</svg>