<svg class="logo logo-dark" version="1.1" viewbox="0 0 731 144" xmlns="http://www.w3.org/2000/svg" xmlns:xlink="http://www.w3.org/1999/xlink">
<g>
<path d="M13.315,142.8 L13.315,66.77 L0,66.77 L0,47.086 L13.315,47.086 L13.315,40.911 C13.315,28.303 16.337,18.333 22.385,11 C28.431,3.668 36.665,0 47.085,0 C55.316,0 63.615,1.996 71.98,5.984 L66.769,25.473 C64.839,24.444 62.553,23.577 59.919,22.869 C57.28,22.162 54.868,21.806 52.682,21.806 C43.675,21.806 39.174,27.855 39.174,39.946 L39.174,47.086 L63.874,47.086 L63.874,66.77 L39.174,66.77 L39.174,142.8 L13.315,142.8 Z"></path>
<path d="M140,142.87 L165.858,142.87 L165.858,41.753 L140,41.753 L140,142.87 Z M140,27.665 L165.858,27.665 L165.858,2 L140,2 L140,27.665 Z"></path>
<path d="M456.505,81.805 C455.859,74.217 453.063,68.137 448.11,63.569 C443.157,59.005 437.142,56.719 430.068,56.719 C426.595,56.719 423.344,57.331 420.322,58.553 C417.298,59.776 414.63,61.479 412.315,63.665 C409.998,65.855 408.099,68.49 406.621,71.578 C405.142,74.665 404.273,78.076 404.017,81.805 L456.505,81.805 Z M430.261,142.784 C422.156,142.784 414.823,141.4 408.262,138.636 C401.701,135.87 396.106,132.108 391.473,127.346 C386.842,122.588 383.272,117.055 380.764,110.751 C378.255,104.449 377,97.821 377,90.875 C377,83.671 378.222,76.885 380.667,70.515 C383.109,64.148 386.649,58.553 391.281,53.728 C395.912,48.904 401.538,45.076 408.166,42.246 C414.79,39.417 422.22,38 430.454,38 C438.686,38 446.052,39.417 452.55,42.246 C459.043,45.076 464.576,48.874 469.145,53.63 C473.71,58.392 477.184,63.925 479.566,70.227 C481.943,76.531 483.135,83.092 483.135,89.91 C483.135,91.584 483.103,93.189 483.039,94.735 C482.973,96.278 482.813,97.565 482.557,98.595 L404.402,98.595 C404.789,102.582 405.754,106.119 407.297,109.208 C408.841,112.295 410.834,114.932 413.279,117.119 C415.722,119.308 418.489,120.978 421.577,122.136 C424.665,123.294 427.879,123.873 431.226,123.873 C436.369,123.873 441.228,122.618 445.796,120.109 C450.359,117.601 453.481,114.29 455.154,110.173 L477.346,116.347 C473.612,124.065 467.664,130.404 459.496,135.355 C451.324,140.309 441.58,142.784 430.261,142.784 L430.261,142.784 Z"></path>
<path d="M598.207,64.735 C590.358,64.865 583.348,66.374 577.175,69.269 C570.999,72.163 566.561,76.506 563.858,82.295 L563.858,143.467 L538,143.467 L538,42.351 L561.736,42.351 L561.736,63.962 C563.536,60.489 565.658,57.372 568.104,54.604 C570.547,51.839 573.185,49.427 576.016,47.367 C578.844,45.311 581.709,43.734 584.603,42.639 C587.498,41.548 590.296,41 592.997,41 L596.182,41 C596.886,41 597.562,41.066 598.207,41.192 L598.207,64.735 Z"></path>
<path d="M689.734,142.976 C681.243,142.976 672.945,141.625 664.84,138.924 C656.735,136.222 649.789,132.363 644,127.346 L653.648,111.136 C659.824,115.511 665.836,118.825 671.69,121.075 C677.544,123.327 683.365,124.452 689.154,124.452 C694.298,124.452 698.35,123.487 701.313,121.557 C704.269,119.627 705.751,116.863 705.751,113.259 C705.751,109.659 704.013,107.02 700.54,105.346 C697.067,103.677 691.404,101.747 683.559,99.557 C676.997,97.757 671.402,96.02 666.77,94.347 C662.138,92.677 658.407,90.778 655.578,88.656 C652.746,86.532 650.688,84.089 649.402,81.321 C648.115,78.557 647.472,75.244 647.472,71.384 C647.472,66.24 648.467,61.609 650.463,57.49 C652.458,53.374 655.255,49.867 658.859,46.973 C662.459,44.078 666.673,41.86 671.498,40.314 C676.323,38.771 681.563,38 687.224,38 C694.815,38 701.922,39.093 708.549,41.279 C715.173,43.469 721.251,47.006 726.784,51.893 L716.364,67.525 C711.217,63.665 706.233,60.837 701.409,59.033 C696.585,57.233 691.791,56.333 687.032,56.333 C682.656,56.333 678.991,57.233 676.032,59.033 C673.072,60.837 671.594,63.731 671.594,67.717 C671.594,69.52 671.947,70.998 672.655,72.155 C673.362,73.314 674.489,74.345 676.032,75.244 C677.576,76.144 679.603,77.013 682.112,77.848 C684.62,78.686 687.737,79.556 691.47,80.455 C698.419,82.256 704.366,84.058 709.32,85.857 C714.27,87.661 718.324,89.716 721.477,92.033 C724.628,94.347 726.944,97.019 728.424,100.039 C729.902,103.065 730.643,106.698 730.643,110.944 C730.643,120.85 726.977,128.667 719.645,134.388 C712.31,140.116 702.339,142.976 689.734,142.976"></path>
<g transform="translate(220.000000, 28.000000)">
<path d="M0.5996,90.9717 C1.9586,89.6257 3.3246,88.2867 4.6776,86.9347 C10.2566,81.3617 15.8316,75.7837 21.4056,70.2057 C21.6266,69.9847 21.8236,69.7387 21.9566,69.5867 C24.7146,72.3467 27.4086,75.0427 30.0476,77.6837 C23.0026,84.7287 15.8376,91.8937 8.6006,99.1297 C8.4806,99.0147 8.2596,98.8107 8.0466,98.5977 C5.8036,96.3567 3.5626,94.1117 1.3146,91.8737 C1.1016,91.6617 0.8386,91.4997 0.5996,91.3147 L0.5996,90.9717 Z"></path>
<path d="M57.2612,64.7627 C59.8552,67.3587 62.5192,70.0237 65.2352,72.7407 C65.0662,72.9187 64.8632,73.1457 64.6482,73.3617 C51.2672,86.7427 37.8862,100.1247 24.5042,113.5057 C23.7292,114.2817 23.7302,114.2797 22.9272,113.4797 C20.4972,111.0627 18.0662,108.6457 15.7162,106.3087 C29.6102,92.4137 43.4452,78.5787 57.2612,64.7627"></path>
<path d="M57.8506,49.522 C55.2256,46.892 52.5496,44.211 49.9366,41.594 C63.5546,27.977 77.2686,14.262 90.9106,0.621 C93.5006,3.214 96.1946,5.91 98.8266,8.545 C85.2166,22.156 71.5026,35.869 57.8506,49.522"></path>
<path d="M64.728,57.9414 C67.406,55.2634 70.071,52.5984 72.659,50.0114 C86.349,63.7014 100.077,77.4294 113.752,91.1044 C111.179,93.6754 108.479,96.3734 105.819,99.0314 C92.166,85.3784 78.451,71.6634 64.728,57.9414"></path>
<path d="M49.9761,56.3721 C47.3881,58.9601 44.7081,61.6391 42.0851,64.2611 C28.4251,50.6011 14.7151,36.8901 1.0691,23.2451 C3.6781,20.6411 6.3601,17.9651 8.9671,15.3631 L49.9761,56.3721 Z"></path>
<path d="M106.5967,16.2026 C109.1627,18.7716 111.8247,21.4356 114.4057,24.0186 C106.4077,32.0166 98.3357,40.0886 90.3167,48.1076 C87.7597,45.5526 85.0967,42.8916 82.5007,40.2976 C90.4977,32.3016 98.5707,24.2276 106.5967,16.2026"></path>
<path d="M67.9136,90.2969 C70.4376,87.7739 73.0956,85.1159 75.6936,82.5189 C83.4546,90.2789 91.2586,98.0829 99.0406,105.8649 C96.4656,108.4389 93.8226,111.0809 91.2596,113.6439 C83.4776,105.8609 75.6726,98.0559 67.9136,90.2969"></path>
<path d="M15.9277,8.4321 C18.4977,5.8631 21.1797,3.1821 23.7667,0.5971 C31.2627,8.0931 38.8117,15.6411 46.3227,23.1531 C43.7237,25.7511 41.0597,28.4151 38.4817,30.9931 C30.9837,23.4931 23.4397,15.9461 15.9277,8.4321"></path>
</g>
</g>
</svg>