<svg class="logo-mark x2 logo-white mb-3" version="1.1" viewbox="0 0 81 81" xmlns="http://www.w3.org/2000/svg" xmlns:xlink="http://www.w3.org/1999/xlink">
<path d="M11.19,75.498 C20.885,65.804 30.685,56.004 40.422,46.266 C42.232,48.077 44.119,49.963 45.922,51.766 C36.18,61.508 26.382,71.307 16.688,81 C14.926,79.237 13.024,77.335 11.19,75.498" id="Shape"></path>
<path d="M64.343,0.59 C66.227,2.474 68.113,4.36 69.939,6.185 C60.292,15.833 50.568,25.556 40.93,35.195 C39.103,33.364 37.194,31.453 35.339,29.594 C44.932,20.001 54.654,10.279 64.343,0.59" id="Shape"></path>
<path d="M35.193,40.295 C33.423,42.069 31.562,43.933 29.82,45.678 C20.116,35.974 10.379,26.236 0.723,16.578 C2.424,14.879 4.312,12.994 6.102,11.205 C15.696,20.798 25.436,30.537 35.193,40.295" id="Shape"></path>
<path d="M45.952,41.204 C47.73,39.429 49.593,37.57 51.645,35.521 C61.277,45.234 70.968,55.003 80.561,64.676 C78.649,66.579 76.768,68.453 74.98,70.233 C65.436,60.687 55.705,50.957 45.952,41.204" id="Shape"></path>
<path d="M58.494,28.724 C64.097,23.121 69.794,17.423 75.386,11.831 C77.175,13.61 79.055,15.479 80.823,17.237 C75.269,22.791 69.554,28.507 63.929,34.132 C62.201,32.413 60.319,30.54 58.494,28.724" id="Shape"></path>
<path d="M64.472,80.71 C59.1,75.335 53.604,69.836 48.188,64.418 C49.964,62.649 51.846,60.774 53.675,58.952 C59.054,64.332 64.555,69.833 69.961,75.242 C68.18,77.016 66.324,78.866 64.472,80.71" id="Shape"></path>
<path d="M32.476,16.611 C30.742,18.342 28.854,20.227 27.063,22.016 C21.819,16.771 16.473,11.424 11.211,6.163 C12.964,4.41 14.846,2.527 16.621,0.75 C21.842,5.973 27.19,11.323 32.476,16.611" id="Shape"></path>
<path d="M0.382,64.845 C5.393,59.835 10.468,54.762 15.489,49.742 C17.325,51.58 19.239,53.494 21.063,55.319 C16.039,60.342 10.964,65.416 5.965,70.415 C4.151,68.605 2.265,66.724 0.382,64.845" id="Shape"></path>
</svg>