<svg class="mc-space" viewbox="0 0 537.21 721.5" xmlns="http://www.w3.org/2000/svg" xmlns:xlink="http://www.w3.org/1999/xlink">
<defs>
<style>.mc-space g:not(.mcv-splash) { opacity : 0; }</style>
<lineargradient id="mcv-gradient">
<stop offset="0%" stop-color="#666"></stop>
<stop class="mcv-origin-color" offset="33.3%" stop-color="currentColor"></stop>
<stop class="mcv-destination-color" offset="100%" stop-color="currentColor"></stop>
</lineargradient>
<lineargradient gradientunits="userSpaceOnUse" id="mcv-gradient-2" x1="85" x2="85" y1="50" y2="551.5">
<stop offset="0" stop-color="#666666"></stop>
<stop offset="1" stop-color="#1e1e1e"></stop>
</lineargradient>
<lineargradient gradienttransform="rotate(90)" id="mcv-gradient-3">
<stop offset="0" stop-color="#eaeaea"></stop>
<stop offset="60%" stop-color="transparent"></stop>
</lineargradient>
<lineargradient gradienttransform="rotate(160)" id="mcv-gradient-wisp" y1="138%">
<stop offset="89%" stop-color="transparent">
<animate attributename="offset" dur="5s" repeatcount="indefinite" to="0%"></animate>
</stop>
<stop offset="90%" stop-color="white" stop-opacity="0.35">
<animate attributename="offset" dur="5s" repeatcount="indefinite" to="0%"></animate>
</stop>
<stop offset="100%" stop-color="transparent">
<animate attributename="offset" dur="5s" repeatcount="indefinite" to="8%"></animate>
</stop>
</lineargradient>
<!-- <filter id="mcv-pattern" x="0" y="0" width="40" height="40"> -->
<!-- <feImage href="/site/wp-content/plugins/momentus-calculator/img/pattern.png" result="image-res" /> -->
<!-- <feTurbulence type="fractalNoise" baseFrequency="0.7" numOctaves="10" stitchTiles="stitch" result="image-res"/> -->
<!-- <feComposite operator="in" in2="SourceGraphic" in="image-res"/> -->
<!-- </filter> -->
<!-- <pattern id="mcv-pattern" x="0" y="0" patternUnits="userSpaceOnUse" height="20" width="20">
        <image x="0" y="0" href="/site/wp-content/plugins/momentus-calculator/img/pattern.png"></image>
      </pattern> -->
</defs>
<g class="mcv-lunar" id="mcv-moon">
<circle cx="319" cy="-100" fill="#eaeaea" id="mcv-moon-shape" r="18.5"></circle>
<text class="mcv-text" fill="#fff" transform="translate(358.25 45)">Moon</text>
</g>
<g class="mcv-splash" id="mcv-earth">
<circle class="mcv-splash" cx="91" cy="398.5" fill="url(#mcv-gradient-2)" id="mcv-earth-shape" r="133"></circle>
<g class="mcv-rides">
<rect fill="#666" height="8" id="mcv-earth-square" width="8" x="86" y="306.5"></rect>
<text class="mcv-text" fill="#fff" id="mcv-earth-text" transform="translate(69.16 341)">Earth</text>
</g>
</g>
<g class="mcv-launcher" id="mcv-launch-text">
<text class="mcv-text mcv-text--faded" fill="#666" transform="translate(288.25 310)">Launched By</text>
<text class="mcv-text" fill="#666" id="mcv-launch-name" transform="translate(288.25 326)"></text>
</g>
<g class="mcv-rides">
<path class="mcv-trajectory" d="M90,309.5a215.82,215.82,0,0,1,16-75C146.33,136.92,247.45,103,268,96.5" fill="none" id="mcv-trajectory" stroke="url(#mcv-gradient)" stroke-miterlimit="10" stroke-width="2"></path>
<path class="mcv-wisp" d="M90,309.5a215.82,215.82,0,0,1,16-75C146.33,136.92,247.45,103,268,96.5" fill="none" id="mcv-wisp" stroke="url(#mcv-gradient-wisp)" stroke-miterlimit="10" stroke-width="2"></path>
<path class="mcv-trajectory" d="M121,614.5a639.66,639.66,0,0,1,28-216C189,269.74,260.61,184.08,303,140.5" fill="none" id="mcv-trajectory-long" stroke="url(#mcv-gradient)" stroke-miterlimit="10" stroke-width="2"></path>
<path class="mcv-wisp" d="M121,614.5a639.66,639.66,0,0,1,28-216C189,269.74,260.61,184.08,303,140.5" fill="none" id="mcv-wisp-long" stroke="url(#mcv-gradient-wisp)" stroke-miterlimit="10" stroke-width="2"></path>
</g>
<g class="mcv-ride" id="mcv-ride">
<path d="M10.51,6.28,1.92,4A1.38,1.38,0,0,1,1,2.3L1.3,1A1.37,1.37,0,0,1,3,.05l8.59,2.3a1.38,1.38,0,0,1,1,1.68l-.35,1.28a1.38,1.38,0,0,1-1.68,1Zm1,1.47L.3,4.73,0,5.86l11.24,3,.3-1.13ZM3.18,16.48s2.52-2.61,3-4.45a2.18,2.18,0,0,0-1-2.27,2.25,2.25,0,0,1,.11,1.09,1.75,1.75,0,0,1-.9,1.09,1.79,1.79,0,0,1-.23-1.39,2.25,2.25,0,0,1,.64-.89,2.17,2.17,0,0,0-2,1.46c-.49,1.84.39,5.36.39,5.36ZM6.63,9.17l-1-1.78-1.78,1Z" fill="#ffffff" id="mcv-ride-icon" style="translate(26.9%, 21.9%) scale(1.2) rotate(20.8deg)"></path>
<text class="mcv-title" fill="#666" id="mcv-ride-text" transform="translate(288.25 190)"></text>
</g>
<g class="mcv-orbits" id="mcv-origin">
<line class="mcv-origin-color" fill="none" stroke="currentColor" stroke-miterlimit="10" stroke-width="2" x1="105" x2="354" y1="236.75" y2="236.75"></line>
<rect class="mcv-box mcv-origin-color" fill="currentColor" height="30" width="148.25" x="288.25" y="221.75"></rect>
<text class="mcv-text mcv-origin-color" fill="#fff" transform="translate(302.17 240.14)">
<tspan></tspan>
<tspan></tspan>
</text>
<rect class="mcv-origin-color" fill="currentColor" height="6.82" transform="translate(-152.68 253.95) rotate(-70)" width="6.82" x="101.59" y="232.59"></rect>
</g>
<g class="mcv-orbits" id="mcv-destination">
<line class="mcv-destination-color" fill="none" stroke="currentColor" stroke-miterlimit="10" stroke-width="2" x1="269" x2="394" y1="96.75" y2="96.75"></line>
<rect class="mcv-box mcv-destination-color" fill="currentColor" height="30" width="105" x="288.25" y="81.5"></rect>
<text class="mcv-text mcv-destination-color" transform="translate(302.82 100.76)">
<tspan></tspan>
<tspan></tspan>
</text>
<rect class="mcv-destination-color" fill="currentColor" height="6.86" transform="translate(-13.14 50.69) rotate(-10.51)" width="6.86" x="265.45" y="93.32"></rect>
</g>
</svg>