<svg height="26" viewbox="0 0 22 22" width="22" xmlns="http://www.w3.org/2000/svg">
<g fill="none" fill-rule="evenodd" stroke="#44BC75" stroke-linecap="round" stroke-linejoin="round" stroke-width="1.4">
<path d="M16.054 3.807C16.112 2.79 15.27 1.08 13.183 1a.59.59 0 0 0-.073.003c-4.053.35-3.358 5.636.073 5.611 4.499-.032 7.179 0 7.179 0M6.722 8.018C6.779 7 5.938 5.29 3.851 5.21a.59.59 0 0 0-.074.002c-4.053.35-3.358 5.637.074 5.612 4.499-.033 16.51 0 16.51 0M10.311 17.842c.058 1.017-.784 2.728-2.871 2.807a.577.577 0 0 1-.073-.002c-4.053-.35-3.358-5.637.073-5.612 4.499.033 12.922 0 12.922 0"></path>
</g>
</svg>