<svg class="hidden-sm hidden-md hidden-lg" height="26" viewbox="0 0 24 24" width="24" xmlns="http://www.w3.org/2000/svg">
<path d="M23.996 8.15c0-.007.004-.013.004-.02a.556.556 0 0 0-.07-.26c-.004-.008-.002-.018-.006-.025L19.504.257c-.007-.013-.022-.018-.03-.03a.513.513 0 0 0-.12-.122c-.02-.015-.038-.031-.06-.043-.01-.006-.017-.015-.027-.02a.483.483 0 0 0-.2-.042H4.93l-.012.003a.48.48 0 0 0-.183.038c-.011.006-.019.015-.029.02-.022.013-.039.029-.059.044a.499.499 0 0 0-.121.123c-.008.012-.022.017-.029.029L.076 7.845c-.005.008-.002.018-.006.026A.556.556 0 0 0 0 8.13c0 .007.004.013.004.02 0 .014.006.027.008.042.01.09.041.17.087.241.007.011.005.024.012.034l11.49 15.33c.01.013.027.019.037.03.019.02.032.043.053.06.008.006.017.007.025.013.007.006.015.008.022.012a.493.493 0 0 0 .08.045c.016.006.027.018.042.022.046.016.093.021.139.021H12a.472.472 0 0 0 .139-.02c.015-.005.026-.017.041-.023a.493.493 0 0 0 .08-.045c.008-.004.016-.007.023-.012.008-.005.018-.007.026-.014.02-.017.034-.039.053-.058.011-.012.027-.019.036-.032l11.49-15.328c.007-.01.005-.023.011-.032a.553.553 0 0 0 .089-.244c.002-.015.007-.026.008-.042zM4.84 1.724l2.298 5.864H1.425L4.84 1.724zm10.582 6.948L12 21.477 8.577 8.672h6.845zm-6.64-1.084L12 1.63l3.216 5.957H8.783zm4.099-6.504h5.425l-2.282 5.823-3.143-5.823zM7.975 6.908L5.693 1.085h5.425L7.975 6.908zm-.458 1.764l3.298 12.337L1.567 8.672h5.95zm8.965 0h5.95L13.185 21.01l3.298-12.338zm.38-1.084l2.298-5.864 3.415 5.864h-5.713z" fill-rule="evenodd"></path>
</svg>