<svg height="26" viewbox="0 0 26 24" width="26" xmlns="http://www.w3.org/2000/svg">
<path d="M17.831 0A6.176 6.176 0 0 1 24 6.17v11.66A6.176 6.176 0 0 1 17.831 24H6.169A6.176 6.176 0 0 1 0 17.83V6.17A6.176 6.176 0 0 1 6.17 0H17.83zM23 17.83V6.17C23 3.318 20.682 1 17.831 1H6.169A5.175 5.175 0 0 0 1 6.17v11.66C1 20.681 3.319 23 6.17 23H17.83C20.681 23 23 20.681 23 17.83zM13.625 5.99a.5.5 0 0 0-.614.352l-3 11a.5.5 0 0 0 .965.263l3-11a.5.5 0 0 0-.351-.614zm4.368 4.803v-2.32c0-.827-.673-1.5-1.5-1.5a.5.5 0 1 0 0 1 .5.5 0 0 1 .5.5V11a.5.5 0 0 0 .147.354l.646.646-.646.647a.5.5 0 0 0-.147.353v2.473c0 .275-.224.5-.5.5a.5.5 0 1 0 0 1c.827 0 1.5-.673 1.5-1.5v-2.266l.854-.854a.5.5 0 0 0 0-.707l-.854-.853zm-11 .207V8.473a.5.5 0 0 1 .5-.5.5.5 0 1 0 0-1c-.827 0-1.5.673-1.5 1.5v2.32l-.853.854a.5.5 0 0 0 0 .707l.853.854v2.265c0 .827.673 1.5 1.5 1.5a.5.5 0 1 0 0-1 .5.5 0 0 1-.5-.5V13a.5.5 0 0 0-.146-.353L6.2 12l.647-.646A.5.5 0 0 0 6.993 11z" fill-rule="evenodd"></path>
</svg>