<svg height="26" viewbox="0 0 22 24" width="22" xmlns="http://www.w3.org/2000/svg">
<path d="M11.108 19.357c-.023 0-.044.006-.066.007l-1.22-4.792a3.03 3.03 0 0 0 1.094-.844l.488.281a.508.508 0 0 0 .506-.881l-.488-.28c.118-.323.193-.667.193-1.03 0-.677-.231-1.294-.607-1.799l5.387-5.708a2.3 2.3 0 0 0 1.225.359c1.28 0 2.32-1.04 2.32-2.321 0-1.28-1.04-2.32-2.32-2.32-1.28 0-2.32 1.04-2.32 2.32 0 .46.138.89.37 1.25l-5.39 5.713a3 3 0 0 0-1.684-.515 2.99 2.99 0 0 0-.956.17l-.272-.497a.509.509 0 0 0-.891.487l.269.493a3.004 3.004 0 0 0-1.169 2.367c0 .36.074.7.19 1.02l-1.39.842c-.012.007-.019.02-.03.027-.012.007-.027.007-.039.015l-1.35.819a1.738 1.738 0 0 0-1.208-.488c-.964 0-1.75.784-1.75 1.75 0 .965.785 1.75 1.75 1.75.966 0 1.75-.785 1.75-1.75 0-.13-.016-.255-.043-.377l1.378-.834c.014-.008.022-.023.035-.033.01-.005.023-.003.034-.009l1.369-.827a3.001 3.001 0 0 0 2.324 1.117c.082 0 .16-.018.24-.024l1.224 4.806a2.315 2.315 0 0 0-1.272 2.058C8.79 22.96 9.83 24 11.11 24c1.28 0 2.321-1.04 2.321-2.32a2.326 2.326 0 0 0-2.322-2.323zm0 3.626c-.72 0-1.306-.586-1.306-1.306 0-.72.586-1.305 1.306-1.305.718 0 1.305.586 1.305 1.305 0 .72-.586 1.306-1.305 1.306zm8.425-6.672c-.473 0-.901.191-1.216.497l-.496-.286a.508.508 0 1 0-.506.881l.509.293a1.747 1.747 0 0 0 1.71 2.117 1.752 1.752 0 0 0 0-3.502zm0 2.484a.735.735 0 1 1 .001-1.47.735.735 0 0 1 0 1.47zM1.75 16.535a.735.735 0 1 1 .001-1.47.735.735 0 0 1 0 1.47zm14.1-1.144l-1.969-1.131a.507.507 0 1 0-.505.88l1.969 1.132a.508.508 0 0 0 .506-.881zm-9.257-3.574c0-1.104.899-2.004 2.004-2.004 1.106 0 2.004.9 2.004 2.004 0 1.106-.9 2.005-2.004 2.005s-2.004-.9-2.004-2.005zM4.672 5.653l.902 1.652a.509.509 0 0 0 .891-.486l-.902-1.652a.509.509 0 0 0-.891.486zM3.195 3.5c.097 0 .192-.013.284-.028l.29.53a.507.507 0 1 0 .89-.487l-.27-.494c.34-.32.555-.77.555-1.27C4.944.785 4.159 0 3.194 0a1.75 1.75 0 0 0 .001 3.5zM17.62 1.044c.72 0 1.305.585 1.305 1.305s-.585 1.306-1.305 1.306c-.344 0-.652-.14-.885-.358-.014-.015-.02-.034-.035-.049-.01-.009-.022-.012-.032-.02a1.29 1.29 0 0 1-.354-.878c0-.72.586-1.306 1.306-1.306zM3.195 1.016c.405 0 .735.33.735.735 0 .3-.182.555-.439.67l-.007.001-.006.006A.736.736 0 0 1 2.46 1.75c0-.405.33-.734.735-.734z" fill-rule="evenodd"></path>
</svg>