<svg height="26" viewbox="0 0 24 24" width="24" xmlns="http://www.w3.org/2000/svg">
<path d="M16.874 23.975H3.2c-1.765 0-3.2-1.477-3.2-3.292V7.008a3.211 3.211 0 0 1 3.2-3.216h7.9a.505.505 0 0 1 0 1.01H3.2c-1.208 0-2.19.99-2.19 2.206v13.675c0 1.237 1.002 2.283 2.19 2.283h13.675c1.224 0 2.298-1.067 2.298-2.283v-7.808a.505.505 0 0 1 1.008 0v7.808c0 1.784-1.515 3.292-3.307 3.292zm-9.368-6.049a.505.505 0 0 1 0 1.01H3.594a.505.505 0 0 1 0-1.01h3.912zm5.078-2.018a.504.504 0 1 1 0 1.01h-8.99a.505.505 0 0 1 0-1.01h8.99zm-5.078-5.045a.505.505 0 0 1 0 1.009H3.594a.505.505 0 0 1 0-1.01h3.912zM18.586 0a5.42 5.42 0 0 0-5.413 5.414 5.42 5.42 0 0 0 5.413 5.413A5.42 5.42 0 0 0 24 5.414 5.42 5.42 0 0 0 18.586 0zm-6.002 8.845a.504.504 0 1 1 0 1.009h-8.99a.505.505 0 0 1 0-1.01h8.99zm6.002.973a4.41 4.41 0 0 1-4.404-4.404 4.41 4.41 0 0 1 4.404-4.405 4.41 4.41 0 0 1 4.405 4.405 4.41 4.41 0 0 1-4.405 4.404z" fill-rule="evenodd"></path>
</svg>