<svg height="26" viewbox="0 0 25 22" width="25" xmlns="http://www.w3.org/2000/svg">
<path d="M22.707 0h-8.956c-.718 0-1.351.338-1.772.856A2.279 2.279 0 0 0 10.207 0H2.292A2.295 2.295 0 0 0 0 2.292V17.54a2.295 2.295 0 0 0 2.292 2.292h8.21c.527 0 .956.43.956.956a.52.52 0 1 0 1.042 0c0-.527.429-.956.956-.956h9.251A2.295 2.295 0 0 0 25 17.54V2.292A2.295 2.295 0 0 0 22.707 0zm-11.25 19.034a1.983 1.983 0 0 0-.955-.244h-8.21c-.69 0-1.25-.56-1.25-1.25V2.292c0-.69.56-1.25 1.25-1.25h7.915c.69 0 1.25.56 1.25 1.25v16.742zm12.501-1.494c0 .69-.561 1.25-1.25 1.25h-9.252c-.346 0-.672.089-.956.244V2.292c0-.69.561-1.25 1.25-1.25h8.957c.69 0 1.251.56 1.251 1.25V17.54zM20.5 7h-6a.5.5 0 1 0 0 1h6a.5.5 0 1 0 0-1zm0-2h-6a.5.5 0 1 0 0 1h6a.5.5 0 1 0 0-1zm-3-2h-3a.5.5 0 1 0 0 1h3a.5.5 0 1 0 0-1z" fill-rule="evenodd"></path>
</svg>