<svg height="26" viewbox="0 0 24 24" width="24" xmlns="http://www.w3.org/2000/svg">
<path d="M23.852 17.247l-4.855-4.856a.504.504 0 0 0-.712.712l4.5 4.5-5.181 5.182-1.128-1.128 2.89-2.89a.504.504 0 0 0-.712-.712l-2.89 2.89-1.127-1.127.959-.96a.504.504 0 0 0-.712-.711l-.959.96-.822-.822a.504.504 0 0 0-.712.712l4.856 4.856a.503.503 0 0 0 .713 0l5.893-5.894a.503.503 0 0 0-.001-.712zm-1.16-10.433a2.52 2.52 0 0 0 0-3.561L20.405.966C19.55.11 18.056.109 17.2.966L2.868 15.3a.502.502 0 0 0-.137.3c-.217.49-.793 1.924-2.568 6.441-.181.438-.066.953.292 1.313.245.246.555.375.867.375.145 0 .29-.027.43-.085 4.52-1.744 5.974-2.317 6.475-2.536a.493.493 0 0 0 .311-.14L22.692 6.815zM1.379 22.709c-.095.038-.178-.031-.21-.064-.058-.058-.102-.15-.071-.226l.71-1.803 1.39 1.39-1.82.703zm2.844-1.1L2.21 19.595c.478-1.21.93-2.348 1.208-3.033l2.284 2.283 1.57 1.57c-.69.274-1.833.72-3.05 1.192zm13.69-19.93c.476-.476 1.304-.476 1.78 0l2.288 2.287c.589.59.589 1.548 0 2.137L8.18 19.9l-1.412-1.413L18.097 7.16a.504.504 0 0 0-.712-.712L6.057 17.777l-2.121-2.12L17.913 1.678zm-13.06 9.778a.502.502 0 0 0 .712 0 .504.504 0 0 0 0-.712l-.703-.703.959-.96a.504.504 0 0 0-.712-.711l-.96.959-1.052-1.053 2.89-2.89a.504.504 0 0 0-.712-.712l-2.89 2.89-1.168-1.168 5.181-5.181 4.348 4.348a.504.504 0 0 0 .712-.712L6.754.148A.504.504 0 0 0 6.04.147L.148 6.041a.504.504 0 0 0-.001.713l4.705 4.703z" fill-rule="evenodd"></path>
</svg>