<svg height="26" viewbox="0 0 23 22" width="23" xmlns="http://www.w3.org/2000/svg">
<path d="M19.534 13.265a.5.5 0 0 0-.5.5v3.428l-7.017 3.51v-6.938a.5.5 0 1 0-1 0v6.928l-7-3.5v-3.428a.5.5 0 1 0-1 0v3.737a.5.5 0 0 0 .277.447l8 4.001c.07.035.147.053.223.053l.009-.002.009.002a.495.495 0 0 0 .223-.053l8-4a.501.501 0 0 0 .276-.448v-3.737a.5.5 0 0 0-.5-.5zm.651-6.445l2.703-2.703a.501.501 0 0 0-.165-.816L14.706.037a.5.5 0 0 0-.542.11l-2.647 2.647L8.871.146a.499.499 0 0 0-.542-.109L.312 3.301a.5.5 0 0 0-.165.816L2.85 6.82.117 10.464a.501.501 0 0 0 .177.747l8 4.001a.499.499 0 0 0 .623-.148l2.6-3.467 2.6 3.467c.146.195.41.253.624.148l8-4.001a.5.5 0 0 0 .177-.747L20.185 6.82zM8.368 14.13l-7.091-3.546 2.39-3.186 7.091 3.545-2.39 3.188zm6.3 0l-2.391-3.187 7.091-3.545 2.39 3.187-7.09 3.546zm-9.94-7.32l6.79-2.769 6.796 2.766-6.797 3.398-6.79-3.395zm9.909-5.722l7.012 2.855-2.234 2.232-7.011-2.853 2.233-2.234zm-6.239 0l2.233 2.234L3.62 6.175 1.386 3.943l7.012-2.855z" fill-rule="evenodd"></path>
</svg>