<svg height="30" viewbox="0 0 30 30" width="30" xmlns="http://www.w3.org/2000/svg"><g fill="none" fill-rule="evenodd"><circle cx="15" cy="15" fill="#3C3C3C" r="15"></circle><path d="M23.377 11.455c-.27-.093-.549-.18-.837-.263.048-.191.091-.38.13-.567.633-3.058.219-5.521-1.196-6.332-1.356-.778-3.574.033-5.815 1.971-.215.187-.431.384-.647.591-.144-.137-.288-.27-.43-.396-2.349-2.072-4.702-2.946-6.115-2.132-1.355.78-1.757 3.095-1.186 5.993.055.28.12.566.192.857-.333.094-.655.194-.962.3C3.758 12.432 2 13.927 2 15.478c0 1.602 1.887 3.21 4.754 4.184.227.076.461.15.703.218-.078.315-.147.623-.204.923-.544 2.848-.119 5.109 1.232 5.884 1.396.8 3.74-.023 6.02-2.005.18-.157.362-.323.543-.497.235.225.47.437.703.637 2.21 1.89 4.392 2.654 5.742 1.877 1.395-.803 1.848-3.232 1.26-6.187a14.572 14.572 0 0 0-.156-.69c.164-.05.326-.1.483-.151 2.98-.982 4.92-2.57 4.92-4.193 0-1.557-1.815-3.062-4.623-4.023zm-.646 7.168c-.142.047-.288.092-.437.136a25.816 25.816 0 0 0-1.317-3.275c.519-1.111.946-2.198 1.266-3.227.266.076.524.157.773.242 2.406.823 3.873 2.041 3.873 2.98 0 .999-1.585 2.296-4.158 3.144zm-1.068 2.104c.26 1.306.297 2.488.125 3.411-.155.83-.466 1.384-.851 1.605-.82.472-2.572-.141-4.462-1.758a15.885 15.885 0 0 1-.654-.593 25.968 25.968 0 0 0 2.18-2.751 26.064 26.064 0 0 0 3.521-.54c.053.213.1.422.14.626zm-10.799 4.935c-.8.28-1.438.289-1.824.068-.82-.47-1.16-2.286-.696-4.721.054-.279.117-.565.19-.858 1.065.234 2.244.402 3.504.504a26.914 26.914 0 0 0 2.232 2.742c-.166.159-.331.31-.495.453-1.01.877-2.02 1.499-2.911 1.812zm-3.75-7.045c-1.268-.431-2.315-.991-3.033-1.602-.645-.55-.97-1.094-.97-1.537 0-.941 1.411-2.142 3.765-2.958.286-.099.585-.192.895-.28a26.378 26.378 0 0 0 1.267 3.265 26.81 26.81 0 0 0-1.283 3.311 13.74 13.74 0 0 1-.641-.2zm1.257-8.509c-.489-2.483-.164-4.356.652-4.826.87-.5 2.793.213 4.82 2.003.13.115.26.234.39.358a26.484 26.484 0 0 0-2.214 2.725 27.291 27.291 0 0 0-3.47.536c-.067-.27-.127-.536-.178-.796zm11.215 2.754a35.083 35.083 0 0 0-.79-1.293c.829.104 1.624.242 2.37.412-.224.714-.503 1.46-.832 2.226a38.424 38.424 0 0 0-.748-1.345zm-4.574-4.43a23.638 23.638 0 0 1 1.53 1.837 32.895 32.895 0 0 0-3.073 0 24.395 24.395 0 0 1 1.543-1.837zM10.41 12.87c-.257.443-.502.89-.734 1.337a24.29 24.29 0 0 1-.827-2.237c.742-.165 1.533-.3 2.358-.402-.273.423-.54.858-.797 1.302zm.82 6.6a23.767 23.767 0 0 1-2.396-.384c.23-.737.513-1.503.843-2.282a32.603 32.603 0 0 0 1.553 2.665zm3.813 3.133a24.823 24.823 0 0 1-1.564-1.861c.498.019 1.005.029 1.521.029.53 0 1.054-.012 1.57-.035a23.518 23.518 0 0 1-1.527 1.867zm5.302-5.838c.347.787.64 1.55.873 2.274-.754.17-1.568.308-2.426.41.27-.425.537-.863.798-1.315.265-.456.517-.914.755-1.37zm-1.717.818c-.406.7-.823 1.37-1.247 2-.772.055-1.569.084-2.381.084-.81 0-1.596-.025-2.354-.074a30.982 30.982 0 0 1-2.38-4.087 31.007 31.007 0 0 1 2.367-4.08 31.422 31.422 0 0 1 4.74 0 36.133 36.133 0 0 1 2.374 4.063 33.206 33.206 0 0 1-1.119 2.094zM20.92 5.249c.87.5 1.209 2.513.662 5.153-.035.168-.074.34-.117.514a26.749 26.749 0 0 0-3.476-.546 25.969 25.969 0 0 0-2.198-2.727c.2-.191.399-.374.598-.546 1.92-1.66 3.713-2.316 4.53-1.848zM15 13.17a2.315 2.315 0 0 1 2.322 2.31A2.315 2.315 0 0 1 15 17.786a2.315 2.315 0 0 1-2.322-2.309A2.315 2.315 0 0 1 15 13.17z" fill="#00D8FF" fill-rule="nonzero"></path></g></svg>