<svg height="25px" version="1.1" viewbox="0 0 23 25" width="23px" xmlns="http://www.w3.org/2000/svg" xmlns:xlink="http://www.w3.org/1999/xlink">
<!-- Generator: Sketch 53.2 (72643) - https://sketchapp.com -->
<title>Group 13</title>
<desc>Created with Sketch.</desc>
<g fill="none" fill-rule="evenodd" id="Page-1" stroke="none" stroke-width="1">
<g id="mini-sprint-2" transform="translate(-447.000000, -504.000000)">
<g id="developers-menu" transform="translate(414.000000, 49.000000)">
<g id="Group-5" transform="translate(30.000000, 41.000000)">
<g id="try-the-api">
<g id="Group-24" transform="translate(3.000000, 415.000000)">
<g id="Group-13" transform="translate(0.500000, 0.000000)">
<ellipse cx="12.5" cy="14" fill="#FF74E9" fill-opacity="0.476307745" id="Oval-2" rx="9.5" ry="9"></ellipse>
<path d="M15.8671189,12.2191771 C15.8988738,15.6998052 18.8671159,16.8580705 18.9,16.8728543 C18.8749021,16.9545416 18.4257244,18.5234958 17.336189,20.1441135 C16.3943336,21.5452196 15.4168119,22.9411932 13.8769264,22.970105 C12.3638349,22.9984817 11.8772916,22.0568566 10.1473996,22.0568566 C8.41803017,22.0568566 7.87745837,22.9411909 6.44514872,22.9984817 C4.95876855,23.0557306 3.82690566,21.483371 2.87722307,20.0873975 C0.936661697,17.2318865 -0.546328715,12.0183943 1.44495256,8.49920209 C2.43417861,6.75155691 4.20200034,5.64487503 6.12081277,5.61649623 C7.5804001,5.58815855 8.95807707,6.6159477 9.8503413,6.6159477 C10.7420398,6.6159477 12.4162105,5.37994118 14.1762044,5.56146436 C14.912998,5.59267661 16.9811897,5.86438825 18.3092324,7.84292113 C18.2022249,7.91043926 15.8414564,9.30924454 15.8671189,12.2191804 M13.0234383,3.6722947 C13.8125675,2.70007189 14.343697,1.34664783 14.1987991,0 C13.0613287,0.0465303627 11.6858713,0.771479131 10.8699891,1.74316705 C10.1388019,2.60364196 9.49844633,3.98088692 9.67122535,5.30088168 C10.9390697,5.40072021 12.2342703,4.64513578 13.0234383,3.67229628" fill-rule="nonzero" id="Shape" stroke="#FF006A" stroke-width="1.3"></path>
</g>
</g>
</g>
</g>
</g>
</g>
</g>
</svg>