<svg height="26" viewbox="0 0 18 24" width="18" xmlns="http://www.w3.org/2000/svg">
<g fill-rule="nonzero">
<path d="M16.02 6.082a.68.68 0 0 0-.992.001c-.43.485-1.15 1.446-1.15 2.447l.077 5.273c.004.276.245.521.507.493a.5.5 0 0 0 .493-.507l-.077-5.267c0-.517.367-1.1.646-1.469.345.456.646 1.014.646 1.462l-.132 9.809a.5.5 0 0 0 .493.507h.007a.5.5 0 0 0 .5-.493l.132-9.816c0-1.031-.804-2.049-1.15-2.44zM1.519 18.832a.5.5 0 0 0 .493-.507l-.133-9.802c0-.516.367-1.099.646-1.469.28.37.646.951.646 1.461l-.078 5.313a.5.5 0 0 0 .493.507c.284-.024.503-.216.507-.493l.078-5.32c0-.992-.72-1.954-1.149-2.439a.662.662 0 0 0-.495-.225h-.001a.666.666 0 0 0-.497.226c-.43.485-1.15 1.447-1.15 2.446l.133 9.809a.5.5 0 0 0 .5.493h.007zM5.7 10.927h.017a.499.499 0 0 0 .483-.516l-.142-4.463c0-1.976 2.242-4.202 2.989-4.837.687.635 2.929 2.861 2.929 4.821l-.145 4.479a.5.5 0 0 0 .483.516h.017a.5.5 0 0 0 .5-.484l.145-4.495c0-2.316-2.273-4.668-3.25-5.571a1.064 1.064 0 0 0-1.418 0c-.977.903-3.25 3.254-3.25 5.587l.143 4.479a.5.5 0 0 0 .499.484z"></path>
<path d="M14.485 17.517a.499.499 0 0 0 .441-.438c.017-.139.104-1.396-1.861-2.938-1.526-1.199-1.92-2.749-1.963-2.939v-2.92c0-1.436-.856-3.035-2.085-3.035S6.932 6.846 6.932 8.282v2.922c-.043.192-.425 1.728-1.963 2.936-1.966 1.542-1.878 2.8-1.861 2.938.028.23.211.412.442.438l3.386.372c.015.442.367.682 2.082.682 1.715 0 2.068-.241 2.082-.682l3.385-.371zm-2.037-2.589c.897.704 1.253 1.294 1.394 1.653l-2.739.301v-3.387c.334.479.763.976 1.345 1.433zm-6.862 0a6.634 6.634 0 0 0 1.346-1.432v3.387l-2.738-.301c.141-.363.497-.952 1.392-1.654zm4.517 2.582a8.127 8.127 0 0 1-1.085.062c-.498 0-.864-.03-1.085-.062V8.283c0-1.077.607-2.035 1.085-2.035.479 0 1.085.958 1.085 2.035v9.227z"></path>
<path d="M8.139 7.644c-.163.223-.079.524.145.687.221.162.569.102.733-.122.042 0 .064.016.069.022.1.128.252.197.405.197a.49.49 0 0 0 .295-.098.493.493 0 0 0 .11-.686c-.395-.544-1.361-.545-1.757 0zM2.624 19.231c-.708 0-1.284.576-1.284 1.284 0 .032.177 3.205 1.284 3.205s1.284-3.173 1.284-3.205c0-.708-.576-1.284-1.284-1.284zm0 2.96c-.152-.582-.284-1.385-.284-1.676a.284.284 0 0 1 .568 0c0 .29-.132 1.094-.284 1.676zM15.41 19.231c-.708 0-1.283.576-1.283 1.284 0 .032.177 3.205 1.283 3.205 1.107 0 1.284-3.173 1.284-3.205 0-.708-.576-1.284-1.284-1.284zm0 2.96c-.151-.582-.283-1.385-.283-1.676 0-.156.127-.284.283-.284.156 0 .284.128.284.284 0 .291-.132 1.094-.284 1.676zM9.017 19.005c-.799 0-1.45.599-1.45 1.334 0 .034.245 3.382 1.45 3.382s1.45-3.348 1.45-3.382c0-.736-.651-1.334-1.45-1.334zm0 3.437c-.225-.594-.45-1.729-.45-2.104 0-.181.206-.334.45-.334.244 0 .45.153.45.334 0 .375-.225 1.51-.45 2.104z"></path>
</g>
</svg>