<svg height="27px" version="1.1" viewbox="0 0 30 27" width="30px" xmlns="http://www.w3.org/2000/svg" xmlns:xlink="http://www.w3.org/1999/xlink">
<!-- Generator: Sketch 53.2 (72643) - https://sketchapp.com -->
<title>Group 12</title>
<desc>Created with Sketch.</desc>
<g fill="none" fill-rule="evenodd" id="Page-1" stroke="none" stroke-width="1">
<g id="mini-sprint-2" transform="translate(-445.000000, -463.000000)">
<g id="developers-menu" transform="translate(414.000000, 49.000000)">
<g id="Group-5" transform="translate(30.000000, 41.000000)">
<g id="try-the-api">
<g id="Group-24" transform="translate(1.000000, 373.000000)">
<g id="Group-12">
<ellipse cx="15.5" cy="14" fill="#00FFE1" id="Oval-2" rx="9.5" ry="9"></ellipse>
<g fill="#008AA3" fill-rule="nonzero" id="react-(1)">
<path d="M24.6660212,8.75120482 C24.3548084,8.64284707 24.0323282,8.54032311 23.7002895,8.44336292 C23.7548639,8.21805871 23.8049527,7.99567142 23.849488,7.77706531 C24.5805285,4.1874849 24.1025487,1.29569391 22.47039,0.343593262 C20.9053546,-0.569345178 18.3458586,0.382539402 15.7608909,2.65816041 C15.5123157,2.87698259 15.2630463,3.10866078 15.013884,3.35146642 C14.8478645,3.19082036 14.6821123,3.03557601 14.5167872,2.88708373 C11.8076654,0.453841606 9.09218909,-0.571559871 7.46163241,0.383295638 C5.89809221,1.29888091 5.43506433,4.01743992 6.09310755,7.41931185 C6.15665307,7.74789622 6.2309319,8.08344878 6.31492948,8.42461907 C5.93061259,8.53497544 5.5595922,8.65262411 5.20459167,8.7777811 C2.02843707,9.8979281 0,11.653475 0,13.4744364 C0,15.3551405 2.17752874,17.2415162 5.48574054,18.3853224 C5.74681117,18.4755846 6.01770732,18.5609312 6.29688042,18.6419565 C6.20626131,19.0109455 6.1274435,19.372534 6.06128139,19.72521 C5.43383614,23.0680416 5.92383083,25.7223744 7.48320585,26.63218 C9.09389788,27.5717488 11.7970922,26.6059818 14.4293186,24.2785047 C14.6373634,24.0945233 14.8461558,23.8994146 15.055322,23.694907 C15.3264319,23.9589952 15.5971143,24.208931 15.8663551,24.443364 C18.4159723,26.6627535 20.934137,27.5589469 22.4920702,26.6466026 C24.1011602,25.7043328 24.6241025,22.8529464 23.9451799,19.3837697 C23.8933289,19.1188171 23.8329874,18.8481386 23.7652234,18.572653 C23.9550589,18.5158811 24.1414235,18.4572729 24.3231424,18.396342 C27.7623435,17.2436768 30,15.3802581 30,13.4744364 C30,11.646885 27.9061484,9.87950836 24.6660212,8.75120482 L24.6660212,8.75120482 Z M23.9200822,17.1657846 C23.7560387,17.2207196 23.5877231,17.2738183 23.4162036,17.3252962 C23.0365325,16.1094315 22.52411,14.8165386 21.8970386,13.4807565 C22.4954345,12.1767901 22.9880456,10.9004265 23.3570903,9.69244808 C23.6639777,9.78227807 23.9618407,9.8770236 24.2488636,9.97700876 C27.0250017,10.9437479 28.7184097,12.3730873 28.7184097,13.4744364 C28.7184097,14.647574 26.8895804,16.1704704 23.9200822,17.1657846 L23.9200822,17.1657846 Z M22.6879399,19.635542 C22.9881524,21.169566 23.0310322,22.5565021 22.8321722,23.6407279 C22.6534972,24.6149755 22.2941713,25.2645278 21.8498866,25.524673 C20.9044467,26.0782374 18.8826314,25.3586793 16.7021655,23.4606359 C16.452202,23.243056 16.2004229,23.0107297 15.9478429,22.7648449 C16.7931585,21.8296516 17.6379935,20.742455 18.4625367,19.5350166 C19.9128163,19.4048363 21.2829967,19.1920098 22.5255518,18.9014533 C22.5867477,19.1511731 22.6411085,19.3960854 22.6879399,19.635542 L22.6879399,19.635542 Z M10.2276781,25.4290092 C9.30397188,25.758998 8.56828564,25.7684509 8.1235738,25.5090621 C7.17727956,24.956956 6.78388474,22.825776 7.32049727,19.9669893 C7.38196022,19.6395933 7.45511767,19.3032846 7.53943562,18.9595215 C8.76837393,19.2344131 10.1285151,19.4322227 11.5822656,19.5514378 C12.4123624,20.7329481 13.2816011,21.8189564 14.157568,22.7698686 C13.9661838,22.9567667 13.7755472,23.1346984 13.5859787,23.3023665 C12.4220277,24.3315492 11.2556204,25.0617486 10.2276781,25.4290092 L10.2276781,25.4290092 Z M5.90022821,17.1586003 C4.43739967,16.6528408 3.2293406,15.99551 2.40127305,15.2782205 C1.65720309,14.6336377 1.28153692,13.9937003 1.28153692,13.4744364 C1.28153692,12.3694141 2.91017122,10.959953 5.62644848,10.0019645 C5.95603079,9.8857203 6.30104558,9.77617417 6.65908989,9.67327212 C7.03448904,10.908529 7.52694012,12.2000173 8.12122424,13.5059822 C7.51925058,14.8313391 7.01980416,16.1434081 6.64072042,17.3931413 C6.38547035,17.3189222 6.13817682,17.2408139 5.90022821,17.1586003 L5.90022821,17.1586003 Z M7.35082826,7.17034827 C6.7870353,4.25570817 7.16147329,2.05700711 8.10370916,1.50527922 C9.10735458,0.917522081 11.3266952,1.75553917 13.6658112,3.85652378 C13.81533,3.99080963 13.9654363,4.13136141 14.1159697,4.27677473 C13.2443282,5.22352771 12.3830461,6.30137953 11.5603185,7.47592147 C10.1493943,7.6082087 8.79881169,7.82071091 7.5570575,8.10527156 C7.47898727,7.78759859 7.4098348,7.47548935 7.35082826,7.17034827 L7.35082826,7.17034827 Z M20.2914728,10.4026614 C19.9946245,9.88399175 19.6898729,9.37758397 19.3791942,8.88500452 C20.336382,9.00740664 21.2534665,9.16988927 22.1146952,9.36872523 C21.8561343,10.2069584 21.5338679,11.0833815 21.1545171,11.9818434 C20.8823929,11.4592306 20.594569,10.9322964 20.2914728,10.4026614 L20.2914728,10.4026614 Z M15.0143111,5.2032714 C15.6054446,5.85109525 16.1974325,6.57438059 16.7797018,7.35913708 C16.192947,7.33110235 15.5989298,7.3165178 15.0000001,7.3165178 C14.4067305,7.3165178 13.8170923,7.33077826 13.2339686,7.35832684 C13.8168252,6.5808626 14.4139395,5.85854955 15.0143111,5.2032714 L15.0143111,5.2032714 Z M9.70334747,10.4116282 C9.40681951,10.9317562 9.12433564,11.4558275 8.85648327,11.9808711 C8.48327348,11.0855421 8.1639973,10.2051218 7.90319367,9.35500494 C8.7591358,9.16124657 9.67189511,9.00281522 10.6229953,8.88273581 C10.3079377,9.37985268 10.0006764,9.88998763 9.70334747,10.4115201 L9.70334747,10.4116282 L9.70334747,10.4116282 Z M10.6503893,18.1586138 C9.66772993,18.0477173 8.74124694,17.8974426 7.8855184,17.7090318 C8.15048721,16.8437361 8.47681214,15.944518 8.85792505,15.029905 C9.12647163,15.5545705 9.41007689,16.0788579 9.70842043,16.6001204 L9.70847382,16.6001204 C10.0123709,17.1311598 10.327215,17.6513417 10.6503893,18.1586138 L10.6503893,18.1586138 Z M15.0497685,21.8369979 C14.442348,21.1740494 13.8364763,20.440717 13.2447553,19.6519092 C13.8191747,19.6747042 14.4048081,19.686372 15.0000001,19.686372 C15.6114789,19.686372 16.2159622,19.6724356 16.8109406,19.6456432 C16.2267489,20.4486575 15.6368971,21.1831242 15.0497685,21.8369979 L15.0497685,21.8369979 Z M21.1667456,14.9832886 C21.5677232,15.9077866 21.9057427,16.8023053 22.174129,17.6528543 C21.304303,17.8535807 20.3651644,18.0152532 19.3756698,18.1353867 C19.6870963,17.636163 19.9945177,17.1210585 20.2965991,16.5912074 C20.6022052,16.0551446 20.8923785,15.5182713 21.1667456,14.9832886 L21.1667456,14.9832886 Z M19.1864749,15.9435458 C18.7175197,16.7660599 18.2360689,17.5512485 17.7473025,18.2924137 C16.8570777,18.3568016 15.9373765,18.389968 15.0000001,18.389968 C14.066415,18.389968 13.1583013,18.3606367 12.2838296,18.3032169 C11.7753586,17.552329 11.2834416,16.7648177 10.8174767,15.9506219 L10.8175835,15.9506219 C10.3528468,15.138641 9.925116,14.3197998 9.53754173,13.5055502 C9.9250092,12.6894098 10.3516186,11.8696505 10.8136853,11.0591279 L10.8135785,11.05929 C11.2768734,10.2466067 11.7644651,9.46293057 12.2682368,8.71674207 C13.1604373,8.64851884 14.0753326,8.61292174 14.9999467,8.61292174 L15.0000001,8.61292174 C15.9287793,8.61292174 16.8448493,8.6487889 17.7367827,8.71760636 C18.2328649,9.45833915 18.7171459,10.2394765 19.1822564,11.0522678 C19.6526536,11.8741879 20.084763,12.6884915 20.4755412,13.4871305 C20.0859379,14.2994895 19.6547896,15.1220039 19.1864749,15.9435458 L19.1864749,15.9435458 Z M21.8302356,1.46671119 C22.8348423,2.05273979 23.2255136,4.41619217 22.5943304,7.51540779 C22.554067,7.71316341 22.5087309,7.91459216 22.4594964,8.11872176 C21.2148586,7.82821925 19.8633148,7.6120439 18.4482791,7.47775805 C17.6239494,6.29030608 16.7697161,5.21077973 15.9122787,4.27618052 C16.1428048,4.05184865 16.3730105,3.83794199 16.6022549,3.63608111 C18.8170566,1.68634363 20.887092,0.916549778 21.8302356,1.46671119 L21.8302356,1.46671119 Z M15.0000001,10.7645741 C16.4794893,10.7645741 17.6788976,11.9777921 17.6788976,13.4744364 C17.6788976,14.9710266 16.4794893,16.1842988 15.0000001,16.1842988 C13.5205109,16.1842988 12.3211025,14.9710266 12.3211025,13.4744364 C12.3211025,11.9777921 13.5205109,10.7645741 15.0000001,10.7645741 L15.0000001,10.7645741 Z" id="Shape"></path>
</g>
</g>
</g>
</g>
</g>
</g>
</g>
</g>
</svg>