<svg height="26" viewbox="0 0 24 24" width="24" xmlns="http://www.w3.org/2000/svg">
<path d="M12 0C5.383 0 0 5.383 0 12c0 2.08.534 4.037 1.469 5.744l-1.32 1.321a.51.51 0 1 0 .72.72l1.145-1.145C4.167 21.868 7.838 24 12 24c6.617 0 12-5.383 12-12S18.617 0 12 0zm0 22.98c-3.883 0-7.293-2.03-9.246-5.08l4.74-4.746 3.499 2.941c.2.168.499.156.687-.029l6.365-6.329-.04 2.875a.51.51 0 0 0 .503.516h.007a.51.51 0 0 0 .509-.502l.057-4.124V8.5a.509.509 0 0 0-.03-.156.502.502 0 0 0-.117-.205l-.002-.002c-.009-.009-.02-.012-.03-.02a.517.517 0 0 0-.136-.091.511.511 0 0 0-.194-.039H14.39a.51.51 0 1 0 0 1.019h2.946l-6.044 6.01-3.5-2.942a.51.51 0 0 0-.688.03l-4.876 4.881A10.9 10.9 0 0 1 1.02 12C1.02 5.945 5.945 1.019 12 1.019c6.056 0 10.982 4.926 10.982 10.98 0 6.055-4.926 10.982-10.981 10.982z" fill-rule="evenodd"></path>
</svg>