<svg height="26" viewbox="0 0 17 19" width="17" xmlns="http://www.w3.org/2000/svg">
<path d="M4.5 14a.5.5 0 0 1 .5.5v4a.5.5 0 0 1-.5.5h-4a.5.5 0 0 1-.5-.5v-4a.5.5 0 0 1 .5-.5h4zm6.952 3a.5.5 0 0 1 0 1H7.576a.5.5 0 0 1 0-1h3.876zM1 18h3v-3H1v3zm15.485-3a.5.5 0 1 1 0 1h-8.91a.5.5 0 0 1 0-1h8.91zM4.5 7a.5.5 0 0 1 .5.5v4a.5.5 0 0 1-.5.5h-4a.5.5 0 0 1-.5-.5v-4A.5.5 0 0 1 .5 7h4zM1 11h3V8H1v3zm10.452-1a.5.5 0 0 1 0 1H7.576a.5.5 0 0 1 0-1h3.876zm5.033-2a.5.5 0 1 1 0 1h-8.91a.5.5 0 0 1 0-1h8.91zM4.5 0a.5.5 0 0 1 .5.5v4a.5.5 0 0 1-.5.5h-4a.5.5 0 0 1-.5-.5v-4A.5.5 0 0 1 .5 0h4zm6.952 3a.5.5 0 0 1 0 1H7.576a.5.5 0 1 1 0-1h3.876zM1 4h3V1H1v3zm15.485-3a.5.5 0 1 1 0 1h-8.91a.5.5 0 0 1 0-1h8.91z" fill-rule="evenodd"></path>
</svg>