<svg height="20px" version="1.1" viewbox="0 0 24 20" width="24px" xmlns="http://www.w3.org/2000/svg" xmlns:xlink="http://www.w3.org/1999/xlink">
<!-- Generator: Sketch 53 (72520) - https://sketchapp.com -->
<title>Fill 1</title>
<desc>Created with Sketch.</desc>
<g fill="none" fill-rule="evenodd" id="Page-1" stroke="none" stroke-width="1">
<g fill="#004EFF" id="Homepage-Fin-II" transform="translate(-792.000000, -278.000000)">
<g id="Product-menu" transform="translate(761.000000, 49.000000)">
<g id="Group-9" transform="translate(30.000000, 42.000000)">
<g id="CHAT" transform="translate(0.000000, 184.000000)">
<path d="M23.5,7 C24.3272,7 25,7.6728 25,8.5 L25,17.5 C25,18.3271 24.3272,19 23.5,19 L22.5254,19 L19.9082,22.7031 C19.8125,22.8388 19.6592,22.915 19.5,22.915 C19.4492,22.915 19.3984,22.9072 19.3486,22.8916 C19.1406,22.8252 19,22.6328 19,22.415 L19,19 L13.5,19 C12.6728,19 12,18.3271 12,17.5 L12,16.5 C12,16.2236 12.2236,16 12.5,16 C12.7764,16 13,16.2236 13,16.5 L13,17.5 C13,17.7754 13.2241,18 13.5,18 L19.5,18 C19.7764,18 20,18.2236 20,18.5 L20,20.8408 L21.8584,18.2119 C21.9521,18.0791 22.1045,18 22.2666,18 L23.5,18 C23.7754,18 24,17.7753 24,17.5 L24,8.5 C24,8.2241 23.7754,8 23.5,8 L15.5,8 C15.2236,8 15,7.7763 15,7.5 C15,7.2236 15.2236,7 15.5,7 L23.5,7 Z M12.5,3 C13.3272,3 14,3.6728 14,4.5 L14,13.5 C14,14.3271 13.3272,15 12.5,15 L7,15 L7,18.415 C7,18.6328 6.8589,18.8251 6.6514,18.8916 C6.6015,18.9072 6.5503,18.915 6.5,18.915 C6.3408,18.915 6.187,18.8388 6.0918,18.7041 L3.4736,15 L2.5,15 C1.6728,15 1,14.3271 1,13.5 L1,4.5 C1,3.6728 1.6728,3 2.5,3 L12.5,3 Z M12.5,4 L2.5,4 C2.2241,4 2,4.2241 2,4.5 L2,13.5 C2,13.7758 2.2241,14 2.5,14 L3.7324,14 C3.8945,14 4.0469,14.0791 4.1406,14.2109 L6,16.8418 L6,14.5 C6,14.2236 6.2236,14 6.5,14 L12.5,14 C12.7759,14 13,13.7758 13,13.5 L13,4.5 C13,4.2241 12.7759,4 12.5,4 Z M17.5313,14 C17.8076,14 18.0313,14.2236 18.0313,14.5 C18.0313,14.7763 17.8076,15 17.5313,15 L15.5107,15 C15.2344,15 15.0107,14.7763 15.0107,14.5 C15.0107,14.2236 15.2344,14 15.5107,14 L17.5313,14 Z M21.5313,14 C21.8076,14 22.0313,14.2236 22.0313,14.5 C22.0313,14.7763 21.8076,15 21.5313,15 L19.5107,15 C19.2344,15 19.0107,14.7763 19.0107,14.5 C19.0107,14.2236 19.2344,14 19.5107,14 L21.5313,14 Z M21.5313,11 C21.8076,11 22.0313,11.2236 22.0313,11.5 C22.0313,11.7763 21.8076,12 21.5313,12 L15.5107,12 C15.2344,12 15.0107,11.7763 15.0107,11.5 C15.0107,11.2236 15.2344,11 15.5107,11 L21.5313,11 Z M6.4888,10 C6.7651,10 6.9888,10.2236 6.9888,10.5 C6.9888,10.7763 6.7651,11 6.4888,11 L4.4688,11 C4.1924,11 3.9688,10.7763 3.9688,10.5 C3.9688,10.2236 4.1924,10 4.4688,10 L6.4888,10 Z M10.4888,10 C10.7651,10 10.9888,10.2236 10.9888,10.5 C10.9888,10.7763 10.7651,11 10.4888,11 L8.4688,11 C8.1924,11 7.9688,10.7763 7.9688,10.5 C7.9688,10.2236 8.1924,10 8.4688,10 L10.4888,10 Z M10.4888,7 C10.7651,7 10.9888,7.2236 10.9888,7.5 C10.9888,7.7763 10.7651,8 10.4888,8 L4.4688,8 C4.1924,8 3.9688,7.7763 3.9688,7.5 C3.9688,7.2236 4.1924,7 4.4688,7 L10.4888,7 Z" id="Fill-1"></path>
</g>
</g>
</g>
</g>
</g>
</svg>