<svg height="27px" version="1.1" viewbox="0 0 30 27" width="30px" xmlns="http://www.w3.org/2000/svg" xmlns:xlink="http://www.w3.org/1999/xlink">
<!-- Generator: Sketch 53.2 (72643) - https://sketchapp.com -->
<title>Group 10</title>
<desc>Created with Sketch.</desc>
<g fill="none" fill-rule="evenodd" id="Page-1" stroke="none" stroke-width="1">
<g id="mini-sprint-2" transform="translate(-445.000000, -418.000000)">
<g id="developers-menu" transform="translate(414.000000, 49.000000)">
<g id="Group-5" transform="translate(30.000000, 41.000000)">
<g id="try-the-api">
<g id="Group-24" transform="translate(6.000000, 330.000000)">
<g id="Group-10" transform="translate(0.000000, 3.000000)">
<ellipse cx="10" cy="8.5" fill="#004EFF" id="Oval-2" rx="9" ry="8.5"></ellipse>
<g fill="#00D8FF" fill-rule="nonzero" id="react-(1)">
<path d="M19.6660212,3.75120482 C19.3548084,3.64284707 19.0323282,3.54032311 18.7002895,3.44336292 C18.7548639,3.21805871 18.8049527,2.99567142 18.849488,2.77706531 C19.5805285,-0.812515101 19.1025487,-3.70430609 17.47039,-4.65640674 C15.9053546,-5.56934518 13.3458586,-4.6174606 10.7608909,-2.34183959 C10.5123157,-2.12301741 10.2630463,-1.89133922 10.013884,-1.64853358 C9.84786449,-1.80917964 9.68211227,-1.96442399 9.51678719,-2.11291627 C6.80766543,-4.54615839 4.09218909,-5.57155987 2.46163241,-4.61670436 C0.898092215,-3.70111909 0.435064328,-0.982560082 1.09310755,2.41931185 C1.15665307,2.74789622 1.2309319,3.08344878 1.31492948,3.42461907 C0.93061259,3.53497544 0.559592195,3.65262411 0.204591672,3.7777811 C-2.97156293,4.8979281 -5,6.65347505 -5,8.47443638 C-5,10.3551405 -2.82247126,12.2415162 0.485740539,13.3853224 C0.746811168,13.4755846 1.01770732,13.5609312 1.29688042,13.6419565 C1.20626131,14.0109455 1.1274435,14.372534 1.06128139,14.72521 C0.433836145,18.0680416 0.923830832,20.7223744 2.48320585,21.63218 C4.09389788,22.5717488 6.79709219,21.6059818 9.42931855,19.2785047 C9.6373634,19.0945233 9.84615578,18.8994146 10.055322,18.694907 C10.3264319,18.9589952 10.5971143,19.208931 10.8663551,19.443364 C13.4159723,21.6627535 15.934137,22.5589469 17.4920702,21.6466026 C19.1011602,20.7043328 19.6241025,17.8529464 18.9451799,14.3837697 C18.8933289,14.1188171 18.8329874,13.8481386 18.7652234,13.572653 C18.9550589,13.5158811 19.1414235,13.4572729 19.3231424,13.396342 C22.7623435,12.2436768 25,10.3802581 25,8.47443638 C25,6.64688503 22.9061484,4.87950836 19.6660212,3.75120482 L19.6660212,3.75120482 Z M18.9200822,12.1657846 C18.7560387,12.2207196 18.5877231,12.2738183 18.4162036,12.3252962 C18.0365325,11.1094315 17.52411,9.81653857 16.8970386,8.48075645 C17.4954345,7.17679006 17.9880456,5.90042646 18.3570903,4.69244808 C18.6639777,4.78227807 18.9618407,4.8770236 19.2488636,4.97700876 C22.0250017,5.94374795 23.7184097,7.37308727 23.7184097,8.47443638 C23.7184097,9.64757396 21.8895804,11.1704704 18.9200822,12.1657846 L18.9200822,12.1657846 Z M17.6879399,14.635542 C17.9881524,16.169566 18.0310322,17.5565021 17.8321722,18.6407279 C17.6534972,19.6149755 17.2941713,20.2645278 16.8498866,20.524673 C15.9044467,21.0782374 13.8826314,20.3586793 11.7021655,18.4606359 C11.452202,18.243056 11.2004229,18.0107297 10.9478429,17.7648449 C11.7931585,16.8296516 12.6379935,15.742455 13.4625367,14.5350166 C14.9128163,14.4048363 16.2829967,14.1920098 17.5255518,13.9014533 C17.5867477,14.1511731 17.6411085,14.3960854 17.6879399,14.635542 L17.6879399,14.635542 Z M5.22767812,20.4290092 C4.30397188,20.758998 3.56828564,20.7684509 3.1235738,20.5090621 C2.17727956,19.956956 1.78388474,17.825776 2.32049727,14.9669893 C2.38196022,14.6395933 2.45511767,14.3032846 2.53943562,13.9595215 C3.76837393,14.2344131 5.12851505,14.4322227 6.58226563,14.5514378 C7.41236242,15.7329481 8.28160105,16.8189564 9.15756801,17.7698686 C8.96618383,17.9567667 8.77554719,18.1346984 8.58597871,18.3023665 C7.4220277,19.3315492 6.25562037,20.0617486 5.22767812,20.4290092 L5.22767812,20.4290092 Z M0.900228215,12.1586003 C-0.562600332,11.6528408 -1.7706594,10.99551 -2.59872695,10.2782205 C-3.34279691,9.63363768 -3.71846308,8.99370032 -3.71846308,8.47443638 C-3.71846308,7.36941413 -2.08982878,5.95995299 0.626448484,5.00196452 C0.956030793,4.8857203 1.30104558,4.77617417 1.65908989,4.67327212 C2.03448904,5.90852898 2.52694012,7.20001731 3.12122424,8.5059822 C2.51925058,9.83133914 2.01980416,11.1434081 1.64072042,12.3931413 C1.38547035,12.3189222 1.13817682,12.2408139 0.900228215,12.1586003 L0.900228215,12.1586003 Z M2.35082826,2.17034827 C1.7870353,-0.744291831 2.16147329,-2.94299289 3.10370916,-3.49472078 C4.10735458,-4.08247792 6.32669515,-3.24446083 8.66581117,-1.14347622 C8.81533,-1.00919037 8.96543629,-0.868638594 9.11596973,-0.723225274 C8.24432816,0.223527706 7.38304609,1.30137953 6.56031852,2.47592147 C5.14939429,2.6082087 3.79881169,2.82071091 2.5570575,3.10527156 C2.47898727,2.78759859 2.4098348,2.47548935 2.35082826,2.17034827 L2.35082826,2.17034827 Z M15.2914728,5.40266136 C14.9946245,4.88399175 14.6898729,4.37758397 14.3791942,3.88500452 C15.336382,4.00740664 16.2534665,4.16988927 17.1146952,4.36872523 C16.8561343,5.20695839 16.5338679,6.08338147 16.1545171,6.9818434 C15.8823929,6.45923056 15.594569,5.93229638 15.2914728,5.40266136 L15.2914728,5.40266136 Z M10.0143111,0.203271395 C10.6054446,0.851095245 11.1974325,1.57438059 11.7797018,2.35913708 C11.192947,2.33110235 10.5989298,2.3165178 10.0000001,2.3165178 C9.40673055,2.3165178 8.81709227,2.33077826 8.23396855,2.35832684 C8.8168252,1.5808626 9.41393945,0.858549548 10.0143111,0.203271395 L10.0143111,0.203271395 Z M4.70334747,5.41162815 C4.40681951,5.93175621 4.12433564,6.45582751 3.85648327,6.98087112 C3.48327348,6.08554213 3.1639973,5.20512182 2.90319367,4.35500494 C3.7591358,4.16124657 4.67189511,4.00281522 5.62299532,3.88273581 C5.3079377,4.37985268 5.00067641,4.88998763 4.70334747,5.41152012 L4.70334747,5.41162815 L4.70334747,5.41162815 Z M5.65038931,13.1586138 C4.66772993,13.0477173 3.74124694,12.8974426 2.8855184,12.7090318 C3.15048721,11.8437361 3.47681214,10.944518 3.85792505,10.029905 C4.12647163,10.5545705 4.41007689,11.0788579 4.70842043,11.6001204 L4.70847382,11.6001204 C5.01237094,12.1311598 5.32721495,12.6513417 5.65038931,13.1586138 L5.65038931,13.1586138 Z M10.0497685,16.8369979 C9.44234805,16.1740494 8.83647625,15.440717 8.24475531,14.6519092 C8.81917469,14.6747042 9.40480809,14.686372 10.0000001,14.686372 C10.6114789,14.686372 11.2159622,14.6724356 11.8109406,14.6456432 C11.2267489,15.4486575 10.6368971,16.1831242 10.0497685,16.8369979 L10.0497685,16.8369979 Z M16.1667456,9.98328858 C16.5677232,10.9077866 16.9057427,11.8023053 17.174129,12.6528543 C16.304303,12.8535807 15.3651644,13.0152532 14.3756698,13.1353867 C14.6870963,12.636163 14.9945177,12.1210585 15.2965991,11.5912074 C15.6022052,11.0551446 15.8923785,10.5182713 16.1667456,9.98328858 L16.1667456,9.98328858 Z M14.1864749,10.9435458 C13.7175197,11.7660599 13.2360689,12.5512485 12.7473025,13.2924137 C11.8570777,13.3568016 10.9373765,13.389968 10.0000001,13.389968 C9.066415,13.389968 8.15830129,13.3606367 7.28382965,13.3032169 C6.77535859,12.552329 6.28344156,11.7648177 5.81747665,10.9506219 L5.81758346,10.9506219 C5.35284675,10.138641 4.925116,9.31979976 4.53754173,8.50555023 C4.9250092,7.68940984 5.35161856,6.86965047 5.81368527,6.05912791 L5.81357848,6.05928995 C6.27687336,5.24660674 6.76446508,4.46293057 7.2682368,3.71674207 C8.16043727,3.64851884 9.07533262,3.61292174 9.99994668,3.61292174 L10.0000001,3.61292174 C10.9287793,3.61292174 11.8448493,3.6487889 12.7367827,3.71760636 C13.2328649,4.45833915 13.7171459,5.23947651 14.1822564,6.05226777 C14.6526536,6.87418791 15.084763,7.68849149 15.4755412,8.48713046 C15.0859379,9.29948948 14.6547896,10.1220039 14.1864749,10.9435458 L14.1864749,10.9435458 Z M16.8302356,-3.53328881 C17.8348423,-2.94726021 18.2255136,-0.583807835 17.5943304,2.51540779 C17.554067,2.71316341 17.5087309,2.91459216 17.4594964,3.11872176 C16.2148586,2.82821925 14.8633148,2.6120439 13.4482791,2.47775805 C12.6239494,1.29030608 11.7697161,0.21077973 10.9122787,-0.723819478 C11.1428048,-0.948151345 11.3730105,-1.16205801 11.6022549,-1.36391889 C13.8170566,-3.31365637 15.887092,-4.08345022 16.8302356,-3.53328881 L16.8302356,-3.53328881 Z M10.0000001,5.76457412 C11.4794893,5.76457412 12.6788976,6.97779211 12.6788976,8.47443638 C12.6788976,9.9710266 11.4794893,11.1842988 10.0000001,11.1842988 C8.52051086,11.1842988 7.32110254,9.9710266 7.32110254,8.47443638 C7.32110254,6.97779211 8.52051086,5.76457412 10.0000001,5.76457412 L10.0000001,5.76457412 Z" id="Shape"></path>
</g>
</g>
</g>
</g>
</g>
</g>
</g>
</g>
</svg>