<svg height="26" viewbox="0 0 24 22" width="24" xmlns="http://www.w3.org/2000/svg">
<defs>
<lineargradient id="a" x1="50%" x2="50%" y1="0%" y2="100%">
<stop offset="0%" stop-color="#00DA85"></stop>
<stop offset="100%" stop-color="#00B24D"></stop>
</lineargradient>
</defs>
<path d="M19.904 4h-.077c-.418.009-.863.112-1.315.284-.91.344-1.897.983-2.901 1.883a17.64 17.64 0 0 0-.598.564 15.747 15.747 0 0 0-.397-.379c-1.064-.971-2.11-1.655-3.068-2.023-.478-.184-.944-.294-1.38-.305-.435-.01-.841.077-1.196.29-.692.41-1.068 1.22-1.23 2.201-.167.988-.124 2.184.132 3.53.052.27.111.542.18.824-.308.088-.607.185-.889.286-1.244.444-2.25 1.007-2.974 1.641C3.47 13.434 3 14.173 3 14.979c0 .831.493 1.601 1.254 2.27.762.673 1.825 1.272 3.138 1.73.209.074.423.145.645.21-.073.3-.137.595-.188.88-.244 1.334-.274 2.513-.103 3.477.175.963.564 1.751 1.243 2.151.697.418 1.59.361 2.538.018.944-.343 1.974-.994 3.016-1.936.167-.15.333-.308.5-.475.218.215.435.422.653.611.996.885 1.97 1.5 2.867 1.826.897.326 1.756.374 2.43-.03.701-.418 1.098-1.241 1.282-2.258.184-1.016.15-2.261-.12-3.66-.042-.216-.09-.44-.14-.66.15-.05.299-.097.444-.146 1.35-.458 2.448-1.047 3.238-1.716S27 15.828 27 14.979c0-.819-.491-1.558-1.235-2.2-.743-.639-1.772-1.202-3.033-1.646a15.958 15.958 0 0 0-.769-.251c.043-.18.086-.36.12-.541.286-1.435.337-2.71.17-3.75-.17-1.04-.563-1.885-1.276-2.309A2.098 2.098 0 0 0 19.904 4zm-.072 1.063c.269-.007.482.044.632.134.325.191.636.706.777 1.565.141.864.103 2.025-.166 3.363-.034.163-.069.326-.107.493a23.596 23.596 0 0 0-3.208-.524 24.867 24.867 0 0 0-2.03-2.609c.188-.182.368-.358.552-.52.935-.837 1.837-1.407 2.584-1.69.372-.14.696-.205.966-.212zm-9.775.024h.103c.286.008.632.08 1.03.231.794.306 1.755.92 2.742 1.826.12.11.24.225.359.345a25.471 25.471 0 0 0-2.042 2.6c-1.132.11-2.213.287-3.2.516-.064-.26-.12-.515-.166-.762-.24-1.25-.265-2.34-.133-3.147.137-.807.432-1.287.735-1.468.14-.084.333-.135.572-.142zm4.956 3.16a21.49 21.49 0 0 1 1.41 1.75A30.256 30.256 0 0 0 15 9.962c-.474 0-.944.013-1.41.035.47-.638.949-1.223 1.423-1.75zM15 11.017c.748 0 1.478.031 2.187.084a32.538 32.538 0 0 1 2.192 3.885 33.836 33.836 0 0 1-2.183 3.916c-.714.053-1.448.08-2.196.08-.74 0-1.465-.027-2.174-.07a33.962 33.962 0 0 1-1.171-1.915 28.505 28.505 0 0 1-1.025-1.993 30.169 30.169 0 0 1 2.187-3.903c.71-.053 1.44-.084 2.183-.084zm-3.503.22a31.367 31.367 0 0 0-1.41 2.522 23.265 23.265 0 0 1-.764-2.134 23.05 23.05 0 0 1 2.174-.388zm7.006.005c.769.097 1.504.233 2.187.391a22.06 22.06 0 0 1-.769 2.13 37.598 37.598 0 0 0-.687-1.285c-.24-.422-.483-.836-.731-1.236zm-10.176.642c.3.999.692 2.05 1.17 3.12a26.132 26.132 0 0 0-1.187 3.164c-.2-.058-.397-.124-.59-.19-1.213-.426-2.17-.976-2.799-1.53-.629-.555-.896-1.092-.896-1.47 0-.366.244-.859.833-1.378.588-.519 1.491-1.038 2.645-1.452.26-.092.538-.18.824-.264zm13.363.013c.243.075.483.154.71.234 1.17.413 2.1.932 2.712 1.46.606.524.863 1.026.863 1.387 0 .382-.274.92-.927 1.474-.658.554-1.654 1.104-2.91 1.535-.132.044-.264.088-.401.128a24.848 24.848 0 0 0-1.218-3.129 24.93 24.93 0 0 0 1.17-3.089zm-6.69.876c-1.174.002-2.139.996-2.14 2.205 0 1.21.965 2.207 2.14 2.208h.001c1.176 0 2.144-.996 2.144-2.207v-.001c-.002-1.21-.97-2.206-2.145-2.205zm4.934 3.437c.316.748.59 1.478.803 2.173-.696.163-1.448.295-2.234.392a38.776 38.776 0 0 0 1.431-2.565zm-9.847.035a30.931 30.931 0 0 0 1.431 2.548 20.946 20.946 0 0 1-2.208-.366c.209-.7.47-1.43.777-2.182zM21.02 19.4c.051.202.094.405.133.598.247 1.294.265 2.425.115 3.26-.15.841-.47 1.347-.786 1.536-.308.185-.846.216-1.576-.048-.73-.268-1.62-.814-2.542-1.632-.201-.176-.402-.366-.603-.568a24.695 24.695 0 0 0 2.013-2.631 23.328 23.328 0 0 0 3.246-.515zm-11.987.048c1 .229 2.089.387 3.234.48a25.42 25.42 0 0 0 2.059 2.622c-.154.154-.303.3-.457.436-.961.867-1.905 1.448-2.683 1.73-.782.285-1.367.254-1.683.065-.308-.18-.602-.647-.748-1.43-.14-.783-.124-1.848.103-3.084.047-.264.107-.537.175-.819zm7.416.555a23.24 23.24 0 0 1-1.405 1.786 23.88 23.88 0 0 1-1.444-1.778 31.51 31.51 0 0 0 2.85-.009z" fill="url(#a)" fill-rule="evenodd" transform="translate(-3 -4)"></path>
</svg>