<svg alt="AXDRAFT" class="_3-CnR" height="24" viewbox="0 0 405 64" width="405"><lineargradient id="logo-vertical_inline_svg__a"><stop offset="0" stop-color="#0e8e35"></stop><stop offset="1" stop-color="#0080d6"></stop></lineargradient><lineargradient id="logo-vertical_inline_svg__b" x1="-3.675%" x2="588.928%" xlink:href="#logo-vertical_inline_svg__a" y1="44.607%" y2="139.528%"></lineargradient><lineargradient id="logo-vertical_inline_svg__c" x1="-368.788%" x2="225.709%" xlink:href="#logo-vertical_inline_svg__a" y1="-13.684%" y2="81.389%"></lineargradient><lineargradient id="logo-vertical_inline_svg__d" x1="-88.26%" x2="482.217%" xlink:href="#logo-vertical_inline_svg__a" y1="26.87%" y2="123.33%"></lineargradient><lineargradient id="logo-vertical_inline_svg__e" x1="-170.599%" x2="384.161%" xlink:href="#logo-vertical_inline_svg__a" y1="15.297%" y2="111.743%"></lineargradient><lineargradient id="logo-vertical_inline_svg__f" x1="-248.346%" x2="288.89%" xlink:href="#logo-vertical_inline_svg__a" y1="-.144%" y2="95.849%"></lineargradient><lineargradient id="logo-vertical_inline_svg__g" x1="-289.639%" x2="113.844%" xlink:href="#logo-vertical_inline_svg__a" y1="-31.153%" y2="65.306%"></lineargradient><lineargradient id="logo-vertical_inline_svg__h" x1="-386.683%" x2="66.588%" xlink:href="#logo-vertical_inline_svg__a" y1="-44.811%" y2="51.649%"></lineargradient><g fill="none"><path d="M32.1.1h-4.3L.5 62.7h13.2L30 23.6l8.1 20.7h-14l-4.3 10.4h22.8l3.2 8.1h13.7z" fill="url(#logo-vertical_inline_svg__b)"></path><path d="M280 .1h-4.3l-27.3 62.6h13.2l16.3-39.3 8.1 20.7h-13.9l-4.3 10.4h22.7l3.2 8.1h13.7z" fill="url(#logo-vertical_inline_svg__c)"></path><path d="M104.1 62.8L91.2 42.4 78.3 62.8H64l20.4-31.5L65.2 1.1h14.3l12 19.5 12-19.5h14.3L98.9 31.3 119 62.8z" fill="url(#logo-vertical_inline_svg__d)"></path><path d="M171.2 9.5c6.2 5.5 9.4 12.9 9.4 22.4 0 9.1-3.2 16.6-9.4 22.4s-14.3 8.8-24.1 8.8h-20V1.4h20.3c9.5-.2 17.7 3 23.8 8.1zm-31.8 3.2v38.7h7.5c6.2 0 11.4-1.7 14.9-5.2 4-3.5 5.8-8.1 5.8-14.3 0-5.8-2-10.7-5.8-14.3-3.8-3.7-8.8-5.2-14.9-5.2z" fill="url(#logo-vertical_inline_svg__e)"></path><path d="M225.4 38.8c3.2-1.7 5.8-4 8.1-7.2 2-2.9 2.9-6.5 2.9-10.4 0-5.8-2.3-10.7-6.2-14.3-4.3-3.5-9.4-5.5-15.8-5.5h-23v61.7H204V12.8h10.7c2.6 0 5.2.9 6.9 2.3 1.7 1.7 2.6 4 2.6 6.5 0 2.6-.9 4.9-2.6 6.5-1.7 1.7-4 2.6-6.9 2.6h-9.1l23.8 32.7h14.3z" fill="url(#logo-vertical_inline_svg__f)"></path><path d="M353 12.7h-26v15.5h18.9v11.4h-19.2V63h-12.6V1.3h38.7v11.4z" fill="url(#logo-vertical_inline_svg__g)"></path><path d="M404.7 12.7h-15.5V63h-12.6V12.7H361V1.3h43.7z" fill="url(#logo-vertical_inline_svg__h)"></path></g></svg>