<svg class="c-feature-grid__item__icon" fill="none" height="48" viewbox="0 0 32 32" width="48" xmlns="http://www.w3.org/2000/svg"><path d="M31.368 20.672C31.2703 19.9419 30.9089 19.2728 30.3518 18.7909C29.7947 18.3089 29.0805 18.0476 28.344 18.056C27.7707 18.0699 27.2056 18.1949 26.68 18.424V13.064C26.6896 12.6675 26.62 12.273 26.4753 11.9037C26.3307 11.5343 26.1138 11.1976 25.8375 10.913C25.5611 10.6285 25.2308 10.4019 24.8658 10.2465C24.5009 10.0911 24.1086 10.01 23.712 10.008C23.4208 9.61344 23.037 9.2965 22.5946 9.08509C22.1521 8.87367 21.6644 8.77425 21.1745 8.79559C20.6845 8.81693 20.2074 8.95836 19.7849 9.20744C19.3625 9.45652 19.0078 9.80562 18.752 10.224L18.456 10.272V9.16801C18.4595 8.46886 18.2231 7.78966 17.7864 7.24371C17.3496 6.69776 16.7388 6.31808 16.056 6.16801C15.9527 5.49034 15.6198 4.86869 15.113 4.40707C14.6062 3.94544 13.9563 3.67183 13.272 3.63201C13.0149 3.21523 12.6597 2.86772 12.2373 2.61982C11.815 2.37192 11.3384 2.23118 10.8492 2.20987C10.36 2.18857 9.87296 2.28735 9.43069 2.49759C8.98842 2.70784 8.60434 3.02315 8.31198 3.41601C7.91331 3.41482 7.51845 3.49354 7.1507 3.6475C6.78296 3.80147 6.4498 4.02756 6.1709 4.31243C5.89199 4.59731 5.673 4.93518 5.52685 5.30609C5.3807 5.67701 5.31036 6.07345 5.31998 6.47201V11.832C4.79434 11.6029 4.22923 11.4779 3.65598 11.464C2.91943 11.4556 2.20524 11.7169 1.64816 12.1989C1.09108 12.6808 0.729625 13.3499 0.631981 14.08C0.552507 14.8597 0.761925 15.6414 1.22052 16.277C1.67911 16.9125 2.35499 17.3577 3.11998 17.528C3.84798 17.736 5.51998 19.376 6.53598 20.728C7.14245 21.583 7.94476 22.2804 8.87584 22.7619C9.80692 23.2435 10.8397 23.4952 11.888 23.496H12.272C12.7022 23.4723 13.1286 23.4026 13.544 23.288V23.368C13.5253 25.0649 14.1548 26.7051 15.3039 27.9538C16.4531 29.2026 18.0353 29.9659 19.728 30.088H20.112C21.1602 30.0872 22.193 29.8355 23.1241 29.3539C24.0552 28.8724 24.8575 28.175 25.464 27.32C26.504 25.968 28.152 24.32 28.88 24.12C29.645 23.9497 30.3209 23.5045 30.7794 22.869C31.238 22.2334 31.4475 21.4517 31.368 20.672V20.672ZM13.544 15.76V21.36C13.1048 21.5353 12.6401 21.638 12.168 21.664H11.888C11.1271 21.6662 10.3769 21.4858 9.7003 21.1377C9.02372 20.7897 8.4406 20.2843 7.99998 19.664C7.99998 19.664 5.43198 16.312 3.59998 15.8C1.76798 15.288 2.27198 13.256 3.65598 13.256C5.03998 13.256 7.11198 15.136 7.11198 15.136V6.47201C7.10566 6.18989 7.19576 5.91405 7.36739 5.69005C7.53903 5.46606 7.78193 5.3073 8.05598 5.24001C8.14112 5.23177 8.22685 5.23177 8.31198 5.24001H8.47998V11.888C8.47998 12.1002 8.56427 12.3037 8.7143 12.4537C8.86432 12.6037 9.06781 12.688 9.27998 12.688C9.49215 12.688 9.69564 12.6037 9.84567 12.4537C9.9957 12.3037 10.08 12.1002 10.08 11.888V4.17601C10.2645 4.06028 10.4781 3.99925 10.696 4.00001C10.8701 4.00007 11.0422 4.0383 11.2 4.11201V12.04C11.2 12.2522 11.2843 12.4557 11.4343 12.6057C11.5843 12.7557 11.7878 12.84 12 12.84C12.2122 12.84 12.4156 12.7557 12.5657 12.6057C12.7157 12.4557 12.8 12.2522 12.8 12.04V5.46401C12.8931 5.45583 12.9868 5.45583 13.08 5.46401C13.38 5.47598 13.6649 5.59852 13.88 5.80801V11.568C13.88 11.7802 13.9643 11.9837 14.1143 12.1337C14.2643 12.2837 14.4678 12.368 14.68 12.368C14.8922 12.368 15.0956 12.2837 15.2457 12.1337C15.3957 11.9837 15.48 11.7802 15.48 11.568V7.92001H15.624C15.909 7.97652 16.1649 8.13196 16.3464 8.35886C16.5279 8.58577 16.6234 8.86953 16.616 9.16001V11.264C16.268 11.7066 16.0542 12.2396 16 12.8C15.3135 12.9374 14.695 13.3064 14.2479 13.8452C13.8009 14.384 13.5524 15.0599 13.544 15.76ZM28.4 22.4C26.568 22.904 24.016 26.264 24.016 26.264C23.5773 26.8924 22.9932 27.4054 22.3134 27.7592C21.6336 28.113 20.8783 28.2972 20.112 28.296H19.832C18.5985 28.1967 17.4488 27.6325 16.6156 26.7176C15.7823 25.8027 15.3278 24.6054 15.344 23.368V15.76C15.3408 15.4873 15.4277 15.2211 15.5911 15.0027C15.7545 14.7843 15.9854 14.6259 16.248 14.552V19.44C16.248 19.6522 16.3323 19.8557 16.4823 20.0057C16.6323 20.1557 16.8358 20.24 17.048 20.24C17.2602 20.24 17.4636 20.1557 17.6137 20.0057C17.7637 19.8557 17.848 19.6522 17.848 19.44V12.688C17.9448 12.4849 18.0965 12.3128 18.2859 12.1912C18.4753 12.0697 18.6949 12.0034 18.92 12C19.0147 12.0009 19.1088 12.0144 19.2 12.04V19.24C19.2 19.4522 19.2843 19.6557 19.4343 19.8057C19.5843 19.9557 19.7878 20.04 20 20.04C20.2122 20.04 20.4156 19.9557 20.5657 19.8057C20.7157 19.6557 20.8 19.4522 20.8 19.24V10.704C21.0062 10.6069 21.2363 10.5718 21.4621 10.6031C21.688 10.6343 21.8998 10.7305 22.072 10.88V19.136C22.072 19.3482 22.1563 19.5517 22.3063 19.7017C22.4563 19.8517 22.6598 19.936 22.872 19.936C23.0842 19.936 23.2876 19.8517 23.4377 19.7017C23.5877 19.5517 23.672 19.3482 23.672 19.136V11.808C23.7571 11.7998 23.8428 11.7998 23.928 11.808C24.202 11.8753 24.4449 12.0341 24.6166 12.2581C24.7882 12.482 24.8783 12.7579 24.872 13.04V21.728C24.872 21.728 26.96 19.848 28.328 19.848C29.696 19.848 30.264 21.872 28.4 22.4Z" fill="#1D1C1D"></path><path d="M21.544 6.50396C21.6286 6.53471 21.7179 6.55094 21.808 6.55196C21.9743 6.55072 22.1361 6.49766 22.2709 6.40016C22.4057 6.30266 22.5067 6.16557 22.56 6.00796L23.464 3.39996C23.5114 3.29842 23.5369 3.18806 23.539 3.07601C23.541 2.96397 23.5195 2.85275 23.4758 2.74955C23.4321 2.64636 23.3672 2.5535 23.2853 2.47698C23.2034 2.40047 23.1064 2.34201 23.0005 2.30539C22.8946 2.26877 22.7822 2.25481 22.6705 2.26442C22.5589 2.27402 22.4505 2.30698 22.3524 2.36115C22.2543 2.41532 22.1687 2.48949 22.1011 2.57886C22.0335 2.66824 21.9854 2.77082 21.96 2.87996L21.048 5.48796C20.9791 5.68847 20.9927 5.90809 21.0857 6.09859C21.1787 6.28908 21.3435 6.43488 21.544 6.50396V6.50396Z" fill="#1D1C1D"></path><path d="M18.7919 6.30413H18.8479C18.9531 6.29703 19.0558 6.26922 19.1502 6.2223C19.2445 6.17539 19.3287 6.11029 19.3978 6.03075C19.467 5.95121 19.5197 5.85879 19.553 5.7588C19.5863 5.65882 19.5996 5.55324 19.5919 5.44813L19.3839 2.52013C19.3691 2.30795 19.2706 2.11037 19.11 1.97084C19.0305 1.90176 18.9382 1.849 18.8384 1.81559C18.7385 1.78218 18.633 1.76877 18.5279 1.77613C18.3158 1.79098 18.1182 1.88951 17.9787 2.05004C17.8391 2.21057 17.7691 2.41995 17.7839 2.63213L17.9919 5.60013C18.0155 5.79526 18.1101 5.97487 18.2577 6.10472C18.4052 6.23456 18.5954 6.30555 18.7919 6.30413Z" fill="#1D1C1D"></path><path d="M24.32 8.22397C24.4316 8.22371 24.542 8.20008 24.6439 8.15462C24.7459 8.10915 24.8372 8.04285 24.912 7.95997L26.896 5.79197C27.0392 5.63496 27.1142 5.42749 27.1044 5.2152C27.0947 5.00291 27.001 4.80319 26.844 4.65997C26.687 4.51676 26.4795 4.44178 26.2672 4.45153C26.0549 4.46128 25.8552 4.55496 25.712 4.71197L23.736 6.88797C23.5981 7.04329 23.526 7.24616 23.5349 7.45369C23.5439 7.66121 23.6332 7.85712 23.784 7.99997C23.9283 8.13916 24.1196 8.2191 24.32 8.22397Z" fill="#1D1C1D"></path></svg>