<svg class="c-nav--footer__svgicon" height="20" version="1" viewbox="0 0 32 32" width="20" xmlns="http://www.w3.org/2000/svg"><path d="M31.67 9.18s-.312-2.354-1.27-3.39c-1.218-1.358-2.58-1.366-3.206-1.443C22.717 4 16.002 4 16.002 4h-.015s-6.715 0-11.19.347c-.626.077-1.988.085-3.206 1.443C.635 6.826.32 9.18.32 9.18S0 11.94 0 14.7v2.59c0 2.762.32 5.522.32 5.522s.312 2.352 1.27 3.386c1.22 1.358 2.816 1.317 3.528 1.46 2.56.26 10.877.342 10.877.342s6.722-.012 11.2-.355c.624-.08 1.987-.088 3.204-1.446.956-1.036 1.27-3.388 1.27-3.388s.32-2.76.32-5.523V14.7c0-2.76-.32-5.522-.32-5.522z"></path><path d="M12 10v12l10-6" fill="#FFF"></path></svg>