<svg class="c-feature-grid__item__icon" fill="none" height="48" viewbox="0 0 32 32" width="48" xmlns="http://www.w3.org/2000/svg"><path d="M23.2001 10.6799H14.1201C13.8549 10.6799 13.6005 10.7853 13.413 10.9728C13.2255 11.1604 13.1201 11.4147 13.1201 11.6799C13.1201 11.9451 13.2255 12.1995 13.413 12.387C13.6005 12.5746 13.8549 12.6799 14.1201 12.6799H23.2001C23.4653 12.6799 23.7197 12.5746 23.9072 12.387C24.0948 12.1995 24.2001 11.9451 24.2001 11.6799C24.2001 11.4147 24.0948 11.1604 23.9072 10.9728C23.7197 10.7853 23.4653 10.6799 23.2001 10.6799V10.6799Z" fill="#1D1C1D"></path><path d="M23.2001 14.448H14.1201C13.8549 14.448 13.6005 14.5534 13.413 14.7409C13.2255 14.9284 13.1201 15.1828 13.1201 15.448C13.1201 15.7132 13.2255 15.9676 13.413 16.1551C13.6005 16.3426 13.8549 16.448 14.1201 16.448H23.2001C23.4653 16.448 23.7197 16.3426 23.9072 16.1551C24.0948 15.9676 24.2001 15.7132 24.2001 15.448C24.2001 15.1828 24.0948 14.9284 23.9072 14.7409C23.7197 14.5534 23.4653 14.448 23.2001 14.448V14.448Z" fill="#1D1C1D"></path><path d="M23.2 18.3999H18.96C18.6947 18.3999 18.4404 18.5053 18.2529 18.6928C18.0653 18.8803 17.96 19.1347 17.96 19.3999C17.96 19.6651 18.0653 19.9195 18.2529 20.107C18.4404 20.2945 18.6947 20.3999 18.96 20.3999H23.2C23.4652 20.3999 23.7195 20.2945 23.9071 20.107C24.0946 19.9195 24.2 19.6651 24.2 19.3999C24.2 19.1347 24.0946 18.8803 23.9071 18.6928C23.7195 18.5053 23.4652 18.3999 23.2 18.3999V18.3999Z" fill="#1D1C1D"></path><path d="M21.5999 0.600098H12.1039C11.3182 0.602216 10.5653 0.91585 10.0104 1.47223C9.45553 2.02861 9.14393 2.78232 9.14393 3.5681V19.0161L5.76793 20.0721C5.37351 20.1942 5.02273 20.4276 4.75774 20.7442C4.49275 21.0608 4.32482 21.4472 4.27413 21.857C4.22344 22.2667 4.29214 22.6824 4.47198 23.0541C4.65182 23.4257 4.93515 23.7376 5.28793 23.9521L5.43193 24.0401L3.19993 25.9761C2.97875 26.1693 2.7998 26.4061 2.67425 26.6716C2.5487 26.9371 2.47925 27.2256 2.47024 27.5192C2.46123 27.8127 2.51286 28.105 2.62189 28.3777C2.73092 28.6504 2.89502 28.8977 3.10393 29.1041L4.96793 30.9761C5.17606 31.1824 5.42412 31.344 5.69691 31.451C5.9697 31.558 6.26148 31.6082 6.55435 31.5985C6.84722 31.5887 7.13502 31.5193 7.4001 31.3944C7.66518 31.2695 7.90197 31.0917 8.09593 30.8721L10.0319 28.6641L10.1199 28.8081C10.3366 29.1579 10.6489 29.4382 11.02 29.6159C11.3911 29.7936 11.8053 29.8612 12.2137 29.8107C12.622 29.7602 13.0072 29.5937 13.3238 29.3309C13.6404 29.0681 13.8751 28.7201 13.9999 28.3281L14.9279 25.3521H25.3279C25.7184 25.3553 26.1056 25.2814 26.4674 25.1346C26.8292 24.9879 27.1586 24.7712 27.4365 24.497C27.7144 24.2227 27.9355 23.8964 28.0871 23.5366C28.2387 23.1767 28.3178 22.7905 28.3199 22.4001V7.4641L21.5999 0.600098ZM22.1759 4.0481L24.9439 6.8721H22.1679L22.1759 4.0481ZM12.1119 27.7361C12.1031 27.7649 12.0849 27.79 12.0603 27.8073C12.0357 27.8247 12.006 27.8334 11.9759 27.8321C11.9519 27.8338 11.928 27.8287 11.9067 27.8174C11.8855 27.806 11.8679 27.789 11.8559 27.7681L10.4479 25.4641C10.4347 25.4444 10.4169 25.4282 10.396 25.417C10.375 25.4059 10.3517 25.4001 10.3279 25.4001C10.3081 25.3995 10.2883 25.4035 10.2703 25.4118C10.2522 25.4201 10.2363 25.4326 10.2239 25.4481L6.61593 29.5521C6.60351 29.5676 6.58765 29.58 6.5696 29.5884C6.55155 29.5967 6.5318 29.6007 6.51193 29.6001C6.4757 29.6129 6.43616 29.6129 6.39993 29.6001L4.53593 27.6881C4.50949 27.6599 4.49478 27.6227 4.49478 27.5841C4.49478 27.5455 4.50949 27.5083 4.53593 27.4801L8.63993 23.8801C8.65812 23.8667 8.67291 23.8492 8.6831 23.8291C8.6933 23.8089 8.69861 23.7867 8.69861 23.7641C8.69861 23.7415 8.6933 23.7193 8.6831 23.6991C8.67291 23.6789 8.65812 23.6615 8.63993 23.6481L6.33593 22.2401C6.30957 22.2306 6.28677 22.2133 6.27065 22.1903C6.25454 22.1674 6.24589 22.1401 6.24589 22.1121C6.24589 22.0841 6.25454 22.0568 6.27065 22.0338C6.28677 22.0109 6.30957 21.9936 6.33593 21.9841L14.4399 19.4481H14.4799C14.5027 19.4466 14.5254 19.4509 14.546 19.4604C14.5667 19.47 14.5846 19.4847 14.5982 19.503C14.6117 19.5213 14.6204 19.5427 14.6235 19.5653C14.6266 19.5878 14.624 19.6108 14.6159 19.6321L12.1119 27.7361ZM25.3519 23.3521H15.5759L16.5599 20.2241C16.6604 19.9029 16.6838 19.5627 16.6284 19.2308C16.5729 18.8989 16.4401 18.5847 16.2407 18.3136C16.0413 18.0426 15.7809 17.8223 15.4806 17.6705C15.1803 17.5188 14.8484 17.4398 14.5119 17.4401V17.4401C14.295 17.44 14.0793 17.4724 13.8719 17.5361L11.1439 18.4001V3.5681C11.1439 3.31275 11.2448 3.06774 11.4246 2.88643C11.6044 2.70512 11.8486 2.60221 12.1039 2.6001H20.1679V7.0801C20.17 7.5561 20.3606 8.01188 20.698 8.34772C21.0353 8.68356 21.4919 8.8721 21.9679 8.8721H26.3199V22.4001C26.3157 22.654 26.2119 22.8962 26.0308 23.0743C25.8497 23.2523 25.6059 23.3521 25.3519 23.3521V23.3521Z" fill="#1D1C1D"></path></svg>