<svg class="c-feature-grid__item__icon" fill="none" height="48" viewbox="0 0 32 32" width="48" xmlns="http://www.w3.org/2000/svg"><path d="M28.0001 8.86394H19.9441V6.73594C19.9441 5.8342 19.5859 4.9694 18.9483 4.33177C18.3106 3.69415 17.4458 3.33594 16.5441 3.33594H4.0001C3.09901 3.33805 2.23543 3.69694 1.59827 4.33411C0.961102 4.97127 0.60221 5.83485 0.600098 6.73594V17.3519C0.600098 18.2537 0.958311 19.1185 1.59593 19.7561C2.23356 20.3937 3.09836 20.7519 4.0001 20.7519H5.2801V23.5039C5.27986 23.6949 5.33387 23.882 5.43584 24.0435C5.53782 24.2049 5.68356 24.3341 5.8561 24.4159C6.0308 24.4926 6.22322 24.5197 6.41229 24.4943C6.60136 24.4689 6.77981 24.392 6.9281 24.2719L11.1361 20.7519H12.0561V22.8719C12.0561 23.7758 12.4152 24.6426 13.0543 25.2818C13.6934 25.9209 14.5602 26.2799 15.4641 26.2799H20.8641L25.0721 29.8079C25.2549 29.9577 25.4838 30.0397 25.7201 30.0399C25.8668 30.0397 26.0116 30.0069 26.1441 29.9439C26.3154 29.8627 26.4603 29.7348 26.5622 29.5748C26.6641 29.4149 26.7188 29.2295 26.7201 29.0399V26.2799H28.0001C28.9018 26.2799 29.7666 25.9217 30.4043 25.2841C31.0419 24.6465 31.4001 23.7817 31.4001 22.8799V12.2639C31.398 11.3629 31.0391 10.4993 30.4019 9.86211C29.7648 9.22494 28.9012 8.86605 28.0001 8.86394V8.86394ZM10.7681 18.7519C10.5349 18.7559 10.3097 18.8375 10.1281 18.9839L7.2801 21.3839V19.7839C7.2801 19.5187 7.17474 19.2644 6.9872 19.0768C6.79967 18.8893 6.54531 18.7839 6.2801 18.7839H4.0001C3.62879 18.7839 3.2727 18.6364 3.01015 18.3739C2.7476 18.1113 2.6001 17.7552 2.6001 17.3839V6.73594C2.6022 6.36528 2.75037 6.01041 3.01247 5.74831C3.27457 5.48621 3.62944 5.33804 4.0001 5.33594H16.5441C16.9154 5.33594 17.2715 5.48344 17.534 5.74599C17.7966 6.00854 17.9441 6.36463 17.9441 6.73594V17.3439C17.9441 17.5288 17.9077 17.7119 17.8369 17.8828C17.7662 18.0536 17.6624 18.2088 17.5317 18.3395C17.401 18.4703 17.2457 18.574 17.0749 18.6448C16.9041 18.7155 16.721 18.7519 16.5361 18.7519H10.7681ZM29.4001 22.8799C29.4001 23.2512 29.2526 23.6073 28.99 23.8699C28.7275 24.1324 28.3714 24.2799 28.0001 24.2799H25.7201C25.4549 24.2799 25.2005 24.3853 25.013 24.5728C24.8255 24.7604 24.7201 25.0147 24.7201 25.2799V26.8799L21.8721 24.4799C21.6939 24.3266 21.4671 24.2416 21.2321 24.2399H15.4641C15.0907 24.2399 14.7325 24.0916 14.4685 23.8275C14.2044 23.5635 14.0561 23.2054 14.0561 22.8319V20.7519H16.5441C17.4458 20.7519 18.3106 20.3937 18.9483 19.7561C19.5859 19.1185 19.9441 18.2537 19.9441 17.3519V10.8719H28.0001C28.3708 10.874 28.7256 11.0222 28.9877 11.2843C29.2498 11.5464 29.398 11.9013 29.4001 12.2719V22.8799Z" fill="#1D1C1D"></path><path d="M6.11202 10.8479C5.90267 10.8526 5.69937 10.919 5.52758 11.0388C5.35579 11.1585 5.22316 11.3263 5.14629 11.5211C5.06943 11.7159 5.05175 11.929 5.09548 12.1338C5.1392 12.3386 5.24238 12.5259 5.3921 12.6723C5.54181 12.8187 5.7314 12.9177 5.93712 12.9569C6.14283 12.996 6.35552 12.9736 6.54855 12.8924C6.74157 12.8112 6.90635 12.6749 7.02224 12.5005C7.13813 12.326 7.19997 12.1213 7.20002 11.9119C7.20116 11.7698 7.17362 11.629 7.11904 11.4978C7.06446 11.3666 6.98397 11.2478 6.88239 11.1484C6.7808 11.0491 6.66022 10.9713 6.52784 10.9196C6.39547 10.868 6.25404 10.8436 6.11202 10.8479V10.8479Z" fill="#1D1C1D"></path><path d="M10.296 10.8479C10.0859 10.8495 9.88098 10.9133 9.70706 11.0311C9.53314 11.149 9.39801 11.3157 9.31871 11.5103C9.2394 11.7048 9.21947 11.9185 9.26142 12.1244C9.30337 12.3302 9.40534 12.5191 9.55445 12.6671C9.70357 12.8151 9.89317 12.9156 10.0993 12.956C10.3055 12.9964 10.519 12.9749 10.713 12.8942C10.9069 12.8134 11.0727 12.677 11.1892 12.5022C11.3058 12.3274 11.368 12.122 11.368 11.9119C11.368 11.7715 11.3402 11.6325 11.2862 11.5029C11.2323 11.3733 11.1532 11.2556 11.0535 11.1567C10.9539 11.0578 10.8356 10.9796 10.7056 10.9266C10.5756 10.8736 10.4364 10.8469 10.296 10.8479V10.8479Z" fill="#1D1C1D"></path><path d="M14.4881 12.9759C14.6985 12.9759 14.9043 12.9135 15.0792 12.7966C15.2542 12.6797 15.3906 12.5135 15.4711 12.3191C15.5516 12.1247 15.5727 11.9107 15.5317 11.7043C15.4906 11.4979 15.3893 11.3083 15.2405 11.1595C15.0917 11.0107 14.9021 10.9094 14.6957 10.8683C14.4893 10.8273 14.2753 10.8484 14.0809 10.9289C13.8865 11.0094 13.7203 11.1458 13.6034 11.3208C13.4865 11.4957 13.4241 11.7015 13.4241 11.9119C13.423 12.0519 13.4498 12.1908 13.5029 12.3203C13.556 12.4499 13.6344 12.5676 13.7334 12.6666C13.8324 12.7656 13.9501 12.844 14.0797 12.8971C14.2092 12.9502 14.3481 12.977 14.4881 12.9759Z" fill="#1D1C1D"></path></svg>