<svg class="c-nav--footer__svgicon" height="20" viewbox="0 0 16 16" width="20" xmlns="http://www.w3.org/2000/svg"><path d="M14.816 0C15.466 0 16 .512 16 1.152v13.696c0 .63-.533 1.152-1.184 1.152H1.184C.534 16 0 15.477 0 14.848V1.152C0 .512.533 0 1.184 0zM3.563 4.96a1.382 1.382 0 0 0 0-2.763c-.768 0-1.376.619-1.376 1.376 0 .768.608 1.387 1.376 1.387zm10.069 4.49c0-2.058-.437-3.637-2.848-3.637-1.152 0-1.92.63-2.24 1.227h-.032V5.995H6.24v7.637h2.368V9.856c0-.992.181-1.963 1.419-1.963 1.216 0 1.237 1.142 1.237 2.027v3.712h2.368zM2.368 13.633h2.379V5.995H2.368z" fill-rule="evenodd"></path></svg>