<svg class="c-locale-new-switcher__globe" height="18" viewbox="0 0 100 100" width="18"><path d="M50.008 5.874c-11.308 0-22.613 4.3-31.219 12.906-17.211 17.211-17.211 45.226 0 62.438 17.211 17.21 45.195 17.21 62.406 0 17.212-17.212 17.243-45.227.032-62.438-8.606-8.606-19.912-12.906-31.22-12.906zm-3.125 6.125h.125v34.969H28.914c.58-10.29 4.095-20.385 10.594-28.157 2.27-2.715 4.757-4.983 7.375-6.812zm6.125 0h.062a38 38 0 0 1 7.407 6.812c6.498 7.772 10.014 17.866 10.593 28.157H53.008v-34.97zm-18.094 2.937c-7.508 8.978-11.557 20.412-12.156 32.032H11.977c.687-8.725 4.343-17.25 11.03-23.938a38.166 38.166 0 0 1 11.907-8.094zm30.219.062a38.176 38.176 0 0 1 11.812 8.063c6.685 6.685 10.369 15.19 11.063 23.906H77.227c-.598-11.59-4.623-23-12.094-31.969zm-53.156 37.97h10.78c.59 11.638 4.638 23.07 12.157 32.062a38.133 38.133 0 0 1-11.875-8.063c-6.7-6.7-10.376-15.258-11.062-24zm16.937 0h18.094V88.03h-.063c-2.644-1.838-5.146-4.135-7.437-6.875-6.512-7.787-10.025-17.876-10.594-28.188zm24.094 0H71.07c-.568 10.31-4.082 20.4-10.593 28.187-2.298 2.747-4.817 5.034-7.47 6.875V52.967zm24.219 0h10.812c-.679 8.741-4.39 17.295-11.094 24A38.07 38.07 0 0 1 65.04 85.06c.01-.011.022-.02.031-.031 7.52-8.992 11.568-20.424 12.157-32.063z"></path></svg>