<svg class="ng-scope" height="26px" version="1.1" viewbox="102 0 40 26" width="40px" xmlns="http://www.w3.org/2000/svg" xmlns:xlink="http://www.w3.org/1999/xlink">
<!-- Generator: Sketch 41.2 (35397) - http://www.bohemiancoding.com/sketch -->
<desc>Created with Sketch.</desc>
<defs>
<polygon id="path-1" points="2.04014815 9.51954153 0.0333333333 9.51954153 0.0333333333 0.0242724252 2.04014815 0.0242724252 4.04696296 0.0242724252 4.04696296 9.51954153 2.04014815 9.51954153"></polygon>
</defs>
<g fill="none" fill-rule="evenodd" id="Page-1" stroke="none" stroke-width="1" transform="translate(102.000000, 0.000000)">
<path d="M37.8501564,25.8694817 L2.11484774,25.8694817 C0.951720165,25.8694817 3.29218108e-05,24.8706844 3.29218108e-05,23.6498937 L3.29218108e-05,2.21967442 C3.29218108e-05,0.998883721 0.951720165,0 2.11484774,0 L37.8501564,0 C39.0133663,0 39.9650535,0.998883721 39.9650535,2.21967442 L39.9650535,23.6498937 C39.9650535,24.8706844 39.0133663,25.8694817 37.8501564,25.8694817" fill="#F2F2F2" id="Fill-1"></path>
<polygon fill="#E6B73A" id="Fill-3" points="30.1584609 12.5949096 30.1358272 12.2712485 30.0967325 11.9519063 30.0433169 11.6389561 29.9753333 11.3303249 29.8931111 11.0282585 29.7965679 10.7304246 29.6875144 10.441315 29.5641399 10.1585973 29.4304774 9.88235814 29.2824115 9.61700266 29.1242222 9.35587973 28.9534403 9.10555415 28.772535 8.86602591 28.5813416 8.63297608 28.3777202 8.41072359 28.1660329 8.19918206 27.9439753 7.99852425 27.7136872 7.80857741 27.4750864 7.62951429 27.2263621 7.46332159 26.9713004 7.31008571 26.7080905 7.16989302 26.4367325 7.0404113 26.1591193 6.92604585 25.8754979 6.82455083 25.5854568 6.73825847 25.291465 6.66708239 24.9891605 6.61093621 24.684963 6.56999269 24.374428 6.54623854 24.0598601 6.53760066 23.7472675 6.54623854 23.4368971 6.56999269 23.132535 6.61093621 22.8322881 6.66708239 22.5382963 6.73825847 22.2484198 6.82455083 21.9666914 6.92604585 21.6891605 7.0404113 21.4196955 7.16989302 21.1586255 7.31008571 20.9037284 7.46332159 20.6569794 7.62951429 20.4183786 7.80857741 20.1880905 7.99852425 19.9824938 8.18605249 20.2085844 8.41072359 20.4102305 8.63297608 20.6014239 8.86602591 20.7824115 9.10555415 20.9509712 9.35587973 21.1093251 9.61700266 21.2551687 9.88235814 21.3909712 10.1585973 21.5122058 10.441315 21.6212593 10.7304246 21.7158272 11.0282585 21.7981317 11.3303249 21.8658683 11.6389561 21.9194486 11.9519063 21.9583786 12.2712485 21.9810947 12.5949096 21.9892428 12.9229761 21.9810947 13.2531156 21.9583786 13.5789362 21.9194486 13.8982784 21.8658683 14.2155475 21.7981317 14.5240924 21.7158272 14.8284047 21.6212593 15.1261522 21.5122058 15.4175076 21.3909712 15.7022983 21.2551687 15.9785375 21.1093251 16.2462252 20.9509712 16.5072618 20.7824115 16.7575874 20.6014239 16.9992751 20.4102305 17.2324113 20.2085844 17.4545774 19.9968148 17.668192 20.1880905 17.8689362 20.4183786 18.0587967 20.6569794 18.2379462 20.9037284 18.4040525 21.1586255 18.5594478 21.4196955 18.6997269 21.6891605 18.8292086 21.9666914 18.9435741 22.2484198 19.0449827 22.5382963 19.1313615 22.8322881 19.2025375 23.132535 19.2586837 23.4368971 19.2996272 23.7472675 19.3233814 24.0598601 19.3319329 24.374428 19.3233814 24.684963 19.2996272 24.9891605 19.2586837 25.291465 19.2025375 25.5854568 19.1313615 25.8754979 19.0449827 26.1591193 18.9435741 26.4367325 18.8292086 26.7080905 18.6997269 26.9713004 18.5594478 27.2263621 18.4040525 27.4750864 18.2379462 27.7136872 18.0587967 27.9439753 17.8689362 28.1660329 17.668192 28.3777202 17.4545774 28.5813416 17.2324113 28.772535 16.9992751 28.9534403 16.7575874 29.1242222 16.5072618 29.2824115 16.2462252 29.4304774 15.9785375 29.5641399 15.7022983 29.6875144 15.4175076 29.7965679 15.1261522 29.8931111 14.8284047 29.9753333 14.5240924 30.0433169 14.2155475 30.0967325 13.8982784 30.1358272 13.5789362 30.1584609 13.2531156 30.1666914 12.9229761"></polygon>
<polygon fill="#BE0024" id="Fill-5" points="19.7563457 17.4546379 19.5548642 17.2323854 19.3635885 16.9992492 19.1826831 16.7576478 19.0140412 16.5072359 18.8556872 16.2461993 18.7097613 15.9785116 18.5740412 15.7023588 18.4527243 15.4174817 18.3437531 15.1262126 18.2491852 14.8283787 18.1668807 14.5240664 18.099144 14.215608 18.0456461 13.8982525 18.0065514 13.5789967 17.9839177 13.2530033 17.9756872 12.9229502 17.9839177 12.5949701 18.0065514 12.2712226 18.0456461 11.951794 18.099144 11.6389302 18.1668807 11.3303854 18.2491852 11.0283189 18.3437531 10.7303987 18.4527243 10.441289 18.5740412 10.1586578 18.7097613 9.88233223 18.8556872 9.61697674 19.0140412 9.3559402 19.1826831 9.10552824 19.3635885 8.866 19.5548642 8.63295017 19.7563457 8.4106113 19.9681152 8.19924252 19.9825185 8.18611296 19.7769218 7.99849834 19.5466337 7.80863787 19.3081152 7.62948837 19.0613663 7.46338206 18.8063868 7.31014618 18.5452346 7.16995349 18.2759342 7.04047176 17.998321 6.92601993 17.7165926 6.8246113 17.426716 6.73823256 17.132642 6.66705648 16.8324774 6.6109103 16.5281975 6.5698804 16.2176626 6.54621262 15.9051523 6.53766113 15.5905844 6.54621262 15.2800494 6.5698804 14.9757695 6.6109103 14.6735473 6.66705648 14.3794733 6.73823256 14.0895967 6.8246113 13.8058107 6.92601993 13.5281975 7.04047176 13.2568395 7.16995349 12.9936296 7.31014618 12.7386502 7.46338206 12.4899259 7.62948837 12.2514074 7.80863787 12.021037 7.99849834 11.7989794 8.19924252 11.5872099 8.4106113 11.3836708 8.63295017 11.1924774 8.866 11.0114897 9.10552824 10.8408724 9.3559402 10.6825185 9.61697674 10.5344527 9.88233223 10.4007901 10.1586578 10.2774979 10.441289 10.1685267 10.7303987 10.0719012 11.0283189 9.98959671 11.3303854 9.92177778 11.6389302 9.86827984 11.951794 9.82918519 12.2712226 9.80655144 12.5949701 9.79840329 12.9229502 9.80655144 13.2530033 9.82918519 13.5789967 9.86827984 13.8982525 9.92177778 14.215608 9.98959671 14.5240664 10.0719012 14.8283787 10.1685267 15.1262126 10.2774979 15.4174817 10.4007901 15.7023588 10.5344527 15.9785116 10.6825185 16.2461993 10.8408724 16.5072359 11.0114897 16.7576478 11.1924774 16.9992492 11.3836708 17.2323854 11.5872099 17.4546379 11.7989794 17.6682525 12.021037 17.8689103 12.2514074 18.0587708 12.4899259 18.2378339 12.7386502 18.4040266 12.9936296 18.5595083 13.2568395 18.699701 13.5281975 18.8291827 13.8058107 18.9435482 14.0895967 19.0448704 14.3794733 19.1312492 14.6735473 19.2024252 14.9757695 19.2586578 15.2800494 19.299515 15.5905844 19.3233555 15.9051523 19.331907 16.2176626 19.3233555 16.5281975 19.299515 16.8324774 19.2586578 17.132642 19.2024252 17.426716 19.1312492 17.7165926 19.0448704 17.998321 18.9435482 18.2759342 18.8291827 18.5452346 18.699701 18.8063868 18.5595083 19.0613663 18.4040266 19.3081152 18.2378339 19.5466337 18.0587708 19.7769218 17.8689103 19.9825185 17.6813821 19.9681152 17.6682525"></polygon>
<g id="Group-9" transform="translate(17.942387, 8.161841)">
<mask fill="white" id="mask-2">
<use xlink:href="#path-1"></use>
</mask>
<g id="Clip-8"></g>
</g>
<g fill="#D4644B" id="Group-12" transform="translate(17.942387, 8.161841)">
<polygon id="Fill-10" points="2.26630453 9.29279734 2.4677037 9.07054485 2.65897942 8.83740864 2.83996708 8.59580731 3.00852675 8.34539535 3.16679835 8.0843588 3.31288889 7.8166711 3.44852675 7.54051827 3.56992593 7.2556412 3.67889712 6.96437209 3.77346502 6.66653821 3.85568724 6.36222591 3.92358848 6.05376744 3.97692181 5.73641196 4.01609877 5.41715615 4.03865021 5.09116279 4.04696296 4.76110963 4.03865021 4.43312957 4.01609877 4.10938206 3.97692181 3.78995349 3.92358848 3.4770897 3.85568724 3.16854485 3.77346502 2.86647841 3.67889712 2.56855814 3.56992593 2.2794485 3.44852675 1.99681728 3.31288889 1.72049169 3.16679835 1.45513621 3.00852675 1.19409967 2.83996708 0.943687708 2.65897942 0.704159468 2.4677037 0.471109635 2.26630453 0.248770764 2.05453498 0.0374019934 2.04004938 0.0242724252 2.0257284 0.0374019934 1.81395885 0.248770764 1.61247737 0.471109635 1.42111934 0.704159468 1.2402963 0.943687708 1.07173663 1.19409967 0.913382716 1.45513621 0.767374486 1.72049169 0.631654321 1.99681728 0.510337449 2.2794485 0.401366255 2.56855814 0.306716049 2.86647841 0.224576132 3.16854485 0.156757202 3.4770897 0.103259259 3.78995349 0.0641646091 4.10938206 0.0415308642 4.43312957 0.0333004115 4.76110963 0.0415308642 5.09116279 0.0641646091 5.41715615 0.103259259 5.73641196 0.156757202 6.05376744 0.224576132 6.36222591 0.306716049 6.66653821 0.401366255 6.96437209 0.510337449 7.2556412 0.631654321 7.54051827 0.767374486 7.8166711 0.913382716 8.0843588 1.07173663 8.34539535 1.2402963 8.59580731 1.42111934 8.83740864 1.61247737 9.07054485 1.81395885 9.29279734 2.0257284 9.50641196 2.04004938 9.51954153 2.05453498 9.50641196"></polygon>
</g>
</g>
</svg>