<svg class="ng-scope" height="26px" version="1.1" viewbox="0 0 40 26" width="40px" xmlns="http://www.w3.org/2000/svg" xmlns:xlink="http://www.w3.org/1999/xlink">
<!-- Generator: Sketch 42 (36781) - http://www.bohemiancoding.com/sketch -->
<desc>Created with Sketch.</desc>
<defs></defs>
<g fill="none" fill-rule="evenodd" id="method-amex" stroke="none" stroke-width="1">
<path d="M37.8501564,25.8694817 L2.11484774,25.8694817 C0.951720165,25.8694817 3.2921811e-05,24.8706844 3.2921811e-05,23.6498937 L3.2921811e-05,2.21967442 C3.2921811e-05,0.998883721 0.951720165,0 2.11484774,0 L37.8501564,0 C39.0133663,0 39.9650535,0.998883721 39.9650535,2.21967442 L39.9650535,23.6498937 C39.9650535,24.8706844 39.0133663,25.8694817 37.8501564,25.8694817" fill="#0078BF" id="Fill-1"></path>
<path d="M29.1669053,13.0157009 L31.2941481,15.5406114 L29.8458354,15.5406114 L28.423037,13.863289 L26.9444362,15.5406114 L25.5990041,15.5406114 L25.5990041,15.5394902 L22.3674815,15.5394902 L22.3674815,10.4735401 L24.959251,10.4735401 L24.959251,10.4734539 L27.0148889,10.4734539 L28.4364527,12.1343886 L29.9061646,10.4734539 L31.4319259,10.4734539 L29.1669053,13.0157009 Z M20.3077284,15.5394902 L20.3034486,11.5718598 L18.6278107,15.5394902 L17.6133251,15.5394902 L15.933572,11.5683235 L15.933572,15.5394902 L13.5833663,15.5394902 L13.1394156,14.4095164 L10.7336543,14.4095164 L10.2850947,15.5394902 L9.03003292,15.5394902 L11.099251,10.4735401 L12.8159588,10.4735401 L14.7812263,15.2698697 L14.7812263,10.4735401 L16.6669877,10.4735401 L18.1791687,13.9101233 L19.5683045,10.4735401 L21.4921728,10.4735401 L21.4921728,15.5394902 L20.3077284,15.5394902 Z M32.4066584,9.46552517 L31.8236955,9.46552517 L31.4355473,9.46552517 L29.4005679,9.46552517 L28.4464115,10.5476297 L27.552749,9.46552517 L22.0532428,9.46552517 L22.0532428,9.46906146 L18.8760412,9.46906146 L18.1233663,11.2939592 L17.3504444,9.46906146 L13.8171934,9.46906146 L13.8171934,10.3035395 L13.4290453,9.46906146 L10.4157942,9.46906146 L7.55842798,16.5344812 L9.01669959,16.5344812 L10.9909383,16.5344812 L11.4360412,15.4092512 L12.4325844,15.4092512 L12.8766173,16.5344812 L16.761144,16.5344812 L16.761144,15.6742142 L17.1078107,16.5381038 L19.1243539,16.5381038 L19.4711029,15.6613628 L19.4711029,16.5344812 L22.0532428,16.5344812 L22.0532428,16.535775 L27.4356296,16.535775 L28.4186749,15.4365928 L29.34493,16.535775 L31.4355473,16.5377588 L31.4355473,16.5381038 L32.4066584,16.5381038 L32.4066584,15.3035075 L30.4791687,13.0157009 L32.4066584,10.8522681 L32.4066584,9.46552517 Z" fill="#FFFFFF" id="Fill-6"></path>
<polygon fill="#FFFFFF" id="Fill-4" points="23.5186008 11.5214289 23.5186008 12.4426754 26.0553086 12.4426754 26.0553086 13.4764794 23.5186008 13.4764794 23.5186008 14.4845806 26.3595885 14.4845806 27.6793416 12.9980453 26.4155556 11.5214289"></polygon>
<polygon fill="#FFFFFF" id="Fill-5" points="11.1449877 13.3534596 12.7222716 13.3534596 11.9314074 11.3339797"></polygon>
</g>
</svg>