<svg class="ng-scope" height="26px" version="1.1" viewbox="51 0 40 26" width="40px" xmlns="http://www.w3.org/2000/svg" xmlns:xlink="http://www.w3.org/1999/xlink">
<!-- Generator: Sketch 41.2 (35397) - http://www.bohemiancoding.com/sketch -->
<desc>Created with Sketch.</desc>
<defs></defs>
<g fill="none" fill-rule="evenodd" id="Page-1" stroke="none" stroke-width="1" transform="translate(51.000000, 0.000000)">
<path d="M37.8501564,25.8694817 L2.11484774,25.8694817 C0.951720165,25.8694817 3.29218108e-05,24.8706844 3.29218108e-05,23.6498937 L3.29218108e-05,2.21967442 C3.29218108e-05,0.998883721 0.951720165,0 2.11484774,0 L37.8501564,0 C39.0133663,0 39.9650535,0.998883721 39.9650535,2.21967442 L39.9650535,23.6498937 C39.9650535,24.8706844 39.0133663,25.8694817 37.8501564,25.8694817" fill="#2A75AD" id="Fill-1"></path>
<polygon fill="#FFFFFF" id="Fill-3" points="15.87493 16.2853203 17.8236543 9.5410412 19.5620905 9.5410412 17.6136955 16.2853203"></polygon>
<path d="M15.0968148,9.54297608 L13.5326996,12.4010757 C13.1354979,13.1505841 12.9023292,13.5285774 12.7904774,14.001501 L12.7663621,14.001501 C12.7946749,13.401687 12.7143457,12.6662585 12.7075144,12.2491355 L12.5342634,9.54297608 L9.60759671,9.54297608 L9.57772016,9.72411229 C10.3294897,9.72411229 10.7754156,10.1212817 10.8987078,10.931687 L11.4681728,16.2852684 L13.2698189,16.2852684 L16.912535,9.54297608 L15.0968148,9.54297608 Z" fill="#FFFFFF" id="Fill-5"></path>
<path d="M28.4188148,12.3068365 C28.3999671,11.8083449 28.3839177,11.1318266 28.4159342,10.7222186 L28.3900905,10.7222186 C28.2846584,11.0573681 27.8304198,12.0629894 27.6294321,12.5573349 L26.9834239,14.0354478 L28.5077037,14.0354478 L28.4188148,12.3068365 Z M28.6184856,16.2852684 L28.5705021,15.2818066 L26.400214,15.2802518 L25.9550288,16.2852684 L24.0680329,16.2852684 L27.4906667,9.55429169 L29.806963,9.55429169 L30.3873745,16.2852684 L28.6184856,16.2852684 Z" fill="#FFFFFF" id="Fill-7"></path>
<path d="M21.3882881,16.4763037 C20.1601399,16.4763037 19.3452428,16.0680777 18.7642551,15.7037322 L19.5919095,14.3752272 C20.114214,14.6825628 20.5240082,15.0362837 21.4679588,15.0362837 C21.7703457,15.0362837 22.0631852,14.9533601 22.2289465,14.6512073 C22.4707572,14.213008 22.1734733,13.9768485 21.4939671,13.5737189 L21.1585761,13.344297 C20.1519095,12.6225163 19.7156132,11.9360645 20.1901811,10.7390279 C20.4935556,9.97414419 21.2929794,9.39324718 22.6132263,9.39324718 C23.5231852,9.39324718 24.3764362,9.80691495 24.8738848,10.2103037 L23.9217037,11.3821176 C23.4363539,10.9703502 23.034214,10.7621774 22.5735556,10.7621774 C22.2070535,10.7621774 21.9275473,10.9108352 21.8318272,11.1110611 C21.6509218,11.4879316 21.8906749,11.7440445 22.4194815,12.089214 L22.8186584,12.3550013 C24.0410453,13.1641973 24.3325679,14.0126957 24.025572,14.805307 C23.4989053,16.1713867 22.4668066,16.4763037 21.3882881,16.4763037" fill="#FFFFFF" id="Fill-9"></path>
</g>
</svg>